@startuml
left to right direction
'top to bottom direction
hide circle
'avoide "." issues:
set namespaceSeparator none


skinparam class {
  BackgroundColor White
  BackgroundColor<<FN>> Yellow
  BackgroundColor<<FS>> Yellow
  BackgroundColor<<FT>> LightGray
  BackgroundColor<<IF>> Yellow
  BackgroundColor<<IS>> Yellow
  BackgroundColor<<P>> Aqua
  BackgroundColor<<PC>> Aqua
  BackgroundColor<<SN>> Yellow
  BackgroundColor<<SO>> SlateBlue
  BackgroundColor<<TF>> LightGray
  BackgroundColor<<TR>> Tomato
  BackgroundColor<<U>> White
  BackgroundColor<<V>> WhiteSmoke
  BackgroundColor<<X>> Aqua
  BackgroundColor<<external>> AliceBlue
}


entity "puml-link:dhw:sqldb:config.ftv_dwh_database.adoc[]" as config.ftv_dwh_database << IF >> {
  --
}

entity "puml-link:dhw:sqldb:config.parameter.adoc[]" as config.Parameter << U >> {
  - **Parameter_name** : (varchar(100))
  - **sub_Parameter** : (nvarchar(128))
  --
}

entity "puml-link:dhw:sqldb:reference.repoobjectcolumn_reference_queryplan.adoc[]" as reference.RepoObjectColumn_reference_QueryPlan << V >> {
  **referencing_id** : (int)
  **referencing_minor_id** : (int)
  **referenced_id** : (int)
  **referenced_minor_id** : (int)
  --
}

entity "puml-link:dhw:sqldb:reference.usp_update_referencing_count.adoc[]" as reference.usp_update_Referencing_Count << P >> {
  --
}

entity "puml-link:dhw:sqldb:repo.repoobject_sqlcreatetable.adoc[]" as repo.RepoObject_SqlCreateTable << V >> {
  - **RepoObject_guid** : (uniqueidentifier)
  --
}

entity "puml-link:dhw:sqldb:repo.usp_update_referencing_count.adoc[]" as repo.usp_update_Referencing_Count << P >> {
  --
}

entity "puml-link:dhw:sqldb:repo_sys.extendedproperties.adoc[]" as repo_sys.ExtendedProperties << V >> {
  --
}

entity "puml-link:dhw:sqldb:repo_sys.sql_expression_dependencies.adoc[]" as repo_sys.sql_expression_dependencies << V >> {
  --
}

entity "puml-link:dhw:sqldb:repo_sys.syscolumn.adoc[]" as repo_sys.SysColumn << V >> {
  --
}

entity "puml-link:dhw:sqldb:uspgenerator.generatorusp_sqlusp.adoc[]" as uspgenerator.GeneratorUsp_SqlUsp << V >> {
  --
}

entity "puml-link:dhw:sqldb:workflow.workflow_sqlusp.adoc[]" as workflow.Workflow_SqlUsp << V >> {
  --
}

config.ftv_dwh_database <.. uspgenerator.GeneratorUsp_SqlUsp
config.ftv_dwh_database <.. repo_sys.ExtendedProperties
config.ftv_dwh_database <.. workflow.Workflow_SqlUsp
config.ftv_dwh_database <.. reference.usp_update_Referencing_Count
config.ftv_dwh_database <.. repo.usp_update_Referencing_Count
config.ftv_dwh_database <.. repo_sys.SysColumn
config.ftv_dwh_database <.. repo_sys.sql_expression_dependencies
config.ftv_dwh_database <.. reference.RepoObjectColumn_reference_QueryPlan
config.ftv_dwh_database <.. repo.RepoObject_SqlCreateTable
config.Parameter <.. config.ftv_dwh_databasefooter The diagram is interactive and contains links.
@enduml

