@startuml
left to right direction
'top to bottom direction
hide circle
'avoide "." issues:
set namespaceSeparator none


skinparam class {
  BackgroundColor White
  BackgroundColor<<FN>> Yellow
  BackgroundColor<<FS>> Yellow
  BackgroundColor<<FT>> LightGray
  BackgroundColor<<IF>> Yellow
  BackgroundColor<<IS>> Yellow
  BackgroundColor<<P>> Aqua
  BackgroundColor<<PC>> Aqua
  BackgroundColor<<SN>> Yellow
  BackgroundColor<<SO>> SlateBlue
  BackgroundColor<<TF>> LightGray
  BackgroundColor<<TR>> Tomato
  BackgroundColor<<U>> White
  BackgroundColor<<V>> WhiteSmoke
  BackgroundColor<<X>> Aqua
  BackgroundColor<<external>> AliceBlue
}


entity "puml-link:dhw:sqldb:docs.culture.adoc[]" as docs.Culture << V >> {
  --
}

entity "puml-link:dhw:sqldb:docs.objectrefcyclic.adoc[]" as docs.ObjectRefCyclic << V >> {
  --
}

entity "puml-link:dhw:sqldb:docs.repoobject_outputfilter.adoc[]" as docs.RepoObject_OutputFilter << V >> {
  - **RepoObject_guid** : (uniqueidentifier)
  - **cultures_name** : (nvarchar(10))
  --
}

entity "puml-link:dhw:sqldb:docs.usp_antoraexport.adoc[]" as docs.usp_AntoraExport << P >> {
  --
}

entity "puml-link:dhw:sqldb:docs.usp_antoraexport_docsnippet.adoc[]" as docs.usp_AntoraExport_DocSnippet << P >> {
  --
}

entity "puml-link:dhw:sqldb:docs.usp_antoraexport_objectnavigation.adoc[]" as docs.usp_AntoraExport_ObjectNavigation << P >> {
  --
}

entity "puml-link:dhw:sqldb:docs.usp_antoraexport_objectpagetemplate.adoc[]" as docs.usp_AntoraExport_ObjectPageTemplate << P >> {
  --
}

entity "puml-link:dhw:sqldb:docs.usp_antoraexport_objectrefcyclic.adoc[]" as docs.usp_AntoraExport_ObjectRefCyclic << P >> {
  --
}

entity "puml-link:dhw:sqldb:docs.usp_antoraexport_page_indexsemanticgroup.adoc[]" as docs.usp_AntoraExport_Page_IndexSemanticGroup << P >> {
  --
}

entity "puml-link:dhw:sqldb:ssas.measures_translation.adoc[]" as ssas.Measures_translation << V >> {
  - **Measure_guid** : (uniqueidentifier)
  - **cultures_name** : (nvarchar(10))
  **RepoObject_name** : (nvarchar(128))
  --
}

entity "puml-link:dhw:sqldb:ssas.model_json_3411_cultures_translations_model_t.adoc[]" as ssas.model_json_3411_cultures_translations_model_T << U >> {
  - **databasename** : (nvarchar(128))
  **cultures_name** : (nvarchar(500))
  --
}

entity "puml-link:dhw:sqldb:ssas.repoobjectcolumn_translation.adoc[]" as ssas.RepoObjectColumn_translation << V >> {
  - **RepoObjectColumn_guid** : (uniqueidentifier)
  - **cultures_name** : (nvarchar(10))
  --
}

docs.culture <.. docs.usp_AntoraExport
docs.Culture <.. docs.usp_AntoraExport_Page_IndexSemanticGroup
docs.culture <.. docs.usp_AntoraExport_ObjectPageTemplate
docs.Culture <.. docs.RepoObject_OutputFilter
docs.culture <.. docs.usp_AntoraExport_ObjectRefCyclic
docs.Culture <.. ssas.RepoObjectColumn_translation
docs.Culture <.. docs.ObjectRefCyclic
docs.Culture <.. docs.usp_AntoraExport_DocSnippet
docs.Culture <.. ssas.Measures_translation
docs.culture <.. docs.usp_AntoraExport_ObjectNavigation
ssas.model_json_3411_cultures_translations_model_T <.. docs.Culturefooter The diagram is interactive and contains links.
@enduml

