@startuml
left to right direction
'top to bottom direction
hide circle
'avoide "." issues:
set namespaceSeparator none


skinparam class {
  BackgroundColor White
  BackgroundColor<<FN>> Yellow
  BackgroundColor<<FS>> Yellow
  BackgroundColor<<FT>> LightGray
  BackgroundColor<<IF>> Yellow
  BackgroundColor<<IS>> Yellow
  BackgroundColor<<P>> Aqua
  BackgroundColor<<PC>> Aqua
  BackgroundColor<<SN>> Yellow
  BackgroundColor<<SO>> SlateBlue
  BackgroundColor<<TF>> LightGray
  BackgroundColor<<TR>> Tomato
  BackgroundColor<<U>> White
  BackgroundColor<<V>> WhiteSmoke
  BackgroundColor<<X>> Aqua
  BackgroundColor<<external>> AliceBlue
}


entity "puml-link:dhw:sqldb:docs.antoraindexsemanticgroup.adoc[]" as docs.AntoraIndexSemanticgroup << V >> {
  --
}

entity "puml-link:dhw:sqldb:docs.antoraindexsemanticgrouppatterndatatype.adoc[]" as docs.AntoraIndexSemanticgroupPatterndatatype << V >> {
  **IndexSemanticGroup** : (nvarchar(512))
  **IndexPatternColumnDatatype** : (nvarchar(4000))
  --
}

entity "puml-link:dhw:sqldb:docs.fs_cleanstringforanchorid.adoc[]" as docs.fs_cleanStringForAnchorId << FN >> {
  --
}

entity "puml-link:dhw:sqldb:docs.fs_cleanstringforfilename.adoc[]" as docs.fs_cleanStringForFilename << FN >> {
  --
}

entity "puml-link:dhw:sqldb:docs.fs_cleanstringforheader.adoc[]" as docs.fs_cleanStringForHeader << FN >> {
  --
}

entity "puml-link:dhw:sqldb:docs.repoobject_outputfilter_t.adoc[]" as docs.RepoObject_OutputFilter_T << U >> {
  - **RepoObject_guid** : (uniqueidentifier)
  - **cultures_name** : (nvarchar(10))
  --
}

entity "puml-link:dhw:sqldb:repo.index_gross.adoc[]" as repo.Index_gross << V >> {
  --
}

docs.AntoraIndexSemanticgroupPatterndatatype <.. docs.AntoraIndexSemanticgroup
docs.fs_cleanStringForAnchorId <.. docs.AntoraIndexSemanticgroupPatterndatatype
docs.fs_cleanStringForFilename <.. docs.AntoraIndexSemanticgroupPatterndatatype
docs.fs_cleanStringForHeader <.. docs.AntoraIndexSemanticgroupPatterndatatype
docs.RepoObject_OutputFilter_T <.. docs.AntoraIndexSemanticgroupPatterndatatype
repo.Index_gross <.. docs.AntoraIndexSemanticgroupPatterndatatypefooter The diagram is interactive and contains links.
@enduml

