@startuml
left to right direction
'top to bottom direction
hide circle
'avoide "." issues:
set namespaceSeparator none


skinparam class {
  BackgroundColor White
  BackgroundColor<<FN>> Yellow
  BackgroundColor<<FS>> Yellow
  BackgroundColor<<FT>> LightGray
  BackgroundColor<<IF>> Yellow
  BackgroundColor<<IS>> Yellow
  BackgroundColor<<P>> Aqua
  BackgroundColor<<PC>> Aqua
  BackgroundColor<<SN>> Yellow
  BackgroundColor<<SO>> SlateBlue
  BackgroundColor<<TF>> LightGray
  BackgroundColor<<TR>> Tomato
  BackgroundColor<<U>> White
  BackgroundColor<<V>> WhiteSmoke
  BackgroundColor<<X>> Aqua
  BackgroundColor<<external>> AliceBlue
}


entity "puml-link:dhw:sqldb:config.ftv_get_parameter_value.adoc[]" as config.ftv_get_parameter_value << IF >> {
  --
}

entity "puml-link:dhw:sqldb:docs.fs_pumlheaderlefttoright.adoc[]" as docs.fs_PumlHeaderLeftToRight << FN >> {
  --
}

entity "puml-link:dhw:sqldb:docs.fs_pumlheadertoptobottom.adoc[]" as docs.fs_PumlHeaderTopToBottom << FN >> {
  --
}

entity "puml-link:dhw:sqldb:docs.ftv_repoobject_reference_plantuml_entityreflist.adoc[]" as docs.ftv_RepoObject_Reference_PlantUml_EntityRefList << IF >> {
  --
}

entity "puml-link:dhw:sqldb:docs.repoobject_outputfilter_t.adoc[]" as docs.RepoObject_OutputFilter_T << U >> {
  - **RepoObject_guid** : (uniqueidentifier)
  - **cultures_name** : (nvarchar(10))
  --
}

entity "puml-link:dhw:sqldb:docs.repoobject_plantuml.adoc[]" as docs.RepoObject_Plantuml << V >> {
  - **RepoObject_guid** : (uniqueidentifier)
  **cultures_name** : (nvarchar(10))
  --
}

entity "puml-link:dhw:sqldb:docs.repoobject_plantuml_colreflist_1_1.adoc[]" as docs.RepoObject_Plantuml_ColRefList_1_1 << V >> {
  --
}

entity "puml-link:dhw:sqldb:docs.repoobject_plantuml_fkreflist.adoc[]" as docs.RepoObject_PlantUml_FkRefList << V >> {
  **RepoObject_guid** : (uniqueidentifier)
  --
}

entity "puml-link:dhw:sqldb:docs.repoobject_plantuml_objectreflist_0_30.adoc[]" as docs.RepoObject_Plantuml_ObjectRefList_0_30 << V >> {
  - **RepoObject_guid** : (uniqueidentifier)
  --
}

entity "puml-link:dhw:sqldb:docs.repoobject_plantuml_objectreflist_1_1.adoc[]" as docs.RepoObject_Plantuml_ObjectRefList_1_1 << V >> {
  - **RepoObject_guid** : (uniqueidentifier)
  --
}

entity "puml-link:dhw:sqldb:docs.repoobject_plantuml_objectreflist_30_0.adoc[]" as docs.RepoObject_Plantuml_ObjectRefList_30_0 << V >> {
  - **RepoObject_guid** : (uniqueidentifier)
  --
}

entity "puml-link:dhw:sqldb:docs.repoobject_plantuml_pumlentityfklist.adoc[]" as docs.RepoObject_PlantUml_PumlEntityFkList << V >> {
  **RepoObject_guid** : (uniqueidentifier)
  --
}

entity "puml-link:dhw:sqldb:docs.repoobject_plantuml_t.adoc[]" as docs.RepoObject_Plantuml_T << U >> {
  - **RepoObject_guid** : (uniqueidentifier)
  **cultures_name** : (nvarchar(10))
  --
}

entity "puml-link:dhw:sqldb:docs.usp_persist_repoobject_plantuml_t.adoc[]" as docs.usp_PERSIST_RepoObject_Plantuml_T << P >> {
  --
}

entity "puml-link:dhw:sqldb:repo.repoobject_gross.adoc[]" as repo.RepoObject_gross << V >> {
  --
}

config.ftv_get_parameter_value <.. docs.RepoObject_Plantuml
docs.fs_PumlHeaderLeftToRight <.. docs.RepoObject_Plantuml
docs.fs_PumlHeaderTopToBottom <.. docs.RepoObject_Plantuml
docs.ftv_RepoObject_Reference_PlantUml_EntityRefList <.. docs.RepoObject_Plantuml
docs.RepoObject_OutputFilter_T <.. docs.RepoObject_Plantuml
docs.RepoObject_Plantuml <.. docs.RepoObject_Plantuml_T
docs.RepoObject_Plantuml <.. docs.usp_PERSIST_RepoObject_Plantuml_T
docs.RepoObject_Plantuml_ColRefList_1_1 <.. docs.RepoObject_Plantuml
docs.RepoObject_PlantUml_FkRefList <.. docs.RepoObject_Plantuml
docs.RepoObject_Plantuml_ObjectRefList_0_30 <.. docs.RepoObject_Plantuml
docs.RepoObject_Plantuml_ObjectRefList_1_1 <.. docs.RepoObject_Plantuml
docs.RepoObject_Plantuml_ObjectRefList_30_0 <.. docs.RepoObject_Plantuml
docs.RepoObject_PlantUml_PumlEntityFkList <.. docs.RepoObject_Plantuml
repo.RepoObject_gross <.. docs.RepoObject_Plantumlfooter The diagram is interactive and contains links.
@enduml

