@startuml
left to right direction
'top to bottom direction
hide circle
'avoide "." issues:
set namespaceSeparator none


skinparam class {
  BackgroundColor White
  BackgroundColor<<FN>> Yellow
  BackgroundColor<<FS>> Yellow
  BackgroundColor<<FT>> LightGray
  BackgroundColor<<IF>> Yellow
  BackgroundColor<<IS>> Yellow
  BackgroundColor<<P>> Aqua
  BackgroundColor<<PC>> Aqua
  BackgroundColor<<SN>> Yellow
  BackgroundColor<<SO>> SlateBlue
  BackgroundColor<<TF>> LightGray
  BackgroundColor<<TR>> Tomato
  BackgroundColor<<U>> White
  BackgroundColor<<V>> WhiteSmoke
  BackgroundColor<<X>> Aqua
  BackgroundColor<<external>> AliceBlue
}


entity "puml-link:dhw:sqldb:docs.fs_cleanstringforanchorid.adoc[]" as docs.fs_cleanStringForAnchorId << FN >> {
  --
}

entity "puml-link:dhw:sqldb:docs.fs_cleanstringforfilename.adoc[]" as docs.fs_cleanStringForFilename << FN >> {
  --
}

entity "puml-link:dhw:sqldb:docs.ssis_dfttaskcomponentlist.adoc[]" as docs.ssis_DftTaskComponentList << V >> {
  --
}

entity "puml-link:dhw:sqldb:docs.ssis_pumldfttask.adoc[]" as docs.ssis_PumlDftTask << V >> {
  --
}

entity "puml-link:dhw:sqldb:docs.ssis_pumlpartialdftcomponent.adoc[]" as docs.ssis_PumlPartialDftComponent << V >> {
  --
}

entity "puml-link:dhw:sqldb:ssis.packagetask_dft_component.adoc[]" as ssis.PackageTask_Dft_Component << U >> {
  --
}

docs.fs_cleanStringForAnchorId <.. docs.ssis_PumlPartialDftComponent
docs.fs_cleanStringForFilename <.. docs.ssis_PumlPartialDftComponent
docs.ssis_PumlPartialDftComponent <.. docs.ssis_DftTaskComponentList
docs.ssis_PumlPartialDftComponent <.. docs.ssis_PumlDftTask
ssis.PackageTask_Dft_Component <.. docs.ssis_PumlPartialDftComponentfooter The diagram is interactive and contains links.
@enduml

