@startuml
left to right direction
'top to bottom direction
hide circle
'avoide "." issues:
set namespaceSeparator none


skinparam class {
  BackgroundColor White
  BackgroundColor<<FN>> Yellow
  BackgroundColor<<FS>> Yellow
  BackgroundColor<<FT>> LightGray
  BackgroundColor<<IF>> Yellow
  BackgroundColor<<IS>> Yellow
  BackgroundColor<<P>> Aqua
  BackgroundColor<<PC>> Aqua
  BackgroundColor<<SN>> Yellow
  BackgroundColor<<SO>> SlateBlue
  BackgroundColor<<TF>> LightGray
  BackgroundColor<<TR>> Tomato
  BackgroundColor<<U>> White
  BackgroundColor<<V>> WhiteSmoke
  BackgroundColor<<X>> Aqua
  BackgroundColor<<external>> AliceBlue
}


entity "puml-link:dhw:sqldb:config.fs_dwh_database_name.adoc[]" as config.fs_dwh_database_name << FN >> {
  --
}

entity "puml-link:dhw:sqldb:docs.antoranavlistrepoobject_by_schema.adoc[]" as docs.AntoraNavListRepoObject_by_schema << V >> {
  --
}

entity "puml-link:dhw:sqldb:docs.antorapage_objectbyschema.adoc[]" as docs.AntoraPage_ObjectBySchema << V >> {
  --
}

entity "puml-link:dhw:sqldb:docs.fs_cleanstringforfilename.adoc[]" as docs.fs_cleanStringForFilename << FN >> {
  --
}

config.fs_dwh_database_name <.. docs.AntoraPage_ObjectBySchema
docs.AntoraNavListRepoObject_by_schema <.. docs.AntoraPage_ObjectBySchema
docs.fs_cleanStringForFilename <.. docs.AntoraPage_ObjectBySchema
@enduml

