@startuml
left to right direction
'top to bottom direction
hide circle
'avoide "." issues:
set namespaceSeparator none


skinparam class {
  BackgroundColor White
  BackgroundColor<<FN>> Yellow
  BackgroundColor<<FS>> Yellow
  BackgroundColor<<FT>> LightGray
  BackgroundColor<<IF>> Yellow
  BackgroundColor<<IS>> Yellow
  BackgroundColor<<P>> Aqua
  BackgroundColor<<PC>> Aqua
  BackgroundColor<<SN>> Yellow
  BackgroundColor<<SO>> SlateBlue
  BackgroundColor<<TF>> LightGray
  BackgroundColor<<TR>> Tomato
  BackgroundColor<<U>> White
  BackgroundColor<<V>> WhiteSmoke
  BackgroundColor<<X>> Aqua
  BackgroundColor<<external>> AliceBlue
}


entity "puml-link:dhw:sqldb:docs.fs_cleanstringforanchorid.adoc[]" as docs.fs_cleanStringForAnchorId << FN >> {
  --
}

entity "puml-link:dhw:sqldb:docs.fs_cleanstringforheader.adoc[]" as docs.fs_cleanStringForHeader << FN >> {
  --
}

entity "puml-link:dhw:sqldb:docs.ssis_adoc.adoc[]" as docs.ssis_Adoc << V >> {
  - **AntoraModule** : (varchar(50))
  **PackageBasename** : (varchar(8000))
  --
}

entity "puml-link:dhw:sqldb:docs.ssis_projectconnectionlist.adoc[]" as docs.ssis_ProjectConnectionList << V >> {
  --
}

entity "puml-link:dhw:sqldb:ssis.projectconnection.adoc[]" as ssis.ProjectConnection << U >> {
  - **AntoraModule** : (varchar(50))
  - **ConnectionManagerID** : (uniqueidentifier)
  --
}

docs.fs_cleanStringForAnchorId <.. docs.ssis_ProjectConnectionList
docs.fs_cleanStringForHeader <.. docs.ssis_ProjectConnectionList
docs.ssis_ProjectConnectionList <.. docs.ssis_Adoc
ssis.ProjectConnection <.. docs.ssis_ProjectConnectionListfooter The diagram is interactive and contains links.
@enduml

