@startuml
left to right direction
'top to bottom direction
hide circle
'avoide "." issues:
set namespaceSeparator none


skinparam class {
  BackgroundColor White
  BackgroundColor<<FN>> Yellow
  BackgroundColor<<FS>> Yellow
  BackgroundColor<<FT>> LightGray
  BackgroundColor<<IF>> Yellow
  BackgroundColor<<IS>> Yellow
  BackgroundColor<<P>> Aqua
  BackgroundColor<<PC>> Aqua
  BackgroundColor<<SN>> Yellow
  BackgroundColor<<SO>> SlateBlue
  BackgroundColor<<TF>> LightGray
  BackgroundColor<<TR>> Tomato
  BackgroundColor<<U>> White
  BackgroundColor<<V>> WhiteSmoke
  BackgroundColor<<X>> Aqua
  BackgroundColor<<external>> AliceBlue
}


entity "puml-link:dhw:sqldb:docs.fs_cleanstringforfilename.adoc[]" as docs.fs_cleanStringForFilename << FN >> {
  --
}

entity "puml-link:dhw:sqldb:docs.objectrefcyclic.adoc[]" as docs.ObjectRefCyclic << V >> {
  --
}

entity "puml-link:dhw:sqldb:docs.objectrefcyclic_entitylist.adoc[]" as docs.ObjectRefCyclic_EntityList << V >> {
  --
}

entity "puml-link:dhw:sqldb:docs.repoobject_plantuml_entity_t.adoc[]" as docs.RepoObject_Plantuml_Entity_T << U >> {
  - **RepoObject_guid** : (uniqueidentifier)
  - **cultures_name** : (nvarchar(10))
  --
}

entity "puml-link:dhw:sqldb:reference.referencetree_cyclic_union.adoc[]" as reference.ReferenceTree_cyclic_union << V >> {
  --
}

docs.fs_cleanStringForFilename <.. docs.ObjectRefCyclic_EntityList
docs.ObjectRefCyclic_EntityList <.. docs.ObjectRefCyclic
docs.RepoObject_Plantuml_Entity_T <.. docs.ObjectRefCyclic_EntityList
reference.ReferenceTree_cyclic_union <.. docs.ObjectRefCyclic_EntityList
@enduml

