@startuml
left to right direction
'top to bottom direction
hide circle
'avoide "." issues:
set namespaceSeparator none


skinparam class {
  BackgroundColor White
  BackgroundColor<<FN>> Yellow
  BackgroundColor<<FS>> Yellow
  BackgroundColor<<FT>> LightGray
  BackgroundColor<<IF>> Yellow
  BackgroundColor<<IS>> Yellow
  BackgroundColor<<P>> Aqua
  BackgroundColor<<PC>> Aqua
  BackgroundColor<<SN>> Yellow
  BackgroundColor<<SO>> SlateBlue
  BackgroundColor<<TF>> LightGray
  BackgroundColor<<TR>> Tomato
  BackgroundColor<<U>> White
  BackgroundColor<<V>> WhiteSmoke
  BackgroundColor<<X>> Aqua
  BackgroundColor<<external>> AliceBlue
}


entity "puml-link:dhw:sqldb:config.fs_get_parameter_value.adoc[]" as config.fs_get_parameter_value << FN >> {
  --
}

entity "puml-link:dhw:sqldb:docs.fs_antoramodulefolder.adoc[]" as docs.fs_AntoraModuleFolder << FN >> {
  --
}

entity "puml-link:dhw:sqldb:docs.usp_antoraexport.adoc[]" as docs.usp_AntoraExport << P >> {
  --
}

entity "puml-link:dhw:sqldb:docs.usp_antoraexport_docsnippet.adoc[]" as docs.usp_AntoraExport_DocSnippet << P >> {
  --
}

entity "puml-link:dhw:sqldb:docs.usp_antoraexport_objectnavigation.adoc[]" as docs.usp_AntoraExport_ObjectNavigation << P >> {
  --
}

entity "puml-link:dhw:sqldb:docs.usp_antoraexport_objectpage.adoc[]" as docs.usp_AntoraExport_ObjectPage << P >> {
  --
}

entity "puml-link:dhw:sqldb:docs.usp_antoraexport_objectpagetemplate.adoc[]" as docs.usp_AntoraExport_ObjectPageTemplate << P >> {
  --
}

entity "puml-link:dhw:sqldb:docs.usp_antoraexport_objectpartialproperties.adoc[]" as docs.usp_AntoraExport_ObjectPartialProperties << P >> {
  --
}

entity "puml-link:dhw:sqldb:docs.usp_antoraexport_objectpuml.adoc[]" as docs.usp_AntoraExport_ObjectPuml << P >> {
  --
}

entity "puml-link:dhw:sqldb:docs.usp_antoraexport_objectrefcyclic.adoc[]" as docs.usp_AntoraExport_ObjectRefCyclic << P >> {
  --
}

entity "puml-link:dhw:sqldb:docs.usp_antoraexport_page_indexsemanticgroup.adoc[]" as docs.usp_AntoraExport_Page_IndexSemanticGroup << P >> {
  --
}

config.fs_get_parameter_value <.. docs.fs_AntoraModuleFolder
docs.fs_AntoraModuleFolder <.. docs.usp_AntoraExport_ObjectPage
docs.fs_AntoraModuleFolder <.. docs.usp_AntoraExport_ObjectPartialProperties
docs.fs_AntoraModuleFolder <.. docs.usp_AntoraExport
docs.fs_AntoraModuleFolder <.. docs.usp_AntoraExport_Page_IndexSemanticGroup
docs.fs_AntoraModuleFolder <.. docs.usp_AntoraExport_ObjectPuml
docs.fs_AntoraModuleFolder <.. docs.usp_AntoraExport_ObjectPageTemplate
docs.fs_AntoraModuleFolder <.. docs.usp_AntoraExport_ObjectRefCyclic
docs.fs_AntoraModuleFolder <.. docs.usp_AntoraExport_ObjectNavigation
docs.fs_AntoraModuleFolder <.. docs.usp_AntoraExport_DocSnippetfooter The diagram is interactive and contains links.
@enduml

