@startuml
left to right direction
'top to bottom direction
hide circle
'avoide "." issues:
set namespaceSeparator none


skinparam class {
  BackgroundColor White
  BackgroundColor<<FN>> Yellow
  BackgroundColor<<FS>> Yellow
  BackgroundColor<<FT>> LightGray
  BackgroundColor<<IF>> Yellow
  BackgroundColor<<IS>> Yellow
  BackgroundColor<<P>> Aqua
  BackgroundColor<<PC>> Aqua
  BackgroundColor<<SN>> Yellow
  BackgroundColor<<SO>> SlateBlue
  BackgroundColor<<TF>> LightGray
  BackgroundColor<<TR>> Tomato
  BackgroundColor<<U>> White
  BackgroundColor<<V>> WhiteSmoke
  BackgroundColor<<X>> Aqua
  BackgroundColor<<external>> AliceBlue
}


entity "puml-link:dhw:sqldb:docs.antoraindexsemanticgrouppatterndatatype.adoc[]" as docs.AntoraIndexSemanticgroupPatterndatatype << V >> {
  **IndexSemanticGroup** : (nvarchar(512))
  **IndexPatternColumnDatatype** : (nvarchar(4000))
  --
}

entity "puml-link:dhw:sqldb:docs.antoranavlistpage_by_schema.adoc[]" as docs.AntoraNavListPage_by_schema << V >> {
  --
}

entity "puml-link:dhw:sqldb:docs.antoranavlistpage_by_type.adoc[]" as docs.AntoraNavListPage_by_type << V >> {
  --
}

entity "puml-link:dhw:sqldb:docs.antoranavlistrepoobject_by_schema.adoc[]" as docs.AntoraNavListRepoObject_by_schema << V >> {
  --
}

entity "puml-link:dhw:sqldb:docs.antoranavlistrepoobject_by_schema_type.adoc[]" as docs.AntoraNavListRepoObject_by_schema_type << V >> {
  - **RepoObject_schema_name** : (nvarchar(128))
  **type** : (char(2))
  --
}

entity "puml-link:dhw:sqldb:docs.antoranavlistrepoobject_by_type.adoc[]" as docs.AntoraNavListRepoObject_by_type << V >> {
  **type** : (char(2))
  --
}

entity "puml-link:dhw:sqldb:docs.repoobject_adoc.adoc[]" as docs.RepoObject_Adoc << V >> {
  --
}

entity "puml-link:dhw:sqldb:docs.repoobject_antoraxrefcultureslist.adoc[]" as docs.RepoObject_AntoraXrefCulturesList << V >> {
  --
}

entity "puml-link:dhw:sqldb:docs.repoobject_columnlist.adoc[]" as docs.RepoObject_ColumnList << V >> {
  --
}

entity "puml-link:dhw:sqldb:docs.repoobject_indexlist.adoc[]" as docs.RepoObject_IndexList << V >> {
  **RepoObject_guid** : (uniqueidentifier)
  **cultures_name** : (nvarchar(10))
  --
}

entity "puml-link:dhw:sqldb:docs.repoobject_measurelist.adoc[]" as docs.RepoObject_MeasureList << V >> {
  **RepoObject_guid** : (uniqueidentifier)
  **cultures_name** : (nvarchar(10))
  --
}

entity "puml-link:dhw:sqldb:docs.repoobject_outputfilter.adoc[]" as docs.RepoObject_OutputFilter << V >> {
  - **RepoObject_guid** : (uniqueidentifier)
  - **cultures_name** : (nvarchar(10))
  --
}

entity "puml-link:dhw:sqldb:docs.repoobject_outputfilter_t.adoc[]" as docs.RepoObject_OutputFilter_T << U >> {
  - **RepoObject_guid** : (uniqueidentifier)
  - **cultures_name** : (nvarchar(10))
  --
}

entity "puml-link:dhw:sqldb:docs.repoobject_plantuml.adoc[]" as docs.RepoObject_Plantuml << V >> {
  - **RepoObject_guid** : (uniqueidentifier)
  **cultures_name** : (nvarchar(10))
  --
}

entity "puml-link:dhw:sqldb:docs.repoobject_plantuml_colreflist_1_1.adoc[]" as docs.RepoObject_Plantuml_ColRefList_1_1 << V >> {
  --
}

entity "puml-link:dhw:sqldb:docs.repoobject_plantuml_entity.adoc[]" as docs.RepoObject_Plantuml_Entity << V >> {
  --
}

entity "puml-link:dhw:sqldb:docs.schema_puml.adoc[]" as docs.Schema_puml << V >> {
  - **RepoSchema_guid** : (uniqueidentifier)
  **cultures_name** : (nvarchar(10))
  --
}

entity "puml-link:dhw:sqldb:docs.schema_ssasrelationlist.adoc[]" as docs.Schema_SsasRelationList << V >> {
  - **SchemaName** : (nvarchar(128))
  **cultures_name** : (nvarchar(10))
  --
}

entity "puml-link:dhw:sqldb:docs.unit_1_union.adoc[]" as docs.Unit_1_union << V >> {
  --
}

entity "puml-link:dhw:sqldb:docs.usp_antoraexport_objectpage.adoc[]" as docs.usp_AntoraExport_ObjectPage << P >> {
  --
}

entity "puml-link:dhw:sqldb:docs.usp_antoraexport_objectpartialproperties.adoc[]" as docs.usp_AntoraExport_ObjectPartialProperties << P >> {
  --
}

entity "puml-link:dhw:sqldb:docs.usp_antoraexport_objectpuml.adoc[]" as docs.usp_AntoraExport_ObjectPuml << P >> {
  --
}

entity "puml-link:dhw:sqldb:docs.usp_persist_repoobject_outputfilter_t.adoc[]" as docs.usp_PERSIST_RepoObject_OutputFilter_T << P >> {
  --
}

docs.RepoObject_OutputFilter <.. docs.RepoObject_OutputFilter_T
docs.RepoObject_OutputFilter_T <.. docs.RepoObject_Plantuml_Entity
docs.RepoObject_OutputFilter_T <.. docs.RepoObject_ColumnList
docs.RepoObject_OutputFilter_T <.. docs.AntoraNavListRepoObject_by_schema_type
docs.RepoObject_OutputFilter_T <.. docs.AntoraNavListRepoObject_by_schema
docs.RepoObject_OutputFilter_T <.. docs.AntoraNavListRepoObject_by_type
docs.RepoObject_OutputFilter_T <.. docs.usp_AntoraExport_ObjectPage
docs.RepoObject_OutputFilter_T <.. docs.usp_AntoraExport_ObjectPartialProperties
docs.RepoObject_OutputFilter_T <.. docs.RepoObject_Adoc
docs.RepoObject_OutputFilter_T <.. docs.RepoObject_MeasureList
docs.RepoObject_OutputFilter_T <.. docs.usp_PERSIST_RepoObject_OutputFilter_T
docs.RepoObject_OutputFilter_T <.. docs.Unit_1_union
docs.RepoObject_OutputFilter_T <.. docs.Schema_SsasRelationList
docs.RepoObject_OutputFilter_T <.. docs.RepoObject_AntoraXrefCulturesList
docs.RepoObject_OutputFilter_T <.. docs.Schema_puml
docs.RepoObject_OutputFilter_T <.. docs.RepoObject_Plantuml_ColRefList_1_1
docs.RepoObject_OutputFilter_T <.. docs.AntoraNavListPage_by_schema
docs.RepoObject_OutputFilter_T <.. docs.AntoraIndexSemanticgroupPatterndatatype
docs.RepoObject_OutputFilter_T <.. docs.AntoraNavListPage_by_type
docs.RepoObject_OutputFilter_T <.. docs.RepoObject_IndexList
docs.RepoObject_OutputFilter_T <.. docs.usp_AntoraExport_ObjectPuml
docs.RepoObject_OutputFilter_T <.. docs.RepoObject_Plantumlfooter The diagram is interactive and contains links.
@enduml

