@startuml
left to right direction
'top to bottom direction
hide circle
'avoide "." issues:
set namespaceSeparator none


skinparam class {
  BackgroundColor White
  BackgroundColor<<FN>> Yellow
  BackgroundColor<<FS>> Yellow
  BackgroundColor<<FT>> LightGray
  BackgroundColor<<IF>> Yellow
  BackgroundColor<<IS>> Yellow
  BackgroundColor<<P>> Aqua
  BackgroundColor<<PC>> Aqua
  BackgroundColor<<SN>> Yellow
  BackgroundColor<<SO>> SlateBlue
  BackgroundColor<<TF>> LightGray
  BackgroundColor<<TR>> Tomato
  BackgroundColor<<U>> White
  BackgroundColor<<V>> WhiteSmoke
  BackgroundColor<<X>> Aqua
  BackgroundColor<<external>> AliceBlue
}


entity "puml-link:dhw:sqldb:docs.ssis_adoc.adoc[]" as docs.ssis_Adoc << V >> {
  - **AntoraModule** : (varchar(50))
  **PackageBasename** : (varchar(8000))
  --
}

entity "puml-link:dhw:sqldb:docs.ssis_adoc_t.adoc[]" as docs.ssis_Adoc_T << U >> {
  - **AntoraModule** : (varchar(50))
  **PackageBasename** : (varchar(8000))
  --
}

entity "puml-link:dhw:sqldb:docs.ssis_connectionlist.adoc[]" as docs.ssis_ConnectionList << V >> {
  --
}

entity "puml-link:dhw:sqldb:docs.ssis_generallist.adoc[]" as docs.ssis_GeneralList << V >> {
  --
}

entity "puml-link:dhw:sqldb:docs.ssis_parameterlist.adoc[]" as docs.ssis_ParameterList << V >> {
  --
}

entity "puml-link:dhw:sqldb:docs.ssis_projectconnectionlist.adoc[]" as docs.ssis_ProjectConnectionList << V >> {
  --
}

entity "puml-link:dhw:sqldb:docs.ssis_pumlpackage.adoc[]" as docs.ssis_PumlPackage << V >> {
  --
}

entity "puml-link:dhw:sqldb:docs.ssis_tasklist.adoc[]" as docs.ssis_TaskList << V >> {
  --
}

entity "puml-link:dhw:sqldb:docs.ssis_variablelist.adoc[]" as docs.ssis_VariableList << V >> {
  --
}

entity "puml-link:dhw:sqldb:docs.usp_persist_ssis_adoc_t.adoc[]" as docs.usp_PERSIST_ssis_Adoc_T << P >> {
  --
}

entity "puml-link:dhw:sqldb:ssis.package.adoc[]" as ssis.Package << U >> {
  - **AntoraModule** : (varchar(50))
  - **PackageName** : (varchar(200))
  --
}

docs.ssis_Adoc <.. docs.ssis_Adoc_T
docs.ssis_Adoc <.. docs.usp_PERSIST_ssis_Adoc_T
docs.ssis_ConnectionList <.. docs.ssis_Adoc
docs.ssis_GeneralList <.. docs.ssis_Adoc
docs.ssis_ParameterList <.. docs.ssis_Adoc
docs.ssis_ProjectConnectionList <.. docs.ssis_Adoc
docs.ssis_PumlPackage <.. docs.ssis_Adoc
docs.ssis_TaskList <.. docs.ssis_Adoc
docs.ssis_VariableList <.. docs.ssis_Adoc
ssis.Package <.. docs.ssis_Adocfooter The diagram is interactive and contains links.
@enduml

