@startuml
left to right direction
'top to bottom direction
hide circle
'avoide "." issues:
set namespaceSeparator none


skinparam class {
  BackgroundColor White
  BackgroundColor<<FN>> Yellow
  BackgroundColor<<FS>> Yellow
  BackgroundColor<<FT>> LightGray
  BackgroundColor<<IF>> Yellow
  BackgroundColor<<IS>> Yellow
  BackgroundColor<<P>> Aqua
  BackgroundColor<<PC>> Aqua
  BackgroundColor<<SN>> Yellow
  BackgroundColor<<SO>> SlateBlue
  BackgroundColor<<TF>> LightGray
  BackgroundColor<<TR>> Tomato
  BackgroundColor<<U>> White
  BackgroundColor<<V>> WhiteSmoke
  BackgroundColor<<X>> Aqua
  BackgroundColor<<external>> AliceBlue
}


entity "puml-link:dhw:sqldb:docs.fs_antoramodulefolder.adoc[]" as docs.fs_AntoraModuleFolder << FN >> {
  --
}

entity "puml-link:dhw:sqldb:docs.fs_cleanstringforfilename.adoc[]" as docs.fs_cleanStringForFilename << FN >> {
  --
}

entity "puml-link:dhw:sqldb:docs.repoobject_outputfilter_t.adoc[]" as docs.RepoObject_OutputFilter_T << U >> {
  - **RepoObject_guid** : (uniqueidentifier)
  - **cultures_name** : (nvarchar(10))
  --
}

entity "puml-link:dhw:sqldb:docs.usp_antoraexport.adoc[]" as docs.usp_AntoraExport << P >> {
  --
}

entity "puml-link:dhw:sqldb:docs.usp_antoraexport_objectpartialproperties.adoc[]" as docs.usp_AntoraExport_ObjectPartialProperties << P >> {
  --
}

entity "puml-link:dhw:sqldb:docs.usp_persist_repoobject_adoc_t.adoc[]" as docs.usp_PERSIST_RepoObject_Adoc_T << P >> {
  --
}

entity "puml-link:dhw:sqldb:docs.usp_persist_repoobject_columnlist_t.adoc[]" as docs.usp_PERSIST_RepoObject_ColumnList_T << P >> {
  --
}

entity "puml-link:dhw:sqldb:docs.usp_persist_repoobject_indexlist_t.adoc[]" as docs.usp_PERSIST_RepoObject_IndexList_T << P >> {
  --
}

entity "puml-link:dhw:sqldb:logs.usp_executionlog_insert.adoc[]" as logs.usp_ExecutionLog_insert << P >> {
  --
}

docs.fs_AntoraModuleFolder <.. docs.usp_AntoraExport_ObjectPartialProperties
docs.fs_cleanStringForFilename <.. docs.usp_AntoraExport_ObjectPartialProperties
docs.RepoObject_OutputFilter_T <.. docs.usp_AntoraExport_ObjectPartialProperties
docs.usp_AntoraExport_ObjectPartialProperties <.. docs.usp_AntoraExport
docs.usp_PERSIST_RepoObject_Adoc_T <.. docs.usp_AntoraExport_ObjectPartialProperties
docs.usp_PERSIST_RepoObject_ColumnList_T <.. docs.usp_AntoraExport_ObjectPartialProperties
docs.usp_PERSIST_RepoObject_IndexList_T <.. docs.usp_AntoraExport_ObjectPartialProperties
logs.usp_ExecutionLog_insert <.. docs.usp_AntoraExport_ObjectPartialPropertiesfooter The diagram is interactive and contains links.
@enduml

