@startuml
left to right direction
'top to bottom direction
hide circle
'avoide "." issues:
set namespaceSeparator none


skinparam class {
  BackgroundColor White
  BackgroundColor<<FN>> Yellow
  BackgroundColor<<FS>> Yellow
  BackgroundColor<<FT>> LightGray
  BackgroundColor<<IF>> Yellow
  BackgroundColor<<IS>> Yellow
  BackgroundColor<<P>> Aqua
  BackgroundColor<<PC>> Aqua
  BackgroundColor<<SN>> Yellow
  BackgroundColor<<SO>> SlateBlue
  BackgroundColor<<TF>> LightGray
  BackgroundColor<<TR>> Tomato
  BackgroundColor<<U>> White
  BackgroundColor<<V>> WhiteSmoke
  BackgroundColor<<X>> Aqua
  BackgroundColor<<external>> AliceBlue
}


entity "puml-link:dhw:sqldb:docs.fs_cleanstringforanchorid.adoc[]" as docs.fs_cleanStringForAnchorId << FN >> {
  --
}

entity "puml-link:dhw:sqldb:docs.fs_cleanstringforheader.adoc[]" as docs.fs_cleanStringForHeader << FN >> {
  --
}

entity "puml-link:dhw:sqldb:docs.fs_cleanstringforpuml.adoc[]" as docs.fs_cleanStringForPuml << FN >> {
  --
}

entity "puml-link:dhw:sqldb:docs.repoobject_columnlist.adoc[]" as docs.RepoObject_ColumnList << V >> {
  --
}

entity "puml-link:dhw:sqldb:docs.repoobject_columnlist_t.adoc[]" as docs.RepoObject_ColumnList_T << U >> {
  - **RepoObject_guid** : (uniqueidentifier)
  - **cultures_name** : (nvarchar(10))
  --
}

entity "puml-link:dhw:sqldb:docs.repoobject_outputfilter_t.adoc[]" as docs.RepoObject_OutputFilter_T << U >> {
  - **RepoObject_guid** : (uniqueidentifier)
  - **cultures_name** : (nvarchar(10))
  --
}

entity "puml-link:dhw:sqldb:docs.usp_persist_repoobject_columnlist_t.adoc[]" as docs.usp_PERSIST_RepoObject_ColumnList_T << P >> {
  --
}

entity "puml-link:dhw:sqldb:repo.repoobjectcolumn_gross2.adoc[]" as repo.RepoObjectColumn_gross2 << V >> {
  --
}

entity "puml-link:dhw:sqldb:ssas.repoobjectcolumn_translation_displayfolder_union.adoc[]" as ssas.RepoObjectColumn_translation_displayfolder_union << V >> {
  --
}

docs.fs_cleanStringForAnchorId <.. docs.RepoObject_ColumnList
docs.fs_cleanStringForHeader <.. docs.RepoObject_ColumnList
docs.fs_cleanStringForPuml <.. docs.RepoObject_ColumnList
docs.RepoObject_ColumnList <.. docs.RepoObject_ColumnList_T
docs.RepoObject_ColumnList <.. docs.usp_PERSIST_RepoObject_ColumnList_T
docs.RepoObject_OutputFilter_T <.. docs.RepoObject_ColumnList
repo.RepoObjectColumn_gross2 <.. docs.RepoObject_ColumnList
ssas.RepoObjectColumn_translation_displayfolder_union <.. docs.RepoObject_ColumnListfooter The diagram is interactive and contains links.
@enduml

