@startuml
left to right direction
'top to bottom direction
hide circle
'avoide "." issues:
set namespaceSeparator none


skinparam class {
  BackgroundColor White
  BackgroundColor<<FN>> Yellow
  BackgroundColor<<FS>> Yellow
  BackgroundColor<<FT>> LightGray
  BackgroundColor<<IF>> Yellow
  BackgroundColor<<IS>> Yellow
  BackgroundColor<<P>> Aqua
  BackgroundColor<<PC>> Aqua
  BackgroundColor<<SN>> Yellow
  BackgroundColor<<SO>> SlateBlue
  BackgroundColor<<TF>> LightGray
  BackgroundColor<<TR>> Tomato
  BackgroundColor<<U>> White
  BackgroundColor<<V>> WhiteSmoke
  BackgroundColor<<X>> Aqua
  BackgroundColor<<external>> AliceBlue
}


entity "puml-link:dhw:sqldb:docs.fs_cleanstringforanchorid.adoc[]" as docs.fs_cleanStringForAnchorId << FN >> {
  --
}

entity "puml-link:dhw:sqldb:docs.ssis_pumldfttask.adoc[]" as docs.ssis_PumlDftTask << V >> {
  --
}

entity "puml-link:dhw:sqldb:docs.ssis_pumlpartialdataflow.adoc[]" as docs.ssis_PumlPartialDataFlow << V >> {
  --
}

entity "puml-link:dhw:sqldb:ssis.packageflow.adoc[]" as ssis.PackageFlow << U >> {
  --
}

docs.fs_cleanStringForAnchorId <.. docs.ssis_PumlPartialDataFlow
docs.ssis_PumlPartialDataFlow <.. docs.ssis_PumlDftTask
ssis.PackageFlow <.. docs.ssis_PumlPartialDataFlowfooter The diagram is interactive and contains links.
@enduml

