@startuml
left to right direction
'top to bottom direction
hide circle
'avoide "." issues:
set namespaceSeparator none


skinparam class {
  BackgroundColor White
  BackgroundColor<<FN>> Yellow
  BackgroundColor<<FS>> Yellow
  BackgroundColor<<FT>> LightGray
  BackgroundColor<<IF>> Yellow
  BackgroundColor<<IS>> Yellow
  BackgroundColor<<P>> Aqua
  BackgroundColor<<PC>> Aqua
  BackgroundColor<<SN>> Yellow
  BackgroundColor<<SO>> SlateBlue
  BackgroundColor<<TF>> LightGray
  BackgroundColor<<TR>> Tomato
  BackgroundColor<<U>> White
  BackgroundColor<<V>> WhiteSmoke
  BackgroundColor<<X>> Aqua
  BackgroundColor<<external>> AliceBlue
}


entity "puml-link:dhw:sqldb:docs.ftv_repoobject_antoraxref.adoc[]" as docs.ftv_RepoObject_AntoraXref << IF >> {
  --
}

entity "puml-link:dhw:sqldb:docs.repoobject_adoc.adoc[]" as docs.RepoObject_Adoc << V >> {
  --
}

entity "puml-link:dhw:sqldb:docs.repoobject_antoraxrefcultureslist.adoc[]" as docs.RepoObject_AntoraXrefCulturesList << V >> {
  --
}

entity "puml-link:dhw:sqldb:docs.repoobject_outputfilter_t.adoc[]" as docs.RepoObject_OutputFilter_T << U >> {
  - **RepoObject_guid** : (uniqueidentifier)
  - **cultures_name** : (nvarchar(10))
  --
}

docs.ftv_RepoObject_AntoraXref <.. docs.RepoObject_AntoraXrefCulturesList
docs.RepoObject_AntoraXrefCulturesList <.. docs.RepoObject_Adoc
docs.RepoObject_OutputFilter_T <.. docs.RepoObject_AntoraXrefCulturesListfooter The diagram is interactive and contains links.
@enduml

