@startuml
left to right direction
'top to bottom direction
hide circle
'avoide "." issues:
set namespaceSeparator none


skinparam class {
  BackgroundColor White
  BackgroundColor<<FN>> Yellow
  BackgroundColor<<FS>> Yellow
  BackgroundColor<<FT>> LightGray
  BackgroundColor<<IF>> Yellow
  BackgroundColor<<IS>> Yellow
  BackgroundColor<<P>> Aqua
  BackgroundColor<<PC>> Aqua
  BackgroundColor<<SN>> Yellow
  BackgroundColor<<SO>> SlateBlue
  BackgroundColor<<TF>> LightGray
  BackgroundColor<<TR>> Tomato
  BackgroundColor<<U>> White
  BackgroundColor<<V>> WhiteSmoke
  BackgroundColor<<X>> Aqua
  BackgroundColor<<external>> AliceBlue
}


entity "puml-link:dhw:sqldb:logs.executionlog.adoc[]" as logs.ExecutionLog << U >> {
  --
}

entity "puml-link:dhw:sqldb:logs.executionlog_gross.adoc[]" as logs.ExecutionLog_gross << V >> {
  --
}

entity "puml-link:dhw:sqldb:logs.executionlog_parent.adoc[]" as logs.ExecutionLog_parent << V >> {
  --
}

entity "puml-link:dhw:sqldb:logs.executionlog_puml_sequence_start_stop.adoc[]" as logs.ExecutionLog_puml_Sequence_start_stop << V >> {
  --
}

entity "puml-link:dhw:sqldb:logs.usp_executionlog_insert.adoc[]" as logs.usp_ExecutionLog_insert << P >> {
  --
}

logs.ExecutionLog <.. logs.usp_ExecutionLog_insert
logs.ExecutionLog <.. logs.ExecutionLog_gross
logs.ExecutionLog <.. logs.ExecutionLog_parent
logs.ExecutionLog <.. logs.ExecutionLog_puml_Sequence_start_stopfooter The diagram is interactive and contains links.
@enduml

