@startuml
left to right direction
'top to bottom direction
hide circle
'avoide "." issues:
set namespaceSeparator none


skinparam class {
  BackgroundColor White
  BackgroundColor<<FN>> Yellow
  BackgroundColor<<FS>> Yellow
  BackgroundColor<<FT>> LightGray
  BackgroundColor<<IF>> Yellow
  BackgroundColor<<IS>> Yellow
  BackgroundColor<<P>> Aqua
  BackgroundColor<<PC>> Aqua
  BackgroundColor<<SN>> Yellow
  BackgroundColor<<SO>> SlateBlue
  BackgroundColor<<TF>> LightGray
  BackgroundColor<<TR>> Tomato
  BackgroundColor<<U>> White
  BackgroundColor<<V>> WhiteSmoke
  BackgroundColor<<X>> Aqua
  BackgroundColor<<external>> AliceBlue
}


entity "puml-link:dhw:sqldb:logs.usp_executionlog_insert.adoc[]" as logs.usp_ExecutionLog_insert << P >> {
  --
}

entity "puml-link:dhw:sqldb:property.propertyname_repoobjectcolumn.adoc[]" as property.PropertyName_RepoObjectColumn << V >> {
  - **property_name** : (nvarchar(128))
  --
}

entity "puml-link:dhw:sqldb:property.propertyname_repoobjectcolumn_t.adoc[]" as property.PropertyName_RepoObjectColumn_T << U >> {
  - **property_name** : (nvarchar(128))
  --
}

entity "puml-link:dhw:sqldb:property.usp_persist_propertyname_repoobjectcolumn_t.adoc[]" as property.usp_PERSIST_PropertyName_RepoObjectColumn_T << P >> {
  --
}

entity "puml-link:dhw:sqldb:property.usp_repoobjectcolumn_inheritance.adoc[]" as property.usp_RepoObjectColumn_Inheritance << P >> {
  --
}

logs.usp_ExecutionLog_insert <.. property.usp_PERSIST_PropertyName_RepoObjectColumn_T
property.PropertyName_RepoObjectColumn <.. property.usp_PERSIST_PropertyName_RepoObjectColumn_T
property.PropertyName_RepoObjectColumn_T <.. property.usp_PERSIST_PropertyName_RepoObjectColumn_T
property.usp_PERSIST_PropertyName_RepoObjectColumn_T <.. property.usp_RepoObjectColumn_Inheritancefooter The diagram is interactive and contains links.
@enduml

