@startuml
left to right direction
'top to bottom direction
hide circle
'avoide "." issues:
set namespaceSeparator none


skinparam class {
  BackgroundColor White
  BackgroundColor<<FN>> Yellow
  BackgroundColor<<FS>> Yellow
  BackgroundColor<<FT>> LightGray
  BackgroundColor<<IF>> Yellow
  BackgroundColor<<IS>> Yellow
  BackgroundColor<<P>> Aqua
  BackgroundColor<<PC>> Aqua
  BackgroundColor<<SN>> Yellow
  BackgroundColor<<SO>> SlateBlue
  BackgroundColor<<TF>> LightGray
  BackgroundColor<<TR>> Tomato
  BackgroundColor<<U>> White
  BackgroundColor<<V>> WhiteSmoke
  BackgroundColor<<X>> Aqua
  BackgroundColor<<external>> AliceBlue
}


entity "puml-link:dhw:sqldb:property.propertyname_repoobject_t.adoc[]" as property.PropertyName_RepoObject_T << U >> {
  **property_name** : (nvarchar(128))
  --
}

entity "puml-link:dhw:sqldb:property.repoobjectproperty.adoc[]" as property.RepoObjectProperty << U >> {
  - **RepoObjectProperty_id** : (int)
  --
}

entity "puml-link:dhw:sqldb:property.repoobjectproperty_external_src.adoc[]" as property.RepoObjectProperty_external_src << V >> {
  - **RepoObject_guid** : (uniqueidentifier)
  - **property_name** : (nvarchar(128))
  --
}

entity "puml-link:dhw:sqldb:property.repoobjectproperty_external_tgt.adoc[]" as property.RepoObjectProperty_external_tgt << V >> {
  - **RepoObject_guid** : (uniqueidentifier)
  - **property_name** : (nvarchar(128))
  --
}

entity "puml-link:dhw:sqldb:property.usp_persist_repoobjectproperty_external_tgt.adoc[]" as property.usp_PERSIST_RepoObjectProperty_external_tgt << P >> {
  --
}

entity "puml-link:dhw:sqldb:repo.repoobject.adoc[]" as repo.RepoObject << U >> {
  - **RepoObject_guid** : (uniqueidentifier)
  --
}

property.PropertyName_RepoObject_T <.. property.RepoObjectProperty_external_tgt
property.RepoObjectProperty <.. property.RepoObjectProperty_external_tgt
property.RepoObjectProperty_external_src <.. property.RepoObjectProperty_external_tgt
property.RepoObjectProperty_external_tgt <.. property.PropertyName_RepoObject_T
property.RepoObjectProperty_external_tgt <.. property.usp_PERSIST_RepoObjectProperty_external_tgt
property.RepoObjectProperty_external_tgt <.. property.RepoObjectProperty
property.RepoObjectProperty_external_tgt <.. repo.RepoObject
repo.RepoObject <.. property.RepoObjectProperty_external_tgtfooter The diagram is interactive and contains links.
@enduml

