@startuml
left to right direction
'top to bottom direction
hide circle
'avoide "." issues:
set namespaceSeparator none


skinparam class {
  BackgroundColor White
  BackgroundColor<<FN>> Yellow
  BackgroundColor<<FS>> Yellow
  BackgroundColor<<FT>> LightGray
  BackgroundColor<<IF>> Yellow
  BackgroundColor<<IS>> Yellow
  BackgroundColor<<P>> Aqua
  BackgroundColor<<PC>> Aqua
  BackgroundColor<<SN>> Yellow
  BackgroundColor<<SO>> SlateBlue
  BackgroundColor<<TF>> LightGray
  BackgroundColor<<TR>> Tomato
  BackgroundColor<<U>> White
  BackgroundColor<<V>> WhiteSmoke
  BackgroundColor<<X>> Aqua
  BackgroundColor<<external>> AliceBlue
}


entity "puml-link:dhw:sqldb:logs.usp_executionlog_insert.adoc[]" as logs.usp_ExecutionLog_insert << P >> {
  --
}

entity "puml-link:dhw:sqldb:property.extendedproperty_repo2sys_level0.adoc[]" as property.ExtendedProperty_Repo2Sys_level0 << V >> {
  --
}

entity "puml-link:dhw:sqldb:property.extendedproperty_repo2sys_level1.adoc[]" as property.ExtendedProperty_Repo2Sys_level1 << V >> {
  - **level0type** : (nvarchar(6))
  - **level0name** : (nvarchar(128))
  **level1type** : (varchar(9))
  - **level1name** : (nvarchar(128))
  - **property_name** : (nvarchar(128))
  --
}

entity "puml-link:dhw:sqldb:property.extendedproperty_repo2sys_level2_union.adoc[]" as property.ExtendedProperty_Repo2Sys_level2_Union << V >> {
  - **level0type** : (nvarchar(6))
  - **level0name** : (nvarchar(128))
  **level1type** : (varchar(9))
  - **level1name** : (nvarchar(128))
  **level2type** : (nvarchar(10))
  - **level2name** : (nvarchar(128))
  - **property_name** : (nvarchar(128))
  --
}

entity "puml-link:dhw:sqldb:property.usp_sync_extendedproperties_repo2sys_insertupdate.adoc[]" as property.usp_sync_ExtendedProperties_Repo2Sys_InsertUpdate << P >> {
  --
}

entity "puml-link:dhw:sqldb:repo_sys.extendedproperties_parameterforaddupdatedrop.adoc[]" as repo_sys.ExtendedProperties_ParameterForAddUpdateDrop << V >> {
  --
}

entity "puml-link:dhw:sqldb:repo_sys.usp_addorupdateextendedproperty.adoc[]" as repo_sys.usp_AddOrUpdateExtendedProperty << P >> {
  --
}

logs.usp_ExecutionLog_insert <.. property.usp_sync_ExtendedProperties_Repo2Sys_InsertUpdate
property.ExtendedProperty_Repo2Sys_level0 <.. property.usp_sync_ExtendedProperties_Repo2Sys_InsertUpdate
property.ExtendedProperty_Repo2Sys_level1 <.. property.usp_sync_ExtendedProperties_Repo2Sys_InsertUpdate
property.ExtendedProperty_Repo2Sys_level2_Union <.. property.usp_sync_ExtendedProperties_Repo2Sys_InsertUpdate
repo_sys.ExtendedProperties_ParameterForAddUpdateDrop <.. property.usp_sync_ExtendedProperties_Repo2Sys_InsertUpdate
repo_sys.usp_AddOrUpdateExtendedProperty <.. property.usp_sync_ExtendedProperties_Repo2Sys_InsertUpdate
@enduml

