@startuml
left to right direction
'top to bottom direction
hide circle
'avoide "." issues:
set namespaceSeparator none


skinparam class {
  BackgroundColor White
  BackgroundColor<<FN>> Yellow
  BackgroundColor<<FS>> Yellow
  BackgroundColor<<FT>> LightGray
  BackgroundColor<<IF>> Yellow
  BackgroundColor<<IS>> Yellow
  BackgroundColor<<P>> Aqua
  BackgroundColor<<PC>> Aqua
  BackgroundColor<<SN>> Yellow
  BackgroundColor<<SO>> SlateBlue
  BackgroundColor<<TF>> LightGray
  BackgroundColor<<TR>> Tomato
  BackgroundColor<<U>> White
  BackgroundColor<<V>> WhiteSmoke
  BackgroundColor<<X>> Aqua
  BackgroundColor<<external>> AliceBlue
}


entity "puml-link:dhw:sqldb:config.parameter.adoc[]" as config.Parameter << U >> {
  - **Parameter_name** : (varchar(100))
  - **sub_Parameter** : (nvarchar(128))
  --
}

entity "puml-link:dhw:sqldb:property.propertyname_repoobjectcolumn_t.adoc[]" as property.PropertyName_RepoObjectColumn_T << U >> {
  - **property_name** : (nvarchar(128))
  --
}

entity "puml-link:dhw:sqldb:property.repoobjectcolumnproperty.adoc[]" as property.RepoObjectColumnProperty << U >> {
  - **RepoObjectColumnProperty_id** : (int)
  --
}

entity "puml-link:dhw:sqldb:property.repoobjectcolumnproperty_inheritancetype_inheritancedefinition.adoc[]" as property.RepoObjectColumnProperty_InheritanceType_InheritanceDefinition << V >> {
  - **RepoObjectColumn_guid** : (uniqueidentifier)
  - **property_name** : (nvarchar(128))
  --
}

entity "puml-link:dhw:sqldb:property.repoobjectcolumnproperty_inheritancetype_resulting_inheritancedefinition.adoc[]" as property.RepoObjectColumnProperty_InheritanceType_resulting_InheritanceDefinition << V >> {
  --
}

entity "puml-link:dhw:sqldb:repo.repoobjectcolumn.adoc[]" as repo.RepoObjectColumn << U >> {
  - **RepoObjectColumn_guid** : (uniqueidentifier)
  --
}

config.Parameter <.. property.RepoObjectColumnProperty_InheritanceType_InheritanceDefinition
property.PropertyName_RepoObjectColumn_T <.. property.RepoObjectColumnProperty_InheritanceType_InheritanceDefinition
property.RepoObjectColumnProperty <.. property.RepoObjectColumnProperty_InheritanceType_InheritanceDefinition
property.RepoObjectColumnProperty_InheritanceType_InheritanceDefinition <.. property.RepoObjectColumnProperty_InheritanceType_resulting_InheritanceDefinition
repo.RepoObjectColumn <.. property.RepoObjectColumnProperty_InheritanceType_InheritanceDefinitionfooter The diagram is interactive and contains links.
@enduml

