@startuml
left to right direction
'top to bottom direction
hide circle
'avoide "." issues:
set namespaceSeparator none


skinparam class {
  BackgroundColor White
  BackgroundColor<<FN>> Yellow
  BackgroundColor<<FS>> Yellow
  BackgroundColor<<FT>> LightGray
  BackgroundColor<<IF>> Yellow
  BackgroundColor<<IS>> Yellow
  BackgroundColor<<P>> Aqua
  BackgroundColor<<PC>> Aqua
  BackgroundColor<<SN>> Yellow
  BackgroundColor<<SO>> SlateBlue
  BackgroundColor<<TF>> LightGray
  BackgroundColor<<TR>> Tomato
  BackgroundColor<<U>> White
  BackgroundColor<<V>> WhiteSmoke
  BackgroundColor<<X>> Aqua
  BackgroundColor<<external>> AliceBlue
}


entity "puml-link:dhw:sqldb:logs.usp_executionlog_insert.adoc[]" as logs.usp_ExecutionLog_insert << P >> {
  --
}

entity "puml-link:dhw:sqldb:property.repoobjectproperty_external_src.adoc[]" as property.RepoObjectProperty_external_src << V >> {
  - **RepoObject_guid** : (uniqueidentifier)
  - **property_name** : (nvarchar(128))
  --
}

entity "puml-link:dhw:sqldb:property.repoobjectproperty_external_tgt.adoc[]" as property.RepoObjectProperty_external_tgt << V >> {
  - **RepoObject_guid** : (uniqueidentifier)
  - **property_name** : (nvarchar(128))
  --
}

entity "puml-link:dhw:sqldb:property.usp_external_property_import.adoc[]" as property.usp_external_property_import << P >> {
  --
}

entity "puml-link:dhw:sqldb:property.usp_external_repoobjectproperty.adoc[]" as property.usp_external_RepoObjectProperty << P >> {
  --
}

entity "puml-link:dhw:sqldb:property.usp_persist_repoobjectproperty_external_tgt.adoc[]" as property.usp_PERSIST_RepoObjectProperty_external_tgt << P >> {
  --
}

logs.usp_ExecutionLog_insert <.. property.usp_PERSIST_RepoObjectProperty_external_tgt
property.RepoObjectProperty_external_src <.. property.usp_PERSIST_RepoObjectProperty_external_tgt
property.RepoObjectProperty_external_tgt <.. property.usp_PERSIST_RepoObjectProperty_external_tgt
property.usp_PERSIST_RepoObjectProperty_external_tgt <.. property.usp_external_RepoObjectProperty
property.usp_PERSIST_RepoObjectProperty_external_tgt <.. property.usp_external_property_import
@enduml

