@startuml
left to right direction
'top to bottom direction
hide circle
'avoide "." issues:
set namespaceSeparator none


skinparam class {
  BackgroundColor White
  BackgroundColor<<FN>> Yellow
  BackgroundColor<<FS>> Yellow
  BackgroundColor<<FT>> LightGray
  BackgroundColor<<IF>> Yellow
  BackgroundColor<<IS>> Yellow
  BackgroundColor<<P>> Aqua
  BackgroundColor<<PC>> Aqua
  BackgroundColor<<SN>> Yellow
  BackgroundColor<<SO>> SlateBlue
  BackgroundColor<<TF>> LightGray
  BackgroundColor<<TR>> Tomato
  BackgroundColor<<U>> White
  BackgroundColor<<V>> WhiteSmoke
  BackgroundColor<<X>> Aqua
  BackgroundColor<<external>> AliceBlue
}


entity "puml-link:dhw:sqldb:property.fs_get_repoobjectcolumnproperty_nvarchar.adoc[]" as property.fs_get_RepoObjectColumnProperty_nvarchar << FN >> {
  --
}

entity "puml-link:dhw:sqldb:property.repoobjectcolumnproperty.adoc[]" as property.RepoObjectColumnProperty << U >> {
  - **RepoObjectColumnProperty_id** : (int)
  --
}

entity "puml-link:dhw:sqldb:repo.repoobjectcolumn_gross.adoc[]" as repo.RepoObjectColumn_gross << V >> {
  --
}

property.fs_get_RepoObjectColumnProperty_nvarchar <.. repo.RepoObjectColumn_gross
property.RepoObjectColumnProperty <.. property.fs_get_RepoObjectColumnProperty_nvarchar
@enduml

