@startuml
left to right direction
'top to bottom direction
hide circle
'avoide "." issues:
set namespaceSeparator none


skinparam class {
  BackgroundColor White
  BackgroundColor<<FN>> Yellow
  BackgroundColor<<FS>> Yellow
  BackgroundColor<<FT>> LightGray
  BackgroundColor<<IF>> Yellow
  BackgroundColor<<IS>> Yellow
  BackgroundColor<<P>> Aqua
  BackgroundColor<<PC>> Aqua
  BackgroundColor<<SN>> Yellow
  BackgroundColor<<SO>> SlateBlue
  BackgroundColor<<TF>> LightGray
  BackgroundColor<<TR>> Tomato
  BackgroundColor<<U>> White
  BackgroundColor<<V>> WhiteSmoke
  BackgroundColor<<X>> Aqua
  BackgroundColor<<external>> AliceBlue
}


entity "puml-link:dhw:sqldb:property.repoobjectproperty_collect_source_rogross.adoc[]" as property.RepoObjectProperty_Collect_source_ROGross << V >> {
  - **RepoObject_guid** : (uniqueidentifier)
  - **property_name** : (varchar(39))
  --
}

entity "puml-link:dhw:sqldb:property.usp_repoobjectproperty_collect.adoc[]" as property.usp_RepoObjectProperty_collect << P >> {
  --
}

entity "puml-link:dhw:sqldb:repo.repoobject_gross.adoc[]" as repo.RepoObject_gross << V >> {
  --
}

entity "puml-link:dhw:sqldb:repo.repoobject_sat2_t.adoc[]" as repo.RepoObject_sat2_T << U >> {
  - **RepoObject_guid** : (uniqueidentifier)
  --
}

property.RepoObjectProperty_Collect_source_ROGross <.. property.usp_RepoObjectProperty_collect
repo.RepoObject_gross <.. property.RepoObjectProperty_Collect_source_ROGross
repo.RepoObject_sat2_T <.. property.RepoObjectProperty_Collect_source_ROGross
@enduml

