@startuml
left to right direction
'top to bottom direction
hide circle
'avoide "." issues:
set namespaceSeparator none


skinparam class {
  BackgroundColor White
  BackgroundColor<<FN>> Yellow
  BackgroundColor<<FS>> Yellow
  BackgroundColor<<FT>> LightGray
  BackgroundColor<<IF>> Yellow
  BackgroundColor<<IS>> Yellow
  BackgroundColor<<P>> Aqua
  BackgroundColor<<PC>> Aqua
  BackgroundColor<<SN>> Yellow
  BackgroundColor<<SO>> SlateBlue
  BackgroundColor<<TF>> LightGray
  BackgroundColor<<TR>> Tomato
  BackgroundColor<<U>> White
  BackgroundColor<<V>> WhiteSmoke
  BackgroundColor<<X>> Aqua
  BackgroundColor<<external>> AliceBlue
}


entity "puml-link:dhw:sqldb:property.extendedproperty_repo2sys_level2_repoobjectcolumn.adoc[]" as property.ExtendedProperty_Repo2Sys_level2_RepoObjectColumn << V >> {
  - **level0type** : (nvarchar(6))
  - **level0name** : (nvarchar(128))
  **level1type** : (varchar(9))
  - **level1name** : (nvarchar(128))
  - **level2type** : (nvarchar(6))
  - **level2name** : (nvarchar(128))
  - **property_name** : (nvarchar(128))
  --
}

entity "puml-link:dhw:sqldb:property.fs_get_repoobjectcolumnproperty_nvarchar.adoc[]" as property.fs_get_RepoObjectColumnProperty_nvarchar << FN >> {
  --
}

entity "puml-link:dhw:sqldb:property.propertyname_repoobjectcolumn.adoc[]" as property.PropertyName_RepoObjectColumn << V >> {
  - **property_name** : (nvarchar(128))
  --
}

entity "puml-link:dhw:sqldb:property.repoobjectcolumnproperty.adoc[]" as property.RepoObjectColumnProperty << U >> {
  - **RepoObjectColumnProperty_id** : (int)
  --
}

entity "puml-link:dhw:sqldb:property.repoobjectcolumnproperty_external_tgt.adoc[]" as property.RepoObjectColumnProperty_external_tgt << V >> {
  - **RepoObjectColumn_guid** : (uniqueidentifier)
  - **property_name** : (nvarchar(128))
  --
}

entity "puml-link:dhw:sqldb:property.repoobjectcolumnproperty_forupdate.adoc[]" as property.RepoObjectColumnProperty_ForUpdate << V >> {
  --
}

entity "puml-link:dhw:sqldb:property.repoobjectcolumnproperty_inheritancetype_inheritancedefinition.adoc[]" as property.RepoObjectColumnProperty_InheritanceType_InheritanceDefinition << V >> {
  - **RepoObjectColumn_guid** : (uniqueidentifier)
  - **property_name** : (nvarchar(128))
  --
}

entity "puml-link:dhw:sqldb:property.repoobjectcolumnproperty_sys_repo.adoc[]" as property.RepoObjectColumnProperty_sys_repo << V >> {
  - **RepoObjectColumn_guid** : (uniqueidentifier)
  - **property_name** : (sysname)
  --
}

entity "puml-link:dhw:sqldb:property.usp_repoobjectcolumn_inheritance.adoc[]" as property.usp_RepoObjectColumn_Inheritance << P >> {
  --
}

entity "puml-link:dhw:sqldb:property.usp_repoobjectcolumnproperty_set.adoc[]" as property.usp_RepoObjectColumnProperty_set << P >> {
  --
}

entity "puml-link:dhw:sqldb:property.usp_sync_extendedproperties_sys2repo_insertupdate.adoc[]" as property.usp_sync_ExtendedProperties_Sys2Repo_InsertUpdate << P >> {
  --
}

property.RepoObjectColumnProperty <.. property.RepoObjectColumnProperty_sys_repo
property.RepoObjectColumnProperty <.. property.ExtendedProperty_Repo2Sys_level2_RepoObjectColumn
property.RepoObjectColumnProperty <.. property.usp_sync_ExtendedProperties_Sys2Repo_InsertUpdate
property.RepoObjectColumnProperty <.. property.PropertyName_RepoObjectColumn
property.RepoObjectColumnProperty <.. property.usp_RepoObjectColumn_Inheritance
property.RepoObjectColumnProperty <.. property.RepoObjectColumnProperty_InheritanceType_InheritanceDefinition
property.RepoObjectColumnProperty <.. property.fs_get_RepoObjectColumnProperty_nvarchar
property.RepoObjectColumnProperty <.. property.usp_RepoObjectColumnProperty_set
property.RepoObjectColumnProperty <.. property.RepoObjectColumnProperty_ForUpdate
property.RepoObjectColumnProperty <.. property.RepoObjectColumnProperty_external_tgt
property.RepoObjectColumnProperty_external_tgt <.. property.RepoObjectColumnProperty
@enduml

