@startuml
left to right direction
'top to bottom direction
hide circle
'avoide "." issues:
set namespaceSeparator none


skinparam class {
  BackgroundColor White
  BackgroundColor<<FN>> Yellow
  BackgroundColor<<FS>> Yellow
  BackgroundColor<<FT>> LightGray
  BackgroundColor<<IF>> Yellow
  BackgroundColor<<IS>> Yellow
  BackgroundColor<<P>> Aqua
  BackgroundColor<<PC>> Aqua
  BackgroundColor<<SN>> Yellow
  BackgroundColor<<SO>> SlateBlue
  BackgroundColor<<TF>> LightGray
  BackgroundColor<<TR>> Tomato
  BackgroundColor<<U>> White
  BackgroundColor<<V>> WhiteSmoke
  BackgroundColor<<X>> Aqua
  BackgroundColor<<external>> AliceBlue
}


entity "puml-link:dhw:sqldb:configt.type_level1type_level2type.adoc[]" as configT.type_level1type_level2type << V >> {
  **type** : (nvarchar(128))
  --
}

entity "puml-link:dhw:sqldb:property.extendedproperty_repo2sys_level2_repoobject.adoc[]" as property.ExtendedProperty_Repo2Sys_level2_RepoObject << V >> {
  - **level0type** : (nvarchar(6))
  - **level0name** : (nvarchar(128))
  **level1type** : (varchar(9))
  - **level1name** : (nvarchar(128))
  **level2type** : (varchar(10))
  - **level2name** : (nvarchar(128))
  - **property_name** : (nvarchar(128))
  --
}

entity "puml-link:dhw:sqldb:property.extendedproperty_repo2sys_level2_union.adoc[]" as property.ExtendedProperty_Repo2Sys_level2_Union << V >> {
  - **level0type** : (nvarchar(6))
  - **level0name** : (nvarchar(128))
  **level1type** : (varchar(9))
  - **level1name** : (nvarchar(128))
  **level2type** : (nvarchar(10))
  - **level2name** : (nvarchar(128))
  - **property_name** : (nvarchar(128))
  --
}

entity "puml-link:dhw:sqldb:property.repoobjectproperty.adoc[]" as property.RepoObjectProperty << U >> {
  - **RepoObjectProperty_id** : (int)
  --
}

entity "puml-link:dhw:sqldb:repo.repoobject.adoc[]" as repo.RepoObject << U >> {
  - **RepoObject_guid** : (uniqueidentifier)
  --
}

configT.type_level1type_level2type <.. property.ExtendedProperty_Repo2Sys_level2_RepoObject
property.ExtendedProperty_Repo2Sys_level2_RepoObject <.. property.ExtendedProperty_Repo2Sys_level2_Union
property.RepoObjectProperty <.. property.ExtendedProperty_Repo2Sys_level2_RepoObject
repo.RepoObject <.. property.ExtendedProperty_Repo2Sys_level2_RepoObject
@enduml

