@startuml
left to right direction
'top to bottom direction
hide circle
'avoide "." issues:
set namespaceSeparator none


skinparam class {
  BackgroundColor White
  BackgroundColor<<FN>> Yellow
  BackgroundColor<<FS>> Yellow
  BackgroundColor<<FT>> LightGray
  BackgroundColor<<IF>> Yellow
  BackgroundColor<<IS>> Yellow
  BackgroundColor<<P>> Aqua
  BackgroundColor<<PC>> Aqua
  BackgroundColor<<SN>> Yellow
  BackgroundColor<<SO>> SlateBlue
  BackgroundColor<<TF>> LightGray
  BackgroundColor<<TR>> Tomato
  BackgroundColor<<U>> White
  BackgroundColor<<V>> WhiteSmoke
  BackgroundColor<<X>> Aqua
  BackgroundColor<<external>> AliceBlue
}


entity "puml-link:dhw:sqldb:property.propertyname_repoobjectcolumn.adoc[]" as property.PropertyName_RepoObjectColumn << V >> {
  - **property_name** : (nvarchar(128))
  --
}

entity "puml-link:dhw:sqldb:property.propertyname_repoobjectcolumn_t.adoc[]" as property.PropertyName_RepoObjectColumn_T << U >> {
  - **property_name** : (nvarchar(128))
  --
}

entity "puml-link:dhw:sqldb:property.repoobjectcolumnproperty_inheritancetype_inheritancedefinition.adoc[]" as property.RepoObjectColumnProperty_InheritanceType_InheritanceDefinition << V >> {
  - **RepoObjectColumn_guid** : (uniqueidentifier)
  - **property_name** : (nvarchar(128))
  --
}

entity "puml-link:dhw:sqldb:property.usp_persist_propertyname_repoobjectcolumn_t.adoc[]" as property.usp_PERSIST_PropertyName_RepoObjectColumn_T << P >> {
  --
}

property.PropertyName_RepoObjectColumn <.. property.PropertyName_RepoObjectColumn_T
property.PropertyName_RepoObjectColumn_T <.. property.RepoObjectColumnProperty_InheritanceType_InheritanceDefinition
property.PropertyName_RepoObjectColumn_T <.. property.usp_PERSIST_PropertyName_RepoObjectColumn_T
@enduml

