@startuml
left to right direction
'top to bottom direction
hide circle
'avoide "." issues:
set namespaceSeparator none


skinparam class {
  BackgroundColor White
  BackgroundColor<<FN>> Yellow
  BackgroundColor<<FS>> Yellow
  BackgroundColor<<FT>> LightGray
  BackgroundColor<<IF>> Yellow
  BackgroundColor<<IS>> Yellow
  BackgroundColor<<P>> Aqua
  BackgroundColor<<PC>> Aqua
  BackgroundColor<<SN>> Yellow
  BackgroundColor<<SO>> SlateBlue
  BackgroundColor<<TF>> LightGray
  BackgroundColor<<TR>> Tomato
  BackgroundColor<<U>> White
  BackgroundColor<<V>> WhiteSmoke
  BackgroundColor<<X>> Aqua
  BackgroundColor<<external>> AliceBlue
}


entity "puml-link:dhw:sqldb:reference.repoobjectcolumn_reference_sqlmodules.adoc[]" as reference.RepoObjectColumn_reference_SqlModules << V >> {
  **referencing_id** : (int)
  **referencing_minor_id** : (int)
  **referenced_id** : (int)
  **referenced_minor_id** : (int)
  --
}

entity "puml-link:dhw:sqldb:reference.repoobjectcolumn_reference_union.adoc[]" as reference.RepoObjectColumn_reference_union << V >> {
  --
}

entity "puml-link:dhw:sqldb:repo.repoobject.adoc[]" as repo.RepoObject << U >> {
  - **RepoObject_guid** : (uniqueidentifier)
  --
}

entity "puml-link:dhw:sqldb:repo.repoobjectcolumn.adoc[]" as repo.RepoObjectColumn << U >> {
  - **RepoObjectColumn_guid** : (uniqueidentifier)
  --
}

entity "puml-link:dhw:sqldb:sqlparse.repoobject_sqlmodules_79_reference_union.adoc[]" as sqlparse.RepoObject_SqlModules_79_reference_union << V >> {
  --
}

reference.RepoObjectColumn_reference_SqlModules <.. reference.RepoObjectColumn_reference_union
repo.RepoObject <.. reference.RepoObjectColumn_reference_SqlModules
repo.RepoObjectColumn <.. reference.RepoObjectColumn_reference_SqlModules
sqlparse.RepoObject_SqlModules_79_reference_union <.. reference.RepoObjectColumn_reference_SqlModulesfooter The diagram is interactive and contains links.
@enduml

