@startuml
left to right direction
'top to bottom direction
hide circle
'avoide "." issues:
set namespaceSeparator none


skinparam class {
  BackgroundColor White
  BackgroundColor<<FN>> Yellow
  BackgroundColor<<FS>> Yellow
  BackgroundColor<<FT>> LightGray
  BackgroundColor<<IF>> Yellow
  BackgroundColor<<IS>> Yellow
  BackgroundColor<<P>> Aqua
  BackgroundColor<<PC>> Aqua
  BackgroundColor<<SN>> Yellow
  BackgroundColor<<SO>> SlateBlue
  BackgroundColor<<TF>> LightGray
  BackgroundColor<<TR>> Tomato
  BackgroundColor<<U>> White
  BackgroundColor<<V>> WhiteSmoke
  BackgroundColor<<X>> Aqua
  BackgroundColor<<external>> AliceBlue
}


entity "puml-link:dhw:sqldb:logs.usp_executionlog_insert.adoc[]" as logs.usp_ExecutionLog_insert << P >> {
  --
}

entity "puml-link:dhw:sqldb:reference.repoobjectsource_firstresultset.adoc[]" as reference.RepoObjectSource_FirstResultSet << U >> {
  - **RepoObject_guid** : (uniqueidentifier)
  - **column_ordinal** : (int)
  --
}

entity "puml-link:dhw:sqldb:reference.usp_repoobjectsource_firstresultset.adoc[]" as reference.usp_RepoObjectSource_FirstResultSet << P >> {
  --
}

entity "puml-link:dhw:sqldb:repo.repoobject.adoc[]" as repo.RepoObject << U >> {
  - **RepoObject_guid** : (uniqueidentifier)
  --
}

entity "puml-link:dhw:sqldb:repo.repoobject_gross.adoc[]" as repo.RepoObject_gross << V >> {
  --
}

entity "puml-link:dhw:sqldb:repo.usp_main.adoc[]" as repo.usp_main << P >> {
  --
}

logs.usp_ExecutionLog_insert <.. reference.usp_RepoObjectSource_FirstResultSet
reference.RepoObjectSource_FirstResultSet <.. reference.usp_RepoObjectSource_FirstResultSet
reference.usp_RepoObjectSource_FirstResultSet <.. repo.usp_main
repo.RepoObject <.. reference.usp_RepoObjectSource_FirstResultSet
repo.RepoObject_gross <.. reference.usp_RepoObjectSource_FirstResultSet
@enduml

