@startuml
left to right direction
'top to bottom direction
hide circle
'avoide "." issues:
set namespaceSeparator none


skinparam class {
  BackgroundColor White
  BackgroundColor<<FN>> Yellow
  BackgroundColor<<FS>> Yellow
  BackgroundColor<<FT>> LightGray
  BackgroundColor<<IF>> Yellow
  BackgroundColor<<IS>> Yellow
  BackgroundColor<<P>> Aqua
  BackgroundColor<<PC>> Aqua
  BackgroundColor<<SN>> Yellow
  BackgroundColor<<SO>> SlateBlue
  BackgroundColor<<TF>> LightGray
  BackgroundColor<<TR>> Tomato
  BackgroundColor<<U>> White
  BackgroundColor<<V>> WhiteSmoke
  BackgroundColor<<X>> Aqua
  BackgroundColor<<external>> AliceBlue
}


entity "puml-link:dhw:sqldb:logs.usp_executionlog_insert.adoc[]" as logs.usp_ExecutionLog_insert << P >> {
  --
}

entity "puml-link:dhw:sqldb:reference.repoobject_queryplan.adoc[]" as reference.RepoObject_QueryPlan << U >> {
  - **RepoObject_guid** : (uniqueidentifier)
  --
}

entity "puml-link:dhw:sqldb:reference.usp_repoobject_update_sysobjectqueryplan.adoc[]" as reference.usp_RepoObject_update_SysObjectQueryPlan << P >> {
  --
}

entity "puml-link:dhw:sqldb:repo.repoobject.adoc[]" as repo.RepoObject << U >> {
  - **RepoObject_guid** : (uniqueidentifier)
  --
}

entity "puml-link:dhw:sqldb:repo.repoobject_gross.adoc[]" as repo.RepoObject_gross << V >> {
  --
}

entity "puml-link:dhw:sqldb:repo.usp_main.adoc[]" as repo.usp_main << P >> {
  --
}

logs.usp_ExecutionLog_insert <.. reference.usp_RepoObject_update_SysObjectQueryPlan
reference.RepoObject_QueryPlan <.. reference.usp_RepoObject_update_SysObjectQueryPlan
reference.usp_RepoObject_update_SysObjectQueryPlan <.. repo.usp_main
repo.RepoObject <.. reference.usp_RepoObject_update_SysObjectQueryPlan
repo.RepoObject_gross <.. reference.usp_RepoObject_update_SysObjectQueryPlan
@enduml

