@startuml
left to right direction
'top to bottom direction
hide circle
'avoide "." issues:
set namespaceSeparator none


skinparam class {
  BackgroundColor White
  BackgroundColor<<FN>> Yellow
  BackgroundColor<<FS>> Yellow
  BackgroundColor<<FT>> LightGray
  BackgroundColor<<IF>> Yellow
  BackgroundColor<<IS>> Yellow
  BackgroundColor<<P>> Aqua
  BackgroundColor<<PC>> Aqua
  BackgroundColor<<SN>> Yellow
  BackgroundColor<<SO>> SlateBlue
  BackgroundColor<<TF>> LightGray
  BackgroundColor<<TR>> Tomato
  BackgroundColor<<U>> White
  BackgroundColor<<V>> WhiteSmoke
  BackgroundColor<<X>> Aqua
  BackgroundColor<<external>> AliceBlue
}


entity "puml-link:dhw:sqldb:reference.repoobject_reference_t.adoc[]" as reference.RepoObject_reference_T << U >> {
  **referenced_RepoObject_guid** : (uniqueidentifier)
  **referencing_RepoObject_guid** : (uniqueidentifier)
  --
}

entity "puml-link:dhw:sqldb:reference.repoobjectcolumn_reference_bysamepredecessors.adoc[]" as reference.RepoObjectColumn_reference_BySamePredecessors << V >> {
  --
}

entity "puml-link:dhw:sqldb:reference.repoobjectcolumn_reference_firstresultset.adoc[]" as reference.RepoObjectColumn_reference_FirstResultSet << V >> {
  --
}

reference.RepoObject_reference_T <.. reference.RepoObjectColumn_reference_BySamePredecessors
reference.RepoObjectColumn_reference_FirstResultSet <.. reference.RepoObjectColumn_reference_BySamePredecessorsfooter The diagram is interactive and contains links.
@enduml

