@startuml
left to right direction
'top to bottom direction
hide circle
'avoide "." issues:
set namespaceSeparator none


skinparam class {
  BackgroundColor White
  BackgroundColor<<FN>> Yellow
  BackgroundColor<<FS>> Yellow
  BackgroundColor<<FT>> LightGray
  BackgroundColor<<IF>> Yellow
  BackgroundColor<<IS>> Yellow
  BackgroundColor<<P>> Aqua
  BackgroundColor<<PC>> Aqua
  BackgroundColor<<SN>> Yellow
  BackgroundColor<<SO>> SlateBlue
  BackgroundColor<<TF>> LightGray
  BackgroundColor<<TR>> Tomato
  BackgroundColor<<U>> White
  BackgroundColor<<V>> WhiteSmoke
  BackgroundColor<<X>> Aqua
  BackgroundColor<<external>> AliceBlue
}


entity "puml-link:dhw:sqldb:config.ftv_dwh_database.adoc[]" as config.ftv_dwh_database << IF >> {
  --
}

entity "puml-link:dhw:sqldb:logs.usp_executionlog_insert.adoc[]" as logs.usp_ExecutionLog_insert << P >> {
  --
}

entity "puml-link:dhw:sqldb:reference.usp_update_referencing_count.adoc[]" as reference.usp_update_Referencing_Count << P >> {
  --
}

entity "puml-link:dhw:sqldb:repo.repoobject.adoc[]" as repo.RepoObject << U >> {
  - **RepoObject_guid** : (uniqueidentifier)
  --
}

entity "puml-link:dhw:sqldb:repo.repoobjectcolumn.adoc[]" as repo.RepoObjectColumn << U >> {
  - **RepoObjectColumn_guid** : (uniqueidentifier)
  --
}

entity "puml-link:dhw:sqldb:repo.usp_main.adoc[]" as repo.usp_main << P >> {
  --
}

entity "puml-link:dhw:sqldb:repo_sys.repoobjectreferenced.adoc[]" as repo_sys.RepoObjectReferenced << V >> {
  --
}

entity "puml-link:dhw:sqldb:repo_sys.repoobjectreferencing.adoc[]" as repo_sys.RepoObjectReferencing << V >> {
  --
}

config.ftv_dwh_database <.. reference.usp_update_Referencing_Count
logs.usp_ExecutionLog_insert <.. reference.usp_update_Referencing_Count
reference.usp_update_Referencing_Count <.. repo.usp_main
repo.RepoObject <.. reference.usp_update_Referencing_Count
repo.RepoObjectColumn <.. reference.usp_update_Referencing_Count
repo_sys.RepoObjectReferenced <.. reference.usp_update_Referencing_Count
repo_sys.RepoObjectReferencing <.. reference.usp_update_Referencing_Countfooter The diagram is interactive and contains links.
@enduml

