@startuml
left to right direction
'top to bottom direction
hide circle
'avoide "." issues:
set namespaceSeparator none


skinparam class {
  BackgroundColor White
  BackgroundColor<<FN>> Yellow
  BackgroundColor<<FS>> Yellow
  BackgroundColor<<FT>> LightGray
  BackgroundColor<<IF>> Yellow
  BackgroundColor<<IS>> Yellow
  BackgroundColor<<P>> Aqua
  BackgroundColor<<PC>> Aqua
  BackgroundColor<<SN>> Yellow
  BackgroundColor<<SO>> SlateBlue
  BackgroundColor<<TF>> LightGray
  BackgroundColor<<TR>> Tomato
  BackgroundColor<<U>> White
  BackgroundColor<<V>> WhiteSmoke
  BackgroundColor<<X>> Aqua
  BackgroundColor<<external>> AliceBlue
}


entity "puml-link:dhw:sqldb:reference.referencetree_cyclic_ref_primary.adoc[]" as reference.ReferenceTree_cyclic_ref_primary << V >> {
  --
}

entity "puml-link:dhw:sqldb:reference.repoobject_referencetree.adoc[]" as reference.RepoObject_ReferenceTree << U >> {
  - **RepoObject_guid** : (uniqueidentifier)
  **Referenced_Depth** : (int)
  **Referencing_Depth** : (int)
  - **Referenced_guid** : (uniqueidentifier)
  - **Referencing_guid** : (uniqueidentifier)
  --
}

entity "puml-link:dhw:sqldb:reference.repoobject_referencetree_cyclic.adoc[]" as reference.RepoObject_ReferenceTree_cyclic << V >> {
  --
}

reference.RepoObject_ReferenceTree <.. reference.RepoObject_ReferenceTree_cyclic
reference.RepoObject_ReferenceTree_cyclic <.. reference.ReferenceTree_cyclic_ref_primary
@enduml

