@startuml
left to right direction
'top to bottom direction
hide circle
'avoide "." issues:
set namespaceSeparator none


skinparam class {
  BackgroundColor White
  BackgroundColor<<FN>> Yellow
  BackgroundColor<<FS>> Yellow
  BackgroundColor<<FT>> LightGray
  BackgroundColor<<IF>> Yellow
  BackgroundColor<<IS>> Yellow
  BackgroundColor<<P>> Aqua
  BackgroundColor<<PC>> Aqua
  BackgroundColor<<SN>> Yellow
  BackgroundColor<<SO>> SlateBlue
  BackgroundColor<<TF>> LightGray
  BackgroundColor<<TR>> Tomato
  BackgroundColor<<U>> White
  BackgroundColor<<V>> WhiteSmoke
  BackgroundColor<<X>> Aqua
  BackgroundColor<<external>> AliceBlue
}


entity "puml-link:dhw:sqldb:reference.additional_reference_object.adoc[]" as reference.additional_Reference_Object << V >> {
  - **AntoraComponent** : (nvarchar(128))
  - **AntoraModule** : (nvarchar(128))
  - **SchemaName** : (nvarchar(128))
  - **ObjectName** : (nvarchar(128))
  --
}

entity "puml-link:dhw:sqldb:reference.additional_reference_object_t.adoc[]" as reference.additional_Reference_Object_T << U >> {
  - **RepoObject_guid** : (uniqueidentifier)
  --
}

entity "puml-link:dhw:sqldb:reference.usp_persist_additional_reference_object_t.adoc[]" as reference.usp_PERSIST_additional_Reference_Object_T << P >> {
  --
}

entity "puml-link:dhw:sqldb:repo.repoobject_external_src.adoc[]" as repo.RepoObject_external_src << V >> {
  - **RepoObject_guid** : (uniqueidentifier)
  --
}

entity "puml-link:dhw:sqldb:repo.repoobjectcolumn_external_src.adoc[]" as repo.RepoObjectColumn_external_src << V >> {
  - **RepoObjectColumn_guid** : (uniqueidentifier)
  --
}

reference.additional_Reference_Object <.. reference.additional_Reference_Object_T
reference.additional_Reference_Object_T <.. reference.usp_PERSIST_additional_Reference_Object_T
reference.additional_Reference_Object_T <.. repo.RepoObject_external_src
reference.additional_Reference_Object_T <.. repo.RepoObjectColumn_external_src
@enduml

