@startuml
left to right direction
'top to bottom direction
hide circle
'avoide "." issues:
set namespaceSeparator none


skinparam class {
  BackgroundColor White
  BackgroundColor<<FN>> Yellow
  BackgroundColor<<FS>> Yellow
  BackgroundColor<<FT>> LightGray
  BackgroundColor<<IF>> Yellow
  BackgroundColor<<IS>> Yellow
  BackgroundColor<<P>> Aqua
  BackgroundColor<<PC>> Aqua
  BackgroundColor<<SN>> Yellow
  BackgroundColor<<SO>> SlateBlue
  BackgroundColor<<TF>> LightGray
  BackgroundColor<<TR>> Tomato
  BackgroundColor<<U>> White
  BackgroundColor<<V>> WhiteSmoke
  BackgroundColor<<X>> Aqua
  BackgroundColor<<external>> AliceBlue
}


entity "puml-link:dhw:sqldb:reference.repoobjectcolumn_reference_firstresultset.adoc[]" as reference.RepoObjectColumn_reference_FirstResultSet << V >> {
  --
}

entity "puml-link:dhw:sqldb:reference.repoobjectsource_firstresultset.adoc[]" as reference.RepoObjectSource_FirstResultSet << U >> {
  - **RepoObject_guid** : (uniqueidentifier)
  - **column_ordinal** : (int)
  --
}

entity "puml-link:dhw:sqldb:reference.usp_repoobjectsource_firstresultset.adoc[]" as reference.usp_RepoObjectSource_FirstResultSet << P >> {
  --
}

reference.RepoObjectSource_FirstResultSet <.. reference.RepoObjectColumn_reference_FirstResultSet
reference.RepoObjectSource_FirstResultSet <.. reference.usp_RepoObjectSource_FirstResultSet
@enduml

