@startuml
left to right direction
'top to bottom direction
hide circle
'avoide "." issues:
set namespaceSeparator none


skinparam class {
  BackgroundColor White
  BackgroundColor<<FN>> Yellow
  BackgroundColor<<FS>> Yellow
  BackgroundColor<<FT>> LightGray
  BackgroundColor<<IF>> Yellow
  BackgroundColor<<IS>> Yellow
  BackgroundColor<<P>> Aqua
  BackgroundColor<<PC>> Aqua
  BackgroundColor<<SN>> Yellow
  BackgroundColor<<SO>> SlateBlue
  BackgroundColor<<TF>> LightGray
  BackgroundColor<<TR>> Tomato
  BackgroundColor<<U>> White
  BackgroundColor<<V>> WhiteSmoke
  BackgroundColor<<X>> Aqua
  BackgroundColor<<external>> AliceBlue
}


entity "puml-link:dhw:sqldb:reference.repoobject_reference_t.adoc[]" as reference.RepoObject_reference_T << U >> {
  **referenced_RepoObject_guid** : (uniqueidentifier)
  **referencing_RepoObject_guid** : (uniqueidentifier)
  --
}

entity "puml-link:dhw:sqldb:reference.repoobjectcolumn_reference_union.adoc[]" as reference.RepoObjectColumn_reference_union << V >> {
  --
}

entity "puml-link:dhw:sqldb:reference.repoobjectcolumn_reference_virtual.adoc[]" as reference.RepoObjectColumn_reference_virtual << V >> {
  --
}

entity "puml-link:dhw:sqldb:reference.repoobjectcolumnsource_virtual.adoc[]" as reference.RepoObjectColumnSource_virtual << U >> {
  - **RepoObjectColumn_guid** : (uniqueidentifier)
  - **Source_RepoObjectColumn_guid** : (uniqueidentifier)
  --
}

entity "puml-link:dhw:sqldb:repo.repoobjectcolumn_gross.adoc[]" as repo.RepoObjectColumn_gross << V >> {
  --
}

reference.RepoObject_reference_T <.. reference.RepoObjectColumn_reference_virtual
reference.RepoObjectColumn_reference_virtual <.. reference.RepoObjectColumn_reference_union
reference.RepoObjectColumnSource_virtual <.. reference.RepoObjectColumn_reference_virtual
repo.RepoObjectColumn_gross <.. reference.RepoObjectColumn_reference_virtualfooter The diagram is interactive and contains links.
@enduml

