@startuml
left to right direction
'top to bottom direction
hide circle
'avoide "." issues:
set namespaceSeparator none


skinparam class {
  BackgroundColor White
  BackgroundColor<<FN>> Yellow
  BackgroundColor<<FS>> Yellow
  BackgroundColor<<FT>> LightGray
  BackgroundColor<<IF>> Yellow
  BackgroundColor<<IS>> Yellow
  BackgroundColor<<P>> Aqua
  BackgroundColor<<PC>> Aqua
  BackgroundColor<<SN>> Yellow
  BackgroundColor<<SO>> SlateBlue
  BackgroundColor<<TF>> LightGray
  BackgroundColor<<TR>> Tomato
  BackgroundColor<<U>> White
  BackgroundColor<<V>> WhiteSmoke
  BackgroundColor<<X>> Aqua
  BackgroundColor<<external>> AliceBlue
}


entity "puml-link:dhw:sqldb:reference.additional_reference_database.adoc[]" as reference.additional_Reference_database << V >> {
  - **AntoraComponent** : (nvarchar(128))
  - **AntoraModule** : (nvarchar(128))
  --
}

entity "puml-link:dhw:sqldb:reference.additional_reference_database_t.adoc[]" as reference.additional_Reference_database_T << U >> {
  - **AntoraComponent** : (nvarchar(128))
  - **AntoraModule** : (nvarchar(128))
  --
}

entity "puml-link:dhw:sqldb:reference.additional_reference_is_external.adoc[]" as reference.additional_Reference_is_external << V >> {
  --
}

entity "puml-link:dhw:sqldb:reference.usp_persist_additional_reference_database_t.adoc[]" as reference.usp_PERSIST_additional_Reference_database_T << P >> {
  --
}

reference.additional_Reference_database <.. reference.additional_Reference_database_T
reference.additional_Reference_database <.. reference.usp_PERSIST_additional_Reference_database_T
reference.additional_Reference_is_external <.. reference.additional_Reference_databasefooter The diagram is interactive and contains links.
@enduml

