@startuml
left to right direction
'top to bottom direction
hide circle
'avoide "." issues:
set namespaceSeparator none


skinparam class {
  BackgroundColor White
  BackgroundColor<<FN>> Yellow
  BackgroundColor<<FS>> Yellow
  BackgroundColor<<FT>> LightGray
  BackgroundColor<<IF>> Yellow
  BackgroundColor<<IS>> Yellow
  BackgroundColor<<P>> Aqua
  BackgroundColor<<PC>> Aqua
  BackgroundColor<<SN>> Yellow
  BackgroundColor<<SO>> SlateBlue
  BackgroundColor<<TF>> LightGray
  BackgroundColor<<TR>> Tomato
  BackgroundColor<<U>> White
  BackgroundColor<<V>> WhiteSmoke
  BackgroundColor<<X>> Aqua
  BackgroundColor<<external>> AliceBlue
}


entity "puml-link:dhw:sqldb:docs.fs_cleanstringforanchorid.adoc[]" as docs.fs_cleanStringForAnchorId << FN >> {
  --
}

entity "puml-link:dhw:sqldb:docs.fs_cleanstringforfilename.adoc[]" as docs.fs_cleanStringForFilename << FN >> {
  --
}

entity "puml-link:dhw:sqldb:reference.ftv_repoobject_dbmlcolumnrelation.adoc[]" as reference.ftv_RepoObject_DbmlColumnRelation << IF >> {
  --
}

entity "puml-link:dhw:sqldb:reference.ftv_repoobjectcolumn_referencetree.adoc[]" as reference.ftv_RepoObjectColumn_ReferenceTree << IF >> {
  --
}

entity "puml-link:dhw:sqldb:reference.repoobjectcolumn_reference_t.adoc[]" as reference.RepoObjectColumn_reference_T << U >> {
  **referenced_RepoObjectColumn_guid** : (uniqueidentifier)
  **referencing_RepoObjectColumn_guid** : (uniqueidentifier)
  --
}

entity "puml-link:dhw:sqldb:reference.repoobjectcolumn_referencedlist.adoc[]" as reference.RepoObjectColumn_ReferencedList << V >> {
  --
}

entity "puml-link:dhw:sqldb:reference.repoobjectcolumn_referencedreferencing.adoc[]" as reference.RepoObjectColumn_ReferencedReferencing << V >> {
  --
}

entity "puml-link:dhw:sqldb:reference.repoobjectcolumn_referencinglist.adoc[]" as reference.RepoObjectColumn_ReferencingList << V >> {
  --
}

docs.fs_cleanStringForAnchorId <.. reference.RepoObjectColumn_ReferencedReferencing
docs.fs_cleanStringForFilename <.. reference.RepoObjectColumn_ReferencedReferencing
reference.RepoObjectColumn_reference_T <.. reference.RepoObjectColumn_ReferencedReferencing
reference.RepoObjectColumn_ReferencedReferencing <.. reference.ftv_RepoObjectColumn_ReferenceTree
reference.RepoObjectColumn_ReferencedReferencing <.. reference.ftv_RepoObject_DbmlColumnRelation
reference.RepoObjectColumn_ReferencedReferencing <.. reference.RepoObjectColumn_ReferencedList
reference.RepoObjectColumn_ReferencedReferencing <.. reference.RepoObjectColumn_ReferencingListfooter The diagram is interactive and contains links.
@enduml

