@startuml
left to right direction
'top to bottom direction
hide circle
'avoide "." issues:
set namespaceSeparator none


skinparam class {
  BackgroundColor White
  BackgroundColor<<FN>> Yellow
  BackgroundColor<<FS>> Yellow
  BackgroundColor<<FT>> LightGray
  BackgroundColor<<IF>> Yellow
  BackgroundColor<<IS>> Yellow
  BackgroundColor<<P>> Aqua
  BackgroundColor<<PC>> Aqua
  BackgroundColor<<SN>> Yellow
  BackgroundColor<<SO>> SlateBlue
  BackgroundColor<<TF>> LightGray
  BackgroundColor<<TR>> Tomato
  BackgroundColor<<U>> White
  BackgroundColor<<V>> WhiteSmoke
  BackgroundColor<<X>> Aqua
}


entity "puml-link:reference.ftv_RepoObject_DbmlColumnRelation.adoc[prefix=..]" as reference.ftv_RepoObject_DbmlColumnRelation << IF >> {
  --
}

entity "puml-link:reference.ftv_RepoObjectColumn_ReferenceTree.adoc[prefix=..]" as reference.ftv_RepoObjectColumn_ReferenceTree << IF >> {
  --
}

entity "puml-link:reference.RepoObjectColumn_reference_T.adoc[prefix=..]" as reference.RepoObjectColumn_reference_T << U >> {
  **referenced_RepoObjectColumn_guid** : (uniqueidentifier)
  **referencing_RepoObjectColumn_guid** : (uniqueidentifier)
  --
}

entity "puml-link:reference.RepoObjectColumn_ReferencedList.adoc[prefix=..]" as reference.RepoObjectColumn_ReferencedList << V >> {
  --
}

entity "puml-link:reference.RepoObjectColumn_ReferencingList.adoc[prefix=..]" as reference.RepoObjectColumn_ReferencingList << V >> {
  --
}

entity "puml-link:reference.RepoObjectColumn_ReferencingReferenced.adoc[prefix=..]" as reference.RepoObjectColumn_ReferencingReferenced << V >> {
  - **Referenced_guid** : (uniqueidentifier)
  - **Referencing_guid** : (uniqueidentifier)
  --
}

reference.RepoObjectColumn_reference_T <.. reference.RepoObjectColumn_ReferencingReferenced
reference.RepoObjectColumn_ReferencingReferenced <.. reference.ftv_RepoObjectColumn_ReferenceTree
reference.RepoObjectColumn_ReferencingReferenced <.. reference.ftv_RepoObject_DbmlColumnRelation
reference.RepoObjectColumn_ReferencingReferenced <.. reference.RepoObjectColumn_ReferencedList
reference.RepoObjectColumn_ReferencingReferenced <.. reference.RepoObjectColumn_ReferencingList
footer
to view a reduced diagram in original size and to be able to click on the links:
open the diagram in a new tab via the Context menu.
end footer

@enduml

