@startuml
left to right direction
'top to bottom direction
hide circle
'avoide "." issues:
set namespaceSeparator none


skinparam class {
  BackgroundColor White
  BackgroundColor<<FN>> Yellow
  BackgroundColor<<FS>> Yellow
  BackgroundColor<<FT>> LightGray
  BackgroundColor<<IF>> Yellow
  BackgroundColor<<IS>> Yellow
  BackgroundColor<<P>> Aqua
  BackgroundColor<<PC>> Aqua
  BackgroundColor<<SN>> Yellow
  BackgroundColor<<SO>> SlateBlue
  BackgroundColor<<TF>> LightGray
  BackgroundColor<<TR>> Tomato
  BackgroundColor<<U>> White
  BackgroundColor<<V>> WhiteSmoke
  BackgroundColor<<X>> Aqua
  BackgroundColor<<external>> AliceBlue
}


entity "puml-link:dhw:sqldb:reference.additional_reference.adoc[]" as reference.additional_Reference << U >> {
  - **Id** : (int)
  --
}

entity "puml-link:dhw:sqldb:reference.additional_reference_guid.adoc[]" as reference.additional_Reference_guid << V >> {
  --
}

entity "puml-link:dhw:sqldb:reference.repoobject_reference_additional.adoc[]" as reference.RepoObject_reference_additional << V >> {
  --
}

entity "puml-link:dhw:sqldb:reference.repoobject_reference_additional_internal.adoc[]" as reference.RepoObject_reference_additional_internal << V >> {
  --
}

entity "puml-link:dhw:sqldb:reference.repoobjectcolumn_reference_additional.adoc[]" as reference.RepoObjectColumn_reference_additional << V >> {
  --
}

entity "puml-link:dhw:sqldb:reference.repoobjectcolumn_reference_additional_internal.adoc[]" as reference.RepoObjectColumn_reference_additional_internal << V >> {
  --
}

entity "puml-link:dhw:sqldb:repo.repoobject.adoc[]" as repo.RepoObject << U >> {
  - **RepoObject_guid** : (uniqueidentifier)
  --
}

entity "puml-link:dhw:sqldb:repo.repoobjectcolumn.adoc[]" as repo.RepoObjectColumn << U >> {
  - **RepoObjectColumn_guid** : (uniqueidentifier)
  --
}

reference.additional_Reference <.. reference.additional_Reference_guid
reference.additional_Reference_guid <.. reference.RepoObject_reference_additional_internal
reference.additional_Reference_guid <.. reference.RepoObjectColumn_reference_additional_internal
reference.additional_Reference_guid <.. reference.RepoObject_reference_additional
reference.additional_Reference_guid <.. reference.RepoObjectColumn_reference_additional
repo.RepoObject <.. reference.additional_Reference_guid
repo.RepoObjectColumn <.. reference.additional_Reference_guidfooter The diagram is interactive and contains links.
@enduml

