@startuml
left to right direction
'top to bottom direction
hide circle
'avoide "." issues:
set namespaceSeparator none


skinparam class {
  BackgroundColor White
  BackgroundColor<<FN>> Yellow
  BackgroundColor<<FS>> Yellow
  BackgroundColor<<FT>> LightGray
  BackgroundColor<<IF>> Yellow
  BackgroundColor<<IS>> Yellow
  BackgroundColor<<P>> Aqua
  BackgroundColor<<PC>> Aqua
  BackgroundColor<<SN>> Yellow
  BackgroundColor<<SO>> SlateBlue
  BackgroundColor<<TF>> LightGray
  BackgroundColor<<TR>> Tomato
  BackgroundColor<<U>> White
  BackgroundColor<<V>> WhiteSmoke
  BackgroundColor<<X>> Aqua
  BackgroundColor<<external>> AliceBlue
}


entity "puml-link:dhw:sqldb:logs.usp_executionlog_insert.adoc[]" as logs.usp_ExecutionLog_insert << P >> {
  --
}

entity "puml-link:dhw:sqldb:reference.repoobject_referencedreferencing.adoc[]" as reference.RepoObject_ReferencedReferencing << V >> {
  --
}

entity "puml-link:dhw:sqldb:reference.repoobject_referencetree.adoc[]" as reference.RepoObject_ReferenceTree << U >> {
  - **RepoObject_guid** : (uniqueidentifier)
  **Referenced_Depth** : (int)
  **Referencing_Depth** : (int)
  - **Referenced_guid** : (uniqueidentifier)
  - **Referencing_guid** : (uniqueidentifier)
  --
}

entity "puml-link:dhw:sqldb:reference.usp_repoobject_referencetree_insert.adoc[]" as reference.usp_RepoObject_ReferenceTree_insert << P >> {
  --
}

entity "puml-link:dhw:sqldb:repo.usp_main.adoc[]" as repo.usp_main << P >> {
  --
}

logs.usp_ExecutionLog_insert <.. reference.usp_RepoObject_ReferenceTree_insert
reference.RepoObject_ReferencedReferencing <.. reference.usp_RepoObject_ReferenceTree_insert
reference.RepoObject_ReferenceTree <.. reference.usp_RepoObject_ReferenceTree_insert
reference.usp_RepoObject_ReferenceTree_insert <.. repo.usp_main
@enduml

