@startuml
left to right direction
'top to bottom direction
hide circle
'avoide "." issues:
set namespaceSeparator none


skinparam class {
  BackgroundColor White
  BackgroundColor<<FN>> Yellow
  BackgroundColor<<FS>> Yellow
  BackgroundColor<<FT>> LightGray
  BackgroundColor<<IF>> Yellow
  BackgroundColor<<IS>> Yellow
  BackgroundColor<<P>> Aqua
  BackgroundColor<<PC>> Aqua
  BackgroundColor<<SN>> Yellow
  BackgroundColor<<SO>> SlateBlue
  BackgroundColor<<TF>> LightGray
  BackgroundColor<<TR>> Tomato
  BackgroundColor<<U>> White
  BackgroundColor<<V>> WhiteSmoke
  BackgroundColor<<X>> Aqua
  BackgroundColor<<external>> AliceBlue
}


entity "puml-link:dhw:sqldb:reference.ftv_repoobject_referencetree_referenced.adoc[]" as reference.ftv_RepoObject_ReferenceTree_referenced << IF >> {
  --
}

entity "puml-link:dhw:sqldb:reference.repoobject_referencetree_referenced.adoc[]" as reference.RepoObject_ReferenceTree_referenced << V >> {
  **RepoObject_guid** : (uniqueidentifier)
  **Referenced_Depth** : (int)
  **Referencing_Depth** : (int)
  **Referenced_guid** : (uniqueidentifier)
  **Referencing_guid** : (uniqueidentifier)
  --
}

entity "puml-link:dhw:sqldb:repo.repoobject_gross.adoc[]" as repo.RepoObject_gross << V >> {
  --
}

reference.ftv_RepoObject_ReferenceTree_referenced <.. reference.RepoObject_ReferenceTree_referenced
repo.RepoObject_gross <.. reference.RepoObject_ReferenceTree_referencedfooter The diagram is interactive and contains links.
@enduml

