@startuml
left to right direction
'top to bottom direction
hide circle
'avoide "." issues:
set namespaceSeparator none


skinparam class {
  BackgroundColor White
  BackgroundColor<<FN>> Yellow
  BackgroundColor<<FS>> Yellow
  BackgroundColor<<FT>> LightGray
  BackgroundColor<<IF>> Yellow
  BackgroundColor<<IS>> Yellow
  BackgroundColor<<P>> Aqua
  BackgroundColor<<PC>> Aqua
  BackgroundColor<<SN>> Yellow
  BackgroundColor<<SO>> SlateBlue
  BackgroundColor<<TF>> LightGray
  BackgroundColor<<TR>> Tomato
  BackgroundColor<<U>> White
  BackgroundColor<<V>> WhiteSmoke
  BackgroundColor<<X>> Aqua
  BackgroundColor<<external>> AliceBlue
}


entity "puml-link:dhw:sqldb:reference.repoobjectcolumn_referencedreferencing.adoc[]" as reference.RepoObjectColumn_ReferencedReferencing << V >> {
  --
}

entity "puml-link:dhw:sqldb:reference.repoobjectcolumn_referencinglist.adoc[]" as reference.RepoObjectColumn_ReferencingList << V >> {
  --
}

entity "puml-link:dhw:sqldb:repo.repoobjectcolumn_gross2.adoc[]" as repo.RepoObjectColumn_gross2 << V >> {
  --
}

reference.RepoObjectColumn_ReferencedReferencing <.. reference.RepoObjectColumn_ReferencingList
reference.RepoObjectColumn_ReferencingList <.. repo.RepoObjectColumn_gross2
@enduml

