@startuml
left to right direction
'top to bottom direction
hide circle
'avoide "." issues:
set namespaceSeparator none


skinparam class {
  BackgroundColor White
  BackgroundColor<<FN>> Yellow
  BackgroundColor<<FS>> Yellow
  BackgroundColor<<FT>> LightGray
  BackgroundColor<<IF>> Yellow
  BackgroundColor<<IS>> Yellow
  BackgroundColor<<P>> Aqua
  BackgroundColor<<PC>> Aqua
  BackgroundColor<<SN>> Yellow
  BackgroundColor<<SO>> SlateBlue
  BackgroundColor<<TF>> LightGray
  BackgroundColor<<TR>> Tomato
  BackgroundColor<<U>> White
  BackgroundColor<<V>> WhiteSmoke
  BackgroundColor<<X>> Aqua
  BackgroundColor<<external>> AliceBlue
}


entity "puml-link:dhw:sqldb:reference.ftv_repoobjectcolumn_referencetree.adoc[]" as reference.ftv_RepoObjectColumn_ReferenceTree << IF >> {
  --
}

entity "puml-link:dhw:sqldb:reference.repoobjectcolumn_referencedreferencing.adoc[]" as reference.RepoObjectColumn_ReferencedReferencing << V >> {
  --
}

entity "puml-link:dhw:sqldb:reference.repoobjectcolumn_referencetree.adoc[]" as reference.RepoObjectColumn_ReferenceTree << V >> {
  --
}

reference.ftv_RepoObjectColumn_ReferenceTree <.. reference.RepoObjectColumn_ReferenceTree
reference.RepoObjectColumn_ReferencedReferencing <.. reference.ftv_RepoObjectColumn_ReferenceTree
@enduml

