@startuml
left to right direction
'top to bottom direction
hide circle
'avoide "." issues:
set namespaceSeparator none


skinparam class {
  BackgroundColor White
  BackgroundColor<<FN>> Yellow
  BackgroundColor<<FS>> Yellow
  BackgroundColor<<FT>> LightGray
  BackgroundColor<<IF>> Yellow
  BackgroundColor<<IS>> Yellow
  BackgroundColor<<P>> Aqua
  BackgroundColor<<PC>> Aqua
  BackgroundColor<<SN>> Yellow
  BackgroundColor<<SO>> SlateBlue
  BackgroundColor<<TF>> LightGray
  BackgroundColor<<TR>> Tomato
  BackgroundColor<<U>> White
  BackgroundColor<<V>> WhiteSmoke
  BackgroundColor<<X>> Aqua
  BackgroundColor<<external>> AliceBlue
}


entity "puml-link:dhw:sqldb:repo.ForeignKey_ssas_Indexes_old.adoc[]" as repo.ForeignKey_ssas_Indexes_old << V >> {
  --
}

entity "puml-link:dhw:sqldb:repo.ForeignKey_ssas_IndexPattern_old.adoc[]" as repo.ForeignKey_ssas_IndexPattern_old << V >> {
  --
}

entity "puml-link:dhw:sqldb:repo.Index_ssas_T.adoc[]" as repo.Index_ssas_T << U >> {
  - **databasename** : (nvarchar(128))
  **index_name** : (nvarchar(450))
  --
}

repo.ForeignKey_ssas_IndexPattern_old <.. repo.ForeignKey_ssas_Indexes_old
repo.Index_ssas_T <.. repo.ForeignKey_ssas_Indexes_old
@enduml

