@startuml
left to right direction
'top to bottom direction
hide circle
'avoide "." issues:
set namespaceSeparator none


skinparam class {
  BackgroundColor White
  BackgroundColor<<FN>> Yellow
  BackgroundColor<<FS>> Yellow
  BackgroundColor<<FT>> LightGray
  BackgroundColor<<IF>> Yellow
  BackgroundColor<<IS>> Yellow
  BackgroundColor<<P>> Aqua
  BackgroundColor<<PC>> Aqua
  BackgroundColor<<SN>> Yellow
  BackgroundColor<<SO>> SlateBlue
  BackgroundColor<<TF>> LightGray
  BackgroundColor<<TR>> Tomato
  BackgroundColor<<U>> White
  BackgroundColor<<V>> WhiteSmoke
  BackgroundColor<<X>> Aqua
  BackgroundColor<<external>> AliceBlue
}


entity "puml-link:dhw:sqldb:repo.repoobject_columnlist.adoc[]" as repo.RepoObject_ColumnList << V >> {
  --
}

entity "puml-link:dhw:sqldb:repo.repoobject_gross2.adoc[]" as repo.RepoObject_gross2 << V >> {
  --
}

entity "puml-link:dhw:sqldb:repo.repoobject_sat2.adoc[]" as repo.RepoObject_sat2 << V >> {
  - **RepoObject_guid** : (uniqueidentifier)
  --
}

entity "puml-link:dhw:sqldb:repo.repoobject_sqlcreatetable.adoc[]" as repo.RepoObject_SqlCreateTable << V >> {
  - **RepoObject_guid** : (uniqueidentifier)
  --
}

entity "puml-link:dhw:sqldb:repo.repoobjectcolumn_gross2.adoc[]" as repo.RepoObjectColumn_gross2 << V >> {
  --
}

repo.RepoObject_ColumnList <.. repo.RepoObject_SqlCreateTable
repo.RepoObject_ColumnList <.. repo.RepoObject_gross2
repo.RepoObject_ColumnList <.. repo.RepoObject_sat2
repo.RepoObjectColumn_gross2 <.. repo.RepoObject_ColumnListfooter The diagram is interactive and contains links.
@enduml

