@startuml
left to right direction
'top to bottom direction
hide circle
'avoide "." issues:
set namespaceSeparator none


skinparam class {
  BackgroundColor White
  BackgroundColor<<FN>> Yellow
  BackgroundColor<<FS>> Yellow
  BackgroundColor<<FT>> LightGray
  BackgroundColor<<IF>> Yellow
  BackgroundColor<<IS>> Yellow
  BackgroundColor<<P>> Aqua
  BackgroundColor<<PC>> Aqua
  BackgroundColor<<SN>> Yellow
  BackgroundColor<<SO>> SlateBlue
  BackgroundColor<<TF>> LightGray
  BackgroundColor<<TR>> Tomato
  BackgroundColor<<U>> White
  BackgroundColor<<V>> WhiteSmoke
  BackgroundColor<<X>> Aqua
  BackgroundColor<<external>> AliceBlue
}


entity "puml-link:dhw:sqldb:repo.foreignkey_indexes.adoc[]" as repo.ForeignKey_Indexes << V >> {
  --
}

entity "puml-link:dhw:sqldb:repo.foreignkey_indexpattern.adoc[]" as repo.ForeignKey_IndexPattern << V >> {
  - **constraint_object_id** : (int)
  **ForeignKey_guid** : (uniqueidentifier)
  --
}

entity "puml-link:dhw:sqldb:repo_sys.foreignkey.adoc[]" as repo_sys.ForeignKey << V >> {
  --
}

entity "puml-link:dhw:sqldb:repo_sys.foreignkeycolumn.adoc[]" as repo_sys.ForeignKeyColumn << V >> {
  --
}

repo.ForeignKey_IndexPattern <.. repo.ForeignKey_Indexes
repo_sys.ForeignKey <.. repo.ForeignKey_IndexPattern
repo_sys.ForeignKeyColumn <.. repo.ForeignKey_IndexPatternfooter The diagram is interactive and contains links.
@enduml

