@startuml
left to right direction
'top to bottom direction
hide circle
'avoide "." issues:
set namespaceSeparator none


skinparam class {
  BackgroundColor White
  BackgroundColor<<FN>> Yellow
  BackgroundColor<<FS>> Yellow
  BackgroundColor<<FT>> LightGray
  BackgroundColor<<IF>> Yellow
  BackgroundColor<<IS>> Yellow
  BackgroundColor<<P>> Aqua
  BackgroundColor<<PC>> Aqua
  BackgroundColor<<SN>> Yellow
  BackgroundColor<<SO>> SlateBlue
  BackgroundColor<<TF>> LightGray
  BackgroundColor<<TR>> Tomato
  BackgroundColor<<U>> White
  BackgroundColor<<V>> WhiteSmoke
  BackgroundColor<<X>> Aqua
  BackgroundColor<<external>> AliceBlue
}


entity "puml-link:dhw:sqldb:reference.repoobject_reference_persistence.adoc[]" as reference.RepoObject_reference_persistence << V >> {
  **referenced_RepoObject_guid** : (uniqueidentifier)
  - **referencing_RepoObject_guid** : (uniqueidentifier)
  --
}

entity "puml-link:dhw:sqldb:reference.repoobject_reference_t_bidirectional.adoc[]" as reference.RepoObject_reference_T_bidirectional << V >> {
  --
}

entity "puml-link:dhw:sqldb:reference.repoobjectcolumn_reference_persistence.adoc[]" as reference.RepoObjectColumn_reference_Persistence << V >> {
  **referencing_id** : (int)
  **referencing_minor_id** : (int)
  **referenced_id** : (int)
  **referenced_minor_id** : (int)
  --
}

entity "puml-link:dhw:sqldb:repo.repoobject__after_delete.adoc[]" as repo.RepoObject__after_delete << TR >> {
  --
}

entity "puml-link:dhw:sqldb:repo.repoobject_gross.adoc[]" as repo.RepoObject_gross << V >> {
  --
}

entity "puml-link:dhw:sqldb:repo.repoobject_persistence.adoc[]" as repo.RepoObject_persistence << U >> {
  - **target_RepoObject_guid** : (uniqueidentifier)
  --
}

entity "puml-link:dhw:sqldb:repo.repoobject_persistence_column.adoc[]" as repo.RepoObject_persistence_column << V >> {
  - **target_RepoObject_guid** : (uniqueidentifier)
  **RepoObjectColumn_guid_s** : (uniqueidentifier)
  --
}

entity "puml-link:dhw:sqldb:repo.repoobject_persistence_forupdate.adoc[]" as repo.RepoObject_persistence_ForUpdate << V >> {
  --
}

entity "puml-link:dhw:sqldb:repo.repoobject_persistence_objectnames.adoc[]" as repo.RepoObject_persistence_ObjectNames << V >> {
  --
}

entity "puml-link:dhw:sqldb:repo.repoobjectcolumn_gross.adoc[]" as repo.RepoObjectColumn_gross << V >> {
  --
}

entity "puml-link:dhw:sqldb:repo.repoobjectcolumn_histvalidcolums_setpoint.adoc[]" as repo.RepoObjectColumn_HistValidColums_setpoint << V >> {
  - **RepoObject_guid** : (uniqueidentifier)
  **RepoObjectColumn_name** : (sysname)
  --
}

entity "puml-link:dhw:sqldb:repo.usp_index_finish.adoc[]" as repo.usp_Index_finish << P >> {
  --
}

entity "puml-link:dhw:sqldb:repo.usp_main.adoc[]" as repo.usp_main << P >> {
  --
}

entity "puml-link:dhw:sqldb:repo.usp_persistence_set.adoc[]" as repo.usp_persistence_set << P >> {
  --
}

entity "puml-link:dhw:sqldb:repo.usp_sync_guid_repoobject.adoc[]" as repo.usp_sync_guid_RepoObject << P >> {
  --
}

entity "puml-link:dhw:sqldb:repo.usp_sync_guid_repoobjectcolumn.adoc[]" as repo.usp_sync_guid_RepoObjectColumn << P >> {
  --
}

repo.RepoObject_persistence <.. reference.RepoObject_reference_persistence
repo.RepoObject_persistence <.. repo.RepoObjectColumn_HistValidColums_setpoint
repo.RepoObject_persistence <.. repo.RepoObjectColumn_gross
repo.RepoObject_persistence <.. repo.RepoObject_gross
repo.RepoObject_persistence <.. repo.usp_sync_guid_RepoObject
repo.RepoObject_persistence <.. repo.RepoObject__after_delete
repo.RepoObject_persistence <.. repo.RepoObject_persistence_ObjectNames
repo.RepoObject_persistence <.. repo.RepoObject_persistence_column
repo.RepoObject_persistence <.. reference.RepoObjectColumn_reference_Persistence
repo.RepoObject_persistence <.. repo.usp_sync_guid_RepoObjectColumn
repo.RepoObject_persistence <.. repo.usp_persistence_set
repo.RepoObject_persistence <.. repo.usp_main
repo.RepoObject_persistence <.. repo.RepoObject_persistence_ForUpdate
repo.RepoObject_persistence <.. repo.usp_Index_finish
repo.RepoObject_persistence <.. reference.RepoObject_reference_T_bidirectional
@enduml

