@startuml
left to right direction
'top to bottom direction
hide circle
'avoide "." issues:
set namespaceSeparator none


skinparam class {
  BackgroundColor White
  BackgroundColor<<FN>> Yellow
  BackgroundColor<<FS>> Yellow
  BackgroundColor<<FT>> LightGray
  BackgroundColor<<IF>> Yellow
  BackgroundColor<<IS>> Yellow
  BackgroundColor<<P>> Aqua
  BackgroundColor<<PC>> Aqua
  BackgroundColor<<SN>> Yellow
  BackgroundColor<<SO>> SlateBlue
  BackgroundColor<<TF>> LightGray
  BackgroundColor<<TR>> Tomato
  BackgroundColor<<U>> White
  BackgroundColor<<V>> WhiteSmoke
  BackgroundColor<<X>> Aqua
  BackgroundColor<<external>> AliceBlue
}


entity "puml-link:dhw:sqldb:config.ftv_dwh_database.adoc[]" as config.ftv_dwh_database << IF >> {
  --
}

entity "puml-link:dhw:sqldb:repo.syscolumn_repoobjectcolumn_via_guid.adoc[]" as repo.SysColumn_RepoObjectColumn_via_guid << V >> {
  --
}

entity "puml-link:dhw:sqldb:repo.syscolumn_repoobjectcolumn_via_name.adoc[]" as repo.SysColumn_RepoObjectColumn_via_name << V >> {
  --
}

entity "puml-link:dhw:sqldb:repo.usp_sync_guid_repoobjectcolumn.adoc[]" as repo.usp_sync_guid_RepoObjectColumn << P >> {
  --
}

entity "puml-link:dhw:sqldb:repo_sys.extendedproperties.adoc[]" as repo_sys.ExtendedProperties << V >> {
  --
}

entity "puml-link:dhw:sqldb:repo_sys.foreignkeycolumn.adoc[]" as repo_sys.ForeignKeyColumn << V >> {
  --
}

entity "puml-link:dhw:sqldb:repo_sys.syscolumn.adoc[]" as repo_sys.SysColumn << V >> {
  --
}

entity "puml-link:dhw:sqldb:repo_sys.sysobject.adoc[]" as repo_sys.SysObject << V >> {
  --
}

entity "puml-link:dhw:sqldb:sys_dwh.columns.adoc[]" as sys_dwh.columns << SN >> {
  --
}

entity "puml-link:dhw:sqldb:sys_dwh.computed_columns.adoc[]" as sys_dwh.computed_columns << SN >> {
  --
}

entity "puml-link:dhw:sqldb:sys_dwh.default_constraints.adoc[]" as sys_dwh.default_constraints << SN >> {
  --
}

entity "puml-link:dhw:sqldb:sys_dwh.identity_columns.adoc[]" as sys_dwh.identity_columns << SN >> {
  --
}

entity "puml-link:dhw:sqldb:sys_dwh.types.adoc[]" as sys_dwh.types << SN >> {
  --
}

config.ftv_dwh_database <.. repo_sys.SysColumn
repo_sys.ExtendedProperties <.. repo_sys.SysColumn
repo_sys.SysColumn <.. repo.SysColumn_RepoObjectColumn_via_guid
repo_sys.SysColumn <.. repo.SysColumn_RepoObjectColumn_via_name
repo_sys.SysColumn <.. repo.usp_sync_guid_RepoObjectColumn
repo_sys.SysColumn <.. repo_sys.ForeignKeyColumn
repo_sys.SysObject <.. repo_sys.SysColumn
sys_dwh.columns <.. repo_sys.SysColumn
sys_dwh.computed_columns <.. repo_sys.SysColumn
sys_dwh.default_constraints <.. repo_sys.SysColumn
sys_dwh.identity_columns <.. repo_sys.SysColumn
sys_dwh.types <.. repo_sys.SysColumnfooter The diagram is interactive and contains links.
@enduml

