@startuml
left to right direction
'top to bottom direction
hide circle
'avoide "." issues:
set namespaceSeparator none


skinparam class {
  BackgroundColor White
  BackgroundColor<<FN>> Yellow
  BackgroundColor<<FS>> Yellow
  BackgroundColor<<FT>> LightGray
  BackgroundColor<<IF>> Yellow
  BackgroundColor<<IS>> Yellow
  BackgroundColor<<P>> Aqua
  BackgroundColor<<PC>> Aqua
  BackgroundColor<<SN>> Yellow
  BackgroundColor<<SO>> SlateBlue
  BackgroundColor<<TF>> LightGray
  BackgroundColor<<TR>> Tomato
  BackgroundColor<<U>> White
  BackgroundColor<<V>> WhiteSmoke
  BackgroundColor<<X>> Aqua
  BackgroundColor<<external>> AliceBlue
}


entity "puml-link:dhw:sqldb:config.fs_get_parameter_value.adoc[]" as config.fs_get_parameter_value << FN >> {
  --
}

entity "puml-link:dhw:sqldb:logs.usp_executionlog_insert.adoc[]" as logs.usp_ExecutionLog_insert << P >> {
  --
}

entity "puml-link:dhw:sqldb:property.usp_external_property_import.adoc[]" as property.usp_external_property_import << P >> {
  --
}

entity "puml-link:dhw:sqldb:property.usp_repoobject_inheritance.adoc[]" as property.usp_RepoObject_Inheritance << P >> {
  --
}

entity "puml-link:dhw:sqldb:property.usp_repoobjectcolumn_inheritance.adoc[]" as property.usp_RepoObjectColumn_Inheritance << P >> {
  --
}

entity "puml-link:dhw:sqldb:property.usp_repoobjectproperty_collect.adoc[]" as property.usp_RepoObjectProperty_collect << P >> {
  --
}

entity "puml-link:dhw:sqldb:reference.repoobject_reference_persistence.adoc[]" as reference.RepoObject_reference_persistence << V >> {
  **referenced_RepoObject_guid** : (uniqueidentifier)
  - **referencing_RepoObject_guid** : (uniqueidentifier)
  --
}

entity "puml-link:dhw:sqldb:reference.repoobject_reference_persistence_target_as_source.adoc[]" as reference.RepoObject_reference_persistence_target_as_source << V >> {
  --
}

entity "puml-link:dhw:sqldb:reference.repoobject_reference_t.adoc[]" as reference.RepoObject_reference_T << U >> {
  **referenced_RepoObject_guid** : (uniqueidentifier)
  **referencing_RepoObject_guid** : (uniqueidentifier)
  --
}

entity "puml-link:dhw:sqldb:reference.usp_additional_reference.adoc[]" as reference.usp_additional_Reference << P >> {
  --
}

entity "puml-link:dhw:sqldb:reference.usp_persist_additional_reference_from_properties_tgt.adoc[]" as reference.usp_PERSIST_additional_Reference_from_properties_tgt << P >> {
  --
}

entity "puml-link:dhw:sqldb:reference.usp_persist_additional_reference_from_ssas_tgt.adoc[]" as reference.usp_PERSIST_additional_Reference_from_ssas_tgt << P >> {
  --
}

entity "puml-link:dhw:sqldb:reference.usp_persist_additional_reference_wo_columns_from_properties_tgt.adoc[]" as reference.usp_PERSIST_additional_Reference_wo_columns_from_properties_tgt << P >> {
  --
}

entity "puml-link:dhw:sqldb:reference.usp_persist_repoobject_reference_t.adoc[]" as reference.usp_PERSIST_RepoObject_reference_T << P >> {
  --
}

entity "puml-link:dhw:sqldb:reference.usp_persist_repoobjectcolumn_reference_t.adoc[]" as reference.usp_PERSIST_RepoObjectColumn_reference_T << P >> {
  --
}

entity "puml-link:dhw:sqldb:reference.usp_repoobject_referencetree_insert.adoc[]" as reference.usp_RepoObject_ReferenceTree_insert << P >> {
  --
}

entity "puml-link:dhw:sqldb:reference.usp_repoobject_update_sysobjectqueryplan.adoc[]" as reference.usp_RepoObject_update_SysObjectQueryPlan << P >> {
  --
}

entity "puml-link:dhw:sqldb:reference.usp_repoobjectsource_firstresultset.adoc[]" as reference.usp_RepoObjectSource_FirstResultSet << P >> {
  --
}

entity "puml-link:dhw:sqldb:reference.usp_repoobjectsource_queryplan.adoc[]" as reference.usp_RepoObjectSource_QueryPlan << P >> {
  --
}

entity "puml-link:dhw:sqldb:reference.usp_update_referencing_count.adoc[]" as reference.usp_update_Referencing_Count << P >> {
  --
}

entity "puml-link:dhw:sqldb:repo.repoobject.adoc[]" as repo.RepoObject << U >> {
  - **RepoObject_guid** : (uniqueidentifier)
  --
}

entity "puml-link:dhw:sqldb:repo.repoobject_persistence.adoc[]" as repo.RepoObject_persistence << U >> {
  - **target_RepoObject_guid** : (uniqueidentifier)
  --
}

entity "puml-link:dhw:sqldb:repo.usp_index_foreignkey.adoc[]" as repo.usp_Index_ForeignKey << P >> {
  --
}

entity "puml-link:dhw:sqldb:repo.usp_index_inheritance.adoc[]" as repo.usp_index_inheritance << P >> {
  --
}

entity "puml-link:dhw:sqldb:repo.usp_main.adoc[]" as repo.usp_main << P >> {
  --
}

entity "puml-link:dhw:sqldb:repo.usp_persist_repoobject_sat2_t.adoc[]" as repo.usp_PERSIST_RepoObject_sat2_T << P >> {
  --
}

entity "puml-link:dhw:sqldb:repo.usp_repoobjectcolumn_update_repoobjectcolumn_column_id.adoc[]" as repo.usp_RepoObjectColumn_update_RepoObjectColumn_column_id << P >> {
  --
}

entity "puml-link:dhw:sqldb:repo.usp_sync_guid.adoc[]" as repo.usp_sync_guid << P >> {
  --
}

entity "puml-link:dhw:sqldb:repo.usp_sync_guid_ssas.adoc[]" as repo.usp_sync_guid_ssas << P >> {
  --
}

entity "puml-link:dhw:sqldb:ssas.usp_persist_repoobjectcolumn_translation_t.adoc[]" as ssas.usp_PERSIST_RepoObjectColumn_translation_T << P >> {
  --
}

entity "puml-link:dhw:sqldb:uspgenerator.usp_generatorusp_insert_update_persistence.adoc[]" as uspgenerator.usp_GeneratorUsp_insert_update_persistence << P >> {
  --
}

config.fs_get_parameter_value <.. repo.usp_main
logs.usp_ExecutionLog_insert <.. repo.usp_main
property.usp_external_property_import <.. repo.usp_main
property.usp_RepoObject_Inheritance <.. repo.usp_main
property.usp_RepoObjectColumn_Inheritance <.. repo.usp_main
property.usp_RepoObjectProperty_collect <.. repo.usp_main
reference.RepoObject_reference_persistence <.. repo.usp_main
reference.RepoObject_reference_persistence_target_as_source <.. repo.usp_main
reference.RepoObject_reference_T <.. repo.usp_main
reference.usp_additional_Reference <.. repo.usp_main
reference.usp_PERSIST_additional_Reference_from_properties_tgt <.. repo.usp_main
reference.usp_PERSIST_additional_Reference_from_ssas_tgt <.. repo.usp_main
reference.usp_PERSIST_additional_Reference_wo_columns_from_properties_tgt <.. repo.usp_main
reference.usp_PERSIST_RepoObject_reference_T <.. repo.usp_main
reference.usp_PERSIST_RepoObjectColumn_reference_T <.. repo.usp_main
reference.usp_RepoObject_ReferenceTree_insert <.. repo.usp_main
reference.usp_RepoObject_update_SysObjectQueryPlan <.. repo.usp_main
reference.usp_RepoObjectSource_FirstResultSet <.. repo.usp_main
reference.usp_RepoObjectSource_QueryPlan <.. repo.usp_main
reference.usp_update_Referencing_Count <.. repo.usp_main
repo.RepoObject <.. repo.usp_main
repo.RepoObject_persistence <.. repo.usp_main
repo.usp_Index_ForeignKey <.. repo.usp_main
repo.usp_index_inheritance <.. repo.usp_main
repo.usp_PERSIST_RepoObject_sat2_T <.. repo.usp_main
repo.usp_RepoObjectColumn_update_RepoObjectColumn_column_id <.. repo.usp_main
repo.usp_sync_guid <.. repo.usp_main
repo.usp_sync_guid_ssas <.. repo.usp_main
ssas.usp_PERSIST_RepoObjectColumn_translation_T <.. repo.usp_main
uspgenerator.usp_GeneratorUsp_insert_update_persistence <.. repo.usp_mainfooter The diagram is interactive and contains links.
@enduml

