@startuml
left to right direction
'top to bottom direction
hide circle
'avoide "." issues:
set namespaceSeparator none


skinparam class {
  BackgroundColor White
  BackgroundColor<<FN>> Yellow
  BackgroundColor<<FS>> Yellow
  BackgroundColor<<FT>> LightGray
  BackgroundColor<<IF>> Yellow
  BackgroundColor<<IS>> Yellow
  BackgroundColor<<P>> Aqua
  BackgroundColor<<PC>> Aqua
  BackgroundColor<<SN>> Yellow
  BackgroundColor<<SO>> SlateBlue
  BackgroundColor<<TF>> LightGray
  BackgroundColor<<TR>> Tomato
  BackgroundColor<<U>> White
  BackgroundColor<<V>> WhiteSmoke
  BackgroundColor<<X>> Aqua
  BackgroundColor<<external>> AliceBlue
}


entity "puml-link:dhw:sqldb:config.fs_dwh_database_name.adoc[]" as config.fs_dwh_database_name << FN >> {
  --
}

entity "puml-link:dhw:sqldb:repo_sys.extendedproperties_parameterforaddupdatedrop.adoc[]" as repo_sys.ExtendedProperties_ParameterForAddUpdateDrop << V >> {
  --
}

entity "puml-link:dhw:sqldb:repo_sys.usp_dropextendedproperty_level_1.adoc[]" as repo_sys.usp_dropextendedproperty_level_1 << P >> {
  --
}

config.fs_dwh_database_name <.. repo_sys.usp_dropextendedproperty_level_1
repo_sys.ExtendedProperties_ParameterForAddUpdateDrop <.. repo_sys.usp_dropextendedproperty_level_1footer The diagram is interactive and contains links.
@enduml

