@startuml
left to right direction
'top to bottom direction
hide circle
'avoide "." issues:
set namespaceSeparator none


skinparam class {
  BackgroundColor White
  BackgroundColor<<FN>> Yellow
  BackgroundColor<<FS>> Yellow
  BackgroundColor<<FT>> LightGray
  BackgroundColor<<IF>> Yellow
  BackgroundColor<<IS>> Yellow
  BackgroundColor<<P>> Aqua
  BackgroundColor<<PC>> Aqua
  BackgroundColor<<SN>> Yellow
  BackgroundColor<<SO>> SlateBlue
  BackgroundColor<<TF>> LightGray
  BackgroundColor<<TR>> Tomato
  BackgroundColor<<U>> White
  BackgroundColor<<V>> WhiteSmoke
  BackgroundColor<<X>> Aqua
  BackgroundColor<<external>> AliceBlue
}


entity "puml-link:dhw:sqldb:repo.repoobjectcolumn_ssas_src.adoc[]" as repo.RepoObjectColumn_SSAS_src << V >> {
  - **RepoObjectColumn_guid** : (uniqueidentifier)
  --
}

entity "puml-link:dhw:sqldb:repo.repoobjectcolumn_ssas_tgt.adoc[]" as repo.RepoObjectColumn_SSAS_tgt << V >> {
  - **RepoObjectColumn_guid** : (uniqueidentifier)
  --
}

entity "puml-link:dhw:sqldb:repo.usp_persist_repoobjectcolumn_ssas_tgt.adoc[]" as repo.usp_PERSIST_RepoObjectColumn_SSAS_tgt << P >> {
  --
}

entity "puml-link:dhw:sqldb:ssas.model_json_311_tables_columns_t.adoc[]" as ssas.model_json_311_tables_columns_T << U >> {
  - **databasename** : (nvarchar(128))
  - **tables_name** : (nvarchar(128))
  **tables_columns_name** : (nvarchar(128))
  --
}

repo.RepoObjectColumn_SSAS_src <.. repo.RepoObjectColumn_SSAS_tgt
repo.RepoObjectColumn_SSAS_src <.. repo.usp_PERSIST_RepoObjectColumn_SSAS_tgt
ssas.model_json_311_tables_columns_T <.. repo.RepoObjectColumn_SSAS_srcfooter The diagram is interactive and contains links.
@enduml

