@startuml
left to right direction
'top to bottom direction
hide circle
'avoide "." issues:
set namespaceSeparator none


skinparam class {
  BackgroundColor White
  BackgroundColor<<FN>> Yellow
  BackgroundColor<<FS>> Yellow
  BackgroundColor<<FT>> LightGray
  BackgroundColor<<IF>> Yellow
  BackgroundColor<<IS>> Yellow
  BackgroundColor<<P>> Aqua
  BackgroundColor<<PC>> Aqua
  BackgroundColor<<SN>> Yellow
  BackgroundColor<<SO>> SlateBlue
  BackgroundColor<<TF>> LightGray
  BackgroundColor<<TR>> Tomato
  BackgroundColor<<U>> White
  BackgroundColor<<V>> WhiteSmoke
  BackgroundColor<<X>> Aqua
  BackgroundColor<<external>> AliceBlue
}


entity "puml-link:dhw:sqldb:repo.repoobject.adoc[]" as repo.RepoObject << U >> {
  - **RepoObject_guid** : (uniqueidentifier)
  --
}

entity "puml-link:dhw:sqldb:repo.repoobject_ssas_src.adoc[]" as repo.RepoObject_SSAS_src << V >> {
  - **RepoObject_guid** : (uniqueidentifier)
  --
}

entity "puml-link:dhw:sqldb:repo.repoobject_ssas_tgt.adoc[]" as repo.RepoObject_SSAS_tgt << V >> {
  - **RepoObject_guid** : (uniqueidentifier)
  --
}

entity "puml-link:dhw:sqldb:repo.repoobjectcolumn_ssas_tgt.adoc[]" as repo.RepoObjectColumn_SSAS_tgt << V >> {
  - **RepoObjectColumn_guid** : (uniqueidentifier)
  --
}

entity "puml-link:dhw:sqldb:repo.usp_persist_repoobject_ssas_tgt.adoc[]" as repo.usp_PERSIST_RepoObject_SSAS_tgt << P >> {
  --
}

repo.RepoObject <.. repo.RepoObject_SSAS_tgt
repo.RepoObject_SSAS_src <.. repo.RepoObject_SSAS_tgt
repo.RepoObject_SSAS_tgt <.. repo.usp_PERSIST_RepoObject_SSAS_tgt
repo.RepoObject_SSAS_tgt <.. repo.RepoObject
repo.RepoObject_SSAS_tgt <.. repo.RepoObjectColumn_SSAS_tgt
repo.RepoObjectColumn_SSAS_tgt <.. repo.RepoObject_SSAS_tgtfooter The diagram is interactive and contains links.
@enduml

