@startuml
left to right direction
'top to bottom direction
hide circle
'avoide "." issues:
set namespaceSeparator none


skinparam class {
  BackgroundColor White
  BackgroundColor<<FN>> Yellow
  BackgroundColor<<FS>> Yellow
  BackgroundColor<<FT>> LightGray
  BackgroundColor<<IF>> Yellow
  BackgroundColor<<IS>> Yellow
  BackgroundColor<<P>> Aqua
  BackgroundColor<<PC>> Aqua
  BackgroundColor<<SN>> Yellow
  BackgroundColor<<SO>> SlateBlue
  BackgroundColor<<TF>> LightGray
  BackgroundColor<<TR>> Tomato
  BackgroundColor<<U>> White
  BackgroundColor<<V>> WhiteSmoke
  BackgroundColor<<X>> Aqua
  BackgroundColor<<external>> AliceBlue
}


entity "puml-link:dhw:sqldb:repo.index_ssas_indexpatterncolumnguid.adoc[]" as repo.Index_ssas_IndexPatternColumnGuid << V >> {
  --
}

entity "puml-link:dhw:sqldb:repo.indexcolumn_ssas.adoc[]" as repo.IndexColumn_ssas << V >> {
  - **index_guid** : (uniqueidentifier)
  - **index_column_id** : (int)
  --
}

entity "puml-link:dhw:sqldb:repo.indexcolumn_ssas_gross.adoc[]" as repo.IndexColumn_ssas_gross << V >> {
  --
}

entity "puml-link:dhw:sqldb:repo.indexcolumn_ssas_t.adoc[]" as repo.IndexColumn_ssas_T << U >> {
  - **index_guid** : (uniqueidentifier)
  - **index_column_id** : (int)
  --
}

entity "puml-link:dhw:sqldb:repo.usp_persist_indexcolumn_ssas_t.adoc[]" as repo.usp_PERSIST_IndexColumn_ssas_T << P >> {
  --
}

repo.IndexColumn_ssas <.. repo.IndexColumn_ssas_T
repo.IndexColumn_ssas_T <.. repo.Index_ssas_IndexPatternColumnGuid
repo.IndexColumn_ssas_T <.. repo.usp_PERSIST_IndexColumn_ssas_T
repo.IndexColumn_ssas_T <.. repo.IndexColumn_ssas_gross
@enduml

