@startuml
left to right direction
'top to bottom direction
hide circle
'avoide "." issues:
set namespaceSeparator none


skinparam class {
  BackgroundColor White
  BackgroundColor<<FN>> Yellow
  BackgroundColor<<FS>> Yellow
  BackgroundColor<<FT>> LightGray
  BackgroundColor<<IF>> Yellow
  BackgroundColor<<IS>> Yellow
  BackgroundColor<<P>> Aqua
  BackgroundColor<<PC>> Aqua
  BackgroundColor<<SN>> Yellow
  BackgroundColor<<SO>> SlateBlue
  BackgroundColor<<TF>> LightGray
  BackgroundColor<<TR>> Tomato
  BackgroundColor<<U>> White
  BackgroundColor<<V>> WhiteSmoke
  BackgroundColor<<X>> Aqua
  BackgroundColor<<external>> AliceBlue
}


entity "puml-link:dhw:sqldb:repo.foreignkey_indexes.adoc[]" as repo.ForeignKey_Indexes << V >> {
  --
}

entity "puml-link:dhw:sqldb:repo.foreignkey_indexes_union.adoc[]" as repo.ForeignKey_Indexes_union << V >> {
  **ForeignKey_guid** : (uniqueidentifier)
  --
}

entity "puml-link:dhw:sqldb:repo.foreignkey_indexpattern.adoc[]" as repo.ForeignKey_IndexPattern << V >> {
  - **constraint_object_id** : (int)
  **ForeignKey_guid** : (uniqueidentifier)
  --
}

entity "puml-link:dhw:sqldb:repo.index_gross.adoc[]" as repo.Index_gross << V >> {
  --
}

entity "puml-link:dhw:sqldb:repo.usp_index_foreignkey.adoc[]" as repo.usp_Index_ForeignKey << P >> {
  --
}

repo.ForeignKey_Indexes <.. repo.ForeignKey_Indexes_union
repo.ForeignKey_Indexes <.. repo.usp_Index_ForeignKey
repo.ForeignKey_IndexPattern <.. repo.ForeignKey_Indexes
repo.Index_gross <.. repo.ForeignKey_Indexes
@enduml

