@startuml
left to right direction
'top to bottom direction
hide circle
'avoide "." issues:
set namespaceSeparator none


skinparam class {
  BackgroundColor White
  BackgroundColor<<FN>> Yellow
  BackgroundColor<<FS>> Yellow
  BackgroundColor<<FT>> LightGray
  BackgroundColor<<IF>> Yellow
  BackgroundColor<<IS>> Yellow
  BackgroundColor<<P>> Aqua
  BackgroundColor<<PC>> Aqua
  BackgroundColor<<SN>> Yellow
  BackgroundColor<<SO>> SlateBlue
  BackgroundColor<<TF>> LightGray
  BackgroundColor<<TR>> Tomato
  BackgroundColor<<U>> White
  BackgroundColor<<V>> WhiteSmoke
  BackgroundColor<<X>> Aqua
  BackgroundColor<<external>> AliceBlue
}


entity "puml-link:dhw:sqldb:repo.index_unique_indexpatterncolumnguid.adoc[]" as repo.Index_unique_IndexPatternColumnGuid << V >> {
  --
}

entity "puml-link:dhw:sqldb:repo.indexcolumn_union.adoc[]" as repo.IndexColumn_union << V >> {
  **index_guid** : (uniqueidentifier)
  - **index_column_id** : (int)
  --
}

entity "puml-link:dhw:sqldb:repo.syscolumn_repoobjectcolumn_via_name.adoc[]" as repo.SysColumn_RepoObjectColumn_via_name << V >> {
  --
}

entity "puml-link:dhw:sqldb:repo.sysobject_repoobject_via_name.adoc[]" as repo.SysObject_RepoObject_via_name << V >> {
  --
}

entity "puml-link:dhw:sqldb:repo_sys.indexcolumn_unique.adoc[]" as repo_sys.IndexColumn_unique << V >> {
  --
}

entity "puml-link:dhw:sqldb:sys_dwh.index_columns.adoc[]" as sys_dwh.index_columns << SN >> {
  --
}

entity "puml-link:dhw:sqldb:sys_dwh.indexes.adoc[]" as sys_dwh.indexes << SN >> {
  --
}

repo.SysColumn_RepoObjectColumn_via_name <.. repo_sys.IndexColumn_unique
repo.SysObject_RepoObject_via_name <.. repo_sys.IndexColumn_unique
repo_sys.IndexColumn_unique <.. repo.IndexColumn_union
repo_sys.IndexColumn_unique <.. repo.Index_unique_IndexPatternColumnGuid
sys_dwh.index_columns <.. repo_sys.IndexColumn_unique
sys_dwh.indexes <.. repo_sys.IndexColumn_uniquefooter The diagram is interactive and contains links.
@enduml

