@startuml
left to right direction
'top to bottom direction
hide circle
'avoide "." issues:
set namespaceSeparator none


skinparam class {
  BackgroundColor White
  BackgroundColor<<FN>> Yellow
  BackgroundColor<<FS>> Yellow
  BackgroundColor<<FT>> LightGray
  BackgroundColor<<IF>> Yellow
  BackgroundColor<<IS>> Yellow
  BackgroundColor<<P>> Aqua
  BackgroundColor<<PC>> Aqua
  BackgroundColor<<SN>> Yellow
  BackgroundColor<<SO>> SlateBlue
  BackgroundColor<<TF>> LightGray
  BackgroundColor<<TR>> Tomato
  BackgroundColor<<U>> White
  BackgroundColor<<V>> WhiteSmoke
  BackgroundColor<<X>> Aqua
  BackgroundColor<<external>> AliceBlue
}


entity "puml-link:dhw:sqldb:repo.index_union.adoc[]" as repo.Index_union << V >> {
  **index_guid** : (uniqueidentifier)
  --
}

entity "puml-link:dhw:sqldb:repo.index_virtual.adoc[]" as repo.Index_virtual << U >> {
  - **index_guid** : (uniqueidentifier)
  --
}

entity "puml-link:dhw:sqldb:repo.index_virtual_indexpatterncolumnguid.adoc[]" as repo.Index_virtual_IndexPatternColumnGuid << V >> {
  --
}

entity "puml-link:dhw:sqldb:repo.indexcolumn_virtual.adoc[]" as repo.IndexColumn_virtual << U >> {
  - **index_guid** : (uniqueidentifier)
  - **index_column_id** : (int)
  --
}

entity "puml-link:dhw:sqldb:repo.usp_index_inheritance.adoc[]" as repo.usp_index_inheritance << P >> {
  --
}

repo.Index_virtual <.. repo.Index_virtual_IndexPatternColumnGuid
repo.Index_virtual_IndexPatternColumnGuid <.. repo.Index_union
repo.Index_virtual_IndexPatternColumnGuid <.. repo.usp_index_inheritance
repo.IndexColumn_virtual <.. repo.Index_virtual_IndexPatternColumnGuidfooter The diagram is interactive and contains links.
@enduml

