@startuml
left to right direction
'top to bottom direction
hide circle
'avoide "." issues:
set namespaceSeparator none


skinparam class {
  BackgroundColor White
  BackgroundColor<<FN>> Yellow
  BackgroundColor<<FS>> Yellow
  BackgroundColor<<FT>> LightGray
  BackgroundColor<<IF>> Yellow
  BackgroundColor<<IS>> Yellow
  BackgroundColor<<P>> Aqua
  BackgroundColor<<PC>> Aqua
  BackgroundColor<<SN>> Yellow
  BackgroundColor<<SO>> SlateBlue
  BackgroundColor<<TF>> LightGray
  BackgroundColor<<TR>> Tomato
  BackgroundColor<<U>> White
  BackgroundColor<<V>> WhiteSmoke
  BackgroundColor<<X>> Aqua
  BackgroundColor<<external>> AliceBlue
}


entity "puml-link:dhw:sqldb:repo.index_referencing_indexpatterncolumnguid.adoc[]" as repo.Index_referencing_IndexPatternColumnGuid << V >> {
  **source_index_guid** : (uniqueidentifier)
  **referencing_RepoObject_guid** : (uniqueidentifier)
  --
}

entity "puml-link:dhw:sqldb:repo.indexcolumn_referencedreferencing_hasfullcolumnsinreferencing_t.adoc[]" as repo.IndexColumn_ReferencedReferencing_HasFullColumnsInReferencing_T << U >> {
  **index_guid** : (uniqueidentifier)
  - **index_column_id** : (int)
  **RowNumberInReferencing** : (bigint)
  --
}

entity "puml-link:dhw:sqldb:repo.indexreferencedreferencing.adoc[]" as repo.IndexReferencedReferencing << V >> {
  --
}

entity "puml-link:dhw:sqldb:repo.indexreferencedreferencing_hasfullcolumnsinreferencing.adoc[]" as repo.IndexReferencedReferencing_HasFullColumnsInReferencing << V >> {
  --
}

entity "puml-link:dhw:sqldb:repo.usp_index_inheritance.adoc[]" as repo.usp_index_inheritance << P >> {
  --
}

repo.Index_referencing_IndexPatternColumnGuid <.. repo.IndexReferencedReferencing_HasFullColumnsInReferencing
repo.IndexColumn_ReferencedReferencing_HasFullColumnsInReferencing_T <.. repo.IndexReferencedReferencing_HasFullColumnsInReferencing
repo.IndexReferencedReferencing <.. repo.IndexReferencedReferencing_HasFullColumnsInReferencing
repo.IndexReferencedReferencing_HasFullColumnsInReferencing <.. repo.usp_index_inheritancefooter The diagram is interactive and contains links.
@enduml

