@startuml
left to right direction
'top to bottom direction
hide circle
'avoide "." issues:
set namespaceSeparator none


skinparam class {
  BackgroundColor White
  BackgroundColor<<FN>> Yellow
  BackgroundColor<<FS>> Yellow
  BackgroundColor<<FT>> LightGray
  BackgroundColor<<IF>> Yellow
  BackgroundColor<<IS>> Yellow
  BackgroundColor<<P>> Aqua
  BackgroundColor<<PC>> Aqua
  BackgroundColor<<SN>> Yellow
  BackgroundColor<<SO>> SlateBlue
  BackgroundColor<<TF>> LightGray
  BackgroundColor<<TR>> Tomato
  BackgroundColor<<U>> White
  BackgroundColor<<V>> WhiteSmoke
  BackgroundColor<<X>> Aqua
  BackgroundColor<<external>> AliceBlue
}


entity "puml-link:dhw:sqldb:repo.reposchema.adoc[]" as repo.RepoSchema << U >> {
  - **RepoSchema_guid** : (uniqueidentifier)
  --
}

entity "puml-link:dhw:sqldb:repo.sysschema_reposchema_via_guid.adoc[]" as repo.SysSchema_RepoSchema_via_guid << V >> {
  --
}

entity "puml-link:dhw:sqldb:repo.usp_sync_guid_reposchema.adoc[]" as repo.usp_sync_guid_RepoSchema << P >> {
  --
}

entity "puml-link:dhw:sqldb:repo_sys.sysschema.adoc[]" as repo_sys.SysSchema << V >> {
  --
}

repo.RepoSchema <.. repo.SysSchema_RepoSchema_via_guid
repo.SysSchema_RepoSchema_via_guid <.. repo.usp_sync_guid_RepoSchema
repo_sys.SysSchema <.. repo.SysSchema_RepoSchema_via_guid
@enduml

