@startuml
left to right direction
'top to bottom direction
hide circle
'avoide "." issues:
set namespaceSeparator none


skinparam class {
  BackgroundColor White
  BackgroundColor<<FN>> Yellow
  BackgroundColor<<FS>> Yellow
  BackgroundColor<<FT>> LightGray
  BackgroundColor<<IF>> Yellow
  BackgroundColor<<IS>> Yellow
  BackgroundColor<<P>> Aqua
  BackgroundColor<<PC>> Aqua
  BackgroundColor<<SN>> Yellow
  BackgroundColor<<SO>> SlateBlue
  BackgroundColor<<TF>> LightGray
  BackgroundColor<<TR>> Tomato
  BackgroundColor<<U>> White
  BackgroundColor<<V>> WhiteSmoke
  BackgroundColor<<X>> Aqua
  BackgroundColor<<external>> AliceBlue
}


entity "puml-link:dhw:sqldb:repo.index_virtual_indexpatterncolumnguid.adoc[]" as repo.Index_virtual_IndexPatternColumnGuid << V >> {
  --
}

entity "puml-link:dhw:sqldb:repo.indexcolumn_virtual.adoc[]" as repo.IndexColumn_virtual << U >> {
  - **index_guid** : (uniqueidentifier)
  - **index_column_id** : (int)
  --
}

entity "puml-link:dhw:sqldb:repo.indexcolumn_virtual_gross.adoc[]" as repo.IndexColumn_virtual_gross << V >> {
  - **index_column_id** : (int)
  --
}

entity "puml-link:dhw:sqldb:repo.usp_index_finish.adoc[]" as repo.usp_Index_finish << P >> {
  --
}

entity "puml-link:dhw:sqldb:repo.usp_index_inheritance.adoc[]" as repo.usp_index_inheritance << P >> {
  --
}

entity "puml-link:dhw:sqldb:repo.usp_index_virtual_set.adoc[]" as repo.usp_Index_virtual_set << P >> {
  --
}

entity "puml-link:dhw:sqldb:repo.usp_sync_guid_repoobjectcolumn.adoc[]" as repo.usp_sync_guid_RepoObjectColumn << P >> {
  --
}

repo.IndexColumn_virtual <.. repo.IndexColumn_virtual_gross
repo.IndexColumn_virtual <.. repo.usp_index_inheritance
repo.IndexColumn_virtual <.. repo.usp_Index_virtual_set
repo.IndexColumn_virtual <.. repo.usp_sync_guid_RepoObjectColumn
repo.IndexColumn_virtual <.. repo.Index_virtual_IndexPatternColumnGuid
repo.IndexColumn_virtual <.. repo.usp_Index_finish
@enduml

