@startuml
left to right direction
'top to bottom direction
hide circle
'avoide "." issues:
set namespaceSeparator none


skinparam class {
  BackgroundColor White
  BackgroundColor<<FN>> Yellow
  BackgroundColor<<FS>> Yellow
  BackgroundColor<<FT>> LightGray
  BackgroundColor<<IF>> Yellow
  BackgroundColor<<IS>> Yellow
  BackgroundColor<<P>> Aqua
  BackgroundColor<<PC>> Aqua
  BackgroundColor<<SN>> Yellow
  BackgroundColor<<SO>> SlateBlue
  BackgroundColor<<TF>> LightGray
  BackgroundColor<<TR>> Tomato
  BackgroundColor<<U>> White
  BackgroundColor<<V>> WhiteSmoke
  BackgroundColor<<X>> Aqua
  BackgroundColor<<external>> AliceBlue
}


entity "puml-link:dhw:sqldb:repo.repoobject_ssas_src.adoc[]" as repo.RepoObject_SSAS_src << V >> {
  - **RepoObject_guid** : (uniqueidentifier)
  --
}

entity "puml-link:dhw:sqldb:repo.repoobject_ssas_tgt.adoc[]" as repo.RepoObject_SSAS_tgt << V >> {
  - **RepoObject_guid** : (uniqueidentifier)
  --
}

entity "puml-link:dhw:sqldb:repo.reposchema.adoc[]" as repo.RepoSchema << U >> {
  - **RepoSchema_guid** : (uniqueidentifier)
  --
}

entity "puml-link:dhw:sqldb:repo.usp_persist_repoobject_ssas_tgt.adoc[]" as repo.usp_PERSIST_RepoObject_SSAS_tgt << P >> {
  --
}

entity "puml-link:dhw:sqldb:ssas.model_json_31_tables_t.adoc[]" as ssas.model_json_31_tables_T << U >> {
  - **databasename** : (nvarchar(128))
  **tables_name** : (nvarchar(128))
  --
}

repo.RepoObject_SSAS_src <.. repo.RepoObject_SSAS_tgt
repo.RepoObject_SSAS_src <.. repo.usp_PERSIST_RepoObject_SSAS_tgt
repo.RepoSchema <.. repo.RepoObject_SSAS_src
ssas.model_json_31_tables_T <.. repo.RepoObject_SSAS_srcfooter The diagram is interactive and contains links.
@enduml

