@startuml
left to right direction
'top to bottom direction
hide circle
'avoide "." issues:
set namespaceSeparator none


skinparam class {
  BackgroundColor White
  BackgroundColor<<FN>> Yellow
  BackgroundColor<<FS>> Yellow
  BackgroundColor<<FT>> LightGray
  BackgroundColor<<IF>> Yellow
  BackgroundColor<<IS>> Yellow
  BackgroundColor<<P>> Aqua
  BackgroundColor<<PC>> Aqua
  BackgroundColor<<SN>> Yellow
  BackgroundColor<<SO>> SlateBlue
  BackgroundColor<<TF>> LightGray
  BackgroundColor<<TR>> Tomato
  BackgroundColor<<U>> White
  BackgroundColor<<V>> WhiteSmoke
  BackgroundColor<<X>> Aqua
  BackgroundColor<<external>> AliceBlue
}


entity "puml-link:dhw:sqldb:logs.usp_executionlog_insert.adoc[]" as logs.usp_ExecutionLog_insert << P >> {
  --
}

entity "puml-link:dhw:sqldb:repo.index_gross.adoc[]" as repo.Index_gross << V >> {
  --
}

entity "puml-link:dhw:sqldb:repo.index_settings.adoc[]" as repo.Index_Settings << U >> {
  - **index_guid** : (uniqueidentifier)
  --
}

entity "puml-link:dhw:sqldb:repo.index_virtual.adoc[]" as repo.Index_virtual << U >> {
  - **index_guid** : (uniqueidentifier)
  --
}

entity "puml-link:dhw:sqldb:repo.indexcolumn_virtual.adoc[]" as repo.IndexColumn_virtual << U >> {
  - **index_guid** : (uniqueidentifier)
  - **index_column_id** : (int)
  --
}

entity "puml-link:dhw:sqldb:repo.repoobject.adoc[]" as repo.RepoObject << U >> {
  - **RepoObject_guid** : (uniqueidentifier)
  --
}

entity "puml-link:dhw:sqldb:repo.repoobjectcolumn.adoc[]" as repo.RepoObjectColumn << U >> {
  - **RepoObjectColumn_guid** : (uniqueidentifier)
  --
}

entity "puml-link:dhw:sqldb:repo.usp_index_foreignkey.adoc[]" as repo.usp_Index_ForeignKey << P >> {
  --
}

entity "puml-link:dhw:sqldb:repo.usp_index_virtual_set.adoc[]" as repo.usp_Index_virtual_set << P >> {
  --
}

logs.usp_ExecutionLog_insert <.. repo.usp_Index_virtual_set
repo.Index_gross <.. repo.usp_Index_virtual_set
repo.Index_Settings <.. repo.usp_Index_virtual_set
repo.Index_virtual <.. repo.usp_Index_virtual_set
repo.IndexColumn_virtual <.. repo.usp_Index_virtual_set
repo.RepoObject <.. repo.usp_Index_virtual_set
repo.RepoObjectColumn <.. repo.usp_Index_virtual_set
repo.usp_Index_virtual_set <.. repo.usp_Index_ForeignKey
@enduml

