@startuml
left to right direction
'top to bottom direction
hide circle
'avoide "." issues:
set namespaceSeparator none


skinparam class {
  BackgroundColor White
  BackgroundColor<<FN>> Yellow
  BackgroundColor<<FS>> Yellow
  BackgroundColor<<FT>> LightGray
  BackgroundColor<<IF>> Yellow
  BackgroundColor<<IS>> Yellow
  BackgroundColor<<P>> Aqua
  BackgroundColor<<PC>> Aqua
  BackgroundColor<<SN>> Yellow
  BackgroundColor<<SO>> SlateBlue
  BackgroundColor<<TF>> LightGray
  BackgroundColor<<TR>> Tomato
  BackgroundColor<<U>> White
  BackgroundColor<<V>> WhiteSmoke
  BackgroundColor<<X>> Aqua
  BackgroundColor<<external>> AliceBlue
}


entity "puml-link:dhw:sqldb:configt.type.adoc[]" as configT.type << V >> {
  **type** : (nvarchar(128))
  --
}

entity "puml-link:dhw:sqldb:reference.repoobject_reference_t.adoc[]" as reference.RepoObject_reference_T << U >> {
  **referenced_RepoObject_guid** : (uniqueidentifier)
  **referencing_RepoObject_guid** : (uniqueidentifier)
  --
}

entity "puml-link:dhw:sqldb:repo.repoobject.adoc[]" as repo.RepoObject << U >> {
  - **RepoObject_guid** : (uniqueidentifier)
  --
}

entity "puml-link:dhw:sqldb:repo.repoobject_wo_referencing.adoc[]" as repo.RepoObject_wo_referencing << V >> {
  --
}

configT.type <.. repo.RepoObject_wo_referencing
reference.RepoObject_reference_T <.. repo.RepoObject_wo_referencing
repo.RepoObject <.. repo.RepoObject_wo_referencingfooter The diagram is interactive and contains links.
@enduml

