@startuml
left to right direction
'top to bottom direction
hide circle
'avoide "." issues:
set namespaceSeparator none


skinparam class {
  BackgroundColor White
  BackgroundColor<<FN>> Yellow
  BackgroundColor<<FS>> Yellow
  BackgroundColor<<FT>> LightGray
  BackgroundColor<<IF>> Yellow
  BackgroundColor<<IS>> Yellow
  BackgroundColor<<P>> Aqua
  BackgroundColor<<PC>> Aqua
  BackgroundColor<<SN>> Yellow
  BackgroundColor<<SO>> SlateBlue
  BackgroundColor<<TF>> LightGray
  BackgroundColor<<TR>> Tomato
  BackgroundColor<<U>> White
  BackgroundColor<<V>> WhiteSmoke
  BackgroundColor<<X>> Aqua
  BackgroundColor<<external>> AliceBlue
}


entity "puml-link:dhw:sqldb:logs.usp_executionlog_insert.adoc[]" as logs.usp_ExecutionLog_insert << P >> {
  --
}

entity "puml-link:dhw:sqldb:repo.foreignkey_indexes_union_t.adoc[]" as repo.ForeignKey_Indexes_union_T << U >> {
  **ForeignKey_guid** : (uniqueidentifier)
  --
}

entity "puml-link:dhw:sqldb:repo.index_gross.adoc[]" as repo.Index_gross << V >> {
  --
}

entity "puml-link:dhw:sqldb:repo.index_settings.adoc[]" as repo.Index_Settings << U >> {
  - **index_guid** : (uniqueidentifier)
  --
}

entity "puml-link:dhw:sqldb:repo.index_union.adoc[]" as repo.Index_union << V >> {
  **index_guid** : (uniqueidentifier)
  --
}

entity "puml-link:dhw:sqldb:repo.index_virtual.adoc[]" as repo.Index_virtual << U >> {
  - **index_guid** : (uniqueidentifier)
  --
}

entity "puml-link:dhw:sqldb:repo.indexcolumn_virtual.adoc[]" as repo.IndexColumn_virtual << U >> {
  - **index_guid** : (uniqueidentifier)
  - **index_column_id** : (int)
  --
}

entity "puml-link:dhw:sqldb:repo.repoobject.adoc[]" as repo.RepoObject << U >> {
  - **RepoObject_guid** : (uniqueidentifier)
  --
}

entity "puml-link:dhw:sqldb:repo.repoobject_persistence.adoc[]" as repo.RepoObject_persistence << U >> {
  - **target_RepoObject_guid** : (uniqueidentifier)
  --
}

entity "puml-link:dhw:sqldb:repo.usp_index_finish.adoc[]" as repo.usp_Index_finish << P >> {
  --
}

entity "puml-link:dhw:sqldb:repo.usp_index_foreignkey.adoc[]" as repo.usp_Index_ForeignKey << P >> {
  --
}

entity "puml-link:dhw:sqldb:repo.usp_index_inheritance.adoc[]" as repo.usp_index_inheritance << P >> {
  --
}

entity "puml-link:dhw:sqldb:repo.usp_index_settings.adoc[]" as repo.usp_Index_Settings << P >> {
  --
}

entity "puml-link:dhw:sqldb:repo.usp_persist_index_columlist_t.adoc[]" as repo.usp_PERSIST_Index_ColumList_T << P >> {
  --
}

entity "puml-link:dhw:sqldb:repo.usp_persist_indexcolumn_union_t.adoc[]" as repo.usp_PERSIST_IndexColumn_union_T << P >> {
  --
}

logs.usp_ExecutionLog_insert <.. repo.usp_Index_finish
repo.ForeignKey_Indexes_union_T <.. repo.usp_Index_finish
repo.Index_gross <.. repo.usp_Index_finish
repo.Index_Settings <.. repo.usp_Index_finish
repo.Index_union <.. repo.usp_Index_finish
repo.Index_virtual <.. repo.usp_Index_finish
repo.IndexColumn_virtual <.. repo.usp_Index_finish
repo.RepoObject <.. repo.usp_Index_finish
repo.RepoObject_persistence <.. repo.usp_Index_finish
repo.usp_Index_finish <.. repo.usp_index_inheritance
repo.usp_Index_finish <.. repo.usp_Index_ForeignKey
repo.usp_Index_Settings <.. repo.usp_Index_finish
repo.usp_PERSIST_Index_ColumList_T <.. repo.usp_Index_finish
repo.usp_PERSIST_IndexColumn_union_T <.. repo.usp_Index_finishfooter The diagram is interactive and contains links.
@enduml

