@startuml
left to right direction
'top to bottom direction
hide circle
'avoide "." issues:
set namespaceSeparator none


skinparam class {
  BackgroundColor White
  BackgroundColor<<FN>> Yellow
  BackgroundColor<<FS>> Yellow
  BackgroundColor<<FT>> LightGray
  BackgroundColor<<IF>> Yellow
  BackgroundColor<<IS>> Yellow
  BackgroundColor<<P>> Aqua
  BackgroundColor<<PC>> Aqua
  BackgroundColor<<SN>> Yellow
  BackgroundColor<<SO>> SlateBlue
  BackgroundColor<<TF>> LightGray
  BackgroundColor<<TR>> Tomato
  BackgroundColor<<U>> White
  BackgroundColor<<V>> WhiteSmoke
  BackgroundColor<<X>> Aqua
  BackgroundColor<<external>> AliceBlue
}


entity "puml-link:dhw:sqldb:config.ftv_get_parameter_value.adoc[]" as config.ftv_get_parameter_value << IF >> {
  --
}

entity "puml-link:dhw:sqldb:configt.type.adoc[]" as configT.type << V >> {
  **type** : (nvarchar(128))
  --
}

entity "puml-link:dhw:sqldb:docs.fs_cleanstringforfilename.adoc[]" as docs.fs_cleanStringForFilename << FN >> {
  --
}

entity "puml-link:dhw:sqldb:docs.repoobject_adoc.adoc[]" as docs.RepoObject_Adoc << V >> {
  --
}

entity "puml-link:dhw:sqldb:docs.repoobject_outputfilter.adoc[]" as docs.RepoObject_OutputFilter << V >> {
  - **RepoObject_guid** : (uniqueidentifier)
  - **cultures_name** : (nvarchar(10))
  --
}

entity "puml-link:dhw:sqldb:docs.repoobject_plantuml.adoc[]" as docs.RepoObject_Plantuml << V >> {
  - **RepoObject_guid** : (uniqueidentifier)
  **cultures_name** : (nvarchar(10))
  --
}

entity "puml-link:dhw:sqldb:docs.unit_1_union.adoc[]" as docs.Unit_1_union << V >> {
  --
}

entity "puml-link:dhw:sqldb:property.fs_get_repoobjectproperty_nvarchar.adoc[]" as property.fs_get_RepoObjectProperty_nvarchar << FN >> {
  --
}

entity "puml-link:dhw:sqldb:property.repoobjectproperty_collect_source_rogross.adoc[]" as property.RepoObjectProperty_Collect_source_ROGross << V >> {
  - **RepoObject_guid** : (uniqueidentifier)
  - **property_name** : (varchar(39))
  --
}

entity "puml-link:dhw:sqldb:reference.additional_reference_database_t.adoc[]" as reference.additional_Reference_database_T << U >> {
  - **AntoraComponent** : (nvarchar(128))
  - **AntoraModule** : (nvarchar(128))
  --
}

entity "puml-link:dhw:sqldb:reference.persistence.adoc[]" as reference.Persistence << V >> {
  --
}

entity "puml-link:dhw:sqldb:reference.repoobject_queryplan.adoc[]" as reference.RepoObject_QueryPlan << U >> {
  - **RepoObject_guid** : (uniqueidentifier)
  --
}

entity "puml-link:dhw:sqldb:reference.repoobject_reference_persistence_target_as_source.adoc[]" as reference.RepoObject_reference_persistence_target_as_source << V >> {
  --
}

entity "puml-link:dhw:sqldb:reference.repoobject_referencedreferencing.adoc[]" as reference.RepoObject_ReferencedReferencing << V >> {
  --
}

entity "puml-link:dhw:sqldb:reference.repoobject_referencetree_0_30.adoc[]" as reference.RepoObject_ReferenceTree_0_30 << V >> {
  **RepoObject_guid** : (uniqueidentifier)
  **Referencing_guid** : (uniqueidentifier)
  **Referenced_guid** : (uniqueidentifier)
  --
}

entity "puml-link:dhw:sqldb:reference.repoobject_referencetree_30_0.adoc[]" as reference.RepoObject_ReferenceTree_30_0 << V >> {
  **RepoObject_guid** : (uniqueidentifier)
  **Referencing_guid** : (uniqueidentifier)
  **Referenced_guid** : (uniqueidentifier)
  --
}

entity "puml-link:dhw:sqldb:reference.repoobject_referencetree_referenced.adoc[]" as reference.RepoObject_ReferenceTree_referenced << V >> {
  **RepoObject_guid** : (uniqueidentifier)
  **Referenced_Depth** : (int)
  **Referencing_Depth** : (int)
  **Referenced_guid** : (uniqueidentifier)
  **Referencing_guid** : (uniqueidentifier)
  --
}

entity "puml-link:dhw:sqldb:reference.repoobject_referencetree_referenced_30_0.adoc[]" as reference.RepoObject_ReferenceTree_referenced_30_0 << V >> {
  - **RepoObject_guid** : (uniqueidentifier)
  **Referenced_guid** : (uniqueidentifier)
  --
}

entity "puml-link:dhw:sqldb:reference.repoobject_referencetree_referencing.adoc[]" as reference.RepoObject_ReferenceTree_referencing << V >> {
  **RepoObject_guid** : (uniqueidentifier)
  **Referenced_Depth** : (int)
  **Referencing_Depth** : (int)
  **Referenced_guid** : (uniqueidentifier)
  **Referencing_guid** : (uniqueidentifier)
  --
}

entity "puml-link:dhw:sqldb:reference.repoobject_referencetree_referencing_0_30.adoc[]" as reference.RepoObject_ReferenceTree_referencing_0_30 << V >> {
  - **RepoObject_guid** : (uniqueidentifier)
  **Referencing_guid** : (uniqueidentifier)
  --
}

entity "puml-link:dhw:sqldb:reference.usp_repoobject_update_sysobjectqueryplan.adoc[]" as reference.usp_RepoObject_update_SysObjectQueryPlan << P >> {
  --
}

entity "puml-link:dhw:sqldb:reference.usp_repoobjectsource_firstresultset.adoc[]" as reference.usp_RepoObjectSource_FirstResultSet << P >> {
  --
}

entity "puml-link:dhw:sqldb:reference.usp_repoobjectsource_queryplan.adoc[]" as reference.usp_RepoObjectSource_QueryPlan << P >> {
  --
}

entity "puml-link:dhw:sqldb:repo.index_gross.adoc[]" as repo.Index_gross << V >> {
  --
}

entity "puml-link:dhw:sqldb:repo.index_settings.adoc[]" as repo.Index_Settings << U >> {
  - **index_guid** : (uniqueidentifier)
  --
}

entity "puml-link:dhw:sqldb:repo.index_virtual_forupdate.adoc[]" as repo.Index_virtual_ForUpdate << V >> {
  --
}

entity "puml-link:dhw:sqldb:repo.repoobject.adoc[]" as repo.RepoObject << U >> {
  - **RepoObject_guid** : (uniqueidentifier)
  --
}

entity "puml-link:dhw:sqldb:repo.repoobject_gross.adoc[]" as repo.RepoObject_gross << V >> {
  --
}

entity "puml-link:dhw:sqldb:repo.repoobject_gross2.adoc[]" as repo.RepoObject_gross2 << V >> {
  --
}

entity "puml-link:dhw:sqldb:repo.repoobject_persistence.adoc[]" as repo.RepoObject_persistence << U >> {
  - **target_RepoObject_guid** : (uniqueidentifier)
  --
}

entity "puml-link:dhw:sqldb:repo.repoobject_sat2.adoc[]" as repo.RepoObject_sat2 << V >> {
  - **RepoObject_guid** : (uniqueidentifier)
  --
}

entity "puml-link:dhw:sqldb:repo.repoobject_sqlcreatetable.adoc[]" as repo.RepoObject_SqlCreateTable << V >> {
  - **RepoObject_guid** : (uniqueidentifier)
  --
}

entity "puml-link:dhw:sqldb:ssas.model_json_31_tables_t.adoc[]" as ssas.model_json_31_tables_T << U >> {
  - **databasename** : (nvarchar(128))
  **tables_name** : (nvarchar(128))
  --
}

entity "puml-link:dhw:sqldb:ssas.model_json_3161_tables_descriptions_stragg.adoc[]" as ssas.model_json_3161_tables_descriptions_StrAgg << V >> {
  --
}

entity "puml-link:dhw:sqldb:uspgenerator.generatorusp.adoc[]" as uspgenerator.GeneratorUsp << U >> {
  - **id** : (int)
  --
}

entity "puml-link:dhw:sqldb:uspgenerator.generatoruspstep_persistence_isinactive_setpoint.adoc[]" as uspgenerator.GeneratorUspStep_Persistence_IsInactive_setpoint << V >> {
  - **usp_id** : (int)
  --
}

entity "puml-link:dhw:sqldb:uspgenerator.generatoruspstep_persistence_src.adoc[]" as uspgenerator.GeneratorUspStep_Persistence_src << V >> {
  - **usp_id** : (int)
  --
}

entity "puml-link:dhw:sqldb:uspgenerator.usp_generatorusp_insert_update_persistence.adoc[]" as uspgenerator.usp_GeneratorUsp_insert_update_persistence << P >> {
  --
}

entity "puml-link:dhw:sqldb:workflow.workflowstep_s.adoc[]" as workflow.WorkflowStep_S << V >> {
  - **Workflow_id** : (int)
  **Procedure_RepoObject_guid** : (uniqueidentifier)
  --
}

config.ftv_get_parameter_value <.. repo.RepoObject_gross
configT.type <.. repo.RepoObject_gross
docs.fs_cleanStringForFilename <.. repo.RepoObject_gross
property.fs_get_RepoObjectProperty_nvarchar <.. repo.RepoObject_gross
reference.additional_Reference_database_T <.. repo.RepoObject_gross
reference.RepoObject_QueryPlan <.. repo.RepoObject_gross
reference.RepoObject_ReferencedReferencing <.. repo.RepoObject_gross
repo.Index_Settings <.. repo.RepoObject_gross
repo.RepoObject <.. repo.RepoObject_gross
repo.RepoObject_gross <.. repo.RepoObject_SqlCreateTable
repo.RepoObject_gross <.. uspgenerator.GeneratorUspStep_Persistence_IsInactive_setpoint
repo.RepoObject_gross <.. uspgenerator.GeneratorUspStep_Persistence_src
repo.RepoObject_gross <.. repo.Index_gross
repo.RepoObject_gross <.. reference.usp_RepoObjectSource_QueryPlan
repo.RepoObject_gross <.. reference.usp_RepoObjectSource_FirstResultSet
repo.RepoObject_gross <.. reference.usp_RepoObject_update_SysObjectQueryPlan
repo.RepoObject_gross <.. uspgenerator.usp_GeneratorUsp_insert_update_persistence
repo.RepoObject_gross <.. docs.RepoObject_Adoc
repo.RepoObject_gross <.. docs.RepoObject_OutputFilter
repo.RepoObject_gross <.. docs.RepoObject_Plantuml
repo.RepoObject_gross <.. repo.Index_virtual_ForUpdate
repo.RepoObject_gross <.. reference.RepoObject_ReferenceTree_referenced
repo.RepoObject_gross <.. reference.RepoObject_ReferenceTree_referencing
repo.RepoObject_gross <.. property.RepoObjectProperty_Collect_source_ROGross
repo.RepoObject_gross <.. reference.RepoObject_ReferenceTree_referenced_30_0
repo.RepoObject_gross <.. reference.RepoObject_ReferenceTree_referencing_0_30
repo.RepoObject_gross <.. reference.RepoObject_ReferenceTree_0_30
repo.RepoObject_gross <.. reference.RepoObject_ReferenceTree_30_0
repo.RepoObject_gross <.. reference.Persistence
repo.RepoObject_gross <.. reference.RepoObject_reference_persistence_target_as_source
repo.RepoObject_gross <.. workflow.WorkflowStep_S
repo.RepoObject_gross <.. repo.RepoObject_gross2
repo.RepoObject_gross <.. docs.Unit_1_union
repo.RepoObject_gross <.. repo.RepoObject_sat2
repo.RepoObject_persistence <.. repo.RepoObject_gross
ssas.model_json_31_tables_T <.. repo.RepoObject_gross
ssas.model_json_3161_tables_descriptions_StrAgg <.. repo.RepoObject_gross
uspgenerator.GeneratorUsp <.. repo.RepoObject_gross
@enduml

