@startuml
left to right direction
'top to bottom direction
hide circle
'avoide "." issues:
set namespaceSeparator none


skinparam class {
  BackgroundColor White
  BackgroundColor<<FN>> Yellow
  BackgroundColor<<FS>> Yellow
  BackgroundColor<<FT>> LightGray
  BackgroundColor<<IF>> Yellow
  BackgroundColor<<IS>> Yellow
  BackgroundColor<<P>> Aqua
  BackgroundColor<<PC>> Aqua
  BackgroundColor<<SN>> Yellow
  BackgroundColor<<SO>> SlateBlue
  BackgroundColor<<TF>> LightGray
  BackgroundColor<<TR>> Tomato
  BackgroundColor<<U>> White
  BackgroundColor<<V>> WhiteSmoke
  BackgroundColor<<X>> Aqua
  BackgroundColor<<external>> AliceBlue
}


entity "puml-link:dhw:sqldb:config.fs_get_parameter_value.adoc[]" as config.fs_get_parameter_value << FN >> {
  --
}

entity "puml-link:dhw:sqldb:logs.usp_executionlog_insert.adoc[]" as logs.usp_ExecutionLog_insert << P >> {
  --
}

entity "puml-link:dhw:sqldb:repo.reposchema.adoc[]" as repo.RepoSchema << U >> {
  - **RepoSchema_guid** : (uniqueidentifier)
  --
}

entity "puml-link:dhw:sqldb:repo.sysschema_reposchema_via_guid.adoc[]" as repo.SysSchema_RepoSchema_via_guid << V >> {
  --
}

entity "puml-link:dhw:sqldb:repo.sysschema_reposchema_via_name.adoc[]" as repo.SysSchema_RepoSchema_via_name << V >> {
  --
}

entity "puml-link:dhw:sqldb:repo.usp_sync_guid.adoc[]" as repo.usp_sync_guid << P >> {
  --
}

entity "puml-link:dhw:sqldb:repo.usp_sync_guid_reposchema.adoc[]" as repo.usp_sync_guid_RepoSchema << P >> {
  --
}

entity "puml-link:dhw:sqldb:repo_sys.sysschema.adoc[]" as repo_sys.SysSchema << V >> {
  --
}

entity "puml-link:dhw:sqldb:repo_sys.usp_addorupdateextendedproperty.adoc[]" as repo_sys.usp_AddOrUpdateExtendedProperty << P >> {
  --
}

config.fs_get_parameter_value <.. repo.usp_sync_guid_RepoSchema
logs.usp_ExecutionLog_insert <.. repo.usp_sync_guid_RepoSchema
repo.RepoSchema <.. repo.usp_sync_guid_RepoSchema
repo.SysSchema_RepoSchema_via_guid <.. repo.usp_sync_guid_RepoSchema
repo.SysSchema_RepoSchema_via_name <.. repo.usp_sync_guid_RepoSchema
repo.usp_sync_guid_RepoSchema <.. repo.usp_sync_guid
repo_sys.SysSchema <.. repo.usp_sync_guid_RepoSchema
repo_sys.usp_AddOrUpdateExtendedProperty <.. repo.usp_sync_guid_RepoSchema
@enduml

