@startuml
left to right direction
'top to bottom direction
hide circle
'avoide "." issues:
set namespaceSeparator none


skinparam class {
  BackgroundColor White
  BackgroundColor<<FN>> Yellow
  BackgroundColor<<FS>> Yellow
  BackgroundColor<<FT>> LightGray
  BackgroundColor<<IF>> Yellow
  BackgroundColor<<IS>> Yellow
  BackgroundColor<<P>> Aqua
  BackgroundColor<<PC>> Aqua
  BackgroundColor<<SN>> Yellow
  BackgroundColor<<SO>> SlateBlue
  BackgroundColor<<TF>> LightGray
  BackgroundColor<<TR>> Tomato
  BackgroundColor<<U>> White
  BackgroundColor<<V>> WhiteSmoke
  BackgroundColor<<X>> Aqua
  BackgroundColor<<external>> AliceBlue
}


entity "puml-link:dhw:sqldb:docs.unit_1_union.adoc[]" as docs.Unit_1_union << V >> {
  --
}

entity "puml-link:dhw:sqldb:graph.repoobjectcolumn_s.adoc[]" as graph.RepoObjectColumn_S << V >> {
  --
}

entity "puml-link:dhw:sqldb:property.fs_get_repoobjectcolumnproperty_nvarchar.adoc[]" as property.fs_get_RepoObjectColumnProperty_nvarchar << FN >> {
  --
}

entity "puml-link:dhw:sqldb:property.repoobjectcolumnproperty_forupdate.adoc[]" as property.RepoObjectColumnProperty_ForUpdate << V >> {
  --
}

entity "puml-link:dhw:sqldb:reference.repoobjectcolumn_reference_firstresultset.adoc[]" as reference.RepoObjectColumn_reference_FirstResultSet << V >> {
  --
}

entity "puml-link:dhw:sqldb:reference.repoobjectcolumn_reference_queryplan.adoc[]" as reference.RepoObjectColumn_reference_QueryPlan << V >> {
  **referencing_id** : (int)
  **referencing_minor_id** : (int)
  **referenced_id** : (int)
  **referenced_minor_id** : (int)
  --
}

entity "puml-link:dhw:sqldb:reference.repoobjectcolumn_reference_virtual.adoc[]" as reference.RepoObjectColumn_reference_virtual << V >> {
  --
}

entity "puml-link:dhw:sqldb:reference.usp_repoobjectcolumnsource_virtual_set.adoc[]" as reference.usp_RepoObjectColumnSource_virtual_set << P >> {
  --
}

entity "puml-link:dhw:sqldb:repo.repoobject.adoc[]" as repo.RepoObject << U >> {
  - **RepoObject_guid** : (uniqueidentifier)
  --
}

entity "puml-link:dhw:sqldb:repo.repoobject_persistence.adoc[]" as repo.RepoObject_persistence << U >> {
  - **target_RepoObject_guid** : (uniqueidentifier)
  --
}

entity "puml-link:dhw:sqldb:repo.repoobjectcolumn.adoc[]" as repo.RepoObjectColumn << U >> {
  - **RepoObjectColumn_guid** : (uniqueidentifier)
  --
}

entity "puml-link:dhw:sqldb:repo.repoobjectcolumn_gross.adoc[]" as repo.RepoObjectColumn_gross << V >> {
  --
}

entity "puml-link:dhw:sqldb:repo.repoobjectcolumn_gross2.adoc[]" as repo.RepoObjectColumn_gross2 << V >> {
  --
}

entity "puml-link:dhw:sqldb:repo.usp_sync_guid_repoobjectcolumn.adoc[]" as repo.usp_sync_guid_RepoObjectColumn << P >> {
  --
}

entity "puml-link:dhw:sqldb:ssas.model_json_311_tables_columns_t.adoc[]" as ssas.model_json_311_tables_columns_T << U >> {
  - **databasename** : (nvarchar(128))
  - **tables_name** : (nvarchar(128))
  **tables_columns_name** : (nvarchar(128))
  --
}

entity "puml-link:dhw:sqldb:ssas.model_json_31111_tables_columns_descriptions_stragg.adoc[]" as ssas.model_json_31111_tables_columns_descriptions_StrAgg << V >> {
  --
}

entity "puml-link:dhw:sqldb:ssas.model_json_31121_tables_columns_expressions_stragg.adoc[]" as ssas.model_json_31121_tables_columns_expressions_StrAgg << V >> {
  --
}

entity "puml-link:dhw:sqldb:ssas.repoobjectcolumn_translation.adoc[]" as ssas.RepoObjectColumn_translation << V >> {
  - **RepoObjectColumn_guid** : (uniqueidentifier)
  - **cultures_name** : (nvarchar(10))
  --
}

property.fs_get_RepoObjectColumnProperty_nvarchar <.. repo.RepoObjectColumn_gross
repo.RepoObject <.. repo.RepoObjectColumn_gross
repo.RepoObject_persistence <.. repo.RepoObjectColumn_gross
repo.RepoObjectColumn <.. repo.RepoObjectColumn_gross
repo.RepoObjectColumn_gross <.. reference.RepoObjectColumn_reference_FirstResultSet
repo.RepoObjectColumn_gross <.. reference.RepoObjectColumn_reference_QueryPlan
repo.RepoObjectColumn_gross <.. repo.usp_sync_guid_RepoObjectColumn
repo.RepoObjectColumn_gross <.. graph.RepoObjectColumn_S
repo.RepoObjectColumn_gross <.. property.RepoObjectColumnProperty_ForUpdate
repo.RepoObjectColumn_gross <.. reference.RepoObjectColumn_reference_virtual
repo.RepoObjectColumn_gross <.. reference.usp_RepoObjectColumnSource_virtual_set
repo.RepoObjectColumn_gross <.. repo.RepoObjectColumn_gross2
repo.RepoObjectColumn_gross <.. docs.Unit_1_union
repo.RepoObjectColumn_gross <.. ssas.RepoObjectColumn_translation
ssas.model_json_311_tables_columns_T <.. repo.RepoObjectColumn_gross
ssas.model_json_31111_tables_columns_descriptions_StrAgg <.. repo.RepoObjectColumn_gross
ssas.model_json_31121_tables_columns_expressions_StrAgg <.. repo.RepoObjectColumn_grossfooter The diagram is interactive and contains links.
@enduml

