@startuml
left to right direction
'top to bottom direction
hide circle
'avoide "." issues:
set namespaceSeparator none


skinparam class {
  BackgroundColor White
  BackgroundColor<<FN>> Yellow
  BackgroundColor<<FS>> Yellow
  BackgroundColor<<FT>> LightGray
  BackgroundColor<<IF>> Yellow
  BackgroundColor<<IS>> Yellow
  BackgroundColor<<P>> Aqua
  BackgroundColor<<PC>> Aqua
  BackgroundColor<<SN>> Yellow
  BackgroundColor<<SO>> SlateBlue
  BackgroundColor<<TF>> LightGray
  BackgroundColor<<TR>> Tomato
  BackgroundColor<<U>> White
  BackgroundColor<<V>> WhiteSmoke
  BackgroundColor<<X>> Aqua
  BackgroundColor<<external>> AliceBlue
}


entity "puml-link:dhw:sqldb:repo.foreignkey_indexes.adoc[]" as repo.ForeignKey_Indexes << V >> {
  --
}

entity "puml-link:dhw:sqldb:repo.foreignkey_indexes_union.adoc[]" as repo.ForeignKey_Indexes_union << V >> {
  **ForeignKey_guid** : (uniqueidentifier)
  --
}

entity "puml-link:dhw:sqldb:repo.foreignkey_indexes_union_t.adoc[]" as repo.ForeignKey_Indexes_union_T << U >> {
  **ForeignKey_guid** : (uniqueidentifier)
  --
}

entity "puml-link:dhw:sqldb:repo.foreignkey_ssas_indexes.adoc[]" as repo.ForeignKey_ssas_Indexes << V >> {
  --
}

entity "puml-link:dhw:sqldb:repo.foreignkey_virtual_indexes.adoc[]" as repo.ForeignKey_virtual_Indexes << V >> {
  --
}

entity "puml-link:dhw:sqldb:repo.usp_persist_foreignkey_indexes_union_t.adoc[]" as repo.usp_PERSIST_ForeignKey_Indexes_union_T << P >> {
  --
}

repo.ForeignKey_Indexes <.. repo.ForeignKey_Indexes_union
repo.ForeignKey_Indexes_union <.. repo.ForeignKey_Indexes_union_T
repo.ForeignKey_Indexes_union <.. repo.usp_PERSIST_ForeignKey_Indexes_union_T
repo.ForeignKey_ssas_Indexes <.. repo.ForeignKey_Indexes_union
repo.ForeignKey_virtual_Indexes <.. repo.ForeignKey_Indexes_union
@enduml

