@startuml
left to right direction
'top to bottom direction
hide circle
'avoide "." issues:
set namespaceSeparator none


skinparam class {
  BackgroundColor White
  BackgroundColor<<FN>> Yellow
  BackgroundColor<<FS>> Yellow
  BackgroundColor<<FT>> LightGray
  BackgroundColor<<IF>> Yellow
  BackgroundColor<<IS>> Yellow
  BackgroundColor<<P>> Aqua
  BackgroundColor<<PC>> Aqua
  BackgroundColor<<SN>> Yellow
  BackgroundColor<<SO>> SlateBlue
  BackgroundColor<<TF>> LightGray
  BackgroundColor<<TR>> Tomato
  BackgroundColor<<U>> White
  BackgroundColor<<V>> WhiteSmoke
  BackgroundColor<<X>> Aqua
  BackgroundColor<<external>> AliceBlue
}


entity "puml-link:dhw:sqldb:reference.repoobjectcolumn_reference_t.adoc[]" as reference.RepoObjectColumn_reference_T << U >> {
  **referenced_RepoObjectColumn_guid** : (uniqueidentifier)
  **referencing_RepoObjectColumn_guid** : (uniqueidentifier)
  --
}

entity "puml-link:dhw:sqldb:repo.indexcolumn_referencedreferencing_hasfullcolumnsinreferencing.adoc[]" as repo.IndexColumn_ReferencedReferencing_HasFullColumnsInReferencing << V >> {
  - **index_guid** : (uniqueidentifier)
  - **index_column_id** : (int)
  **RowNumberInReferencing** : (bigint)
  --
}

entity "puml-link:dhw:sqldb:repo.indexcolumn_referencedreferencing_hasfullcolumnsinreferencing_t.adoc[]" as repo.IndexColumn_ReferencedReferencing_HasFullColumnsInReferencing_T << U >> {
  **index_guid** : (uniqueidentifier)
  - **index_column_id** : (int)
  **RowNumberInReferencing** : (bigint)
  --
}

entity "puml-link:dhw:sqldb:repo.indexcolumn_union_t.adoc[]" as repo.IndexColumn_union_T << U >> {
  **index_guid** : (uniqueidentifier)
  - **index_column_id** : (int)
  --
}

entity "puml-link:dhw:sqldb:repo.repoobjectcolumn.adoc[]" as repo.RepoObjectColumn << U >> {
  - **RepoObjectColumn_guid** : (uniqueidentifier)
  --
}

entity "puml-link:dhw:sqldb:repo.usp_persist_indexcolumn_referencedreferencing_hasfullcolumnsinreferencing_t.adoc[]" as repo.usp_PERSIST_IndexColumn_ReferencedReferencing_HasFullColumnsInReferencing_T << P >> {
  --
}

reference.RepoObjectColumn_reference_T <.. repo.IndexColumn_ReferencedReferencing_HasFullColumnsInReferencing
repo.IndexColumn_ReferencedReferencing_HasFullColumnsInReferencing <.. repo.IndexColumn_ReferencedReferencing_HasFullColumnsInReferencing_T
repo.IndexColumn_ReferencedReferencing_HasFullColumnsInReferencing <.. repo.usp_PERSIST_IndexColumn_ReferencedReferencing_HasFullColumnsInReferencing_T
repo.IndexColumn_union_T <.. repo.IndexColumn_ReferencedReferencing_HasFullColumnsInReferencing
repo.RepoObjectColumn <.. repo.IndexColumn_ReferencedReferencing_HasFullColumnsInReferencing
@enduml

