@startuml
left to right direction
'top to bottom direction
hide circle
'avoide "." issues:
set namespaceSeparator none


skinparam class {
  BackgroundColor White
  BackgroundColor<<FN>> Yellow
  BackgroundColor<<FS>> Yellow
  BackgroundColor<<FT>> LightGray
  BackgroundColor<<IF>> Yellow
  BackgroundColor<<IS>> Yellow
  BackgroundColor<<P>> Aqua
  BackgroundColor<<PC>> Aqua
  BackgroundColor<<SN>> Yellow
  BackgroundColor<<SO>> SlateBlue
  BackgroundColor<<TF>> LightGray
  BackgroundColor<<TR>> Tomato
  BackgroundColor<<U>> White
  BackgroundColor<<V>> WhiteSmoke
  BackgroundColor<<X>> Aqua
  BackgroundColor<<external>> AliceBlue
}


entity "puml-link:dhw:sqldb:repo.index_columlist.adoc[]" as repo.Index_ColumList << V >> {
  --
}

entity "puml-link:dhw:sqldb:repo.index_columlist_t.adoc[]" as repo.Index_ColumList_T << U >> {
  - **index_guid** : (uniqueidentifier)
  --
}

entity "puml-link:dhw:sqldb:repo.indexcolumn_union_t.adoc[]" as repo.IndexColumn_union_T << U >> {
  **index_guid** : (uniqueidentifier)
  - **index_column_id** : (int)
  --
}

entity "puml-link:dhw:sqldb:repo.usp_persist_index_columlist_t.adoc[]" as repo.usp_PERSIST_Index_ColumList_T << P >> {
  --
}

repo.Index_ColumList <.. repo.Index_ColumList_T
repo.Index_ColumList <.. repo.usp_PERSIST_Index_ColumList_T
repo.IndexColumn_union_T <.. repo.Index_ColumList
@enduml

