@startuml
left to right direction
'top to bottom direction
hide circle
'avoide "." issues:
set namespaceSeparator none


skinparam class {
  BackgroundColor White
  BackgroundColor<<FN>> Yellow
  BackgroundColor<<FS>> Yellow
  BackgroundColor<<FT>> LightGray
  BackgroundColor<<IF>> Yellow
  BackgroundColor<<IS>> Yellow
  BackgroundColor<<P>> Aqua
  BackgroundColor<<PC>> Aqua
  BackgroundColor<<SN>> Yellow
  BackgroundColor<<SO>> SlateBlue
  BackgroundColor<<TF>> LightGray
  BackgroundColor<<TR>> Tomato
  BackgroundColor<<U>> White
  BackgroundColor<<V>> WhiteSmoke
  BackgroundColor<<X>> Aqua
  BackgroundColor<<external>> AliceBlue
}


entity "puml-link:dhw:sqldb:repo.index_gross.adoc[]" as repo.Index_gross << V >> {
  --
}

entity "puml-link:dhw:sqldb:repo.index_settings_forupdate.adoc[]" as repo.Index_Settings_ForUpdate << V >> {
  --
}

entity "puml-link:dhw:sqldb:repo.index_sqlconstraint_pkuq.adoc[]" as repo.Index_SqlConstraint_PkUq << V >> {
  --
}

entity "puml-link:dhw:sqldb:repo.index_ssas_indexpatterncolumnguid.adoc[]" as repo.Index_ssas_IndexPatternColumnGuid << V >> {
  --
}

entity "puml-link:dhw:sqldb:repo.index_ssas_t.adoc[]" as repo.Index_ssas_T << U >> {
  - **databasename** : (nvarchar(128))
  **index_name** : (nvarchar(450))
  --
}

entity "puml-link:dhw:sqldb:repo.index_union.adoc[]" as repo.Index_union << V >> {
  **index_guid** : (uniqueidentifier)
  --
}

entity "puml-link:dhw:sqldb:repo.index_unique_indexpatterncolumnguid.adoc[]" as repo.Index_unique_IndexPatternColumnGuid << V >> {
  --
}

entity "puml-link:dhw:sqldb:repo.index_virtual.adoc[]" as repo.Index_virtual << U >> {
  - **index_guid** : (uniqueidentifier)
  --
}

entity "puml-link:dhw:sqldb:repo.index_virtual_indexpatterncolumnguid.adoc[]" as repo.Index_virtual_IndexPatternColumnGuid << V >> {
  --
}

entity "puml-link:dhw:sqldb:repo.indexreferencedreferencing.adoc[]" as repo.IndexReferencedReferencing << V >> {
  --
}

entity "puml-link:dhw:sqldb:repo.usp_index_finish.adoc[]" as repo.usp_Index_finish << P >> {
  --
}

entity "puml-link:dhw:sqldb:repo_sys.index_unique.adoc[]" as repo_sys.Index_unique << V >> {
  --
}

repo.Index_ssas_IndexPatternColumnGuid <.. repo.Index_union
repo.Index_ssas_T <.. repo.Index_union
repo.Index_union <.. repo.IndexReferencedReferencing
repo.Index_union <.. repo.Index_SqlConstraint_PkUq
repo.Index_union <.. repo.Index_gross
repo.Index_union <.. repo.usp_Index_finish
repo.Index_union <.. repo.Index_Settings_ForUpdate
repo.Index_unique_IndexPatternColumnGuid <.. repo.Index_union
repo.Index_virtual <.. repo.Index_union
repo.Index_virtual_IndexPatternColumnGuid <.. repo.Index_union
repo_sys.Index_unique <.. repo.Index_unionfooter The diagram is interactive and contains links.
@enduml

