@startuml
left to right direction
'top to bottom direction
hide circle
'avoide "." issues:
set namespaceSeparator none


skinparam class {
  BackgroundColor White
  BackgroundColor<<FN>> Yellow
  BackgroundColor<<FS>> Yellow
  BackgroundColor<<FT>> LightGray
  BackgroundColor<<IF>> Yellow
  BackgroundColor<<IS>> Yellow
  BackgroundColor<<P>> Aqua
  BackgroundColor<<PC>> Aqua
  BackgroundColor<<SN>> Yellow
  BackgroundColor<<SO>> SlateBlue
  BackgroundColor<<TF>> LightGray
  BackgroundColor<<TR>> Tomato
  BackgroundColor<<U>> White
  BackgroundColor<<V>> WhiteSmoke
  BackgroundColor<<X>> Aqua
  BackgroundColor<<external>> AliceBlue
}


entity "puml-link:dhw:sqldb:reference.usp_update_referencing_count.adoc[]" as reference.usp_update_Referencing_Count << P >> {
  --
}

entity "puml-link:dhw:sqldb:repo.repoobject.adoc[]" as repo.RepoObject << U >> {
  - **RepoObject_guid** : (uniqueidentifier)
  --
}

entity "puml-link:dhw:sqldb:repo.usp_update_referencing_count.adoc[]" as repo.usp_update_Referencing_Count << P >> {
  --
}

entity "puml-link:dhw:sqldb:repo_sys.repoobjectreferenced.adoc[]" as repo_sys.RepoObjectReferenced << V >> {
  --
}

entity "puml-link:dhw:sqldb:sys_dwh.dm_sql_referenced_entities.adoc[]" as sys_dwh.dm_sql_referenced_entities << SN >> {
  --
}

repo.RepoObject <.. repo_sys.RepoObjectReferenced
repo_sys.RepoObjectReferenced <.. reference.usp_update_Referencing_Count
repo_sys.RepoObjectReferenced <.. repo.usp_update_Referencing_Count
sys_dwh.dm_sql_referenced_entities <.. repo_sys.RepoObjectReferenced
@enduml

