@startuml
left to right direction
'top to bottom direction
hide circle
'avoide "." issues:
set namespaceSeparator none


skinparam class {
  BackgroundColor White
  BackgroundColor<<FN>> Yellow
  BackgroundColor<<FS>> Yellow
  BackgroundColor<<FT>> LightGray
  BackgroundColor<<IF>> Yellow
  BackgroundColor<<IS>> Yellow
  BackgroundColor<<P>> Aqua
  BackgroundColor<<PC>> Aqua
  BackgroundColor<<SN>> Yellow
  BackgroundColor<<SO>> SlateBlue
  BackgroundColor<<TF>> LightGray
  BackgroundColor<<TR>> Tomato
  BackgroundColor<<U>> White
  BackgroundColor<<V>> WhiteSmoke
  BackgroundColor<<X>> Aqua
  BackgroundColor<<external>> AliceBlue
}


entity "puml-link:dhw:sqldb:docs.ssas_pumlrelation.adoc[]" as docs.ssas_PumlRelation << V >> {
  --
}

entity "puml-link:dhw:sqldb:repo.foreignkey_ssas_indexes.adoc[]" as repo.ForeignKey_ssas_Indexes << V >> {
  --
}

entity "puml-link:dhw:sqldb:repo.foreignkey_ssas_indexpattern.adoc[]" as repo.ForeignKey_ssas_IndexPattern << V >> {
  --
}

entity "puml-link:dhw:sqldb:ssas.model_json_31_tables_t.adoc[]" as ssas.model_json_31_tables_T << U >> {
  - **databasename** : (nvarchar(128))
  **tables_name** : (nvarchar(128))
  --
}

entity "puml-link:dhw:sqldb:ssas.model_json_311_tables_columns_t.adoc[]" as ssas.model_json_311_tables_columns_T << U >> {
  - **databasename** : (nvarchar(128))
  - **tables_name** : (nvarchar(128))
  **tables_columns_name** : (nvarchar(128))
  --
}

entity "puml-link:dhw:sqldb:ssas.model_json_32_relationships_t.adoc[]" as ssas.model_json_32_relationships_T << U >> {
  - **ForeignKey_guid** : (uniqueidentifier)
  --
}

repo.ForeignKey_ssas_IndexPattern <.. repo.ForeignKey_ssas_Indexes
repo.ForeignKey_ssas_IndexPattern <.. docs.ssas_PumlRelation
ssas.model_json_31_tables_T <.. repo.ForeignKey_ssas_IndexPattern
ssas.model_json_311_tables_columns_T <.. repo.ForeignKey_ssas_IndexPattern
ssas.model_json_32_relationships_T <.. repo.ForeignKey_ssas_IndexPatternfooter The diagram is interactive and contains links.
@enduml

