@startuml
left to right direction
'top to bottom direction
hide circle
'avoide "." issues:
set namespaceSeparator none


skinparam class {
  BackgroundColor White
  BackgroundColor<<FN>> Yellow
  BackgroundColor<<FS>> Yellow
  BackgroundColor<<FT>> LightGray
  BackgroundColor<<IF>> Yellow
  BackgroundColor<<IS>> Yellow
  BackgroundColor<<P>> Aqua
  BackgroundColor<<PC>> Aqua
  BackgroundColor<<SN>> Yellow
  BackgroundColor<<SO>> SlateBlue
  BackgroundColor<<TF>> LightGray
  BackgroundColor<<TR>> Tomato
  BackgroundColor<<U>> White
  BackgroundColor<<V>> WhiteSmoke
  BackgroundColor<<X>> Aqua
  BackgroundColor<<external>> AliceBlue
}


entity "puml-link:dhw:sqldb:sqlparse.repoobject_sqlmodules_51_identitfier.adoc[]" as sqlparse.RepoObject_SqlModules_51_Identitfier << V >> {
  --
}

entity "puml-link:dhw:sqldb:sqlparse.repoobject_sqlmodules_52_identitfier_quotename.adoc[]" as sqlparse.RepoObject_SqlModules_52_Identitfier_QuoteName << V >> {
  --
}

entity "puml-link:dhw:sqldb:sqlparse.repoobject_sqlmodules_61_selectidentifier_union.adoc[]" as sqlparse.RepoObject_SqlModules_61_SelectIdentifier_Union << V >> {
  --
}

sqlparse.RepoObject_SqlModules_51_Identitfier <.. sqlparse.RepoObject_SqlModules_52_Identitfier_QuoteName
sqlparse.RepoObject_SqlModules_52_Identitfier_QuoteName <.. sqlparse.RepoObject_SqlModules_61_SelectIdentifier_Unionfooter The diagram is interactive and contains links.
@enduml

