@startuml
left to right direction
'top to bottom direction
hide circle
'avoide "." issues:
set namespaceSeparator none


skinparam class {
  BackgroundColor White
  BackgroundColor<<FN>> Yellow
  BackgroundColor<<FS>> Yellow
  BackgroundColor<<FT>> LightGray
  BackgroundColor<<IF>> Yellow
  BackgroundColor<<IS>> Yellow
  BackgroundColor<<P>> Aqua
  BackgroundColor<<PC>> Aqua
  BackgroundColor<<SN>> Yellow
  BackgroundColor<<SO>> SlateBlue
  BackgroundColor<<TF>> LightGray
  BackgroundColor<<TR>> Tomato
  BackgroundColor<<U>> White
  BackgroundColor<<V>> WhiteSmoke
  BackgroundColor<<X>> Aqua
  BackgroundColor<<external>> AliceBlue
}


entity "puml-link:dhw:sqldb:configt.join_type.adoc[]" as configT.join_type << V >> {
  - **join_type** : (varchar(16))
  --
}

entity "puml-link:dhw:sqldb:sqlparse.repoobject_sqlmodules_20_statement_children.adoc[]" as sqlparse.RepoObject_SqlModules_20_statement_children << V >> {
  - **RepoObject_guid** : (uniqueidentifier)
  - **json_key** : (nvarchar(4000))
  --
}

entity "puml-link:dhw:sqldb:sqlparse.repoobject_sqlmodules_22_identifier_alias_as.adoc[]" as sqlparse.RepoObject_SqlModules_22_identifier_alias_AS << V >> {
  - **RepoObject_guid** : (uniqueidentifier)
  - **json_key** : (nvarchar(4000))
  **RowNumber** : (bigint)
  --
}

entity "puml-link:dhw:sqldb:sqlparse.repoobject_sqlmodules_39_object.adoc[]" as sqlparse.RepoObject_SqlModules_39_object << V >> {
  --
}

entity "puml-link:dhw:sqldb:sqlparse.repoobject_sqlmodules_41_from.adoc[]" as sqlparse.RepoObject_SqlModules_41_from << V >> {
  --
}

entity "puml-link:dhw:sqldb:sqlparse.repoobject_sqlmodules_41_from_t.adoc[]" as sqlparse.RepoObject_SqlModules_41_from_T << U >> {
  --
}

entity "puml-link:dhw:sqldb:sqlparse.usp_persist_repoobject_sqlmodules_41_from_t.adoc[]" as sqlparse.usp_PERSIST_RepoObject_SqlModules_41_from_T << P >> {
  --
}

configT.join_type <.. sqlparse.RepoObject_SqlModules_41_from
sqlparse.RepoObject_SqlModules_20_statement_children <.. sqlparse.RepoObject_SqlModules_41_from
sqlparse.RepoObject_SqlModules_22_identifier_alias_AS <.. sqlparse.RepoObject_SqlModules_41_from
sqlparse.RepoObject_SqlModules_39_object <.. sqlparse.RepoObject_SqlModules_41_from
sqlparse.RepoObject_SqlModules_41_from <.. sqlparse.RepoObject_SqlModules_41_from_T
sqlparse.RepoObject_SqlModules_41_from <.. sqlparse.usp_PERSIST_RepoObject_SqlModules_41_from_Tfooter The diagram is interactive and contains links.
@enduml

