@startuml
left to right direction
'top to bottom direction
hide circle
'avoide "." issues:
set namespaceSeparator none


skinparam class {
  BackgroundColor White
  BackgroundColor<<FN>> Yellow
  BackgroundColor<<FS>> Yellow
  BackgroundColor<<FT>> LightGray
  BackgroundColor<<IF>> Yellow
  BackgroundColor<<IS>> Yellow
  BackgroundColor<<P>> Aqua
  BackgroundColor<<PC>> Aqua
  BackgroundColor<<SN>> Yellow
  BackgroundColor<<SO>> SlateBlue
  BackgroundColor<<TF>> LightGray
  BackgroundColor<<TR>> Tomato
  BackgroundColor<<U>> White
  BackgroundColor<<V>> WhiteSmoke
  BackgroundColor<<X>> Aqua
  BackgroundColor<<external>> AliceBlue
}


entity "puml-link:dhw:sqldb:reference.repoobjectcolumn_reference_sqlmodules.adoc[]" as reference.RepoObjectColumn_reference_SqlModules << V >> {
  **referencing_id** : (int)
  **referencing_minor_id** : (int)
  **referenced_id** : (int)
  **referenced_minor_id** : (int)
  --
}

entity "puml-link:dhw:sqldb:sqlparse.repoobject_sqlmodules_71_reference_explicitetablealias.adoc[]" as sqlparse.RepoObject_SqlModules_71_reference_ExpliciteTableAlias << V >> {
  --
}

entity "puml-link:dhw:sqldb:sqlparse.repoobject_sqlmodules_72_reference_notablealias.adoc[]" as sqlparse.RepoObject_SqlModules_72_reference_NoTableAlias << V >> {
  --
}

entity "puml-link:dhw:sqldb:sqlparse.repoobject_sqlmodules_79_reference_union.adoc[]" as sqlparse.RepoObject_SqlModules_79_reference_union << V >> {
  --
}

sqlparse.RepoObject_SqlModules_71_reference_ExpliciteTableAlias <.. sqlparse.RepoObject_SqlModules_79_reference_union
sqlparse.RepoObject_SqlModules_72_reference_NoTableAlias <.. sqlparse.RepoObject_SqlModules_79_reference_union
sqlparse.RepoObject_SqlModules_79_reference_union <.. reference.RepoObjectColumn_reference_SqlModulesfooter The diagram is interactive and contains links.
@enduml

