@startuml
left to right direction
'top to bottom direction
hide circle
'avoide "." issues:
set namespaceSeparator none


skinparam class {
  BackgroundColor White
  BackgroundColor<<FN>> Yellow
  BackgroundColor<<FS>> Yellow
  BackgroundColor<<FT>> LightGray
  BackgroundColor<<IF>> Yellow
  BackgroundColor<<IS>> Yellow
  BackgroundColor<<P>> Aqua
  BackgroundColor<<PC>> Aqua
  BackgroundColor<<SN>> Yellow
  BackgroundColor<<SO>> SlateBlue
  BackgroundColor<<TF>> LightGray
  BackgroundColor<<TR>> Tomato
  BackgroundColor<<U>> White
  BackgroundColor<<V>> WhiteSmoke
  BackgroundColor<<X>> Aqua
  BackgroundColor<<external>> AliceBlue
}


entity "puml-link:dhw:sqldb:sqlparse.repoobject_sqlmodules_26_identifierlist_children_identifiersplit_quotename.adoc[]" as sqlparse.RepoObject_SqlModules_26_IdentifierList_children_IdentifierSplit_QuoteName << V >> {
  --
}

entity "puml-link:dhw:sqldb:sqlparse.repoobject_sqlmodules_39_object.adoc[]" as sqlparse.RepoObject_SqlModules_39_object << V >> {
  --
}

entity "puml-link:dhw:sqldb:sqlparse.repoobject_sqlmodules_52_identitfier_quotename.adoc[]" as sqlparse.RepoObject_SqlModules_52_Identitfier_QuoteName << V >> {
  --
}

entity "puml-link:dhw:sqldb:sqlparse.repoobject_sqlmodules_61_selectidentifier_union.adoc[]" as sqlparse.RepoObject_SqlModules_61_SelectIdentifier_Union << V >> {
  --
}

entity "puml-link:dhw:sqldb:sqlparse.repoobject_sqlmodules_61_selectidentifier_union_t.adoc[]" as sqlparse.RepoObject_SqlModules_61_SelectIdentifier_Union_T << U >> {
  --
}

entity "puml-link:dhw:sqldb:sqlparse.usp_persist_repoobject_sqlmodules_61_selectidentifier_union_t.adoc[]" as sqlparse.usp_PERSIST_RepoObject_SqlModules_61_SelectIdentifier_Union_T << P >> {
  --
}

sqlparse.RepoObject_SqlModules_26_IdentifierList_children_IdentifierSplit_QuoteName <.. sqlparse.RepoObject_SqlModules_61_SelectIdentifier_Union
sqlparse.RepoObject_SqlModules_39_object <.. sqlparse.RepoObject_SqlModules_61_SelectIdentifier_Union
sqlparse.RepoObject_SqlModules_52_Identitfier_QuoteName <.. sqlparse.RepoObject_SqlModules_61_SelectIdentifier_Union
sqlparse.RepoObject_SqlModules_61_SelectIdentifier_Union <.. sqlparse.RepoObject_SqlModules_61_SelectIdentifier_Union_T
sqlparse.RepoObject_SqlModules_61_SelectIdentifier_Union <.. sqlparse.usp_PERSIST_RepoObject_SqlModules_61_SelectIdentifier_Union_T
@enduml

