@startuml
left to right direction
'top to bottom direction
hide circle
'avoide "." issues:
set namespaceSeparator none


skinparam class {
  BackgroundColor White
  BackgroundColor<<FN>> Yellow
  BackgroundColor<<FS>> Yellow
  BackgroundColor<<FT>> LightGray
  BackgroundColor<<IF>> Yellow
  BackgroundColor<<IS>> Yellow
  BackgroundColor<<P>> Aqua
  BackgroundColor<<PC>> Aqua
  BackgroundColor<<SN>> Yellow
  BackgroundColor<<SO>> SlateBlue
  BackgroundColor<<TF>> LightGray
  BackgroundColor<<TR>> Tomato
  BackgroundColor<<U>> White
  BackgroundColor<<V>> WhiteSmoke
  BackgroundColor<<X>> Aqua
  BackgroundColor<<external>> AliceBlue
}


entity "puml-link:dhw:sqldb:sqlparse.repoobject_sqlmodules_20_statement_children.adoc[]" as sqlparse.RepoObject_SqlModules_20_statement_children << V >> {
  - **RepoObject_guid** : (uniqueidentifier)
  - **json_key** : (nvarchar(4000))
  --
}

entity "puml-link:dhw:sqldb:sqlparse.repoobject_sqlmodules_29_1_object_is_union.adoc[]" as sqlparse.RepoObject_SqlModules_29_1_object_is_union << V >> {
  --
}

entity "puml-link:dhw:sqldb:sqlparse.repoobject_sqlmodules_39_object.adoc[]" as sqlparse.RepoObject_SqlModules_39_object << V >> {
  --
}

entity "puml-link:dhw:sqldb:sqlparse.repoobject_sqlmodules_42_from_identifier.adoc[]" as sqlparse.RepoObject_SqlModules_42_from_Identifier << V >> {
  --
}

sqlparse.RepoObject_SqlModules_20_statement_children <.. sqlparse.RepoObject_SqlModules_29_1_object_is_union
sqlparse.RepoObject_SqlModules_29_1_object_is_union <.. sqlparse.RepoObject_SqlModules_39_object
sqlparse.RepoObject_SqlModules_29_1_object_is_union <.. sqlparse.RepoObject_SqlModules_42_from_Identifierfooter The diagram is interactive and contains links.
@enduml

