@startuml
left to right direction
'top to bottom direction
hide circle
'avoide "." issues:
set namespaceSeparator none


skinparam class {
  BackgroundColor White
  BackgroundColor<<FN>> Yellow
  BackgroundColor<<FS>> Yellow
  BackgroundColor<<FT>> LightGray
  BackgroundColor<<IF>> Yellow
  BackgroundColor<<IS>> Yellow
  BackgroundColor<<P>> Aqua
  BackgroundColor<<PC>> Aqua
  BackgroundColor<<SN>> Yellow
  BackgroundColor<<SO>> SlateBlue
  BackgroundColor<<TF>> LightGray
  BackgroundColor<<TR>> Tomato
  BackgroundColor<<U>> White
  BackgroundColor<<V>> WhiteSmoke
  BackgroundColor<<X>> Aqua
  BackgroundColor<<external>> AliceBlue
}


entity "puml-link:dhw:sqldb:logs.usp_executionlog_insert.adoc[]" as logs.usp_ExecutionLog_insert << P >> {
  --
}

entity "puml-link:dhw:sqldb:sqlparse.repoobject_sqlmodules_41_from.adoc[]" as sqlparse.RepoObject_SqlModules_41_from << V >> {
  --
}

entity "puml-link:dhw:sqldb:sqlparse.repoobject_sqlmodules_41_from_t.adoc[]" as sqlparse.RepoObject_SqlModules_41_from_T << U >> {
  --
}

entity "puml-link:dhw:sqldb:sqlparse.usp_persist_repoobject_sqlmodules_41_from_t.adoc[]" as sqlparse.usp_PERSIST_RepoObject_SqlModules_41_from_T << P >> {
  --
}

entity "puml-link:dhw:sqldb:sqlparse.usp_sqlparse.adoc[]" as sqlparse.usp_sqlparse << P >> {
  --
}

logs.usp_ExecutionLog_insert <.. sqlparse.usp_PERSIST_RepoObject_SqlModules_41_from_T
sqlparse.RepoObject_SqlModules_41_from <.. sqlparse.usp_PERSIST_RepoObject_SqlModules_41_from_T
sqlparse.RepoObject_SqlModules_41_from_T <.. sqlparse.usp_PERSIST_RepoObject_SqlModules_41_from_T
sqlparse.usp_PERSIST_RepoObject_SqlModules_41_from_T <.. sqlparse.usp_sqlparsefooter The diagram is interactive and contains links.
@enduml

