@startuml
left to right direction
'top to bottom direction
hide circle
'avoide "." issues:
set namespaceSeparator none


skinparam class {
  BackgroundColor White
  BackgroundColor<<FN>> Yellow
  BackgroundColor<<FS>> Yellow
  BackgroundColor<<FT>> LightGray
  BackgroundColor<<IF>> Yellow
  BackgroundColor<<IS>> Yellow
  BackgroundColor<<P>> Aqua
  BackgroundColor<<PC>> Aqua
  BackgroundColor<<SN>> Yellow
  BackgroundColor<<SO>> SlateBlue
  BackgroundColor<<TF>> LightGray
  BackgroundColor<<TR>> Tomato
  BackgroundColor<<U>> White
  BackgroundColor<<V>> WhiteSmoke
  BackgroundColor<<X>> Aqua
  BackgroundColor<<external>> AliceBlue
}


entity "puml-link:dhw:sqldb:repo.repoobject.adoc[]" as repo.RepoObject << U >> {
  - **RepoObject_guid** : (uniqueidentifier)
  --
}

entity "puml-link:dhw:sqldb:repo.repoobjectcolumn.adoc[]" as repo.RepoObjectColumn << U >> {
  - **RepoObjectColumn_guid** : (uniqueidentifier)
  --
}

entity "puml-link:dhw:sqldb:sqlparse.repoobject_sqlmodules_44_from_identifier_quotename.adoc[]" as sqlparse.RepoObject_SqlModules_44_from_Identifier_QuoteName << V >> {
  --
}

entity "puml-link:dhw:sqldb:sqlparse.repoobject_sqlmodules_61_selectidentifier_union_t.adoc[]" as sqlparse.RepoObject_SqlModules_61_SelectIdentifier_Union_T << U >> {
  --
}

entity "puml-link:dhw:sqldb:sqlparse.repoobject_sqlmodules_71_reference_explicitetablealias.adoc[]" as sqlparse.RepoObject_SqlModules_71_reference_ExpliciteTableAlias << V >> {
  --
}

entity "puml-link:dhw:sqldb:sqlparse.repoobject_sqlmodules_79_reference_union.adoc[]" as sqlparse.RepoObject_SqlModules_79_reference_union << V >> {
  --
}

repo.RepoObject <.. sqlparse.RepoObject_SqlModules_71_reference_ExpliciteTableAlias
repo.RepoObjectColumn <.. sqlparse.RepoObject_SqlModules_71_reference_ExpliciteTableAlias
sqlparse.RepoObject_SqlModules_44_from_Identifier_QuoteName <.. sqlparse.RepoObject_SqlModules_71_reference_ExpliciteTableAlias
sqlparse.RepoObject_SqlModules_61_SelectIdentifier_Union_T <.. sqlparse.RepoObject_SqlModules_71_reference_ExpliciteTableAlias
sqlparse.RepoObject_SqlModules_71_reference_ExpliciteTableAlias <.. sqlparse.RepoObject_SqlModules_79_reference_union
@enduml

