@startuml
left to right direction
'top to bottom direction
hide circle
'avoide "." issues:
set namespaceSeparator none


skinparam class {
  BackgroundColor White
  BackgroundColor<<FN>> Yellow
  BackgroundColor<<FS>> Yellow
  BackgroundColor<<FT>> LightGray
  BackgroundColor<<IF>> Yellow
  BackgroundColor<<IS>> Yellow
  BackgroundColor<<P>> Aqua
  BackgroundColor<<PC>> Aqua
  BackgroundColor<<SN>> Yellow
  BackgroundColor<<SO>> SlateBlue
  BackgroundColor<<TF>> LightGray
  BackgroundColor<<TR>> Tomato
  BackgroundColor<<U>> White
  BackgroundColor<<V>> WhiteSmoke
  BackgroundColor<<X>> Aqua
  BackgroundColor<<external>> AliceBlue
}


entity "puml-link:dhw:sqldb:sqlparse.repoobject_sqlmodules_61_selectidentifier_union.adoc[]" as sqlparse.RepoObject_SqlModules_61_SelectIdentifier_Union << V >> {
  --
}

entity "puml-link:dhw:sqldb:sqlparse.repoobject_sqlmodules_61_selectidentifier_union_t.adoc[]" as sqlparse.RepoObject_SqlModules_61_SelectIdentifier_Union_T << U >> {
  --
}

entity "puml-link:dhw:sqldb:sqlparse.repoobject_sqlmodules_71_reference_explicitetablealias.adoc[]" as sqlparse.RepoObject_SqlModules_71_reference_ExpliciteTableAlias << V >> {
  --
}

entity "puml-link:dhw:sqldb:sqlparse.repoobject_sqlmodules_72_reference_notablealias.adoc[]" as sqlparse.RepoObject_SqlModules_72_reference_NoTableAlias << V >> {
  --
}

entity "puml-link:dhw:sqldb:sqlparse.usp_persist_repoobject_sqlmodules_61_selectidentifier_union_t.adoc[]" as sqlparse.usp_PERSIST_RepoObject_SqlModules_61_SelectIdentifier_Union_T << P >> {
  --
}

sqlparse.RepoObject_SqlModules_61_SelectIdentifier_Union <.. sqlparse.RepoObject_SqlModules_61_SelectIdentifier_Union_T
sqlparse.RepoObject_SqlModules_61_SelectIdentifier_Union_T <.. sqlparse.RepoObject_SqlModules_72_reference_NoTableAlias
sqlparse.RepoObject_SqlModules_61_SelectIdentifier_Union_T <.. sqlparse.usp_PERSIST_RepoObject_SqlModules_61_SelectIdentifier_Union_T
sqlparse.RepoObject_SqlModules_61_SelectIdentifier_Union_T <.. sqlparse.RepoObject_SqlModules_71_reference_ExpliciteTableAlias
@enduml

