@startuml
left to right direction
'top to bottom direction
hide circle
'avoide "." issues:
set namespaceSeparator none


skinparam class {
  BackgroundColor White
  BackgroundColor<<FN>> Yellow
  BackgroundColor<<FS>> Yellow
  BackgroundColor<<FT>> LightGray
  BackgroundColor<<IF>> Yellow
  BackgroundColor<<IS>> Yellow
  BackgroundColor<<P>> Aqua
  BackgroundColor<<PC>> Aqua
  BackgroundColor<<SN>> Yellow
  BackgroundColor<<SO>> SlateBlue
  BackgroundColor<<TF>> LightGray
  BackgroundColor<<TR>> Tomato
  BackgroundColor<<U>> White
  BackgroundColor<<V>> WhiteSmoke
  BackgroundColor<<X>> Aqua
  BackgroundColor<<external>> AliceBlue
}


entity "puml-link:dhw:sqldb:sqlparse.ftv_sqlparse_with_some_children.adoc[]" as sqlparse.ftv_sqlparse_with_some_children << IF >> {
  --
}

entity "puml-link:dhw:sqldb:sqlparse.repoobject_sqlmodules_20_statement_children.adoc[]" as sqlparse.RepoObject_SqlModules_20_statement_children << V >> {
  - **RepoObject_guid** : (uniqueidentifier)
  - **json_key** : (nvarchar(4000))
  --
}

entity "puml-link:dhw:sqldb:sqlparse.repoobject_sqlmodules_24_identifierlist_children.adoc[]" as sqlparse.RepoObject_SqlModules_24_IdentifierList_children << V >> {
  - **RepoObject_guid** : (uniqueidentifier)
  - **json_key** : (nvarchar(4000))
  - **T2_json_key** : (nvarchar(4000))
  --
}

entity "puml-link:dhw:sqldb:sqlparse.repoobject_sqlmodules_25_identifierlist_children_identifiersplit.adoc[]" as sqlparse.RepoObject_SqlModules_25_IdentifierList_children_IdentifierSplit << V >> {
  --
}

sqlparse.ftv_sqlparse_with_some_children <.. sqlparse.RepoObject_SqlModules_24_IdentifierList_children
sqlparse.RepoObject_SqlModules_20_statement_children <.. sqlparse.RepoObject_SqlModules_24_IdentifierList_children
sqlparse.RepoObject_SqlModules_24_IdentifierList_children <.. sqlparse.RepoObject_SqlModules_25_IdentifierList_children_IdentifierSplit
@enduml

