@startuml
left to right direction
'top to bottom direction
hide circle
'avoide "." issues:
set namespaceSeparator none


skinparam class {
  BackgroundColor White
  BackgroundColor<<FN>> Yellow
  BackgroundColor<<FS>> Yellow
  BackgroundColor<<FT>> LightGray
  BackgroundColor<<IF>> Yellow
  BackgroundColor<<IS>> Yellow
  BackgroundColor<<P>> Aqua
  BackgroundColor<<PC>> Aqua
  BackgroundColor<<SN>> Yellow
  BackgroundColor<<SO>> SlateBlue
  BackgroundColor<<TF>> LightGray
  BackgroundColor<<TR>> Tomato
  BackgroundColor<<U>> White
  BackgroundColor<<V>> WhiteSmoke
  BackgroundColor<<X>> Aqua
  BackgroundColor<<external>> AliceBlue
}


entity "puml-link:dhw:sqldb:ssas.measures_translation.adoc[]" as ssas.Measures_translation << V >> {
  - **Measure_guid** : (uniqueidentifier)
  - **cultures_name** : (nvarchar(10))
  **RepoObject_name** : (nvarchar(128))
  --
}

entity "puml-link:dhw:sqldb:ssas.model_json_34111_cultures_translations_model_tables.adoc[]" as ssas.model_json_34111_cultures_translations_model_tables << V >> {
  --
}

entity "puml-link:dhw:sqldb:ssas.model_json_341113_cultures_translations_model_tables_measures.adoc[]" as ssas.model_json_341113_cultures_translations_model_tables_measures << V >> {
  --
}

ssas.model_json_34111_cultures_translations_model_tables <.. ssas.model_json_341113_cultures_translations_model_tables_measures
ssas.model_json_341113_cultures_translations_model_tables_measures <.. ssas.Measures_translationfooter The diagram is interactive and contains links.
@enduml

