@startuml
left to right direction
'top to bottom direction
hide circle
'avoide "." issues:
set namespaceSeparator none


skinparam class {
  BackgroundColor White
  BackgroundColor<<FN>> Yellow
  BackgroundColor<<FS>> Yellow
  BackgroundColor<<FT>> LightGray
  BackgroundColor<<IF>> Yellow
  BackgroundColor<<IS>> Yellow
  BackgroundColor<<P>> Aqua
  BackgroundColor<<PC>> Aqua
  BackgroundColor<<SN>> Yellow
  BackgroundColor<<SO>> SlateBlue
  BackgroundColor<<TF>> LightGray
  BackgroundColor<<TR>> Tomato
  BackgroundColor<<U>> White
  BackgroundColor<<V>> WhiteSmoke
  BackgroundColor<<X>> Aqua
  BackgroundColor<<external>> AliceBlue
}


entity "puml-link:dhw:sqldb:repo.reposchema_ssas_src.adoc[]" as repo.RepoSchema_ssas_src << V >> {
  --
}

entity "puml-link:dhw:sqldb:ssas.model_json_10.adoc[]" as ssas.model_json_10 << V >> {
  --
}

entity "puml-link:dhw:sqldb:ssas.model_json_20.adoc[]" as ssas.model_json_20 << V >> {
  --
}

entity "puml-link:dhw:sqldb:ssas.model_json_201_descriptions_multiline.adoc[]" as ssas.model_json_201_descriptions_multiline << V >> {
  --
}

entity "puml-link:dhw:sqldb:ssas.model_json_31_tables.adoc[]" as ssas.model_json_31_tables << V >> {
  - **databasename** : (nvarchar(128))
  **tables_name** : (nvarchar(128))
  --
}

entity "puml-link:dhw:sqldb:ssas.model_json_32_relationships.adoc[]" as ssas.model_json_32_relationships << V >> {
  - **databasename** : (nvarchar(128))
  **relationships_name** : (nvarchar(500))
  --
}

entity "puml-link:dhw:sqldb:ssas.model_json_33_datasources.adoc[]" as ssas.model_json_33_dataSources << V >> {
  - **databasename** : (nvarchar(128))
  **dataSources_name** : (nvarchar(500))
  --
}

entity "puml-link:dhw:sqldb:ssas.model_json_34_cultures.adoc[]" as ssas.model_json_34_cultures << V >> {
  - **databasename** : (nvarchar(128))
  **cultures_name** : (nvarchar(500))
  --
}

entity "puml-link:dhw:sqldb:ssas.model_json_35_roles.adoc[]" as ssas.model_json_35_roles << V >> {
  - **databasename** : (nvarchar(128))
  **roles_name** : (nvarchar(500))
  --
}

entity "puml-link:dhw:sqldb:ssas.model_json_36_perspectives.adoc[]" as ssas.model_json_36_perspectives << V >> {
  - **databasename** : (nvarchar(128))
  **perspectives_name** : (nvarchar(500))
  --
}

ssas.model_json_10 <.. ssas.model_json_20
ssas.model_json_20 <.. ssas.model_json_32_relationships
ssas.model_json_20 <.. ssas.model_json_33_dataSources
ssas.model_json_20 <.. ssas.model_json_34_cultures
ssas.model_json_20 <.. repo.RepoSchema_ssas_src
ssas.model_json_20 <.. ssas.model_json_31_tables
ssas.model_json_20 <.. ssas.model_json_35_roles
ssas.model_json_20 <.. ssas.model_json_36_perspectives
ssas.model_json_20 <.. ssas.model_json_201_descriptions_multilinefooter The diagram is interactive and contains links.
@enduml

