@startuml
left to right direction
'top to bottom direction
hide circle
'avoide "." issues:
set namespaceSeparator none


skinparam class {
  BackgroundColor White
  BackgroundColor<<FN>> Yellow
  BackgroundColor<<FS>> Yellow
  BackgroundColor<<FT>> LightGray
  BackgroundColor<<IF>> Yellow
  BackgroundColor<<IS>> Yellow
  BackgroundColor<<P>> Aqua
  BackgroundColor<<PC>> Aqua
  BackgroundColor<<SN>> Yellow
  BackgroundColor<<SO>> SlateBlue
  BackgroundColor<<TF>> LightGray
  BackgroundColor<<TR>> Tomato
  BackgroundColor<<U>> White
  BackgroundColor<<V>> WhiteSmoke
  BackgroundColor<<X>> Aqua
  BackgroundColor<<external>> AliceBlue
}


entity "puml-link:dhw:sqldb:ssas.indexcolumn_from_relationship.adoc[]" as ssas.IndexColumn_from_Relationship << V >> {
  --
}

entity "puml-link:dhw:sqldb:ssas.indexcolumn_union.adoc[]" as ssas.IndexColumn_union << V >> {
  --
}

entity "puml-link:dhw:sqldb:ssas.model_json_311_tables_columns_t.adoc[]" as ssas.model_json_311_tables_columns_T << U >> {
  - **databasename** : (nvarchar(128))
  - **tables_name** : (nvarchar(128))
  **tables_columns_name** : (nvarchar(128))
  --
}

entity "puml-link:dhw:sqldb:ssas.model_json_32_relationships_t.adoc[]" as ssas.model_json_32_relationships_T << U >> {
  - **ForeignKey_guid** : (uniqueidentifier)
  --
}

ssas.IndexColumn_from_Relationship <.. ssas.IndexColumn_union
ssas.model_json_311_tables_columns_T <.. ssas.IndexColumn_from_Relationship
ssas.model_json_32_relationships_T <.. ssas.IndexColumn_from_Relationshipfooter The diagram is interactive and contains links.
@enduml

