@startuml
left to right direction
'top to bottom direction
hide circle
'avoide "." issues:
set namespaceSeparator none


skinparam class {
  BackgroundColor White
  BackgroundColor<<FN>> Yellow
  BackgroundColor<<FS>> Yellow
  BackgroundColor<<FT>> LightGray
  BackgroundColor<<IF>> Yellow
  BackgroundColor<<IS>> Yellow
  BackgroundColor<<P>> Aqua
  BackgroundColor<<PC>> Aqua
  BackgroundColor<<SN>> Yellow
  BackgroundColor<<SO>> SlateBlue
  BackgroundColor<<TF>> LightGray
  BackgroundColor<<TR>> Tomato
  BackgroundColor<<U>> White
  BackgroundColor<<V>> WhiteSmoke
  BackgroundColor<<X>> Aqua
  BackgroundColor<<external>> AliceBlue
}


entity "puml-link:dhw:sqldb:ssas.model_json_311_tables_columns_t.adoc[]" as ssas.model_json_311_tables_columns_T << U >> {
  - **databasename** : (nvarchar(128))
  - **tables_name** : (nvarchar(128))
  **tables_columns_name** : (nvarchar(128))
  --
}

entity "puml-link:dhw:sqldb:ssas.model_json_3112_tables_columns_expressions_multiline.adoc[]" as ssas.model_json_3112_tables_columns_expressions_multiline << V >> {
  --
}

entity "puml-link:dhw:sqldb:ssas.model_json_31121_tables_columns_expressions_stragg.adoc[]" as ssas.model_json_31121_tables_columns_expressions_StrAgg << V >> {
  --
}

ssas.model_json_311_tables_columns_T <.. ssas.model_json_3112_tables_columns_expressions_multiline
ssas.model_json_3112_tables_columns_expressions_multiline <.. ssas.model_json_31121_tables_columns_expressions_StrAggfooter The diagram is interactive and contains links.
@enduml

