@startuml
left to right direction
'top to bottom direction
hide circle
'avoide "." issues:
set namespaceSeparator none


skinparam class {
  BackgroundColor White
  BackgroundColor<<FN>> Yellow
  BackgroundColor<<FS>> Yellow
  BackgroundColor<<FT>> LightGray
  BackgroundColor<<IF>> Yellow
  BackgroundColor<<IS>> Yellow
  BackgroundColor<<P>> Aqua
  BackgroundColor<<PC>> Aqua
  BackgroundColor<<SN>> Yellow
  BackgroundColor<<SO>> SlateBlue
  BackgroundColor<<TF>> LightGray
  BackgroundColor<<TR>> Tomato
  BackgroundColor<<U>> White
  BackgroundColor<<V>> WhiteSmoke
  BackgroundColor<<X>> Aqua
  BackgroundColor<<external>> AliceBlue
}


entity "puml-link:dhw:sqldb:ssas.model_json_20.adoc[]" as ssas.model_json_20 << V >> {
  --
}

entity "puml-link:dhw:sqldb:ssas.model_json_34_cultures.adoc[]" as ssas.model_json_34_cultures << V >> {
  - **databasename** : (nvarchar(128))
  **cultures_name** : (nvarchar(500))
  --
}

entity "puml-link:dhw:sqldb:ssas.model_json_341_cultures_translations.adoc[]" as ssas.model_json_341_cultures_translations << V >> {
  --
}

ssas.model_json_20 <.. ssas.model_json_34_cultures
ssas.model_json_34_cultures <.. ssas.model_json_341_cultures_translationsfooter The diagram is interactive and contains links.
@enduml

