@startuml
left to right direction
'top to bottom direction
hide circle
'avoide "." issues:
set namespaceSeparator none


skinparam class {
  BackgroundColor White
  BackgroundColor<<FN>> Yellow
  BackgroundColor<<FS>> Yellow
  BackgroundColor<<FT>> LightGray
  BackgroundColor<<IF>> Yellow
  BackgroundColor<<IS>> Yellow
  BackgroundColor<<P>> Aqua
  BackgroundColor<<PC>> Aqua
  BackgroundColor<<SN>> Yellow
  BackgroundColor<<SO>> SlateBlue
  BackgroundColor<<TF>> LightGray
  BackgroundColor<<TR>> Tomato
  BackgroundColor<<U>> White
  BackgroundColor<<V>> WhiteSmoke
  BackgroundColor<<X>> Aqua
  BackgroundColor<<external>> AliceBlue
}


entity "puml-link:dhw:sqldb:logs.usp_executionlog_insert.adoc[]" as logs.usp_ExecutionLog_insert << P >> {
  --
}

entity "puml-link:dhw:sqldb:repo.usp_sync_guid_ssas.adoc[]" as repo.usp_sync_guid_ssas << P >> {
  --
}

entity "puml-link:dhw:sqldb:ssas.model_json_32_relationships.adoc[]" as ssas.model_json_32_relationships << V >> {
  - **databasename** : (nvarchar(128))
  **relationships_name** : (nvarchar(500))
  --
}

entity "puml-link:dhw:sqldb:ssas.model_json_32_relationships_t.adoc[]" as ssas.model_json_32_relationships_T << U >> {
  - **ForeignKey_guid** : (uniqueidentifier)
  --
}

entity "puml-link:dhw:sqldb:ssas.usp_persist_model_json_32_relationships_t.adoc[]" as ssas.usp_PERSIST_model_json_32_relationships_T << P >> {
  --
}

logs.usp_ExecutionLog_insert <.. ssas.usp_PERSIST_model_json_32_relationships_T
ssas.model_json_32_relationships <.. ssas.usp_PERSIST_model_json_32_relationships_T
ssas.model_json_32_relationships_T <.. ssas.usp_PERSIST_model_json_32_relationships_T
ssas.usp_PERSIST_model_json_32_relationships_T <.. repo.usp_sync_guid_ssasfooter The diagram is interactive and contains links.
@enduml

