@startuml
left to right direction
'top to bottom direction
hide circle
'avoide "." issues:
set namespaceSeparator none


skinparam class {
  BackgroundColor White
  BackgroundColor<<FN>> Yellow
  BackgroundColor<<FS>> Yellow
  BackgroundColor<<FT>> LightGray
  BackgroundColor<<IF>> Yellow
  BackgroundColor<<IS>> Yellow
  BackgroundColor<<P>> Aqua
  BackgroundColor<<PC>> Aqua
  BackgroundColor<<SN>> Yellow
  BackgroundColor<<SO>> SlateBlue
  BackgroundColor<<TF>> LightGray
  BackgroundColor<<TR>> Tomato
  BackgroundColor<<U>> White
  BackgroundColor<<V>> WhiteSmoke
  BackgroundColor<<X>> Aqua
  BackgroundColor<<external>> AliceBlue
}


entity "puml-link:dhw:sqldb:repo.index_ssas.adoc[]" as repo.Index_ssas << V >> {
  - **databasename** : (nvarchar(128))
  **index_name** : (nvarchar(450))
  --
}

entity "puml-link:dhw:sqldb:repo.indexcolumn_ssas.adoc[]" as repo.IndexColumn_ssas << V >> {
  - **index_guid** : (uniqueidentifier)
  - **index_column_id** : (int)
  --
}

entity "puml-link:dhw:sqldb:ssas.indexcolumn_from_iskey.adoc[]" as ssas.IndexColumn_from_IsKey << V >> {
  --
}

entity "puml-link:dhw:sqldb:ssas.indexcolumn_from_isunique.adoc[]" as ssas.IndexColumn_from_IsUnique << V >> {
  --
}

entity "puml-link:dhw:sqldb:ssas.indexcolumn_from_relationship.adoc[]" as ssas.IndexColumn_from_Relationship << V >> {
  --
}

entity "puml-link:dhw:sqldb:ssas.indexcolumn_union.adoc[]" as ssas.IndexColumn_union << V >> {
  --
}

ssas.IndexColumn_from_IsKey <.. ssas.IndexColumn_union
ssas.IndexColumn_from_IsUnique <.. ssas.IndexColumn_union
ssas.IndexColumn_from_Relationship <.. ssas.IndexColumn_union
ssas.IndexColumn_union <.. repo.Index_ssas
ssas.IndexColumn_union <.. repo.IndexColumn_ssas
@enduml

