@startuml
left to right direction
'top to bottom direction
hide circle
'avoide "." issues:
set namespaceSeparator none


skinparam class {
  BackgroundColor White
  BackgroundColor<<FN>> Yellow
  BackgroundColor<<FS>> Yellow
  BackgroundColor<<FT>> LightGray
  BackgroundColor<<IF>> Yellow
  BackgroundColor<<IS>> Yellow
  BackgroundColor<<P>> Aqua
  BackgroundColor<<PC>> Aqua
  BackgroundColor<<SN>> Yellow
  BackgroundColor<<SO>> SlateBlue
  BackgroundColor<<TF>> LightGray
  BackgroundColor<<TR>> Tomato
  BackgroundColor<<U>> White
  BackgroundColor<<V>> WhiteSmoke
  BackgroundColor<<X>> Aqua
  BackgroundColor<<external>> AliceBlue
}


entity "puml-link:dhw:sqldb:repo.repoobjectcolumn_gross.adoc[]" as repo.RepoObjectColumn_gross << V >> {
  --
}

entity "puml-link:dhw:sqldb:ssas.model_json_3111_tables_columns_descriptions_multiline.adoc[]" as ssas.model_json_3111_tables_columns_descriptions_multiline << V >> {
  --
}

entity "puml-link:dhw:sqldb:ssas.model_json_31111_tables_columns_descriptions_stragg.adoc[]" as ssas.model_json_31111_tables_columns_descriptions_StrAgg << V >> {
  --
}

ssas.model_json_3111_tables_columns_descriptions_multiline <.. ssas.model_json_31111_tables_columns_descriptions_StrAgg
ssas.model_json_31111_tables_columns_descriptions_StrAgg <.. repo.RepoObjectColumn_gross
@enduml

