@startuml
left to right direction
'top to bottom direction
hide circle
'avoide "." issues:
set namespaceSeparator none


skinparam class {
  BackgroundColor White
  BackgroundColor<<FN>> Yellow
  BackgroundColor<<FS>> Yellow
  BackgroundColor<<FT>> LightGray
  BackgroundColor<<IF>> Yellow
  BackgroundColor<<IS>> Yellow
  BackgroundColor<<P>> Aqua
  BackgroundColor<<PC>> Aqua
  BackgroundColor<<SN>> Yellow
  BackgroundColor<<SO>> SlateBlue
  BackgroundColor<<TF>> LightGray
  BackgroundColor<<TR>> Tomato
  BackgroundColor<<U>> White
  BackgroundColor<<V>> WhiteSmoke
  BackgroundColor<<X>> Aqua
  BackgroundColor<<external>> AliceBlue
}


entity "puml-link:dhw:sqldb:repo.foreignkey_ssas_indexpattern.adoc[]" as repo.ForeignKey_ssas_IndexPattern << V >> {
  --
}

entity "puml-link:dhw:sqldb:repo.repoobjectcolumn_gross.adoc[]" as repo.RepoObjectColumn_gross << V >> {
  --
}

entity "puml-link:dhw:sqldb:repo.repoobjectcolumn_ssas_src.adoc[]" as repo.RepoObjectColumn_SSAS_src << V >> {
  - **RepoObjectColumn_guid** : (uniqueidentifier)
  --
}

entity "puml-link:dhw:sqldb:ssas.additional_reference_step1.adoc[]" as ssas.additional_Reference_step1 << V >> {
  --
}

entity "puml-link:dhw:sqldb:ssas.indexcolumn_from_iskey.adoc[]" as ssas.IndexColumn_from_IsKey << V >> {
  --
}

entity "puml-link:dhw:sqldb:ssas.indexcolumn_from_isunique.adoc[]" as ssas.IndexColumn_from_IsUnique << V >> {
  --
}

entity "puml-link:dhw:sqldb:ssas.indexcolumn_from_relationship.adoc[]" as ssas.IndexColumn_from_Relationship << V >> {
  --
}

entity "puml-link:dhw:sqldb:ssas.model_json_311_tables_columns.adoc[]" as ssas.model_json_311_tables_columns << V >> {
  - **databasename** : (nvarchar(128))
  - **tables_name** : (nvarchar(128))
  **tables_columns_name** : (nvarchar(128))
  --
}

entity "puml-link:dhw:sqldb:ssas.model_json_311_tables_columns_t.adoc[]" as ssas.model_json_311_tables_columns_T << U >> {
  - **databasename** : (nvarchar(128))
  - **tables_name** : (nvarchar(128))
  **tables_columns_name** : (nvarchar(128))
  --
}

entity "puml-link:dhw:sqldb:ssas.model_json_3111_tables_columns_descriptions_multiline.adoc[]" as ssas.model_json_3111_tables_columns_descriptions_multiline << V >> {
  --
}

entity "puml-link:dhw:sqldb:ssas.model_json_3112_tables_columns_expressions_multiline.adoc[]" as ssas.model_json_3112_tables_columns_expressions_multiline << V >> {
  --
}

entity "puml-link:dhw:sqldb:ssas.repoobjectcolumn_translation.adoc[]" as ssas.RepoObjectColumn_translation << V >> {
  - **RepoObjectColumn_guid** : (uniqueidentifier)
  - **cultures_name** : (nvarchar(10))
  --
}

entity "puml-link:dhw:sqldb:ssas.usp_persist_model_json_311_tables_columns_t.adoc[]" as ssas.usp_PERSIST_model_json_311_tables_columns_T << P >> {
  --
}

ssas.model_json_311_tables_columns <.. ssas.model_json_311_tables_columns_T
ssas.model_json_311_tables_columns_T <.. repo.RepoObjectColumn_gross
ssas.model_json_311_tables_columns_T <.. ssas.IndexColumn_from_IsKey
ssas.model_json_311_tables_columns_T <.. ssas.IndexColumn_from_Relationship
ssas.model_json_311_tables_columns_T <.. ssas.IndexColumn_from_IsUnique
ssas.model_json_311_tables_columns_T <.. repo.RepoObjectColumn_SSAS_src
ssas.model_json_311_tables_columns_T <.. ssas.additional_Reference_step1
ssas.model_json_311_tables_columns_T <.. ssas.RepoObjectColumn_translation
ssas.model_json_311_tables_columns_T <.. repo.ForeignKey_ssas_IndexPattern
ssas.model_json_311_tables_columns_T <.. ssas.usp_PERSIST_model_json_311_tables_columns_T
ssas.model_json_311_tables_columns_T <.. ssas.model_json_3111_tables_columns_descriptions_multiline
ssas.model_json_311_tables_columns_T <.. ssas.model_json_3112_tables_columns_expressions_multiline
@enduml

