@startuml
left to right direction
'top to bottom direction
hide circle
'avoide "." issues:
set namespaceSeparator none


skinparam class {
  BackgroundColor White
  BackgroundColor<<FN>> Yellow
  BackgroundColor<<FS>> Yellow
  BackgroundColor<<FT>> LightGray
  BackgroundColor<<IF>> Yellow
  BackgroundColor<<IS>> Yellow
  BackgroundColor<<P>> Aqua
  BackgroundColor<<PC>> Aqua
  BackgroundColor<<SN>> Yellow
  BackgroundColor<<SO>> SlateBlue
  BackgroundColor<<TF>> LightGray
  BackgroundColor<<TR>> Tomato
  BackgroundColor<<U>> White
  BackgroundColor<<V>> WhiteSmoke
  BackgroundColor<<X>> Aqua
  BackgroundColor<<external>> AliceBlue
}


entity "puml-link:dhw:sqldb:ssas.model_json_36_perspectives.adoc[]" as ssas.model_json_36_perspectives << V >> {
  - **databasename** : (nvarchar(128))
  **perspectives_name** : (nvarchar(500))
  --
}

entity "puml-link:dhw:sqldb:ssas.model_json_361_perspectives_tables.adoc[]" as ssas.model_json_361_perspectives_tables << V >> {
  - **databasename** : (nvarchar(128))
  **perspectives_name** : (nvarchar(500))
  **perspectives_tables_name** : (nvarchar(500))
  --
}

entity "puml-link:dhw:sqldb:ssas.model_json_3611_perspectives_tables_columns.adoc[]" as ssas.model_json_3611_perspectives_tables_columns << V >> {
  - **databasename** : (nvarchar(128))
  **perspectives_name** : (nvarchar(500))
  **perspectives_tables_name** : (nvarchar(500))
  **perspectives_tables_columns_name** : (nvarchar(500))
  --
}

entity "puml-link:dhw:sqldb:ssas.model_json_3612_perspectives_tables_hierarchies.adoc[]" as ssas.model_json_3612_perspectives_tables_hierarchies << V >> {
  - **databasename** : (nvarchar(128))
  **perspectives_name** : (nvarchar(500))
  **perspectives_tables_name** : (nvarchar(500))
  **perspectives_tables_hierarchies_name** : (nvarchar(500))
  --
}

entity "puml-link:dhw:sqldb:ssas.model_json_3613_perspectives_tables_measures.adoc[]" as ssas.model_json_3613_perspectives_tables_measures << V >> {
  - **databasename** : (nvarchar(128))
  **perspectives_name** : (nvarchar(500))
  **perspectives_tables_name** : (nvarchar(500))
  **perspectives_tables_measures_name** : (nvarchar(500))
  --
}

ssas.model_json_36_perspectives <.. ssas.model_json_361_perspectives_tables
ssas.model_json_361_perspectives_tables <.. ssas.model_json_3611_perspectives_tables_columns
ssas.model_json_361_perspectives_tables <.. ssas.model_json_3613_perspectives_tables_measures
ssas.model_json_361_perspectives_tables <.. ssas.model_json_3612_perspectives_tables_hierarchiesfooter The diagram is interactive and contains links.
@enduml

