@startuml
left to right direction
'top to bottom direction
hide circle
'avoide "." issues:
set namespaceSeparator none


skinparam class {
  BackgroundColor White
  BackgroundColor<<FN>> Yellow
  BackgroundColor<<FS>> Yellow
  BackgroundColor<<FT>> LightGray
  BackgroundColor<<IF>> Yellow
  BackgroundColor<<IS>> Yellow
  BackgroundColor<<P>> Aqua
  BackgroundColor<<PC>> Aqua
  BackgroundColor<<SN>> Yellow
  BackgroundColor<<SO>> SlateBlue
  BackgroundColor<<TF>> LightGray
  BackgroundColor<<TR>> Tomato
  BackgroundColor<<U>> White
  BackgroundColor<<V>> WhiteSmoke
  BackgroundColor<<X>> Aqua
  BackgroundColor<<external>> AliceBlue
}


entity "puml-link:dhw:sqldb:ssis.antoramodule_tgt_filter.adoc[]" as ssis.AntoraModule_tgt_filter << V >> {
  --
}

entity "puml-link:dhw:sqldb:ssis.packagetask_dft_component_output.adoc[]" as ssis.PackageTask_Dft_Component_output << U >> {
  --
}

entity "puml-link:dhw:sqldb:ssis.packagetask_dft_component_output_src.adoc[]" as ssis.PackageTask_Dft_Component_output_src << V >> {
  - **AntoraModule** : (varchar(50))
  **PackageName** : (varchar(200))
  **output_refId** : (varchar(max))
  --
}

entity "puml-link:dhw:sqldb:ssis.packagetask_dft_component_output_tgt.adoc[]" as ssis.PackageTask_Dft_Component_output_tgt << V >> {
  - **AntoraModule** : (varchar(50))
  **PackageName** : (varchar(200))
  **output_refId** : (varchar(max))
  --
}

entity "puml-link:dhw:sqldb:ssis.usp_persist_packagetask_dft_component_output_tgt.adoc[]" as ssis.usp_PERSIST_PackageTask_Dft_Component_output_tgt << P >> {
  --
}

ssis.AntoraModule_tgt_filter <.. ssis.PackageTask_Dft_Component_output_tgt
ssis.PackageTask_Dft_Component_output <.. ssis.PackageTask_Dft_Component_output_tgt
ssis.PackageTask_Dft_Component_output_src <.. ssis.PackageTask_Dft_Component_output_tgt
ssis.PackageTask_Dft_Component_output_tgt <.. ssis.AntoraModule_tgt_filter
ssis.PackageTask_Dft_Component_output_tgt <.. ssis.PackageTask_Dft_Component_output
ssis.PackageTask_Dft_Component_output_tgt <.. ssis.usp_PERSIST_PackageTask_Dft_Component_output_tgtfooter The diagram is interactive and contains links.
@enduml

