@startuml
left to right direction
'top to bottom direction
hide circle
'avoide "." issues:
set namespaceSeparator none


skinparam class {
  BackgroundColor White
  BackgroundColor<<FN>> Yellow
  BackgroundColor<<FS>> Yellow
  BackgroundColor<<FT>> LightGray
  BackgroundColor<<IF>> Yellow
  BackgroundColor<<IS>> Yellow
  BackgroundColor<<P>> Aqua
  BackgroundColor<<PC>> Aqua
  BackgroundColor<<SN>> Yellow
  BackgroundColor<<SO>> SlateBlue
  BackgroundColor<<TF>> LightGray
  BackgroundColor<<TR>> Tomato
  BackgroundColor<<U>> White
  BackgroundColor<<V>> WhiteSmoke
  BackgroundColor<<X>> Aqua
  BackgroundColor<<external>> AliceBlue
}


entity "puml-link:dhw:sqldb:ssis.package_src.adoc[]" as ssis.Package_src << V >> {
  - **AntoraModule** : (varchar(50))
  **PackageName** : (varchar(200))
  --
}

entity "puml-link:dhw:sqldb:ssis.packageflow_src.adoc[]" as ssis.PackageFlow_src << V >> {
  - **AntoraModule** : (varchar(50))
  **PackageName** : (varchar(200))
  **TaskFrom** : (varchar(2000))
  **Taskto** : (varchar(2000))
  --
}

entity "puml-link:dhw:sqldb:ssis.packageflow_tgt.adoc[]" as ssis.PackageFlow_tgt << V >> {
  - **AntoraModule** : (varchar(50))
  **PackageName** : (varchar(200))
  **TaskFrom** : (varchar(2000))
  **Taskto** : (varchar(2000))
  --
}

entity "puml-link:dhw:sqldb:ssis.usp_persist_packageflow_tgt.adoc[]" as ssis.usp_PERSIST_PackageFlow_tgt << P >> {
  --
}

entity "puml-link:dhw:sqldb:ssis_t.tblprecedenceconstraint.adoc[]" as ssis_t.TblPrecedenceConstraint << U >> {
  --
}

ssis.Package_src <.. ssis.PackageFlow_src
ssis.PackageFlow_src <.. ssis.PackageFlow_tgt
ssis.PackageFlow_src <.. ssis.usp_PERSIST_PackageFlow_tgt
ssis_t.TblPrecedenceConstraint <.. ssis.PackageFlow_srcfooter The diagram is interactive and contains links.
@enduml

