@startuml
left to right direction
'top to bottom direction
hide circle
'avoide "." issues:
set namespaceSeparator none


skinparam class {
  BackgroundColor White
  BackgroundColor<<FN>> Yellow
  BackgroundColor<<FS>> Yellow
  BackgroundColor<<FT>> LightGray
  BackgroundColor<<IF>> Yellow
  BackgroundColor<<IS>> Yellow
  BackgroundColor<<P>> Aqua
  BackgroundColor<<PC>> Aqua
  BackgroundColor<<SN>> Yellow
  BackgroundColor<<SO>> SlateBlue
  BackgroundColor<<TF>> LightGray
  BackgroundColor<<TR>> Tomato
  BackgroundColor<<U>> White
  BackgroundColor<<V>> WhiteSmoke
  BackgroundColor<<X>> Aqua
  BackgroundColor<<external>> AliceBlue
}


entity "puml-link:dhw:sqldb:ssis.package_src.adoc[]" as ssis.Package_src << V >> {
  - **AntoraModule** : (varchar(50))
  **PackageName** : (varchar(200))
  --
}

entity "puml-link:dhw:sqldb:ssis.packagetask_dft_component_src.adoc[]" as ssis.PackageTask_Dft_Component_src << V >> {
  - **AntoraModule** : (varchar(50))
  **PackageName** : (varchar(200))
  **Component_refId** : (varchar(max))
  --
}

entity "puml-link:dhw:sqldb:ssis.packagetask_dft_component_tgt.adoc[]" as ssis.PackageTask_Dft_Component_tgt << V >> {
  - **AntoraModule** : (varchar(50))
  **PackageName** : (varchar(200))
  **Component_refId** : (varchar(max))
  --
}

entity "puml-link:dhw:sqldb:ssis.usp_persist_packagetask_dft_component_tgt.adoc[]" as ssis.usp_PERSIST_PackageTask_Dft_Component_tgt << P >> {
  --
}

entity "puml-link:dhw:sqldb:ssis_t.tblcontrolflow.adoc[]" as ssis_t.TblControlFlow << U >> {
  - **ControlFlowDetailsRowID** : (int)
  --
}

entity "puml-link:dhw:sqldb:ssis_t.tbltask_dft_component.adoc[]" as ssis_t.TblTask_Dft_Component << U >> {
  - **DftComponentId** : (int)
  --
}

ssis.Package_src <.. ssis.PackageTask_Dft_Component_src
ssis.PackageTask_Dft_Component_src <.. ssis.PackageTask_Dft_Component_tgt
ssis.PackageTask_Dft_Component_src <.. ssis.usp_PERSIST_PackageTask_Dft_Component_tgt
ssis_t.TblControlFlow <.. ssis.PackageTask_Dft_Component_src
ssis_t.TblTask_Dft_Component <.. ssis.PackageTask_Dft_Component_srcfooter The diagram is interactive and contains links.
@enduml

