@startuml
left to right direction
'top to bottom direction
hide circle
'avoide "." issues:
set namespaceSeparator none


skinparam class {
  BackgroundColor White
  BackgroundColor<<FN>> Yellow
  BackgroundColor<<FS>> Yellow
  BackgroundColor<<FT>> LightGray
  BackgroundColor<<IF>> Yellow
  BackgroundColor<<IS>> Yellow
  BackgroundColor<<P>> Aqua
  BackgroundColor<<PC>> Aqua
  BackgroundColor<<SN>> Yellow
  BackgroundColor<<SO>> SlateBlue
  BackgroundColor<<TF>> LightGray
  BackgroundColor<<TR>> Tomato
  BackgroundColor<<U>> White
  BackgroundColor<<V>> WhiteSmoke
  BackgroundColor<<X>> Aqua
  BackgroundColor<<external>> AliceBlue
}


entity "puml-link:dhw:sqldb:docs.ssis_connectionlist.adoc[]" as docs.ssis_ConnectionList << V >> {
  --
}

entity "puml-link:dhw:sqldb:docs.ssis_task.adoc[]" as docs.ssis_Task << V >> {
  --
}

entity "puml-link:dhw:sqldb:docs.ssis_tasklist.adoc[]" as docs.ssis_TaskList << V >> {
  --
}

entity "puml-link:dhw:sqldb:ssis.packageconnection.adoc[]" as ssis.PackageConnection << U >> {
  - **AntoraModule** : (varchar(50))
  - **PackageName** : (varchar(200))
  - **ConnectionManagerID** : (uniqueidentifier)
  --
}

entity "puml-link:dhw:sqldb:ssis.packageconnection_tgt.adoc[]" as ssis.PackageConnection_tgt << V >> {
  - **AntoraModule** : (varchar(50))
  **PackageName** : (varchar(200))
  **ConnectionManagerID** : (uniqueidentifier)
  --
}

ssis.PackageConnection <.. ssis.PackageConnection_tgt
ssis.PackageConnection <.. docs.ssis_ConnectionList
ssis.PackageConnection <.. docs.ssis_TaskList
ssis.PackageConnection <.. docs.ssis_Task
ssis.PackageConnection_tgt <.. ssis.PackageConnectionfooter The diagram is interactive and contains links.
@enduml

