@startuml
left to right direction
'top to bottom direction
hide circle
'avoide "." issues:
set namespaceSeparator none


skinparam class {
  BackgroundColor White
  BackgroundColor<<FN>> Yellow
  BackgroundColor<<FS>> Yellow
  BackgroundColor<<FT>> LightGray
  BackgroundColor<<IF>> Yellow
  BackgroundColor<<IS>> Yellow
  BackgroundColor<<P>> Aqua
  BackgroundColor<<PC>> Aqua
  BackgroundColor<<SN>> Yellow
  BackgroundColor<<SO>> SlateBlue
  BackgroundColor<<TF>> LightGray
  BackgroundColor<<TR>> Tomato
  BackgroundColor<<U>> White
  BackgroundColor<<V>> WhiteSmoke
  BackgroundColor<<X>> Aqua
  BackgroundColor<<external>> AliceBlue
}


entity "puml-link:dhw:sqldb:docs.ssis_parameterlist.adoc[]" as docs.ssis_ParameterList << V >> {
  --
}

entity "puml-link:dhw:sqldb:ssis.packageparameter.adoc[]" as ssis.PackageParameter << U >> {
  - **AntoraModule** : (varchar(50))
  - **PackageName** : (varchar(200))
  - **ParameterName** : (varchar(500))
  --
}

entity "puml-link:dhw:sqldb:ssis.packageparameter_tgt.adoc[]" as ssis.PackageParameter_tgt << V >> {
  - **AntoraModule** : (varchar(50))
  **PackageName** : (varchar(200))
  **ParameterName** : (varchar(500))
  --
}

ssis.PackageParameter <.. ssis.PackageParameter_tgt
ssis.PackageParameter <.. docs.ssis_ParameterList
ssis.PackageParameter_tgt <.. ssis.PackageParameterfooter The diagram is interactive and contains links.
@enduml

