@startuml
left to right direction
'top to bottom direction
hide circle
'avoide "." issues:
set namespaceSeparator none


skinparam class {
  BackgroundColor White
  BackgroundColor<<FN>> Yellow
  BackgroundColor<<FS>> Yellow
  BackgroundColor<<FT>> LightGray
  BackgroundColor<<IF>> Yellow
  BackgroundColor<<IS>> Yellow
  BackgroundColor<<P>> Aqua
  BackgroundColor<<PC>> Aqua
  BackgroundColor<<SN>> Yellow
  BackgroundColor<<SO>> SlateBlue
  BackgroundColor<<TF>> LightGray
  BackgroundColor<<TR>> Tomato
  BackgroundColor<<U>> White
  BackgroundColor<<V>> WhiteSmoke
  BackgroundColor<<X>> Aqua
  BackgroundColor<<external>> AliceBlue
}


entity "puml-link:dhw:sqldb:ssis.packagetask_src.adoc[]" as ssis.PackageTask_src << V >> {
  - **AntoraModule** : (varchar(50))
  **PackageName** : (varchar(200))
  **TaskPath** : (varchar(8000))
  --
}

entity "puml-link:dhw:sqldb:ssis_t.tbltask_script.adoc[]" as ssis_t.TblTask_Script << U >> {
  - **ControlFlowDetailsRowID** : (int)
  --
}

entity "puml-link:dhw:sqldb:ssis_t.usp_getpackagedetails.adoc[]" as ssis_t.usp_GetPackageDetails << P >> {
  --
}

entity "puml-link:dhw:sqldb:ssis_t.usp_packageanalysis.adoc[]" as ssis_t.usp_PackageAnalysis << P >> {
  --
}

ssis_t.TblTask_Script <.. ssis.PackageTask_src
ssis_t.TblTask_Script <.. ssis_t.usp_PackageAnalysis
ssis_t.TblTask_Script <.. ssis_t.usp_GetPackageDetailsfooter The diagram is interactive and contains links.
@enduml

