@startuml
left to right direction
'top to bottom direction
hide circle
'avoide "." issues:
set namespaceSeparator none


skinparam class {
  BackgroundColor White
  BackgroundColor<<FN>> Yellow
  BackgroundColor<<FS>> Yellow
  BackgroundColor<<FT>> LightGray
  BackgroundColor<<IF>> Yellow
  BackgroundColor<<IS>> Yellow
  BackgroundColor<<P>> Aqua
  BackgroundColor<<PC>> Aqua
  BackgroundColor<<SN>> Yellow
  BackgroundColor<<SO>> SlateBlue
  BackgroundColor<<TF>> LightGray
  BackgroundColor<<TR>> Tomato
  BackgroundColor<<U>> White
  BackgroundColor<<V>> WhiteSmoke
  BackgroundColor<<X>> Aqua
  BackgroundColor<<external>> AliceBlue
}


entity "puml-link:dhw:sqldb:logs.usp_executionlog_insert.adoc[]" as logs.usp_ExecutionLog_insert << P >> {
  --
}

entity "puml-link:dhw:sqldb:ssis.packagetask_dft_component_input_inputcolumn_src.adoc[]" as ssis.PackageTask_Dft_Component_input_inputColumn_src << V >> {
  - **AntoraModule** : (varchar(50))
  **PackageName** : (varchar(200))
  **Column_refId** : (varchar(max))
  --
}

entity "puml-link:dhw:sqldb:ssis.packagetask_dft_component_input_inputcolumn_tgt.adoc[]" as ssis.PackageTask_Dft_Component_input_inputColumn_tgt << V >> {
  - **AntoraModule** : (varchar(50))
  **PackageName** : (varchar(200))
  **Column_refId** : (varchar(max))
  --
}

entity "puml-link:dhw:sqldb:ssis.usp_import.adoc[]" as ssis.usp_import << P >> {
  --
}

entity "puml-link:dhw:sqldb:ssis.usp_persist_packagetask_dft_component_input_inputcolumn_tgt.adoc[]" as ssis.usp_PERSIST_PackageTask_Dft_Component_input_inputColumn_tgt << P >> {
  --
}

logs.usp_ExecutionLog_insert <.. ssis.usp_PERSIST_PackageTask_Dft_Component_input_inputColumn_tgt
ssis.PackageTask_Dft_Component_input_inputColumn_src <.. ssis.usp_PERSIST_PackageTask_Dft_Component_input_inputColumn_tgt
ssis.PackageTask_Dft_Component_input_inputColumn_tgt <.. ssis.usp_PERSIST_PackageTask_Dft_Component_input_inputColumn_tgt
ssis.usp_PERSIST_PackageTask_Dft_Component_input_inputColumn_tgt <.. ssis.usp_importfooter The diagram is interactive and contains links.
@enduml

