@startuml
left to right direction
'top to bottom direction
hide circle
'avoide "." issues:
set namespaceSeparator none


skinparam class {
  BackgroundColor White
  BackgroundColor<<FN>> Yellow
  BackgroundColor<<FS>> Yellow
  BackgroundColor<<FT>> LightGray
  BackgroundColor<<IF>> Yellow
  BackgroundColor<<IS>> Yellow
  BackgroundColor<<P>> Aqua
  BackgroundColor<<PC>> Aqua
  BackgroundColor<<SN>> Yellow
  BackgroundColor<<SO>> SlateBlue
  BackgroundColor<<TF>> LightGray
  BackgroundColor<<TR>> Tomato
  BackgroundColor<<U>> White
  BackgroundColor<<V>> WhiteSmoke
  BackgroundColor<<X>> Aqua
  BackgroundColor<<external>> AliceBlue
}


entity "puml-link:dhw:sqldb:ssis_t.pkgstats.adoc[]" as ssis_t.pkgStats << U >> {
  - **RowID** : (int)
  --
}

entity "puml-link:dhw:sqldb:ssis_t.tblvariable_src.adoc[]" as ssis_t.TblVariable_src << V >> {
  --
}

entity "puml-link:dhw:sqldb:ssis_t.usp_getpackagedetails.adoc[]" as ssis_t.usp_GetPackageDetails << P >> {
  --
}

ssis_t.pkgStats <.. ssis_t.TblVariable_src
ssis_t.TblVariable_src <.. ssis_t.usp_GetPackageDetailsfooter The diagram is interactive and contains links.
@enduml

