@startuml
left to right direction
'top to bottom direction
hide circle
'avoide "." issues:
set namespaceSeparator none


skinparam class {
  BackgroundColor White
  BackgroundColor<<FN>> Yellow
  BackgroundColor<<FS>> Yellow
  BackgroundColor<<FT>> LightGray
  BackgroundColor<<IF>> Yellow
  BackgroundColor<<IS>> Yellow
  BackgroundColor<<P>> Aqua
  BackgroundColor<<PC>> Aqua
  BackgroundColor<<SN>> Yellow
  BackgroundColor<<SO>> SlateBlue
  BackgroundColor<<TF>> LightGray
  BackgroundColor<<TR>> Tomato
  BackgroundColor<<U>> White
  BackgroundColor<<V>> WhiteSmoke
  BackgroundColor<<X>> Aqua
  BackgroundColor<<external>> AliceBlue
}


entity "puml-link:dhw:sqldb:ssis.packageconnection_src.adoc[]" as ssis.PackageConnection_src << V >> {
  - **AntoraModule** : (varchar(50))
  **PackageName** : (varchar(200))
  **ConnectionManagerID** : (uniqueidentifier)
  --
}

entity "puml-link:dhw:sqldb:ssis_t.tblconnection.adoc[]" as ssis_t.TblConnection << U >> {
  --
}

entity "puml-link:dhw:sqldb:ssis_t.usp_getpackagedetails.adoc[]" as ssis_t.usp_GetPackageDetails << P >> {
  --
}

entity "puml-link:dhw:sqldb:ssis_t.usp_packageanalysis.adoc[]" as ssis_t.usp_PackageAnalysis << P >> {
  --
}

ssis_t.TblConnection <.. ssis_t.usp_GetPackageDetails
ssis_t.TblConnection <.. ssis.PackageConnection_src
ssis_t.TblConnection <.. ssis_t.usp_PackageAnalysisfooter The diagram is interactive and contains links.
@enduml

