@startuml
left to right direction
'top to bottom direction
hide circle
'avoide "." issues:
set namespaceSeparator none


skinparam class {
  BackgroundColor White
  BackgroundColor<<FN>> Yellow
  BackgroundColor<<FS>> Yellow
  BackgroundColor<<FT>> LightGray
  BackgroundColor<<IF>> Yellow
  BackgroundColor<<IS>> Yellow
  BackgroundColor<<P>> Aqua
  BackgroundColor<<PC>> Aqua
  BackgroundColor<<SN>> Yellow
  BackgroundColor<<SO>> SlateBlue
  BackgroundColor<<TF>> LightGray
  BackgroundColor<<TR>> Tomato
  BackgroundColor<<U>> White
  BackgroundColor<<V>> WhiteSmoke
  BackgroundColor<<X>> Aqua
  BackgroundColor<<external>> AliceBlue
}


entity "puml-link:dhw:sqldb:repo_sys.extendedproperties.adoc[]" as repo_sys.ExtendedProperties << V >> {
  --
}

entity "puml-link:dhw:sqldb:repo_sys.extendedproperties_parameterforaddupdatedrop.adoc[]" as repo_sys.ExtendedProperties_ParameterForAddUpdateDrop << V >> {
  --
}

entity "puml-link:dhw:sqldb:repo_sys.sysobject.adoc[]" as repo_sys.SysObject << V >> {
  --
}

entity "puml-link:dhw:sqldb:sys_dwh.objects.adoc[]" as sys_dwh.objects << SN >> {
  --
}

sys_dwh.objects <.. repo_sys.ExtendedProperties
sys_dwh.objects <.. repo_sys.ExtendedProperties_ParameterForAddUpdateDrop
sys_dwh.objects <.. repo_sys.SysObjectfooter The diagram is interactive and contains links.
@enduml

