@startuml
left to right direction
'top to bottom direction
hide circle
'avoide "." issues:
set namespaceSeparator none


skinparam class {
  BackgroundColor White
  BackgroundColor<<FN>> Yellow
  BackgroundColor<<FS>> Yellow
  BackgroundColor<<FT>> LightGray
  BackgroundColor<<IF>> Yellow
  BackgroundColor<<IS>> Yellow
  BackgroundColor<<P>> Aqua
  BackgroundColor<<PC>> Aqua
  BackgroundColor<<SN>> Yellow
  BackgroundColor<<SO>> SlateBlue
  BackgroundColor<<TF>> LightGray
  BackgroundColor<<TR>> Tomato
  BackgroundColor<<U>> White
  BackgroundColor<<V>> WhiteSmoke
  BackgroundColor<<X>> Aqua
  BackgroundColor<<external>> AliceBlue
}


entity "puml-link:dhw:sqldb:config.ftv_dwh_database.adoc[]" as config.ftv_dwh_database << IF >> {
  --
}

entity "puml-link:dhw:sqldb:property.repoobjectproperty_collect_source_uspgenerator.adoc[]" as property.RepoObjectProperty_Collect_source_uspgenerator << V >> {
  **RepoObject_guid** : (uniqueidentifier)
  - **property_name** : (varchar(14))
  --
}

entity "puml-link:dhw:sqldb:repo.repoobject.adoc[]" as repo.RepoObject << U >> {
  - **RepoObject_guid** : (uniqueidentifier)
  --
}

entity "puml-link:dhw:sqldb:uspgenerator.generatorusp.adoc[]" as uspgenerator.GeneratorUsp << U >> {
  - **id** : (int)
  --
}

entity "puml-link:dhw:sqldb:uspgenerator.generatorusp_parameterlist.adoc[]" as uspgenerator.GeneratorUsp_ParameterList << V >> {
  - **usp_id** : (int)
  --
}

entity "puml-link:dhw:sqldb:uspgenerator.generatorusp_sqlusp.adoc[]" as uspgenerator.GeneratorUsp_SqlUsp << V >> {
  --
}

entity "puml-link:dhw:sqldb:uspgenerator.generatorusp_steplist.adoc[]" as uspgenerator.GeneratorUsp_StepList << V >> {
  --
}

config.ftv_dwh_database <.. uspgenerator.GeneratorUsp_SqlUsp
repo.RepoObject <.. uspgenerator.GeneratorUsp_SqlUsp
uspgenerator.GeneratorUsp <.. uspgenerator.GeneratorUsp_SqlUsp
uspgenerator.GeneratorUsp_ParameterList <.. uspgenerator.GeneratorUsp_SqlUsp
uspgenerator.GeneratorUsp_SqlUsp <.. property.RepoObjectProperty_Collect_source_uspgenerator
uspgenerator.GeneratorUsp_StepList <.. uspgenerator.GeneratorUsp_SqlUsp
@enduml

