@startuml
left to right direction
'top to bottom direction
hide circle
'avoide "." issues:
set namespaceSeparator none


skinparam class {
  BackgroundColor White
  BackgroundColor<<FN>> Yellow
  BackgroundColor<<FS>> Yellow
  BackgroundColor<<FT>> LightGray
  BackgroundColor<<IF>> Yellow
  BackgroundColor<<IS>> Yellow
  BackgroundColor<<P>> Aqua
  BackgroundColor<<PC>> Aqua
  BackgroundColor<<SN>> Yellow
  BackgroundColor<<SO>> SlateBlue
  BackgroundColor<<TF>> LightGray
  BackgroundColor<<TR>> Tomato
  BackgroundColor<<U>> White
  BackgroundColor<<V>> WhiteSmoke
  BackgroundColor<<X>> Aqua
  BackgroundColor<<external>> AliceBlue
}


entity "puml-link:dhw:sqldb:logs.usp_executionlog_insert.adoc[]" as logs.usp_ExecutionLog_insert << P >> {
  --
}

entity "puml-link:dhw:sqldb:repo.repoobject_gross.adoc[]" as repo.RepoObject_gross << V >> {
  --
}

entity "puml-link:dhw:sqldb:repo.repoobjectcolumn_gross2.adoc[]" as repo.RepoObjectColumn_gross2 << V >> {
  --
}

entity "puml-link:dhw:sqldb:repo.usp_main.adoc[]" as repo.usp_main << P >> {
  --
}

entity "puml-link:dhw:sqldb:uspgenerator.generatorusp.adoc[]" as uspgenerator.GeneratorUsp << U >> {
  - **id** : (int)
  --
}

entity "puml-link:dhw:sqldb:uspgenerator.generatoruspstep.adoc[]" as uspgenerator.GeneratorUspStep << U >> {
  - **id** : (int)
  --
}

entity "puml-link:dhw:sqldb:uspgenerator.generatoruspstep_persistence_isinactive_setpoint.adoc[]" as uspgenerator.GeneratorUspStep_Persistence_IsInactive_setpoint << V >> {
  - **usp_id** : (int)
  --
}

entity "puml-link:dhw:sqldb:uspgenerator.generatoruspstep_persistence_src.adoc[]" as uspgenerator.GeneratorUspStep_Persistence_src << V >> {
  - **usp_id** : (int)
  --
}

entity "puml-link:dhw:sqldb:uspgenerator.usp_generatorusp_insert_update_persistence.adoc[]" as uspgenerator.usp_GeneratorUsp_insert_update_persistence << P >> {
  --
}

logs.usp_ExecutionLog_insert <.. uspgenerator.usp_GeneratorUsp_insert_update_persistence
repo.RepoObject_gross <.. uspgenerator.usp_GeneratorUsp_insert_update_persistence
repo.RepoObjectColumn_gross2 <.. uspgenerator.usp_GeneratorUsp_insert_update_persistence
uspgenerator.GeneratorUsp <.. uspgenerator.usp_GeneratorUsp_insert_update_persistence
uspgenerator.GeneratorUspStep <.. uspgenerator.usp_GeneratorUsp_insert_update_persistence
uspgenerator.GeneratorUspStep_Persistence_IsInactive_setpoint <.. uspgenerator.usp_GeneratorUsp_insert_update_persistence
uspgenerator.GeneratorUspStep_Persistence_src <.. uspgenerator.usp_GeneratorUsp_insert_update_persistence
uspgenerator.usp_GeneratorUsp_insert_update_persistence <.. repo.usp_mainfooter The diagram is interactive and contains links.
@enduml

