@startuml
left to right direction
'top to bottom direction
hide circle
'avoide "." issues:
set namespaceSeparator none


skinparam class {
  BackgroundColor White
  BackgroundColor<<FN>> Yellow
  BackgroundColor<<FS>> Yellow
  BackgroundColor<<FT>> LightGray
  BackgroundColor<<IF>> Yellow
  BackgroundColor<<IS>> Yellow
  BackgroundColor<<P>> Aqua
  BackgroundColor<<PC>> Aqua
  BackgroundColor<<SN>> Yellow
  BackgroundColor<<SO>> SlateBlue
  BackgroundColor<<TF>> LightGray
  BackgroundColor<<TR>> Tomato
  BackgroundColor<<U>> White
  BackgroundColor<<V>> WhiteSmoke
  BackgroundColor<<X>> Aqua
  BackgroundColor<<external>> AliceBlue
}


entity "puml-link:dhw:sqldb:uspgenerator.generatorusp_parameterlist.adoc[]" as uspgenerator.GeneratorUsp_ParameterList << V >> {
  - **usp_id** : (int)
  --
}

entity "puml-link:dhw:sqldb:uspgenerator.generatorusp_sqlusp.adoc[]" as uspgenerator.GeneratorUsp_SqlUsp << V >> {
  --
}

entity "puml-link:dhw:sqldb:uspgenerator.generatoruspparameter.adoc[]" as uspgenerator.GeneratorUspParameter << U >> {
  - **id** : (int)
  --
}

uspgenerator.GeneratorUsp_ParameterList <.. uspgenerator.GeneratorUsp_SqlUsp
uspgenerator.GeneratorUspParameter <.. uspgenerator.GeneratorUsp_ParameterList
@enduml

