@startuml
left to right direction
'top to bottom direction
hide circle
'avoide "." issues:
set namespaceSeparator none


skinparam class {
  BackgroundColor White
  BackgroundColor<<FN>> Yellow
  BackgroundColor<<FS>> Yellow
  BackgroundColor<<FT>> LightGray
  BackgroundColor<<IF>> Yellow
  BackgroundColor<<IS>> Yellow
  BackgroundColor<<P>> Aqua
  BackgroundColor<<PC>> Aqua
  BackgroundColor<<SN>> Yellow
  BackgroundColor<<SO>> SlateBlue
  BackgroundColor<<TF>> LightGray
  BackgroundColor<<TR>> Tomato
  BackgroundColor<<U>> White
  BackgroundColor<<V>> WhiteSmoke
  BackgroundColor<<X>> Aqua
  BackgroundColor<<external>> AliceBlue
}


entity "puml-link:dhw:sqldb:repo.repoobject.adoc[]" as repo.RepoObject << U >> {
  - **RepoObject_guid** : (uniqueidentifier)
  --
}

entity "puml-link:dhw:sqldb:workflow.workflow.adoc[]" as workflow.Workflow << U >> {
  - **id** : (int)
  --
}

entity "puml-link:dhw:sqldb:workflow.workflowstep.adoc[]" as workflow.WorkflowStep << U >> {
  - **id** : (int)
  --
}

entity "puml-link:dhw:sqldb:workflow.workflowstep_forupdate.adoc[]" as workflow.WorkflowStep_ForUpdate << V >> {
  --
}

repo.RepoObject <.. workflow.WorkflowStep_ForUpdate
workflow.Workflow <.. workflow.WorkflowStep_ForUpdate
workflow.WorkflowStep <.. workflow.WorkflowStep_ForUpdate
@enduml

