@startuml
left to right direction
'top to bottom direction
hide circle
'avoide "." issues:
set namespaceSeparator none


skinparam class {
  BackgroundColor White
  BackgroundColor<<FN>> Yellow
  BackgroundColor<<FS>> Yellow
  BackgroundColor<<FT>> LightGray
  BackgroundColor<<IF>> Yellow
  BackgroundColor<<IS>> Yellow
  BackgroundColor<<P>> Aqua
  BackgroundColor<<PC>> Aqua
  BackgroundColor<<SN>> Yellow
  BackgroundColor<<SO>> SlateBlue
  BackgroundColor<<TF>> LightGray
  BackgroundColor<<TR>> Tomato
  BackgroundColor<<U>> White
  BackgroundColor<<V>> WhiteSmoke
  BackgroundColor<<X>> Aqua
  BackgroundColor<<external>> AliceBlue
}


entity "puml-link:dhw:sqldb:workflow.biml_connection.adoc[]" as workflow.Biml_Connection << V >> {
  --
}

entity "puml-link:dhw:sqldb:workflow.biml_project.adoc[]" as workflow.Biml_Project << V >> {
  --
}

entity "puml-link:dhw:sqldb:workflow.connection.adoc[]" as workflow.Connection << U >> {
  - **ConnectionName** : (nvarchar(250))
  --
}

workflow.Biml_Connection <.. workflow.Biml_Project
workflow.Connection <.. workflow.Biml_Connectionfooter The diagram is interactive and contains links.
@enduml

