@startuml
left to right direction
'top to bottom direction
hide circle
'avoide "." issues:
set namespaceSeparator none


skinparam class {
  BackgroundColor White
  BackgroundColor<<FN>> Yellow
  BackgroundColor<<FS>> Yellow
  BackgroundColor<<FT>> LightGray
  BackgroundColor<<IF>> Yellow
  BackgroundColor<<IS>> Yellow
  BackgroundColor<<P>> Aqua
  BackgroundColor<<PC>> Aqua
  BackgroundColor<<SN>> Yellow
  BackgroundColor<<SO>> SlateBlue
  BackgroundColor<<TF>> LightGray
  BackgroundColor<<TR>> Tomato
  BackgroundColor<<U>> White
  BackgroundColor<<V>> WhiteSmoke
  BackgroundColor<<X>> Aqua
  BackgroundColor<<external>> AliceBlue
}


entity "puml-link:dhw:sqldb:repo.repoobject.adoc[]" as repo.RepoObject << U >> {
  - **RepoObject_guid** : (uniqueidentifier)
  --
}

entity "puml-link:dhw:sqldb:workflow.workflow_proceduredependency_t.adoc[]" as workflow.Workflow_ProcedureDependency_T << U >> {
  - **Workflow_id** : (int)
  - **referenced_Procedure_RepoObject_guid** : (uniqueidentifier)
  - **referencing_Procedure_RepoObject_guid** : (uniqueidentifier)
  --
}

entity "puml-link:dhw:sqldb:workflow.workflow_proceduredependency_t_bidirectional.adoc[]" as workflow.Workflow_ProcedureDependency_T_bidirectional << V >> {
  --
}

entity "puml-link:dhw:sqldb:workflow.workflow_proceduredependency_t_bidirectional_t.adoc[]" as workflow.Workflow_ProcedureDependency_T_bidirectional_T << U >> {
  - **Workflow_id** : (int)
  - **referenced_Procedure_RepoObject_guid** : (uniqueidentifier)
  - **referencing_Procedure_RepoObject_guid** : (uniqueidentifier)
  --
}

repo.RepoObject <.. workflow.Workflow_ProcedureDependency_T_bidirectional
workflow.Workflow_ProcedureDependency_T <.. workflow.Workflow_ProcedureDependency_T_bidirectional
workflow.Workflow_ProcedureDependency_T_bidirectional <.. workflow.Workflow_ProcedureDependency_T_bidirectional_Tfooter The diagram is interactive and contains links.
@enduml

