@startuml
left to right direction
'top to bottom direction
hide circle
'avoide "." issues:
set namespaceSeparator none


skinparam class {
  BackgroundColor White
  BackgroundColor<<FN>> Yellow
  BackgroundColor<<FS>> Yellow
  BackgroundColor<<FT>> LightGray
  BackgroundColor<<IF>> Yellow
  BackgroundColor<<IS>> Yellow
  BackgroundColor<<P>> Aqua
  BackgroundColor<<PC>> Aqua
  BackgroundColor<<SN>> Yellow
  BackgroundColor<<SO>> SlateBlue
  BackgroundColor<<TF>> LightGray
  BackgroundColor<<TR>> Tomato
  BackgroundColor<<U>> White
  BackgroundColor<<V>> WhiteSmoke
  BackgroundColor<<X>> Aqua
  BackgroundColor<<external>> AliceBlue
}


entity "puml-link:dhw:sqldb:logs.usp_executionlog_insert.adoc[]" as logs.usp_ExecutionLog_insert << P >> {
  --
}

entity "puml-link:dhw:sqldb:workflow.usp_persist_workflow_proceduredependency_t_bidirectional_t.adoc[]" as workflow.usp_PERSIST_Workflow_ProcedureDependency_T_bidirectional_T << P >> {
  --
}

entity "puml-link:dhw:sqldb:workflow.usp_workflow.adoc[]" as workflow.usp_workflow << P >> {
  --
}

logs.usp_ExecutionLog_insert <.. workflow.usp_PERSIST_Workflow_ProcedureDependency_T_bidirectional_T
workflow.usp_PERSIST_Workflow_ProcedureDependency_T_bidirectional_T <.. workflow.usp_workflowfooter The diagram is interactive and contains links.
@enduml

