@startuml
left to right direction
'top to bottom direction
hide circle
'avoide "." issues:
set namespaceSeparator none


skinparam class {
  BackgroundColor White
  BackgroundColor<<FN>> Yellow
  BackgroundColor<<FS>> Yellow
  BackgroundColor<<FT>> LightGray
  BackgroundColor<<IF>> Yellow
  BackgroundColor<<IS>> Yellow
  BackgroundColor<<P>> Aqua
  BackgroundColor<<PC>> Aqua
  BackgroundColor<<SN>> Yellow
  BackgroundColor<<SO>> SlateBlue
  BackgroundColor<<TF>> LightGray
  BackgroundColor<<TR>> Tomato
  BackgroundColor<<U>> White
  BackgroundColor<<V>> WhiteSmoke
  BackgroundColor<<X>> Aqua
  BackgroundColor<<external>> AliceBlue
}


entity "puml-link:dhw:sqldb:workflow.workflow_proceduredependency_all.adoc[]" as workflow.Workflow_ProcedureDependency_all << V >> {
  --
}

entity "puml-link:dhw:sqldb:workflow.workflow_proceduredependency_t_redundant.adoc[]" as workflow.Workflow_ProcedureDependency_T_redundant << V >> {
  --
}

entity "puml-link:dhw:sqldb:workflow.workflow_proceduredependency_wo_redundant.adoc[]" as workflow.Workflow_ProcedureDependency_wo_redundant << V >> {
  --
}

workflow.Workflow_ProcedureDependency_all <.. workflow.Workflow_ProcedureDependency_wo_redundant
workflow.Workflow_ProcedureDependency_T_redundant <.. workflow.Workflow_ProcedureDependency_wo_redundant
@enduml

