@startuml
left to right direction
'top to bottom direction
hide circle
'avoide "." issues:
set namespaceSeparator none


skinparam class {
  BackgroundColor White
  BackgroundColor<<FN>> Yellow
  BackgroundColor<<FS>> Yellow
  BackgroundColor<<FT>> LightGray
  BackgroundColor<<IF>> Yellow
  BackgroundColor<<IS>> Yellow
  BackgroundColor<<P>> Aqua
  BackgroundColor<<PC>> Aqua
  BackgroundColor<<SN>> Yellow
  BackgroundColor<<SO>> SlateBlue
  BackgroundColor<<TF>> LightGray
  BackgroundColor<<TR>> Tomato
  BackgroundColor<<U>> White
  BackgroundColor<<V>> WhiteSmoke
  BackgroundColor<<X>> Aqua
  BackgroundColor<<external>> AliceBlue
}


entity "puml-link:dhw:sqldb:repo.repoobject.adoc[]" as repo.RepoObject << U >> {
  - **RepoObject_guid** : (uniqueidentifier)
  --
}

entity "puml-link:dhw:sqldb:workflow.workflow.adoc[]" as workflow.Workflow << U >> {
  - **id** : (int)
  --
}

entity "puml-link:dhw:sqldb:workflow.workflow_sqlusp.adoc[]" as workflow.Workflow_SqlUsp << V >> {
  --
}

entity "puml-link:dhw:sqldb:workflow.workflow_usplist.adoc[]" as workflow.Workflow_UspList << V >> {
  --
}

entity "puml-link:dhw:sqldb:workflow.workflowstep_sortorder.adoc[]" as workflow.WorkflowStep_Sortorder << U >> {
  - **Workflow_id** : (int)
  - **Procedure_RepoObject_guid** : (uniqueidentifier)
  --
}

repo.RepoObject <.. workflow.Workflow_UspList
workflow.Workflow <.. workflow.Workflow_UspList
workflow.Workflow_UspList <.. workflow.Workflow_SqlUsp
workflow.WorkflowStep_Sortorder <.. workflow.Workflow_UspListfooter The diagram is interactive and contains links.
@enduml

