@startuml
left to right direction
'top to bottom direction
hide circle
'avoide "." issues:
set namespaceSeparator none


skinparam class {
  BackgroundColor White
  BackgroundColor<<FN>> Yellow
  BackgroundColor<<FS>> Yellow
  BackgroundColor<<FT>> LightGray
  BackgroundColor<<IF>> Yellow
  BackgroundColor<<IS>> Yellow
  BackgroundColor<<P>> Aqua
  BackgroundColor<<PC>> Aqua
  BackgroundColor<<SN>> Yellow
  BackgroundColor<<SO>> SlateBlue
  BackgroundColor<<TF>> LightGray
  BackgroundColor<<TR>> Tomato
  BackgroundColor<<U>> White
  BackgroundColor<<V>> WhiteSmoke
  BackgroundColor<<X>> Aqua
  BackgroundColor<<external>> AliceBlue
}


entity "puml-link:dhw:sqldb:workflow.proceduredependency.adoc[]" as workflow.ProcedureDependency << U >> {
  - **id** : (int)
  --
}

entity "puml-link:dhw:sqldb:workflow.proceduredependency_gross.adoc[]" as workflow.ProcedureDependency_gross << V >> {
  --
}

entity "puml-link:dhw:sqldb:workflow.proceduredependency_input_persistencedependency.adoc[]" as workflow.ProcedureDependency_input_PersistenceDependency << V >> {
  **referenced_Procedure_RepoObject_guid** : (uniqueidentifier)
  **referencing_Procedure_RepoObject_guid** : (uniqueidentifier)
  --
}

entity "puml-link:dhw:sqldb:workflow.workflow_proceduredependency.adoc[]" as workflow.Workflow_ProcedureDependency << V >> {
  --
}

entity "puml-link:dhw:sqldb:workflow.workflow_proceduredependency_all.adoc[]" as workflow.Workflow_ProcedureDependency_all << V >> {
  --
}

workflow.ProcedureDependency <.. workflow.ProcedureDependency_gross
workflow.ProcedureDependency <.. workflow.ProcedureDependency_input_PersistenceDependency
workflow.ProcedureDependency <.. workflow.Workflow_ProcedureDependency_all
workflow.ProcedureDependency <.. workflow.Workflow_ProcedureDependency
workflow.ProcedureDependency_input_PersistenceDependency <.. workflow.ProcedureDependency
@enduml

