@startuml
left to right direction
'top to bottom direction
hide circle
'avoide "." issues:
set namespaceSeparator none


skinparam class {
  BackgroundColor White
  BackgroundColor<<FN>> Yellow
  BackgroundColor<<FS>> Yellow
  BackgroundColor<<FT>> LightGray
  BackgroundColor<<IF>> Yellow
  BackgroundColor<<IS>> Yellow
  BackgroundColor<<P>> Aqua
  BackgroundColor<<PC>> Aqua
  BackgroundColor<<SN>> Yellow
  BackgroundColor<<SO>> SlateBlue
  BackgroundColor<<TF>> LightGray
  BackgroundColor<<TR>> Tomato
  BackgroundColor<<U>> White
  BackgroundColor<<V>> WhiteSmoke
  BackgroundColor<<X>> Aqua
  BackgroundColor<<external>> AliceBlue
}


entity "puml-link:dhw:sqldb:repo.repoobject.adoc[]" as repo.RepoObject << U >> {
  - **RepoObject_guid** : (uniqueidentifier)
  --
}

entity "puml-link:dhw:sqldb:workflow.biml_precedenceconstraints.adoc[]" as workflow.Biml_PrecedenceConstraints << V >> {
  --
}

entity "puml-link:dhw:sqldb:workflow.workflow_proceduredependency_t_active.adoc[]" as workflow.Workflow_ProcedureDependency_T_active << V >> {
  --
}

entity "puml-link:dhw:sqldb:workflow.workflow_proceduredependency_t_taskname.adoc[]" as workflow.Workflow_ProcedureDependency_T_TaskName << V >> {
  --
}

repo.RepoObject <.. workflow.Workflow_ProcedureDependency_T_TaskName
workflow.Workflow_ProcedureDependency_T_active <.. workflow.Workflow_ProcedureDependency_T_TaskName
workflow.Workflow_ProcedureDependency_T_TaskName <.. workflow.Biml_PrecedenceConstraintsfooter The diagram is interactive and contains links.
@enduml

