@startuml
left to right direction
'top to bottom direction
hide circle
'avoide "." issues:
set namespaceSeparator none


skinparam class {
  BackgroundColor White
  BackgroundColor<<FN>> Yellow
  BackgroundColor<<FS>> Yellow
  BackgroundColor<<FT>> LightGray
  BackgroundColor<<IF>> Yellow
  BackgroundColor<<IS>> Yellow
  BackgroundColor<<P>> Aqua
  BackgroundColor<<PC>> Aqua
  BackgroundColor<<SN>> Yellow
  BackgroundColor<<SO>> SlateBlue
  BackgroundColor<<TF>> LightGray
  BackgroundColor<<TR>> Tomato
  BackgroundColor<<U>> White
  BackgroundColor<<V>> WhiteSmoke
  BackgroundColor<<X>> Aqua
  BackgroundColor<<external>> AliceBlue
}


entity "puml-link:dhw:sqldb:repo.repoobject_gross.adoc[]" as repo.RepoObject_gross << V >> {
  --
}

entity "puml-link:dhw:sqldb:workflow.usp_persist_workflowstep.adoc[]" as workflow.usp_PERSIST_WorkflowStep << P >> {
  --
}

entity "puml-link:dhw:sqldb:workflow.workflow.adoc[]" as workflow.Workflow << U >> {
  - **id** : (int)
  --
}

entity "puml-link:dhw:sqldb:workflow.workflowstep.adoc[]" as workflow.WorkflowStep << U >> {
  - **id** : (int)
  --
}

entity "puml-link:dhw:sqldb:workflow.workflowstep_s.adoc[]" as workflow.WorkflowStep_S << V >> {
  - **Workflow_id** : (int)
  **Procedure_RepoObject_guid** : (uniqueidentifier)
  --
}

repo.RepoObject_gross <.. workflow.WorkflowStep_S
workflow.Workflow <.. workflow.WorkflowStep_S
workflow.WorkflowStep_S <.. workflow.WorkflowStep
workflow.WorkflowStep_S <.. workflow.usp_PERSIST_WorkflowStep
@enduml

