@startuml
left to right direction
'top to bottom direction
hide circle
'avoide "." issues:
set namespaceSeparator none


skinparam class {
  BackgroundColor White
  BackgroundColor<<FN>> Yellow
  BackgroundColor<<FS>> Yellow
  BackgroundColor<<FT>> LightGray
  BackgroundColor<<IF>> Yellow
  BackgroundColor<<IS>> Yellow
  BackgroundColor<<P>> Aqua
  BackgroundColor<<PC>> Aqua
  BackgroundColor<<SN>> Yellow
  BackgroundColor<<SO>> SlateBlue
  BackgroundColor<<TF>> LightGray
  BackgroundColor<<TR>> Tomato
  BackgroundColor<<U>> White
  BackgroundColor<<V>> WhiteSmoke
  BackgroundColor<<X>> Aqua
  BackgroundColor<<external>> AliceBlue
}


entity "puml-link:dhw:sqldb:logs.usp_executionlog_insert.adoc[]" as logs.usp_ExecutionLog_insert << P >> {
  --
}

entity "puml-link:dhw:sqldb:workflow.usp_persist_proceduredependency_input_persistencedependency.adoc[]" as workflow.usp_PERSIST_ProcedureDependency_input_PersistenceDependency << P >> {
  --
}

entity "puml-link:dhw:sqldb:workflow.usp_persist_workflow_proceduredependency_t.adoc[]" as workflow.usp_PERSIST_Workflow_ProcedureDependency_T << P >> {
  --
}

entity "puml-link:dhw:sqldb:workflow.usp_persist_workflow_proceduredependency_t_bidirectional_t.adoc[]" as workflow.usp_PERSIST_Workflow_ProcedureDependency_T_bidirectional_T << P >> {
  --
}

entity "puml-link:dhw:sqldb:workflow.usp_persist_workflowstep.adoc[]" as workflow.usp_PERSIST_WorkflowStep << P >> {
  --
}

entity "puml-link:dhw:sqldb:workflow.usp_workflow.adoc[]" as workflow.usp_workflow << P >> {
  --
}

entity "puml-link:dhw:sqldb:workflow.workflow_proceduredependency_t.adoc[]" as workflow.Workflow_ProcedureDependency_T << U >> {
  - **Workflow_id** : (int)
  - **referenced_Procedure_RepoObject_guid** : (uniqueidentifier)
  - **referencing_Procedure_RepoObject_guid** : (uniqueidentifier)
  --
}

entity "puml-link:dhw:sqldb:workflow.workflow_proceduredependency_t_notinsortorder.adoc[]" as workflow.Workflow_ProcedureDependency_T_NotInSortorder << V >> {
  --
}

entity "puml-link:dhw:sqldb:workflow.workflow_proceduredependency_t_redundant.adoc[]" as workflow.Workflow_ProcedureDependency_T_redundant << V >> {
  --
}

entity "puml-link:dhw:sqldb:workflow.workflowstep_active.adoc[]" as workflow.WorkflowStep_active << V >> {
  --
}

entity "puml-link:dhw:sqldb:workflow.workflowstep_sortorder.adoc[]" as workflow.WorkflowStep_Sortorder << U >> {
  - **Workflow_id** : (int)
  - **Procedure_RepoObject_guid** : (uniqueidentifier)
  --
}

logs.usp_ExecutionLog_insert <.. workflow.usp_workflow
workflow.usp_PERSIST_ProcedureDependency_input_PersistenceDependency <.. workflow.usp_workflow
workflow.usp_PERSIST_Workflow_ProcedureDependency_T <.. workflow.usp_workflow
workflow.usp_PERSIST_Workflow_ProcedureDependency_T_bidirectional_T <.. workflow.usp_workflow
workflow.usp_PERSIST_WorkflowStep <.. workflow.usp_workflow
workflow.Workflow_ProcedureDependency_T <.. workflow.usp_workflow
workflow.Workflow_ProcedureDependency_T_NotInSortorder <.. workflow.usp_workflow
workflow.Workflow_ProcedureDependency_T_redundant <.. workflow.usp_workflow
workflow.WorkflowStep_active <.. workflow.usp_workflow
workflow.WorkflowStep_Sortorder <.. workflow.usp_workflowfooter The diagram is interactive and contains links.
@enduml

