@startuml
'Left to right direction
top to bottom direction
hide circle
'avoide "." issues:
set namespaceSeparator none


skinparam class {
  BackgroundColor White
  BackgroundColor<<FN>> Yellow
  BackgroundColor<<FS>> Yellow
  BackgroundColor<<FT>> LightGray
  BackgroundColor<<IF>> Yellow
  BackgroundColor<<IS>> Yellow
  BackgroundColor<<P>> Aqua
  BackgroundColor<<PC>> Aqua
  BackgroundColor<<SN>> Yellow
  BackgroundColor<<SO>> SlateBlue
  BackgroundColor<<TF>> LightGray
  BackgroundColor<<TR>> Tomato
  BackgroundColor<<U>> White
  BackgroundColor<<V>> WhiteSmoke
  BackgroundColor<<X>> Aqua
  BackgroundColor<<external>> AliceBlue
}


entity "puml-link:dhw:sqldb:config.fs_get_parameter_value.adoc[]" as config.fs_get_parameter_value << FN >> {
  --
}

entity "puml-link:dhw:sqldb:config.parameter.adoc[]" as config.Parameter << U >> {
  - **Parameter_name** : (varchar(100))
  - **sub_Parameter** : (nvarchar(128))
  --
}

entity "puml-link:dhw:sqldb:configt.parameter_default.adoc[]" as configT.Parameter_default << V >> {
  - **Parameter_name** : (varchar(52))
  - **sub_Parameter** : (nvarchar(27))
  --
}

entity "puml-link:dhw:sqldb:docs.fs_antoramodulefolder.adoc[]" as docs.fs_AntoraModuleFolder << FN >> {
  --
}

config.fs_get_parameter_value <.. docs.fs_AntoraModuleFolder
config.Parameter <.. config.fs_get_parameter_value
configT.Parameter_default <.. config.Parameterfooter The diagram is interactive and contains links.
@enduml

