@startuml
'Left to right direction
top to bottom direction
hide circle
'avoide "." issues:
set namespaceSeparator none


skinparam class {
  BackgroundColor White
  BackgroundColor<<FN>> Yellow
  BackgroundColor<<FS>> Yellow
  BackgroundColor<<FT>> LightGray
  BackgroundColor<<IF>> Yellow
  BackgroundColor<<IS>> Yellow
  BackgroundColor<<P>> Aqua
  BackgroundColor<<PC>> Aqua
  BackgroundColor<<SN>> Yellow
  BackgroundColor<<SO>> SlateBlue
  BackgroundColor<<TF>> LightGray
  BackgroundColor<<TR>> Tomato
  BackgroundColor<<U>> White
  BackgroundColor<<V>> WhiteSmoke
  BackgroundColor<<X>> Aqua
  BackgroundColor<<external>> AliceBlue
}


entity "puml-link:dhw:sqldb:config.fs_get_parameter_value.adoc[]" as config.fs_get_parameter_value << FN >> {
  --
}

entity "puml-link:dhw:sqldb:config.ftv_get_parameter_value.adoc[]" as config.ftv_get_parameter_value << IF >> {
  --
}

entity "puml-link:dhw:sqldb:config.parameter.adoc[]" as config.Parameter << U >> {
  - **Parameter_name** : (varchar(100))
  - **sub_Parameter** : (nvarchar(128))
  --
}

entity "puml-link:dhw:sqldb:configt.parameter_default.adoc[]" as configT.Parameter_default << V >> {
  - **Parameter_name** : (varchar(52))
  - **sub_Parameter** : (nvarchar(27))
  --
}

entity "puml-link:dhw:sqldb:docs.fs_cleanstringforanchorid.adoc[]" as docs.fs_cleanStringForAnchorId << FN >> {
  --
}

entity "puml-link:dhw:sqldb:docs.fs_cleanstringforfilename.adoc[]" as docs.fs_cleanStringForFilename << FN >> {
  --
}

entity "puml-link:dhw:sqldb:docs.fs_cleanstringforheader.adoc[]" as docs.fs_cleanStringForHeader << FN >> {
  --
}

entity "puml-link:dhw:sqldb:docs.ssis_adoc.adoc[]" as docs.ssis_Adoc << V >> {
  - **AntoraModule** : (varchar(50))
  **PackageBasename** : (varchar(8000))
  --
}

entity "puml-link:dhw:sqldb:docs.ssis_adoc_t.adoc[]" as docs.ssis_Adoc_T << U >> {
  - **AntoraModule** : (varchar(50))
  **PackageBasename** : (varchar(8000))
  --
}

entity "puml-link:dhw:sqldb:docs.ssis_connectionlist.adoc[]" as docs.ssis_ConnectionList << V >> {
  --
}

entity "puml-link:dhw:sqldb:docs.ssis_dfttaskcomponentinputcolumnlist.adoc[]" as docs.ssis_DftTaskComponentInputColumnList << V >> {
  --
}

entity "puml-link:dhw:sqldb:docs.ssis_dfttaskcomponentinputlist.adoc[]" as docs.ssis_DftTaskComponentInputList << V >> {
  --
}

entity "puml-link:dhw:sqldb:docs.ssis_dfttaskcomponentlist.adoc[]" as docs.ssis_DftTaskComponentList << V >> {
  --
}

entity "puml-link:dhw:sqldb:docs.ssis_dfttaskcomponentoutputcolumnlist.adoc[]" as docs.ssis_DftTaskComponentOutputColumnList << V >> {
  --
}

entity "puml-link:dhw:sqldb:docs.ssis_dfttaskcomponentoutputlist.adoc[]" as docs.ssis_DftTaskComponentOutputList << V >> {
  --
}

entity "puml-link:dhw:sqldb:docs.ssis_generallist.adoc[]" as docs.ssis_GeneralList << V >> {
  --
}

entity "puml-link:dhw:sqldb:docs.ssis_parameterlist.adoc[]" as docs.ssis_ParameterList << V >> {
  --
}

entity "puml-link:dhw:sqldb:docs.ssis_projectconnectionlist.adoc[]" as docs.ssis_ProjectConnectionList << V >> {
  --
}

entity "puml-link:dhw:sqldb:docs.ssis_pumldfttask.adoc[]" as docs.ssis_PumlDftTask << V >> {
  --
}

entity "puml-link:dhw:sqldb:docs.ssis_pumlpackage.adoc[]" as docs.ssis_PumlPackage << V >> {
  --
}

entity "puml-link:dhw:sqldb:docs.ssis_pumlpartialcontrolflows.adoc[]" as docs.ssis_PumlPartialControlFlows << V >> {
  --
}

entity "puml-link:dhw:sqldb:docs.ssis_pumlpartialdataflow.adoc[]" as docs.ssis_PumlPartialDataFlow << V >> {
  --
}

entity "puml-link:dhw:sqldb:docs.ssis_pumlpartialdftcomponent.adoc[]" as docs.ssis_PumlPartialDftComponent << V >> {
  --
}

entity "puml-link:dhw:sqldb:docs.ssis_pumlpartialtaskcomponent.adoc[]" as docs.ssis_PumlPartialTaskComponent << V >> {
  --
}

entity "puml-link:dhw:sqldb:docs.ssis_sqltaskparameterinnertable.adoc[]" as docs.ssis_SqlTaskParameterInnerTable << V >> {
  --
}

entity "puml-link:dhw:sqldb:docs.ssis_tasklist.adoc[]" as docs.ssis_TaskList << V >> {
  --
}

entity "puml-link:dhw:sqldb:docs.ssis_variablelist.adoc[]" as docs.ssis_VariableList << V >> {
  --
}

entity "puml-link:dhw:sqldb:docs.usp_antoraexport_ssispartialproperties.adoc[]" as docs.usp_AntoraExport_SsisPartialProperties << P >> {
  --
}

entity "puml-link:dhw:sqldb:docs.usp_persist_ssis_adoc_t.adoc[]" as docs.usp_PERSIST_ssis_Adoc_T << P >> {
  --
}

entity "puml-link:dhw:sqldb:logs.executionlog.adoc[]" as logs.ExecutionLog << U >> {
  --
}

entity "puml-link:dhw:sqldb:logs.usp_executionlog_insert.adoc[]" as logs.usp_ExecutionLog_insert << P >> {
  --
}

entity "puml-link:dhw:sqldb:ssis.antoramodule_tgt_filter.adoc[]" as ssis.AntoraModule_tgt_filter << V >> {
  --
}

entity "puml-link:dhw:sqldb:ssis.package.adoc[]" as ssis.Package << U >> {
  - **AntoraModule** : (varchar(50))
  - **PackageName** : (varchar(200))
  --
}

entity "puml-link:dhw:sqldb:ssis.package_src.adoc[]" as ssis.Package_src << V >> {
  - **AntoraModule** : (varchar(50))
  **PackageName** : (varchar(200))
  --
}

entity "puml-link:dhw:sqldb:ssis.package_tgt.adoc[]" as ssis.Package_tgt << V >> {
  - **AntoraModule** : (varchar(50))
  **PackageName** : (varchar(200))
  --
}

entity "puml-link:dhw:sqldb:ssis.packageconnection.adoc[]" as ssis.PackageConnection << U >> {
  - **AntoraModule** : (varchar(50))
  - **PackageName** : (varchar(200))
  - **ConnectionManagerID** : (uniqueidentifier)
  --
}

entity "puml-link:dhw:sqldb:ssis.packageconnection_src.adoc[]" as ssis.PackageConnection_src << V >> {
  - **AntoraModule** : (varchar(50))
  **PackageName** : (varchar(200))
  **ConnectionManagerID** : (uniqueidentifier)
  --
}

entity "puml-link:dhw:sqldb:ssis.packageconnection_tgt.adoc[]" as ssis.PackageConnection_tgt << V >> {
  - **AntoraModule** : (varchar(50))
  **PackageName** : (varchar(200))
  **ConnectionManagerID** : (uniqueidentifier)
  --
}

entity "puml-link:dhw:sqldb:ssis.packageflow.adoc[]" as ssis.PackageFlow << U >> {
  --
}

entity "puml-link:dhw:sqldb:ssis.packageflow_src.adoc[]" as ssis.PackageFlow_src << V >> {
  - **AntoraModule** : (varchar(50))
  **PackageName** : (varchar(200))
  **TaskFrom** : (varchar(2000))
  **Taskto** : (varchar(2000))
  --
}

entity "puml-link:dhw:sqldb:ssis.packageflow_tgt.adoc[]" as ssis.PackageFlow_tgt << V >> {
  - **AntoraModule** : (varchar(50))
  **PackageName** : (varchar(200))
  **TaskFrom** : (varchar(2000))
  **Taskto** : (varchar(2000))
  --
}

entity "puml-link:dhw:sqldb:ssis.packageparameter.adoc[]" as ssis.PackageParameter << U >> {
  - **AntoraModule** : (varchar(50))
  - **PackageName** : (varchar(200))
  - **ParameterName** : (varchar(500))
  --
}

entity "puml-link:dhw:sqldb:ssis.packageparameter_src.adoc[]" as ssis.PackageParameter_src << V >> {
  - **AntoraModule** : (varchar(50))
  **PackageName** : (varchar(200))
  **ParameterName** : (varchar(500))
  --
}

entity "puml-link:dhw:sqldb:ssis.packageparameter_tgt.adoc[]" as ssis.PackageParameter_tgt << V >> {
  - **AntoraModule** : (varchar(50))
  **PackageName** : (varchar(200))
  **ParameterName** : (varchar(500))
  --
}

entity "puml-link:dhw:sqldb:ssis.packagetask.adoc[]" as ssis.PackageTask << U >> {
  --
}

entity "puml-link:dhw:sqldb:ssis.packagetask_dft_component.adoc[]" as ssis.PackageTask_Dft_Component << U >> {
  --
}

entity "puml-link:dhw:sqldb:ssis.packagetask_dft_component_input.adoc[]" as ssis.PackageTask_Dft_Component_input << U >> {
  --
}

entity "puml-link:dhw:sqldb:ssis.packagetask_dft_component_input_externalmetadatacolumn.adoc[]" as ssis.PackageTask_Dft_Component_input_externalMetadataColumn << U >> {
  --
}

entity "puml-link:dhw:sqldb:ssis.packagetask_dft_component_input_externalmetadatacolumn_src.adoc[]" as ssis.PackageTask_Dft_Component_input_externalMetadataColumn_src << V >> {
  - **AntoraModule** : (varchar(50))
  **PackageName** : (varchar(200))
  **Column_refId** : (varchar(max))
  --
}

entity "puml-link:dhw:sqldb:ssis.packagetask_dft_component_input_externalmetadatacolumn_tgt.adoc[]" as ssis.PackageTask_Dft_Component_input_externalMetadataColumn_tgt << V >> {
  - **AntoraModule** : (varchar(50))
  **PackageName** : (varchar(200))
  **Column_refId** : (varchar(max))
  --
}

entity "puml-link:dhw:sqldb:ssis.packagetask_dft_component_input_inputcolumn.adoc[]" as ssis.PackageTask_Dft_Component_input_inputColumn << U >> {
  --
}

entity "puml-link:dhw:sqldb:ssis.packagetask_dft_component_input_inputcolumn_src.adoc[]" as ssis.PackageTask_Dft_Component_input_inputColumn_src << V >> {
  - **AntoraModule** : (varchar(50))
  **PackageName** : (varchar(200))
  **Column_refId** : (varchar(max))
  --
}

entity "puml-link:dhw:sqldb:ssis.packagetask_dft_component_input_inputcolumn_tgt.adoc[]" as ssis.PackageTask_Dft_Component_input_inputColumn_tgt << V >> {
  - **AntoraModule** : (varchar(50))
  **PackageName** : (varchar(200))
  **Column_refId** : (varchar(max))
  --
}

entity "puml-link:dhw:sqldb:ssis.packagetask_dft_component_input_src.adoc[]" as ssis.PackageTask_Dft_Component_input_src << V >> {
  - **AntoraModule** : (varchar(50))
  **PackageName** : (varchar(200))
  **input_refId** : (varchar(max))
  --
}

entity "puml-link:dhw:sqldb:ssis.packagetask_dft_component_input_tgt.adoc[]" as ssis.PackageTask_Dft_Component_input_tgt << V >> {
  - **AntoraModule** : (varchar(50))
  **PackageName** : (varchar(200))
  **input_refId** : (varchar(max))
  --
}

entity "puml-link:dhw:sqldb:ssis.packagetask_dft_component_output.adoc[]" as ssis.PackageTask_Dft_Component_output << U >> {
  --
}

entity "puml-link:dhw:sqldb:ssis.packagetask_dft_component_output_externalmetadatacolumn.adoc[]" as ssis.PackageTask_Dft_Component_output_externalMetadataColumn << U >> {
  --
}

entity "puml-link:dhw:sqldb:ssis.packagetask_dft_component_output_externalmetadatacolumn_src.adoc[]" as ssis.PackageTask_Dft_Component_output_externalMetadataColumn_src << V >> {
  - **AntoraModule** : (varchar(50))
  **PackageName** : (varchar(200))
  **Column_refId** : (varchar(max))
  --
}

entity "puml-link:dhw:sqldb:ssis.packagetask_dft_component_output_externalmetadatacolumn_tgt.adoc[]" as ssis.PackageTask_Dft_Component_output_externalMetadataColumn_tgt << V >> {
  - **AntoraModule** : (varchar(50))
  **PackageName** : (varchar(200))
  **Column_refId** : (varchar(max))
  --
}

entity "puml-link:dhw:sqldb:ssis.packagetask_dft_component_output_outputcolumn.adoc[]" as ssis.PackageTask_Dft_Component_output_outputcolumn << U >> {
  --
}

entity "puml-link:dhw:sqldb:ssis.packagetask_dft_component_output_outputcolumn_src.adoc[]" as ssis.PackageTask_Dft_Component_output_outputcolumn_src << V >> {
  - **AntoraModule** : (varchar(50))
  **PackageName** : (varchar(200))
  **Column_refId** : (varchar(max))
  --
}

entity "puml-link:dhw:sqldb:ssis.packagetask_dft_component_output_outputcolumn_tgt.adoc[]" as ssis.PackageTask_Dft_Component_output_outputColumn_tgt << V >> {
  - **AntoraModule** : (varchar(50))
  **PackageName** : (varchar(200))
  **Column_refId** : (varchar(max))
  --
}

entity "puml-link:dhw:sqldb:ssis.packagetask_dft_component_output_src.adoc[]" as ssis.PackageTask_Dft_Component_output_src << V >> {
  - **AntoraModule** : (varchar(50))
  **PackageName** : (varchar(200))
  **output_refId** : (varchar(max))
  --
}

entity "puml-link:dhw:sqldb:ssis.packagetask_dft_component_output_tgt.adoc[]" as ssis.PackageTask_Dft_Component_output_tgt << V >> {
  - **AntoraModule** : (varchar(50))
  **PackageName** : (varchar(200))
  **output_refId** : (varchar(max))
  --
}

entity "puml-link:dhw:sqldb:ssis.packagetask_dft_component_src.adoc[]" as ssis.PackageTask_Dft_Component_src << V >> {
  - **AntoraModule** : (varchar(50))
  **PackageName** : (varchar(200))
  **Component_refId** : (varchar(max))
  --
}

entity "puml-link:dhw:sqldb:ssis.packagetask_dft_component_tgt.adoc[]" as ssis.PackageTask_Dft_Component_tgt << V >> {
  - **AntoraModule** : (varchar(50))
  **PackageName** : (varchar(200))
  **Component_refId** : (varchar(max))
  --
}

entity "puml-link:dhw:sqldb:ssis.packagetask_levellaglead.adoc[]" as ssis.PackageTask_LevelLagLead << V >> {
  --
}

entity "puml-link:dhw:sqldb:ssis.packagetask_sql_parameter.adoc[]" as ssis.PackageTask_Sql_Parameter << U >> {
  --
}

entity "puml-link:dhw:sqldb:ssis.packagetask_sql_parameter_src.adoc[]" as ssis.PackageTask_Sql_Parameter_src << V >> {
  - **AntoraModule** : (varchar(50))
  **PackageName** : (varchar(200))
  **TaskPath** : (varchar(8000))
  **ParameterBindingSequence** : (varchar(1000))
  --
}

entity "puml-link:dhw:sqldb:ssis.packagetask_sql_parameter_tgt.adoc[]" as ssis.PackageTask_Sql_Parameter_tgt << V >> {
  - **AntoraModule** : (varchar(50))
  **PackageName** : (varchar(200))
  **TaskPath** : (varchar(8000))
  **ParameterBindingSequence** : (varchar(1000))
  --
}

entity "puml-link:dhw:sqldb:ssis.packagetask_src.adoc[]" as ssis.PackageTask_src << V >> {
  - **AntoraModule** : (varchar(50))
  **PackageName** : (varchar(200))
  **TaskPath** : (varchar(8000))
  --
}

entity "puml-link:dhw:sqldb:ssis.packagetask_tgt.adoc[]" as ssis.PackageTask_tgt << V >> {
  - **AntoraModule** : (varchar(50))
  **PackageName** : (varchar(200))
  **TaskPath** : (varchar(8000))
  --
}

entity "puml-link:dhw:sqldb:ssis.packagevariable.adoc[]" as ssis.PackageVariable << U >> {
  - **AntoraModule** : (varchar(50))
  - **PackageName** : (varchar(200))
  - **VariableName** : (varchar(500))
  --
}

entity "puml-link:dhw:sqldb:ssis.packagevariable_src.adoc[]" as ssis.PackageVariable_src << V >> {
  - **AntoraModule** : (varchar(50))
  **PackageName** : (varchar(200))
  **VariableName** : (varchar(500))
  --
}

entity "puml-link:dhw:sqldb:ssis.packagevariable_tgt.adoc[]" as ssis.PackageVariable_tgt << V >> {
  - **AntoraModule** : (varchar(50))
  **PackageName** : (varchar(200))
  **VariableName** : (varchar(500))
  --
}

entity "puml-link:dhw:sqldb:ssis.project.adoc[]" as ssis.Project << U >> {
  - **AntoraModule** : (varchar(50))
  --
}

entity "puml-link:dhw:sqldb:ssis.projectconnection.adoc[]" as ssis.ProjectConnection << U >> {
  - **AntoraModule** : (varchar(50))
  - **ConnectionManagerID** : (uniqueidentifier)
  --
}

entity "puml-link:dhw:sqldb:ssis.projectconnection_src.adoc[]" as ssis.ProjectConnection_src << V >> {
  - **AntoraModule** : (varchar(50))
  **ConnectionManagerID** : (uniqueidentifier)
  --
}

entity "puml-link:dhw:sqldb:ssis.projectconnection_tgt.adoc[]" as ssis.ProjectConnection_tgt << V >> {
  - **AntoraModule** : (varchar(50))
  **ConnectionManagerID** : (uniqueidentifier)
  --
}

entity "puml-link:dhw:sqldb:ssis_t.pkgstats.adoc[]" as ssis_t.pkgStats << U >> {
  - **RowID** : (int)
  --
}

entity "puml-link:dhw:sqldb:ssis_t.projectconnection.adoc[]" as ssis_t.ProjectConnection << U >> {
  - **RowID** : (int)
  --
}

entity "puml-link:dhw:sqldb:ssis_t.tblconnection.adoc[]" as ssis_t.TblConnection << U >> {
  --
}

entity "puml-link:dhw:sqldb:ssis_t.tblcontrolflow.adoc[]" as ssis_t.TblControlFlow << U >> {
  - **ControlFlowDetailsRowID** : (int)
  --
}

entity "puml-link:dhw:sqldb:ssis_t.tblparameter.adoc[]" as ssis_t.TblParameter << U >> {
  --
}

entity "puml-link:dhw:sqldb:ssis_t.tblprecedenceconstraint.adoc[]" as ssis_t.TblPrecedenceConstraint << U >> {
  --
}

entity "puml-link:dhw:sqldb:ssis_t.tblprojectconnection.adoc[]" as ssis_t.TblProjectConnection << U >> {
  --
}

entity "puml-link:dhw:sqldb:ssis_t.tbltask_dft_component.adoc[]" as ssis_t.TblTask_Dft_Component << U >> {
  - **DftComponentId** : (int)
  --
}

entity "puml-link:dhw:sqldb:ssis_t.tbltask_dft_component_inputs_externalmetadatacolumn_src.adoc[]" as ssis_t.TblTask_Dft_Component_inputs_externalMetadataColumn_src << V >> {
  --
}

entity "puml-link:dhw:sqldb:ssis_t.tbltask_dft_component_inputs_inputcolumn_src.adoc[]" as ssis_t.TblTask_Dft_Component_inputs_inputColumn_src << V >> {
  --
}

entity "puml-link:dhw:sqldb:ssis_t.tbltask_dft_component_inputs_src.adoc[]" as ssis_t.TblTask_Dft_Component_inputs_src << V >> {
  --
}

entity "puml-link:dhw:sqldb:ssis_t.tbltask_dft_component_outputs_externalmetadatacolumn_src.adoc[]" as ssis_t.TblTask_Dft_Component_outputs_externalMetadataColumn_src << V >> {
  --
}

entity "puml-link:dhw:sqldb:ssis_t.tbltask_dft_component_outputs_outputcolumn_src.adoc[]" as ssis_t.TblTask_Dft_Component_outputs_outputColumn_src << V >> {
  --
}

entity "puml-link:dhw:sqldb:ssis_t.tbltask_dft_component_outputs_src.adoc[]" as ssis_t.TblTask_Dft_Component_outputs_src << V >> {
  --
}

entity "puml-link:dhw:sqldb:ssis_t.tbltask_executepackage.adoc[]" as ssis_t.TblTask_ExecutePackage << U >> {
  - **ControlFlowDetailsRowID** : (int)
  --
}

entity "puml-link:dhw:sqldb:ssis_t.tbltask_script.adoc[]" as ssis_t.TblTask_Script << U >> {
  - **ControlFlowDetailsRowID** : (int)
  --
}

entity "puml-link:dhw:sqldb:ssis_t.tbltask_sql.adoc[]" as ssis_t.TblTask_Sql << U >> {
  - **ControlFlowDetailsRowID** : (int)
  --
}

entity "puml-link:dhw:sqldb:ssis_t.tbltask_sql_parameter.adoc[]" as ssis_t.TblTask_Sql_Parameter << U >> {
  --
}

entity "puml-link:dhw:sqldb:ssis_t.tblvariable.adoc[]" as ssis_t.TblVariable << U >> {
  --
}

config.fs_get_parameter_value <.. docs.usp_AntoraExport_SsisPartialProperties
config.ftv_get_parameter_value <.. docs.ssis_PumlDftTask
config.ftv_get_parameter_value <.. docs.ssis_PumlPackage
config.Parameter <.. config.fs_get_parameter_value
config.Parameter <.. config.ftv_get_parameter_value
configT.Parameter_default <.. config.Parameter
docs.fs_cleanStringForAnchorId <.. docs.ssis_VariableList
docs.fs_cleanStringForAnchorId <.. docs.ssis_TaskList
docs.fs_cleanStringForAnchorId <.. docs.ssis_ParameterList
docs.fs_cleanStringForAnchorId <.. docs.ssis_ConnectionList
docs.fs_cleanStringForAnchorId <.. docs.ssis_DftTaskComponentList
docs.fs_cleanStringForAnchorId <.. docs.ssis_PumlPartialDftComponent
docs.fs_cleanStringForAnchorId <.. docs.ssis_PumlPartialDataFlow
docs.fs_cleanStringForAnchorId <.. docs.ssis_ProjectConnectionList
docs.fs_cleanStringForAnchorId <.. docs.ssis_PumlPartialTaskComponent
docs.fs_cleanStringForAnchorId <.. docs.ssis_DftTaskComponentOutputList
docs.fs_cleanStringForAnchorId <.. docs.ssis_DftTaskComponentOutputColumnList
docs.fs_cleanStringForAnchorId <.. docs.ssis_DftTaskComponentInputColumnList
docs.fs_cleanStringForAnchorId <.. docs.ssis_DftTaskComponentInputList
docs.fs_cleanStringForAnchorId <.. docs.ssis_PumlPartialControlFlows
docs.fs_cleanStringForFilename <.. docs.ssis_TaskList
docs.fs_cleanStringForFilename <.. docs.ssis_PumlPartialTaskComponent
docs.fs_cleanStringForFilename <.. docs.ssis_PumlPartialDftComponent
docs.fs_cleanStringForFilename <.. docs.usp_AntoraExport_SsisPartialProperties
docs.fs_cleanStringForHeader <.. docs.ssis_ProjectConnectionList
docs.fs_cleanStringForHeader <.. docs.ssis_DftTaskComponentOutputList
docs.fs_cleanStringForHeader <.. docs.ssis_DftTaskComponentOutputColumnList
docs.fs_cleanStringForHeader <.. docs.ssis_VariableList
docs.fs_cleanStringForHeader <.. docs.ssis_TaskList
docs.fs_cleanStringForHeader <.. docs.ssis_DftTaskComponentList
docs.fs_cleanStringForHeader <.. docs.ssis_DftTaskComponentInputColumnList
docs.fs_cleanStringForHeader <.. docs.ssis_DftTaskComponentInputList
docs.fs_cleanStringForHeader <.. docs.ssis_ParameterList
docs.fs_cleanStringForHeader <.. docs.ssis_ConnectionList
docs.ssis_Adoc <.. docs.usp_PERSIST_ssis_Adoc_T
docs.ssis_Adoc <.. docs.ssis_Adoc_T
docs.ssis_Adoc_T <.. docs.usp_PERSIST_ssis_Adoc_T
docs.ssis_Adoc_T <.. docs.usp_AntoraExport_SsisPartialProperties
docs.ssis_ConnectionList <.. docs.ssis_Adoc
docs.ssis_DftTaskComponentInputColumnList <.. docs.ssis_DftTaskComponentInputList
docs.ssis_DftTaskComponentInputList <.. docs.ssis_DftTaskComponentList
docs.ssis_DftTaskComponentList <.. docs.ssis_TaskList
docs.ssis_DftTaskComponentOutputColumnList <.. docs.ssis_DftTaskComponentOutputList
docs.ssis_DftTaskComponentOutputList <.. docs.ssis_DftTaskComponentList
docs.ssis_GeneralList <.. docs.ssis_Adoc
docs.ssis_ParameterList <.. docs.ssis_Adoc
docs.ssis_ProjectConnectionList <.. docs.ssis_Adoc
docs.ssis_PumlDftTask <.. docs.ssis_TaskList
docs.ssis_PumlPackage <.. docs.ssis_Adoc
docs.ssis_PumlPartialControlFlows <.. docs.ssis_PumlPackage
docs.ssis_PumlPartialDataFlow <.. docs.ssis_PumlDftTask
docs.ssis_PumlPartialDftComponent <.. docs.ssis_PumlDftTask
docs.ssis_PumlPartialDftComponent <.. docs.ssis_DftTaskComponentList
docs.ssis_PumlPartialTaskComponent <.. docs.ssis_PumlPackage
docs.ssis_SqlTaskParameterInnerTable <.. docs.ssis_TaskList
docs.ssis_TaskList <.. docs.ssis_Adoc
docs.ssis_VariableList <.. docs.ssis_Adoc
docs.usp_PERSIST_ssis_Adoc_T <.. docs.usp_AntoraExport_SsisPartialProperties
logs.ExecutionLog <.. logs.usp_ExecutionLog_insert
logs.usp_ExecutionLog_insert <.. docs.usp_AntoraExport_SsisPartialProperties
logs.usp_ExecutionLog_insert <.. docs.usp_PERSIST_ssis_Adoc_T
ssis.AntoraModule_tgt_filter <.. ssis.PackageParameter_tgt
ssis.AntoraModule_tgt_filter <.. ssis.PackageFlow_tgt
ssis.AntoraModule_tgt_filter <.. ssis.PackageConnection_tgt
ssis.AntoraModule_tgt_filter <.. ssis.Package_tgt
ssis.AntoraModule_tgt_filter <.. ssis.PackageTask_Dft_Component_output_tgt
ssis.AntoraModule_tgt_filter <.. ssis.PackageTask_Dft_Component_input_tgt
ssis.AntoraModule_tgt_filter <.. ssis.PackageTask_Dft_Component_output_outputcolumn_tgt
ssis.AntoraModule_tgt_filter <.. ssis.PackageTask_Dft_Component_output_externalMetadataColumn_tgt
ssis.AntoraModule_tgt_filter <.. ssis.PackageTask_Dft_Component_input_inputColumn_tgt
ssis.AntoraModule_tgt_filter <.. ssis.PackageTask_Dft_Component_input_externalMetadataColumn_tgt
ssis.AntoraModule_tgt_filter <.. ssis.PackageTask_Dft_Component_tgt
ssis.AntoraModule_tgt_filter <.. ssis.ProjectConnection_tgt
ssis.AntoraModule_tgt_filter <.. ssis.PackageVariable_tgt
ssis.AntoraModule_tgt_filter <.. ssis.PackageTask_tgt
ssis.AntoraModule_tgt_filter <.. ssis.PackageTask_Sql_Parameter_tgt
ssis.Package <.. ssis.Package_tgt
ssis.Package <.. docs.ssis_GeneralList
ssis.Package <.. docs.ssis_Adoc
ssis.Package_src <.. ssis.PackageTask_Dft_Component_input_externalMetadataColumn_src
ssis.Package_src <.. ssis.PackageTask_Dft_Component_input_inputColumn_src
ssis.Package_src <.. ssis.PackageTask_Dft_Component_output_externalMetadataColumn_src
ssis.Package_src <.. ssis.PackageTask_Dft_Component_output_outputcolumn_src
ssis.Package_src <.. ssis.PackageTask_Dft_Component_output_src
ssis.Package_src <.. ssis.PackageTask_Dft_Component_input_src
ssis.Package_src <.. ssis.PackageTask_Dft_Component_src
ssis.Package_src <.. ssis.PackageTask_Sql_Parameter_src
ssis.Package_src <.. ssis.PackageParameter_src
ssis.Package_src <.. ssis.PackageTask_src
ssis.Package_src <.. ssis.PackageVariable_src
ssis.Package_src <.. ssis.PackageFlow_src
ssis.Package_src <.. ssis.PackageConnection_src
ssis.Package_src <.. ssis.Package_tgt
ssis.Package_src <.. ssis.AntoraModule_tgt_filter
ssis.Package_tgt <.. ssis.AntoraModule_tgt_filter
ssis.Package_tgt <.. ssis.Package
ssis.PackageConnection <.. ssis.PackageConnection_tgt
ssis.PackageConnection <.. docs.ssis_TaskList
ssis.PackageConnection <.. docs.ssis_ConnectionList
ssis.PackageConnection_src <.. ssis.PackageConnection_tgt
ssis.PackageConnection_tgt <.. ssis.PackageConnection
ssis.PackageConnection_tgt <.. ssis.AntoraModule_tgt_filter
ssis.PackageFlow <.. ssis.PackageFlow_tgt
ssis.PackageFlow <.. docs.ssis_PumlPartialControlFlows
ssis.PackageFlow <.. docs.ssis_PumlPartialDataFlow
ssis.PackageFlow_src <.. ssis.PackageFlow_tgt
ssis.PackageFlow_tgt <.. ssis.PackageFlow
ssis.PackageFlow_tgt <.. ssis.AntoraModule_tgt_filter
ssis.PackageParameter <.. ssis.PackageParameter_tgt
ssis.PackageParameter <.. docs.ssis_ParameterList
ssis.PackageParameter_src <.. ssis.PackageParameter_tgt
ssis.PackageParameter_tgt <.. ssis.PackageParameter
ssis.PackageParameter_tgt <.. ssis.AntoraModule_tgt_filter
ssis.PackageTask <.. ssis.PackageTask_tgt
ssis.PackageTask <.. docs.ssis_TaskList
ssis.PackageTask <.. ssis.PackageTask_LevelLagLead
ssis.PackageTask_Dft_Component <.. docs.ssis_PumlPartialDftComponent
ssis.PackageTask_Dft_Component <.. ssis.PackageTask_Dft_Component_tgt
ssis.PackageTask_Dft_Component <.. docs.ssis_PumlDftTask
ssis.PackageTask_Dft_Component <.. docs.ssis_DftTaskComponentList
ssis.PackageTask_Dft_Component_input <.. docs.ssis_DftTaskComponentInputList
ssis.PackageTask_Dft_Component_input <.. ssis.PackageTask_Dft_Component_input_tgt
ssis.PackageTask_Dft_Component_input_externalMetadataColumn <.. docs.ssis_DftTaskComponentOutputColumnList
ssis.PackageTask_Dft_Component_input_externalMetadataColumn <.. docs.ssis_DftTaskComponentInputColumnList
ssis.PackageTask_Dft_Component_input_externalMetadataColumn <.. ssis.PackageTask_Dft_Component_input_externalMetadataColumn_tgt
ssis.PackageTask_Dft_Component_input_externalMetadataColumn_src <.. ssis.PackageTask_Dft_Component_input_externalMetadataColumn_tgt
ssis.PackageTask_Dft_Component_input_externalMetadataColumn_tgt <.. ssis.AntoraModule_tgt_filter
ssis.PackageTask_Dft_Component_input_externalMetadataColumn_tgt <.. ssis.PackageTask_Dft_Component_input_externalMetadataColumn
ssis.PackageTask_Dft_Component_input_inputColumn <.. docs.ssis_DftTaskComponentInputColumnList
ssis.PackageTask_Dft_Component_input_inputColumn <.. ssis.PackageTask_Dft_Component_input_inputColumn_tgt
ssis.PackageTask_Dft_Component_input_inputColumn_src <.. ssis.PackageTask_Dft_Component_input_inputColumn_tgt
ssis.PackageTask_Dft_Component_input_inputColumn_tgt <.. ssis.PackageTask_Dft_Component_input_inputColumn
ssis.PackageTask_Dft_Component_input_inputColumn_tgt <.. ssis.AntoraModule_tgt_filter
ssis.PackageTask_Dft_Component_input_src <.. ssis.PackageTask_Dft_Component_input_tgt
ssis.PackageTask_Dft_Component_input_tgt <.. ssis.PackageTask_Dft_Component_input
ssis.PackageTask_Dft_Component_input_tgt <.. ssis.AntoraModule_tgt_filter
ssis.PackageTask_Dft_Component_output <.. docs.ssis_DftTaskComponentOutputList
ssis.PackageTask_Dft_Component_output <.. ssis.PackageTask_Dft_Component_output_tgt
ssis.PackageTask_Dft_Component_output_externalMetadataColumn <.. ssis.PackageTask_Dft_Component_output_externalMetadataColumn_tgt
ssis.PackageTask_Dft_Component_output_externalMetadataColumn_src <.. ssis.PackageTask_Dft_Component_output_externalMetadataColumn_tgt
ssis.PackageTask_Dft_Component_output_externalMetadataColumn_tgt <.. ssis.PackageTask_Dft_Component_output_externalMetadataColumn
ssis.PackageTask_Dft_Component_output_externalMetadataColumn_tgt <.. ssis.AntoraModule_tgt_filter
ssis.PackageTask_Dft_Component_output_outputcolumn <.. ssis.PackageTask_Dft_Component_output_outputcolumn_tgt
ssis.PackageTask_Dft_Component_output_outputcolumn <.. docs.ssis_DftTaskComponentOutputColumnList
ssis.PackageTask_Dft_Component_output_outputcolumn_src <.. ssis.PackageTask_Dft_Component_output_outputcolumn_tgt
ssis.PackageTask_Dft_Component_output_outputcolumn_tgt <.. ssis.PackageTask_Dft_Component_output_outputcolumn
ssis.PackageTask_Dft_Component_output_outputcolumn_tgt <.. ssis.AntoraModule_tgt_filter
ssis.PackageTask_Dft_Component_output_src <.. ssis.PackageTask_Dft_Component_output_tgt
ssis.PackageTask_Dft_Component_output_tgt <.. ssis.PackageTask_Dft_Component_output
ssis.PackageTask_Dft_Component_output_tgt <.. ssis.AntoraModule_tgt_filter
ssis.PackageTask_Dft_Component_src <.. ssis.PackageTask_Dft_Component_tgt
ssis.PackageTask_Dft_Component_tgt <.. ssis.PackageTask_Dft_Component
ssis.PackageTask_Dft_Component_tgt <.. ssis.AntoraModule_tgt_filter
ssis.PackageTask_LevelLagLead <.. docs.ssis_PumlPartialTaskComponent
ssis.PackageTask_Sql_Parameter <.. docs.ssis_SqlTaskParameterInnerTable
ssis.PackageTask_Sql_Parameter <.. ssis.PackageTask_Sql_Parameter_tgt
ssis.PackageTask_Sql_Parameter_src <.. ssis.PackageTask_Sql_Parameter_tgt
ssis.PackageTask_Sql_Parameter_tgt <.. ssis.AntoraModule_tgt_filter
ssis.PackageTask_Sql_Parameter_tgt <.. ssis.PackageTask_Sql_Parameter
ssis.PackageTask_src <.. ssis.PackageTask_tgt
ssis.PackageTask_tgt <.. ssis.AntoraModule_tgt_filter
ssis.PackageTask_tgt <.. ssis.PackageTask
ssis.PackageVariable <.. ssis.PackageVariable_tgt
ssis.PackageVariable <.. docs.ssis_VariableList
ssis.PackageVariable_src <.. ssis.PackageVariable_tgt
ssis.PackageVariable_tgt <.. ssis.AntoraModule_tgt_filter
ssis.PackageVariable_tgt <.. ssis.PackageVariable
ssis.Project <.. ssis.ProjectConnection_src
ssis.Project <.. ssis.Package_src
ssis.ProjectConnection <.. ssis.ProjectConnection_tgt
ssis.ProjectConnection <.. docs.ssis_TaskList
ssis.ProjectConnection <.. docs.ssis_ProjectConnectionList
ssis.ProjectConnection_src <.. ssis.ProjectConnection_tgt
ssis.ProjectConnection_tgt <.. ssis.AntoraModule_tgt_filter
ssis.ProjectConnection_tgt <.. ssis.ProjectConnection
ssis_t.pkgStats <.. ssis.Package_src
ssis_t.ProjectConnection <.. ssis.ProjectConnection_src
ssis_t.TblConnection <.. ssis.PackageConnection_src
ssis_t.TblControlFlow <.. ssis.PackageTask_Sql_Parameter_src
ssis_t.TblControlFlow <.. ssis.PackageTask_Dft_Component_output_src
ssis_t.TblControlFlow <.. ssis.PackageTask_Dft_Component_input_src
ssis_t.TblControlFlow <.. ssis.PackageTask_Dft_Component_src
ssis_t.TblControlFlow <.. ssis.PackageTask_src
ssis_t.TblControlFlow <.. ssis.PackageTask_Dft_Component_input_externalMetadataColumn_src
ssis_t.TblControlFlow <.. ssis.PackageTask_Dft_Component_input_inputColumn_src
ssis_t.TblControlFlow <.. ssis.PackageTask_Dft_Component_output_externalMetadataColumn_src
ssis_t.TblControlFlow <.. ssis.PackageTask_Dft_Component_output_outputcolumn_src
ssis_t.TblParameter <.. ssis.PackageParameter_src
ssis_t.TblPrecedenceConstraint <.. ssis.PackageFlow_src
ssis_t.TblProjectConnection <.. ssis.ProjectConnection_src
ssis_t.TblTask_Dft_Component <.. ssis_t.TblTask_Dft_Component_inputs_externalMetadataColumn_src
ssis_t.TblTask_Dft_Component <.. ssis_t.TblTask_Dft_Component_inputs_inputColumn_src
ssis_t.TblTask_Dft_Component <.. ssis_t.TblTask_Dft_Component_outputs_externalMetadataColumn_src
ssis_t.TblTask_Dft_Component <.. ssis_t.TblTask_Dft_Component_outputs_outputColumn_src
ssis_t.TblTask_Dft_Component <.. ssis_t.TblTask_Dft_Component_inputs_src
ssis_t.TblTask_Dft_Component <.. ssis_t.TblTask_Dft_Component_outputs_src
ssis_t.TblTask_Dft_Component <.. ssis.PackageTask_Dft_Component_src
ssis_t.TblTask_Dft_Component_inputs_externalMetadataColumn_src <.. ssis.PackageTask_Dft_Component_input_externalMetadataColumn_src
ssis_t.TblTask_Dft_Component_inputs_inputColumn_src <.. ssis.PackageTask_Dft_Component_input_inputColumn_src
ssis_t.TblTask_Dft_Component_inputs_src <.. ssis.PackageTask_Dft_Component_input_src
ssis_t.TblTask_Dft_Component_outputs_externalMetadataColumn_src <.. ssis.PackageTask_Dft_Component_output_externalMetadataColumn_src
ssis_t.TblTask_Dft_Component_outputs_outputColumn_src <.. ssis.PackageTask_Dft_Component_output_outputcolumn_src
ssis_t.TblTask_Dft_Component_outputs_src <.. ssis.PackageTask_Dft_Component_output_src
ssis_t.TblTask_ExecutePackage <.. ssis.PackageTask_src
ssis_t.TblTask_Script <.. ssis.PackageTask_src
ssis_t.TblTask_Sql <.. ssis.PackageTask_src
ssis_t.TblTask_Sql_Parameter <.. ssis.PackageTask_Sql_Parameter_src
ssis_t.TblVariable <.. ssis.PackageVariable_srcfooter The diagram is interactive and contains links.
@enduml

