@startuml
'Left to right direction
top to bottom direction
hide circle
'avoide "." issues:
set namespaceSeparator none


skinparam class {
  BackgroundColor White
  BackgroundColor<<FN>> Yellow
  BackgroundColor<<FS>> Yellow
  BackgroundColor<<FT>> LightGray
  BackgroundColor<<IF>> Yellow
  BackgroundColor<<IS>> Yellow
  BackgroundColor<<P>> Aqua
  BackgroundColor<<PC>> Aqua
  BackgroundColor<<SN>> Yellow
  BackgroundColor<<SO>> SlateBlue
  BackgroundColor<<TF>> LightGray
  BackgroundColor<<TR>> Tomato
  BackgroundColor<<U>> White
  BackgroundColor<<V>> WhiteSmoke
  BackgroundColor<<X>> Aqua
  BackgroundColor<<external>> AliceBlue
}


entity "puml-link:dhw:sqldb:logs.executionlog.adoc[]" as logs.ExecutionLog << U >> {
  --
}

entity "puml-link:dhw:sqldb:logs.executionlog_gross.adoc[]" as logs.ExecutionLog_gross << V >> {
  --
}

entity "puml-link:dhw:sqldb:logs.ftv_executionlog_puml_tree.adoc[]" as logs.ftv_ExecutionLog_puml_tree << IF >> {
  --
}

logs.ExecutionLog <.. logs.ExecutionLog_gross
logs.ExecutionLog_gross <.. logs.ftv_ExecutionLog_puml_tree
@enduml

