@startuml
'Left to right direction
top to bottom direction
hide circle
'avoide "." issues:
set namespaceSeparator none


skinparam class {
  BackgroundColor White
  BackgroundColor<<FN>> Yellow
  BackgroundColor<<FS>> Yellow
  BackgroundColor<<FT>> LightGray
  BackgroundColor<<IF>> Yellow
  BackgroundColor<<IS>> Yellow
  BackgroundColor<<P>> Aqua
  BackgroundColor<<PC>> Aqua
  BackgroundColor<<SN>> Yellow
  BackgroundColor<<SO>> SlateBlue
  BackgroundColor<<TF>> LightGray
  BackgroundColor<<TR>> Tomato
  BackgroundColor<<U>> White
  BackgroundColor<<V>> WhiteSmoke
  BackgroundColor<<X>> Aqua
  BackgroundColor<<external>> AliceBlue
}


entity "puml-link:dhw:sqldb:config.ftv_dwh_database.adoc[]" as config.ftv_dwh_database << IF >> {
  --
}

entity "puml-link:dhw:sqldb:config.ftv_get_parameter_value.adoc[]" as config.ftv_get_parameter_value << IF >> {
  --
}

entity "puml-link:dhw:sqldb:config.parameter.adoc[]" as config.Parameter << U >> {
  - **Parameter_name** : (varchar(100))
  - **sub_Parameter** : (nvarchar(128))
  --
}

entity "puml-link:dhw:sqldb:configt.join_type.adoc[]" as configT.join_type << V >> {
  - **join_type** : (varchar(16))
  --
}

entity "puml-link:dhw:sqldb:configt.parameter_default.adoc[]" as configT.Parameter_default << V >> {
  - **Parameter_name** : (varchar(52))
  - **sub_Parameter** : (nvarchar(27))
  --
}

entity "puml-link:dhw:sqldb:configt.spt_values.adoc[]" as configT.spt_values << U >> {
  --
}

entity "puml-link:dhw:sqldb:configt.type.adoc[]" as configT.type << V >> {
  **type** : (nvarchar(128))
  --
}

entity "puml-link:dhw:sqldb:docs.fs_cleanstringforanchorid.adoc[]" as docs.fs_cleanStringForAnchorId << FN >> {
  --
}

entity "puml-link:dhw:sqldb:docs.fs_cleanstringforfilename.adoc[]" as docs.fs_cleanStringForFilename << FN >> {
  --
}

entity "puml-link:dhw:sqldb:property.external_repoobjectcolumnproperty.adoc[]" as property.external_RepoObjectColumnProperty << U >> {
  - **RepoObjectColumn_guid** : (uniqueidentifier)
  - **property_name** : (nvarchar(128))
  --
}

entity "puml-link:dhw:sqldb:property.external_repoobjectproperty.adoc[]" as property.external_RepoObjectProperty << U >> {
  - **RepoObject_guid** : (uniqueidentifier)
  - **property_name** : (nvarchar(128))
  --
}

entity "puml-link:dhw:sqldb:property.fs_get_repoobjectcolumnproperty_nvarchar.adoc[]" as property.fs_get_RepoObjectColumnProperty_nvarchar << FN >> {
  --
}

entity "puml-link:dhw:sqldb:property.fs_get_repoobjectproperty_nvarchar.adoc[]" as property.fs_get_RepoObjectProperty_nvarchar << FN >> {
  --
}

entity "puml-link:dhw:sqldb:property.propertyname_repoobject.adoc[]" as property.PropertyName_RepoObject << V >> {
  **property_name** : (nvarchar(128))
  --
}

entity "puml-link:dhw:sqldb:property.propertyname_repoobject_t.adoc[]" as property.PropertyName_RepoObject_T << U >> {
  **property_name** : (nvarchar(128))
  --
}

entity "puml-link:dhw:sqldb:property.repoobjectcolumnproperty.adoc[]" as property.RepoObjectColumnProperty << U >> {
  - **RepoObjectColumnProperty_id** : (int)
  --
}

entity "puml-link:dhw:sqldb:property.repoobjectcolumnproperty_external_src.adoc[]" as property.RepoObjectColumnProperty_external_src << V >> {
  - **RepoObjectColumn_guid** : (uniqueidentifier)
  - **property_name** : (nvarchar(128))
  --
}

entity "puml-link:dhw:sqldb:property.repoobjectcolumnproperty_external_tgt.adoc[]" as property.RepoObjectColumnProperty_external_tgt << V >> {
  - **RepoObjectColumn_guid** : (uniqueidentifier)
  - **property_name** : (nvarchar(128))
  --
}

entity "puml-link:dhw:sqldb:property.repoobjectproperty.adoc[]" as property.RepoObjectProperty << U >> {
  - **RepoObjectProperty_id** : (int)
  --
}

entity "puml-link:dhw:sqldb:property.repoobjectproperty_external_src.adoc[]" as property.RepoObjectProperty_external_src << V >> {
  - **RepoObject_guid** : (uniqueidentifier)
  - **property_name** : (nvarchar(128))
  --
}

entity "puml-link:dhw:sqldb:property.repoobjectproperty_external_tgt.adoc[]" as property.RepoObjectProperty_external_tgt << V >> {
  - **RepoObject_guid** : (uniqueidentifier)
  - **property_name** : (nvarchar(128))
  --
}

entity "puml-link:dhw:sqldb:property.repoobjectproperty_selectedpropertyname_split.adoc[]" as property.RepoObjectProperty_SelectedPropertyName_split << V >> {
  --
}

entity "puml-link:dhw:sqldb:reference.additional_reference.adoc[]" as reference.additional_Reference << U >> {
  - **Id** : (int)
  --
}

entity "puml-link:dhw:sqldb:reference.additional_reference_database.adoc[]" as reference.additional_Reference_database << V >> {
  - **AntoraComponent** : (nvarchar(128))
  - **AntoraModule** : (nvarchar(128))
  --
}

entity "puml-link:dhw:sqldb:reference.additional_reference_database_t.adoc[]" as reference.additional_Reference_database_T << U >> {
  - **AntoraComponent** : (nvarchar(128))
  - **AntoraModule** : (nvarchar(128))
  --
}

entity "puml-link:dhw:sqldb:reference.additional_reference_from_properties_src.adoc[]" as reference.additional_Reference_from_properties_src << V >> {
  **referenced_AntoraComponent** : (nvarchar(max))
  **referenced_AntoraModule** : (nvarchar(max))
  **referenced_Schema** : (nvarchar(max))
  **referenced_Object** : (nvarchar(max))
  **referenced_Column** : (nvarchar(max))
  **referencing_AntoraComponent** : (nvarchar(max))
  **referencing_AntoraModule** : (nvarchar(max))
  **referencing_Schema** : (nvarchar(max))
  **referencing_Object** : (nvarchar(max))
  **referencing_Column** : (nvarchar(max))
  --
}

entity "puml-link:dhw:sqldb:reference.additional_reference_from_properties_tgt.adoc[]" as reference.additional_Reference_from_properties_tgt << V >> {
  - **Id** : (int)
  --
}

entity "puml-link:dhw:sqldb:reference.additional_reference_from_ssas_src.adoc[]" as reference.additional_Reference_from_ssas_src << V >> {
  **referenced_AntoraComponent** : (nvarchar(128))
  **referenced_AntoraModule** : (nvarchar(128))
  **referenced_Schema** : (nvarchar(max))
  **referenced_Object** : (nvarchar(max))
  **referenced_Column** : (nvarchar(500))
  **referencing_AntoraComponent** : (nvarchar(max))
  **referencing_AntoraModule** : (nvarchar(max))
  - **referencing_Schema** : (nvarchar(128))
  - **referencing_Object** : (nvarchar(128))
  **referencing_Column** : (nvarchar(128))
  --
}

entity "puml-link:dhw:sqldb:reference.additional_reference_from_ssas_tgt.adoc[]" as reference.additional_Reference_from_ssas_tgt << V >> {
  - **Id** : (int)
  --
}

entity "puml-link:dhw:sqldb:reference.additional_reference_guid.adoc[]" as reference.additional_Reference_guid << V >> {
  --
}

entity "puml-link:dhw:sqldb:reference.additional_reference_is_external.adoc[]" as reference.additional_Reference_is_external << V >> {
  --
}

entity "puml-link:dhw:sqldb:reference.additional_reference_object.adoc[]" as reference.additional_Reference_Object << V >> {
  - **AntoraComponent** : (nvarchar(128))
  - **AntoraModule** : (nvarchar(128))
  - **SchemaName** : (nvarchar(128))
  - **ObjectName** : (nvarchar(128))
  --
}

entity "puml-link:dhw:sqldb:reference.additional_reference_object_t.adoc[]" as reference.additional_Reference_Object_T << U >> {
  - **RepoObject_guid** : (uniqueidentifier)
  --
}

entity "puml-link:dhw:sqldb:reference.additional_reference_objectcolumn.adoc[]" as reference.additional_Reference_ObjectColumn << V >> {
  - **AntoraComponent** : (nvarchar(128))
  - **AntoraModule** : (nvarchar(128))
  - **SchemaName** : (nvarchar(128))
  - **ObjectName** : (nvarchar(128))
  **ColumnName** : (nvarchar(128))
  --
}

entity "puml-link:dhw:sqldb:reference.additional_reference_objectcolumn_t.adoc[]" as reference.additional_Reference_ObjectColumn_T << U >> {
  - **RepoObjectColumn_guid** : (uniqueidentifier)
  --
}

entity "puml-link:dhw:sqldb:reference.additional_reference_wo_columns_from_properties_src.adoc[]" as reference.additional_Reference_wo_columns_from_properties_src << V >> {
  **referenced_AntoraComponent** : (nvarchar(max))
  **referenced_AntoraModule** : (nvarchar(max))
  **referenced_Schema** : (nvarchar(max))
  **referenced_Object** : (nvarchar(max))
  **referencing_AntoraComponent** : (nvarchar(max))
  **referencing_AntoraModule** : (nvarchar(max))
  **referencing_Schema** : (nvarchar(max))
  **referencing_Object** : (nvarchar(max))
  --
}

entity "puml-link:dhw:sqldb:reference.additional_reference_wo_columns_from_properties_tgt.adoc[]" as reference.additional_Reference_wo_columns_from_properties_tgt << V >> {
  - **Id** : (int)
  --
}

entity "puml-link:dhw:sqldb:reference.ftv_repoobjectcolumn_referencetree.adoc[]" as reference.ftv_RepoObjectColumn_ReferenceTree << IF >> {
  --
}

entity "puml-link:dhw:sqldb:reference.repoobject_queryplan.adoc[]" as reference.RepoObject_QueryPlan << U >> {
  - **RepoObject_guid** : (uniqueidentifier)
  --
}

entity "puml-link:dhw:sqldb:reference.repoobject_reference.adoc[]" as reference.RepoObject_reference << V >> {
  --
}

entity "puml-link:dhw:sqldb:reference.repoobject_reference_additional.adoc[]" as reference.RepoObject_reference_additional << V >> {
  --
}

entity "puml-link:dhw:sqldb:reference.repoobject_reference_persistence.adoc[]" as reference.RepoObject_reference_persistence << V >> {
  **referenced_RepoObject_guid** : (uniqueidentifier)
  - **referencing_RepoObject_guid** : (uniqueidentifier)
  --
}

entity "puml-link:dhw:sqldb:reference.repoobject_reference_persistence_target_as_source.adoc[]" as reference.RepoObject_reference_persistence_target_as_source << V >> {
  --
}

entity "puml-link:dhw:sqldb:reference.repoobject_reference_sqlexpressiondependencies.adoc[]" as reference.RepoObject_reference_SqlExpressionDependencies << V >> {
  **referenced_RepoObject_guid** : (uniqueidentifier)
  **referencing_RepoObject_guid** : (uniqueidentifier)
  --
}

entity "puml-link:dhw:sqldb:reference.repoobject_reference_t.adoc[]" as reference.RepoObject_reference_T << U >> {
  **referenced_RepoObject_guid** : (uniqueidentifier)
  **referencing_RepoObject_guid** : (uniqueidentifier)
  --
}

entity "puml-link:dhw:sqldb:reference.repoobject_reference_union.adoc[]" as reference.RepoObject_reference_union << V >> {
  **referenced_RepoObject_guid** : (uniqueidentifier)
  **referencing_RepoObject_guid** : (uniqueidentifier)
  --
}

entity "puml-link:dhw:sqldb:reference.repoobject_reference_virtual.adoc[]" as reference.RepoObject_reference_virtual << V >> {
  --
}

entity "puml-link:dhw:sqldb:reference.repoobject_referencedreferencing.adoc[]" as reference.RepoObject_ReferencedReferencing << V >> {
  --
}

entity "puml-link:dhw:sqldb:reference.repoobjectcolumn_reference.adoc[]" as reference.RepoObjectColumn_reference << V >> {
  **referenced_RepoObjectColumn_guid** : (uniqueidentifier)
  **referencing_RepoObjectColumn_guid** : (uniqueidentifier)
  --
}

entity "puml-link:dhw:sqldb:reference.repoobjectcolumn_reference_additional.adoc[]" as reference.RepoObjectColumn_reference_additional << V >> {
  --
}

entity "puml-link:dhw:sqldb:reference.repoobjectcolumn_reference_persistence.adoc[]" as reference.RepoObjectColumn_reference_Persistence << V >> {
  **referencing_id** : (int)
  **referencing_minor_id** : (int)
  **referenced_id** : (int)
  **referenced_minor_id** : (int)
  --
}

entity "puml-link:dhw:sqldb:reference.repoobjectcolumn_reference_sqlexpressiondependencies.adoc[]" as reference.RepoObjectColumn_reference_SqlExpressionDependencies << V >> {
  - **referencing_id** : (int)
  - **referencing_minor_id** : (int)
  **referenced_id** : (int)
  - **referenced_minor_id** : (int)
  --
}

entity "puml-link:dhw:sqldb:reference.repoobjectcolumn_reference_sqlmodules.adoc[]" as reference.RepoObjectColumn_reference_SqlModules << V >> {
  **referencing_id** : (int)
  **referencing_minor_id** : (int)
  **referenced_id** : (int)
  **referenced_minor_id** : (int)
  --
}

entity "puml-link:dhw:sqldb:reference.repoobjectcolumn_reference_t.adoc[]" as reference.RepoObjectColumn_reference_T << U >> {
  **referenced_RepoObjectColumn_guid** : (uniqueidentifier)
  **referencing_RepoObjectColumn_guid** : (uniqueidentifier)
  --
}

entity "puml-link:dhw:sqldb:reference.repoobjectcolumn_reference_union.adoc[]" as reference.RepoObjectColumn_reference_union << V >> {
  --
}

entity "puml-link:dhw:sqldb:reference.repoobjectcolumn_reference_virtual.adoc[]" as reference.RepoObjectColumn_reference_virtual << V >> {
  --
}

entity "puml-link:dhw:sqldb:reference.repoobjectcolumn_referencedreferencing.adoc[]" as reference.RepoObjectColumn_ReferencedReferencing << V >> {
  --
}

entity "puml-link:dhw:sqldb:reference.repoobjectcolumn_referencetree.adoc[]" as reference.RepoObjectColumn_ReferenceTree << V >> {
  --
}

entity "puml-link:dhw:sqldb:reference.repoobjectcolumnsource_virtual.adoc[]" as reference.RepoObjectColumnSource_virtual << U >> {
  - **RepoObjectColumn_guid** : (uniqueidentifier)
  - **Source_RepoObjectColumn_guid** : (uniqueidentifier)
  --
}

entity "puml-link:dhw:sqldb:reference.repoobjectsource_virtual.adoc[]" as reference.RepoObjectSource_virtual << U >> {
  - **RepoObject_guid** : (uniqueidentifier)
  - **Source_RepoObject_guid** : (uniqueidentifier)
  --
}

entity "puml-link:dhw:sqldb:repo.index_settings.adoc[]" as repo.Index_Settings << U >> {
  - **index_guid** : (uniqueidentifier)
  --
}

entity "puml-link:dhw:sqldb:repo.repoobject.adoc[]" as repo.RepoObject << U >> {
  - **RepoObject_guid** : (uniqueidentifier)
  --
}

entity "puml-link:dhw:sqldb:repo.repoobject_external_src.adoc[]" as repo.RepoObject_external_src << V >> {
  - **RepoObject_guid** : (uniqueidentifier)
  --
}

entity "puml-link:dhw:sqldb:repo.repoobject_external_tgt.adoc[]" as repo.RepoObject_external_tgt << V >> {
  - **RepoObject_guid** : (uniqueidentifier)
  --
}

entity "puml-link:dhw:sqldb:repo.repoobject_gross.adoc[]" as repo.RepoObject_gross << V >> {
  --
}

entity "puml-link:dhw:sqldb:repo.repoobject_persistence.adoc[]" as repo.RepoObject_persistence << U >> {
  - **target_RepoObject_guid** : (uniqueidentifier)
  --
}

entity "puml-link:dhw:sqldb:repo.repoobject_ssas_src.adoc[]" as repo.RepoObject_SSAS_src << V >> {
  - **RepoObject_guid** : (uniqueidentifier)
  --
}

entity "puml-link:dhw:sqldb:repo.repoobject_ssas_tgt.adoc[]" as repo.RepoObject_SSAS_tgt << V >> {
  - **RepoObject_guid** : (uniqueidentifier)
  --
}

entity "puml-link:dhw:sqldb:repo.repoobjectcolumn.adoc[]" as repo.RepoObjectColumn << U >> {
  - **RepoObjectColumn_guid** : (uniqueidentifier)
  --
}

entity "puml-link:dhw:sqldb:repo.repoobjectcolumn_external_src.adoc[]" as repo.RepoObjectColumn_external_src << V >> {
  - **RepoObjectColumn_guid** : (uniqueidentifier)
  --
}

entity "puml-link:dhw:sqldb:repo.repoobjectcolumn_external_tgt.adoc[]" as repo.RepoObjectColumn_external_tgt << V >> {
  - **RepoObjectColumn_guid** : (uniqueidentifier)
  --
}

entity "puml-link:dhw:sqldb:repo.repoobjectcolumn_gross.adoc[]" as repo.RepoObjectColumn_gross << V >> {
  --
}

entity "puml-link:dhw:sqldb:repo.repoobjectcolumn_ssas_src.adoc[]" as repo.RepoObjectColumn_SSAS_src << V >> {
  - **RepoObjectColumn_guid** : (uniqueidentifier)
  --
}

entity "puml-link:dhw:sqldb:repo.repoobjectcolumn_ssas_tgt.adoc[]" as repo.RepoObjectColumn_SSAS_tgt << V >> {
  - **RepoObjectColumn_guid** : (uniqueidentifier)
  --
}

entity "puml-link:dhw:sqldb:repo.reposchema.adoc[]" as repo.RepoSchema << U >> {
  - **RepoSchema_guid** : (uniqueidentifier)
  --
}

entity "puml-link:dhw:sqldb:repo.reposchema_ssas_src.adoc[]" as repo.RepoSchema_ssas_src << V >> {
  --
}

entity "puml-link:dhw:sqldb:repo.reposchema_ssas_tgt.adoc[]" as repo.RepoSchema_ssas_tgt << V >> {
  - **RepoSchema_guid** : (uniqueidentifier)
  --
}

entity "puml-link:dhw:sqldb:repo.syscolumn_repoobjectcolumn_via_name.adoc[]" as repo.SysColumn_RepoObjectColumn_via_name << V >> {
  --
}

entity "puml-link:dhw:sqldb:repo.sysobject_repoobject_via_name.adoc[]" as repo.SysObject_RepoObject_via_name << V >> {
  --
}

entity "puml-link:dhw:sqldb:repo_sys.extendedproperties.adoc[]" as repo_sys.ExtendedProperties << V >> {
  --
}

entity "puml-link:dhw:sqldb:repo_sys.sql_expression_dependencies.adoc[]" as repo_sys.sql_expression_dependencies << V >> {
  --
}

entity "puml-link:dhw:sqldb:repo_sys.syscolumn.adoc[]" as repo_sys.SysColumn << V >> {
  --
}

entity "puml-link:dhw:sqldb:repo_sys.sysobject.adoc[]" as repo_sys.SysObject << V >> {
  --
}

entity "puml-link:dhw:sqldb:sqlparse.ftv_sqlparse.adoc[]" as sqlparse.ftv_sqlparse << IF >> {
  --
}

entity "puml-link:dhw:sqldb:sqlparse.ftv_sqlparse_children_pivot.adoc[]" as sqlparse.ftv_sqlparse_children_pivot << IF >> {
  --
}

entity "puml-link:dhw:sqldb:sqlparse.ftv_sqlparse_with_some_children.adoc[]" as sqlparse.ftv_sqlparse_with_some_children << IF >> {
  --
}

entity "puml-link:dhw:sqldb:sqlparse.repoobject_sqlmodules.adoc[]" as sqlparse.RepoObject_SqlModules << U >> {
  - **RepoObject_guid** : (uniqueidentifier)
  --
}

entity "puml-link:dhw:sqldb:sqlparse.repoobject_sqlmodules_10_statement.adoc[]" as sqlparse.RepoObject_SqlModules_10_statement << V >> {
  --
}

entity "puml-link:dhw:sqldb:sqlparse.repoobject_sqlmodules_20_statement_children.adoc[]" as sqlparse.RepoObject_SqlModules_20_statement_children << V >> {
  - **RepoObject_guid** : (uniqueidentifier)
  - **json_key** : (nvarchar(4000))
  --
}

entity "puml-link:dhw:sqldb:sqlparse.repoobject_sqlmodules_21_statement_children_helper.adoc[]" as sqlparse.RepoObject_SqlModules_21_statement_children_helper << V >> {
  --
}

entity "puml-link:dhw:sqldb:sqlparse.repoobject_sqlmodules_22_identifier_alias_as.adoc[]" as sqlparse.RepoObject_SqlModules_22_identifier_alias_AS << V >> {
  - **RepoObject_guid** : (uniqueidentifier)
  - **json_key** : (nvarchar(4000))
  **RowNumber** : (bigint)
  --
}

entity "puml-link:dhw:sqldb:sqlparse.repoobject_sqlmodules_24_identifierlist_children.adoc[]" as sqlparse.RepoObject_SqlModules_24_IdentifierList_children << V >> {
  - **RepoObject_guid** : (uniqueidentifier)
  - **json_key** : (nvarchar(4000))
  - **T2_json_key** : (nvarchar(4000))
  --
}

entity "puml-link:dhw:sqldb:sqlparse.repoobject_sqlmodules_25_identifierlist_children_identifiersplit.adoc[]" as sqlparse.RepoObject_SqlModules_25_IdentifierList_children_IdentifierSplit << V >> {
  --
}

entity "puml-link:dhw:sqldb:sqlparse.repoobject_sqlmodules_26_identifierlist_children_identifiersplit_quotename.adoc[]" as sqlparse.RepoObject_SqlModules_26_IdentifierList_children_IdentifierSplit_QuoteName << V >> {
  --
}

entity "puml-link:dhw:sqldb:sqlparse.repoobject_sqlmodules_29_1_object_is_union.adoc[]" as sqlparse.RepoObject_SqlModules_29_1_object_is_union << V >> {
  --
}

entity "puml-link:dhw:sqldb:sqlparse.repoobject_sqlmodules_29_2_object_is_groupby.adoc[]" as sqlparse.RepoObject_SqlModules_29_2_object_is_GroupBy << V >> {
  --
}

entity "puml-link:dhw:sqldb:sqlparse.repoobject_sqlmodules_31_object.adoc[]" as sqlparse.RepoObject_SqlModules_31_object << V >> {
  --
}

entity "puml-link:dhw:sqldb:sqlparse.repoobject_sqlmodules_32_objectclass.adoc[]" as sqlparse.RepoObject_SqlModules_32_ObjectClass << V >> {
  - **RepoObject_guid** : (uniqueidentifier)
  **class** : (nvarchar(500))
  --
}

entity "puml-link:dhw:sqldb:sqlparse.repoobject_sqlmodules_33_objectnormalized.adoc[]" as sqlparse.RepoObject_SqlModules_33_ObjectNormalized << V >> {
  - **RepoObject_guid** : (uniqueidentifier)
  **normalized** : (nvarchar(max))
  --
}

entity "puml-link:dhw:sqldb:sqlparse.repoobject_sqlmodules_39_object.adoc[]" as sqlparse.RepoObject_SqlModules_39_object << V >> {
  --
}

entity "puml-link:dhw:sqldb:sqlparse.repoobject_sqlmodules_41_from.adoc[]" as sqlparse.RepoObject_SqlModules_41_from << V >> {
  --
}

entity "puml-link:dhw:sqldb:sqlparse.repoobject_sqlmodules_41_from_t.adoc[]" as sqlparse.RepoObject_SqlModules_41_from_T << U >> {
  --
}

entity "puml-link:dhw:sqldb:sqlparse.repoobject_sqlmodules_42_from_identifier.adoc[]" as sqlparse.RepoObject_SqlModules_42_from_Identifier << V >> {
  --
}

entity "puml-link:dhw:sqldb:sqlparse.repoobject_sqlmodules_43_from_identifier.adoc[]" as sqlparse.RepoObject_SqlModules_43_from_Identifier << V >> {
  --
}

entity "puml-link:dhw:sqldb:sqlparse.repoobject_sqlmodules_44_from_identifier_quotename.adoc[]" as sqlparse.RepoObject_SqlModules_44_from_Identifier_QuoteName << V >> {
  --
}

entity "puml-link:dhw:sqldb:sqlparse.repoobject_sqlmodules_51_identitfier.adoc[]" as sqlparse.RepoObject_SqlModules_51_Identitfier << V >> {
  --
}

entity "puml-link:dhw:sqldb:sqlparse.repoobject_sqlmodules_52_identitfier_quotename.adoc[]" as sqlparse.RepoObject_SqlModules_52_Identitfier_QuoteName << V >> {
  --
}

entity "puml-link:dhw:sqldb:sqlparse.repoobject_sqlmodules_61_selectidentifier_union.adoc[]" as sqlparse.RepoObject_SqlModules_61_SelectIdentifier_Union << V >> {
  --
}

entity "puml-link:dhw:sqldb:sqlparse.repoobject_sqlmodules_61_selectidentifier_union_t.adoc[]" as sqlparse.RepoObject_SqlModules_61_SelectIdentifier_Union_T << U >> {
  --
}

entity "puml-link:dhw:sqldb:sqlparse.repoobject_sqlmodules_71_reference_explicitetablealias.adoc[]" as sqlparse.RepoObject_SqlModules_71_reference_ExpliciteTableAlias << V >> {
  --
}

entity "puml-link:dhw:sqldb:sqlparse.repoobject_sqlmodules_72_reference_notablealias.adoc[]" as sqlparse.RepoObject_SqlModules_72_reference_NoTableAlias << V >> {
  --
}

entity "puml-link:dhw:sqldb:sqlparse.repoobject_sqlmodules_79_reference_union.adoc[]" as sqlparse.RepoObject_SqlModules_79_reference_union << V >> {
  --
}

entity "puml-link:dhw:sqldb:ssas.additional_reference_step1.adoc[]" as ssas.additional_Reference_step1 << V >> {
  --
}

entity "puml-link:dhw:sqldb:ssas.model_json.adoc[]" as ssas.model_json << U >> {
  - **databasename** : (nvarchar(128))
  --
}

entity "puml-link:dhw:sqldb:ssas.model_json_10.adoc[]" as ssas.model_json_10 << V >> {
  --
}

entity "puml-link:dhw:sqldb:ssas.model_json_20.adoc[]" as ssas.model_json_20 << V >> {
  --
}

entity "puml-link:dhw:sqldb:ssas.model_json_201_descriptions_multiline.adoc[]" as ssas.model_json_201_descriptions_multiline << V >> {
  --
}

entity "puml-link:dhw:sqldb:ssas.model_json_2011_descriptions_stragg.adoc[]" as ssas.model_json_2011_descriptions_StrAgg << V >> {
  --
}

entity "puml-link:dhw:sqldb:ssas.model_json_31_tables.adoc[]" as ssas.model_json_31_tables << V >> {
  - **databasename** : (nvarchar(128))
  **tables_name** : (nvarchar(128))
  --
}

entity "puml-link:dhw:sqldb:ssas.model_json_31_tables_t.adoc[]" as ssas.model_json_31_tables_T << U >> {
  - **databasename** : (nvarchar(128))
  **tables_name** : (nvarchar(128))
  --
}

entity "puml-link:dhw:sqldb:ssas.model_json_311_tables_columns.adoc[]" as ssas.model_json_311_tables_columns << V >> {
  - **databasename** : (nvarchar(128))
  - **tables_name** : (nvarchar(128))
  **tables_columns_name** : (nvarchar(128))
  --
}

entity "puml-link:dhw:sqldb:ssas.model_json_311_tables_columns_t.adoc[]" as ssas.model_json_311_tables_columns_T << U >> {
  - **databasename** : (nvarchar(128))
  - **tables_name** : (nvarchar(128))
  **tables_columns_name** : (nvarchar(128))
  --
}

entity "puml-link:dhw:sqldb:ssas.model_json_3111_tables_columns_descriptions_multiline.adoc[]" as ssas.model_json_3111_tables_columns_descriptions_multiline << V >> {
  --
}

entity "puml-link:dhw:sqldb:ssas.model_json_31111_tables_columns_descriptions_stragg.adoc[]" as ssas.model_json_31111_tables_columns_descriptions_StrAgg << V >> {
  --
}

entity "puml-link:dhw:sqldb:ssas.model_json_3112_tables_columns_expressions_multiline.adoc[]" as ssas.model_json_3112_tables_columns_expressions_multiline << V >> {
  --
}

entity "puml-link:dhw:sqldb:ssas.model_json_31121_tables_columns_expressions_stragg.adoc[]" as ssas.model_json_31121_tables_columns_expressions_StrAgg << V >> {
  --
}

entity "puml-link:dhw:sqldb:ssas.model_json_313_tables_partitions.adoc[]" as ssas.model_json_313_tables_partitions << V >> {
  - **databasename** : (nvarchar(128))
  - **tables_name** : (nvarchar(128))
  **tables_partitions_name** : (nvarchar(500))
  --
}

entity "puml-link:dhw:sqldb:ssas.model_json_3131_tables_partitions_source.adoc[]" as ssas.model_json_3131_tables_partitions_source << V >> {
  - **databasename** : (nvarchar(128))
  - **tables_name** : (nvarchar(128))
  **tables_partitions_name** : (nvarchar(500))
  **tables_partitions_source_name** : (nvarchar(500))
  --
}

entity "puml-link:dhw:sqldb:ssas.model_json_31311_tables_partitions_source_posfrom.adoc[]" as ssas.model_json_31311_tables_partitions_source_PosFrom << V >> {
  --
}

entity "puml-link:dhw:sqldb:ssas.model_json_313111_tables_partitions_source_stringfrom.adoc[]" as ssas.model_json_313111_tables_partitions_source_StringFrom << V >> {
  --
}

entity "puml-link:dhw:sqldb:ssas.model_json_3131111_tables_partitions_source_posdot.adoc[]" as ssas.model_json_3131111_tables_partitions_source_PosDot << V >> {
  --
}

entity "puml-link:dhw:sqldb:ssas.model_json_31311111_tables_partitions_source_part123.adoc[]" as ssas.model_json_31311111_tables_partitions_source_Part123 << V >> {
  --
}

entity "puml-link:dhw:sqldb:ssas.model_json_316_tables_descriptions_multiline.adoc[]" as ssas.model_json_316_tables_descriptions_multiline << V >> {
  --
}

entity "puml-link:dhw:sqldb:ssas.model_json_3161_tables_descriptions_stragg.adoc[]" as ssas.model_json_3161_tables_descriptions_StrAgg << V >> {
  --
}

entity "puml-link:dhw:sqldb:ssas.model_json_33_datasources.adoc[]" as ssas.model_json_33_dataSources << V >> {
  - **databasename** : (nvarchar(128))
  **dataSources_name** : (nvarchar(500))
  --
}

entity "puml-link:dhw:sqldb:ssas.model_json_33_datasources_t.adoc[]" as ssas.model_json_33_dataSources_T << U >> {
  - **databasename** : (nvarchar(128))
  **dataSources_name** : (nvarchar(500))
  --
}

entity "puml-link:dhw:sqldb:sys_dwh.columns.adoc[]" as sys_dwh.columns << SN >> {
  --
}

entity "puml-link:dhw:sqldb:sys_dwh.computed_columns.adoc[]" as sys_dwh.computed_columns << SN >> {
  --
}

entity "puml-link:dhw:sqldb:sys_dwh.default_constraints.adoc[]" as sys_dwh.default_constraints << SN >> {
  --
}

entity "puml-link:dhw:sqldb:sys_dwh.extended_properties.adoc[]" as sys_dwh.extended_properties << SN >> {
  --
}

entity "puml-link:dhw:sqldb:sys_dwh.identity_columns.adoc[]" as sys_dwh.identity_columns << SN >> {
  --
}

entity "puml-link:dhw:sqldb:sys_dwh.indexes.adoc[]" as sys_dwh.indexes << SN >> {
  --
}

entity "puml-link:dhw:sqldb:sys_dwh.objects.adoc[]" as sys_dwh.objects << SN >> {
  --
}

entity "puml-link:dhw:sqldb:sys_dwh.parameters.adoc[]" as sys_dwh.parameters << SN >> {
  --
}

entity "puml-link:dhw:sqldb:sys_dwh.schemas.adoc[]" as sys_dwh.schemas << SN >> {
  --
}

entity "puml-link:dhw:sqldb:sys_dwh.sql_expression_dependencies.adoc[]" as sys_dwh.sql_expression_dependencies << SN >> {
  --
}

entity "puml-link:dhw:sqldb:sys_dwh.sql_modules.adoc[]" as sys_dwh.sql_modules << SN >> {
  --
}

entity "puml-link:dhw:sqldb:sys_dwh.tables.adoc[]" as sys_dwh.tables << SN >> {
  --
}

entity "puml-link:dhw:sqldb:sys_dwh.types.adoc[]" as sys_dwh.types << SN >> {
  --
}

entity "puml-link:dhw:sqldb:uspgenerator.generatorusp.adoc[]" as uspgenerator.GeneratorUsp << U >> {
  - **id** : (int)
  --
}

config.ftv_dwh_database <.. repo_sys.sql_expression_dependencies
config.ftv_dwh_database <.. repo_sys.ExtendedProperties
config.ftv_dwh_database <.. repo_sys.SysColumn
config.ftv_get_parameter_value <.. repo.RepoObject_external_src
config.ftv_get_parameter_value <.. reference.additional_Reference_is_external
config.ftv_get_parameter_value <.. ssas.additional_Reference_step1
config.ftv_get_parameter_value <.. repo.RepoObject_gross
config.Parameter <.. config.ftv_get_parameter_value
config.Parameter <.. property.PropertyName_RepoObject
config.Parameter <.. config.ftv_dwh_database
configT.join_type <.. sqlparse.RepoObject_SqlModules_41_from
configT.Parameter_default <.. config.Parameter
configT.spt_values <.. configT.type
configT.type <.. repo.RepoObject_gross
configT.type <.. reference.RepoObject_ReferencedReferencing
docs.fs_cleanStringForAnchorId <.. reference.RepoObjectColumn_ReferencedReferencing
docs.fs_cleanStringForFilename <.. repo.RepoObject_gross
docs.fs_cleanStringForFilename <.. reference.RepoObject_ReferencedReferencing
docs.fs_cleanStringForFilename <.. reference.RepoObjectColumn_ReferencedReferencing
property.external_RepoObjectColumnProperty <.. property.RepoObjectColumnProperty_external_src
property.external_RepoObjectProperty <.. property.RepoObjectProperty_external_src
property.fs_get_RepoObjectColumnProperty_nvarchar <.. repo.RepoObjectColumn_gross
property.fs_get_RepoObjectProperty_nvarchar <.. repo.RepoObject_gross
property.PropertyName_RepoObject <.. property.PropertyName_RepoObject_T
property.PropertyName_RepoObject_T <.. property.RepoObjectProperty_external_tgt
property.PropertyName_RepoObject_T <.. property.RepoObjectColumnProperty_external_tgt
property.RepoObjectColumnProperty <.. property.fs_get_RepoObjectColumnProperty_nvarchar
property.RepoObjectColumnProperty <.. property.RepoObjectColumnProperty_external_tgt
property.RepoObjectColumnProperty_external_src <.. property.RepoObjectColumnProperty_external_tgt
property.RepoObjectColumnProperty_external_tgt <.. repo.RepoObject
property.RepoObjectColumnProperty_external_tgt <.. property.RepoObjectColumnProperty
property.RepoObjectColumnProperty_external_tgt <.. repo.RepoObjectColumn
property.RepoObjectColumnProperty_external_tgt <.. property.PropertyName_RepoObject_T
property.RepoObjectProperty <.. property.RepoObjectProperty_SelectedPropertyName_split
property.RepoObjectProperty <.. property.PropertyName_RepoObject
property.RepoObjectProperty <.. property.fs_get_RepoObjectProperty_nvarchar
property.RepoObjectProperty <.. property.RepoObjectProperty_external_tgt
property.RepoObjectProperty_external_src <.. property.RepoObjectProperty_external_tgt
property.RepoObjectProperty_external_tgt <.. repo.RepoObject
property.RepoObjectProperty_external_tgt <.. property.RepoObjectProperty
property.RepoObjectProperty_external_tgt <.. property.PropertyName_RepoObject_T
property.RepoObjectProperty_SelectedPropertyName_split <.. reference.additional_Reference_wo_columns_from_properties_src
property.RepoObjectProperty_SelectedPropertyName_split <.. reference.additional_Reference_from_properties_src
reference.additional_Reference <.. reference.additional_Reference_guid
reference.additional_Reference <.. reference.additional_Reference_is_external
reference.additional_Reference <.. reference.additional_Reference_from_properties_tgt
reference.additional_Reference <.. reference.additional_Reference_wo_columns_from_properties_tgt
reference.additional_Reference <.. reference.additional_Reference_from_ssas_tgt
reference.additional_Reference_database <.. reference.additional_Reference_database_T
reference.additional_Reference_database_T <.. repo.RepoObject_gross
reference.additional_Reference_from_properties_src <.. reference.additional_Reference_from_properties_tgt
reference.additional_Reference_from_properties_tgt <.. reference.additional_Reference
reference.additional_Reference_from_ssas_src <.. reference.additional_Reference_from_ssas_tgt
reference.additional_Reference_from_ssas_tgt <.. reference.additional_Reference
reference.additional_Reference_guid <.. reference.RepoObject_reference_additional
reference.additional_Reference_guid <.. reference.RepoObjectColumn_reference_additional
reference.additional_Reference_is_external <.. reference.additional_Reference_Object
reference.additional_Reference_is_external <.. reference.additional_Reference_ObjectColumn
reference.additional_Reference_is_external <.. reference.additional_Reference_database
reference.additional_Reference_Object <.. reference.additional_Reference_Object_T
reference.additional_Reference_Object_T <.. repo.RepoObject_external_src
reference.additional_Reference_Object_T <.. repo.RepoObjectColumn_external_src
reference.additional_Reference_ObjectColumn <.. reference.additional_Reference_ObjectColumn_T
reference.additional_Reference_ObjectColumn_T <.. repo.RepoObjectColumn_external_src
reference.additional_Reference_wo_columns_from_properties_src <.. reference.additional_Reference_wo_columns_from_properties_tgt
reference.additional_Reference_wo_columns_from_properties_tgt <.. reference.additional_Reference
reference.ftv_RepoObjectColumn_ReferenceTree <.. reference.RepoObjectColumn_ReferenceTree
reference.RepoObject_QueryPlan <.. repo.RepoObject_gross
reference.RepoObject_reference <.. reference.RepoObject_reference_T
reference.RepoObject_reference_additional <.. reference.RepoObject_reference_union
reference.RepoObject_reference_persistence <.. reference.RepoObject_reference_union
reference.RepoObject_reference_persistence_target_as_source <.. reference.RepoObject_reference_union
reference.RepoObject_reference_SqlExpressionDependencies <.. reference.RepoObject_reference_union
reference.RepoObject_reference_SqlExpressionDependencies <.. reference.RepoObject_reference_persistence_target_as_source
reference.RepoObject_reference_T <.. reference.RepoObjectColumn_reference_additional
reference.RepoObject_reference_T <.. reference.RepoObjectColumn_reference_virtual
reference.RepoObject_reference_T <.. reference.RepoObjectColumn_reference_SqlExpressionDependencies
reference.RepoObject_reference_T <.. reference.RepoObject_ReferencedReferencing
reference.RepoObject_reference_union <.. reference.RepoObject_reference
reference.RepoObject_reference_virtual <.. reference.RepoObject_reference_union
reference.RepoObject_ReferencedReferencing <.. repo.RepoObject_gross
reference.RepoObjectColumn_reference <.. reference.RepoObjectColumn_reference_T
reference.RepoObjectColumn_reference_additional <.. reference.RepoObjectColumn_reference_union
reference.RepoObjectColumn_reference_Persistence <.. reference.RepoObjectColumn_reference_union
reference.RepoObjectColumn_reference_SqlExpressionDependencies <.. reference.RepoObjectColumn_reference_union
reference.RepoObjectColumn_reference_SqlModules <.. reference.RepoObjectColumn_reference_union
reference.RepoObjectColumn_reference_T <.. reference.RepoObjectColumn_ReferencedReferencing
reference.RepoObjectColumn_reference_union <.. reference.RepoObjectColumn_reference
reference.RepoObjectColumn_reference_virtual <.. reference.RepoObjectColumn_reference_union
reference.RepoObjectColumn_ReferencedReferencing <.. reference.ftv_RepoObjectColumn_ReferenceTree
reference.RepoObjectColumnSource_virtual <.. reference.RepoObjectColumn_reference_virtual
reference.RepoObjectSource_virtual <.. reference.RepoObject_reference_virtual
repo.Index_Settings <.. repo.RepoObject_gross
repo.RepoObject <.. reference.RepoObject_reference_persistence
repo.RepoObject <.. sqlparse.RepoObject_SqlModules_10_statement
repo.RepoObject <.. reference.RepoObject_reference_SqlExpressionDependencies
repo.RepoObject <.. repo.SysColumn_RepoObjectColumn_via_name
repo.RepoObject <.. repo.SysObject_RepoObject_via_name
repo.RepoObject <.. sqlparse.RepoObject_SqlModules_39_object
repo.RepoObject <.. property.RepoObjectColumnProperty_external_tgt
repo.RepoObject <.. repo.RepoObject_external_tgt
repo.RepoObject <.. property.RepoObjectProperty_external_tgt
repo.RepoObject <.. reference.additional_Reference_guid
repo.RepoObject <.. reference.RepoObjectColumn_reference_SqlModules
repo.RepoObject <.. repo.RepoObject_SSAS_tgt
repo.RepoObject <.. reference.RepoObject_reference_virtual
repo.RepoObject <.. sqlparse.RepoObject_SqlModules_72_reference_NoTableAlias
repo.RepoObject <.. sqlparse.RepoObject_SqlModules_71_reference_ExpliciteTableAlias
repo.RepoObject <.. repo.RepoObject_gross
repo.RepoObject <.. repo.RepoObjectColumn_gross
repo.RepoObject <.. reference.RepoObjectColumn_reference_Persistence
repo.RepoObject_external_src <.. repo.RepoObject_external_tgt
repo.RepoObject_external_tgt <.. repo.RepoObject
repo.RepoObject_external_tgt <.. repo.RepoObjectColumn_external_tgt
repo.RepoObject_gross <.. reference.RepoObject_reference_persistence_target_as_source
repo.RepoObject_persistence <.. reference.RepoObject_reference_persistence
repo.RepoObject_persistence <.. repo.RepoObject_gross
repo.RepoObject_persistence <.. reference.RepoObjectColumn_reference_Persistence
repo.RepoObject_persistence <.. repo.RepoObjectColumn_gross
repo.RepoObject_SSAS_src <.. repo.RepoObject_SSAS_tgt
repo.RepoObject_SSAS_tgt <.. repo.RepoObject
repo.RepoObject_SSAS_tgt <.. repo.RepoObjectColumn_SSAS_tgt
repo.RepoObjectColumn <.. reference.RepoObjectColumn_ReferenceTree
repo.RepoObjectColumn <.. property.RepoObjectColumnProperty_external_tgt
repo.RepoObjectColumn <.. repo.SysColumn_RepoObjectColumn_via_name
repo.RepoObjectColumn <.. repo.RepoObjectColumn_external_tgt
repo.RepoObjectColumn <.. reference.additional_Reference_guid
repo.RepoObjectColumn <.. reference.RepoObjectColumn_reference_SqlModules
repo.RepoObjectColumn <.. repo.RepoObjectColumn_SSAS_tgt
repo.RepoObjectColumn <.. sqlparse.RepoObject_SqlModules_72_reference_NoTableAlias
repo.RepoObjectColumn <.. sqlparse.RepoObject_SqlModules_71_reference_ExpliciteTableAlias
repo.RepoObjectColumn <.. reference.RepoObjectColumn_reference_Persistence
repo.RepoObjectColumn <.. repo.RepoObjectColumn_gross
repo.RepoObjectColumn_external_src <.. repo.RepoObjectColumn_external_tgt
repo.RepoObjectColumn_external_tgt <.. repo.RepoObjectColumn
repo.RepoObjectColumn_external_tgt <.. repo.RepoObject_external_tgt
repo.RepoObjectColumn_gross <.. reference.RepoObjectColumn_reference_virtual
repo.RepoObjectColumn_SSAS_src <.. repo.RepoObjectColumn_SSAS_tgt
repo.RepoObjectColumn_SSAS_tgt <.. repo.RepoObjectColumn
repo.RepoObjectColumn_SSAS_tgt <.. repo.RepoObject_SSAS_tgt
repo.RepoSchema <.. repo.RepoSchema_ssas_tgt
repo.RepoSchema <.. repo.RepoObject_SSAS_src
repo.RepoSchema_ssas_src <.. repo.RepoSchema_ssas_tgt
repo.RepoSchema_ssas_tgt <.. repo.RepoSchema
repo.SysColumn_RepoObjectColumn_via_name <.. repo_sys.sql_expression_dependencies
repo.SysObject_RepoObject_via_name <.. repo_sys.sql_expression_dependencies
repo_sys.ExtendedProperties <.. repo_sys.SysColumn
repo_sys.ExtendedProperties <.. repo_sys.SysObject
repo_sys.sql_expression_dependencies <.. reference.RepoObject_reference_SqlExpressionDependencies
repo_sys.sql_expression_dependencies <.. reference.RepoObjectColumn_reference_SqlExpressionDependencies
repo_sys.SysColumn <.. repo.SysColumn_RepoObjectColumn_via_name
repo_sys.SysObject <.. repo.SysObject_RepoObject_via_name
repo_sys.SysObject <.. repo_sys.SysColumn
sqlparse.ftv_sqlparse <.. sqlparse.RepoObject_SqlModules_22_identifier_alias_AS
sqlparse.ftv_sqlparse_children_pivot <.. sqlparse.RepoObject_SqlModules_25_IdentifierList_children_IdentifierSplit
sqlparse.ftv_sqlparse_with_some_children <.. sqlparse.RepoObject_SqlModules_24_IdentifierList_children
sqlparse.ftv_sqlparse_with_some_children <.. sqlparse.RepoObject_SqlModules_20_statement_children
sqlparse.RepoObject_SqlModules <.. sqlparse.RepoObject_SqlModules_39_object
sqlparse.RepoObject_SqlModules <.. sqlparse.RepoObject_SqlModules_10_statement
sqlparse.RepoObject_SqlModules_10_statement <.. sqlparse.RepoObject_SqlModules_20_statement_children
sqlparse.RepoObject_SqlModules_20_statement_children <.. sqlparse.RepoObject_SqlModules_29_1_object_is_union
sqlparse.RepoObject_SqlModules_20_statement_children <.. sqlparse.RepoObject_SqlModules_21_statement_children_helper
sqlparse.RepoObject_SqlModules_20_statement_children <.. sqlparse.RepoObject_SqlModules_29_2_object_is_GroupBy
sqlparse.RepoObject_SqlModules_20_statement_children <.. sqlparse.RepoObject_SqlModules_32_ObjectClass
sqlparse.RepoObject_SqlModules_20_statement_children <.. sqlparse.RepoObject_SqlModules_51_Identitfier
sqlparse.RepoObject_SqlModules_20_statement_children <.. sqlparse.RepoObject_SqlModules_24_IdentifierList_children
sqlparse.RepoObject_SqlModules_20_statement_children <.. sqlparse.RepoObject_SqlModules_41_from
sqlparse.RepoObject_SqlModules_20_statement_children <.. sqlparse.RepoObject_SqlModules_33_ObjectNormalized
sqlparse.RepoObject_SqlModules_20_statement_children <.. sqlparse.RepoObject_SqlModules_22_identifier_alias_AS
sqlparse.RepoObject_SqlModules_21_statement_children_helper <.. sqlparse.RepoObject_SqlModules_31_object
sqlparse.RepoObject_SqlModules_22_identifier_alias_AS <.. sqlparse.RepoObject_SqlModules_41_from
sqlparse.RepoObject_SqlModules_24_IdentifierList_children <.. sqlparse.RepoObject_SqlModules_25_IdentifierList_children_IdentifierSplit
sqlparse.RepoObject_SqlModules_25_IdentifierList_children_IdentifierSplit <.. sqlparse.RepoObject_SqlModules_26_IdentifierList_children_IdentifierSplit_QuoteName
sqlparse.RepoObject_SqlModules_26_IdentifierList_children_IdentifierSplit_QuoteName <.. sqlparse.RepoObject_SqlModules_61_SelectIdentifier_Union
sqlparse.RepoObject_SqlModules_29_1_object_is_union <.. sqlparse.RepoObject_SqlModules_39_object
sqlparse.RepoObject_SqlModules_29_1_object_is_union <.. sqlparse.RepoObject_SqlModules_42_from_Identifier
sqlparse.RepoObject_SqlModules_29_2_object_is_GroupBy <.. sqlparse.RepoObject_SqlModules_39_object
sqlparse.RepoObject_SqlModules_31_object <.. sqlparse.RepoObject_SqlModules_39_object
sqlparse.RepoObject_SqlModules_32_ObjectClass <.. sqlparse.RepoObject_SqlModules_39_object
sqlparse.RepoObject_SqlModules_33_ObjectNormalized <.. sqlparse.RepoObject_SqlModules_39_object
sqlparse.RepoObject_SqlModules_39_object <.. sqlparse.RepoObject_SqlModules_61_SelectIdentifier_Union
sqlparse.RepoObject_SqlModules_39_object <.. sqlparse.RepoObject_SqlModules_41_from
sqlparse.RepoObject_SqlModules_41_from <.. sqlparse.RepoObject_SqlModules_41_from_T
sqlparse.RepoObject_SqlModules_41_from_T <.. sqlparse.RepoObject_SqlModules_42_from_Identifier
sqlparse.RepoObject_SqlModules_42_from_Identifier <.. sqlparse.RepoObject_SqlModules_43_from_Identifier
sqlparse.RepoObject_SqlModules_43_from_Identifier <.. sqlparse.RepoObject_SqlModules_44_from_Identifier_QuoteName
sqlparse.RepoObject_SqlModules_44_from_Identifier_QuoteName <.. sqlparse.RepoObject_SqlModules_71_reference_ExpliciteTableAlias
sqlparse.RepoObject_SqlModules_44_from_Identifier_QuoteName <.. sqlparse.RepoObject_SqlModules_72_reference_NoTableAlias
sqlparse.RepoObject_SqlModules_51_Identitfier <.. sqlparse.RepoObject_SqlModules_52_Identitfier_QuoteName
sqlparse.RepoObject_SqlModules_52_Identitfier_QuoteName <.. sqlparse.RepoObject_SqlModules_61_SelectIdentifier_Union
sqlparse.RepoObject_SqlModules_61_SelectIdentifier_Union <.. sqlparse.RepoObject_SqlModules_61_SelectIdentifier_Union_T
sqlparse.RepoObject_SqlModules_61_SelectIdentifier_Union_T <.. sqlparse.RepoObject_SqlModules_72_reference_NoTableAlias
sqlparse.RepoObject_SqlModules_61_SelectIdentifier_Union_T <.. sqlparse.RepoObject_SqlModules_71_reference_ExpliciteTableAlias
sqlparse.RepoObject_SqlModules_71_reference_ExpliciteTableAlias <.. sqlparse.RepoObject_SqlModules_79_reference_union
sqlparse.RepoObject_SqlModules_72_reference_NoTableAlias <.. sqlparse.RepoObject_SqlModules_79_reference_union
sqlparse.RepoObject_SqlModules_79_reference_union <.. reference.RepoObjectColumn_reference_SqlModules
ssas.additional_Reference_step1 <.. reference.additional_Reference_from_ssas_src
ssas.model_json <.. ssas.model_json_10
ssas.model_json_10 <.. ssas.model_json_20
ssas.model_json_20 <.. repo.RepoSchema_ssas_src
ssas.model_json_20 <.. ssas.model_json_31_tables
ssas.model_json_20 <.. ssas.model_json_33_dataSources
ssas.model_json_20 <.. ssas.model_json_201_descriptions_multiline
ssas.model_json_201_descriptions_multiline <.. ssas.model_json_2011_descriptions_StrAgg
ssas.model_json_2011_descriptions_StrAgg <.. repo.RepoSchema_ssas_src
ssas.model_json_31_tables <.. ssas.model_json_31_tables_T
ssas.model_json_31_tables_T <.. repo.RepoObject_SSAS_src
ssas.model_json_31_tables_T <.. repo.RepoObject_gross
ssas.model_json_31_tables_T <.. ssas.model_json_316_tables_descriptions_multiline
ssas.model_json_31_tables_T <.. ssas.model_json_311_tables_columns
ssas.model_json_31_tables_T <.. ssas.model_json_313_tables_partitions
ssas.model_json_311_tables_columns <.. ssas.model_json_311_tables_columns_T
ssas.model_json_311_tables_columns_T <.. repo.RepoObjectColumn_gross
ssas.model_json_311_tables_columns_T <.. repo.RepoObjectColumn_SSAS_src
ssas.model_json_311_tables_columns_T <.. ssas.additional_Reference_step1
ssas.model_json_311_tables_columns_T <.. ssas.model_json_3111_tables_columns_descriptions_multiline
ssas.model_json_311_tables_columns_T <.. ssas.model_json_3112_tables_columns_expressions_multiline
ssas.model_json_3111_tables_columns_descriptions_multiline <.. ssas.model_json_31111_tables_columns_descriptions_StrAgg
ssas.model_json_31111_tables_columns_descriptions_StrAgg <.. repo.RepoObjectColumn_gross
ssas.model_json_3112_tables_columns_expressions_multiline <.. ssas.model_json_31121_tables_columns_expressions_StrAgg
ssas.model_json_31121_tables_columns_expressions_StrAgg <.. repo.RepoObjectColumn_gross
ssas.model_json_313_tables_partitions <.. ssas.model_json_3131_tables_partitions_source
ssas.model_json_3131_tables_partitions_source <.. ssas.model_json_31311_tables_partitions_source_PosFrom
ssas.model_json_31311_tables_partitions_source_PosFrom <.. ssas.model_json_313111_tables_partitions_source_StringFrom
ssas.model_json_313111_tables_partitions_source_StringFrom <.. ssas.model_json_3131111_tables_partitions_source_PosDot
ssas.model_json_3131111_tables_partitions_source_PosDot <.. ssas.model_json_31311111_tables_partitions_source_Part123
ssas.model_json_31311111_tables_partitions_source_Part123 <.. ssas.additional_Reference_step1
ssas.model_json_316_tables_descriptions_multiline <.. ssas.model_json_3161_tables_descriptions_StrAgg
ssas.model_json_3161_tables_descriptions_StrAgg <.. repo.RepoObject_gross
ssas.model_json_33_dataSources <.. ssas.model_json_33_dataSources_T
ssas.model_json_33_dataSources_T <.. ssas.additional_Reference_step1
sys_dwh.columns <.. repo_sys.ExtendedProperties
sys_dwh.columns <.. repo_sys.SysColumn
sys_dwh.computed_columns <.. repo_sys.SysColumn
sys_dwh.default_constraints <.. repo_sys.SysColumn
sys_dwh.extended_properties <.. repo_sys.ExtendedProperties
sys_dwh.identity_columns <.. repo_sys.SysColumn
sys_dwh.indexes <.. repo_sys.ExtendedProperties
sys_dwh.objects <.. repo_sys.ExtendedProperties
sys_dwh.objects <.. repo_sys.SysObject
sys_dwh.parameters <.. repo_sys.ExtendedProperties
sys_dwh.schemas <.. repo_sys.ExtendedProperties
sys_dwh.schemas <.. repo_sys.SysObject
sys_dwh.sql_expression_dependencies <.. repo_sys.sql_expression_dependencies
sys_dwh.sql_modules <.. repo_sys.SysObject
sys_dwh.tables <.. repo_sys.SysObject
sys_dwh.types <.. repo_sys.SysColumn
uspgenerator.GeneratorUsp <.. repo.RepoObject_gross
@enduml

