@startuml
'Left to right direction
top to bottom direction
hide circle
'avoide "." issues:
set namespaceSeparator none


skinparam class {
  BackgroundColor White
  BackgroundColor<<FN>> Yellow
  BackgroundColor<<FS>> Yellow
  BackgroundColor<<FT>> LightGray
  BackgroundColor<<IF>> Yellow
  BackgroundColor<<IS>> Yellow
  BackgroundColor<<P>> Aqua
  BackgroundColor<<PC>> Aqua
  BackgroundColor<<SN>> Yellow
  BackgroundColor<<SO>> SlateBlue
  BackgroundColor<<TF>> LightGray
  BackgroundColor<<TR>> Tomato
  BackgroundColor<<U>> White
  BackgroundColor<<V>> WhiteSmoke
  BackgroundColor<<X>> Aqua
  BackgroundColor<<external>> AliceBlue
}


entity "puml-link:dhw:sqldb:config.ftv_dwh_database.adoc[]" as config.ftv_dwh_database << IF >> {
  --
}

entity "puml-link:dhw:sqldb:config.parameter.adoc[]" as config.Parameter << U >> {
  - **Parameter_name** : (varchar(100))
  - **sub_Parameter** : (nvarchar(128))
  --
}

entity "puml-link:dhw:sqldb:configt.parameter_default.adoc[]" as configT.Parameter_default << V >> {
  - **Parameter_name** : (varchar(52))
  - **sub_Parameter** : (nvarchar(27))
  --
}

entity "puml-link:dhw:sqldb:repo_sys.extendedproperties.adoc[]" as repo_sys.ExtendedProperties << V >> {
  --
}

entity "puml-link:dhw:sqldb:sys_dwh.columns.adoc[]" as sys_dwh.columns << SN >> {
  --
}

entity "puml-link:dhw:sqldb:sys_dwh.extended_properties.adoc[]" as sys_dwh.extended_properties << SN >> {
  --
}

entity "puml-link:dhw:sqldb:sys_dwh.indexes.adoc[]" as sys_dwh.indexes << SN >> {
  --
}

entity "puml-link:dhw:sqldb:sys_dwh.objects.adoc[]" as sys_dwh.objects << SN >> {
  --
}

entity "puml-link:dhw:sqldb:sys_dwh.parameters.adoc[]" as sys_dwh.parameters << SN >> {
  --
}

entity "puml-link:dhw:sqldb:sys_dwh.schemas.adoc[]" as sys_dwh.schemas << SN >> {
  --
}

config.ftv_dwh_database <.. repo_sys.ExtendedProperties
config.Parameter <.. config.ftv_dwh_database
configT.Parameter_default <.. config.Parameter
sys_dwh.columns <.. repo_sys.ExtendedProperties
sys_dwh.extended_properties <.. repo_sys.ExtendedProperties
sys_dwh.indexes <.. repo_sys.ExtendedProperties
sys_dwh.objects <.. repo_sys.ExtendedProperties
sys_dwh.parameters <.. repo_sys.ExtendedProperties
sys_dwh.schemas <.. repo_sys.ExtendedProperties
@enduml

