@startuml
'Left to right direction
top to bottom direction
hide circle
'avoide "." issues:
set namespaceSeparator none


skinparam class {
  BackgroundColor White
  BackgroundColor<<FN>> Yellow
  BackgroundColor<<FS>> Yellow
  BackgroundColor<<FT>> LightGray
  BackgroundColor<<IF>> Yellow
  BackgroundColor<<IS>> Yellow
  BackgroundColor<<P>> Aqua
  BackgroundColor<<PC>> Aqua
  BackgroundColor<<SN>> Yellow
  BackgroundColor<<SO>> SlateBlue
  BackgroundColor<<TF>> LightGray
  BackgroundColor<<TR>> Tomato
  BackgroundColor<<U>> White
  BackgroundColor<<V>> WhiteSmoke
  BackgroundColor<<X>> Aqua
  BackgroundColor<<external>> AliceBlue
}


entity "puml-link:dhw:sqldb:config.ftv_get_parameter_value.adoc[]" as config.ftv_get_parameter_value << IF >> {
  --
}

entity "puml-link:dhw:sqldb:config.Parameter.adoc[]" as config.Parameter << U >> {
  - **Parameter_name** : (varchar(100))
  - **sub_Parameter** : (nvarchar(128))
  --
}

entity "puml-link:dhw:sqldb:reference.additional_Reference.adoc[]" as reference.additional_Reference << U >> {
  - **Id** : (int)
  --
}

entity "puml-link:dhw:sqldb:reference.additional_Reference_is_external.adoc[]" as reference.additional_Reference_is_external << V >> {
  --
}

entity "puml-link:dhw:sqldb:reference.additional_Reference_Object.adoc[]" as reference.additional_Reference_Object << V >> {
  - **AntoraComponent** : (nvarchar(128))
  - **AntoraModule** : (nvarchar(128))
  - **SchemaName** : (nvarchar(128))
  - **ObjectName** : (nvarchar(128))
  --
}

entity "puml-link:dhw:sqldb:reference.additional_Reference_Object_T.adoc[]" as reference.additional_Reference_Object_T << U >> {
  - **RepoObject_guid** : (uniqueidentifier)
  --
}

entity "puml-link:dhw:sqldb:reference.additional_Reference_ObjectColumn.adoc[]" as reference.additional_Reference_ObjectColumn << V >> {
  - **AntoraComponent** : (nvarchar(128))
  - **AntoraModule** : (nvarchar(128))
  - **SchemaName** : (nvarchar(128))
  - **ObjectName** : (nvarchar(128))
  **ColumnName** : (nvarchar(128))
  --
}

entity "puml-link:dhw:sqldb:reference.additional_Reference_ObjectColumn_T.adoc[]" as reference.additional_Reference_ObjectColumn_T << U >> {
  - **RepoObjectColumn_guid** : (uniqueidentifier)
  --
}

entity "puml-link:dhw:sqldb:repo.RepoObjectColumn_external_src.adoc[]" as repo.RepoObjectColumn_external_src << V >> {
  - **RepoObjectColumn_guid** : (uniqueidentifier)
  --
}

config.ftv_get_parameter_value <.. reference.additional_Reference_is_external
config.ftv_get_parameter_value <.. reference.additional_Reference_is_external
config.Parameter <.. config.ftv_get_parameter_value
config.Parameter <.. config.ftv_get_parameter_value
reference.additional_Reference <.. reference.additional_Reference_is_external
reference.additional_Reference <.. reference.additional_Reference_is_external
reference.additional_Reference_is_external <.. reference.additional_Reference_Object
reference.additional_Reference_is_external <.. reference.additional_Reference_ObjectColumn
reference.additional_Reference_Object <.. reference.additional_Reference_Object_T
reference.additional_Reference_Object_T <.. repo.RepoObjectColumn_external_src
reference.additional_Reference_ObjectColumn <.. reference.additional_Reference_ObjectColumn_T
reference.additional_Reference_ObjectColumn_T <.. repo.RepoObjectColumn_external_src
@enduml

