@startuml
'Left to right direction
top to bottom direction
hide circle
'avoide "." issues:
set namespaceSeparator none


skinparam class {
  BackgroundColor White
  BackgroundColor<<FN>> Yellow
  BackgroundColor<<FS>> Yellow
  BackgroundColor<<FT>> LightGray
  BackgroundColor<<IF>> Yellow
  BackgroundColor<<IS>> Yellow
  BackgroundColor<<P>> Aqua
  BackgroundColor<<PC>> Aqua
  BackgroundColor<<SN>> Yellow
  BackgroundColor<<SO>> SlateBlue
  BackgroundColor<<TF>> LightGray
  BackgroundColor<<TR>> Tomato
  BackgroundColor<<U>> White
  BackgroundColor<<V>> WhiteSmoke
  BackgroundColor<<X>> Aqua
  BackgroundColor<<external>> AliceBlue
}


entity "puml-link:dhw:sqldb:ssas.model_json.adoc[]" as ssas.model_json << U >> {
  - **databasename** : (nvarchar(128))
  --
}

entity "puml-link:dhw:sqldb:ssas.model_json_10.adoc[]" as ssas.model_json_10 << V >> {
  --
}

entity "puml-link:dhw:sqldb:ssas.model_json_20.adoc[]" as ssas.model_json_20 << V >> {
  --
}

entity "puml-link:dhw:sqldb:ssas.model_json_31_tables.adoc[]" as ssas.model_json_31_tables << V >> {
  - **databasename** : (nvarchar(128))
  **tables_name** : (nvarchar(128))
  --
}

entity "puml-link:dhw:sqldb:ssas.model_json_31_tables_t.adoc[]" as ssas.model_json_31_tables_T << U >> {
  - **databasename** : (nvarchar(128))
  **tables_name** : (nvarchar(128))
  --
}

entity "puml-link:dhw:sqldb:ssas.model_json_312_tables_measures.adoc[]" as ssas.model_json_312_tables_measures << V >> {
  - **databasename** : (nvarchar(128))
  - **tables_name** : (nvarchar(128))
  **tables_measures_name** : (nvarchar(500))
  --
}

entity "puml-link:dhw:sqldb:ssas.model_json_312_tables_measures_t.adoc[]" as ssas.model_json_312_tables_measures_T << U >> {
  - **Measure_guid** : (uniqueidentifier)
  --
}

entity "puml-link:dhw:sqldb:ssas.model_json_3121_tables_columns_descriptions_multiline.adoc[]" as ssas.model_json_3121_tables_columns_descriptions_multiline << V >> {
  --
}

entity "puml-link:dhw:sqldb:ssas.model_json_31211_tables_columns_descriptions_stragg.adoc[]" as ssas.model_json_31211_tables_columns_descriptions_StrAgg << V >> {
  --
}

ssas.model_json <.. ssas.model_json_10
ssas.model_json_10 <.. ssas.model_json_20
ssas.model_json_20 <.. ssas.model_json_31_tables
ssas.model_json_31_tables <.. ssas.model_json_31_tables_T
ssas.model_json_31_tables_T <.. ssas.model_json_312_tables_measures
ssas.model_json_312_tables_measures <.. ssas.model_json_312_tables_measures_T
ssas.model_json_312_tables_measures_T <.. ssas.model_json_3121_tables_columns_descriptions_multiline
ssas.model_json_3121_tables_columns_descriptions_multiline <.. ssas.model_json_31211_tables_columns_descriptions_StrAgg
@enduml

