@startuml
'Left to right direction
top to bottom direction
hide circle
'avoide "." issues:
set namespaceSeparator none


skinparam class {
  BackgroundColor White
  BackgroundColor<<FN>> Yellow
  BackgroundColor<<FS>> Yellow
  BackgroundColor<<FT>> LightGray
  BackgroundColor<<IF>> Yellow
  BackgroundColor<<IS>> Yellow
  BackgroundColor<<P>> Aqua
  BackgroundColor<<PC>> Aqua
  BackgroundColor<<SN>> Yellow
  BackgroundColor<<SO>> SlateBlue
  BackgroundColor<<TF>> LightGray
  BackgroundColor<<TR>> Tomato
  BackgroundColor<<U>> White
  BackgroundColor<<V>> WhiteSmoke
  BackgroundColor<<X>> Aqua
  BackgroundColor<<external>> AliceBlue
}


entity "puml-link:dhw:sqldb:logs.executionlog.adoc[]" as logs.ExecutionLog << U >> {
  --
}

entity "puml-link:dhw:sqldb:logs.usp_executionlog_insert.adoc[]" as logs.usp_ExecutionLog_insert << P >> {
  --
}

entity "puml-link:dhw:sqldb:ssas.model_json.adoc[]" as ssas.model_json << U >> {
  - **databasename** : (nvarchar(128))
  --
}

entity "puml-link:dhw:sqldb:ssas.model_json_10.adoc[]" as ssas.model_json_10 << V >> {
  --
}

entity "puml-link:dhw:sqldb:ssas.model_json_20.adoc[]" as ssas.model_json_20 << V >> {
  --
}

entity "puml-link:dhw:sqldb:ssas.model_json_33_datasources.adoc[]" as ssas.model_json_33_dataSources << V >> {
  - **databasename** : (nvarchar(128))
  **dataSources_name** : (nvarchar(500))
  --
}

entity "puml-link:dhw:sqldb:ssas.model_json_33_datasources_t.adoc[]" as ssas.model_json_33_dataSources_T << U >> {
  - **databasename** : (nvarchar(128))
  **dataSources_name** : (nvarchar(500))
  --
}

entity "puml-link:dhw:sqldb:ssas.usp_persist_model_json_33_datasources_t.adoc[]" as ssas.usp_PERSIST_model_json_33_dataSources_T << P >> {
  --
}

logs.ExecutionLog <.. logs.usp_ExecutionLog_insert
logs.usp_ExecutionLog_insert <.. ssas.usp_PERSIST_model_json_33_dataSources_T
ssas.model_json <.. ssas.model_json_10
ssas.model_json_10 <.. ssas.model_json_20
ssas.model_json_20 <.. ssas.model_json_33_dataSources
ssas.model_json_33_dataSources <.. ssas.model_json_33_dataSources_T
ssas.model_json_33_dataSources <.. ssas.usp_PERSIST_model_json_33_dataSources_T
ssas.model_json_33_dataSources_T <.. ssas.usp_PERSIST_model_json_33_dataSources_Tfooter The diagram is interactive and contains links.
@enduml

