@startuml
'Left to right direction
top to bottom direction
hide circle
'avoide "." issues:
set namespaceSeparator none


skinparam class {
  BackgroundColor White
  BackgroundColor<<FN>> Yellow
  BackgroundColor<<FS>> Yellow
  BackgroundColor<<FT>> LightGray
  BackgroundColor<<IF>> Yellow
  BackgroundColor<<IS>> Yellow
  BackgroundColor<<P>> Aqua
  BackgroundColor<<PC>> Aqua
  BackgroundColor<<SN>> Yellow
  BackgroundColor<<SO>> SlateBlue
  BackgroundColor<<TF>> LightGray
  BackgroundColor<<TR>> Tomato
  BackgroundColor<<U>> White
  BackgroundColor<<V>> WhiteSmoke
  BackgroundColor<<X>> Aqua
  BackgroundColor<<external>> AliceBlue
}


entity "puml-link:dhw:sqldb:logs.executionlog.adoc[]" as logs.ExecutionLog << U >> {
  --
}

entity "puml-link:dhw:sqldb:logs.usp_executionlog_insert.adoc[]" as logs.usp_ExecutionLog_insert << P >> {
  --
}

entity "puml-link:dhw:sqldb:ssis.usp_persist_packagetask_dft_srcdest_tgt.adoc[]" as ssis.usp_PERSIST_PackageTask_Dft_SrcDest_tgt << P >> {
  --
}

logs.ExecutionLog <.. logs.usp_ExecutionLog_insert
logs.usp_ExecutionLog_insert <.. ssis.usp_PERSIST_PackageTask_Dft_SrcDest_tgtfooter The diagram is interactive and contains links.
@enduml

