@startuml
left to right direction
'top to bottom direction
hide circle
'avoide "." issues:
set namespaceSeparator none


skinparam class {
  BackgroundColor White
  BackgroundColor<<FN>> Yellow
  BackgroundColor<<FS>> Yellow
  BackgroundColor<<FT>> LightGray
  BackgroundColor<<IF>> Yellow
  BackgroundColor<<IS>> Yellow
  BackgroundColor<<P>> Aqua
  BackgroundColor<<PC>> Aqua
  BackgroundColor<<SN>> Yellow
  BackgroundColor<<SO>> SlateBlue
  BackgroundColor<<TF>> LightGray
  BackgroundColor<<TR>> Tomato
  BackgroundColor<<U>> White
  BackgroundColor<<V>> WhiteSmoke
  BackgroundColor<<X>> Aqua
  BackgroundColor<<external>> AliceBlue
}


entity "puml-link:dhw:sqldb:reference.repoobjectcolumnsource_virtual.adoc[]" as reference.RepoObjectColumnSource_virtual << U >> {
**PK_RepoObjectColumnSource_virtual**

..
RepoObjectColumn_guid; uniqueidentifier
Source_RepoObjectColumn_guid; uniqueidentifier
--
- idx_RepoObjectColumnSource_virtual__1

..
RepoObjectColumn_guid; uniqueidentifier
--
- idx_RepoObjectColumnSource_virtual__2

..
Source_RepoObjectColumn_guid; uniqueidentifier
}

entity "puml-link:dhw:sqldb:repo.repoobjectcolumn.adoc[]" as repo.RepoObjectColumn << U >> {
**PK_RepoObjectColumn**

..
RepoObjectColumn_guid; uniqueidentifier
--
UK_RepoObjectColumn__RepoNames

..
RepoObject_guid; uniqueidentifier
RepoObjectColumn_name; nvarchar(128)
--
UK_RepoObjectColumn__SysNames

..
RepoObjectColumn_guid; uniqueidentifier
SysObjectColumn_name; nvarchar(128)
--
- idx_RepoObjectColumn__1

..
RepoObject_guid; uniqueidentifier
}

"repo.RepoObjectColumn::PK_RepoObjectColumn" <-- "reference.RepoObjectColumnSource_virtual::idx_RepoObjectColumnSource_virtual__1"
"repo.RepoObjectColumn::PK_RepoObjectColumn" <-- "reference.RepoObjectColumnSource_virtual::idx_RepoObjectColumnSource_virtual__2"
@enduml

