@startuml
left to right direction
'top to bottom direction
hide circle
'avoide "." issues:
set namespaceSeparator none


skinparam class {
  BackgroundColor White
  BackgroundColor<<FN>> Yellow
  BackgroundColor<<FS>> Yellow
  BackgroundColor<<FT>> LightGray
  BackgroundColor<<IF>> Yellow
  BackgroundColor<<IS>> Yellow
  BackgroundColor<<P>> Aqua
  BackgroundColor<<PC>> Aqua
  BackgroundColor<<SN>> Yellow
  BackgroundColor<<SO>> SlateBlue
  BackgroundColor<<TF>> LightGray
  BackgroundColor<<TR>> Tomato
  BackgroundColor<<U>> White
  BackgroundColor<<V>> WhiteSmoke
  BackgroundColor<<X>> Aqua
  BackgroundColor<<external>> AliceBlue
}


entity "puml-link:dhw:sqldb:property.repoobjectproperty.adoc[]" as property.RepoObjectProperty << U >> {
**PK_RepoObjectProperty**

..
RepoObjectProperty_id; int
--
UK_RepoObjectProperty

..
RepoObject_guid; uniqueidentifier
property_name; nvarchar(128)
--
- idx_RepoObjectProperty__1

..
RepoObject_guid; uniqueidentifier
}

entity "puml-link:dhw:sqldb:reference.repoobject_queryplan.adoc[]" as reference.RepoObject_QueryPlan << U >> {
**PK_RepoObject_QueryPlan**

..
RepoObject_guid; uniqueidentifier
}

entity "puml-link:dhw:sqldb:reference.repoobjectsource_firstresultset.adoc[]" as reference.RepoObjectSource_FirstResultSet << U >> {
**PK_RepoObjectSource_FirstResultSet**

..
RepoObject_guid; uniqueidentifier
column_ordinal; int
--
- idx_RepoObjectSource_FirstResultSet__1

..
RepoObject_guid; uniqueidentifier
}

entity "puml-link:dhw:sqldb:reference.repoobjectsource_queryplan.adoc[]" as reference.RepoObjectSource_QueryPlan << U >> {
- idx_RepoObjectSource_QueryPlan__1

..
RepoObject_guid; uniqueidentifier
}

entity "puml-link:dhw:sqldb:reference.repoobjectsource_virtual.adoc[]" as reference.RepoObjectSource_virtual << U >> {
**PK_RepoObjectSource_virtual**

..
RepoObject_guid; uniqueidentifier
Source_RepoObject_guid; uniqueidentifier
--
- idx_RepoObjectSource_virtual__1

..
RepoObject_guid; uniqueidentifier
--
- idx_RepoObjectSource_virtual__2

..
Source_RepoObject_guid; uniqueidentifier
}

entity "puml-link:dhw:sqldb:repo.index_settings.adoc[]" as repo.Index_Settings << U >> {
**PK_Index_Settings**

..
index_guid; uniqueidentifier
}

entity "puml-link:dhw:sqldb:repo.index_virtual.adoc[]" as repo.Index_virtual << U >> {
**PK_Index_virtual**

..
index_guid; uniqueidentifier
--
- idx_Index_virtual__1

..
parent_RepoObject_guid; uniqueidentifier
}

entity "puml-link:dhw:sqldb:repo.repoobject.adoc[]" as repo.RepoObject << U >> {
**PK_RepoObject**

..
RepoObject_guid; uniqueidentifier
--
UK_RepoObject__RepoNames

..
RepoObject_schema_name; nvarchar(128)
RepoObject_name; nvarchar(128)
--
UK_RepoObject__SysNames

..
SysObject_schema_name; nvarchar(128)
SysObject_name; nvarchar(128)
--
- idx_RepoObject__1

..
pk_index_guid; uniqueidentifier
}

entity "puml-link:dhw:sqldb:repo.repoobject_persistence.adoc[]" as repo.RepoObject_persistence << U >> {
**PK_RepoObject_persistence**

..
target_RepoObject_guid; uniqueidentifier
}

entity "puml-link:dhw:sqldb:repo.repoobjectcolumn.adoc[]" as repo.RepoObjectColumn << U >> {
**PK_RepoObjectColumn**

..
RepoObjectColumn_guid; uniqueidentifier
--
UK_RepoObjectColumn__RepoNames

..
RepoObject_guid; uniqueidentifier
RepoObjectColumn_name; nvarchar(128)
--
UK_RepoObjectColumn__SysNames

..
RepoObjectColumn_guid; uniqueidentifier
SysObjectColumn_name; nvarchar(128)
--
- idx_RepoObjectColumn__1

..
RepoObject_guid; uniqueidentifier
}

entity "puml-link:dhw:sqldb:sqlparse.repoobject_sqlmodules.adoc[]" as sqlparse.RepoObject_SqlModules << U >> {
**PK_RepoObject_SqlModules**

..
RepoObject_guid; uniqueidentifier
}

entity "puml-link:dhw:sqldb:workflow.proceduredependency.adoc[]" as workflow.ProcedureDependency << U >> {
**PK_ProcedureDependency**

..
id; int
--
UK_ProcedureDependency

..
referenced_Procedure_RepoObject_guid; uniqueidentifier
referencing_Procedure_RepoObject_guid; uniqueidentifier
--
- idx_ProcedureDependency__1

..
referenced_Procedure_RepoObject_guid; uniqueidentifier
--
- idx_ProcedureDependency__2

..
referencing_Procedure_RepoObject_guid; uniqueidentifier
}

entity "puml-link:dhw:sqldb:workflow.workflowstep.adoc[]" as workflow.WorkflowStep << U >> {
**PK_WorkflowStep**

..
id; int
--
UK_WorkflowStep

..
Workflow_id; int
Procedure_RepoObject_guid; uniqueidentifier
--
- idx_WorkflowStep__1

..
Workflow_id; int
--
- idx_WorkflowStep__2

..
Procedure_RepoObject_guid; uniqueidentifier
}

"repo.Index_Settings::PK_Index_Settings" <-- "repo.RepoObject::idx_RepoObject__1"
"repo.RepoObject::PK_RepoObject" <-- "property.RepoObjectProperty::idx_RepoObjectProperty__1"
"repo.RepoObject::PK_RepoObject" <-- "reference.RepoObject_QueryPlan::PK_RepoObject_QueryPlan"
"repo.RepoObject::PK_RepoObject" <-- "reference.RepoObjectSource_FirstResultSet::idx_RepoObjectSource_FirstResultSet__1"
"repo.RepoObject::PK_RepoObject" <-- "reference.RepoObjectSource_QueryPlan::idx_RepoObjectSource_QueryPlan__1"
"repo.RepoObject::PK_RepoObject" <-- "reference.RepoObjectSource_virtual::idx_RepoObjectSource_virtual__1"
"repo.RepoObject::PK_RepoObject" <-- "reference.RepoObjectSource_virtual::idx_RepoObjectSource_virtual__2"
"repo.RepoObject::PK_RepoObject" <-- "repo.Index_virtual::idx_Index_virtual__1"
"repo.RepoObject::PK_RepoObject" <-- "repo.RepoObject_persistence::PK_RepoObject_persistence"
"repo.RepoObject::PK_RepoObject" <-- "repo.RepoObjectColumn::idx_RepoObjectColumn__1"
"repo.RepoObject::PK_RepoObject" <-- "sqlparse.RepoObject_SqlModules::PK_RepoObject_SqlModules"
"repo.RepoObject::PK_RepoObject" <-- "workflow.ProcedureDependency::idx_ProcedureDependency__2"
"repo.RepoObject::PK_RepoObject" <-- "workflow.ProcedureDependency::idx_ProcedureDependency__1"
"repo.RepoObject::PK_RepoObject" <-- "workflow.WorkflowStep::idx_WorkflowStep__2"footer The diagram is interactive and contains links.
@enduml

