@startuml
left to right direction
'top to bottom direction
hide circle
'avoide "." issues:
set namespaceSeparator none


skinparam class {
  BackgroundColor White
  BackgroundColor<<FN>> Yellow
  BackgroundColor<<FS>> Yellow
  BackgroundColor<<FT>> LightGray
  BackgroundColor<<IF>> Yellow
  BackgroundColor<<IS>> Yellow
  BackgroundColor<<P>> Aqua
  BackgroundColor<<PC>> Aqua
  BackgroundColor<<SN>> Yellow
  BackgroundColor<<SO>> SlateBlue
  BackgroundColor<<TF>> LightGray
  BackgroundColor<<TR>> Tomato
  BackgroundColor<<U>> White
  BackgroundColor<<V>> WhiteSmoke
  BackgroundColor<<X>> Aqua
  BackgroundColor<<external>> AliceBlue
}


entity "puml-link:dhw:sqldb:repo.foreignkey_virtual.adoc[]" as repo.ForeignKey_virtual << U >> {
**PK_ForeignKey_virtual**

..
ForeignKey_guid; uniqueidentifier
--
- UK_ForeignKey_virtual__1

..
referenced_index_guid; uniqueidentifier
--
- idx_ForeignKey_virtual__2

..
referencing_index_guid; uniqueidentifier
}

entity "puml-link:dhw:sqldb:repo.index_settings.adoc[]" as repo.Index_Settings << U >> {
**PK_Index_Settings**

..
index_guid; uniqueidentifier
}

"repo.Index_Settings::PK_Index_Settings" <-- "repo.ForeignKey_virtual::idx_ForeignKey_virtual__2"
"repo.Index_Settings::PK_Index_Settings" <-- "repo.ForeignKey_virtual::UK_ForeignKey_virtual__1"footer The diagram is interactive and contains links.
@enduml

