@startuml
left to right direction
'top to bottom direction
hide circle
'avoide "." issues:
set namespaceSeparator none


skinparam class {
  BackgroundColor White
  BackgroundColor<<FN>> Yellow
  BackgroundColor<<FS>> Yellow
  BackgroundColor<<FT>> LightGray
  BackgroundColor<<IF>> Yellow
  BackgroundColor<<IS>> Yellow
  BackgroundColor<<P>> Aqua
  BackgroundColor<<PC>> Aqua
  BackgroundColor<<SN>> Yellow
  BackgroundColor<<SO>> SlateBlue
  BackgroundColor<<TF>> LightGray
  BackgroundColor<<TR>> Tomato
  BackgroundColor<<U>> White
  BackgroundColor<<V>> WhiteSmoke
  BackgroundColor<<X>> Aqua
  BackgroundColor<<external>> AliceBlue
}


entity "puml-link:dhw:sqldb:uspgenerator.generatorusp.adoc[]" as uspgenerator.GeneratorUsp << U >> {
**PK_GeneratorUsp**

..
id; int
--
UK_GeneratorUsp_Schema_Name

..
usp_schema; nvarchar(128)
usp_name; nvarchar(128)
}

entity "puml-link:dhw:sqldb:uspgenerator.generatoruspparameter.adoc[]" as uspgenerator.GeneratorUspParameter << U >> {
**PK_GeneratorUspParameter**

..
id; int
--
UK_GeneratorUspParameter_name

..
usp_id; int
Name; nvarchar(128)
--
UK_GeneratorUspParameter_Number

..
usp_id; int
Number; int
--
- idx_GeneratorUspParameter__1

..
usp_id; int
}

entity "puml-link:dhw:sqldb:uspgenerator.generatoruspstep.adoc[]" as uspgenerator.GeneratorUspStep << U >> {
**PK_GeneratorUspStep**

..
id; int
--
UK_GeneratorUspStep_Number

..
usp_id; int
Number; int
--
- idx_GeneratorUspStep__1

..
usp_id; int
}

"uspgenerator.GeneratorUsp::PK_GeneratorUsp" <-- "uspgenerator.GeneratorUspParameter::idx_GeneratorUspParameter__1"
"uspgenerator.GeneratorUsp::PK_GeneratorUsp" <-- "uspgenerator.GeneratorUspStep::idx_GeneratorUspStep__1"footer The diagram is interactive and contains links.
@enduml

