@startuml
'Left to right direction
top to bottom direction
hide circle
'avoide "." issues:
set namespaceSeparator none


skinparam class {
  BackgroundColor White
  BackgroundColor<<FN>> Yellow
  BackgroundColor<<FS>> Yellow
  BackgroundColor<<FT>> LightGray
  BackgroundColor<<IF>> Yellow
  BackgroundColor<<IS>> Yellow
  BackgroundColor<<P>> Aqua
  BackgroundColor<<PC>> Aqua
  BackgroundColor<<SN>> Yellow
  BackgroundColor<<SO>> SlateBlue
  BackgroundColor<<TF>> LightGray
  BackgroundColor<<TR>> Tomato
  BackgroundColor<<U>> White
  BackgroundColor<<V>> WhiteSmoke
  BackgroundColor<<X>> Aqua
  BackgroundColor<<external>> AliceBlue
}


entity "puml-link:dhw:sqldb:configt.ssasdmvtableimport.adoc[]" as configT.SsasDmvTableImport << V >> {
  --
}

entity "puml-link:dhw:sqldb:configt.ssasdmvtableimport_dmvcolumnlist.adoc[]" as configT.SsasDmvTableImport_DmvColumnList << V >> {
  --
}

entity "puml-link:dhw:sqldb:configt.ssasdmvtableimport_importsql.adoc[]" as configT.SsasDmvTableImport_ImportSql << V >> {
  --
}

configT.SsasDmvTableImport <.. configT.SsasDmvTableImport_DmvColumnList
configT.SsasDmvTableImport_DmvColumnList <.. configT.SsasDmvTableImport_ImportSql
@enduml

