@startuml
'Left to right direction
top to bottom direction
hide circle
'avoide "." issues:
set namespaceSeparator none


skinparam class {
  BackgroundColor White
  BackgroundColor<<FN>> Yellow
  BackgroundColor<<FS>> Yellow
  BackgroundColor<<FT>> LightGray
  BackgroundColor<<IF>> Yellow
  BackgroundColor<<IS>> Yellow
  BackgroundColor<<P>> Aqua
  BackgroundColor<<PC>> Aqua
  BackgroundColor<<SN>> Yellow
  BackgroundColor<<SO>> SlateBlue
  BackgroundColor<<TF>> LightGray
  BackgroundColor<<TR>> Tomato
  BackgroundColor<<U>> White
  BackgroundColor<<V>> WhiteSmoke
  BackgroundColor<<X>> Aqua
  BackgroundColor<<external>> AliceBlue
}


entity "puml-link:dhw:sqldb:config.fs_get_parameter_value.adoc[]" as config.fs_get_parameter_value << FN >> {
  --
}

entity "puml-link:dhw:sqldb:docs.fs_antoramodulefolder.adoc[]" as docs.fs_AntoraModuleFolder << FN >> {
  --
}

entity "puml-link:dhw:sqldb:docs.ftv_repoobject_antoraxref.adoc[]" as docs.ftv_RepoObject_AntoraXref << IF >> {
  --
}

entity "puml-link:dhw:sqldb:docs.repoobject_adoc.adoc[]" as docs.RepoObject_Adoc << V >> {
  --
}

entity "puml-link:dhw:sqldb:docs.repoobject_adoc_t.adoc[]" as docs.RepoObject_Adoc_T << U >> {
  - **RepoObject_guid** : (uniqueidentifier)
  - **cultures_name** : (nvarchar(10))
  --
}

entity "puml-link:dhw:sqldb:docs.repoobject_antoraxrefcultureslist.adoc[]" as docs.RepoObject_AntoraXrefCulturesList << V >> {
  --
}

entity "puml-link:dhw:sqldb:docs.usp_antoraexport.adoc[]" as docs.usp_AntoraExport << P >> {
  --
}

entity "puml-link:dhw:sqldb:docs.usp_antoraexport_docsnippet.adoc[]" as docs.usp_AntoraExport_DocSnippet << P >> {
  --
}

entity "puml-link:dhw:sqldb:docs.usp_antoraexport_objectnavigation.adoc[]" as docs.usp_AntoraExport_ObjectNavigation << P >> {
  --
}

entity "puml-link:dhw:sqldb:docs.usp_antoraexport_objectpage.adoc[]" as docs.usp_AntoraExport_ObjectPage << P >> {
  --
}

entity "puml-link:dhw:sqldb:docs.usp_antoraexport_objectpagetemplate.adoc[]" as docs.usp_AntoraExport_ObjectPageTemplate << P >> {
  --
}

entity "puml-link:dhw:sqldb:docs.usp_antoraexport_objectpartialproperties.adoc[]" as docs.usp_AntoraExport_ObjectPartialProperties << P >> {
  --
}

entity "puml-link:dhw:sqldb:docs.usp_antoraexport_objectpuml.adoc[]" as docs.usp_AntoraExport_ObjectPuml << P >> {
  --
}

entity "puml-link:dhw:sqldb:docs.usp_antoraexport_objectrefcyclic.adoc[]" as docs.usp_AntoraExport_ObjectRefCyclic << P >> {
  --
}

entity "puml-link:dhw:sqldb:docs.usp_antoraexport_page_indexsemanticgroup.adoc[]" as docs.usp_AntoraExport_Page_IndexSemanticGroup << P >> {
  --
}

entity "puml-link:dhw:sqldb:docs.usp_antoraexport_ssisnavigation.adoc[]" as docs.usp_AntoraExport_SsisNavigation << P >> {
  --
}

entity "puml-link:dhw:sqldb:docs.usp_antoraexport_ssispage.adoc[]" as docs.usp_AntoraExport_SsisPage << P >> {
  --
}

entity "puml-link:dhw:sqldb:docs.usp_antoraexport_ssispagetemplate.adoc[]" as docs.usp_AntoraExport_SsisPageTemplate << P >> {
  --
}

entity "puml-link:dhw:sqldb:docs.usp_antoraexport_ssispartialproperties.adoc[]" as docs.usp_AntoraExport_SsisPartialProperties << P >> {
  --
}

entity "puml-link:dhw:sqldb:docs.usp_persist_repoobject_adoc_t.adoc[]" as docs.usp_PERSIST_RepoObject_Adoc_T << P >> {
  --
}

entity "puml-link:dhw:sqldb:property.repoobjectcolumnproperty_forupdate.adoc[]" as property.RepoObjectColumnProperty_ForUpdate << V >> {
  --
}

entity "puml-link:dhw:sqldb:property.repoobjectproperty_forupdate.adoc[]" as property.RepoObjectProperty_ForUpdate << V >> {
  --
}

entity "puml-link:dhw:sqldb:repo.usp_main.adoc[]" as repo.usp_main << P >> {
  --
}

entity "puml-link:dhw:sqldb:repo.usp_persistence_set.adoc[]" as repo.usp_persistence_set << P >> {
  --
}

entity "puml-link:dhw:sqldb:repo.usp_repoobjectcolumn_update_repoobjectcolumn_column_id.adoc[]" as repo.usp_RepoObjectColumn_update_RepoObjectColumn_column_id << P >> {
  --
}

entity "puml-link:dhw:sqldb:repo.usp_sync_guid.adoc[]" as repo.usp_sync_guid << P >> {
  --
}

entity "puml-link:dhw:sqldb:repo.usp_sync_guid_repoobject.adoc[]" as repo.usp_sync_guid_RepoObject << P >> {
  --
}

entity "puml-link:dhw:sqldb:repo.usp_sync_guid_repoobject_ssas.adoc[]" as repo.usp_sync_guid_RepoObject_ssas << P >> {
  --
}

entity "puml-link:dhw:sqldb:repo.usp_sync_guid_repoobjectcolumn.adoc[]" as repo.usp_sync_guid_RepoObjectColumn << P >> {
  --
}

entity "puml-link:dhw:sqldb:repo.usp_sync_guid_repoobjectcolumn_ssas.adoc[]" as repo.usp_sync_guid_RepoObjectColumn_ssas << P >> {
  --
}

entity "puml-link:dhw:sqldb:repo.usp_sync_guid_reposchema.adoc[]" as repo.usp_sync_guid_RepoSchema << P >> {
  --
}

entity "puml-link:dhw:sqldb:repo.usp_sync_guid_reposchema_ssas.adoc[]" as repo.usp_sync_guid_RepoSchema_ssas << P >> {
  --
}

config.fs_get_parameter_value <.. repo.usp_RepoObjectColumn_update_RepoObjectColumn_column_id
config.fs_get_parameter_value <.. repo.usp_sync_guid_RepoObjectColumn
config.fs_get_parameter_value <.. repo.usp_sync_guid_RepoObject
config.fs_get_parameter_value <.. property.RepoObjectColumnProperty_ForUpdate
config.fs_get_parameter_value <.. docs.usp_AntoraExport
config.fs_get_parameter_value <.. docs.usp_AntoraExport_ObjectPuml
config.fs_get_parameter_value <.. repo.usp_main
config.fs_get_parameter_value <.. docs.usp_AntoraExport_SsisNavigation
config.fs_get_parameter_value <.. docs.ftv_RepoObject_AntoraXref
config.fs_get_parameter_value <.. docs.fs_AntoraModuleFolder
config.fs_get_parameter_value <.. repo.usp_sync_guid_RepoObjectColumn_ssas
config.fs_get_parameter_value <.. repo.usp_sync_guid_RepoObject_ssas
config.fs_get_parameter_value <.. repo.usp_sync_guid_RepoSchema_ssas
config.fs_get_parameter_value <.. property.RepoObjectProperty_ForUpdate
config.fs_get_parameter_value <.. repo.usp_sync_guid_RepoSchema
config.fs_get_parameter_value <.. docs.usp_AntoraExport_SsisPartialProperties
config.fs_get_parameter_value <.. docs.usp_AntoraExport_SsisPageTemplate
config.fs_get_parameter_value <.. docs.usp_AntoraExport_SsisPage
docs.fs_AntoraModuleFolder <.. docs.usp_AntoraExport_ObjectRefCyclic
docs.fs_AntoraModuleFolder <.. docs.usp_AntoraExport_DocSnippet
docs.fs_AntoraModuleFolder <.. docs.usp_AntoraExport
docs.fs_AntoraModuleFolder <.. docs.usp_AntoraExport_Page_IndexSemanticGroup
docs.fs_AntoraModuleFolder <.. docs.usp_AntoraExport_ObjectPuml
docs.fs_AntoraModuleFolder <.. docs.usp_AntoraExport_ObjectPageTemplate
docs.fs_AntoraModuleFolder <.. docs.usp_AntoraExport_ObjectPage
docs.fs_AntoraModuleFolder <.. docs.usp_AntoraExport_ObjectPartialProperties
docs.fs_AntoraModuleFolder <.. docs.usp_AntoraExport_ObjectNavigation
docs.ftv_RepoObject_AntoraXref <.. docs.RepoObject_AntoraXrefCulturesList
docs.RepoObject_Adoc <.. docs.usp_PERSIST_RepoObject_Adoc_T
docs.RepoObject_Adoc <.. docs.RepoObject_Adoc_T
docs.REpoObject_Adoc_T <.. docs.usp_PERSIST_RepoObject_Adoc_T
docs.RepoObject_AntoraXrefCulturesList <.. docs.RepoObject_Adoc
docs.usp_AntoraExport_DocSnippet <.. docs.usp_AntoraExport
docs.usp_AntoraExport_ObjectNavigation <.. docs.usp_AntoraExport
docs.usp_AntoraExport_ObjectPage <.. docs.usp_AntoraExport
docs.usp_AntoraExport_ObjectPageTemplate <.. docs.usp_AntoraExport
docs.usp_AntoraExport_ObjectPartialProperties <.. docs.usp_AntoraExport
docs.usp_AntoraExport_ObjectPuml <.. docs.usp_AntoraExport
docs.usp_AntoraExport_ObjectRefCyclic <.. docs.usp_AntoraExport
docs.usp_AntoraExport_Page_IndexSemanticGroup <.. docs.usp_AntoraExport
docs.usp_AntoraExport_SsisNavigation <.. docs.usp_AntoraExport
docs.usp_AntoraExport_SsisPage <.. docs.usp_AntoraExport
docs.usp_AntoraExport_SsisPageTemplate <.. docs.usp_AntoraExport
docs.usp_AntoraExport_SsisPartialProperties <.. docs.usp_AntoraExport
docs.usp_PERSIST_RepoObject_Adoc_T <.. docs.usp_AntoraExport_ObjectPartialProperties
repo.usp_RepoObjectColumn_update_RepoObjectColumn_column_id <.. repo.usp_main
repo.usp_sync_guid <.. repo.usp_persistence_set
repo.usp_sync_guid <.. repo.usp_main
repo.usp_sync_guid_RepoObject <.. repo.usp_sync_guid
repo.usp_sync_guid_RepoObjectColumn <.. repo.usp_sync_guid
repo.usp_sync_guid_RepoSchema <.. repo.usp_sync_guidfooter The diagram is interactive and contains links.
@enduml

