@startuml
'Left to right direction
top to bottom direction
hide circle
'avoide "." issues:
set namespaceSeparator none


skinparam class {
  BackgroundColor White
  BackgroundColor<<FN>> Yellow
  BackgroundColor<<FS>> Yellow
  BackgroundColor<<FT>> LightGray
  BackgroundColor<<IF>> Yellow
  BackgroundColor<<IS>> Yellow
  BackgroundColor<<P>> Aqua
  BackgroundColor<<PC>> Aqua
  BackgroundColor<<SN>> Yellow
  BackgroundColor<<SO>> SlateBlue
  BackgroundColor<<TF>> LightGray
  BackgroundColor<<TR>> Tomato
  BackgroundColor<<U>> White
  BackgroundColor<<V>> WhiteSmoke
  BackgroundColor<<X>> Aqua
  BackgroundColor<<external>> AliceBlue
}


entity "puml-link:dhw:sqldb:configt.type_level1type_level2type.adoc[]" as configT.type_level1type_level2type << V >> {
  **type** : (nvarchar(128))
  --
}

entity "puml-link:dhw:sqldb:property.extendedproperty_repo2sys_level1.adoc[]" as property.ExtendedProperty_Repo2Sys_level1 << V >> {
  - **level0type** : (nvarchar(6))
  - **level0name** : (nvarchar(128))
  **level1type** : (varchar(9))
  - **level1name** : (nvarchar(128))
  - **property_name** : (nvarchar(128))
  --
}

entity "puml-link:dhw:sqldb:property.extendedproperty_repo2sys_level2_repoobject.adoc[]" as property.ExtendedProperty_Repo2Sys_level2_RepoObject << V >> {
  - **level0type** : (nvarchar(6))
  - **level0name** : (nvarchar(128))
  **level1type** : (varchar(9))
  - **level1name** : (nvarchar(128))
  **level2type** : (varchar(10))
  - **level2name** : (nvarchar(128))
  - **property_name** : (nvarchar(128))
  --
}

entity "puml-link:dhw:sqldb:property.extendedproperty_repo2sys_level2_repoobjectcolumn.adoc[]" as property.ExtendedProperty_Repo2Sys_level2_RepoObjectColumn << V >> {
  - **level0type** : (nvarchar(6))
  - **level0name** : (nvarchar(128))
  **level1type** : (varchar(9))
  - **level1name** : (nvarchar(128))
  - **level2type** : (nvarchar(6))
  - **level2name** : (nvarchar(128))
  - **property_name** : (nvarchar(128))
  --
}

entity "puml-link:dhw:sqldb:property.extendedproperty_repo2sys_level2_union.adoc[]" as property.ExtendedProperty_Repo2Sys_level2_Union << V >> {
  - **level0type** : (nvarchar(6))
  - **level0name** : (nvarchar(128))
  **level1type** : (varchar(9))
  - **level1name** : (nvarchar(128))
  **level2type** : (nvarchar(10))
  - **level2name** : (nvarchar(128))
  - **property_name** : (nvarchar(128))
  --
}

entity "puml-link:dhw:sqldb:property.usp_sync_extendedproperties_repo2sys_delete.adoc[]" as property.usp_sync_ExtendedProperties_Repo2Sys_Delete << P >> {
  --
}

entity "puml-link:dhw:sqldb:property.usp_sync_extendedproperties_repo2sys_insertupdate.adoc[]" as property.usp_sync_ExtendedProperties_Repo2Sys_InsertUpdate << P >> {
  --
}

entity "puml-link:dhw:sqldb:repo.usp_main.adoc[]" as repo.usp_main << P >> {
  --
}

entity "puml-link:dhw:sqldb:repo.usp_persistence_set.adoc[]" as repo.usp_persistence_set << P >> {
  --
}

entity "puml-link:dhw:sqldb:repo.usp_sync_guid.adoc[]" as repo.usp_sync_guid << P >> {
  --
}

entity "puml-link:dhw:sqldb:repo.usp_sync_guid_repoobject.adoc[]" as repo.usp_sync_guid_RepoObject << P >> {
  --
}

entity "puml-link:dhw:sqldb:repo.usp_sync_guid_repoobjectcolumn.adoc[]" as repo.usp_sync_guid_RepoObjectColumn << P >> {
  --
}

entity "puml-link:dhw:sqldb:repo_sys.extendedproperties_parameterforaddupdatedrop.adoc[]" as repo_sys.ExtendedProperties_ParameterForAddUpdateDrop << V >> {
  --
}

entity "puml-link:dhw:sqldb:repo_sys.usp_dropextendedproperty_level_0.adoc[]" as repo_sys.usp_dropextendedproperty_level_0 << P >> {
  --
}

entity "puml-link:dhw:sqldb:repo_sys.usp_dropextendedproperty_level_1.adoc[]" as repo_sys.usp_dropextendedproperty_level_1 << P >> {
  --
}

entity "puml-link:dhw:sqldb:repo_sys.usp_dropextendedproperty_level_2.adoc[]" as repo_sys.usp_dropextendedproperty_level_2 << P >> {
  --
}

entity "puml-link:dhw:sqldb:sys_self.extendedproperties_parameterforaddupdatedrop.adoc[]" as sys_self.ExtendedProperties_ParameterForAddUpdateDrop << V >> {
  --
}

entity "puml-link:dhw:sqldb:sys_self.usp_dropextendedproperty_level_1.adoc[]" as sys_self.usp_dropextendedproperty_level_1 << P >> {
  --
}

entity "puml-link:dhw:sqldb:sys_self.usp_dropextendedproperty_level_2.adoc[]" as sys_self.usp_dropextendedproperty_level_2 << P >> {
  --
}

configT.type_level1type_level2type <.. property.ExtendedProperty_Repo2Sys_level2_RepoObjectColumn
configT.type_level1type_level2type <.. property.ExtendedProperty_Repo2Sys_level2_RepoObject
configT.type_level1type_level2type <.. property.ExtendedProperty_Repo2Sys_level1
configT.type_level1type_level2type <.. repo.usp_sync_guid_RepoObjectColumn
configT.type_level1type_level2type <.. repo.usp_sync_guid_RepoObject
configT.type_level1type_level2type <.. repo_sys.ExtendedProperties_ParameterForAddUpdateDrop
configT.type_level1type_level2type <.. sys_self.ExtendedProperties_ParameterForAddUpdateDrop
property.ExtendedProperty_Repo2Sys_level1 <.. property.usp_sync_ExtendedProperties_Repo2Sys_InsertUpdate
property.ExtendedProperty_Repo2Sys_level1 <.. property.usp_sync_ExtendedProperties_Repo2Sys_Delete
property.ExtendedProperty_Repo2Sys_level2_RepoObject <.. property.ExtendedProperty_Repo2Sys_level2_Union
property.ExtendedProperty_Repo2Sys_level2_RepoObjectColumn <.. property.ExtendedProperty_Repo2Sys_level2_Union
property.ExtendedProperty_Repo2Sys_level2_Union <.. property.usp_sync_ExtendedProperties_Repo2Sys_InsertUpdate
property.ExtendedProperty_Repo2Sys_level2_Union <.. property.usp_sync_ExtendedProperties_Repo2Sys_Delete
repo.usp_sync_guid <.. repo.usp_persistence_set
repo.usp_sync_guid <.. repo.usp_main
repo.usp_sync_guid_RepoObject <.. repo.usp_sync_guid
repo.usp_sync_guid_RepoObjectColumn <.. repo.usp_sync_guid
repo_sys.ExtendedProperties_ParameterForAddUpdateDrop <.. repo_sys.usp_dropextendedproperty_level_0
repo_sys.ExtendedProperties_ParameterForAddUpdateDrop <.. property.usp_sync_ExtendedProperties_Repo2Sys_Delete
repo_sys.ExtendedProperties_ParameterForAddUpdateDrop <.. property.usp_sync_ExtendedProperties_Repo2Sys_InsertUpdate
repo_sys.ExtendedProperties_ParameterForAddUpdateDrop <.. repo_sys.usp_dropextendedproperty_level_1
sys_self.ExtendedProperties_ParameterForAddUpdateDrop <.. sys_self.usp_dropextendedproperty_level_2
sys_self.ExtendedProperties_ParameterForAddUpdateDrop <.. sys_self.usp_dropextendedproperty_level_1
sys_self.ExtendedProperties_ParameterForAddUpdateDrop <.. repo_sys.usp_dropextendedproperty_level_2footer The diagram is interactive and contains links.
@enduml

