@startuml
'Left to right direction
top to bottom direction
hide circle
'avoide "." issues:
set namespaceSeparator none


skinparam class {
  BackgroundColor White
  BackgroundColor<<FN>> Yellow
  BackgroundColor<<FS>> Yellow
  BackgroundColor<<FT>> LightGray
  BackgroundColor<<IF>> Yellow
  BackgroundColor<<IS>> Yellow
  BackgroundColor<<P>> Aqua
  BackgroundColor<<PC>> Aqua
  BackgroundColor<<SN>> Yellow
  BackgroundColor<<SO>> SlateBlue
  BackgroundColor<<TF>> LightGray
  BackgroundColor<<TR>> Tomato
  BackgroundColor<<U>> White
  BackgroundColor<<V>> WhiteSmoke
  BackgroundColor<<X>> Aqua
  BackgroundColor<<external>> AliceBlue
}


entity "puml-link:dhw:sqldb:docs.antoranavlistrepoobject_by_schema.adoc[]" as docs.AntoraNavListRepoObject_by_schema << V >> {
  --
}

entity "puml-link:dhw:sqldb:docs.antorapage_objectbyschema.adoc[]" as docs.AntoraPage_ObjectBySchema << V >> {
  --
}

entity "puml-link:dhw:sqldb:docs.usp_antoraexport.adoc[]" as docs.usp_AntoraExport << P >> {
  --
}

entity "puml-link:dhw:sqldb:docs.usp_antoraexport_navigation.adoc[]" as docs.usp_AntoraExport_navigation << P >> {
  --
}

docs.AntoraNavListRepoObject_by_schema <.. docs.usp_AntoraExport_navigation
docs.AntoraNavListRepoObject_by_schema <.. docs.AntoraPage_ObjectBySchema
docs.usp_AntoraExport_navigation <.. docs.usp_AntoraExport
@enduml

