@startuml
'Left to right direction
top to bottom direction
hide circle
'avoide "." issues:
set namespaceSeparator none


skinparam class {
  BackgroundColor White
  BackgroundColor<<FN>> Yellow
  BackgroundColor<<FS>> Yellow
  BackgroundColor<<FT>> LightGray
  BackgroundColor<<IF>> Yellow
  BackgroundColor<<IS>> Yellow
  BackgroundColor<<P>> Aqua
  BackgroundColor<<PC>> Aqua
  BackgroundColor<<SN>> Yellow
  BackgroundColor<<SO>> SlateBlue
  BackgroundColor<<TF>> LightGray
  BackgroundColor<<TR>> Tomato
  BackgroundColor<<U>> White
  BackgroundColor<<V>> WhiteSmoke
  BackgroundColor<<X>> Aqua
  BackgroundColor<<external>> AliceBlue
}


entity "puml-link:dhw:sqldb:docs.repoobject_adoc.adoc[]" as docs.RepoObject_Adoc << V >> {
  --
}

entity "puml-link:dhw:sqldb:docs.repoobject_adoc_t.adoc[]" as docs.RepoObject_Adoc_T << U >> {
  - **RepoObject_guid** : (uniqueidentifier)
  - **cultures_name** : (nvarchar(10))
  --
}

entity "puml-link:dhw:sqldb:docs.usp_antoraexport.adoc[]" as docs.usp_AntoraExport << P >> {
  --
}

entity "puml-link:dhw:sqldb:docs.usp_antoraexport_objectpartialproperties.adoc[]" as docs.usp_AntoraExport_ObjectPartialProperties << P >> {
  --
}

entity "puml-link:dhw:sqldb:docs.usp_persist_repoobject_adoc_t.adoc[]" as docs.usp_PERSIST_RepoObject_Adoc_T << P >> {
  --
}

docs.RepoObject_Adoc <.. docs.RepoObject_Adoc_T
docs.RepoObject_Adoc <.. docs.usp_PERSIST_RepoObject_Adoc_T
docs.REpoObject_Adoc_T <.. docs.usp_PERSIST_RepoObject_Adoc_T
docs.usp_AntoraExport_ObjectPartialProperties <.. docs.usp_AntoraExport
docs.usp_PERSIST_RepoObject_Adoc_T <.. docs.usp_AntoraExport_ObjectPartialProperties
@enduml

