@startuml
'Left to right direction
top to bottom direction
hide circle
'avoide "." issues:
set namespaceSeparator none


skinparam class {
  BackgroundColor White
  BackgroundColor<<FN>> Yellow
  BackgroundColor<<FS>> Yellow
  BackgroundColor<<FT>> LightGray
  BackgroundColor<<IF>> Yellow
  BackgroundColor<<IS>> Yellow
  BackgroundColor<<P>> Aqua
  BackgroundColor<<PC>> Aqua
  BackgroundColor<<SN>> Yellow
  BackgroundColor<<SO>> SlateBlue
  BackgroundColor<<TF>> LightGray
  BackgroundColor<<TR>> Tomato
  BackgroundColor<<U>> White
  BackgroundColor<<V>> WhiteSmoke
  BackgroundColor<<X>> Aqua
  BackgroundColor<<external>> AliceBlue
}


entity "puml-link:dhw:sqldb:docs.antoraindexsemanticgroup.adoc[]" as docs.AntoraIndexSemanticgroup << V >> {
  --
}

entity "puml-link:dhw:sqldb:docs.antoraindexsemanticgrouppatterndatatype.adoc[]" as docs.AntoraIndexSemanticgroupPatterndatatype << V >> {
  **IndexSemanticGroup** : (nvarchar(512))
  **IndexPatternColumnDatatype** : (nvarchar(4000))
  --
}

entity "puml-link:dhw:sqldb:docs.antorapage_indexsemanticgroup.adoc[]" as docs.AntoraPage_IndexSemanticGroup << V >> {
  - **page_content** : (nvarchar(max))
  --
}

docs.AntoraIndexSemanticgroup <.. docs.AntoraPage_IndexSemanticGroup
docs.AntoraIndexSemanticgroupPatterndatatype <.. docs.AntoraIndexSemanticgroup
@enduml

