@startuml
'Left to right direction
top to bottom direction
hide circle
'avoide "." issues:
set namespaceSeparator none


skinparam class {
  BackgroundColor White
  BackgroundColor<<FN>> Yellow
  BackgroundColor<<FS>> Yellow
  BackgroundColor<<FT>> LightGray
  BackgroundColor<<IF>> Yellow
  BackgroundColor<<IS>> Yellow
  BackgroundColor<<P>> Aqua
  BackgroundColor<<PC>> Aqua
  BackgroundColor<<SN>> Yellow
  BackgroundColor<<SO>> SlateBlue
  BackgroundColor<<TF>> LightGray
  BackgroundColor<<TR>> Tomato
  BackgroundColor<<U>> White
  BackgroundColor<<V>> WhiteSmoke
  BackgroundColor<<X>> Aqua
  BackgroundColor<<external>> AliceBlue
}


entity "puml-link:dhw:sqldb:logs.executionlog_parent.adoc[]" as logs.ExecutionLog_parent << V >> {
  --
}

entity "puml-link:dhw:sqldb:logs.executionlog_puml_sequence_start_stop.adoc[]" as logs.ExecutionLog_puml_Sequence_start_stop << V >> {
  --
}

entity "puml-link:dhw:sqldb:logs.ftv_executionlog_puml_sequence_start_stop_per_execution.adoc[]" as logs.ftv_ExecutionLog_puml_sequence_start_stop_per_execution << IF >> {
  --
}

logs.ExecutionLog_parent <.. logs.ExecutionLog_puml_Sequence_start_stop
logs.ExecutionLog_puml_Sequence_start_stop <.. logs.ftv_ExecutionLog_puml_sequence_start_stop_per_execution
@enduml

