@startuml
'Left to right direction
top to bottom direction
hide circle
'avoide "." issues:
set namespaceSeparator none


skinparam class {
  BackgroundColor White
  BackgroundColor<<FN>> Yellow
  BackgroundColor<<FS>> Yellow
  BackgroundColor<<FT>> LightGray
  BackgroundColor<<IF>> Yellow
  BackgroundColor<<IS>> Yellow
  BackgroundColor<<P>> Aqua
  BackgroundColor<<PC>> Aqua
  BackgroundColor<<SN>> Yellow
  BackgroundColor<<SO>> SlateBlue
  BackgroundColor<<TF>> LightGray
  BackgroundColor<<TR>> Tomato
  BackgroundColor<<U>> White
  BackgroundColor<<V>> WhiteSmoke
  BackgroundColor<<X>> Aqua
  BackgroundColor<<external>> AliceBlue
}


entity "puml-link:dhw:sqldb:docs.usp_antoraexport.adoc[]" as docs.usp_AntoraExport << P >> {
  --
}

entity "puml-link:dhw:sqldb:docs.usp_antoraexport_docsnippet.adoc[]" as docs.usp_AntoraExport_DocSnippet << P >> {
  --
}

entity "puml-link:dhw:sqldb:docs.usp_antoraexport_objectnavigation.adoc[]" as docs.usp_AntoraExport_ObjectNavigation << P >> {
  --
}

entity "puml-link:dhw:sqldb:docs.usp_antoraexport_objectpage.adoc[]" as docs.usp_AntoraExport_ObjectPage << P >> {
  --
}

entity "puml-link:dhw:sqldb:docs.usp_antoraexport_objectpagetemplate.adoc[]" as docs.usp_AntoraExport_ObjectPageTemplate << P >> {
  --
}

entity "puml-link:dhw:sqldb:docs.usp_antoraexport_objectpartialproperties.adoc[]" as docs.usp_AntoraExport_ObjectPartialProperties << P >> {
  --
}

entity "puml-link:dhw:sqldb:docs.usp_antoraexport_objectpuml.adoc[]" as docs.usp_AntoraExport_ObjectPuml << P >> {
  --
}

entity "puml-link:dhw:sqldb:docs.usp_antoraexport_objectrefcyclic.adoc[]" as docs.usp_AntoraExport_ObjectRefCyclic << P >> {
  --
}

entity "puml-link:dhw:sqldb:docs.usp_antoraexport_page_indexsemanticgroup.adoc[]" as docs.usp_AntoraExport_Page_IndexSemanticGroup << P >> {
  --
}

entity "puml-link:dhw:sqldb:docs.usp_antoraexport_ssisnavigation.adoc[]" as docs.usp_AntoraExport_SsisNavigation << P >> {
  --
}

entity "puml-link:dhw:sqldb:docs.usp_antoraexport_ssispage.adoc[]" as docs.usp_AntoraExport_SsisPage << P >> {
  --
}

entity "puml-link:dhw:sqldb:docs.usp_antoraexport_ssispagetemplate.adoc[]" as docs.usp_AntoraExport_SsisPageTemplate << P >> {
  --
}

entity "puml-link:dhw:sqldb:docs.usp_antoraexport_ssispartialproperties.adoc[]" as docs.usp_AntoraExport_SsisPartialProperties << P >> {
  --
}

entity "puml-link:dhw:sqldb:docs.usp_antoraexport_ssispuml.adoc[]" as docs.usp_AntoraExport_SsisPuml << P >> {
  --
}

entity "puml-link:dhw:sqldb:docs.usp_persist_repoobject_adoc_t.adoc[]" as docs.usp_PERSIST_RepoObject_Adoc_T << P >> {
  --
}

entity "puml-link:dhw:sqldb:docs.usp_persist_repoobject_columnlist_t.adoc[]" as docs.usp_PERSIST_RepoObject_ColumnList_T << P >> {
  --
}

entity "puml-link:dhw:sqldb:docs.usp_persist_repoobject_indexlist_t.adoc[]" as docs.usp_PERSIST_RepoObject_IndexList_T << P >> {
  --
}

entity "puml-link:dhw:sqldb:docs.usp_persist_repoobject_outputfilter_t.adoc[]" as docs.usp_PERSIST_RepoObject_OutputFilter_T << P >> {
  --
}

entity "puml-link:dhw:sqldb:docs.usp_persist_repoobject_plantuml_entity_t.adoc[]" as docs.usp_PERSIST_RepoObject_Plantuml_Entity_T << P >> {
  --
}

entity "puml-link:dhw:sqldb:docs.usp_persist_repoobject_plantuml_t.adoc[]" as docs.usp_PERSIST_RepoObject_Plantuml_T << P >> {
  --
}

entity "puml-link:dhw:sqldb:docs.usp_persist_ssis_adoc_t.adoc[]" as docs.usp_PERSIST_ssis_Adoc_T << P >> {
  --
}

entity "puml-link:dhw:sqldb:logs.usp_executionlog_insert.adoc[]" as logs.usp_ExecutionLog_insert << P >> {
  --
}

entity "puml-link:dhw:sqldb:property.usp_external_property_import.adoc[]" as property.usp_external_property_import << P >> {
  --
}

entity "puml-link:dhw:sqldb:property.usp_external_repoobjectproperty.adoc[]" as property.usp_external_RepoObjectProperty << P >> {
  --
}

entity "puml-link:dhw:sqldb:property.usp_persist_propertyname_repoobject_t.adoc[]" as property.usp_PERSIST_PropertyName_RepoObject_T << P >> {
  --
}

entity "puml-link:dhw:sqldb:property.usp_persist_propertyname_repoobjectcolumn_t.adoc[]" as property.usp_PERSIST_PropertyName_RepoObjectColumn_T << P >> {
  --
}

entity "puml-link:dhw:sqldb:property.usp_persist_repoobjectcolumnproperty_external_tgt.adoc[]" as property.usp_PERSIST_RepoObjectColumnProperty_external_tgt << P >> {
  --
}

entity "puml-link:dhw:sqldb:property.usp_persist_repoobjectproperty_external_tgt.adoc[]" as property.usp_PERSIST_RepoObjectProperty_external_tgt << P >> {
  --
}

entity "puml-link:dhw:sqldb:property.usp_repoobject_inheritance.adoc[]" as property.usp_RepoObject_Inheritance << P >> {
  --
}

entity "puml-link:dhw:sqldb:property.usp_repoobjectcolumn_inheritance.adoc[]" as property.usp_RepoObjectColumn_Inheritance << P >> {
  --
}

entity "puml-link:dhw:sqldb:property.usp_repoobjectproperty_collect.adoc[]" as property.usp_RepoObjectProperty_collect << P >> {
  --
}

entity "puml-link:dhw:sqldb:property.usp_sync_extendedproperties_repo2sys_delete.adoc[]" as property.usp_sync_ExtendedProperties_Repo2Sys_Delete << P >> {
  --
}

entity "puml-link:dhw:sqldb:property.usp_sync_extendedproperties_repo2sys_insertupdate.adoc[]" as property.usp_sync_ExtendedProperties_Repo2Sys_InsertUpdate << P >> {
  --
}

entity "puml-link:dhw:sqldb:property.usp_sync_extendedproperties_sys2repo_insertupdate.adoc[]" as property.usp_sync_ExtendedProperties_Sys2Repo_InsertUpdate << P >> {
  --
}

entity "puml-link:dhw:sqldb:reference.usp_additional_reference.adoc[]" as reference.usp_additional_Reference << P >> {
  --
}

entity "puml-link:dhw:sqldb:reference.usp_persist_additional_reference_database_t.adoc[]" as reference.usp_PERSIST_additional_Reference_database_T << P >> {
  --
}

entity "puml-link:dhw:sqldb:reference.usp_persist_additional_reference_from_properties_tgt.adoc[]" as reference.usp_PERSIST_additional_Reference_from_properties_tgt << P >> {
  --
}

entity "puml-link:dhw:sqldb:reference.usp_persist_additional_reference_from_ssas_tgt.adoc[]" as reference.usp_PERSIST_additional_Reference_from_ssas_tgt << P >> {
  --
}

entity "puml-link:dhw:sqldb:reference.usp_persist_additional_reference_object_t.adoc[]" as reference.usp_PERSIST_additional_Reference_Object_T << P >> {
  --
}

entity "puml-link:dhw:sqldb:reference.usp_persist_additional_reference_objectcolumn_t.adoc[]" as reference.usp_PERSIST_additional_Reference_ObjectColumn_T << P >> {
  --
}

entity "puml-link:dhw:sqldb:reference.usp_persist_additional_reference_wo_columns_from_properties_tgt.adoc[]" as reference.usp_PERSIST_additional_Reference_wo_columns_from_properties_tgt << P >> {
  --
}

entity "puml-link:dhw:sqldb:reference.usp_persist_repoobject_reference_t.adoc[]" as reference.usp_PERSIST_RepoObject_reference_T << P >> {
  --
}

entity "puml-link:dhw:sqldb:reference.usp_persist_repoobject_referencetree_0_30_t.adoc[]" as reference.usp_PERSIST_RepoObject_ReferenceTree_0_30_T << P >> {
  --
}

entity "puml-link:dhw:sqldb:reference.usp_persist_repoobject_referencetree_30_0_t.adoc[]" as reference.usp_PERSIST_RepoObject_ReferenceTree_30_0_T << P >> {
  --
}

entity "puml-link:dhw:sqldb:reference.usp_persist_repoobjectcolumn_reference_t.adoc[]" as reference.usp_PERSIST_RepoObjectColumn_reference_T << P >> {
  --
}

entity "puml-link:dhw:sqldb:reference.usp_repoobject_referencetree.adoc[]" as reference.usp_RepoObject_ReferenceTree << P >> {
  --
}

entity "puml-link:dhw:sqldb:reference.usp_repoobject_referencetree_insert.adoc[]" as reference.usp_RepoObject_ReferenceTree_insert << P >> {
  --
}

entity "puml-link:dhw:sqldb:reference.usp_repoobject_update_sysobjectqueryplan.adoc[]" as reference.usp_RepoObject_update_SysObjectQueryPlan << P >> {
  --
}

entity "puml-link:dhw:sqldb:reference.usp_repoobjectsource_firstresultset.adoc[]" as reference.usp_RepoObjectSource_FirstResultSet << P >> {
  --
}

entity "puml-link:dhw:sqldb:reference.usp_repoobjectsource_queryplan.adoc[]" as reference.usp_RepoObjectSource_QueryPlan << P >> {
  --
}

entity "puml-link:dhw:sqldb:reference.usp_update_referencing_count.adoc[]" as reference.usp_update_Referencing_Count << P >> {
  --
}

entity "puml-link:dhw:sqldb:repo.usp_index_finish.adoc[]" as repo.usp_Index_finish << P >> {
  --
}

entity "puml-link:dhw:sqldb:repo.usp_index_foreignkey.adoc[]" as repo.usp_Index_ForeignKey << P >> {
  --
}

entity "puml-link:dhw:sqldb:repo.usp_index_inheritance.adoc[]" as repo.usp_index_inheritance << P >> {
  --
}

entity "puml-link:dhw:sqldb:repo.usp_index_settings.adoc[]" as repo.usp_Index_Settings << P >> {
  --
}

entity "puml-link:dhw:sqldb:repo.usp_index_virtual_set.adoc[]" as repo.usp_Index_virtual_set << P >> {
  --
}

entity "puml-link:dhw:sqldb:repo.usp_main.adoc[]" as repo.usp_main << P >> {
  --
}

entity "puml-link:dhw:sqldb:repo.usp_persist_foreignkey_indexes_union_t.adoc[]" as repo.usp_PERSIST_ForeignKey_Indexes_union_T << P >> {
  --
}

entity "puml-link:dhw:sqldb:repo.usp_persist_index_columlist_t.adoc[]" as repo.usp_PERSIST_Index_ColumList_T << P >> {
  --
}

entity "puml-link:dhw:sqldb:repo.usp_persist_index_ssas_t.adoc[]" as repo.usp_PERSIST_Index_ssas_T << P >> {
  --
}

entity "puml-link:dhw:sqldb:repo.usp_persist_indexcolumn_referencedreferencing_hasfullcolumnsinreferencing_t.adoc[]" as repo.usp_PERSIST_IndexColumn_ReferencedReferencing_HasFullColumnsInReferencing_T << P >> {
  --
}

entity "puml-link:dhw:sqldb:repo.usp_persist_indexcolumn_ssas_t.adoc[]" as repo.usp_PERSIST_IndexColumn_ssas_T << P >> {
  --
}

entity "puml-link:dhw:sqldb:repo.usp_persist_indexcolumn_union_t.adoc[]" as repo.usp_PERSIST_IndexColumn_union_T << P >> {
  --
}

entity "puml-link:dhw:sqldb:repo.usp_persist_repoobject_external_tgt.adoc[]" as repo.usp_PERSIST_RepoObject_external_tgt << P >> {
  --
}

entity "puml-link:dhw:sqldb:repo.usp_persist_repoobject_sat2_t.adoc[]" as repo.usp_PERSIST_RepoObject_sat2_T << P >> {
  --
}

entity "puml-link:dhw:sqldb:repo.usp_persist_repoobject_ssas_tgt.adoc[]" as repo.usp_PERSIST_RepoObject_SSAS_tgt << P >> {
  --
}

entity "puml-link:dhw:sqldb:repo.usp_persist_repoobjectcolumn_external_tgt.adoc[]" as repo.usp_PERSIST_RepoObjectColumn_external_tgt << P >> {
  --
}

entity "puml-link:dhw:sqldb:repo.usp_persist_repoobjectcolumn_ssas_tgt.adoc[]" as repo.usp_PERSIST_RepoObjectColumn_SSAS_tgt << P >> {
  --
}

entity "puml-link:dhw:sqldb:repo.usp_persist_reposchema_ssas_tgt.adoc[]" as repo.usp_PERSIST_RepoSchema_ssas_tgt << P >> {
  --
}

entity "puml-link:dhw:sqldb:repo.usp_persistence_set.adoc[]" as repo.usp_persistence_set << P >> {
  --
}

entity "puml-link:dhw:sqldb:repo.usp_repoobjectcolumn_update_repoobjectcolumn_column_id.adoc[]" as repo.usp_RepoObjectColumn_update_RepoObjectColumn_column_id << P >> {
  --
}

entity "puml-link:dhw:sqldb:repo.usp_sync_guid.adoc[]" as repo.usp_sync_guid << P >> {
  --
}

entity "puml-link:dhw:sqldb:repo.usp_sync_guid_repoobject.adoc[]" as repo.usp_sync_guid_RepoObject << P >> {
  --
}

entity "puml-link:dhw:sqldb:repo.usp_sync_guid_repoobject_ssas.adoc[]" as repo.usp_sync_guid_RepoObject_ssas << P >> {
  --
}

entity "puml-link:dhw:sqldb:repo.usp_sync_guid_repoobjectcolumn.adoc[]" as repo.usp_sync_guid_RepoObjectColumn << P >> {
  --
}

entity "puml-link:dhw:sqldb:repo.usp_sync_guid_repoobjectcolumn_ssas.adoc[]" as repo.usp_sync_guid_RepoObjectColumn_ssas << P >> {
  --
}

entity "puml-link:dhw:sqldb:repo.usp_sync_guid_reposchema.adoc[]" as repo.usp_sync_guid_RepoSchema << P >> {
  --
}

entity "puml-link:dhw:sqldb:repo.usp_sync_guid_reposchema_ssas.adoc[]" as repo.usp_sync_guid_RepoSchema_ssas << P >> {
  --
}

entity "puml-link:dhw:sqldb:repo.usp_sync_guid_ssas.adoc[]" as repo.usp_sync_guid_ssas << P >> {
  --
}

entity "puml-link:dhw:sqldb:repo.usp_update_referencing_count.adoc[]" as repo.usp_update_Referencing_Count << P >> {
  --
}

entity "puml-link:dhw:sqldb:sqlparse.usp_persist_repoobject_sqlmodules_41_from_t.adoc[]" as sqlparse.usp_PERSIST_RepoObject_SqlModules_41_from_T << P >> {
  --
}

entity "puml-link:dhw:sqldb:sqlparse.usp_persist_repoobject_sqlmodules_61_selectidentifier_union_t.adoc[]" as sqlparse.usp_PERSIST_RepoObject_SqlModules_61_SelectIdentifier_Union_T << P >> {
  --
}

entity "puml-link:dhw:sqldb:sqlparse.usp_sqlparse.adoc[]" as sqlparse.usp_sqlparse << P >> {
  --
}

entity "puml-link:dhw:sqldb:ssas.usp_persist_measures_translation_t.adoc[]" as ssas.usp_PERSIST_Measures_translation_T << P >> {
  --
}

entity "puml-link:dhw:sqldb:ssas.usp_persist_model_json_31_tables_t.adoc[]" as ssas.usp_PERSIST_model_json_31_tables_T << P >> {
  --
}

entity "puml-link:dhw:sqldb:ssas.usp_persist_model_json_311_tables_columns_t.adoc[]" as ssas.usp_PERSIST_model_json_311_tables_columns_T << P >> {
  --
}

entity "puml-link:dhw:sqldb:ssas.usp_persist_model_json_312_tables_measures_t.adoc[]" as ssas.usp_PERSIST_model_json_312_tables_measures_T << P >> {
  --
}

entity "puml-link:dhw:sqldb:ssas.usp_persist_model_json_32_relationships_t.adoc[]" as ssas.usp_PERSIST_model_json_32_relationships_T << P >> {
  --
}

entity "puml-link:dhw:sqldb:ssas.usp_persist_model_json_33_datasources_t.adoc[]" as ssas.usp_PERSIST_model_json_33_dataSources_T << P >> {
  --
}

entity "puml-link:dhw:sqldb:ssas.usp_persist_model_json_3411_cultures_translations_model_t.adoc[]" as ssas.usp_PERSIST_model_json_3411_cultures_translations_model_T << P >> {
  --
}

entity "puml-link:dhw:sqldb:ssas.usp_persist_repoobjectcolumn_translation_t.adoc[]" as ssas.usp_PERSIST_RepoObjectColumn_translation_T << P >> {
  --
}

entity "puml-link:dhw:sqldb:ssas.usp_persist_tmschema_columns_t.adoc[]" as ssas.usp_PERSIST_TMSCHEMA_COLUMNS_T << P >> {
  --
}

entity "puml-link:dhw:sqldb:ssas.usp_persist_tmschema_relationships_t.adoc[]" as ssas.usp_PERSIST_TMSCHEMA_RELATIONSHIPS_T << P >> {
  --
}

entity "puml-link:dhw:sqldb:ssas.usp_persist_tmschema_tables_t.adoc[]" as ssas.usp_PERSIST_TMSCHEMA_TABLES_T << P >> {
  --
}

entity "puml-link:dhw:sqldb:ssis.usp_import.adoc[]" as ssis.usp_import << P >> {
  --
}

entity "puml-link:dhw:sqldb:ssis.usp_persist_package_tgt.adoc[]" as ssis.usp_PERSIST_Package_tgt << P >> {
  --
}

entity "puml-link:dhw:sqldb:ssis.usp_persist_packageconnection_tgt.adoc[]" as ssis.usp_PERSIST_PackageConnection_tgt << P >> {
  --
}

entity "puml-link:dhw:sqldb:ssis.usp_persist_packageflow_tgt.adoc[]" as ssis.usp_PERSIST_PackageFlow_tgt << P >> {
  --
}

entity "puml-link:dhw:sqldb:ssis.usp_persist_packageparameter_tgt.adoc[]" as ssis.usp_PERSIST_PackageParameter_tgt << P >> {
  --
}

entity "puml-link:dhw:sqldb:ssis.usp_persist_packagetask_dft_component_input_externalmetadatacolumn_tgt.adoc[]" as ssis.usp_PERSIST_PackageTask_Dft_Component_input_externalMetadataColumn_tgt << P >> {
  --
}

entity "puml-link:dhw:sqldb:ssis.usp_persist_packagetask_dft_component_input_inputcolumn_tgt.adoc[]" as ssis.usp_PERSIST_PackageTask_Dft_Component_input_inputColumn_tgt << P >> {
  --
}

entity "puml-link:dhw:sqldb:ssis.usp_persist_packagetask_dft_component_input_tgt.adoc[]" as ssis.usp_PERSIST_PackageTask_Dft_Component_input_tgt << P >> {
  --
}

entity "puml-link:dhw:sqldb:ssis.usp_persist_packagetask_dft_component_output_externalmetadatacolumn_tgt.adoc[]" as ssis.usp_PERSIST_PackageTask_Dft_Component_output_externalMetadataColumn_tgt << P >> {
  --
}

entity "puml-link:dhw:sqldb:ssis.usp_persist_packagetask_dft_component_output_outputcolumn_tgt.adoc[]" as ssis.usp_PERSIST_PackageTask_Dft_Component_output_outputColumn_tgt << P >> {
  --
}

entity "puml-link:dhw:sqldb:ssis.usp_persist_packagetask_dft_component_output_tgt.adoc[]" as ssis.usp_PERSIST_PackageTask_Dft_Component_output_tgt << P >> {
  --
}

entity "puml-link:dhw:sqldb:ssis.usp_persist_packagetask_dft_component_tgt.adoc[]" as ssis.usp_PERSIST_PackageTask_Dft_Component_tgt << P >> {
  --
}

entity "puml-link:dhw:sqldb:ssis.usp_persist_packagetask_dft_srcdest_tgt.adoc[]" as ssis.usp_PERSIST_PackageTask_Dft_SrcDest_tgt << P >> {
  --
}

entity "puml-link:dhw:sqldb:ssis.usp_persist_packagetask_sql_parameter_tgt.adoc[]" as ssis.usp_PERSIST_PackageTask_Sql_Parameter_tgt << P >> {
  --
}

entity "puml-link:dhw:sqldb:ssis.usp_persist_packagetask_tgt.adoc[]" as ssis.usp_PERSIST_PackageTask_tgt << P >> {
  --
}

entity "puml-link:dhw:sqldb:ssis.usp_persist_packagevariable_tgt.adoc[]" as ssis.usp_PERSIST_PackageVariable_tgt << P >> {
  --
}

entity "puml-link:dhw:sqldb:ssis.usp_persist_projectconnection_tgt.adoc[]" as ssis.usp_PERSIST_ProjectConnection_tgt << P >> {
  --
}

entity "puml-link:dhw:sqldb:uspgenerator.usp_generatorusp_insert_update_persistence.adoc[]" as uspgenerator.usp_GeneratorUsp_insert_update_persistence << P >> {
  --
}

entity "puml-link:dhw:sqldb:workflow.usp_persist_proceduredependency_input_persistencedependency.adoc[]" as workflow.usp_PERSIST_ProcedureDependency_input_PersistenceDependency << P >> {
  --
}

entity "puml-link:dhw:sqldb:workflow.usp_persist_workflow_proceduredependency_t.adoc[]" as workflow.usp_PERSIST_Workflow_ProcedureDependency_T << P >> {
  --
}

entity "puml-link:dhw:sqldb:workflow.usp_persist_workflow_proceduredependency_t_bidirectional_t.adoc[]" as workflow.usp_PERSIST_Workflow_ProcedureDependency_T_bidirectional_T << P >> {
  --
}

entity "puml-link:dhw:sqldb:workflow.usp_persist_workflowstep.adoc[]" as workflow.usp_PERSIST_WorkflowStep << P >> {
  --
}

entity "puml-link:dhw:sqldb:workflow.usp_workflow.adoc[]" as workflow.usp_workflow << P >> {
  --
}

docs.usp_AntoraExport_DocSnippet <.. docs.usp_AntoraExport
docs.usp_AntoraExport_ObjectNavigation <.. docs.usp_AntoraExport
docs.usp_AntoraExport_ObjectPage <.. docs.usp_AntoraExport
docs.usp_AntoraExport_ObjectPageTemplate <.. docs.usp_AntoraExport
docs.usp_AntoraExport_ObjectPartialProperties <.. docs.usp_AntoraExport
docs.usp_AntoraExport_ObjectPuml <.. docs.usp_AntoraExport
docs.usp_AntoraExport_ObjectRefCyclic <.. docs.usp_AntoraExport
docs.usp_AntoraExport_Page_IndexSemanticGroup <.. docs.usp_AntoraExport
docs.usp_AntoraExport_SsisNavigation <.. docs.usp_AntoraExport
docs.usp_AntoraExport_SsisPage <.. docs.usp_AntoraExport
docs.usp_AntoraExport_SsisPageTemplate <.. docs.usp_AntoraExport
docs.usp_AntoraExport_SsisPartialProperties <.. docs.usp_AntoraExport
docs.usp_AntoraExport_SsisPuml <.. docs.usp_AntoraExport
docs.usp_PERSIST_RepoObject_Adoc_T <.. docs.usp_AntoraExport_ObjectPartialProperties
docs.usp_PERSIST_RepoObject_ColumnList_T <.. docs.usp_AntoraExport_ObjectPartialProperties
docs.usp_PERSIST_RepoObject_IndexList_T <.. docs.usp_AntoraExport_ObjectPartialProperties
docs.usp_PERSIST_RepoObject_OutputFilter_T <.. docs.usp_AntoraExport
docs.usp_PERSIST_RepoObject_Plantuml_Entity_T <.. docs.usp_AntoraExport_ObjectPuml
docs.usp_PERSIST_RepoObject_Plantuml_T <.. docs.usp_AntoraExport_ObjectPuml
docs.usp_PERSIST_ssis_Adoc_T <.. docs.usp_AntoraExport_SsisPartialProperties
logs.usp_ExecutionLog_insert <.. reference.usp_RepoObjectSource_QueryPlan
logs.usp_ExecutionLog_insert <.. uspgenerator.usp_GeneratorUsp_insert_update_persistence
logs.usp_ExecutionLog_insert <.. repo.usp_Index_virtual_set
logs.usp_ExecutionLog_insert <.. repo.usp_index_inheritance
logs.usp_ExecutionLog_insert <.. reference.usp_RepoObject_update_SysObjectQueryPlan
logs.usp_ExecutionLog_insert <.. repo.usp_RepoObjectColumn_update_RepoObjectColumn_column_id
logs.usp_ExecutionLog_insert <.. repo.usp_Index_Settings
logs.usp_ExecutionLog_insert <.. reference.usp_RepoObjectSource_FirstResultSet
logs.usp_ExecutionLog_insert <.. reference.usp_update_Referencing_Count
logs.usp_ExecutionLog_insert <.. reference.usp_PERSIST_RepoObjectColumn_reference_T
logs.usp_ExecutionLog_insert <.. reference.usp_PERSIST_RepoObject_reference_T
logs.usp_ExecutionLog_insert <.. repo.usp_sync_guid_RepoSchema
logs.usp_ExecutionLog_insert <.. docs.usp_AntoraExport_DocSnippet
logs.usp_ExecutionLog_insert <.. repo.usp_update_Referencing_Count
logs.usp_ExecutionLog_insert <.. sqlparse.usp_PERSIST_RepoObject_SqlModules_61_SelectIdentifier_Union_T
logs.usp_ExecutionLog_insert <.. sqlparse.usp_PERSIST_RepoObject_SqlModules_41_from_T
logs.usp_ExecutionLog_insert <.. docs.usp_PERSIST_RepoObject_Plantuml_T
logs.usp_ExecutionLog_insert <.. repo.usp_PERSIST_ForeignKey_Indexes_union_T
logs.usp_ExecutionLog_insert <.. property.usp_RepoObjectProperty_collect
logs.usp_ExecutionLog_insert <.. docs.usp_PERSIST_RepoObject_IndexList_T
logs.usp_ExecutionLog_insert <.. docs.usp_AntoraExport
logs.usp_ExecutionLog_insert <.. docs.usp_AntoraExport_Page_IndexSemanticGroup
logs.usp_ExecutionLog_insert <.. docs.usp_AntoraExport_ObjectPuml
logs.usp_ExecutionLog_insert <.. docs.usp_PERSIST_RepoObject_Plantuml_Entity_T
logs.usp_ExecutionLog_insert <.. docs.usp_AntoraExport_ObjectPageTemplate
logs.usp_ExecutionLog_insert <.. docs.usp_PERSIST_RepoObject_Adoc_T
logs.usp_ExecutionLog_insert <.. docs.usp_AntoraExport_ObjectPage
logs.usp_ExecutionLog_insert <.. docs.usp_AntoraExport_ObjectPartialProperties
logs.usp_ExecutionLog_insert <.. repo.usp_Index_ForeignKey
logs.usp_ExecutionLog_insert <.. repo.usp_Index_finish
logs.usp_ExecutionLog_insert <.. property.usp_RepoObject_Inheritance
logs.usp_ExecutionLog_insert <.. property.usp_RepoObjectColumn_Inheritance
logs.usp_ExecutionLog_insert <.. property.usp_sync_ExtendedProperties_Repo2Sys_Delete
logs.usp_ExecutionLog_insert <.. property.usp_sync_ExtendedProperties_Repo2Sys_InsertUpdate
logs.usp_ExecutionLog_insert <.. property.usp_sync_ExtendedProperties_Sys2Repo_InsertUpdate
logs.usp_ExecutionLog_insert <.. repo.usp_PERSIST_IndexColumn_ReferencedReferencing_HasFullColumnsInReferencing_T
logs.usp_ExecutionLog_insert <.. repo.usp_main
logs.usp_ExecutionLog_insert <.. repo.usp_persistence_set
logs.usp_ExecutionLog_insert <.. repo.usp_sync_guid
logs.usp_ExecutionLog_insert <.. repo.usp_sync_guid_RepoObjectColumn
logs.usp_ExecutionLog_insert <.. repo.usp_sync_guid_RepoObject
logs.usp_ExecutionLog_insert <.. ssis.usp_PERSIST_ProjectConnection_tgt
logs.usp_ExecutionLog_insert <.. docs.usp_AntoraExport_SsisPuml
logs.usp_ExecutionLog_insert <.. docs.usp_AntoraExport_SsisPartialProperties
logs.usp_ExecutionLog_insert <.. docs.usp_AntoraExport_SsisPageTemplate
logs.usp_ExecutionLog_insert <.. docs.usp_AntoraExport_SsisPage
logs.usp_ExecutionLog_insert <.. docs.usp_AntoraExport_SsisNavigation
logs.usp_ExecutionLog_insert <.. docs.usp_AntoraExport_ObjectNavigation
logs.usp_ExecutionLog_insert <.. ssis.usp_PERSIST_PackageTask_tgt
logs.usp_ExecutionLog_insert <.. ssis.usp_PERSIST_Package_tgt
logs.usp_ExecutionLog_insert <.. ssis.usp_PERSIST_PackageVariable_tgt
logs.usp_ExecutionLog_insert <.. ssis.usp_PERSIST_PackageTask_Sql_Parameter_tgt
logs.usp_ExecutionLog_insert <.. ssis.usp_PERSIST_PackageParameter_tgt
logs.usp_ExecutionLog_insert <.. ssis.usp_PERSIST_PackageFlow_tgt
logs.usp_ExecutionLog_insert <.. ssis.usp_PERSIST_PackageConnection_tgt
logs.usp_ExecutionLog_insert <.. repo.usp_PERSIST_RepoObject_sat2_T
logs.usp_ExecutionLog_insert <.. docs.usp_PERSIST_RepoObject_OutputFilter_T
logs.usp_ExecutionLog_insert <.. ssas.usp_PERSIST_RepoObjectColumn_translation_T
logs.usp_ExecutionLog_insert <.. ssas.usp_PERSIST_Measures_translation_T
logs.usp_ExecutionLog_insert <.. ssas.usp_PERSIST_model_json_3411_cultures_translations_model_T
logs.usp_ExecutionLog_insert <.. reference.usp_PERSIST_additional_Reference_from_ssas_tgt
logs.usp_ExecutionLog_insert <.. ssas.usp_PERSIST_model_json_33_dataSources_T
logs.usp_ExecutionLog_insert <.. reference.usp_PERSIST_additional_Reference_wo_columns_from_properties_tgt
logs.usp_ExecutionLog_insert <.. reference.usp_PERSIST_additional_Reference_from_properties_tgt
logs.usp_ExecutionLog_insert <.. property.usp_external_property_import
logs.usp_ExecutionLog_insert <.. property.usp_PERSIST_RepoObjectProperty_external_tgt
logs.usp_ExecutionLog_insert <.. property.usp_PERSIST_RepoObjectColumnProperty_external_tgt
logs.usp_ExecutionLog_insert <.. repo.usp_PERSIST_RepoObjectColumn_external_tgt
logs.usp_ExecutionLog_insert <.. reference.usp_additional_Reference
logs.usp_ExecutionLog_insert <.. repo.usp_PERSIST_RepoObject_external_tgt
logs.usp_ExecutionLog_insert <.. reference.usp_PERSIST_additional_Reference_ObjectColumn_T
logs.usp_ExecutionLog_insert <.. reference.usp_PERSIST_additional_Reference_Object_T
logs.usp_ExecutionLog_insert <.. reference.usp_PERSIST_additional_Reference_database_T
logs.usp_ExecutionLog_insert <.. property.usp_PERSIST_PropertyName_RepoObjectColumn_T
logs.usp_ExecutionLog_insert <.. property.usp_PERSIST_PropertyName_RepoObject_T
logs.usp_ExecutionLog_insert <.. repo.usp_PERSIST_IndexColumn_union_T
logs.usp_ExecutionLog_insert <.. repo.usp_PERSIST_Index_ColumList_T
logs.usp_ExecutionLog_insert <.. ssas.usp_PERSIST_model_json_312_tables_measures_T
logs.usp_ExecutionLog_insert <.. docs.usp_PERSIST_RepoObject_ColumnList_T
logs.usp_ExecutionLog_insert <.. reference.usp_RepoObject_ReferenceTree_insert
logs.usp_ExecutionLog_insert <.. ssas.usp_PERSIST_model_json_32_relationships_T
logs.usp_ExecutionLog_insert <.. ssas.usp_PERSIST_model_json_311_tables_columns_T
logs.usp_ExecutionLog_insert <.. ssas.usp_PERSIST_model_json_31_tables_T
logs.usp_ExecutionLog_insert <.. ssas.usp_PERSIST_TMSCHEMA_RELATIONSHIPS_T
logs.usp_ExecutionLog_insert <.. repo.usp_PERSIST_Index_ssas_T
logs.usp_ExecutionLog_insert <.. repo.usp_PERSIST_IndexColumn_ssas_T
logs.usp_ExecutionLog_insert <.. repo.usp_sync_guid_RepoObjectColumn_ssas
logs.usp_ExecutionLog_insert <.. repo.usp_sync_guid_RepoObject_ssas
logs.usp_ExecutionLog_insert <.. repo.usp_sync_guid_RepoSchema_ssas
logs.usp_ExecutionLog_insert <.. repo.usp_sync_guid_ssas
logs.usp_ExecutionLog_insert <.. repo.usp_PERSIST_RepoSchema_ssas_tgt
logs.usp_ExecutionLog_insert <.. repo.usp_PERSIST_RepoObjectColumn_SSAS_tgt
logs.usp_ExecutionLog_insert <.. repo.usp_PERSIST_RepoObject_SSAS_tgt
logs.usp_ExecutionLog_insert <.. ssas.usp_PERSIST_TMSCHEMA_TABLES_T
logs.usp_ExecutionLog_insert <.. ssas.usp_PERSIST_TMSCHEMA_COLUMNS_T
logs.usp_ExecutionLog_insert <.. workflow.usp_PERSIST_Workflow_ProcedureDependency_T_bidirectional_T
logs.usp_ExecutionLog_insert <.. docs.usp_AntoraExport_ObjectRefCyclic
logs.usp_ExecutionLog_insert <.. workflow.usp_PERSIST_Workflow_ProcedureDependency_T
logs.usp_ExecutionLog_insert <.. reference.usp_RepoObject_ReferenceTree
logs.usp_ExecutionLog_insert <.. sqlparse.usp_sqlparse
logs.usp_ExecutionLog_insert <.. workflow.usp_PERSIST_WorkflowStep
logs.usp_ExecutionLog_insert <.. workflow.usp_PERSIST_ProcedureDependency_input_PersistenceDependency
logs.usp_ExecutionLog_insert <.. workflow.usp_workflow
logs.usp_ExecutionLog_insert <.. reference.usp_PERSIST_RepoObject_ReferenceTree_30_0_T
logs.usp_ExecutionLog_insert <.. reference.usp_PERSIST_RepoObject_ReferenceTree_0_30_T
logs.usp_ExecutionLog_insert <.. ssis.usp_PERSIST_PackageTask_Dft_SrcDest_tgt
logs.usp_ExecutionLog_insert <.. ssis.usp_PERSIST_PackageTask_Dft_Component_output_tgt
logs.usp_ExecutionLog_insert <.. ssis.usp_PERSIST_PackageTask_Dft_Component_output_outputColumn_tgt
logs.usp_ExecutionLog_insert <.. ssis.usp_PERSIST_PackageTask_Dft_Component_output_externalMetadataColumn_tgt
logs.usp_ExecutionLog_insert <.. ssis.usp_PERSIST_PackageTask_Dft_Component_input_tgt
logs.usp_ExecutionLog_insert <.. ssis.usp_PERSIST_PackageTask_Dft_Component_input_inputColumn_tgt
logs.usp_ExecutionLog_insert <.. ssis.usp_PERSIST_PackageTask_Dft_Component_input_externalMetadataColumn_tgt
logs.usp_ExecutionLog_insert <.. docs.usp_PERSIST_ssis_Adoc_T
logs.usp_ExecutionLog_insert <.. ssis.usp_PERSIST_PackageTask_Dft_Component_tgt
property.usp_external_property_import <.. repo.usp_main
property.usp_PERSIST_PropertyName_RepoObject_T <.. property.usp_RepoObject_Inheritance
property.usp_PERSIST_PropertyName_RepoObjectColumn_T <.. property.usp_RepoObjectColumn_Inheritance
property.usp_PERSIST_RepoObjectColumnProperty_external_tgt <.. property.usp_external_property_import
property.usp_PERSIST_RepoObjectColumnProperty_external_tgt <.. property.usp_external_RepoObjectProperty
property.usp_PERSIST_RepoObjectProperty_external_tgt <.. property.usp_external_RepoObjectProperty
property.usp_PERSIST_RepoObjectProperty_external_tgt <.. property.usp_external_property_import
property.usp_RepoObject_Inheritance <.. repo.usp_main
property.usp_RepoObjectColumn_Inheritance <.. repo.usp_main
property.usp_RepoObjectProperty_collect <.. property.usp_RepoObject_Inheritance
property.usp_RepoObjectProperty_collect <.. repo.usp_main
reference.usp_additional_Reference <.. property.usp_external_property_import
reference.usp_additional_Reference <.. repo.usp_main
reference.usp_PERSIST_additional_Reference_database_T <.. reference.usp_additional_Reference
reference.usp_PERSIST_additional_Reference_from_properties_tgt <.. repo.usp_main
reference.usp_PERSIST_additional_Reference_from_ssas_tgt <.. repo.usp_main
reference.usp_PERSIST_additional_Reference_Object_T <.. reference.usp_additional_Reference
reference.usp_PERSIST_additional_Reference_ObjectColumn_T <.. reference.usp_additional_Reference
reference.usp_PERSIST_additional_Reference_wo_columns_from_properties_tgt <.. repo.usp_main
reference.usp_PERSIST_RepoObject_reference_T <.. repo.usp_main
reference.usp_PERSIST_RepoObject_ReferenceTree_0_30_T <.. reference.usp_RepoObject_ReferenceTree
reference.usp_PERSIST_RepoObject_ReferenceTree_30_0_T <.. reference.usp_RepoObject_ReferenceTree
reference.usp_PERSIST_RepoObjectColumn_reference_T <.. repo.usp_main
reference.usp_RepoObject_ReferenceTree_insert <.. repo.usp_main
reference.usp_RepoObject_update_SysObjectQueryPlan <.. repo.usp_main
reference.usp_RepoObjectSource_FirstResultSet <.. repo.usp_main
reference.usp_RepoObjectSource_QueryPlan <.. repo.usp_main
reference.usp_update_Referencing_Count <.. repo.usp_main
repo.usp_Index_finish <.. repo.usp_index_inheritance
repo.usp_Index_finish <.. repo.usp_Index_ForeignKey
repo.usp_Index_ForeignKey <.. repo.usp_main
repo.usp_index_inheritance <.. repo.usp_main
repo.usp_Index_Settings <.. repo.usp_Index_finish
repo.usp_Index_virtual_set <.. repo.usp_Index_ForeignKey
repo.usp_PERSIST_ForeignKey_Indexes_union_T <.. repo.usp_Index_ForeignKey
repo.usp_PERSIST_Index_ColumList_T <.. repo.usp_Index_finish
repo.usp_PERSIST_Index_ssas_T <.. repo.usp_sync_guid_ssas
repo.usp_PERSIST_IndexColumn_ReferencedReferencing_HasFullColumnsInReferencing_T <.. repo.usp_index_inheritance
repo.usp_PERSIST_IndexColumn_ssas_T <.. repo.usp_sync_guid_ssas
repo.usp_PERSIST_IndexColumn_union_T <.. repo.usp_Index_finish
repo.usp_PERSIST_RepoObject_external_tgt <.. reference.usp_additional_Reference
repo.usp_PERSIST_RepoObject_sat2_T <.. repo.usp_main
repo.usp_PERSIST_RepoObject_SSAS_tgt <.. repo.usp_sync_guid_ssas
repo.usp_PERSIST_RepoObjectColumn_external_tgt <.. reference.usp_additional_Reference
repo.usp_PERSIST_RepoObjectColumn_SSAS_tgt <.. repo.usp_sync_guid_ssas
repo.usp_PERSIST_RepoSchema_ssas_tgt <.. repo.usp_sync_guid_ssas
repo.usp_RepoObjectColumn_update_RepoObjectColumn_column_id <.. repo.usp_main
repo.usp_sync_guid <.. repo.usp_persistence_set
repo.usp_sync_guid <.. repo.usp_main
repo.usp_sync_guid_RepoObject <.. repo.usp_sync_guid
repo.usp_sync_guid_RepoObjectColumn <.. repo.usp_sync_guid
repo.usp_sync_guid_RepoSchema <.. repo.usp_sync_guid
repo.usp_sync_guid_ssas <.. repo.usp_main
sqlparse.usp_PERSIST_RepoObject_SqlModules_41_from_T <.. sqlparse.usp_sqlparse
sqlparse.usp_PERSIST_RepoObject_SqlModules_61_SelectIdentifier_Union_T <.. sqlparse.usp_sqlparse
ssas.usp_PERSIST_Measures_translation_T <.. repo.usp_sync_guid_ssas
ssas.usp_PERSIST_model_json_31_tables_T <.. repo.usp_sync_guid_ssas
ssas.usp_PERSIST_model_json_311_tables_columns_T <.. repo.usp_sync_guid_ssas
ssas.usp_PERSIST_model_json_312_tables_measures_T <.. repo.usp_sync_guid_ssas
ssas.usp_PERSIST_model_json_32_relationships_T <.. repo.usp_sync_guid_ssas
ssas.usp_PERSIST_model_json_33_dataSources_T <.. repo.usp_sync_guid_ssas
ssas.usp_PERSIST_model_json_3411_cultures_translations_model_T <.. repo.usp_sync_guid_ssas
ssas.usp_PERSIST_RepoObjectColumn_translation_T <.. repo.usp_main
ssis.usp_PERSIST_Package_tgt <.. ssis.usp_import
ssis.usp_PERSIST_PackageConnection_tgt <.. ssis.usp_import
ssis.usp_PERSIST_PackageFlow_tgt <.. ssis.usp_import
ssis.usp_PERSIST_PackageParameter_tgt <.. ssis.usp_import
ssis.usp_PERSIST_PackageTask_Dft_Component_input_externalMetadataColumn_tgt <.. ssis.usp_import
ssis.usp_PERSIST_PackageTask_Dft_Component_input_inputColumn_tgt <.. ssis.usp_import
ssis.usp_PERSIST_PackageTask_Dft_Component_input_tgt <.. ssis.usp_import
ssis.usp_PERSIST_PackageTask_Dft_Component_output_externalMetadataColumn_tgt <.. ssis.usp_import
ssis.usp_PERSIST_PackageTask_Dft_Component_output_outputColumn_tgt <.. ssis.usp_import
ssis.usp_PERSIST_PackageTask_Dft_Component_output_tgt <.. ssis.usp_import
ssis.usp_PERSIST_PackageTask_Dft_Component_tgt <.. ssis.usp_import
ssis.usp_PERSIST_PackageTask_Sql_Parameter_tgt <.. ssis.usp_import
ssis.usp_PERSIST_PackageTask_tgt <.. ssis.usp_import
ssis.usp_PERSIST_PackageVariable_tgt <.. ssis.usp_import
ssis.usp_PERSIST_ProjectConnection_tgt <.. ssis.usp_import
uspgenerator.usp_GeneratorUsp_insert_update_persistence <.. repo.usp_main
workflow.usp_PERSIST_ProcedureDependency_input_PersistenceDependency <.. workflow.usp_workflow
workflow.usp_PERSIST_Workflow_ProcedureDependency_T <.. workflow.usp_workflow
workflow.usp_PERSIST_Workflow_ProcedureDependency_T_bidirectional_T <.. workflow.usp_workflow
workflow.usp_PERSIST_WorkflowStep <.. workflow.usp_workflowfooter The diagram is interactive and contains links.
@enduml

