@startuml
'Left to right direction
top to bottom direction
hide circle
'avoide "." issues:
set namespaceSeparator none


skinparam class {
  BackgroundColor White
  BackgroundColor<<FN>> Yellow
  BackgroundColor<<FS>> Yellow
  BackgroundColor<<FT>> LightGray
  BackgroundColor<<IF>> Yellow
  BackgroundColor<<IS>> Yellow
  BackgroundColor<<P>> Aqua
  BackgroundColor<<PC>> Aqua
  BackgroundColor<<SN>> Yellow
  BackgroundColor<<SO>> SlateBlue
  BackgroundColor<<TF>> LightGray
  BackgroundColor<<TR>> Tomato
  BackgroundColor<<U>> White
  BackgroundColor<<V>> WhiteSmoke
  BackgroundColor<<X>> Aqua
  BackgroundColor<<external>> AliceBlue
}


entity "puml-link:dhw:sqldb:property.repoobjectcolumn_inheritance_temp.adoc[]" as property.RepoObjectColumn_Inheritance_temp << U >> {
  --
}

entity "puml-link:dhw:sqldb:property.usp_repoobjectcolumn_inheritance.adoc[]" as property.usp_RepoObjectColumn_Inheritance << P >> {
  --
}

entity "puml-link:dhw:sqldb:repo.usp_main.adoc[]" as repo.usp_main << P >> {
  --
}

property.RepoObjectColumn_Inheritance_temp <.. property.usp_RepoObjectColumn_Inheritance
property.usp_RepoObjectColumn_Inheritance <.. repo.usp_mainfooter The diagram is interactive and contains links.
@enduml

