@startuml
'Left to right direction
top to bottom direction
hide circle
'avoide "." issues:
set namespaceSeparator none


skinparam class {
  BackgroundColor White
  BackgroundColor<<FN>> Yellow
  BackgroundColor<<FS>> Yellow
  BackgroundColor<<FT>> LightGray
  BackgroundColor<<IF>> Yellow
  BackgroundColor<<IS>> Yellow
  BackgroundColor<<P>> Aqua
  BackgroundColor<<PC>> Aqua
  BackgroundColor<<SN>> Yellow
  BackgroundColor<<SO>> SlateBlue
  BackgroundColor<<TF>> LightGray
  BackgroundColor<<TR>> Tomato
  BackgroundColor<<U>> White
  BackgroundColor<<V>> WhiteSmoke
  BackgroundColor<<X>> Aqua
  BackgroundColor<<external>> AliceBlue
}


entity "puml-link:dhw:sqldb:property.usp_persist_propertyname_repoobject_t.adoc[]" as property.usp_PERSIST_PropertyName_RepoObject_T << P >> {
  --
}

entity "puml-link:dhw:sqldb:property.usp_repoobject_inheritance.adoc[]" as property.usp_RepoObject_Inheritance << P >> {
  --
}

entity "puml-link:dhw:sqldb:repo.usp_main.adoc[]" as repo.usp_main << P >> {
  --
}

property.usp_PERSIST_PropertyName_RepoObject_T <.. property.usp_RepoObject_Inheritance
property.usp_RepoObject_Inheritance <.. repo.usp_main
@enduml

