@startuml
'Left to right direction
top to bottom direction
hide circle
'avoide "." issues:
set namespaceSeparator none


skinparam class {
  BackgroundColor White
  BackgroundColor<<FN>> Yellow
  BackgroundColor<<FS>> Yellow
  BackgroundColor<<FT>> LightGray
  BackgroundColor<<IF>> Yellow
  BackgroundColor<<IS>> Yellow
  BackgroundColor<<P>> Aqua
  BackgroundColor<<PC>> Aqua
  BackgroundColor<<SN>> Yellow
  BackgroundColor<<SO>> SlateBlue
  BackgroundColor<<TF>> LightGray
  BackgroundColor<<TR>> Tomato
  BackgroundColor<<U>> White
  BackgroundColor<<V>> WhiteSmoke
  BackgroundColor<<X>> Aqua
  BackgroundColor<<external>> AliceBlue
}


entity "puml-link:dhw:sqldb:property.repoobjectproperty_inheritancetype_inheritancedefinition.adoc[]" as property.RepoObjectProperty_InheritanceType_InheritanceDefinition << V >> {
  - **RepoObject_guid** : (uniqueidentifier)
  - **property_name** : (nvarchar(128))
  --
}

entity "puml-link:dhw:sqldb:property.repoobjectproperty_inheritancetype_resulting_inheritancedefinition.adoc[]" as property.RepoObjectProperty_InheritanceType_resulting_InheritanceDefinition << V >> {
  --
}

entity "puml-link:dhw:sqldb:property.usp_repoobject_inheritance.adoc[]" as property.usp_RepoObject_Inheritance << P >> {
  --
}

entity "puml-link:dhw:sqldb:repo.usp_main.adoc[]" as repo.usp_main << P >> {
  --
}

property.RepoObjectProperty_InheritanceType_InheritanceDefinition <.. property.RepoObjectProperty_InheritanceType_resulting_InheritanceDefinition
property.RepoObjectProperty_InheritanceType_resulting_InheritanceDefinition <.. property.usp_RepoObject_Inheritance
property.usp_RepoObject_Inheritance <.. repo.usp_mainfooter The diagram is interactive and contains links.
@enduml

