@startuml
'Left to right direction
top to bottom direction
hide circle
'avoide "." issues:
set namespaceSeparator none


skinparam class {
  BackgroundColor White
  BackgroundColor<<FN>> Yellow
  BackgroundColor<<FS>> Yellow
  BackgroundColor<<FT>> LightGray
  BackgroundColor<<IF>> Yellow
  BackgroundColor<<IS>> Yellow
  BackgroundColor<<P>> Aqua
  BackgroundColor<<PC>> Aqua
  BackgroundColor<<SN>> Yellow
  BackgroundColor<<SO>> SlateBlue
  BackgroundColor<<TF>> LightGray
  BackgroundColor<<TR>> Tomato
  BackgroundColor<<U>> White
  BackgroundColor<<V>> WhiteSmoke
  BackgroundColor<<X>> Aqua
  BackgroundColor<<external>> AliceBlue
}


entity "puml-link:dhw:sqldb:dmdocs.unit.adoc[]" as dmdocs.unit << V >> {
  --
}

entity "puml-link:dhw:sqldb:docs.antoraindexsemanticgroup.adoc[]" as docs.AntoraIndexSemanticgroup << V >> {
  --
}

entity "puml-link:dhw:sqldb:docs.antoraindexsemanticgrouppatterndatatype.adoc[]" as docs.AntoraIndexSemanticgroupPatterndatatype << V >> {
  **IndexSemanticGroup** : (nvarchar(512))
  **IndexPatternColumnDatatype** : (nvarchar(4000))
  --
}

entity "puml-link:dhw:sqldb:docs.antoranavlistpage_by_schema.adoc[]" as docs.AntoraNavListPage_by_schema << V >> {
  --
}

entity "puml-link:dhw:sqldb:docs.antoranavlistpage_by_type.adoc[]" as docs.AntoraNavListPage_by_type << V >> {
  --
}

entity "puml-link:dhw:sqldb:docs.antoranavlistrepoobject_by_schema.adoc[]" as docs.AntoraNavListRepoObject_by_schema << V >> {
  --
}

entity "puml-link:dhw:sqldb:docs.antoranavlistrepoobject_by_schema_type.adoc[]" as docs.AntoraNavListRepoObject_by_schema_type << V >> {
  - **RepoObject_schema_name** : (nvarchar(128))
  **type** : (char(2))
  --
}

entity "puml-link:dhw:sqldb:docs.antoranavlistrepoobject_by_type.adoc[]" as docs.AntoraNavListRepoObject_by_type << V >> {
  **type** : (char(2))
  --
}

entity "puml-link:dhw:sqldb:docs.antorapage_indexsemanticgroup.adoc[]" as docs.AntoraPage_IndexSemanticGroup << V >> {
  - **page_content** : (nvarchar(max))
  --
}

entity "puml-link:dhw:sqldb:docs.antorapage_objectbyschema.adoc[]" as docs.AntoraPage_ObjectBySchema << V >> {
  --
}

entity "puml-link:dhw:sqldb:docs.antorapage_objectbytype.adoc[]" as docs.AntoraPage_ObjectByType << V >> {
  --
}

entity "puml-link:dhw:sqldb:docs.foreignkey_relationscript.adoc[]" as docs.ForeignKey_RelationScript << V >> {
  **referenced_RepoObject_guid** : (uniqueidentifier)
  **referencing_RepoObject_guid** : (uniqueidentifier)
  --
}

entity "puml-link:dhw:sqldb:docs.ftv_repoobject_reference_plantuml_entityreflist.adoc[]" as docs.ftv_RepoObject_Reference_PlantUml_EntityRefList << IF >> {
  --
}

entity "puml-link:dhw:sqldb:docs.objectrefcyclic.adoc[]" as docs.ObjectRefCyclic << V >> {
  --
}

entity "puml-link:dhw:sqldb:docs.objectrefcyclic_entitylist.adoc[]" as docs.ObjectRefCyclic_EntityList << V >> {
  --
}

entity "puml-link:dhw:sqldb:docs.objectrefcyclic_objectreflist.adoc[]" as docs.ObjectRefCyclic_ObjectRefList << V >> {
  --
}

entity "puml-link:dhw:sqldb:docs.repoobject_adoc.adoc[]" as docs.RepoObject_Adoc << V >> {
  --
}

entity "puml-link:dhw:sqldb:docs.repoobject_adoc_t.adoc[]" as docs.RepoObject_Adoc_T << U >> {
  - **RepoObject_guid** : (uniqueidentifier)
  - **cultures_name** : (nvarchar(10))
  --
}

entity "puml-link:dhw:sqldb:docs.repoobject_antoraxrefcultureslist.adoc[]" as docs.RepoObject_AntoraXrefCulturesList << V >> {
  --
}

entity "puml-link:dhw:sqldb:docs.repoobject_columnlist.adoc[]" as docs.RepoObject_ColumnList << V >> {
  --
}

entity "puml-link:dhw:sqldb:docs.repoobject_columnlist_t.adoc[]" as docs.RepoObject_ColumnList_T << U >> {
  - **RepoObject_guid** : (uniqueidentifier)
  - **cultures_name** : (nvarchar(10))
  --
}

entity "puml-link:dhw:sqldb:docs.repoobject_indexlist.adoc[]" as docs.RepoObject_IndexList << V >> {
  **RepoObject_guid** : (uniqueidentifier)
  **cultures_name** : (nvarchar(10))
  --
}

entity "puml-link:dhw:sqldb:docs.repoobject_indexlist_t.adoc[]" as docs.RepoObject_IndexList_T << U >> {
  - **RepoObject_guid** : (uniqueidentifier)
  - **cultures_name** : (nvarchar(10))
  --
}

entity "puml-link:dhw:sqldb:docs.repoobject_measurelist.adoc[]" as docs.RepoObject_MeasureList << V >> {
  **RepoObject_guid** : (uniqueidentifier)
  **cultures_name** : (nvarchar(10))
  --
}

entity "puml-link:dhw:sqldb:docs.repoobject_outputfilter.adoc[]" as docs.RepoObject_OutputFilter << V >> {
  - **RepoObject_guid** : (uniqueidentifier)
  - **cultures_name** : (nvarchar(10))
  --
}

entity "puml-link:dhw:sqldb:docs.repoobject_outputfilter_t.adoc[]" as docs.RepoObject_OutputFilter_T << U >> {
  - **RepoObject_guid** : (uniqueidentifier)
  - **cultures_name** : (nvarchar(10))
  --
}

entity "puml-link:dhw:sqldb:docs.repoobject_plantuml.adoc[]" as docs.RepoObject_Plantuml << V >> {
  - **RepoObject_guid** : (uniqueidentifier)
  **cultures_name** : (nvarchar(10))
  --
}

entity "puml-link:dhw:sqldb:docs.repoobject_plantuml_colreflist_1_1.adoc[]" as docs.RepoObject_Plantuml_ColRefList_1_1 << V >> {
  --
}

entity "puml-link:dhw:sqldb:docs.repoobject_plantuml_entity.adoc[]" as docs.RepoObject_Plantuml_Entity << V >> {
  --
}

entity "puml-link:dhw:sqldb:docs.repoobject_plantuml_entity_t.adoc[]" as docs.RepoObject_Plantuml_Entity_T << U >> {
  - **RepoObject_guid** : (uniqueidentifier)
  - **cultures_name** : (nvarchar(10))
  --
}

entity "puml-link:dhw:sqldb:docs.repoobject_plantuml_fkreflist.adoc[]" as docs.RepoObject_PlantUml_FkRefList << V >> {
  **RepoObject_guid** : (uniqueidentifier)
  --
}

entity "puml-link:dhw:sqldb:docs.repoobject_plantuml_objectreflist_0_30.adoc[]" as docs.RepoObject_Plantuml_ObjectRefList_0_30 << V >> {
  - **RepoObject_guid** : (uniqueidentifier)
  --
}

entity "puml-link:dhw:sqldb:docs.repoobject_plantuml_objectreflist_1_1.adoc[]" as docs.RepoObject_Plantuml_ObjectRefList_1_1 << V >> {
  - **RepoObject_guid** : (uniqueidentifier)
  --
}

entity "puml-link:dhw:sqldb:docs.repoobject_plantuml_objectreflist_30_0.adoc[]" as docs.RepoObject_Plantuml_ObjectRefList_30_0 << V >> {
  - **RepoObject_guid** : (uniqueidentifier)
  --
}

entity "puml-link:dhw:sqldb:docs.repoobject_plantuml_pumlentityfklist.adoc[]" as docs.RepoObject_PlantUml_PumlEntityFkList << V >> {
  **RepoObject_guid** : (uniqueidentifier)
  --
}

entity "puml-link:dhw:sqldb:docs.repoobject_plantuml_t.adoc[]" as docs.RepoObject_Plantuml_T << U >> {
  - **RepoObject_guid** : (uniqueidentifier)
  **cultures_name** : (nvarchar(10))
  --
}

entity "puml-link:dhw:sqldb:docs.schema_entitylist.adoc[]" as docs.Schema_EntityList << V >> {
  - **RepoObject_schema_name** : (nvarchar(128))
  - **cultures_name** : (nvarchar(10))
  --
}

entity "puml-link:dhw:sqldb:docs.schema_puml.adoc[]" as docs.Schema_puml << V >> {
  - **RepoSchema_guid** : (uniqueidentifier)
  **cultures_name** : (nvarchar(10))
  --
}

entity "puml-link:dhw:sqldb:docs.schema_pumlpartial_fkreflist.adoc[]" as docs.Schema_PumlPartial_FkRefList << V >> {
  --
}

entity "puml-link:dhw:sqldb:docs.schema_ssasrelationlist.adoc[]" as docs.Schema_SsasRelationList << V >> {
  - **SchemaName** : (nvarchar(128))
  **cultures_name** : (nvarchar(10))
  --
}

entity "puml-link:dhw:sqldb:docs.unit_1_union.adoc[]" as docs.Unit_1_union << V >> {
  --
}

entity "puml-link:dhw:sqldb:docs.unit_2.adoc[]" as docs.Unit_2 << V >> {
  --
}

entity "puml-link:dhw:sqldb:docs.unit_3.adoc[]" as docs.Unit_3 << V >> {
  --
}

entity "puml-link:dhw:sqldb:docs.usp_antoraexport.adoc[]" as docs.usp_AntoraExport << P >> {
  --
}

entity "puml-link:dhw:sqldb:docs.usp_antoraexport_objectnavigation.adoc[]" as docs.usp_AntoraExport_ObjectNavigation << P >> {
  --
}

entity "puml-link:dhw:sqldb:docs.usp_antoraexport_objectpage.adoc[]" as docs.usp_AntoraExport_ObjectPage << P >> {
  --
}

entity "puml-link:dhw:sqldb:docs.usp_antoraexport_objectpartialproperties.adoc[]" as docs.usp_AntoraExport_ObjectPartialProperties << P >> {
  --
}

entity "puml-link:dhw:sqldb:docs.usp_antoraexport_objectpuml.adoc[]" as docs.usp_AntoraExport_ObjectPuml << P >> {
  --
}

entity "puml-link:dhw:sqldb:docs.usp_persist_repoobject_adoc_t.adoc[]" as docs.usp_PERSIST_RepoObject_Adoc_T << P >> {
  --
}

entity "puml-link:dhw:sqldb:docs.usp_persist_repoobject_columnlist_t.adoc[]" as docs.usp_PERSIST_RepoObject_ColumnList_T << P >> {
  --
}

entity "puml-link:dhw:sqldb:docs.usp_persist_repoobject_indexlist_t.adoc[]" as docs.usp_PERSIST_RepoObject_IndexList_T << P >> {
  --
}

entity "puml-link:dhw:sqldb:docs.usp_persist_repoobject_outputfilter_t.adoc[]" as docs.usp_PERSIST_RepoObject_OutputFilter_T << P >> {
  --
}

entity "puml-link:dhw:sqldb:docs.usp_persist_repoobject_plantuml_entity_t.adoc[]" as docs.usp_PERSIST_RepoObject_Plantuml_Entity_T << P >> {
  --
}

entity "puml-link:dhw:sqldb:docs.usp_persist_repoobject_plantuml_t.adoc[]" as docs.usp_PERSIST_RepoObject_Plantuml_T << P >> {
  --
}

entity "puml-link:dhw:sqldb:property.repoobjectproperty_collect_source_rogross.adoc[]" as property.RepoObjectProperty_Collect_source_ROGross << V >> {
  - **RepoObject_guid** : (uniqueidentifier)
  - **property_name** : (varchar(39))
  --
}

entity "puml-link:dhw:sqldb:property.usp_external_property_import.adoc[]" as property.usp_external_property_import << P >> {
  --
}

entity "puml-link:dhw:sqldb:property.usp_external_repoobjectproperty.adoc[]" as property.usp_external_RepoObjectProperty << P >> {
  --
}

entity "puml-link:dhw:sqldb:property.usp_repoobject_inheritance.adoc[]" as property.usp_RepoObject_Inheritance << P >> {
  --
}

entity "puml-link:dhw:sqldb:property.usp_repoobjectproperty_collect.adoc[]" as property.usp_RepoObjectProperty_collect << P >> {
  --
}

entity "puml-link:dhw:sqldb:reference.additional_reference_database_t.adoc[]" as reference.additional_Reference_database_T << U >> {
  - **AntoraComponent** : (nvarchar(128))
  - **AntoraModule** : (nvarchar(128))
  --
}

entity "puml-link:dhw:sqldb:reference.ftv_repoobject_columreferencerepoobject.adoc[]" as reference.ftv_RepoObject_ColumReferenceRepoObject << IF >> {
  --
}

entity "puml-link:dhw:sqldb:reference.ftv_repoobject_dbmlcolumnrelation.adoc[]" as reference.ftv_RepoObject_DbmlColumnRelation << IF >> {
  --
}

entity "puml-link:dhw:sqldb:reference.ftv_repoobject_referencetree.adoc[]" as reference.ftv_RepoObject_ReferenceTree << IF >> {
  --
}

entity "puml-link:dhw:sqldb:reference.ftv_repoobject_referencetree_referenced.adoc[]" as reference.ftv_RepoObject_ReferenceTree_referenced << IF >> {
  --
}

entity "puml-link:dhw:sqldb:reference.ftv_repoobject_referencetree_referencing.adoc[]" as reference.ftv_RepoObject_ReferenceTree_referencing << IF >> {
  --
}

entity "puml-link:dhw:sqldb:reference.ftv_repoobject_referencetree_via_fullname.adoc[]" as reference.ftv_RepoObject_ReferenceTree_via_fullname << IF >> {
  --
}

entity "puml-link:dhw:sqldb:reference.ftv_repoobjectcolumn_referencetree.adoc[]" as reference.ftv_RepoObjectColumn_ReferenceTree << IF >> {
  --
}

entity "puml-link:dhw:sqldb:reference.persistence.adoc[]" as reference.Persistence << V >> {
  --
}

entity "puml-link:dhw:sqldb:reference.persistence_bidirectional.adoc[]" as reference.Persistence_bidirectional << V >> {
  --
}

entity "puml-link:dhw:sqldb:reference.referencetree_cyclic_ref_persistenceusp.adoc[]" as reference.ReferenceTree_cyclic_ref_PersistenceUsp << V >> {
  --
}

entity "puml-link:dhw:sqldb:reference.referencetree_cyclic_union.adoc[]" as reference.ReferenceTree_cyclic_union << V >> {
  --
}

entity "puml-link:dhw:sqldb:reference.repoobject_reference.adoc[]" as reference.RepoObject_reference << V >> {
  --
}

entity "puml-link:dhw:sqldb:reference.repoobject_reference_persistence_target_as_source.adoc[]" as reference.RepoObject_reference_persistence_target_as_source << V >> {
  --
}

entity "puml-link:dhw:sqldb:reference.repoobject_reference_t.adoc[]" as reference.RepoObject_reference_T << U >> {
  **referenced_RepoObject_guid** : (uniqueidentifier)
  **referencing_RepoObject_guid** : (uniqueidentifier)
  --
}

entity "puml-link:dhw:sqldb:reference.repoobject_reference_t_bidirectional.adoc[]" as reference.RepoObject_reference_T_bidirectional << V >> {
  --
}

entity "puml-link:dhw:sqldb:reference.repoobject_reference_union.adoc[]" as reference.RepoObject_reference_union << V >> {
  **referenced_RepoObject_guid** : (uniqueidentifier)
  **referencing_RepoObject_guid** : (uniqueidentifier)
  --
}

entity "puml-link:dhw:sqldb:reference.repoobject_referencedlist.adoc[]" as reference.RepoObject_ReferencedList << V >> {
  --
}

entity "puml-link:dhw:sqldb:reference.repoobject_referencedreferencing.adoc[]" as reference.RepoObject_ReferencedReferencing << V >> {
  --
}

entity "puml-link:dhw:sqldb:reference.repoobject_referencetree_0_30.adoc[]" as reference.RepoObject_ReferenceTree_0_30 << V >> {
  **RepoObject_guid** : (uniqueidentifier)
  **Referencing_guid** : (uniqueidentifier)
  **Referenced_guid** : (uniqueidentifier)
  --
}

entity "puml-link:dhw:sqldb:reference.repoobject_referencetree_0_30_t.adoc[]" as reference.RepoObject_ReferenceTree_0_30_T << U >> {
  **RepoObject_guid** : (uniqueidentifier)
  **Referencing_guid** : (uniqueidentifier)
  **Referenced_guid** : (uniqueidentifier)
  --
}

entity "puml-link:dhw:sqldb:reference.repoobject_referencetree_30_0.adoc[]" as reference.RepoObject_ReferenceTree_30_0 << V >> {
  **RepoObject_guid** : (uniqueidentifier)
  **Referencing_guid** : (uniqueidentifier)
  **Referenced_guid** : (uniqueidentifier)
  --
}

entity "puml-link:dhw:sqldb:reference.repoobject_referencetree_30_0_t.adoc[]" as reference.RepoObject_ReferenceTree_30_0_T << U >> {
  --
}

entity "puml-link:dhw:sqldb:reference.repoobject_referencetree_referenced.adoc[]" as reference.RepoObject_ReferenceTree_referenced << V >> {
  **RepoObject_guid** : (uniqueidentifier)
  **Referenced_Depth** : (int)
  **Referencing_Depth** : (int)
  **Referenced_guid** : (uniqueidentifier)
  **Referencing_guid** : (uniqueidentifier)
  --
}

entity "puml-link:dhw:sqldb:reference.repoobject_referencetree_referenced_30_0.adoc[]" as reference.RepoObject_ReferenceTree_referenced_30_0 << V >> {
  - **RepoObject_guid** : (uniqueidentifier)
  **Referenced_guid** : (uniqueidentifier)
  --
}

entity "puml-link:dhw:sqldb:reference.repoobject_referencetree_referencing.adoc[]" as reference.RepoObject_ReferenceTree_referencing << V >> {
  **RepoObject_guid** : (uniqueidentifier)
  **Referenced_Depth** : (int)
  **Referencing_Depth** : (int)
  **Referenced_guid** : (uniqueidentifier)
  **Referencing_guid** : (uniqueidentifier)
  --
}

entity "puml-link:dhw:sqldb:reference.repoobject_referencetree_referencing_0_30.adoc[]" as reference.RepoObject_ReferenceTree_referencing_0_30 << V >> {
  - **RepoObject_guid** : (uniqueidentifier)
  **Referencing_guid** : (uniqueidentifier)
  --
}

entity "puml-link:dhw:sqldb:reference.repoobject_referencinglist.adoc[]" as reference.RepoObject_ReferencingList << V >> {
  --
}

entity "puml-link:dhw:sqldb:reference.repoobjectcolumn_reference.adoc[]" as reference.RepoObjectColumn_reference << V >> {
  **referenced_RepoObjectColumn_guid** : (uniqueidentifier)
  **referencing_RepoObjectColumn_guid** : (uniqueidentifier)
  --
}

entity "puml-link:dhw:sqldb:reference.repoobjectcolumn_reference_additional.adoc[]" as reference.RepoObjectColumn_reference_additional << V >> {
  --
}

entity "puml-link:dhw:sqldb:reference.repoobjectcolumn_reference_additional_internal.adoc[]" as reference.RepoObjectColumn_reference_additional_internal << V >> {
  --
}

entity "puml-link:dhw:sqldb:reference.repoobjectcolumn_reference_bysamepredecessors.adoc[]" as reference.RepoObjectColumn_reference_BySamePredecessors << V >> {
  --
}

entity "puml-link:dhw:sqldb:reference.repoobjectcolumn_reference_firstresultset.adoc[]" as reference.RepoObjectColumn_reference_FirstResultSet << V >> {
  --
}

entity "puml-link:dhw:sqldb:reference.repoobjectcolumn_reference_queryplan.adoc[]" as reference.RepoObjectColumn_reference_QueryPlan << V >> {
  **referencing_id** : (int)
  **referencing_minor_id** : (int)
  **referenced_id** : (int)
  **referenced_minor_id** : (int)
  --
}

entity "puml-link:dhw:sqldb:reference.repoobjectcolumn_reference_sqlexpressiondependencies.adoc[]" as reference.RepoObjectColumn_reference_SqlExpressionDependencies << V >> {
  - **referencing_id** : (int)
  - **referencing_minor_id** : (int)
  **referenced_id** : (int)
  - **referenced_minor_id** : (int)
  --
}

entity "puml-link:dhw:sqldb:reference.repoobjectcolumn_reference_t.adoc[]" as reference.RepoObjectColumn_reference_T << U >> {
  **referenced_RepoObjectColumn_guid** : (uniqueidentifier)
  **referencing_RepoObjectColumn_guid** : (uniqueidentifier)
  --
}

entity "puml-link:dhw:sqldb:reference.repoobjectcolumn_reference_union.adoc[]" as reference.RepoObjectColumn_reference_union << V >> {
  --
}

entity "puml-link:dhw:sqldb:reference.repoobjectcolumn_reference_virtual.adoc[]" as reference.RepoObjectColumn_reference_virtual << V >> {
  --
}

entity "puml-link:dhw:sqldb:reference.repoobjectcolumn_referencedlist.adoc[]" as reference.RepoObjectColumn_ReferencedList << V >> {
  --
}

entity "puml-link:dhw:sqldb:reference.repoobjectcolumn_referencedreferencing.adoc[]" as reference.RepoObjectColumn_ReferencedReferencing << V >> {
  --
}

entity "puml-link:dhw:sqldb:reference.repoobjectcolumn_referencetree.adoc[]" as reference.RepoObjectColumn_ReferenceTree << V >> {
  --
}

entity "puml-link:dhw:sqldb:reference.repoobjectcolumn_referencinglist.adoc[]" as reference.RepoObjectColumn_ReferencingList << V >> {
  --
}

entity "puml-link:dhw:sqldb:reference.repoobjectcolumn_relationscript.adoc[]" as reference.RepoObjectColumn_RelationScript << V >> {
  --
}

entity "puml-link:dhw:sqldb:reference.sysobjectcolumn_queryplanexpression.adoc[]" as reference.SysObjectColumn_QueryPlanExpression << V >> {
  --
}

entity "puml-link:dhw:sqldb:reference.usp_additional_reference.adoc[]" as reference.usp_additional_Reference << P >> {
  --
}

entity "puml-link:dhw:sqldb:reference.usp_persist_additional_reference_database_t.adoc[]" as reference.usp_PERSIST_additional_Reference_database_T << P >> {
  --
}

entity "puml-link:dhw:sqldb:reference.usp_persist_repoobject_reference_t.adoc[]" as reference.usp_PERSIST_RepoObject_reference_T << P >> {
  --
}

entity "puml-link:dhw:sqldb:reference.usp_persist_repoobject_referencetree_0_30_t.adoc[]" as reference.usp_PERSIST_RepoObject_ReferenceTree_0_30_T << P >> {
  --
}

entity "puml-link:dhw:sqldb:reference.usp_persist_repoobject_referencetree_30_0_t.adoc[]" as reference.usp_PERSIST_RepoObject_ReferenceTree_30_0_T << P >> {
  --
}

entity "puml-link:dhw:sqldb:reference.usp_persist_repoobjectcolumn_reference_t.adoc[]" as reference.usp_PERSIST_RepoObjectColumn_reference_T << P >> {
  --
}

entity "puml-link:dhw:sqldb:reference.usp_repoobject_referencetree.adoc[]" as reference.usp_RepoObject_ReferenceTree << P >> {
  --
}

entity "puml-link:dhw:sqldb:reference.usp_repoobject_referencetree_insert.adoc[]" as reference.usp_RepoObject_ReferenceTree_insert << P >> {
  --
}

entity "puml-link:dhw:sqldb:reference.usp_repoobject_update_sysobjectqueryplan.adoc[]" as reference.usp_RepoObject_update_SysObjectQueryPlan << P >> {
  --
}

entity "puml-link:dhw:sqldb:reference.usp_repoobjectsource_firstresultset.adoc[]" as reference.usp_RepoObjectSource_FirstResultSet << P >> {
  --
}

entity "puml-link:dhw:sqldb:reference.usp_repoobjectsource_queryplan.adoc[]" as reference.usp_RepoObjectSource_QueryPlan << P >> {
  --
}

entity "puml-link:dhw:sqldb:repo.check_indexcolumn_virtual_referenced_setpoint.adoc[]" as repo.check_IndexColumn_virtual_referenced_setpoint << V >> {
  --
}

entity "puml-link:dhw:sqldb:repo.foreignkey_gross.adoc[]" as repo.ForeignKey_gross << V >> {
  --
}

entity "puml-link:dhw:sqldb:repo.foreignkey_indexes.adoc[]" as repo.ForeignKey_Indexes << V >> {
  --
}

entity "puml-link:dhw:sqldb:repo.foreignkey_indexes_union.adoc[]" as repo.ForeignKey_Indexes_union << V >> {
  **ForeignKey_guid** : (uniqueidentifier)
  --
}

entity "puml-link:dhw:sqldb:repo.foreignkey_indexes_union_t.adoc[]" as repo.ForeignKey_Indexes_union_T << U >> {
  **ForeignKey_guid** : (uniqueidentifier)
  --
}

entity "puml-link:dhw:sqldb:repo.foreignkey_virtual_indexes.adoc[]" as repo.ForeignKey_virtual_Indexes << V >> {
  --
}

entity "puml-link:dhw:sqldb:repo.index_gross.adoc[]" as repo.Index_gross << V >> {
  --
}

entity "puml-link:dhw:sqldb:repo.index_referencing_indexpatterncolumnguid.adoc[]" as repo.Index_referencing_IndexPatternColumnGuid << V >> {
  **source_index_guid** : (uniqueidentifier)
  **referencing_RepoObject_guid** : (uniqueidentifier)
  --
}

entity "puml-link:dhw:sqldb:repo.index_virtual_forupdate.adoc[]" as repo.Index_virtual_ForUpdate << V >> {
  --
}

entity "puml-link:dhw:sqldb:repo.indexcolumn_referencedreferencing_hasfullcolumnsinreferencing.adoc[]" as repo.IndexColumn_ReferencedReferencing_HasFullColumnsInReferencing << V >> {
  - **index_guid** : (uniqueidentifier)
  - **index_column_id** : (int)
  **RowNumberInReferencing** : (bigint)
  --
}

entity "puml-link:dhw:sqldb:repo.indexcolumn_referencedreferencing_hasfullcolumnsinreferencing_check.adoc[]" as repo.IndexColumn_ReferencedReferencing_HasFullColumnsInReferencing_check << V >> {
  --
}

entity "puml-link:dhw:sqldb:repo.indexcolumn_referencedreferencing_hasfullcolumnsinreferencing_t.adoc[]" as repo.IndexColumn_ReferencedReferencing_HasFullColumnsInReferencing_T << U >> {
  **index_guid** : (uniqueidentifier)
  - **index_column_id** : (int)
  **RowNumberInReferencing** : (bigint)
  --
}

entity "puml-link:dhw:sqldb:repo.indexcolumn_virtual_referenced_setpoint.adoc[]" as repo.IndexColumn_virtual_referenced_setpoint << V >> {
  - **index_guid** : (uniqueidentifier)
  - **index_column_id** : (int)
  --
}

entity "puml-link:dhw:sqldb:repo.indexreferencedreferencing.adoc[]" as repo.IndexReferencedReferencing << V >> {
  --
}

entity "puml-link:dhw:sqldb:repo.indexreferencedreferencing_hasfullcolumnsinreferencing.adoc[]" as repo.IndexReferencedReferencing_HasFullColumnsInReferencing << V >> {
  --
}

entity "puml-link:dhw:sqldb:repo.repoobject_columnlist.adoc[]" as repo.RepoObject_ColumnList << V >> {
  --
}

entity "puml-link:dhw:sqldb:repo.repoobject_gross.adoc[]" as repo.RepoObject_gross << V >> {
  --
}

entity "puml-link:dhw:sqldb:repo.repoobject_gross2.adoc[]" as repo.RepoObject_gross2 << V >> {
  --
}

entity "puml-link:dhw:sqldb:repo.repoobject_related_fk_union.adoc[]" as repo.RepoObject_related_FK_union << V >> {
  **RepoObject_guid** : (uniqueidentifier)
  **included_RepoObject_guid** : (uniqueidentifier)
  --
}

entity "puml-link:dhw:sqldb:repo.repoobject_sat2.adoc[]" as repo.RepoObject_sat2 << V >> {
  - **RepoObject_guid** : (uniqueidentifier)
  --
}

entity "puml-link:dhw:sqldb:repo.repoobject_sat2_t.adoc[]" as repo.RepoObject_sat2_T << U >> {
  - **RepoObject_guid** : (uniqueidentifier)
  --
}

entity "puml-link:dhw:sqldb:repo.repoobject_sqlcreatetable.adoc[]" as repo.RepoObject_SqlCreateTable << V >> {
  - **RepoObject_guid** : (uniqueidentifier)
  --
}

entity "puml-link:dhw:sqldb:repo.repoobject_wo_referencing.adoc[]" as repo.RepoObject_wo_referencing << V >> {
  --
}

entity "puml-link:dhw:sqldb:repo.repoobjectcolumn_gross2.adoc[]" as repo.RepoObjectColumn_gross2 << V >> {
  --
}

entity "puml-link:dhw:sqldb:repo.repoobjectcolumn_missingsource_typev.adoc[]" as repo.RepoObjectColumn_MissingSource_TypeV << V >> {
  --
}

entity "puml-link:dhw:sqldb:repo.usp_index_finish.adoc[]" as repo.usp_Index_finish << P >> {
  --
}

entity "puml-link:dhw:sqldb:repo.usp_index_foreignkey.adoc[]" as repo.usp_Index_ForeignKey << P >> {
  --
}

entity "puml-link:dhw:sqldb:repo.usp_index_inheritance.adoc[]" as repo.usp_index_inheritance << P >> {
  --
}

entity "puml-link:dhw:sqldb:repo.usp_index_virtual_set.adoc[]" as repo.usp_Index_virtual_set << P >> {
  --
}

entity "puml-link:dhw:sqldb:repo.usp_main.adoc[]" as repo.usp_main << P >> {
  --
}

entity "puml-link:dhw:sqldb:repo.usp_persist_foreignkey_indexes_union_t.adoc[]" as repo.usp_PERSIST_ForeignKey_Indexes_union_T << P >> {
  --
}

entity "puml-link:dhw:sqldb:repo.usp_persist_indexcolumn_referencedreferencing_hasfullcolumnsinreferencing_t.adoc[]" as repo.usp_PERSIST_IndexColumn_ReferencedReferencing_HasFullColumnsInReferencing_T << P >> {
  --
}

entity "puml-link:dhw:sqldb:repo.usp_persist_repoobject_sat2_t.adoc[]" as repo.usp_PERSIST_RepoObject_sat2_T << P >> {
  --
}

entity "puml-link:dhw:sqldb:uspgenerator.generatoruspstep_persistence_isinactive_setpoint.adoc[]" as uspgenerator.GeneratorUspStep_Persistence_IsInactive_setpoint << V >> {
  - **usp_id** : (int)
  --
}

entity "puml-link:dhw:sqldb:uspgenerator.generatoruspstep_persistence_src.adoc[]" as uspgenerator.GeneratorUspStep_Persistence_src << V >> {
  - **usp_id** : (int)
  --
}

entity "puml-link:dhw:sqldb:uspgenerator.usp_generatorusp_insert_update_persistence.adoc[]" as uspgenerator.usp_GeneratorUsp_insert_update_persistence << P >> {
  --
}

entity "puml-link:dhw:sqldb:workflow.biml_package.adoc[]" as workflow.Biml_Package << V >> {
  --
}

entity "puml-link:dhw:sqldb:workflow.biml_precedenceconstraints.adoc[]" as workflow.Biml_PrecedenceConstraints << V >> {
  --
}

entity "puml-link:dhw:sqldb:workflow.biml_project.adoc[]" as workflow.Biml_Project << V >> {
  --
}

entity "puml-link:dhw:sqldb:workflow.biml_task.adoc[]" as workflow.Biml_Task << V >> {
  --
}

entity "puml-link:dhw:sqldb:workflow.proceduredependency.adoc[]" as workflow.ProcedureDependency << U >> {
  - **id** : (int)
  --
}

entity "puml-link:dhw:sqldb:workflow.proceduredependency_gross.adoc[]" as workflow.ProcedureDependency_gross << V >> {
  --
}

entity "puml-link:dhw:sqldb:workflow.proceduredependency_input_persistencedependency.adoc[]" as workflow.ProcedureDependency_input_PersistenceDependency << V >> {
  **referenced_Procedure_RepoObject_guid** : (uniqueidentifier)
  **referencing_Procedure_RepoObject_guid** : (uniqueidentifier)
  --
}

entity "puml-link:dhw:sqldb:workflow.proceduredependency_input_persistencedependency_s.adoc[]" as workflow.ProcedureDependency_input_PersistenceDependency_S << V >> {
  **referenced_Procedure_RepoObject_guid** : (uniqueidentifier)
  **referencing_Procedure_RepoObject_guid** : (uniqueidentifier)
  --
}

entity "puml-link:dhw:sqldb:workflow.usp_persist_proceduredependency_input_persistencedependency.adoc[]" as workflow.usp_PERSIST_ProcedureDependency_input_PersistenceDependency << P >> {
  --
}

entity "puml-link:dhw:sqldb:workflow.usp_persist_workflow_proceduredependency_t.adoc[]" as workflow.usp_PERSIST_Workflow_ProcedureDependency_T << P >> {
  --
}

entity "puml-link:dhw:sqldb:workflow.usp_persist_workflowstep.adoc[]" as workflow.usp_PERSIST_WorkflowStep << P >> {
  --
}

entity "puml-link:dhw:sqldb:workflow.usp_workflow.adoc[]" as workflow.usp_workflow << P >> {
  --
}

entity "puml-link:dhw:sqldb:workflow.workflow_proceduredependency.adoc[]" as workflow.Workflow_ProcedureDependency << V >> {
  --
}

entity "puml-link:dhw:sqldb:workflow.workflow_proceduredependency_all.adoc[]" as workflow.Workflow_ProcedureDependency_all << V >> {
  --
}

entity "puml-link:dhw:sqldb:workflow.workflow_proceduredependency_t.adoc[]" as workflow.Workflow_ProcedureDependency_T << U >> {
  - **Workflow_id** : (int)
  - **referenced_Procedure_RepoObject_guid** : (uniqueidentifier)
  - **referencing_Procedure_RepoObject_guid** : (uniqueidentifier)
  --
}

entity "puml-link:dhw:sqldb:workflow.workflow_proceduredependency_t_active.adoc[]" as workflow.Workflow_ProcedureDependency_T_active << V >> {
  --
}

entity "puml-link:dhw:sqldb:workflow.workflow_proceduredependency_t_bidirectional.adoc[]" as workflow.Workflow_ProcedureDependency_T_bidirectional << V >> {
  --
}

entity "puml-link:dhw:sqldb:workflow.workflow_proceduredependency_t_bidirectional_t.adoc[]" as workflow.Workflow_ProcedureDependency_T_bidirectional_T << U >> {
  - **Workflow_id** : (int)
  - **referenced_Procedure_RepoObject_guid** : (uniqueidentifier)
  - **referencing_Procedure_RepoObject_guid** : (uniqueidentifier)
  --
}

entity "puml-link:dhw:sqldb:workflow.workflow_proceduredependency_t_notinsortorder.adoc[]" as workflow.Workflow_ProcedureDependency_T_NotInSortorder << V >> {
  --
}

entity "puml-link:dhw:sqldb:workflow.workflow_proceduredependency_t_notinsortorder_check.adoc[]" as workflow.Workflow_ProcedureDependency_T_NotInSortorder_check << V >> {
  --
}

entity "puml-link:dhw:sqldb:workflow.workflow_proceduredependency_t_redundant.adoc[]" as workflow.Workflow_ProcedureDependency_T_redundant << V >> {
  --
}

entity "puml-link:dhw:sqldb:workflow.workflow_proceduredependency_t_taskname.adoc[]" as workflow.Workflow_ProcedureDependency_T_TaskName << V >> {
  --
}

entity "puml-link:dhw:sqldb:workflow.workflow_proceduredependency_wo_redundant.adoc[]" as workflow.Workflow_ProcedureDependency_wo_redundant << V >> {
  --
}

entity "puml-link:dhw:sqldb:workflow.workflowstep.adoc[]" as workflow.WorkflowStep << U >> {
  - **id** : (int)
  --
}

entity "puml-link:dhw:sqldb:workflow.workflowstep_active.adoc[]" as workflow.WorkflowStep_active << V >> {
  --
}

entity "puml-link:dhw:sqldb:workflow.workflowstep_forupdate.adoc[]" as workflow.WorkflowStep_ForUpdate << V >> {
  --
}

entity "puml-link:dhw:sqldb:workflow.workflowstep_s.adoc[]" as workflow.WorkflowStep_S << V >> {
  - **Workflow_id** : (int)
  **Procedure_RepoObject_guid** : (uniqueidentifier)
  --
}

docs.AntoraIndexSemanticgroup <.. docs.AntoraPage_IndexSemanticGroup
docs.AntoraIndexSemanticgroupPatterndatatype <.. docs.AntoraIndexSemanticgroup
docs.AntoraNavListPage_by_type <.. docs.usp_AntoraExport_ObjectNavigation
docs.AntoraNavListRepoObject_by_schema <.. docs.AntoraPage_ObjectBySchema
docs.AntoraNavListRepoObject_by_schema <.. docs.usp_AntoraExport_ObjectNavigation
docs.AntoraNavListRepoObject_by_schema_type <.. docs.usp_AntoraExport_ObjectNavigation
docs.AntoraNavListRepoObject_by_type <.. docs.usp_AntoraExport_ObjectNavigation
docs.AntoraNavListRepoObject_by_type <.. docs.AntoraPage_ObjectByType
docs.ftv_RepoObject_Reference_PlantUml_EntityRefList <.. docs.RepoObject_Plantuml
docs.ObjectRefCyclic_EntityList <.. docs.ObjectRefCyclic
docs.ObjectRefCyclic_ObjectRefList <.. docs.ObjectRefCyclic
docs.RepoObject_Adoc <.. docs.usp_PERSIST_RepoObject_Adoc_T
docs.RepoObject_Adoc <.. docs.RepoObject_Adoc_T
docs.REpoObject_Adoc_T <.. docs.usp_PERSIST_RepoObject_Adoc_T
docs.RepoObject_AntoraXrefCulturesList <.. docs.RepoObject_Adoc
docs.RepoObject_ColumnList <.. docs.usp_PERSIST_RepoObject_ColumnList_T
docs.RepoObject_ColumnList <.. docs.RepoObject_ColumnList_T
docs.RepoObject_ColumnList_T <.. docs.usp_PERSIST_RepoObject_ColumnList_T
docs.RepoObject_ColumnList_T <.. docs.RepoObject_Adoc
docs.RepoObject_ColumnList_T <.. docs.RepoObject_Plantuml_Entity
docs.RepoObject_IndexList <.. docs.RepoObject_IndexList_T
docs.RepoObject_IndexList <.. docs.usp_PERSIST_RepoObject_IndexList_T
docs.RepoObject_IndexList_T <.. docs.usp_PERSIST_RepoObject_IndexList_T
docs.RepoObject_IndexList_T <.. docs.RepoObject_Plantuml_Entity
docs.RepoObject_IndexList_T <.. docs.RepoObject_Adoc
docs.RepoObject_MeasureList <.. docs.RepoObject_Adoc
docs.RepoObject_MeasureList <.. docs.RepoObject_Plantuml_Entity
docs.RepoObject_OutputFilter <.. docs.RepoObject_OutputFilter_T
docs.RepoObject_OutputFilter <.. docs.usp_PERSIST_RepoObject_OutputFilter_T
docs.RepoObject_OutputFilter_T <.. docs.RepoObject_AntoraXrefCulturesList
docs.RepoObject_OutputFilter_T <.. docs.usp_PERSIST_RepoObject_OutputFilter_T
docs.RepoObject_OutputFilter_T <.. docs.RepoObject_MeasureList
docs.RepoObject_OutputFilter_T <.. docs.Unit_1_union
docs.RepoObject_OutputFilter_T <.. docs.Schema_SsasRelationList
docs.RepoObject_OutputFilter_T <.. docs.Schema_puml
docs.RepoObject_OutputFilter_T <.. docs.RepoObject_Plantuml_ColRefList_1_1
docs.RepoObject_OutputFilter_T <.. docs.AntoraNavListPage_by_schema
docs.RepoObject_OutputFilter_T <.. docs.AntoraIndexSemanticgroupPatterndatatype
docs.RepoObject_OutputFilter_T <.. docs.AntoraNavListPage_by_type
docs.RepoObject_OutputFilter_T <.. docs.RepoObject_IndexList
docs.RepoObject_OutputFilter_T <.. docs.usp_AntoraExport_ObjectPuml
docs.RepoObject_OutputFilter_T <.. docs.RepoObject_Plantuml
docs.RepoObject_OutputFilter_T <.. docs.RepoObject_Plantuml_Entity
docs.RepoObject_OutputFilter_T <.. docs.RepoObject_ColumnList
docs.RepoObject_OutputFilter_T <.. docs.AntoraNavListRepoObject_by_schema_type
docs.RepoObject_OutputFilter_T <.. docs.AntoraNavListRepoObject_by_schema
docs.RepoObject_OutputFilter_T <.. docs.AntoraNavListRepoObject_by_type
docs.RepoObject_OutputFilter_T <.. docs.usp_AntoraExport_ObjectPage
docs.RepoObject_OutputFilter_T <.. docs.usp_AntoraExport_ObjectPartialProperties
docs.RepoObject_OutputFilter_T <.. docs.RepoObject_Adoc
docs.RepoObject_Plantuml <.. docs.usp_PERSIST_RepoObject_Plantuml_T
docs.RepoObject_Plantuml <.. docs.RepoObject_Plantuml_T
docs.RepoObject_Plantuml_ColRefList_1_1 <.. docs.RepoObject_Plantuml
docs.RepoObject_Plantuml_Entity <.. docs.RepoObject_Plantuml_Entity_T
docs.RepoObject_Plantuml_Entity <.. docs.usp_PERSIST_RepoObject_Plantuml_Entity_T
docs.RepoObject_Plantuml_Entity_T <.. docs.ObjectRefCyclic_EntityList
docs.RepoObject_Plantuml_Entity_T <.. docs.RepoObject_PlantUml_PumlEntityFkList
docs.RepoObject_Plantuml_Entity_T <.. docs.ftv_RepoObject_Reference_PlantUml_EntityRefList
docs.RepoObject_Plantuml_Entity_T <.. docs.usp_PERSIST_RepoObject_Plantuml_Entity_T
docs.RepoObject_Plantuml_Entity_T <.. docs.Schema_EntityList
docs.RepoObject_PlantUml_FkRefList <.. docs.RepoObject_Plantuml
docs.RepoObject_Plantuml_ObjectRefList_0_30 <.. docs.RepoObject_Plantuml
docs.RepoObject_Plantuml_ObjectRefList_1_1 <.. docs.RepoObject_Plantuml
docs.RepoObject_Plantuml_ObjectRefList_30_0 <.. docs.RepoObject_Plantuml
docs.RepoObject_PlantUml_PumlEntityFkList <.. docs.RepoObject_Plantuml
docs.RepoObject_Plantuml_T <.. docs.usp_PERSIST_RepoObject_Plantuml_T
docs.Schema_EntityList <.. docs.Schema_puml
docs.Schema_puml <.. docs.usp_AntoraExport_ObjectPuml
docs.Schema_PumlPartial_FkRefList <.. docs.Schema_puml
docs.Schema_SsasRelationList <.. docs.Schema_puml
docs.Unit_1_union <.. docs.Unit_2
docs.Unit_2 <.. docs.Unit_3
docs.Unit_3 <.. dmdocs.unit
docs.usp_AntoraExport_ObjectNavigation <.. docs.usp_AntoraExport
docs.usp_AntoraExport_ObjectPage <.. docs.usp_AntoraExport
docs.usp_AntoraExport_ObjectPartialProperties <.. docs.usp_AntoraExport
docs.usp_AntoraExport_ObjectPuml <.. docs.usp_AntoraExport
docs.usp_PERSIST_RepoObject_Adoc_T <.. docs.usp_AntoraExport_ObjectPartialProperties
docs.usp_PERSIST_RepoObject_ColumnList_T <.. docs.usp_AntoraExport_ObjectPartialProperties
docs.usp_PERSIST_RepoObject_IndexList_T <.. docs.usp_AntoraExport_ObjectPartialProperties
docs.usp_PERSIST_RepoObject_OutputFilter_T <.. docs.usp_AntoraExport
docs.usp_PERSIST_RepoObject_Plantuml_Entity_T <.. docs.usp_AntoraExport_ObjectPuml
docs.usp_PERSIST_RepoObject_Plantuml_T <.. docs.usp_AntoraExport_ObjectPuml
property.RepoObjectProperty_Collect_source_ROGross <.. property.usp_RepoObjectProperty_collect
property.usp_external_property_import <.. repo.usp_main
property.usp_RepoObject_Inheritance <.. repo.usp_main
property.usp_RepoObjectProperty_collect <.. property.usp_RepoObject_Inheritance
property.usp_RepoObjectProperty_collect <.. repo.usp_main
reference.additional_Reference_database_T <.. property.usp_external_property_import
reference.additional_Reference_database_T <.. reference.usp_PERSIST_additional_Reference_database_T
reference.additional_Reference_database_T <.. property.usp_external_RepoObjectProperty
reference.additional_Reference_database_T <.. repo.RepoObject_gross
reference.ftv_RepoObject_ReferenceTree <.. reference.RepoObject_ReferenceTree_30_0
reference.ftv_RepoObject_ReferenceTree <.. reference.RepoObject_ReferenceTree_0_30
reference.ftv_RepoObject_ReferenceTree_referenced <.. reference.RepoObject_ReferenceTree_referenced_30_0
reference.ftv_RepoObject_ReferenceTree_referenced <.. reference.RepoObject_ReferenceTree_referenced
reference.ftv_RepoObject_ReferenceTree_referencing <.. reference.RepoObject_ReferenceTree_referencing_0_30
reference.ftv_RepoObject_ReferenceTree_referencing <.. reference.RepoObject_ReferenceTree_referencing
reference.ftv_RepoObjectColumn_ReferenceTree <.. reference.RepoObjectColumn_ReferenceTree
reference.Persistence <.. workflow.ProcedureDependency_input_PersistenceDependency_S
reference.Persistence <.. reference.Persistence_bidirectional
reference.ReferenceTree_cyclic_ref_PersistenceUsp <.. reference.ReferenceTree_cyclic_union
reference.ReferenceTree_cyclic_union <.. docs.ObjectRefCyclic_ObjectRefList
reference.ReferenceTree_cyclic_union <.. docs.ObjectRefCyclic_EntityList
reference.RepoObject_reference <.. reference.RepoObject_reference_T
reference.RepoObject_reference <.. reference.usp_PERSIST_RepoObject_reference_T
reference.RepoObject_reference_persistence_target_as_source <.. reference.RepoObject_reference_union
reference.RepoObject_reference_persistence_target_as_source <.. repo.usp_main
reference.RepoObject_reference_T <.. reference.RepoObjectColumn_reference_additional
reference.RepoObject_reference_T <.. reference.RepoObject_reference_T_bidirectional
reference.RepoObject_reference_T <.. reference.ReferenceTree_cyclic_ref_PersistenceUsp
reference.RepoObject_reference_T <.. repo.RepoObject_wo_referencing
reference.RepoObject_reference_T <.. reference.RepoObjectColumn_reference_additional_internal
reference.RepoObject_reference_T <.. reference.RepoObjectColumn_reference_BySamePredecessors
reference.RepoObject_reference_T <.. repo.usp_main
reference.RepoObject_reference_T <.. reference.RepoObject_ReferencedReferencing
reference.RepoObject_reference_T <.. docs.RepoObject_Plantuml_ObjectRefList_0_30
reference.RepoObject_reference_T <.. docs.RepoObject_Plantuml_ObjectRefList_30_0
reference.RepoObject_reference_T <.. reference.RepoObjectColumn_reference_virtual
reference.RepoObject_reference_T <.. reference.usp_PERSIST_RepoObject_reference_T
reference.RepoObject_reference_T <.. docs.RepoObject_Plantuml_ObjectRefList_1_1
reference.RepoObject_reference_T <.. reference.RepoObjectColumn_reference_SqlExpressionDependencies
reference.RepoObject_reference_T <.. repo.IndexReferencedReferencing
reference.RepoObject_reference_T <.. reference.RepoObjectColumn_reference_FirstResultSet
reference.RepoObject_reference_T <.. reference.RepoObjectColumn_reference_QueryPlan
reference.RepoObject_reference_union <.. reference.RepoObject_reference
reference.RepoObject_ReferencedList <.. repo.RepoObject_sat2
reference.RepoObject_ReferencedList <.. repo.RepoObject_gross2
reference.RepoObject_ReferencedReferencing <.. reference.ftv_RepoObject_ReferenceTree_referencing
reference.RepoObject_ReferencedReferencing <.. reference.usp_RepoObject_ReferenceTree_insert
reference.RepoObject_ReferencedReferencing <.. reference.ftv_RepoObject_ReferenceTree
reference.RepoObject_ReferencedReferencing <.. reference.RepoObject_ReferencedList
reference.RepoObject_ReferencedReferencing <.. reference.RepoObject_ReferencingList
reference.RepoObject_ReferencedReferencing <.. reference.ftv_RepoObject_ReferenceTree_referenced
reference.RepoObject_ReferencedReferencing <.. repo.RepoObject_gross
reference.RepoObject_ReferencedReferencing <.. reference.ftv_RepoObject_ReferenceTree_via_fullname
reference.RepoObject_ReferenceTree_0_30 <.. reference.RepoObject_ReferenceTree_0_30_T
reference.RepoObject_ReferenceTree_0_30 <.. reference.usp_PERSIST_RepoObject_ReferenceTree_0_30_T
reference.RepoObject_ReferenceTree_0_30_T <.. reference.usp_PERSIST_RepoObject_ReferenceTree_0_30_T
reference.RepoObject_ReferenceTree_30_0 <.. reference.RepoObject_ReferenceTree_30_0_T
reference.RepoObject_ReferenceTree_30_0 <.. reference.usp_PERSIST_RepoObject_ReferenceTree_30_0_T
reference.RepoObject_ReferenceTree_30_0_T <.. reference.usp_PERSIST_RepoObject_ReferenceTree_30_0_T
reference.RepoObject_ReferencingList <.. repo.RepoObject_sat2
reference.RepoObject_ReferencingList <.. repo.RepoObject_gross2
reference.RepoObjectColumn_reference <.. reference.usp_PERSIST_RepoObjectColumn_reference_T
reference.RepoObjectColumn_reference <.. reference.RepoObjectColumn_reference_T
reference.RepoObjectColumn_reference_additional <.. reference.RepoObjectColumn_reference_union
reference.RepoObjectColumn_reference_FirstResultSet <.. reference.RepoObjectColumn_reference_BySamePredecessors
reference.RepoObjectColumn_reference_QueryPlan <.. reference.SysObjectColumn_QueryPlanExpression
reference.RepoObjectColumn_reference_SqlExpressionDependencies <.. reference.RepoObjectColumn_reference_union
reference.RepoObjectColumn_reference_T <.. reference.RepoObjectColumn_RelationScript
reference.RepoObjectColumn_reference_T <.. reference.RepoObjectColumn_ReferencedReferencing
reference.RepoObjectColumn_reference_T <.. reference.usp_PERSIST_RepoObjectColumn_reference_T
reference.RepoObjectColumn_reference_T <.. docs.RepoObject_Plantuml_ColRefList_1_1
reference.RepoObjectColumn_reference_T <.. repo.IndexColumn_ReferencedReferencing_HasFullColumnsInReferencing
reference.RepoObjectColumn_reference_T <.. repo.RepoObjectColumn_MissingSource_TypeV
reference.RepoObjectColumn_reference_union <.. reference.RepoObjectColumn_reference
reference.RepoObjectColumn_reference_virtual <.. reference.RepoObjectColumn_reference_union
reference.RepoObjectColumn_ReferencedList <.. repo.RepoObjectColumn_gross2
reference.RepoObjectColumn_ReferencedReferencing <.. reference.RepoObjectColumn_ReferencingList
reference.RepoObjectColumn_ReferencedReferencing <.. reference.ftv_RepoObjectColumn_ReferenceTree
reference.RepoObjectColumn_ReferencedReferencing <.. reference.ftv_RepoObject_DbmlColumnRelation
reference.RepoObjectColumn_ReferencedReferencing <.. reference.RepoObjectColumn_ReferencedList
reference.RepoObjectColumn_ReferenceTree <.. reference.ftv_RepoObject_ColumReferenceRepoObject
reference.RepoObjectColumn_ReferencingList <.. repo.RepoObjectColumn_gross2
reference.RepoObjectColumn_RelationScript <.. reference.ftv_RepoObject_ColumReferenceRepoObject
reference.SysObjectColumn_QueryPlanExpression <.. reference.usp_RepoObjectSource_QueryPlan
reference.usp_additional_Reference <.. repo.usp_main
reference.usp_additional_Reference <.. property.usp_external_property_import
reference.usp_PERSIST_additional_Reference_database_T <.. reference.usp_additional_Reference
reference.usp_PERSIST_RepoObject_reference_T <.. repo.usp_main
reference.usp_PERSIST_RepoObject_ReferenceTree_0_30_T <.. reference.usp_RepoObject_ReferenceTree
reference.usp_PERSIST_RepoObject_ReferenceTree_30_0_T <.. reference.usp_RepoObject_ReferenceTree
reference.usp_PERSIST_RepoObjectColumn_reference_T <.. repo.usp_main
reference.usp_RepoObject_ReferenceTree_insert <.. repo.usp_main
reference.usp_RepoObject_update_SysObjectQueryPlan <.. repo.usp_main
reference.usp_RepoObjectSource_FirstResultSet <.. repo.usp_main
reference.usp_RepoObjectSource_QueryPlan <.. repo.usp_main
repo.ForeignKey_gross <.. docs.RepoObject_IndexList
repo.ForeignKey_Indexes <.. repo.usp_Index_ForeignKey
repo.ForeignKey_Indexes <.. repo.ForeignKey_Indexes_union
repo.ForeignKey_Indexes_union <.. repo.usp_PERSIST_ForeignKey_Indexes_union_T
repo.ForeignKey_Indexes_union <.. repo.ForeignKey_Indexes_union_T
repo.ForeignKey_Indexes_union_T <.. repo.usp_Index_finish
repo.ForeignKey_Indexes_union_T <.. repo.usp_PERSIST_ForeignKey_Indexes_union_T
repo.ForeignKey_Indexes_union_T <.. docs.Schema_PumlPartial_FkRefList
repo.ForeignKey_Indexes_union_T <.. docs.ForeignKey_RelationScript
repo.ForeignKey_Indexes_union_T <.. repo.ForeignKey_gross
repo.ForeignKey_Indexes_union_T <.. repo.RepoObject_related_FK_union
repo.ForeignKey_Indexes_union_T <.. docs.RepoObject_PlantUml_FkRefList
repo.ForeignKey_virtual_Indexes <.. repo.ForeignKey_Indexes_union
repo.Index_gross <.. repo.usp_index_inheritance
repo.Index_gross <.. repo.usp_Index_virtual_set
repo.Index_gross <.. repo.ForeignKey_Indexes
repo.Index_gross <.. repo.ForeignKey_virtual_Indexes
repo.Index_gross <.. repo.usp_Index_finish
repo.Index_gross <.. docs.RepoObject_IndexList
repo.Index_gross <.. docs.AntoraIndexSemanticgroupPatterndatatype
repo.Index_gross <.. repo.ForeignKey_gross
repo.Index_gross <.. repo.RepoObject_SqlCreateTable
repo.Index_referencing_IndexPatternColumnGuid <.. repo.IndexReferencedReferencing_HasFullColumnsInReferencing
repo.Index_virtual_ForUpdate <.. repo.usp_index_inheritance
repo.IndexColumn_ReferencedReferencing_HasFullColumnsInReferencing <.. repo.IndexColumn_ReferencedReferencing_HasFullColumnsInReferencing_T
repo.IndexColumn_ReferencedReferencing_HasFullColumnsInReferencing <.. repo.usp_PERSIST_IndexColumn_ReferencedReferencing_HasFullColumnsInReferencing_T
repo.IndexColumn_ReferencedReferencing_HasFullColumnsInReferencing_T <.. repo.IndexColumn_ReferencedReferencing_HasFullColumnsInReferencing_check
repo.IndexColumn_ReferencedReferencing_HasFullColumnsInReferencing_T <.. repo.IndexColumn_virtual_referenced_setpoint
repo.IndexColumn_ReferencedReferencing_HasFullColumnsInReferencing_T <.. repo.IndexReferencedReferencing_HasFullColumnsInReferencing
repo.IndexColumn_ReferencedReferencing_HasFullColumnsInReferencing_T <.. repo.Index_referencing_IndexPatternColumnGuid
repo.IndexColumn_ReferencedReferencing_HasFullColumnsInReferencing_T <.. repo.usp_PERSIST_IndexColumn_ReferencedReferencing_HasFullColumnsInReferencing_T
repo.IndexColumn_virtual_referenced_setpoint <.. repo.check_IndexColumn_virtual_referenced_setpoint
repo.IndexColumn_virtual_referenced_setpoint <.. repo.usp_index_inheritance
repo.IndexReferencedReferencing <.. repo.IndexReferencedReferencing_HasFullColumnsInReferencing
repo.IndexReferencedReferencing_HasFullColumnsInReferencing <.. repo.usp_index_inheritance
repo.RepoObject_ColumnList <.. repo.RepoObject_SqlCreateTable
repo.RepoObject_ColumnList <.. repo.RepoObject_gross2
repo.RepoObject_ColumnList <.. repo.RepoObject_sat2
repo.RepoObject_gross <.. repo.RepoObject_SqlCreateTable
repo.RepoObject_gross <.. uspgenerator.GeneratorUspStep_Persistence_IsInactive_setpoint
repo.RepoObject_gross <.. uspgenerator.GeneratorUspStep_Persistence_src
repo.RepoObject_gross <.. repo.Index_gross
repo.RepoObject_gross <.. reference.usp_RepoObjectSource_QueryPlan
repo.RepoObject_gross <.. reference.usp_RepoObjectSource_FirstResultSet
repo.RepoObject_gross <.. reference.usp_RepoObject_update_SysObjectQueryPlan
repo.RepoObject_gross <.. uspgenerator.usp_GeneratorUsp_insert_update_persistence
repo.RepoObject_gross <.. docs.RepoObject_Adoc
repo.RepoObject_gross <.. docs.RepoObject_OutputFilter
repo.RepoObject_gross <.. docs.RepoObject_Plantuml
repo.RepoObject_gross <.. repo.Index_virtual_ForUpdate
repo.RepoObject_gross <.. reference.RepoObject_ReferenceTree_referenced
repo.RepoObject_gross <.. reference.RepoObject_ReferenceTree_referencing
repo.RepoObject_gross <.. property.RepoObjectProperty_Collect_source_ROGross
repo.RepoObject_gross <.. reference.RepoObject_ReferenceTree_referenced_30_0
repo.RepoObject_gross <.. reference.RepoObject_ReferenceTree_referencing_0_30
repo.RepoObject_gross <.. reference.RepoObject_ReferenceTree_0_30
repo.RepoObject_gross <.. reference.RepoObject_ReferenceTree_30_0
repo.RepoObject_gross <.. reference.Persistence
repo.RepoObject_gross <.. reference.RepoObject_reference_persistence_target_as_source
repo.RepoObject_gross <.. workflow.WorkflowStep_S
repo.RepoObject_gross <.. repo.RepoObject_gross2
repo.RepoObject_gross <.. docs.Unit_1_union
repo.RepoObject_gross <.. repo.RepoObject_sat2
repo.RepoObject_gross2 <.. uspgenerator.GeneratorUspStep_Persistence_src
repo.RepoObject_related_FK_union <.. docs.RepoObject_PlantUml_PumlEntityFkList
repo.RepoObject_related_FK_union <.. docs.RepoObject_PlantUml_FkRefList
repo.RepoObject_sat2 <.. repo.RepoObject_sat2_T
repo.RepoObject_sat2 <.. repo.usp_PERSIST_RepoObject_sat2_T
repo.RepoObject_sat2_T <.. uspgenerator.GeneratorUspStep_Persistence_src
repo.RepoObject_sat2_T <.. repo.usp_PERSIST_RepoObject_sat2_T
repo.RepoObject_sat2_T <.. property.RepoObjectProperty_Collect_source_ROGross
repo.RepoObject_sat2_T <.. docs.RepoObject_Adoc
repo.RepoObject_SqlCreateTable <.. reference.ftv_RepoObject_ColumReferenceRepoObject
repo.RepoObjectColumn_gross2 <.. uspgenerator.usp_GeneratorUsp_insert_update_persistence
repo.RepoObjectColumn_gross2 <.. repo.RepoObject_ColumnList
repo.RepoObjectColumn_gross2 <.. docs.RepoObject_ColumnList
repo.usp_Index_finish <.. repo.usp_Index_ForeignKey
repo.usp_Index_finish <.. repo.usp_index_inheritance
repo.usp_Index_ForeignKey <.. repo.usp_main
repo.usp_index_inheritance <.. repo.usp_main
repo.usp_Index_virtual_set <.. repo.usp_Index_ForeignKey
repo.usp_PERSIST_ForeignKey_Indexes_union_T <.. repo.usp_Index_ForeignKey
repo.usp_PERSIST_IndexColumn_ReferencedReferencing_HasFullColumnsInReferencing_T <.. repo.usp_index_inheritance
repo.usp_PERSIST_RepoObject_sat2_T <.. repo.usp_main
uspgenerator.GeneratorUspStep_Persistence_IsInactive_setpoint <.. uspgenerator.usp_GeneratorUsp_insert_update_persistence
uspgenerator.GeneratorUspStep_Persistence_src <.. uspgenerator.usp_GeneratorUsp_insert_update_persistence
uspgenerator.usp_GeneratorUsp_insert_update_persistence <.. repo.usp_main
workflow.Biml_Package <.. workflow.Biml_Project
workflow.Biml_PrecedenceConstraints <.. workflow.Biml_Task
workflow.Biml_Task <.. workflow.Biml_Package
workflow.ProcedureDependency <.. workflow.Workflow_ProcedureDependency
workflow.ProcedureDependency <.. workflow.Workflow_ProcedureDependency_all
workflow.ProcedureDependency <.. workflow.ProcedureDependency_input_PersistenceDependency
workflow.ProcedureDependency <.. workflow.ProcedureDependency_gross
workflow.ProcedureDependency_input_PersistenceDependency <.. workflow.ProcedureDependency
workflow.ProcedureDependency_input_PersistenceDependency <.. workflow.usp_PERSIST_ProcedureDependency_input_PersistenceDependency
workflow.ProcedureDependency_input_PersistenceDependency_S <.. workflow.ProcedureDependency_input_PersistenceDependency
workflow.ProcedureDependency_input_PersistenceDependency_S <.. workflow.usp_PERSIST_ProcedureDependency_input_PersistenceDependency
workflow.usp_PERSIST_ProcedureDependency_input_PersistenceDependency <.. workflow.usp_workflow
workflow.usp_PERSIST_Workflow_ProcedureDependency_T <.. workflow.usp_workflow
workflow.usp_PERSIST_WorkflowStep <.. workflow.usp_workflow
workflow.Workflow_ProcedureDependency <.. workflow.Workflow_ProcedureDependency_T
workflow.Workflow_ProcedureDependency <.. workflow.usp_PERSIST_Workflow_ProcedureDependency_T
workflow.Workflow_ProcedureDependency_all <.. workflow.Workflow_ProcedureDependency_wo_redundant
workflow.Workflow_ProcedureDependency_T <.. workflow.usp_workflow
workflow.Workflow_ProcedureDependency_T <.. workflow.Workflow_ProcedureDependency_T_active
workflow.Workflow_ProcedureDependency_T <.. workflow.usp_PERSIST_Workflow_ProcedureDependency_T
workflow.Workflow_ProcedureDependency_T <.. workflow.Workflow_ProcedureDependency_T_bidirectional
workflow.Workflow_ProcedureDependency_T_active <.. workflow.Workflow_ProcedureDependency_T_redundant
workflow.Workflow_ProcedureDependency_T_active <.. workflow.Workflow_ProcedureDependency_T_TaskName
workflow.Workflow_ProcedureDependency_T_active <.. workflow.Workflow_ProcedureDependency_T_NotInSortorder
workflow.Workflow_ProcedureDependency_T_bidirectional <.. workflow.Workflow_ProcedureDependency_T_bidirectional_T
workflow.Workflow_ProcedureDependency_T_NotInSortorder <.. workflow.usp_workflow
workflow.Workflow_ProcedureDependency_T_NotInSortorder <.. workflow.Workflow_ProcedureDependency_T_NotInSortorder_check
workflow.Workflow_ProcedureDependency_T_redundant <.. workflow.usp_workflow
workflow.Workflow_ProcedureDependency_T_redundant <.. workflow.Workflow_ProcedureDependency_wo_redundant
workflow.Workflow_ProcedureDependency_T_TaskName <.. workflow.Biml_PrecedenceConstraints
workflow.WorkflowStep <.. workflow.WorkflowStep_active
workflow.WorkflowStep <.. workflow.WorkflowStep_ForUpdate
workflow.WorkflowStep <.. workflow.usp_PERSIST_WorkflowStep
workflow.WorkflowStep_active <.. workflow.Workflow_ProcedureDependency_T_active
workflow.WorkflowStep_active <.. workflow.usp_workflow
workflow.WorkflowStep_active <.. workflow.Workflow_ProcedureDependency_all
workflow.WorkflowStep_active <.. workflow.Biml_Task
workflow.WorkflowStep_active <.. workflow.Workflow_ProcedureDependency
workflow.WorkflowStep_S <.. workflow.WorkflowStep
workflow.WorkflowStep_S <.. workflow.usp_PERSIST_WorkflowStepfooter The diagram is interactive and contains links.
@enduml

