@startuml
'Left to right direction
top to bottom direction
hide circle
'avoide "." issues:
set namespaceSeparator none


skinparam class {
  BackgroundColor White
  BackgroundColor<<FN>> Yellow
  BackgroundColor<<FS>> Yellow
  BackgroundColor<<FT>> LightGray
  BackgroundColor<<IF>> Yellow
  BackgroundColor<<IS>> Yellow
  BackgroundColor<<P>> Aqua
  BackgroundColor<<PC>> Aqua
  BackgroundColor<<SN>> Yellow
  BackgroundColor<<SO>> SlateBlue
  BackgroundColor<<TF>> LightGray
  BackgroundColor<<TR>> Tomato
  BackgroundColor<<U>> White
  BackgroundColor<<V>> WhiteSmoke
  BackgroundColor<<X>> Aqua
  BackgroundColor<<external>> AliceBlue
}


entity "puml-link:dhw:sqldb:reference.ftv_repoobject_referencetree.adoc[]" as reference.ftv_RepoObject_ReferenceTree << IF >> {
  --
}

entity "puml-link:dhw:sqldb:reference.repoobject_referencetree_0_30.adoc[]" as reference.RepoObject_ReferenceTree_0_30 << V >> {
  **RepoObject_guid** : (uniqueidentifier)
  **Referencing_guid** : (uniqueidentifier)
  **Referenced_guid** : (uniqueidentifier)
  --
}

entity "puml-link:dhw:sqldb:reference.repoobject_referencetree_0_30_t.adoc[]" as reference.RepoObject_ReferenceTree_0_30_T << U >> {
  **RepoObject_guid** : (uniqueidentifier)
  **Referencing_guid** : (uniqueidentifier)
  **Referenced_guid** : (uniqueidentifier)
  --
}

entity "puml-link:dhw:sqldb:reference.repoobject_referencetree_30_0.adoc[]" as reference.RepoObject_ReferenceTree_30_0 << V >> {
  **RepoObject_guid** : (uniqueidentifier)
  **Referencing_guid** : (uniqueidentifier)
  **Referenced_guid** : (uniqueidentifier)
  --
}

entity "puml-link:dhw:sqldb:reference.repoobject_referencetree_30_0_t.adoc[]" as reference.RepoObject_ReferenceTree_30_0_T << U >> {
  --
}

entity "puml-link:dhw:sqldb:reference.usp_persist_repoobject_referencetree_0_30_t.adoc[]" as reference.usp_PERSIST_RepoObject_ReferenceTree_0_30_T << P >> {
  --
}

entity "puml-link:dhw:sqldb:reference.usp_persist_repoobject_referencetree_30_0_t.adoc[]" as reference.usp_PERSIST_RepoObject_ReferenceTree_30_0_T << P >> {
  --
}

entity "puml-link:dhw:sqldb:reference.usp_repoobject_referencetree.adoc[]" as reference.usp_RepoObject_ReferenceTree << P >> {
  --
}

reference.ftv_RepoObject_ReferenceTree <.. reference.RepoObject_ReferenceTree_30_0
reference.ftv_RepoObject_ReferenceTree <.. reference.RepoObject_ReferenceTree_0_30
reference.RepoObject_ReferenceTree_0_30 <.. reference.RepoObject_ReferenceTree_0_30_T
reference.RepoObject_ReferenceTree_0_30 <.. reference.usp_PERSIST_RepoObject_ReferenceTree_0_30_T
reference.RepoObject_ReferenceTree_0_30_T <.. reference.usp_PERSIST_RepoObject_ReferenceTree_0_30_T
reference.RepoObject_ReferenceTree_30_0 <.. reference.RepoObject_ReferenceTree_30_0_T
reference.RepoObject_ReferenceTree_30_0 <.. reference.usp_PERSIST_RepoObject_ReferenceTree_30_0_T
reference.RepoObject_ReferenceTree_30_0_T <.. reference.usp_PERSIST_RepoObject_ReferenceTree_30_0_T
reference.usp_PERSIST_RepoObject_ReferenceTree_0_30_T <.. reference.usp_RepoObject_ReferenceTree
reference.usp_PERSIST_RepoObject_ReferenceTree_30_0_T <.. reference.usp_RepoObject_ReferenceTree
@enduml

