@startuml
'Left to right direction
top to bottom direction
hide circle
'avoide "." issues:
set namespaceSeparator none


skinparam class {
  BackgroundColor White
  BackgroundColor<<FN>> Yellow
  BackgroundColor<<FS>> Yellow
  BackgroundColor<<FT>> LightGray
  BackgroundColor<<IF>> Yellow
  BackgroundColor<<IS>> Yellow
  BackgroundColor<<P>> Aqua
  BackgroundColor<<PC>> Aqua
  BackgroundColor<<SN>> Yellow
  BackgroundColor<<SO>> SlateBlue
  BackgroundColor<<TF>> LightGray
  BackgroundColor<<TR>> Tomato
  BackgroundColor<<U>> White
  BackgroundColor<<V>> WhiteSmoke
  BackgroundColor<<X>> Aqua
  BackgroundColor<<external>> AliceBlue
}


entity "puml-link:dhw:sqldb:reference.repoobjectcolumn_reference_queryplan.adoc[]" as reference.RepoObjectColumn_reference_QueryPlan << V >> {
  **referencing_id** : (int)
  **referencing_minor_id** : (int)
  **referenced_id** : (int)
  **referenced_minor_id** : (int)
  --
}

entity "puml-link:dhw:sqldb:reference.repoobjectsource_queryplan.adoc[]" as reference.RepoObjectSource_QueryPlan << U >> {
  --
}

entity "puml-link:dhw:sqldb:reference.sysobjectcolumn_queryplanexpression.adoc[]" as reference.SysObjectColumn_QueryPlanExpression << V >> {
  --
}

entity "puml-link:dhw:sqldb:reference.usp_repoobjectsource_queryplan.adoc[]" as reference.usp_RepoObjectSource_QueryPlan << P >> {
  --
}

entity "puml-link:dhw:sqldb:repo.usp_main.adoc[]" as repo.usp_main << P >> {
  --
}

reference.RepoObjectColumn_reference_QueryPlan <.. reference.SysObjectColumn_QueryPlanExpression
reference.RepoObjectSource_QueryPlan <.. reference.RepoObjectColumn_reference_QueryPlan
reference.RepoObjectSource_QueryPlan <.. reference.usp_RepoObjectSource_QueryPlan
reference.SysObjectColumn_QueryPlanExpression <.. reference.usp_RepoObjectSource_QueryPlan
reference.usp_RepoObjectSource_QueryPlan <.. repo.usp_mainfooter The diagram is interactive and contains links.
@enduml

