@startuml
'Left to right direction
top to bottom direction
hide circle
'avoide "." issues:
set namespaceSeparator none


skinparam class {
  BackgroundColor White
  BackgroundColor<<FN>> Yellow
  BackgroundColor<<FS>> Yellow
  BackgroundColor<<FT>> LightGray
  BackgroundColor<<IF>> Yellow
  BackgroundColor<<IS>> Yellow
  BackgroundColor<<P>> Aqua
  BackgroundColor<<PC>> Aqua
  BackgroundColor<<SN>> Yellow
  BackgroundColor<<SO>> SlateBlue
  BackgroundColor<<TF>> LightGray
  BackgroundColor<<TR>> Tomato
  BackgroundColor<<U>> White
  BackgroundColor<<V>> WhiteSmoke
  BackgroundColor<<X>> Aqua
  BackgroundColor<<external>> AliceBlue
}


entity "puml-link:dhw:sqldb:docs.objectrefcyclic.adoc[]" as docs.ObjectRefCyclic << V >> {
  --
}

entity "puml-link:dhw:sqldb:docs.objectrefcyclic_entitylist.adoc[]" as docs.ObjectRefCyclic_EntityList << V >> {
  --
}

entity "puml-link:dhw:sqldb:docs.objectrefcyclic_objectreflist.adoc[]" as docs.ObjectRefCyclic_ObjectRefList << V >> {
  --
}

entity "puml-link:dhw:sqldb:reference.referencetree_cyclic_ref_persistenceusp.adoc[]" as reference.ReferenceTree_cyclic_ref_PersistenceUsp << V >> {
  --
}

entity "puml-link:dhw:sqldb:reference.referencetree_cyclic_ref_primary.adoc[]" as reference.ReferenceTree_cyclic_ref_primary << V >> {
  --
}

entity "puml-link:dhw:sqldb:reference.referencetree_cyclic_union.adoc[]" as reference.ReferenceTree_cyclic_union << V >> {
  --
}

docs.ObjectRefCyclic_EntityList <.. docs.ObjectRefCyclic
docs.ObjectRefCyclic_ObjectRefList <.. docs.ObjectRefCyclic
reference.ReferenceTree_cyclic_ref_PersistenceUsp <.. reference.ReferenceTree_cyclic_union
reference.ReferenceTree_cyclic_ref_primary <.. reference.ReferenceTree_cyclic_ref_PersistenceUsp
reference.ReferenceTree_cyclic_ref_primary <.. reference.ReferenceTree_cyclic_union
reference.ReferenceTree_cyclic_union <.. docs.ObjectRefCyclic_EntityList
reference.ReferenceTree_cyclic_union <.. docs.ObjectRefCyclic_ObjectRefList
@enduml

