@startuml
'Left to right direction
top to bottom direction
hide circle
'avoide "." issues:
set namespaceSeparator none


skinparam class {
  BackgroundColor White
  BackgroundColor<<FN>> Yellow
  BackgroundColor<<FS>> Yellow
  BackgroundColor<<FT>> LightGray
  BackgroundColor<<IF>> Yellow
  BackgroundColor<<IS>> Yellow
  BackgroundColor<<P>> Aqua
  BackgroundColor<<PC>> Aqua
  BackgroundColor<<SN>> Yellow
  BackgroundColor<<SO>> SlateBlue
  BackgroundColor<<TF>> LightGray
  BackgroundColor<<TR>> Tomato
  BackgroundColor<<U>> White
  BackgroundColor<<V>> WhiteSmoke
  BackgroundColor<<X>> Aqua
  BackgroundColor<<external>> AliceBlue
}


entity "puml-link:dhw:sqldb:docs.antoraindexsemanticgroup.adoc[]" as docs.AntoraIndexSemanticgroup << V >> {
  --
}

entity "puml-link:dhw:sqldb:docs.antoraindexsemanticgrouppatterndatatype.adoc[]" as docs.AntoraIndexSemanticgroupPatterndatatype << V >> {
  **IndexSemanticGroup** : (nvarchar(512))
  **IndexPatternColumnDatatype** : (nvarchar(4000))
  --
}

entity "puml-link:dhw:sqldb:docs.antorapage_indexsemanticgroup.adoc[]" as docs.AntoraPage_IndexSemanticGroup << V >> {
  - **page_content** : (nvarchar(max))
  --
}

entity "puml-link:dhw:sqldb:docs.foreignkey_relationscript.adoc[]" as docs.ForeignKey_RelationScript << V >> {
  **referenced_RepoObject_guid** : (uniqueidentifier)
  **referencing_RepoObject_guid** : (uniqueidentifier)
  --
}

entity "puml-link:dhw:sqldb:docs.ftv_repoobject_reference_plantuml_entityreflist.adoc[]" as docs.ftv_RepoObject_Reference_PlantUml_EntityRefList << IF >> {
  --
}

entity "puml-link:dhw:sqldb:docs.objectrefcyclic.adoc[]" as docs.ObjectRefCyclic << V >> {
  --
}

entity "puml-link:dhw:sqldb:docs.objectrefcyclic_entitylist.adoc[]" as docs.ObjectRefCyclic_EntityList << V >> {
  --
}

entity "puml-link:dhw:sqldb:docs.repoobject_adoc.adoc[]" as docs.RepoObject_Adoc << V >> {
  --
}

entity "puml-link:dhw:sqldb:docs.repoobject_adoc_t.adoc[]" as docs.RepoObject_Adoc_T << U >> {
  - **RepoObject_guid** : (uniqueidentifier)
  - **cultures_name** : (nvarchar(10))
  --
}

entity "puml-link:dhw:sqldb:docs.repoobject_columnlist.adoc[]" as docs.RepoObject_ColumnList << V >> {
  --
}

entity "puml-link:dhw:sqldb:docs.repoobject_columnlist_t.adoc[]" as docs.RepoObject_ColumnList_T << U >> {
  - **RepoObject_guid** : (uniqueidentifier)
  - **cultures_name** : (nvarchar(10))
  --
}

entity "puml-link:dhw:sqldb:docs.repoobject_indexlist.adoc[]" as docs.RepoObject_IndexList << V >> {
  **RepoObject_guid** : (uniqueidentifier)
  **cultures_name** : (nvarchar(10))
  --
}

entity "puml-link:dhw:sqldb:docs.repoobject_indexlist_t.adoc[]" as docs.RepoObject_IndexList_T << U >> {
  - **RepoObject_guid** : (uniqueidentifier)
  - **cultures_name** : (nvarchar(10))
  --
}

entity "puml-link:dhw:sqldb:docs.repoobject_plantuml.adoc[]" as docs.RepoObject_Plantuml << V >> {
  - **RepoObject_guid** : (uniqueidentifier)
  **cultures_name** : (nvarchar(10))
  --
}

entity "puml-link:dhw:sqldb:docs.repoobject_plantuml_entity.adoc[]" as docs.RepoObject_Plantuml_Entity << V >> {
  --
}

entity "puml-link:dhw:sqldb:docs.repoobject_plantuml_entity_t.adoc[]" as docs.RepoObject_Plantuml_Entity_T << U >> {
  - **RepoObject_guid** : (uniqueidentifier)
  - **cultures_name** : (nvarchar(10))
  --
}

entity "puml-link:dhw:sqldb:docs.repoobject_plantuml_fkreflist.adoc[]" as docs.RepoObject_PlantUml_FkRefList << V >> {
  **RepoObject_guid** : (uniqueidentifier)
  --
}

entity "puml-link:dhw:sqldb:docs.repoobject_plantuml_pumlentityfklist.adoc[]" as docs.RepoObject_PlantUml_PumlEntityFkList << V >> {
  **RepoObject_guid** : (uniqueidentifier)
  --
}

entity "puml-link:dhw:sqldb:docs.repoobject_plantuml_t.adoc[]" as docs.RepoObject_Plantuml_T << U >> {
  - **RepoObject_guid** : (uniqueidentifier)
  **cultures_name** : (nvarchar(10))
  --
}

entity "puml-link:dhw:sqldb:docs.schema_entitylist.adoc[]" as docs.Schema_EntityList << V >> {
  - **RepoObject_schema_name** : (nvarchar(128))
  - **cultures_name** : (nvarchar(10))
  --
}

entity "puml-link:dhw:sqldb:docs.schema_puml.adoc[]" as docs.Schema_puml << V >> {
  - **RepoSchema_guid** : (uniqueidentifier)
  **cultures_name** : (nvarchar(10))
  --
}

entity "puml-link:dhw:sqldb:docs.schema_pumlpartial_fkreflist.adoc[]" as docs.Schema_PumlPartial_FkRefList << V >> {
  --
}

entity "puml-link:dhw:sqldb:docs.usp_antoraexport.adoc[]" as docs.usp_AntoraExport << P >> {
  --
}

entity "puml-link:dhw:sqldb:docs.usp_antoraexport_objectpartialproperties.adoc[]" as docs.usp_AntoraExport_ObjectPartialProperties << P >> {
  --
}

entity "puml-link:dhw:sqldb:docs.usp_antoraexport_objectpuml.adoc[]" as docs.usp_AntoraExport_ObjectPuml << P >> {
  --
}

entity "puml-link:dhw:sqldb:docs.usp_persist_repoobject_adoc_t.adoc[]" as docs.usp_PERSIST_RepoObject_Adoc_T << P >> {
  --
}

entity "puml-link:dhw:sqldb:docs.usp_persist_repoobject_columnlist_t.adoc[]" as docs.usp_PERSIST_RepoObject_ColumnList_T << P >> {
  --
}

entity "puml-link:dhw:sqldb:docs.usp_persist_repoobject_indexlist_t.adoc[]" as docs.usp_PERSIST_RepoObject_IndexList_T << P >> {
  --
}

entity "puml-link:dhw:sqldb:docs.usp_persist_repoobject_plantuml_entity_t.adoc[]" as docs.usp_PERSIST_RepoObject_Plantuml_Entity_T << P >> {
  --
}

entity "puml-link:dhw:sqldb:docs.usp_persist_repoobject_plantuml_t.adoc[]" as docs.usp_PERSIST_RepoObject_Plantuml_T << P >> {
  --
}

entity "puml-link:dhw:sqldb:property.repoobjectproperty_collect_source_rogross.adoc[]" as property.RepoObjectProperty_Collect_source_ROGross << V >> {
  - **RepoObject_guid** : (uniqueidentifier)
  - **property_name** : (varchar(39))
  --
}

entity "puml-link:dhw:sqldb:property.usp_repoobject_inheritance.adoc[]" as property.usp_RepoObject_Inheritance << P >> {
  --
}

entity "puml-link:dhw:sqldb:property.usp_repoobjectproperty_collect.adoc[]" as property.usp_RepoObjectProperty_collect << P >> {
  --
}

entity "puml-link:dhw:sqldb:reference.ftv_repoobject_columreferencerepoobject.adoc[]" as reference.ftv_RepoObject_ColumReferenceRepoObject << IF >> {
  --
}

entity "puml-link:dhw:sqldb:repo.check_indexcolumn_virtual_referenced_setpoint.adoc[]" as repo.check_IndexColumn_virtual_referenced_setpoint << V >> {
  --
}

entity "puml-link:dhw:sqldb:repo.foreignkey_gross.adoc[]" as repo.ForeignKey_gross << V >> {
  --
}

entity "puml-link:dhw:sqldb:repo.foreignkey_indexes.adoc[]" as repo.ForeignKey_Indexes << V >> {
  --
}

entity "puml-link:dhw:sqldb:repo.foreignkey_indexes_union.adoc[]" as repo.ForeignKey_Indexes_union << V >> {
  **ForeignKey_guid** : (uniqueidentifier)
  --
}

entity "puml-link:dhw:sqldb:repo.foreignkey_indexes_union_t.adoc[]" as repo.ForeignKey_Indexes_union_T << U >> {
  **ForeignKey_guid** : (uniqueidentifier)
  --
}

entity "puml-link:dhw:sqldb:repo.foreignkey_virtual_indexes.adoc[]" as repo.ForeignKey_virtual_Indexes << V >> {
  --
}

entity "puml-link:dhw:sqldb:repo.index_columlist.adoc[]" as repo.Index_ColumList << V >> {
  --
}

entity "puml-link:dhw:sqldb:repo.index_columlist_t.adoc[]" as repo.Index_ColumList_T << U >> {
  - **index_guid** : (uniqueidentifier)
  --
}

entity "puml-link:dhw:sqldb:repo.index_gross.adoc[]" as repo.Index_gross << V >> {
  --
}

entity "puml-link:dhw:sqldb:repo.index_indexpattern.adoc[]" as repo.Index_IndexPattern << V >> {
  --
}

entity "puml-link:dhw:sqldb:repo.index_referencing_indexpatterncolumnguid.adoc[]" as repo.Index_referencing_IndexPatternColumnGuid << V >> {
  **source_index_guid** : (uniqueidentifier)
  **referencing_RepoObject_guid** : (uniqueidentifier)
  --
}

entity "puml-link:dhw:sqldb:repo.index_sqlconstraint_pkuq.adoc[]" as repo.Index_SqlConstraint_PkUq << V >> {
  --
}

entity "puml-link:dhw:sqldb:repo.indexcolumn_referencedreferencing_hasfullcolumnsinreferencing.adoc[]" as repo.IndexColumn_ReferencedReferencing_HasFullColumnsInReferencing << V >> {
  - **index_guid** : (uniqueidentifier)
  - **index_column_id** : (int)
  **RowNumberInReferencing** : (bigint)
  --
}

entity "puml-link:dhw:sqldb:repo.indexcolumn_referencedreferencing_hasfullcolumnsinreferencing_check.adoc[]" as repo.IndexColumn_ReferencedReferencing_HasFullColumnsInReferencing_check << V >> {
  --
}

entity "puml-link:dhw:sqldb:repo.indexcolumn_referencedreferencing_hasfullcolumnsinreferencing_t.adoc[]" as repo.IndexColumn_ReferencedReferencing_HasFullColumnsInReferencing_T << U >> {
  **index_guid** : (uniqueidentifier)
  - **index_column_id** : (int)
  **RowNumberInReferencing** : (bigint)
  --
}

entity "puml-link:dhw:sqldb:repo.indexcolumn_ssas_gross.adoc[]" as repo.IndexColumn_ssas_gross << V >> {
  --
}

entity "puml-link:dhw:sqldb:repo.indexcolumn_union.adoc[]" as repo.IndexColumn_union << V >> {
  **index_guid** : (uniqueidentifier)
  - **index_column_id** : (int)
  --
}

entity "puml-link:dhw:sqldb:repo.indexcolumn_union_t.adoc[]" as repo.IndexColumn_union_T << U >> {
  **index_guid** : (uniqueidentifier)
  - **index_column_id** : (int)
  --
}

entity "puml-link:dhw:sqldb:repo.indexcolumn_virtual_referenced_setpoint.adoc[]" as repo.IndexColumn_virtual_referenced_setpoint << V >> {
  - **index_guid** : (uniqueidentifier)
  - **index_column_id** : (int)
  --
}

entity "puml-link:dhw:sqldb:repo.indexreferencedreferencing_hasfullcolumnsinreferencing.adoc[]" as repo.IndexReferencedReferencing_HasFullColumnsInReferencing << V >> {
  --
}

entity "puml-link:dhw:sqldb:repo.repoobject_columnlist.adoc[]" as repo.RepoObject_ColumnList << V >> {
  --
}

entity "puml-link:dhw:sqldb:repo.repoobject_gross2.adoc[]" as repo.RepoObject_gross2 << V >> {
  --
}

entity "puml-link:dhw:sqldb:repo.repoobject_related_fk_union.adoc[]" as repo.RepoObject_related_FK_union << V >> {
  **RepoObject_guid** : (uniqueidentifier)
  **included_RepoObject_guid** : (uniqueidentifier)
  --
}

entity "puml-link:dhw:sqldb:repo.repoobject_sat2.adoc[]" as repo.RepoObject_sat2 << V >> {
  - **RepoObject_guid** : (uniqueidentifier)
  --
}

entity "puml-link:dhw:sqldb:repo.repoobject_sat2_t.adoc[]" as repo.RepoObject_sat2_T << U >> {
  - **RepoObject_guid** : (uniqueidentifier)
  --
}

entity "puml-link:dhw:sqldb:repo.repoobject_sqlcreatetable.adoc[]" as repo.RepoObject_SqlCreateTable << V >> {
  - **RepoObject_guid** : (uniqueidentifier)
  --
}

entity "puml-link:dhw:sqldb:repo.repoobjectcolumn_gross2.adoc[]" as repo.RepoObjectColumn_gross2 << V >> {
  --
}

entity "puml-link:dhw:sqldb:repo.usp_index_finish.adoc[]" as repo.usp_Index_finish << P >> {
  --
}

entity "puml-link:dhw:sqldb:repo.usp_index_foreignkey.adoc[]" as repo.usp_Index_ForeignKey << P >> {
  --
}

entity "puml-link:dhw:sqldb:repo.usp_index_inheritance.adoc[]" as repo.usp_index_inheritance << P >> {
  --
}

entity "puml-link:dhw:sqldb:repo.usp_index_settings.adoc[]" as repo.usp_Index_Settings << P >> {
  --
}

entity "puml-link:dhw:sqldb:repo.usp_index_virtual_set.adoc[]" as repo.usp_Index_virtual_set << P >> {
  --
}

entity "puml-link:dhw:sqldb:repo.usp_main.adoc[]" as repo.usp_main << P >> {
  --
}

entity "puml-link:dhw:sqldb:repo.usp_persist_foreignkey_indexes_union_t.adoc[]" as repo.usp_PERSIST_ForeignKey_Indexes_union_T << P >> {
  --
}

entity "puml-link:dhw:sqldb:repo.usp_persist_index_columlist_t.adoc[]" as repo.usp_PERSIST_Index_ColumList_T << P >> {
  --
}

entity "puml-link:dhw:sqldb:repo.usp_persist_indexcolumn_referencedreferencing_hasfullcolumnsinreferencing_t.adoc[]" as repo.usp_PERSIST_IndexColumn_ReferencedReferencing_HasFullColumnsInReferencing_T << P >> {
  --
}

entity "puml-link:dhw:sqldb:repo.usp_persist_indexcolumn_union_t.adoc[]" as repo.usp_PERSIST_IndexColumn_union_T << P >> {
  --
}

entity "puml-link:dhw:sqldb:repo.usp_persist_repoobject_sat2_t.adoc[]" as repo.usp_PERSIST_RepoObject_sat2_T << P >> {
  --
}

entity "puml-link:dhw:sqldb:uspgenerator.generatoruspstep_persistence_src.adoc[]" as uspgenerator.GeneratorUspStep_Persistence_src << V >> {
  - **usp_id** : (int)
  --
}

entity "puml-link:dhw:sqldb:uspgenerator.usp_generatorusp_insert_update_persistence.adoc[]" as uspgenerator.usp_GeneratorUsp_insert_update_persistence << P >> {
  --
}

docs.AntoraIndexSemanticgroup <.. docs.AntoraPage_IndexSemanticGroup
docs.AntoraIndexSemanticgroupPatterndatatype <.. docs.AntoraIndexSemanticgroup
docs.ftv_RepoObject_Reference_PlantUml_EntityRefList <.. docs.RepoObject_Plantuml
docs.ObjectRefCyclic_EntityList <.. docs.ObjectRefCyclic
docs.RepoObject_Adoc <.. docs.usp_PERSIST_RepoObject_Adoc_T
docs.RepoObject_Adoc <.. docs.RepoObject_Adoc_T
docs.REpoObject_Adoc_T <.. docs.usp_PERSIST_RepoObject_Adoc_T
docs.RepoObject_ColumnList <.. docs.RepoObject_ColumnList_T
docs.RepoObject_ColumnList <.. docs.usp_PERSIST_RepoObject_ColumnList_T
docs.RepoObject_ColumnList_T <.. docs.usp_PERSIST_RepoObject_ColumnList_T
docs.RepoObject_ColumnList_T <.. docs.RepoObject_Adoc
docs.RepoObject_ColumnList_T <.. docs.RepoObject_Plantuml_Entity
docs.RepoObject_IndexList <.. docs.usp_PERSIST_RepoObject_IndexList_T
docs.RepoObject_IndexList <.. docs.RepoObject_IndexList_T
docs.RepoObject_IndexList_T <.. docs.usp_PERSIST_RepoObject_IndexList_T
docs.RepoObject_IndexList_T <.. docs.RepoObject_Adoc
docs.RepoObject_IndexList_T <.. docs.RepoObject_Plantuml_Entity
docs.RepoObject_Plantuml <.. docs.usp_PERSIST_RepoObject_Plantuml_T
docs.RepoObject_Plantuml <.. docs.RepoObject_Plantuml_T
docs.RepoObject_Plantuml_Entity <.. docs.usp_PERSIST_RepoObject_Plantuml_Entity_T
docs.RepoObject_Plantuml_Entity <.. docs.RepoObject_Plantuml_Entity_T
docs.RepoObject_Plantuml_Entity_T <.. docs.usp_PERSIST_RepoObject_Plantuml_Entity_T
docs.RepoObject_Plantuml_Entity_T <.. docs.ftv_RepoObject_Reference_PlantUml_EntityRefList
docs.RepoObject_Plantuml_Entity_T <.. docs.RepoObject_PlantUml_PumlEntityFkList
docs.RepoObject_Plantuml_Entity_T <.. docs.ObjectRefCyclic_EntityList
docs.RepoObject_Plantuml_Entity_T <.. docs.Schema_EntityList
docs.RepoObject_PlantUml_FkRefList <.. docs.RepoObject_Plantuml
docs.RepoObject_PlantUml_PumlEntityFkList <.. docs.RepoObject_Plantuml
docs.RepoObject_Plantuml_T <.. docs.usp_PERSIST_RepoObject_Plantuml_T
docs.Schema_EntityList <.. docs.Schema_puml
docs.Schema_puml <.. docs.usp_AntoraExport_ObjectPuml
docs.Schema_PumlPartial_FkRefList <.. docs.Schema_puml
docs.usp_AntoraExport_ObjectPartialProperties <.. docs.usp_AntoraExport
docs.usp_AntoraExport_ObjectPuml <.. docs.usp_AntoraExport
docs.usp_PERSIST_RepoObject_Adoc_T <.. docs.usp_AntoraExport_ObjectPartialProperties
docs.usp_PERSIST_RepoObject_ColumnList_T <.. docs.usp_AntoraExport_ObjectPartialProperties
docs.usp_PERSIST_RepoObject_IndexList_T <.. docs.usp_AntoraExport_ObjectPartialProperties
docs.usp_PERSIST_RepoObject_Plantuml_Entity_T <.. docs.usp_AntoraExport_ObjectPuml
docs.usp_PERSIST_RepoObject_Plantuml_T <.. docs.usp_AntoraExport_ObjectPuml
property.RepoObjectProperty_Collect_source_ROGross <.. property.usp_RepoObjectProperty_collect
property.usp_RepoObject_Inheritance <.. repo.usp_main
property.usp_RepoObjectProperty_collect <.. property.usp_RepoObject_Inheritance
property.usp_RepoObjectProperty_collect <.. repo.usp_main
repo.ForeignKey_gross <.. docs.RepoObject_IndexList
repo.ForeignKey_Indexes <.. repo.ForeignKey_Indexes_union
repo.ForeignKey_Indexes <.. repo.usp_Index_ForeignKey
repo.ForeignKey_Indexes_union <.. repo.ForeignKey_Indexes_union_T
repo.ForeignKey_Indexes_union <.. repo.usp_PERSIST_ForeignKey_Indexes_union_T
repo.ForeignKey_Indexes_union_T <.. repo.usp_Index_finish
repo.ForeignKey_Indexes_union_T <.. docs.Schema_PumlPartial_FkRefList
repo.ForeignKey_Indexes_union_T <.. repo.usp_PERSIST_ForeignKey_Indexes_union_T
repo.ForeignKey_Indexes_union_T <.. docs.RepoObject_PlantUml_FkRefList
repo.ForeignKey_Indexes_union_T <.. repo.RepoObject_related_FK_union
repo.ForeignKey_Indexes_union_T <.. repo.ForeignKey_gross
repo.ForeignKey_Indexes_union_T <.. docs.ForeignKey_RelationScript
repo.ForeignKey_virtual_Indexes <.. repo.ForeignKey_Indexes_union
repo.Index_ColumList <.. repo.usp_PERSIST_Index_ColumList_T
repo.Index_ColumList <.. repo.Index_ColumList_T
repo.Index_ColumList_T <.. repo.usp_PERSIST_Index_ColumList_T
repo.Index_ColumList_T <.. repo.Index_gross
repo.Index_ColumList_T <.. uspgenerator.GeneratorUspStep_Persistence_src
repo.Index_ColumList_T <.. repo.Index_SqlConstraint_PkUq
repo.Index_gross <.. repo.ForeignKey_gross
repo.Index_gross <.. docs.AntoraIndexSemanticgroupPatterndatatype
repo.Index_gross <.. docs.RepoObject_IndexList
repo.Index_gross <.. repo.usp_Index_finish
repo.Index_gross <.. repo.ForeignKey_virtual_Indexes
repo.Index_gross <.. repo.ForeignKey_Indexes
repo.Index_gross <.. repo.usp_Index_virtual_set
repo.Index_gross <.. repo.usp_index_inheritance
repo.Index_gross <.. repo.RepoObject_SqlCreateTable
repo.Index_IndexPattern <.. repo.usp_Index_Settings
repo.Index_referencing_IndexPatternColumnGuid <.. repo.IndexReferencedReferencing_HasFullColumnsInReferencing
repo.Index_SqlConstraint_PkUq <.. repo.RepoObject_SqlCreateTable
repo.IndexColumn_ReferencedReferencing_HasFullColumnsInReferencing <.. repo.IndexColumn_ReferencedReferencing_HasFullColumnsInReferencing_T
repo.IndexColumn_ReferencedReferencing_HasFullColumnsInReferencing <.. repo.usp_PERSIST_IndexColumn_ReferencedReferencing_HasFullColumnsInReferencing_T
repo.IndexColumn_ReferencedReferencing_HasFullColumnsInReferencing_T <.. repo.IndexColumn_ReferencedReferencing_HasFullColumnsInReferencing_check
repo.IndexColumn_ReferencedReferencing_HasFullColumnsInReferencing_T <.. repo.IndexColumn_virtual_referenced_setpoint
repo.IndexColumn_ReferencedReferencing_HasFullColumnsInReferencing_T <.. repo.IndexReferencedReferencing_HasFullColumnsInReferencing
repo.IndexColumn_ReferencedReferencing_HasFullColumnsInReferencing_T <.. repo.Index_referencing_IndexPatternColumnGuid
repo.IndexColumn_ReferencedReferencing_HasFullColumnsInReferencing_T <.. repo.usp_PERSIST_IndexColumn_ReferencedReferencing_HasFullColumnsInReferencing_T
repo.IndexColumn_ssas_gross <.. repo.IndexColumn_union
repo.IndexColumn_union <.. repo.IndexColumn_union_T
repo.IndexColumn_union <.. repo.usp_PERSIST_IndexColumn_union_T
repo.IndexColumn_union_T <.. repo.Index_ColumList
repo.IndexColumn_union_T <.. repo.Index_IndexPattern
repo.IndexColumn_union_T <.. repo.usp_PERSIST_IndexColumn_union_T
repo.IndexColumn_union_T <.. repo.IndexColumn_ReferencedReferencing_HasFullColumnsInReferencing
repo.IndexColumn_union_T <.. repo.RepoObjectColumn_gross2
repo.IndexColumn_virtual_referenced_setpoint <.. repo.check_IndexColumn_virtual_referenced_setpoint
repo.IndexColumn_virtual_referenced_setpoint <.. repo.usp_index_inheritance
repo.IndexReferencedReferencing_HasFullColumnsInReferencing <.. repo.usp_index_inheritance
repo.RepoObject_ColumnList <.. repo.RepoObject_sat2
repo.RepoObject_ColumnList <.. repo.RepoObject_gross2
repo.RepoObject_ColumnList <.. repo.RepoObject_SqlCreateTable
repo.RepoObject_gross2 <.. uspgenerator.GeneratorUspStep_Persistence_src
repo.RepoObject_related_FK_union <.. docs.RepoObject_PlantUml_FkRefList
repo.RepoObject_related_FK_union <.. docs.RepoObject_PlantUml_PumlEntityFkList
repo.RepoObject_sat2 <.. repo.usp_PERSIST_RepoObject_sat2_T
repo.RepoObject_sat2 <.. repo.RepoObject_sat2_T
repo.RepoObject_sat2_T <.. uspgenerator.GeneratorUspStep_Persistence_src
repo.RepoObject_sat2_T <.. repo.usp_PERSIST_RepoObject_sat2_T
repo.RepoObject_sat2_T <.. docs.RepoObject_Adoc
repo.RepoObject_sat2_T <.. property.RepoObjectProperty_Collect_source_ROGross
repo.RepoObject_SqlCreateTable <.. reference.ftv_RepoObject_ColumReferenceRepoObject
repo.RepoObjectColumn_gross2 <.. repo.RepoObject_ColumnList
repo.RepoObjectColumn_gross2 <.. uspgenerator.usp_GeneratorUsp_insert_update_persistence
repo.RepoObjectColumn_gross2 <.. docs.RepoObject_ColumnList
repo.usp_Index_finish <.. repo.usp_index_inheritance
repo.usp_Index_finish <.. repo.usp_Index_ForeignKey
repo.usp_Index_ForeignKey <.. repo.usp_main
repo.usp_index_inheritance <.. repo.usp_main
repo.usp_Index_Settings <.. repo.usp_Index_finish
repo.usp_Index_virtual_set <.. repo.usp_Index_ForeignKey
repo.usp_PERSIST_ForeignKey_Indexes_union_T <.. repo.usp_Index_ForeignKey
repo.usp_PERSIST_Index_ColumList_T <.. repo.usp_Index_finish
repo.usp_PERSIST_IndexColumn_ReferencedReferencing_HasFullColumnsInReferencing_T <.. repo.usp_index_inheritance
repo.usp_PERSIST_IndexColumn_union_T <.. repo.usp_Index_finish
repo.usp_PERSIST_RepoObject_sat2_T <.. repo.usp_main
uspgenerator.GeneratorUspStep_Persistence_src <.. uspgenerator.usp_GeneratorUsp_insert_update_persistence
uspgenerator.usp_GeneratorUsp_insert_update_persistence <.. repo.usp_mainfooter The diagram is interactive and contains links.
@enduml

