@startuml
'Left to right direction
top to bottom direction
hide circle
'avoide "." issues:
set namespaceSeparator none


skinparam class {
  BackgroundColor White
  BackgroundColor<<FN>> Yellow
  BackgroundColor<<FS>> Yellow
  BackgroundColor<<FT>> LightGray
  BackgroundColor<<IF>> Yellow
  BackgroundColor<<IS>> Yellow
  BackgroundColor<<P>> Aqua
  BackgroundColor<<PC>> Aqua
  BackgroundColor<<SN>> Yellow
  BackgroundColor<<SO>> SlateBlue
  BackgroundColor<<TF>> LightGray
  BackgroundColor<<TR>> Tomato
  BackgroundColor<<U>> White
  BackgroundColor<<V>> WhiteSmoke
  BackgroundColor<<X>> Aqua
  BackgroundColor<<external>> AliceBlue
}


entity "puml-link:dhw:sqldb:reference.ftv_repoobject_columreferencerepoobject.adoc[]" as reference.ftv_RepoObject_ColumReferenceRepoObject << IF >> {
  --
}

entity "puml-link:dhw:sqldb:repo.index_sqlconstraint_pkuq.adoc[]" as repo.Index_SqlConstraint_PkUq << V >> {
  --
}

entity "puml-link:dhw:sqldb:repo.repoobject_sqlcreatetable.adoc[]" as repo.RepoObject_SqlCreateTable << V >> {
  - **RepoObject_guid** : (uniqueidentifier)
  --
}

repo.Index_SqlConstraint_PkUq <.. repo.RepoObject_SqlCreateTable
repo.RepoObject_SqlCreateTable <.. reference.ftv_RepoObject_ColumReferenceRepoObject
@enduml

