@startuml
'Left to right direction
top to bottom direction
hide circle
'avoide "." issues:
set namespaceSeparator none


skinparam class {
  BackgroundColor White
  BackgroundColor<<FN>> Yellow
  BackgroundColor<<FS>> Yellow
  BackgroundColor<<FT>> LightGray
  BackgroundColor<<IF>> Yellow
  BackgroundColor<<IS>> Yellow
  BackgroundColor<<P>> Aqua
  BackgroundColor<<PC>> Aqua
  BackgroundColor<<SN>> Yellow
  BackgroundColor<<SO>> SlateBlue
  BackgroundColor<<TF>> LightGray
  BackgroundColor<<TR>> Tomato
  BackgroundColor<<U>> White
  BackgroundColor<<V>> WhiteSmoke
  BackgroundColor<<X>> Aqua
  BackgroundColor<<external>> AliceBlue
}


entity "puml-link:dhw:sqldb:repo.sysschema_reposchema_via_guid.adoc[]" as repo.SysSchema_RepoSchema_via_guid << V >> {
  --
}

entity "puml-link:dhw:sqldb:repo.sysschema_reposchema_via_name.adoc[]" as repo.SysSchema_RepoSchema_via_name << V >> {
  --
}

entity "puml-link:dhw:sqldb:repo.usp_main.adoc[]" as repo.usp_main << P >> {
  --
}

entity "puml-link:dhw:sqldb:repo.usp_persistence_set.adoc[]" as repo.usp_persistence_set << P >> {
  --
}

entity "puml-link:dhw:sqldb:repo.usp_sync_guid.adoc[]" as repo.usp_sync_guid << P >> {
  --
}

entity "puml-link:dhw:sqldb:repo.usp_sync_guid_reposchema.adoc[]" as repo.usp_sync_guid_RepoSchema << P >> {
  --
}

entity "puml-link:dhw:sqldb:repo_sys.sysschema.adoc[]" as repo_sys.SysSchema << V >> {
  --
}

repo.SysSchema_RepoSchema_via_guid <.. repo.usp_sync_guid_RepoSchema
repo.SysSchema_RepoSchema_via_name <.. repo.usp_sync_guid_RepoSchema
repo.usp_sync_guid <.. repo.usp_persistence_set
repo.usp_sync_guid <.. repo.usp_main
repo.usp_sync_guid_RepoSchema <.. repo.usp_sync_guid
repo_sys.SysSchema <.. repo.usp_sync_guid_RepoSchema
repo_sys.SysSchema <.. repo.SysSchema_RepoSchema_via_guid
repo_sys.SysSchema <.. repo.SysSchema_RepoSchema_via_name
@enduml

