@startuml
'Left to right direction
top to bottom direction
hide circle
'avoide "." issues:
set namespaceSeparator none


skinparam class {
  BackgroundColor White
  BackgroundColor<<FN>> Yellow
  BackgroundColor<<FS>> Yellow
  BackgroundColor<<FT>> LightGray
  BackgroundColor<<IF>> Yellow
  BackgroundColor<<IS>> Yellow
  BackgroundColor<<P>> Aqua
  BackgroundColor<<PC>> Aqua
  BackgroundColor<<SN>> Yellow
  BackgroundColor<<SO>> SlateBlue
  BackgroundColor<<TF>> LightGray
  BackgroundColor<<TR>> Tomato
  BackgroundColor<<U>> White
  BackgroundColor<<V>> WhiteSmoke
  BackgroundColor<<X>> Aqua
  BackgroundColor<<external>> AliceBlue
}


entity "puml-link:dhw:sqldb:repo.check_indexcolumn_virtual_referenced_setpoint.adoc[]" as repo.check_IndexColumn_virtual_referenced_setpoint << V >> {
  --
}

entity "puml-link:dhw:sqldb:repo.indexcolumn_virtual_referenced_setpoint.adoc[]" as repo.IndexColumn_virtual_referenced_setpoint << V >> {
  - **index_guid** : (uniqueidentifier)
  - **index_column_id** : (int)
  --
}

entity "puml-link:dhw:sqldb:repo.usp_index_inheritance.adoc[]" as repo.usp_index_inheritance << P >> {
  --
}

entity "puml-link:dhw:sqldb:repo.usp_main.adoc[]" as repo.usp_main << P >> {
  --
}

repo.IndexColumn_virtual_referenced_setpoint <.. repo.usp_index_inheritance
repo.IndexColumn_virtual_referenced_setpoint <.. repo.check_IndexColumn_virtual_referenced_setpoint
repo.usp_index_inheritance <.. repo.usp_mainfooter The diagram is interactive and contains links.
@enduml

