@startuml
'Left to right direction
top to bottom direction
hide circle
'avoide "." issues:
set namespaceSeparator none


skinparam class {
  BackgroundColor White
  BackgroundColor<<FN>> Yellow
  BackgroundColor<<FS>> Yellow
  BackgroundColor<<FT>> LightGray
  BackgroundColor<<IF>> Yellow
  BackgroundColor<<IS>> Yellow
  BackgroundColor<<P>> Aqua
  BackgroundColor<<PC>> Aqua
  BackgroundColor<<SN>> Yellow
  BackgroundColor<<SO>> SlateBlue
  BackgroundColor<<TF>> LightGray
  BackgroundColor<<TR>> Tomato
  BackgroundColor<<U>> White
  BackgroundColor<<V>> WhiteSmoke
  BackgroundColor<<X>> Aqua
  BackgroundColor<<external>> AliceBlue
}


entity "puml-link:dhw:sqldb:reference.usp_update_referencing_count.adoc[]" as reference.usp_update_Referencing_Count << P >> {
  --
}

entity "puml-link:dhw:sqldb:repo.usp_main.adoc[]" as repo.usp_main << P >> {
  --
}

entity "puml-link:dhw:sqldb:repo.usp_update_referencing_count.adoc[]" as repo.usp_update_Referencing_Count << P >> {
  --
}

entity "puml-link:dhw:sqldb:repo_sys.repoobjectreferencing.adoc[]" as repo_sys.RepoObjectReferencing << V >> {
  --
}

reference.usp_update_Referencing_Count <.. repo.usp_main
repo_sys.RepoObjectReferencing <.. reference.usp_update_Referencing_Count
repo_sys.RepoObjectReferencing <.. repo.usp_update_Referencing_Countfooter The diagram is interactive and contains links.
@enduml

