@startuml
'Left to right direction
top to bottom direction
hide circle
'avoide "." issues:
set namespaceSeparator none


skinparam class {
  BackgroundColor White
  BackgroundColor<<FN>> Yellow
  BackgroundColor<<FS>> Yellow
  BackgroundColor<<FT>> LightGray
  BackgroundColor<<IF>> Yellow
  BackgroundColor<<IS>> Yellow
  BackgroundColor<<P>> Aqua
  BackgroundColor<<PC>> Aqua
  BackgroundColor<<SN>> Yellow
  BackgroundColor<<SO>> SlateBlue
  BackgroundColor<<TF>> LightGray
  BackgroundColor<<TR>> Tomato
  BackgroundColor<<U>> White
  BackgroundColor<<V>> WhiteSmoke
  BackgroundColor<<X>> Aqua
  BackgroundColor<<external>> AliceBlue
}


entity "puml-link:dhw:sqldb:docs.ftv_repoobject_reference_plantuml_entityreflist.adoc[]" as docs.ftv_RepoObject_Reference_PlantUml_EntityRefList << IF >> {
  --
}

entity "puml-link:dhw:sqldb:docs.objectrefcyclic.adoc[]" as docs.ObjectRefCyclic << V >> {
  --
}

entity "puml-link:dhw:sqldb:docs.objectrefcyclic_entitylist.adoc[]" as docs.ObjectRefCyclic_EntityList << V >> {
  --
}

entity "puml-link:dhw:sqldb:docs.repoobject_adoc.adoc[]" as docs.RepoObject_Adoc << V >> {
  --
}

entity "puml-link:dhw:sqldb:docs.repoobject_adoc_t.adoc[]" as docs.RepoObject_Adoc_T << U >> {
  - **RepoObject_guid** : (uniqueidentifier)
  - **cultures_name** : (nvarchar(10))
  --
}

entity "puml-link:dhw:sqldb:docs.repoobject_measurelist.adoc[]" as docs.RepoObject_MeasureList << V >> {
  **RepoObject_guid** : (uniqueidentifier)
  **cultures_name** : (nvarchar(10))
  --
}

entity "puml-link:dhw:sqldb:docs.repoobject_plantuml.adoc[]" as docs.RepoObject_Plantuml << V >> {
  - **RepoObject_guid** : (uniqueidentifier)
  **cultures_name** : (nvarchar(10))
  --
}

entity "puml-link:dhw:sqldb:docs.repoobject_plantuml_entity.adoc[]" as docs.RepoObject_Plantuml_Entity << V >> {
  --
}

entity "puml-link:dhw:sqldb:docs.repoobject_plantuml_entity_t.adoc[]" as docs.RepoObject_Plantuml_Entity_T << U >> {
  - **RepoObject_guid** : (uniqueidentifier)
  - **cultures_name** : (nvarchar(10))
  --
}

entity "puml-link:dhw:sqldb:docs.repoobject_plantuml_pumlentityfklist.adoc[]" as docs.RepoObject_PlantUml_PumlEntityFkList << V >> {
  **RepoObject_guid** : (uniqueidentifier)
  --
}

entity "puml-link:dhw:sqldb:docs.repoobject_plantuml_t.adoc[]" as docs.RepoObject_Plantuml_T << U >> {
  - **RepoObject_guid** : (uniqueidentifier)
  **cultures_name** : (nvarchar(10))
  --
}

entity "puml-link:dhw:sqldb:docs.schema_entitylist.adoc[]" as docs.Schema_EntityList << V >> {
  - **RepoObject_schema_name** : (nvarchar(128))
  - **cultures_name** : (nvarchar(10))
  --
}

entity "puml-link:dhw:sqldb:docs.schema_puml.adoc[]" as docs.Schema_puml << V >> {
  - **RepoSchema_guid** : (uniqueidentifier)
  **cultures_name** : (nvarchar(10))
  --
}

entity "puml-link:dhw:sqldb:docs.usp_antoraexport.adoc[]" as docs.usp_AntoraExport << P >> {
  --
}

entity "puml-link:dhw:sqldb:docs.usp_antoraexport_objectpartialproperties.adoc[]" as docs.usp_AntoraExport_ObjectPartialProperties << P >> {
  --
}

entity "puml-link:dhw:sqldb:docs.usp_antoraexport_objectpuml.adoc[]" as docs.usp_AntoraExport_ObjectPuml << P >> {
  --
}

entity "puml-link:dhw:sqldb:docs.usp_persist_repoobject_adoc_t.adoc[]" as docs.usp_PERSIST_RepoObject_Adoc_T << P >> {
  --
}

entity "puml-link:dhw:sqldb:docs.usp_persist_repoobject_plantuml_entity_t.adoc[]" as docs.usp_PERSIST_RepoObject_Plantuml_Entity_T << P >> {
  --
}

entity "puml-link:dhw:sqldb:docs.usp_persist_repoobject_plantuml_t.adoc[]" as docs.usp_PERSIST_RepoObject_Plantuml_T << P >> {
  --
}

entity "puml-link:dhw:sqldb:repo.measures_union.adoc[]" as repo.Measures_union << V >> {
  --
}

entity "puml-link:dhw:sqldb:repo.usp_main.adoc[]" as repo.usp_main << P >> {
  --
}

entity "puml-link:dhw:sqldb:repo.usp_sync_guid_ssas.adoc[]" as repo.usp_sync_guid_ssas << P >> {
  --
}

entity "puml-link:dhw:sqldb:ssas.measures_translation.adoc[]" as ssas.Measures_translation << V >> {
  - **Measure_guid** : (uniqueidentifier)
  - **cultures_name** : (nvarchar(10))
  **RepoObject_name** : (nvarchar(128))
  --
}

entity "puml-link:dhw:sqldb:ssas.measures_translation_displayfolder_union.adoc[]" as ssas.Measures_translation_displayfolder_union << V >> {
  --
}

entity "puml-link:dhw:sqldb:ssas.measures_translation_t.adoc[]" as ssas.Measures_translation_T << U >> {
  - **Measure_guid** : (uniqueidentifier)
  - **cultures_name** : (nvarchar(10))
  **RepoObject_name** : (nvarchar(128))
  --
}

entity "puml-link:dhw:sqldb:ssas.usp_persist_measures_translation_t.adoc[]" as ssas.usp_PERSIST_Measures_translation_T << P >> {
  --
}

docs.ftv_RepoObject_Reference_PlantUml_EntityRefList <.. docs.RepoObject_Plantuml
docs.ObjectRefCyclic_EntityList <.. docs.ObjectRefCyclic
docs.RepoObject_Adoc <.. docs.usp_PERSIST_RepoObject_Adoc_T
docs.RepoObject_Adoc <.. docs.RepoObject_Adoc_T
docs.REpoObject_Adoc_T <.. docs.usp_PERSIST_RepoObject_Adoc_T
docs.RepoObject_MeasureList <.. docs.RepoObject_Plantuml_Entity
docs.RepoObject_MeasureList <.. docs.RepoObject_Adoc
docs.RepoObject_Plantuml <.. docs.RepoObject_Plantuml_T
docs.RepoObject_Plantuml <.. docs.usp_PERSIST_RepoObject_Plantuml_T
docs.RepoObject_Plantuml_Entity <.. docs.usp_PERSIST_RepoObject_Plantuml_Entity_T
docs.RepoObject_Plantuml_Entity <.. docs.RepoObject_Plantuml_Entity_T
docs.RepoObject_Plantuml_Entity_T <.. docs.usp_PERSIST_RepoObject_Plantuml_Entity_T
docs.RepoObject_Plantuml_Entity_T <.. docs.ftv_RepoObject_Reference_PlantUml_EntityRefList
docs.RepoObject_Plantuml_Entity_T <.. docs.RepoObject_PlantUml_PumlEntityFkList
docs.RepoObject_Plantuml_Entity_T <.. docs.ObjectRefCyclic_EntityList
docs.RepoObject_Plantuml_Entity_T <.. docs.Schema_EntityList
docs.RepoObject_PlantUml_PumlEntityFkList <.. docs.RepoObject_Plantuml
docs.RepoObject_Plantuml_T <.. docs.usp_PERSIST_RepoObject_Plantuml_T
docs.Schema_EntityList <.. docs.Schema_puml
docs.Schema_puml <.. docs.usp_AntoraExport_ObjectPuml
docs.usp_AntoraExport_ObjectPartialProperties <.. docs.usp_AntoraExport
docs.usp_AntoraExport_ObjectPuml <.. docs.usp_AntoraExport
docs.usp_PERSIST_RepoObject_Adoc_T <.. docs.usp_AntoraExport_ObjectPartialProperties
docs.usp_PERSIST_RepoObject_Plantuml_Entity_T <.. docs.usp_AntoraExport_ObjectPuml
docs.usp_PERSIST_RepoObject_Plantuml_T <.. docs.usp_AntoraExport_ObjectPuml
repo.Measures_union <.. ssas.Measures_translation
repo.Measures_union <.. docs.RepoObject_MeasureList
repo.usp_sync_guid_ssas <.. repo.usp_main
ssas.Measures_translation <.. ssas.Measures_translation_T
ssas.Measures_translation <.. ssas.usp_PERSIST_Measures_translation_T
ssas.Measures_translation_displayfolder_union <.. docs.RepoObject_MeasureList
ssas.Measures_translation_T <.. ssas.usp_PERSIST_Measures_translation_T
ssas.Measures_translation_T <.. ssas.Measures_translation_displayfolder_union
ssas.usp_PERSIST_Measures_translation_T <.. repo.usp_sync_guid_ssasfooter The diagram is interactive and contains links.
@enduml

