@startuml
'Left to right direction
top to bottom direction
hide circle
'avoide "." issues:
set namespaceSeparator none


skinparam class {
  BackgroundColor White
  BackgroundColor<<FN>> Yellow
  BackgroundColor<<FS>> Yellow
  BackgroundColor<<FT>> LightGray
  BackgroundColor<<IF>> Yellow
  BackgroundColor<<IS>> Yellow
  BackgroundColor<<P>> Aqua
  BackgroundColor<<PC>> Aqua
  BackgroundColor<<SN>> Yellow
  BackgroundColor<<SO>> SlateBlue
  BackgroundColor<<TF>> LightGray
  BackgroundColor<<TR>> Tomato
  BackgroundColor<<U>> White
  BackgroundColor<<V>> WhiteSmoke
  BackgroundColor<<X>> Aqua
  BackgroundColor<<external>> AliceBlue
}


entity "puml-link:dhw:sqldb:docs.ftv_repoobject_reference_plantuml_entityreflist.adoc[]" as docs.ftv_RepoObject_Reference_PlantUml_EntityRefList << IF >> {
  --
}

entity "puml-link:dhw:sqldb:docs.objectrefcyclic.adoc[]" as docs.ObjectRefCyclic << V >> {
  --
}

entity "puml-link:dhw:sqldb:docs.objectrefcyclic_entitylist.adoc[]" as docs.ObjectRefCyclic_EntityList << V >> {
  --
}

entity "puml-link:dhw:sqldb:docs.repoobject_adoc.adoc[]" as docs.RepoObject_Adoc << V >> {
  --
}

entity "puml-link:dhw:sqldb:docs.repoobject_adoc_t.adoc[]" as docs.RepoObject_Adoc_T << U >> {
  - **RepoObject_guid** : (uniqueidentifier)
  - **cultures_name** : (nvarchar(10))
  --
}

entity "puml-link:dhw:sqldb:docs.repoobject_columnlist.adoc[]" as docs.RepoObject_ColumnList << V >> {
  --
}

entity "puml-link:dhw:sqldb:docs.repoobject_columnlist_t.adoc[]" as docs.RepoObject_ColumnList_T << U >> {
  - **RepoObject_guid** : (uniqueidentifier)
  - **cultures_name** : (nvarchar(10))
  --
}

entity "puml-link:dhw:sqldb:docs.repoobject_plantuml.adoc[]" as docs.RepoObject_Plantuml << V >> {
  - **RepoObject_guid** : (uniqueidentifier)
  **cultures_name** : (nvarchar(10))
  --
}

entity "puml-link:dhw:sqldb:docs.repoobject_plantuml_entity.adoc[]" as docs.RepoObject_Plantuml_Entity << V >> {
  --
}

entity "puml-link:dhw:sqldb:docs.repoobject_plantuml_entity_t.adoc[]" as docs.RepoObject_Plantuml_Entity_T << U >> {
  - **RepoObject_guid** : (uniqueidentifier)
  - **cultures_name** : (nvarchar(10))
  --
}

entity "puml-link:dhw:sqldb:docs.repoobject_plantuml_pumlentityfklist.adoc[]" as docs.RepoObject_PlantUml_PumlEntityFkList << V >> {
  **RepoObject_guid** : (uniqueidentifier)
  --
}

entity "puml-link:dhw:sqldb:docs.repoobject_plantuml_t.adoc[]" as docs.RepoObject_Plantuml_T << U >> {
  - **RepoObject_guid** : (uniqueidentifier)
  **cultures_name** : (nvarchar(10))
  --
}

entity "puml-link:dhw:sqldb:docs.schema_entitylist.adoc[]" as docs.Schema_EntityList << V >> {
  - **RepoObject_schema_name** : (nvarchar(128))
  - **cultures_name** : (nvarchar(10))
  --
}

entity "puml-link:dhw:sqldb:docs.schema_puml.adoc[]" as docs.Schema_puml << V >> {
  - **RepoSchema_guid** : (uniqueidentifier)
  **cultures_name** : (nvarchar(10))
  --
}

entity "puml-link:dhw:sqldb:docs.usp_antoraexport.adoc[]" as docs.usp_AntoraExport << P >> {
  --
}

entity "puml-link:dhw:sqldb:docs.usp_antoraexport_objectpartialproperties.adoc[]" as docs.usp_AntoraExport_ObjectPartialProperties << P >> {
  --
}

entity "puml-link:dhw:sqldb:docs.usp_antoraexport_objectpuml.adoc[]" as docs.usp_AntoraExport_ObjectPuml << P >> {
  --
}

entity "puml-link:dhw:sqldb:docs.usp_persist_repoobject_adoc_t.adoc[]" as docs.usp_PERSIST_RepoObject_Adoc_T << P >> {
  --
}

entity "puml-link:dhw:sqldb:docs.usp_persist_repoobject_columnlist_t.adoc[]" as docs.usp_PERSIST_RepoObject_ColumnList_T << P >> {
  --
}

entity "puml-link:dhw:sqldb:docs.usp_persist_repoobject_plantuml_entity_t.adoc[]" as docs.usp_PERSIST_RepoObject_Plantuml_Entity_T << P >> {
  --
}

entity "puml-link:dhw:sqldb:docs.usp_persist_repoobject_plantuml_t.adoc[]" as docs.usp_PERSIST_RepoObject_Plantuml_T << P >> {
  --
}

entity "puml-link:dhw:sqldb:property.repoobjectproperty_collect_source_rogross.adoc[]" as property.RepoObjectProperty_Collect_source_ROGross << V >> {
  - **RepoObject_guid** : (uniqueidentifier)
  - **property_name** : (varchar(39))
  --
}

entity "puml-link:dhw:sqldb:property.usp_repoobject_inheritance.adoc[]" as property.usp_RepoObject_Inheritance << P >> {
  --
}

entity "puml-link:dhw:sqldb:property.usp_repoobjectproperty_collect.adoc[]" as property.usp_RepoObjectProperty_collect << P >> {
  --
}

entity "puml-link:dhw:sqldb:reference.ftv_repoobject_columreferencerepoobject.adoc[]" as reference.ftv_RepoObject_ColumReferenceRepoObject << IF >> {
  --
}

entity "puml-link:dhw:sqldb:repo.repoobject_columnlist.adoc[]" as repo.RepoObject_ColumnList << V >> {
  --
}

entity "puml-link:dhw:sqldb:repo.repoobject_gross2.adoc[]" as repo.RepoObject_gross2 << V >> {
  --
}

entity "puml-link:dhw:sqldb:repo.repoobject_sat2.adoc[]" as repo.RepoObject_sat2 << V >> {
  - **RepoObject_guid** : (uniqueidentifier)
  --
}

entity "puml-link:dhw:sqldb:repo.repoobject_sat2_t.adoc[]" as repo.RepoObject_sat2_T << U >> {
  - **RepoObject_guid** : (uniqueidentifier)
  --
}

entity "puml-link:dhw:sqldb:repo.repoobject_sqlcreatetable.adoc[]" as repo.RepoObject_SqlCreateTable << V >> {
  - **RepoObject_guid** : (uniqueidentifier)
  --
}

entity "puml-link:dhw:sqldb:repo.repoobjectcolumn_gross2.adoc[]" as repo.RepoObjectColumn_gross2 << V >> {
  --
}

entity "puml-link:dhw:sqldb:repo.usp_main.adoc[]" as repo.usp_main << P >> {
  --
}

entity "puml-link:dhw:sqldb:repo.usp_persist_repoobject_sat2_t.adoc[]" as repo.usp_PERSIST_RepoObject_sat2_T << P >> {
  --
}

entity "puml-link:dhw:sqldb:uspgenerator.generatoruspstep_persistence_src.adoc[]" as uspgenerator.GeneratorUspStep_Persistence_src << V >> {
  - **usp_id** : (int)
  --
}

entity "puml-link:dhw:sqldb:uspgenerator.usp_generatorusp_insert_update_persistence.adoc[]" as uspgenerator.usp_GeneratorUsp_insert_update_persistence << P >> {
  --
}

docs.ftv_RepoObject_Reference_PlantUml_EntityRefList <.. docs.RepoObject_Plantuml
docs.ObjectRefCyclic_EntityList <.. docs.ObjectRefCyclic
docs.RepoObject_Adoc <.. docs.usp_PERSIST_RepoObject_Adoc_T
docs.RepoObject_Adoc <.. docs.RepoObject_Adoc_T
docs.REpoObject_Adoc_T <.. docs.usp_PERSIST_RepoObject_Adoc_T
docs.RepoObject_ColumnList <.. docs.usp_PERSIST_RepoObject_ColumnList_T
docs.RepoObject_ColumnList <.. docs.RepoObject_ColumnList_T
docs.RepoObject_ColumnList_T <.. docs.usp_PERSIST_RepoObject_ColumnList_T
docs.RepoObject_ColumnList_T <.. docs.RepoObject_Plantuml_Entity
docs.RepoObject_ColumnList_T <.. docs.RepoObject_Adoc
docs.RepoObject_Plantuml <.. docs.usp_PERSIST_RepoObject_Plantuml_T
docs.RepoObject_Plantuml <.. docs.RepoObject_Plantuml_T
docs.RepoObject_Plantuml_Entity <.. docs.usp_PERSIST_RepoObject_Plantuml_Entity_T
docs.RepoObject_Plantuml_Entity <.. docs.RepoObject_Plantuml_Entity_T
docs.RepoObject_Plantuml_Entity_T <.. docs.usp_PERSIST_RepoObject_Plantuml_Entity_T
docs.RepoObject_Plantuml_Entity_T <.. docs.Schema_EntityList
docs.RepoObject_Plantuml_Entity_T <.. docs.ObjectRefCyclic_EntityList
docs.RepoObject_Plantuml_Entity_T <.. docs.RepoObject_PlantUml_PumlEntityFkList
docs.RepoObject_Plantuml_Entity_T <.. docs.ftv_RepoObject_Reference_PlantUml_EntityRefList
docs.RepoObject_PlantUml_PumlEntityFkList <.. docs.RepoObject_Plantuml
docs.RepoObject_Plantuml_T <.. docs.usp_PERSIST_RepoObject_Plantuml_T
docs.Schema_EntityList <.. docs.Schema_puml
docs.Schema_puml <.. docs.usp_AntoraExport_ObjectPuml
docs.usp_AntoraExport_ObjectPartialProperties <.. docs.usp_AntoraExport
docs.usp_AntoraExport_ObjectPuml <.. docs.usp_AntoraExport
docs.usp_PERSIST_RepoObject_Adoc_T <.. docs.usp_AntoraExport_ObjectPartialProperties
docs.usp_PERSIST_RepoObject_ColumnList_T <.. docs.usp_AntoraExport_ObjectPartialProperties
docs.usp_PERSIST_RepoObject_Plantuml_Entity_T <.. docs.usp_AntoraExport_ObjectPuml
docs.usp_PERSIST_RepoObject_Plantuml_T <.. docs.usp_AntoraExport_ObjectPuml
property.RepoObjectProperty_Collect_source_ROGross <.. property.usp_RepoObjectProperty_collect
property.usp_RepoObject_Inheritance <.. repo.usp_main
property.usp_RepoObjectProperty_collect <.. repo.usp_main
property.usp_RepoObjectProperty_collect <.. property.usp_RepoObject_Inheritance
repo.RepoObject_ColumnList <.. repo.RepoObject_SqlCreateTable
repo.RepoObject_ColumnList <.. repo.RepoObject_gross2
repo.RepoObject_ColumnList <.. repo.RepoObject_sat2
repo.RepoObject_gross2 <.. uspgenerator.GeneratorUspStep_Persistence_src
repo.RepoObject_sat2 <.. repo.RepoObject_sat2_T
repo.RepoObject_sat2 <.. repo.usp_PERSIST_RepoObject_sat2_T
repo.RepoObject_sat2_T <.. uspgenerator.GeneratorUspStep_Persistence_src
repo.RepoObject_sat2_T <.. property.RepoObjectProperty_Collect_source_ROGross
repo.RepoObject_sat2_T <.. docs.RepoObject_Adoc
repo.RepoObject_sat2_T <.. repo.usp_PERSIST_RepoObject_sat2_T
repo.RepoObject_SqlCreateTable <.. reference.ftv_RepoObject_ColumReferenceRepoObject
repo.RepoObjectColumn_gross2 <.. uspgenerator.usp_GeneratorUsp_insert_update_persistence
repo.RepoObjectColumn_gross2 <.. repo.RepoObject_ColumnList
repo.RepoObjectColumn_gross2 <.. docs.RepoObject_ColumnList
repo.usp_PERSIST_RepoObject_sat2_T <.. repo.usp_main
uspgenerator.GeneratorUspStep_Persistence_src <.. uspgenerator.usp_GeneratorUsp_insert_update_persistence
uspgenerator.usp_GeneratorUsp_insert_update_persistence <.. repo.usp_main
@enduml

