@startuml
'Left to right direction
top to bottom direction
hide circle
'avoide "." issues:
set namespaceSeparator none


skinparam class {
  BackgroundColor White
  BackgroundColor<<FN>> Yellow
  BackgroundColor<<FS>> Yellow
  BackgroundColor<<FT>> LightGray
  BackgroundColor<<IF>> Yellow
  BackgroundColor<<IS>> Yellow
  BackgroundColor<<P>> Aqua
  BackgroundColor<<PC>> Aqua
  BackgroundColor<<SN>> Yellow
  BackgroundColor<<SO>> SlateBlue
  BackgroundColor<<TF>> LightGray
  BackgroundColor<<TR>> Tomato
  BackgroundColor<<U>> White
  BackgroundColor<<V>> WhiteSmoke
  BackgroundColor<<X>> Aqua
  BackgroundColor<<external>> AliceBlue
}


entity "puml-link:dhw:sqldb:ssas.tmschema_columns.adoc[]" as ssas.TMSCHEMA_COLUMNS << U >> {
  - **databasename** : (nvarchar(128))
  - **ID** : (numeric(20, 0))
  --
}

entity "puml-link:dhw:sqldb:ssas.tmschema_columns_t.adoc[]" as ssas.TMSCHEMA_COLUMNS_T << U >> {
  - **databasename** : (nvarchar(128))
  - **ID** : (numeric(20, 0))
  --
}

entity "puml-link:dhw:sqldb:ssas.usp_persist_tmschema_columns_t.adoc[]" as ssas.usp_PERSIST_TMSCHEMA_COLUMNS_T << P >> {
  --
}

ssas.TMSCHEMA_COLUMNS <.. ssas.TMSCHEMA_COLUMNS_T
ssas.TMSCHEMA_COLUMNS <.. ssas.usp_PERSIST_TMSCHEMA_COLUMNS_T
ssas.TMSCHEMA_COLUMNS_T <.. ssas.usp_PERSIST_TMSCHEMA_COLUMNS_Tfooter The diagram is interactive and contains links.
@enduml

