@startuml
'Left to right direction
top to bottom direction
hide circle
'avoide "." issues:
set namespaceSeparator none


skinparam class {
  BackgroundColor White
  BackgroundColor<<FN>> Yellow
  BackgroundColor<<FS>> Yellow
  BackgroundColor<<FT>> LightGray
  BackgroundColor<<IF>> Yellow
  BackgroundColor<<IS>> Yellow
  BackgroundColor<<P>> Aqua
  BackgroundColor<<PC>> Aqua
  BackgroundColor<<SN>> Yellow
  BackgroundColor<<SO>> SlateBlue
  BackgroundColor<<TF>> LightGray
  BackgroundColor<<TR>> Tomato
  BackgroundColor<<U>> White
  BackgroundColor<<V>> WhiteSmoke
  BackgroundColor<<X>> Aqua
  BackgroundColor<<external>> AliceBlue
}


entity "puml-link:dhw:sqldb:repo_sys.usp_dropextendedproperty_level_2.adoc[]" as repo_sys.usp_dropextendedproperty_level_2 << P >> {
  --
}

entity "puml-link:dhw:sqldb:sys_self.extendedproperties.adoc[]" as sys_self.ExtendedProperties << V >> {
  --
}

entity "puml-link:dhw:sqldb:sys_self.extendedproperties_parameterforaddupdatedrop.adoc[]" as sys_self.ExtendedProperties_ParameterForAddUpdateDrop << V >> {
  --
}

entity "puml-link:dhw:sqldb:sys_self.usp_dropextendedproperty_level_1.adoc[]" as sys_self.usp_dropextendedproperty_level_1 << P >> {
  --
}

entity "puml-link:dhw:sqldb:sys_self.usp_dropextendedproperty_level_2.adoc[]" as sys_self.usp_dropextendedproperty_level_2 << P >> {
  --
}

sys_self.ExtendedProperties <.. sys_self.ExtendedProperties_ParameterForAddUpdateDrop
sys_self.ExtendedProperties_ParameterForAddUpdateDrop <.. sys_self.usp_dropextendedproperty_level_2
sys_self.ExtendedProperties_ParameterForAddUpdateDrop <.. repo_sys.usp_dropextendedproperty_level_2
sys_self.ExtendedProperties_ParameterForAddUpdateDrop <.. sys_self.usp_dropextendedproperty_level_1
@enduml

