@startuml
'Left to right direction
top to bottom direction
hide circle
'avoide "." issues:
set namespaceSeparator none


skinparam class {
  BackgroundColor White
  BackgroundColor<<FN>> Yellow
  BackgroundColor<<FS>> Yellow
  BackgroundColor<<FT>> LightGray
  BackgroundColor<<IF>> Yellow
  BackgroundColor<<IS>> Yellow
  BackgroundColor<<P>> Aqua
  BackgroundColor<<PC>> Aqua
  BackgroundColor<<SN>> Yellow
  BackgroundColor<<SO>> SlateBlue
  BackgroundColor<<TF>> LightGray
  BackgroundColor<<TR>> Tomato
  BackgroundColor<<U>> White
  BackgroundColor<<V>> WhiteSmoke
  BackgroundColor<<X>> Aqua
  BackgroundColor<<external>> AliceBlue
}


entity "puml-link:dhw:sqldb:workflow.biml_package.adoc[]" as workflow.Biml_Package << V >> {
  --
}

entity "puml-link:dhw:sqldb:workflow.biml_precedenceconstraints.adoc[]" as workflow.Biml_PrecedenceConstraints << V >> {
  --
}

entity "puml-link:dhw:sqldb:workflow.biml_project.adoc[]" as workflow.Biml_Project << V >> {
  --
}

entity "puml-link:dhw:sqldb:workflow.biml_task.adoc[]" as workflow.Biml_Task << V >> {
  --
}

entity "puml-link:dhw:sqldb:workflow.usp_persist_workflow_proceduredependency_t.adoc[]" as workflow.usp_PERSIST_Workflow_ProcedureDependency_T << P >> {
  --
}

entity "puml-link:dhw:sqldb:workflow.usp_persist_workflowstep.adoc[]" as workflow.usp_PERSIST_WorkflowStep << P >> {
  --
}

entity "puml-link:dhw:sqldb:workflow.usp_workflow.adoc[]" as workflow.usp_workflow << P >> {
  --
}

entity "puml-link:dhw:sqldb:workflow.workflow_proceduredependency.adoc[]" as workflow.Workflow_ProcedureDependency << V >> {
  --
}

entity "puml-link:dhw:sqldb:workflow.workflow_proceduredependency_all.adoc[]" as workflow.Workflow_ProcedureDependency_all << V >> {
  --
}

entity "puml-link:dhw:sqldb:workflow.workflow_proceduredependency_t.adoc[]" as workflow.Workflow_ProcedureDependency_T << U >> {
  - **Workflow_id** : (int)
  - **referenced_Procedure_RepoObject_guid** : (uniqueidentifier)
  - **referencing_Procedure_RepoObject_guid** : (uniqueidentifier)
  --
}

entity "puml-link:dhw:sqldb:workflow.workflow_proceduredependency_t_active.adoc[]" as workflow.Workflow_ProcedureDependency_T_active << V >> {
  --
}

entity "puml-link:dhw:sqldb:workflow.workflow_proceduredependency_t_bidirectional.adoc[]" as workflow.Workflow_ProcedureDependency_T_bidirectional << V >> {
  --
}

entity "puml-link:dhw:sqldb:workflow.workflow_proceduredependency_t_bidirectional_t.adoc[]" as workflow.Workflow_ProcedureDependency_T_bidirectional_T << U >> {
  - **Workflow_id** : (int)
  - **referenced_Procedure_RepoObject_guid** : (uniqueidentifier)
  - **referencing_Procedure_RepoObject_guid** : (uniqueidentifier)
  --
}

entity "puml-link:dhw:sqldb:workflow.workflow_proceduredependency_t_notinsortorder.adoc[]" as workflow.Workflow_ProcedureDependency_T_NotInSortorder << V >> {
  --
}

entity "puml-link:dhw:sqldb:workflow.workflow_proceduredependency_t_notinsortorder_check.adoc[]" as workflow.Workflow_ProcedureDependency_T_NotInSortorder_check << V >> {
  --
}

entity "puml-link:dhw:sqldb:workflow.workflow_proceduredependency_t_redundant.adoc[]" as workflow.Workflow_ProcedureDependency_T_redundant << V >> {
  --
}

entity "puml-link:dhw:sqldb:workflow.workflow_proceduredependency_t_taskname.adoc[]" as workflow.Workflow_ProcedureDependency_T_TaskName << V >> {
  --
}

entity "puml-link:dhw:sqldb:workflow.workflow_proceduredependency_wo_redundant.adoc[]" as workflow.Workflow_ProcedureDependency_wo_redundant << V >> {
  --
}

entity "puml-link:dhw:sqldb:workflow.workflowstep.adoc[]" as workflow.WorkflowStep << U >> {
  - **id** : (int)
  --
}

entity "puml-link:dhw:sqldb:workflow.workflowstep_active.adoc[]" as workflow.WorkflowStep_active << V >> {
  --
}

entity "puml-link:dhw:sqldb:workflow.workflowstep_forupdate.adoc[]" as workflow.WorkflowStep_ForUpdate << V >> {
  --
}

entity "puml-link:dhw:sqldb:workflow.workflowstep_s.adoc[]" as workflow.WorkflowStep_S << V >> {
  - **Workflow_id** : (int)
  **Procedure_RepoObject_guid** : (uniqueidentifier)
  --
}

workflow.Biml_Package <.. workflow.Biml_Project
workflow.Biml_PrecedenceConstraints <.. workflow.Biml_Task
workflow.Biml_Task <.. workflow.Biml_Package
workflow.usp_PERSIST_Workflow_ProcedureDependency_T <.. workflow.usp_workflow
workflow.usp_PERSIST_WorkflowStep <.. workflow.usp_workflow
workflow.Workflow_ProcedureDependency <.. workflow.Workflow_ProcedureDependency_T
workflow.Workflow_ProcedureDependency <.. workflow.usp_PERSIST_Workflow_ProcedureDependency_T
workflow.Workflow_ProcedureDependency_all <.. workflow.Workflow_ProcedureDependency_wo_redundant
workflow.Workflow_ProcedureDependency_T <.. workflow.usp_workflow
workflow.Workflow_ProcedureDependency_T <.. workflow.usp_PERSIST_Workflow_ProcedureDependency_T
workflow.Workflow_ProcedureDependency_T <.. workflow.Workflow_ProcedureDependency_T_active
workflow.Workflow_ProcedureDependency_T <.. workflow.Workflow_ProcedureDependency_T_bidirectional
workflow.Workflow_ProcedureDependency_T_active <.. workflow.Workflow_ProcedureDependency_T_redundant
workflow.Workflow_ProcedureDependency_T_active <.. workflow.Workflow_ProcedureDependency_T_TaskName
workflow.Workflow_ProcedureDependency_T_active <.. workflow.Workflow_ProcedureDependency_T_NotInSortorder
workflow.Workflow_ProcedureDependency_T_bidirectional <.. workflow.Workflow_ProcedureDependency_T_bidirectional_T
workflow.Workflow_ProcedureDependency_T_NotInSortorder <.. workflow.usp_workflow
workflow.Workflow_ProcedureDependency_T_NotInSortorder <.. workflow.Workflow_ProcedureDependency_T_NotInSortorder_check
workflow.Workflow_ProcedureDependency_T_redundant <.. workflow.usp_workflow
workflow.Workflow_ProcedureDependency_T_redundant <.. workflow.Workflow_ProcedureDependency_wo_redundant
workflow.Workflow_ProcedureDependency_T_TaskName <.. workflow.Biml_PrecedenceConstraints
workflow.WorkflowStep <.. workflow.WorkflowStep_active
workflow.WorkflowStep <.. workflow.usp_PERSIST_WorkflowStep
workflow.WorkflowStep <.. workflow.WorkflowStep_ForUpdate
workflow.WorkflowStep_active <.. workflow.Workflow_ProcedureDependency_T_active
workflow.WorkflowStep_active <.. workflow.Workflow_ProcedureDependency
workflow.WorkflowStep_active <.. workflow.Biml_Task
workflow.WorkflowStep_active <.. workflow.Workflow_ProcedureDependency_all
workflow.WorkflowStep_active <.. workflow.usp_workflow
workflow.WorkflowStep_S <.. workflow.usp_PERSIST_WorkflowStep
workflow.WorkflowStep_S <.. workflow.WorkflowStep
@enduml

