@startuml
'Left to right direction
top to bottom direction
hide circle
'avoide "." issues:
set namespaceSeparator none


skinparam class {
  BackgroundColor White
  BackgroundColor<<FN>> Yellow
  BackgroundColor<<FS>> Yellow
  BackgroundColor<<FT>> LightGray
  BackgroundColor<<IF>> Yellow
  BackgroundColor<<IS>> Yellow
  BackgroundColor<<P>> Aqua
  BackgroundColor<<PC>> Aqua
  BackgroundColor<<SN>> Yellow
  BackgroundColor<<SO>> SlateBlue
  BackgroundColor<<TF>> LightGray
  BackgroundColor<<TR>> Tomato
  BackgroundColor<<U>> White
  BackgroundColor<<V>> WhiteSmoke
  BackgroundColor<<X>> Aqua
  BackgroundColor<<external>> AliceBlue
}


entity "puml-link:dhw:sqldb:workflow.biml_package.adoc[]" as workflow.Biml_Package << V >> {
  --
}

entity "puml-link:dhw:sqldb:workflow.biml_precedenceconstraints.adoc[]" as workflow.Biml_PrecedenceConstraints << V >> {
  --
}

entity "puml-link:dhw:sqldb:workflow.biml_project.adoc[]" as workflow.Biml_Project << V >> {
  --
}

entity "puml-link:dhw:sqldb:workflow.biml_task.adoc[]" as workflow.Biml_Task << V >> {
  --
}

entity "puml-link:dhw:sqldb:workflow.usp_workflow.adoc[]" as workflow.usp_workflow << P >> {
  --
}

entity "puml-link:dhw:sqldb:workflow.workflow_proceduredependency_t_active.adoc[]" as workflow.Workflow_ProcedureDependency_T_active << V >> {
  --
}

entity "puml-link:dhw:sqldb:workflow.workflow_proceduredependency_t_notinsortorder.adoc[]" as workflow.Workflow_ProcedureDependency_T_NotInSortorder << V >> {
  --
}

entity "puml-link:dhw:sqldb:workflow.workflow_proceduredependency_t_notinsortorder_check.adoc[]" as workflow.Workflow_ProcedureDependency_T_NotInSortorder_check << V >> {
  --
}

entity "puml-link:dhw:sqldb:workflow.workflow_proceduredependency_t_redundant.adoc[]" as workflow.Workflow_ProcedureDependency_T_redundant << V >> {
  --
}

entity "puml-link:dhw:sqldb:workflow.workflow_proceduredependency_t_taskname.adoc[]" as workflow.Workflow_ProcedureDependency_T_TaskName << V >> {
  --
}

entity "puml-link:dhw:sqldb:workflow.workflow_proceduredependency_wo_redundant.adoc[]" as workflow.Workflow_ProcedureDependency_wo_redundant << V >> {
  --
}

workflow.Biml_Package <.. workflow.Biml_Project
workflow.Biml_PrecedenceConstraints <.. workflow.Biml_Task
workflow.Biml_Task <.. workflow.Biml_Package
workflow.Workflow_ProcedureDependency_T_active <.. workflow.Workflow_ProcedureDependency_T_NotInSortorder
workflow.Workflow_ProcedureDependency_T_active <.. workflow.Workflow_ProcedureDependency_T_TaskName
workflow.Workflow_ProcedureDependency_T_active <.. workflow.Workflow_ProcedureDependency_T_redundant
workflow.Workflow_ProcedureDependency_T_NotInSortorder <.. workflow.usp_workflow
workflow.Workflow_ProcedureDependency_T_NotInSortorder <.. workflow.Workflow_ProcedureDependency_T_NotInSortorder_check
workflow.Workflow_ProcedureDependency_T_redundant <.. workflow.Workflow_ProcedureDependency_wo_redundant
workflow.Workflow_ProcedureDependency_T_redundant <.. workflow.usp_workflow
workflow.Workflow_ProcedureDependency_T_TaskName <.. workflow.Biml_PrecedenceConstraintsfooter The diagram is interactive and contains links.
@enduml

