@startuml
left to right direction
'top to bottom direction
hide circle
'avoide "." issues:
set namespaceSeparator none


skinparam class {
  BackgroundColor White
  BackgroundColor<<FN>> Yellow
  BackgroundColor<<FS>> Yellow
  BackgroundColor<<FT>> LightGray
  BackgroundColor<<IF>> Yellow
  BackgroundColor<<IS>> Yellow
  BackgroundColor<<P>> Aqua
  BackgroundColor<<PC>> Aqua
  BackgroundColor<<SN>> Yellow
  BackgroundColor<<SO>> SlateBlue
  BackgroundColor<<TF>> LightGray
  BackgroundColor<<TR>> Tomato
  BackgroundColor<<U>> White
  BackgroundColor<<V>> WhiteSmoke
  BackgroundColor<<X>> Aqua
  BackgroundColor<<external>> AliceBlue
}


entity "puml-link:dhw:sqldb:config.ssasdatabasename.adoc[]" as config.SsasDatabasename << U >> {
  - **databasename** : (nvarchar(128))
  --
  - isActive : (bit)
  - isCurrentImport : (bit)
  - LinkedServer : (nvarchar(128))
  --
  --
}

entity "puml-link:dhw:sqldb:configt.ssasdmvtableimport_dmvcolumnlist.adoc[]" as configT.SsasDmvTableImport_DmvColumnList << V >> {
  --
  DmvColumnList : (nvarchar(4000))
  DmvTableName : (nvarchar(128))
  --
  --
}

entity "puml-link:dhw:sqldb:configt.ssasdmvtableimport_importsql.adoc[]" as configT.SsasDmvTableImport_ImportSql << V >> {
  --
  - databasename : (nvarchar(128))
  - DeleteInsertSql : (nvarchar(4000))
  - ExecPersistSql : (nvarchar(161))
  - isActive : (bit)
  - isCurrentImport : (bit)
  - LinkedServer : (nvarchar(128))
  - truncateSql : (nvarchar(156))
  --
  --
}

config.SsasDatabasename <.. configT.SsasDmvTableImport_ImportSql
configT.SsasDmvTableImport_DmvColumnList <.. configT.SsasDmvTableImport_ImportSql
"config.SsasDatabasename::databasename" <-- "configT.SsasDmvTableImport_ImportSql::databasename"
"config.SsasDatabasename::isActive" <-- "configT.SsasDmvTableImport_ImportSql::isActive"
"config.SsasDatabasename::isCurrentImport" <-- "configT.SsasDmvTableImport_ImportSql::isCurrentImport"
"config.SsasDatabasename::LinkedServer" <-- "configT.SsasDmvTableImport_ImportSql::LinkedServer"
@enduml

