@startuml
left to right direction
'top to bottom direction
hide circle
'avoide "." issues:
set namespaceSeparator none


skinparam class {
  BackgroundColor White
  BackgroundColor<<FN>> Yellow
  BackgroundColor<<FS>> Yellow
  BackgroundColor<<FT>> LightGray
  BackgroundColor<<IF>> Yellow
  BackgroundColor<<IS>> Yellow
  BackgroundColor<<P>> Aqua
  BackgroundColor<<PC>> Aqua
  BackgroundColor<<SN>> Yellow
  BackgroundColor<<SO>> SlateBlue
  BackgroundColor<<TF>> LightGray
  BackgroundColor<<TR>> Tomato
  BackgroundColor<<U>> White
  BackgroundColor<<V>> WhiteSmoke
  BackgroundColor<<X>> Aqua
  BackgroundColor<<external>> AliceBlue
}


entity "puml-link:dhw:sqldb:configt.ssasdmvtableimport.adoc[]" as configT.SsasDmvTableImport << V >> {
  DmvTableName : (nvarchar(128))
  isActive : (bit)
  --
}

entity "puml-link:dhw:sqldb:configt.ssasdmvtableimport_dmvcolumnlist.adoc[]" as configT.SsasDmvTableImport_DmvColumnList << V >> {
  DmvColumnList : (nvarchar(4000))
  DmvTableName : (nvarchar(128))
  --
}

configT.SsasDmvTableImport <.. configT.SsasDmvTableImport_DmvColumnList
"configT.SsasDmvTableImport::DmvTableName" <-- "configT.SsasDmvTableImport_DmvColumnList::DmvTableName"footer The diagram is interactive and contains links.
@enduml

