@startuml
left to right direction
'top to bottom direction
hide circle
'avoide "." issues:
set namespaceSeparator none


skinparam class {
  BackgroundColor White
  BackgroundColor<<FN>> Yellow
  BackgroundColor<<FS>> Yellow
  BackgroundColor<<FT>> LightGray
  BackgroundColor<<IF>> Yellow
  BackgroundColor<<IS>> Yellow
  BackgroundColor<<P>> Aqua
  BackgroundColor<<PC>> Aqua
  BackgroundColor<<SN>> Yellow
  BackgroundColor<<SO>> SlateBlue
  BackgroundColor<<TF>> LightGray
  BackgroundColor<<TR>> Tomato
  BackgroundColor<<U>> White
  BackgroundColor<<V>> WhiteSmoke
  BackgroundColor<<X>> Aqua
  BackgroundColor<<external>> AliceBlue
}


entity "puml-link:dhw:sqldb:config.usp_connect_database.adoc[]" as config.usp_connect_database << P >> {
  --
  --
  --
}

entity "puml-link:dhw:sqldb:configt.spt_values.adoc[]" as configT.spt_values << U >> {
  --
  high : (int)
  low : (int)
  name : (nvarchar(35))
  - number : (int)
  status : (int)
  - type : (nchar(3))
  --
  --
}

entity "puml-link:dhw:sqldb:configt.usp_init_spt_values.adoc[]" as configT.usp_init_spt_values << P >> {
  --
  --
  --
}

configT.spt_values <.. configT.usp_init_spt_values
configT.usp_init_spt_values <.. config.usp_connect_database

@enduml

