@startuml
left to right direction
'top to bottom direction
hide circle
'avoide "." issues:
set namespaceSeparator none


skinparam class {
  BackgroundColor White
  BackgroundColor<<FN>> Yellow
  BackgroundColor<<FS>> Yellow
  BackgroundColor<<FT>> LightGray
  BackgroundColor<<IF>> Yellow
  BackgroundColor<<IS>> Yellow
  BackgroundColor<<P>> Aqua
  BackgroundColor<<PC>> Aqua
  BackgroundColor<<SN>> Yellow
  BackgroundColor<<SO>> SlateBlue
  BackgroundColor<<TF>> LightGray
  BackgroundColor<<TR>> Tomato
  BackgroundColor<<U>> White
  BackgroundColor<<V>> WhiteSmoke
  BackgroundColor<<X>> Aqua
  BackgroundColor<<external>> AliceBlue
}


entity "puml-link:dhw:sqldb:config.usp_connect_database.adoc[]" as config.usp_connect_database << P >> {
  --
}

entity "puml-link:dhw:sqldb:config.usp_init_parameter.adoc[]" as config.usp_init_parameter << P >> {
  --
}

entity "puml-link:dhw:sqldb:config.usp_parameter_set.adoc[]" as config.usp_parameter_set << P >> {
  --
}

entity "puml-link:dhw:sqldb:configt.usp_init_spt_values.adoc[]" as configT.usp_init_spt_values << P >> {
  --
}

config.usp_init_parameter <.. config.usp_connect_database
config.usp_parameter_set <.. config.usp_connect_database
configT.usp_init_spt_values <.. config.usp_connect_database
footer The diagram is interactive and contains links.
@enduml

