@startuml
left to right direction
'top to bottom direction
hide circle
'avoide "." issues:
set namespaceSeparator none


skinparam class {
  BackgroundColor White
  BackgroundColor<<FN>> Yellow
  BackgroundColor<<FS>> Yellow
  BackgroundColor<<FT>> LightGray
  BackgroundColor<<IF>> Yellow
  BackgroundColor<<IS>> Yellow
  BackgroundColor<<P>> Aqua
  BackgroundColor<<PC>> Aqua
  BackgroundColor<<SN>> Yellow
  BackgroundColor<<SO>> SlateBlue
  BackgroundColor<<TF>> LightGray
  BackgroundColor<<TR>> Tomato
  BackgroundColor<<U>> White
  BackgroundColor<<V>> WhiteSmoke
  BackgroundColor<<X>> Aqua
  BackgroundColor<<external>> AliceBlue
}


entity "puml-link:dhw:sqldb:dbeaver.datasources.adoc[]" as dbeaver.DataSources << U >> {
  - **id** : (int)
  BulkColumn : (varchar(max))
  ~ is_json : (int)
  --
}

entity "puml-link:dhw:sqldb:dbeaver.datasources_dbschematable.adoc[]" as dbeaver.DataSources_DbSchemaTable << V >> {
  BulkColumn : (varchar(max))
  - id : (int)
  is_json : (int)
  - VirtualModel_database : (nvarchar(4000))
  VirtualModel_database_json : (nvarchar(max))
  VirtualModel_json : (nvarchar(max))
  - VirtualModel_key : (nvarchar(4000))
  - VirtualModel_schema : (nvarchar(4000))
  VirtualModel_schema_json : (nvarchar(max))
  VirtualModel_table : (nvarchar(500))
  VirtualModel_table_constraints_json : (nvarchar(max))
  VirtualModel_table_FK_json : (nvarchar(max))
  VirtualModel_table_json : (nvarchar(max))
  VirtualModel_table_properties_json : (nvarchar(max))
  VirtualModels : (nvarchar(max))
  --
}

entity "puml-link:dhw:sqldb:dbeaver.datasources_dbschematable_constraint.adoc[]" as dbeaver.DataSources_DbSchemaTable_constraint << V >> {
  BulkColumn : (varchar(max))
  - id : (int)
  is_json : (int)
  - key : (nvarchar(4000))
  - type : (tinyint)
  value : (nvarchar(max))
  - VirtualModel_database : (nvarchar(4000))
  VirtualModel_database_json : (nvarchar(max))
  VirtualModel_json : (nvarchar(max))
  - VirtualModel_key : (nvarchar(4000))
  - VirtualModel_schema : (nvarchar(4000))
  VirtualModel_schema_json : (nvarchar(max))
  VirtualModel_table : (nvarchar(500))
  VirtualModel_table_constraint_attributes_json : (nvarchar(max))
  VirtualModel_table_constraint_type : (nvarchar(max))
  VirtualModel_table_constraints_json : (nvarchar(max))
  VirtualModel_table_json : (nvarchar(max))
  VirtualModels : (nvarchar(max))
  --
}

entity "puml-link:dhw:sqldb:dbeaver.datasources_dbschematable_fk.adoc[]" as dbeaver.DataSources_DbSchemaTable_FK << V >> {
  BulkColumn : (varchar(max))
  - id : (int)
  is_json : (int)
  - key : (nvarchar(4000))
  - type : (tinyint)
  value : (nvarchar(max))
  - VirtualModel_database : (nvarchar(4000))
  VirtualModel_database_json : (nvarchar(max))
  VirtualModel_json : (nvarchar(max))
  - VirtualModel_key : (nvarchar(4000))
  - VirtualModel_schema : (nvarchar(4000))
  VirtualModel_schema_json : (nvarchar(max))
  VirtualModel_table : (nvarchar(500))
  VirtualModel_table_FK_attributes_json : (nvarchar(max))
  VirtualModel_table_FK_constraint : (nvarchar(500))
  VirtualModel_table_FK_entity : (nvarchar(500))
  VirtualModel_table_FK_json : (nvarchar(max))
  VirtualModel_table_json : (nvarchar(max))
  VirtualModels : (nvarchar(max))
  --
}

dbeaver.DataSources <.. dbeaver.DataSources_DbSchemaTable
dbeaver.DataSources_DbSchemaTable <.. dbeaver.DataSources_DbSchemaTable_constraint
dbeaver.DataSources_DbSchemaTable <.. dbeaver.DataSources_DbSchemaTable_FK
"dbeaver.DataSources_DbSchemaTable::BulkColumn" <-- "dbeaver.DataSources_DbSchemaTable_constraint::BulkColumn"
"dbeaver.DataSources_DbSchemaTable::BulkColumn" <-- "dbeaver.DataSources_DbSchemaTable_FK::BulkColumn"
"dbeaver.DataSources_DbSchemaTable::id" <-- "dbeaver.DataSources_DbSchemaTable_FK::id"
"dbeaver.DataSources_DbSchemaTable::id" <-- "dbeaver.DataSources_DbSchemaTable_constraint::id"
"dbeaver.DataSources_DbSchemaTable::is_json" <-- "dbeaver.DataSources_DbSchemaTable_FK::is_json"
"dbeaver.DataSources_DbSchemaTable::is_json" <-- "dbeaver.DataSources_DbSchemaTable_constraint::is_json"
"dbeaver.DataSources_DbSchemaTable::VirtualModel_database" <-- "dbeaver.DataSources_DbSchemaTable_constraint::VirtualModel_database"
"dbeaver.DataSources_DbSchemaTable::VirtualModel_database" <-- "dbeaver.DataSources_DbSchemaTable_FK::VirtualModel_database"
"dbeaver.DataSources_DbSchemaTable::VirtualModel_database_json" <-- "dbeaver.DataSources_DbSchemaTable_FK::VirtualModel_database_json"
"dbeaver.DataSources_DbSchemaTable::VirtualModel_database_json" <-- "dbeaver.DataSources_DbSchemaTable_constraint::VirtualModel_database_json"
"dbeaver.DataSources_DbSchemaTable::VirtualModel_json" <-- "dbeaver.DataSources_DbSchemaTable_constraint::VirtualModel_json"
"dbeaver.DataSources_DbSchemaTable::VirtualModel_json" <-- "dbeaver.DataSources_DbSchemaTable_FK::VirtualModel_json"
"dbeaver.DataSources_DbSchemaTable::VirtualModel_key" <-- "dbeaver.DataSources_DbSchemaTable_constraint::VirtualModel_key"
"dbeaver.DataSources_DbSchemaTable::VirtualModel_key" <-- "dbeaver.DataSources_DbSchemaTable_FK::VirtualModel_key"
"dbeaver.DataSources_DbSchemaTable::VirtualModel_schema" <-- "dbeaver.DataSources_DbSchemaTable_FK::VirtualModel_schema"
"dbeaver.DataSources_DbSchemaTable::VirtualModel_schema" <-- "dbeaver.DataSources_DbSchemaTable_constraint::VirtualModel_schema"
"dbeaver.DataSources_DbSchemaTable::VirtualModel_schema_json" <-- "dbeaver.DataSources_DbSchemaTable_constraint::VirtualModel_schema_json"
"dbeaver.DataSources_DbSchemaTable::VirtualModel_schema_json" <-- "dbeaver.DataSources_DbSchemaTable_FK::VirtualModel_schema_json"
"dbeaver.DataSources_DbSchemaTable::VirtualModel_table" <-- "dbeaver.DataSources_DbSchemaTable_FK::VirtualModel_table"
"dbeaver.DataSources_DbSchemaTable::VirtualModel_table" <-- "dbeaver.DataSources_DbSchemaTable_constraint::VirtualModel_table"
"dbeaver.DataSources_DbSchemaTable::VirtualModel_table_constraints_json" <-- "dbeaver.DataSources_DbSchemaTable_constraint::VirtualModel_table_constraints_json"
"dbeaver.DataSources_DbSchemaTable::VirtualModel_table_FK_json" <-- "dbeaver.DataSources_DbSchemaTable_FK::VirtualModel_table_FK_json"
"dbeaver.DataSources_DbSchemaTable::VirtualModel_table_json" <-- "dbeaver.DataSources_DbSchemaTable_FK::VirtualModel_table_json"
"dbeaver.DataSources_DbSchemaTable::VirtualModel_table_json" <-- "dbeaver.DataSources_DbSchemaTable_constraint::VirtualModel_table_json"
"dbeaver.DataSources_DbSchemaTable::VirtualModels" <-- "dbeaver.DataSources_DbSchemaTable_FK::VirtualModels"
"dbeaver.DataSources_DbSchemaTable::VirtualModels" <-- "dbeaver.DataSources_DbSchemaTable_constraint::VirtualModels"footer The diagram is interactive and contains links.
@enduml

