@startuml
left to right direction
'top to bottom direction
hide circle
'avoide "." issues:
set namespaceSeparator none


skinparam class {
  BackgroundColor White
  BackgroundColor<<FN>> Yellow
  BackgroundColor<<FS>> Yellow
  BackgroundColor<<FT>> LightGray
  BackgroundColor<<IF>> Yellow
  BackgroundColor<<IS>> Yellow
  BackgroundColor<<P>> Aqua
  BackgroundColor<<PC>> Aqua
  BackgroundColor<<SN>> Yellow
  BackgroundColor<<SO>> SlateBlue
  BackgroundColor<<TF>> LightGray
  BackgroundColor<<TR>> Tomato
  BackgroundColor<<U>> White
  BackgroundColor<<V>> WhiteSmoke
  BackgroundColor<<X>> Aqua
  BackgroundColor<<external>> AliceBlue
}


entity "puml-link:dhw:sqldb:docs.fs_cleanstringforanchorid.adoc[]" as docs.fs_cleanStringForAnchorId << FN >> {
  --
}

entity "puml-link:dhw:sqldb:docs.fs_cleanstringforheader.adoc[]" as docs.fs_cleanStringForHeader << FN >> {
  --
}

entity "puml-link:dhw:sqldb:docs.ssis_adoc.adoc[]" as docs.ssis_Adoc << V >> {
  - **AntoraModule** : (varchar(50))
  **PackageBasename** : (varchar(8000))
  - AdocContent : (nvarchar(max))
  --
}

entity "puml-link:dhw:sqldb:docs.ssis_parameterlist.adoc[]" as docs.ssis_ParameterList << V >> {
  - AntoraModule : (varchar(50))
  - PackageName : (varchar(200))
  ParameterList : (nvarchar(max))
  --
}

entity "puml-link:dhw:sqldb:ssis.packageparameter.adoc[]" as ssis.PackageParameter << U >> {
  - **AntoraModule** : (varchar(50))
  - **PackageName** : (varchar(200))
  - **ParameterName** : (varchar(500))
  ExpressionValue : (varchar(5000))
  ParameterDataType : (varchar(max))
  ParameterHexValue : (varchar(1000))
  ParameterValue : (varchar(max))
  --
}

docs.fs_cleanStringForAnchorId <.. docs.ssis_ParameterList
docs.fs_cleanStringForHeader <.. docs.ssis_ParameterList
docs.ssis_ParameterList <.. docs.ssis_Adoc
ssis.PackageParameter <.. docs.ssis_ParameterList
"ssis.PackageParameter::AntoraModule" <-- "docs.ssis_ParameterList::AntoraModule"
"ssis.PackageParameter::PackageName" <-- "docs.ssis_ParameterList::PackageName"footer The diagram is interactive and contains links.
@enduml

