@startuml
left to right direction
'top to bottom direction
hide circle
'avoide "." issues:
set namespaceSeparator none


skinparam class {
  BackgroundColor White
  BackgroundColor<<FN>> Yellow
  BackgroundColor<<FS>> Yellow
  BackgroundColor<<FT>> LightGray
  BackgroundColor<<IF>> Yellow
  BackgroundColor<<IS>> Yellow
  BackgroundColor<<P>> Aqua
  BackgroundColor<<PC>> Aqua
  BackgroundColor<<SN>> Yellow
  BackgroundColor<<SO>> SlateBlue
  BackgroundColor<<TF>> LightGray
  BackgroundColor<<TR>> Tomato
  BackgroundColor<<U>> White
  BackgroundColor<<V>> WhiteSmoke
  BackgroundColor<<X>> Aqua
  BackgroundColor<<external>> AliceBlue
}


entity "puml-link:dhw:sqldb:docs.fs_cleanstringforanchorid.adoc[]" as docs.fs_cleanStringForAnchorId << FN >> {
  --
}

entity "puml-link:dhw:sqldb:docs.fs_cleanstringforheader.adoc[]" as docs.fs_cleanStringForHeader << FN >> {
  --
}

entity "puml-link:dhw:sqldb:docs.ssis_dfttaskcomponentoutputcolumnlist.adoc[]" as docs.ssis_DftTaskComponentOutputColumnList << V >> {
  - AntoraModule : (varchar(50))
  Component_refId : (varchar(max))
  - DftTaskComponentOutputColumnList : (nvarchar(max))
  output_refId : (varchar(max))
  PackageName : (varchar(200))
  TaskPath : (varchar(8000))
  --
}

entity "puml-link:dhw:sqldb:docs.ssis_dfttaskcomponentoutputlist.adoc[]" as docs.ssis_DftTaskComponentOutputList << V >> {
  - AntoraModule : (varchar(50))
  Component_refId : (varchar(max))
  DftTaskComponentOutputList : (nvarchar(max))
  PackageName : (varchar(200))
  TaskPath : (varchar(8000))
  --
}

entity "puml-link:dhw:sqldb:ssis.packagetask_dft_component_input_externalmetadatacolumn.adoc[]" as ssis.PackageTask_Dft_Component_input_externalMetadataColumn << U >> {
  - AntoraModule : (varchar(50))
  Column_dataType : (varchar(100))
  Column_length : (int)
  Column_name : (varchar(max))
  Column_precision : (int)
  Column_refId : (varchar(max))
  Column_scale : (int)
  Component_refId : (varchar(max))
  - ControlFlowDetailsRowID : (int)
  externalMetadataColumns_isused : (bit)
  input_errorOrTruncationOperation : (varchar(100))
  input_errorRowDisposition : (varchar(100))
  input_hasSideEffects : (bit)
  input_name : (varchar(500))
  input_refId : (varchar(max))
  PackageName : (varchar(200))
  TaskPath : (varchar(8000))
  --
}

entity "puml-link:dhw:sqldb:ssis.packagetask_dft_component_output_outputcolumn.adoc[]" as ssis.PackageTask_Dft_Component_output_outputcolumn << U >> {
  - AntoraModule : (varchar(50))
  Column_dataType : (varchar(100))
  Column_errorOrTruncationOperation : (varchar(100))
  Column_errorRowDisposition : (varchar(100))
  Column_externalMetadataColumnId : (varchar(max))
  Column_length : (int)
  Column_lineageId : (varchar(max))
  Column_name : (varchar(max))
  Column_precision : (int)
  Column_refId : (varchar(max))
  Column_scale : (int)
  Column_truncationRowDisposition : (varchar(max))
  Component_refId : (varchar(max))
  - ControlFlowDetailsRowID : (int)
  output_isErrorOut : (bit)
  output_name : (varchar(500))
  output_refId : (varchar(max))
  PackageName : (varchar(200))
  TaskPath : (varchar(8000))
  --
}

docs.fs_cleanStringForAnchorId <.. docs.ssis_DftTaskComponentOutputColumnList
docs.fs_cleanStringForHeader <.. docs.ssis_DftTaskComponentOutputColumnList
docs.ssis_DftTaskComponentOutputColumnList <.. docs.ssis_DftTaskComponentOutputList
ssis.PackageTask_Dft_Component_input_externalMetadataColumn <.. docs.ssis_DftTaskComponentOutputColumnList
ssis.PackageTask_Dft_Component_output_outputcolumn <.. docs.ssis_DftTaskComponentOutputColumnList
"ssis.PackageTask_Dft_Component_output_outputcolumn::AntoraModule" <-- "docs.ssis_DftTaskComponentOutputColumnList::AntoraModule"
"ssis.PackageTask_Dft_Component_output_outputcolumn::Component_refId" <-- "docs.ssis_DftTaskComponentOutputColumnList::Component_refId"
"ssis.PackageTask_Dft_Component_output_outputcolumn::output_refId" <-- "docs.ssis_DftTaskComponentOutputColumnList::output_refId"
"ssis.PackageTask_Dft_Component_output_outputcolumn::PackageName" <-- "docs.ssis_DftTaskComponentOutputColumnList::PackageName"
"ssis.PackageTask_Dft_Component_output_outputcolumn::TaskPath" <-- "docs.ssis_DftTaskComponentOutputColumnList::TaskPath"footer The diagram is interactive and contains links.
@enduml

