@startuml
left to right direction
'top to bottom direction
hide circle
'avoide "." issues:
set namespaceSeparator none


skinparam class {
  BackgroundColor White
  BackgroundColor<<FN>> Yellow
  BackgroundColor<<FS>> Yellow
  BackgroundColor<<FT>> LightGray
  BackgroundColor<<IF>> Yellow
  BackgroundColor<<IS>> Yellow
  BackgroundColor<<P>> Aqua
  BackgroundColor<<PC>> Aqua
  BackgroundColor<<SN>> Yellow
  BackgroundColor<<SO>> SlateBlue
  BackgroundColor<<TF>> LightGray
  BackgroundColor<<TR>> Tomato
  BackgroundColor<<U>> White
  BackgroundColor<<V>> WhiteSmoke
  BackgroundColor<<X>> Aqua
  BackgroundColor<<external>> AliceBlue
}


entity "puml-link:dhw:sqldb:docs.fs_cleanstringforpuml.adoc[]" as docs.fs_cleanStringForPuml << FN >> {
  --
  --
  --
}

entity "puml-link:dhw:sqldb:docs.objectrefcyclic.adoc[]" as docs.ObjectRefCyclic << V >> {
  --
  - cultures_name : (nvarchar(10))
  - ObjectRefCyclic_Puml : (nvarchar(max))
  - page_content : (nvarchar(max))
  --
  --
}

entity "puml-link:dhw:sqldb:docs.objectrefcyclic_objectreflist.adoc[]" as docs.ObjectRefCyclic_ObjectRefList << V >> {
  --
  PumlObjectRefList : (nvarchar(max))
  --
  --
}

entity "puml-link:dhw:sqldb:reference.referencetree_cyclic_union.adoc[]" as reference.ReferenceTree_cyclic_union << V >> {
  --
  Referenced_fullname : (nvarchar(261))
  Referenced_fullname2 : (nvarchar(257))
  - Referenced_guid : (uniqueidentifier)
  Referenced_type : (char(2))
  Referencing_fullname : (nvarchar(261))
  Referencing_fullname2 : (nvarchar(257))
  - Referencing_guid : (uniqueidentifier)
  Referencing_type : (varchar(2))
  --
  --
}

docs.fs_cleanStringForPuml <.. docs.ObjectRefCyclic_ObjectRefList
docs.ObjectRefCyclic_ObjectRefList <.. docs.ObjectRefCyclic
reference.ReferenceTree_cyclic_union <.. docs.ObjectRefCyclic_ObjectRefList

@enduml

