@startuml
left to right direction
'top to bottom direction
hide circle
'avoide "." issues:
set namespaceSeparator none


skinparam class {
  BackgroundColor White
  BackgroundColor<<FN>> Yellow
  BackgroundColor<<FS>> Yellow
  BackgroundColor<<FT>> LightGray
  BackgroundColor<<IF>> Yellow
  BackgroundColor<<IS>> Yellow
  BackgroundColor<<P>> Aqua
  BackgroundColor<<PC>> Aqua
  BackgroundColor<<SN>> Yellow
  BackgroundColor<<SO>> SlateBlue
  BackgroundColor<<TF>> LightGray
  BackgroundColor<<TR>> Tomato
  BackgroundColor<<U>> White
  BackgroundColor<<V>> WhiteSmoke
  BackgroundColor<<X>> Aqua
  BackgroundColor<<external>> AliceBlue
}


entity "puml-link:dhw:sqldb:config.fs_get_parameter_value.adoc[]" as config.fs_get_parameter_value << FN >> {
  --
}

entity "puml-link:dhw:sqldb:docs.ssis_navlist_package.adoc[]" as docs.ssis_navlist_package << V >> {
  - AntoraModule : (varchar(50))
  nav_list : (nvarchar(max))
  --
}

entity "puml-link:dhw:sqldb:docs.usp_antoraexport.adoc[]" as docs.usp_AntoraExport << P >> {
  --
}

entity "puml-link:dhw:sqldb:docs.usp_antoraexport_ssisnavigation.adoc[]" as docs.usp_AntoraExport_SsisNavigation << P >> {
  --
}

entity "puml-link:dhw:sqldb:logs.usp_executionlog_insert.adoc[]" as logs.usp_ExecutionLog_insert << P >> {
  --
}

config.fs_get_parameter_value <.. docs.usp_AntoraExport_SsisNavigation
docs.ssis_navlist_package <.. docs.usp_AntoraExport_SsisNavigation
docs.usp_AntoraExport_SsisNavigation <.. docs.usp_AntoraExport
logs.usp_ExecutionLog_insert <.. docs.usp_AntoraExport_SsisNavigation
footer The diagram is interactive and contains links.
@enduml

