@startuml
left to right direction
'top to bottom direction
hide circle
'avoide "." issues:
set namespaceSeparator none


skinparam class {
  BackgroundColor White
  BackgroundColor<<FN>> Yellow
  BackgroundColor<<FS>> Yellow
  BackgroundColor<<FT>> LightGray
  BackgroundColor<<IF>> Yellow
  BackgroundColor<<IS>> Yellow
  BackgroundColor<<P>> Aqua
  BackgroundColor<<PC>> Aqua
  BackgroundColor<<SN>> Yellow
  BackgroundColor<<SO>> SlateBlue
  BackgroundColor<<TF>> LightGray
  BackgroundColor<<TR>> Tomato
  BackgroundColor<<U>> White
  BackgroundColor<<V>> WhiteSmoke
  BackgroundColor<<X>> Aqua
  BackgroundColor<<external>> AliceBlue
}


entity "puml-link:dhw:sqldb:config.fs_get_parameter_value.adoc[]" as config.fs_get_parameter_value << FN >> {
  --
}

entity "puml-link:dhw:sqldb:docs.fs_cleanstringforfilename.adoc[]" as docs.fs_cleanStringForFilename << FN >> {
  --
}

entity "puml-link:dhw:sqldb:docs.usp_antoraexport.adoc[]" as docs.usp_AntoraExport << P >> {
  --
}

entity "puml-link:dhw:sqldb:docs.usp_antoraexport_ssispage.adoc[]" as docs.usp_AntoraExport_SsisPage << P >> {
  --
}

entity "puml-link:dhw:sqldb:logs.usp_executionlog_insert.adoc[]" as logs.usp_ExecutionLog_insert << P >> {
  --
}

entity "puml-link:dhw:sqldb:ssis.package.adoc[]" as ssis.Package << U >> {
  - **AntoraModule** : (varchar(50))
  - **PackageName** : (varchar(200))
  PackageCreationDate : (datetime)
  PackageCreatorComputerName : (nvarchar(500))
  PackageCreatorName : (varchar(1000))
  PackageDescription : (nvarchar(max))
  - PackageDTSID : (uniqueidentifier)
  PackageLastModifiedProductVersion : (nvarchar(500))
  PackageLocaleID : (int)
  PackageObjectName : (nvarchar(500))
  - PackagePath : (varchar(8000))
  PackageProtectionLevel : (varchar(100))
  PackageProtectionLevelName : (varchar(28))
  PackageVersionGUID : (uniqueidentifier)
  - ProjectPath : (varchar(8000))
  - RowID : (int)
  # PackageBasename : (varchar(8000))
  --
}

config.fs_get_parameter_value <.. docs.usp_AntoraExport_SsisPage
docs.fs_cleanStringForFilename <.. docs.usp_AntoraExport_SsisPage
docs.usp_AntoraExport_SsisPage <.. docs.usp_AntoraExport
logs.usp_ExecutionLog_insert <.. docs.usp_AntoraExport_SsisPage
ssis.Package <.. docs.usp_AntoraExport_SsisPage
footer The diagram is interactive and contains links.
@enduml

