@startuml
left to right direction
'top to bottom direction
hide circle
'avoide "." issues:
set namespaceSeparator none


skinparam class {
  BackgroundColor White
  BackgroundColor<<FN>> Yellow
  BackgroundColor<<FS>> Yellow
  BackgroundColor<<FT>> LightGray
  BackgroundColor<<IF>> Yellow
  BackgroundColor<<IS>> Yellow
  BackgroundColor<<P>> Aqua
  BackgroundColor<<PC>> Aqua
  BackgroundColor<<SN>> Yellow
  BackgroundColor<<SO>> SlateBlue
  BackgroundColor<<TF>> LightGray
  BackgroundColor<<TR>> Tomato
  BackgroundColor<<U>> White
  BackgroundColor<<V>> WhiteSmoke
  BackgroundColor<<X>> Aqua
  BackgroundColor<<external>> AliceBlue
}


entity "puml-link:dhw:sqldb:config.ftv_get_parameter_value.adoc[]" as config.ftv_get_parameter_value << IF >> {
  --
  Parameter_value_result : (nvarchar(max))
  Parameter_value_result_date : (date)
  Parameter_value_result_datetime : (datetime)
  Parameter_value_result_int : (int)
  --
  --
}

entity "puml-link:dhw:sqldb:docs.fs_pumlheaderlefttoright.adoc[]" as docs.fs_PumlHeaderLeftToRight << FN >> {
  --
  --
  --
}

entity "puml-link:dhw:sqldb:docs.repoobject_outputfilter_t.adoc[]" as docs.RepoObject_OutputFilter_T << U >> {
  - **RepoObject_guid** : (uniqueidentifier)
  - **cultures_name** : (nvarchar(10))
  --
  AntoraComponent : (nvarchar(max))
  AntoraModule : (nvarchar(max))
  external_AntoraComponent : (nvarchar(128))
  external_AntoraModule : (nvarchar(128))
  external_DatabaseName : (nvarchar(128))
  is_DocsOutput : (int)
  - is_external : (bit)
  - is_ssas : (bit)
  - PumlEntityTopDefault : (nvarchar(max))
  - PumlEntityTopWorkaround : (nvarchar(max))
  RepoObject_DisplayName : (nvarchar(128))
  RepoObject_FullDisplayName2 : (nvarchar(257))
  - RepoObject_fullname : (nvarchar(261))
  - RepoObject_fullname2 : (nvarchar(257))
  - RepoObject_name : (nvarchar(128))
  - RepoObject_schema_name : (nvarchar(128))
  RepoObject_translation : (nvarchar(128))
  SysObject_type : (char(2))
  SysObject_type_name : (nvarchar(128))
  tables_isHidden : (bit)
  --
  --
}

entity "puml-link:dhw:sqldb:docs.schema_entitylist.adoc[]" as docs.Schema_EntityList << V >> {
  - **RepoObject_schema_name** : (nvarchar(128))
  - **cultures_name** : (nvarchar(10))
  --
  EntityList_Puml : (nvarchar(max))
  EntityList_PumlOnlyIndex : (nvarchar(max))
  EntityList_PumlOnlyPK : (nvarchar(max))
  EntityList_PumlOnlyPkOrIndex : (nvarchar(max))
  EntityList_PumlOnlyPkOrIndexOrMeasure : (nvarchar(max))
  EntityList_PumlOnlyPkOrNotHidden : (nvarchar(max))
  --
  --
}

entity "puml-link:dhw:sqldb:docs.schema_plantuml_fkreflist.adoc[]" as docs.Schema_PlantUml_FkRefList << V >> {
  --
  cultures_name : (nvarchar(10))
  FkRefList : (nvarchar(max))
  SchemaName : (nvarchar(128))
  --
  --
}

entity "puml-link:dhw:sqldb:docs.schema_puml.adoc[]" as docs.Schema_puml << V >> {
  - **RepoSchema_guid** : (uniqueidentifier)
  **cultures_name** : (nvarchar(10))
  --
  - is_ssas : (bit)
  - PumlSchemaEr : (nvarchar(max))
  - PumlSchemaIndexEr : (nvarchar(max))
  PumlSchemaSsasEr : (nvarchar(max))
  - RepoSchema_name : (nvarchar(128))
  --
  --
}

entity "puml-link:dhw:sqldb:docs.schema_ssasrelationlist.adoc[]" as docs.Schema_SsasRelationList << V >> {
  - **SchemaName** : (nvarchar(128))
  **cultures_name** : (nvarchar(10))
  --
  SsasRelationList_PumlRelation : (nvarchar(max))
  --
  --
}

entity "puml-link:dhw:sqldb:docs.usp_antoraexport_objectpuml.adoc[]" as docs.usp_AntoraExport_ObjectPuml << P >> {
  --
  --
  --
}

entity "puml-link:dhw:sqldb:repo.reposchema.adoc[]" as repo.RepoSchema << U >> {
  - **RepoSchema_guid** : (uniqueidentifier)
  --
  - is_ssas : (bit)
  is_SysSchema_missing : (bit)
  - MeasuresRepoObjekt_guid : (uniqueidentifier)
  RepoSchema_ms_description : (nvarchar(4000))
  - RepoSchema_name : (nvarchar(128))
  SysSchema_id : (int)
  - SysSchema_name : (nvarchar(128))
  ~ has_different_sys_names : (bit)
  # is_RepoSchema_name_uniqueidentifier : (int)
  # is_SysSchema_name_uniqueidentifier : (int)
  # MeasuresRepoObjekt_name : (varchar(9))
  --
  --
}

config.ftv_get_parameter_value <.. docs.Schema_puml
docs.fs_PumlHeaderLeftToRight <.. docs.Schema_puml
docs.RepoObject_OutputFilter_T <.. docs.Schema_puml
docs.Schema_EntityList <.. docs.Schema_puml
docs.Schema_PlantUml_FkRefList <.. docs.Schema_puml
docs.Schema_puml <.. docs.usp_AntoraExport_ObjectPuml
docs.Schema_SsasRelationList <.. docs.Schema_puml
repo.RepoSchema <.. docs.Schema_puml
"repo.RepoSchema::is_ssas" <-- "docs.Schema_puml::is_ssas"
"repo.RepoSchema::RepoSchema_guid" <-- "docs.Schema_puml::RepoSchema_guid"
"repo.RepoSchema::RepoSchema_name" <-- "docs.Schema_puml::RepoSchema_name"
@enduml

