@startuml
left to right direction
'top to bottom direction
hide circle
'avoide "." issues:
set namespaceSeparator none


skinparam class {
  BackgroundColor White
  BackgroundColor<<FN>> Yellow
  BackgroundColor<<FS>> Yellow
  BackgroundColor<<FT>> LightGray
  BackgroundColor<<IF>> Yellow
  BackgroundColor<<IS>> Yellow
  BackgroundColor<<P>> Aqua
  BackgroundColor<<PC>> Aqua
  BackgroundColor<<SN>> Yellow
  BackgroundColor<<SO>> SlateBlue
  BackgroundColor<<TF>> LightGray
  BackgroundColor<<TR>> Tomato
  BackgroundColor<<U>> White
  BackgroundColor<<V>> WhiteSmoke
  BackgroundColor<<X>> Aqua
  BackgroundColor<<external>> AliceBlue
}


entity "puml-link:dhw:sqldb:configt.type.adoc[]" as configT.type << V >> {
  **type** : (nvarchar(128))
  --
  - is_DocsOutput : (int)
  type_desc : (nvarchar(128))
  --
  --
}

entity "puml-link:dhw:sqldb:docs.antoranavlistpage_by_type.adoc[]" as docs.AntoraNavListPage_by_type << V >> {
  --
  - nav_list : (nvarchar(4000))
  type : (nvarchar(128))
  type_desc : (nvarchar(128))
  --
  --
}

entity "puml-link:dhw:sqldb:docs.fs_cleanstringforfilename.adoc[]" as docs.fs_cleanStringForFilename << FN >> {
  --
  --
  --
}

entity "puml-link:dhw:sqldb:docs.repoobject_outputfilter_t.adoc[]" as docs.RepoObject_OutputFilter_T << U >> {
  - **RepoObject_guid** : (uniqueidentifier)
  - **cultures_name** : (nvarchar(10))
  --
  AntoraComponent : (nvarchar(max))
  AntoraModule : (nvarchar(max))
  external_AntoraComponent : (nvarchar(128))
  external_AntoraModule : (nvarchar(128))
  external_DatabaseName : (nvarchar(128))
  is_DocsOutput : (int)
  - is_external : (bit)
  - is_ssas : (bit)
  - PumlEntityTopDefault : (nvarchar(max))
  - PumlEntityTopWorkaround : (nvarchar(max))
  RepoObject_DisplayName : (nvarchar(128))
  RepoObject_FullDisplayName2 : (nvarchar(257))
  - RepoObject_fullname : (nvarchar(261))
  - RepoObject_fullname2 : (nvarchar(257))
  - RepoObject_name : (nvarchar(128))
  - RepoObject_schema_name : (nvarchar(128))
  RepoObject_translation : (nvarchar(128))
  SysObject_type : (char(2))
  SysObject_type_name : (nvarchar(128))
  tables_isHidden : (bit)
  --
  --
}

entity "puml-link:dhw:sqldb:docs.usp_antoraexport_navigation.adoc[]" as docs.usp_AntoraExport_navigation << P >> {
  --
  --
  --
}

configT.type <.. docs.AntoraNavListPage_by_type
docs.AntoraNavListPage_by_type <.. docs.usp_AntoraExport_navigation
docs.fs_cleanStringForFilename <.. docs.AntoraNavListPage_by_type
docs.RepoObject_OutputFilter_T <.. docs.AntoraNavListPage_by_type
"configT.type::type" <-- "docs.AntoraNavListPage_by_type::type"
"configT.type::type_desc" <-- "docs.AntoraNavListPage_by_type::type_desc"
@enduml

