@startuml
left to right direction
'top to bottom direction
hide circle
'avoide "." issues:
set namespaceSeparator none


skinparam class {
  BackgroundColor White
  BackgroundColor<<FN>> Yellow
  BackgroundColor<<FS>> Yellow
  BackgroundColor<<FT>> LightGray
  BackgroundColor<<IF>> Yellow
  BackgroundColor<<IS>> Yellow
  BackgroundColor<<P>> Aqua
  BackgroundColor<<PC>> Aqua
  BackgroundColor<<SN>> Yellow
  BackgroundColor<<SO>> SlateBlue
  BackgroundColor<<TF>> LightGray
  BackgroundColor<<TR>> Tomato
  BackgroundColor<<U>> White
  BackgroundColor<<V>> WhiteSmoke
  BackgroundColor<<X>> Aqua
  BackgroundColor<<external>> AliceBlue
}


entity "puml-link:dhw:sqldb:docs.ssis_sqltaskparameterinnertable.adoc[]" as docs.ssis_SqlTaskParameterInnerTable << V >> {
  - AntoraModule : (varchar(50))
  - PackageName : (varchar(200))
  - SqlTaskParameterInnerTable : (nvarchar(max))
  - TaskPath : (varchar(8000))
  --
}

entity "puml-link:dhw:sqldb:docs.ssis_task.adoc[]" as docs.ssis_Task << V >> {
  AdocFilename : (nvarchar(4000))
  - AntoraModule : (varchar(50))
  - PackageName : (varchar(200))
  - TaskContent : (nvarchar(max))
  - TaskPath : (varchar(8000))
  --
}

entity "puml-link:dhw:sqldb:docs.ssis_tasklist.adoc[]" as docs.ssis_TaskList << V >> {
  - AntoraModule : (varchar(50))
  - PackageName : (varchar(200))
  TaskList : (nvarchar(max))
  --
}

entity "puml-link:dhw:sqldb:ssis.packagetask_sql_parameter.adoc[]" as ssis.PackageTask_Sql_Parameter << U >> {
  - AntoraModule : (varchar(50))
  - ControlFlowDetailsRowID : (int)
  - PackageName : (varchar(200))
  ParameterBindingParameterName : (varchar(1000))
  - ParameterBindingSequence : (varchar(1000))
  ResultSetParameterName : (varchar(1000))
  - TaskPath : (varchar(8000))
  --
}

docs.ssis_SqlTaskParameterInnerTable <.. docs.ssis_TaskList
docs.ssis_SqlTaskParameterInnerTable <.. docs.ssis_Task
ssis.PackageTask_Sql_Parameter <.. docs.ssis_SqlTaskParameterInnerTable
"ssis.PackageTask_Sql_Parameter::AntoraModule" <-- "docs.ssis_SqlTaskParameterInnerTable::AntoraModule"
"ssis.PackageTask_Sql_Parameter::PackageName" <-- "docs.ssis_SqlTaskParameterInnerTable::PackageName"
"ssis.PackageTask_Sql_Parameter::TaskPath" <-- "docs.ssis_SqlTaskParameterInnerTable::TaskPath"footer The diagram is interactive and contains links.
@enduml

