@startuml
left to right direction
'top to bottom direction
hide circle
'avoide "." issues:
set namespaceSeparator none


skinparam class {
  BackgroundColor White
  BackgroundColor<<FN>> Yellow
  BackgroundColor<<FS>> Yellow
  BackgroundColor<<FT>> LightGray
  BackgroundColor<<IF>> Yellow
  BackgroundColor<<IS>> Yellow
  BackgroundColor<<P>> Aqua
  BackgroundColor<<PC>> Aqua
  BackgroundColor<<SN>> Yellow
  BackgroundColor<<SO>> SlateBlue
  BackgroundColor<<TF>> LightGray
  BackgroundColor<<TR>> Tomato
  BackgroundColor<<U>> White
  BackgroundColor<<V>> WhiteSmoke
  BackgroundColor<<X>> Aqua
  BackgroundColor<<external>> AliceBlue
}


entity "puml-link:dhw:sqldb:docs.culture.adoc[]" as docs.Culture << V >> {
  - cultures_name : (nvarchar(10))
  --
}

entity "puml-link:dhw:sqldb:docs.objectrefcyclic.adoc[]" as docs.ObjectRefCyclic << V >> {
  - cultures_name : (nvarchar(10))
  - ObjectRefCyclic_Puml : (nvarchar(max))
  - page_content : (nvarchar(max))
  --
}

entity "puml-link:dhw:sqldb:docs.repoobject_outputfilter.adoc[]" as docs.RepoObject_OutputFilter << V >> {
  - **RepoObject_guid** : (uniqueidentifier)
  - **cultures_name** : (nvarchar(10))
  AntoraComponent : (nvarchar(max))
  AntoraModule : (nvarchar(max))
  external_AntoraComponent : (nvarchar(128))
  external_AntoraModule : (nvarchar(128))
  external_DatabaseName : (nvarchar(128))
  is_DocsOutput : (int)
  - is_external : (bit)
  - is_ssas : (bit)
  - PumlEntityTopDefault : (nvarchar(max))
  - PumlEntityTopWorkaround : (nvarchar(max))
  RepoObject_DisplayName : (nvarchar(128))
  RepoObject_FullDisplayName2 : (nvarchar(257))
  - RepoObject_fullname : (nvarchar(261))
  - RepoObject_fullname2 : (nvarchar(257))
  - RepoObject_name : (nvarchar(128))
  - RepoObject_schema_name : (nvarchar(128))
  RepoObject_translation : (nvarchar(128))
  SysObject_type : (char(2))
  SysObject_type_name : (nvarchar(128))
  tables_isHidden : (bit)
  --
}

entity "puml-link:dhw:sqldb:docs.usp_antoraexport.adoc[]" as docs.usp_AntoraExport << P >> {
  --
}

entity "puml-link:dhw:sqldb:docs.usp_antoraexport_docsnippet.adoc[]" as docs.usp_AntoraExport_DocSnippet << P >> {
  --
}

entity "puml-link:dhw:sqldb:docs.usp_antoraexport_objectnavigation.adoc[]" as docs.usp_AntoraExport_ObjectNavigation << P >> {
  --
}

entity "puml-link:dhw:sqldb:docs.usp_antoraexport_objectpagetemplate.adoc[]" as docs.usp_AntoraExport_ObjectPageTemplate << P >> {
  --
}

entity "puml-link:dhw:sqldb:docs.usp_antoraexport_objectrefcyclic.adoc[]" as docs.usp_AntoraExport_ObjectRefCyclic << P >> {
  --
}

entity "puml-link:dhw:sqldb:docs.usp_antoraexport_page_indexsemanticgroup.adoc[]" as docs.usp_AntoraExport_Page_IndexSemanticGroup << P >> {
  --
}

entity "puml-link:dhw:sqldb:ssas.measures_translation.adoc[]" as ssas.Measures_translation << V >> {
  - **Measure_guid** : (uniqueidentifier)
  - **cultures_name** : (nvarchar(10))
  **RepoObject_name** : (nvarchar(128))
  displayfolder_DisplayName : (nvarchar(512))
  displayfolder_translation : (nvarchar(512))
  Measure_DisplayName : (nvarchar(500))
  Measure_translation : (nvarchar(128))
  measures_displayFolder : (nvarchar(500))
  - measures_name : (nvarchar(500))
  - RepoSchema_name : (nvarchar(128))
  --
}

entity "puml-link:dhw:sqldb:ssas.model_json_3411_cultures_translations_model_t.adoc[]" as ssas.model_json_3411_cultures_translations_model_T << U >> {
  - **databasename** : (nvarchar(128))
  **cultures_name** : (nvarchar(500))
  cultures_translations_model_name : (nvarchar(500))
  cultures_translations_model_perspectives_ja : (nvarchar(max))
  cultures_translations_model_tables_ja : (nvarchar(max))
  cultures_translations_model_translatedDescription : (nvarchar(max))
  - is_CultureDocsOutput : (bit)
  --
}

entity "puml-link:dhw:sqldb:ssas.repoobjectcolumn_translation.adoc[]" as ssas.RepoObjectColumn_translation << V >> {
  - **RepoObjectColumn_guid** : (uniqueidentifier)
  - **cultures_name** : (nvarchar(10))
  - Column_name : (nvarchar(128))
  cultures_translations_model_name : (nvarchar(500))
  cultures_translations_model_tables_columns_name : (nvarchar(128))
  cultures_translations_model_tables_name : (nvarchar(128))
  databasename : (nvarchar(128))
  displayfolder_DisplayName : (nvarchar(512))
  displayfolder_translation : (nvarchar(512))
  pk_index_guid : (uniqueidentifier)
  - RepoObject_name : (nvarchar(128))
  - RepoObject_schema_name : (nvarchar(128))
  RepoObjectColumn_DisplayName : (nvarchar(128))
  RepoObjectColumn_translation : (nvarchar(128))
  - tabcol_IsHidden : (bit)
  tables_columns_displayFolder : (nvarchar(500))
  tables_columns_name : (nvarchar(128))
  tables_name : (nvarchar(128))
  --
}

docs.culture <.. docs.usp_AntoraExport
docs.Culture <.. docs.usp_AntoraExport_Page_IndexSemanticGroup
docs.culture <.. docs.usp_AntoraExport_ObjectPageTemplate
docs.Culture <.. docs.RepoObject_OutputFilter
docs.culture <.. docs.usp_AntoraExport_ObjectRefCyclic
docs.Culture <.. ssas.RepoObjectColumn_translation
docs.Culture <.. docs.ObjectRefCyclic
docs.Culture <.. docs.usp_AntoraExport_DocSnippet
docs.Culture <.. ssas.Measures_translation
docs.culture <.. docs.usp_AntoraExport_ObjectNavigation
ssas.model_json_3411_cultures_translations_model_T <.. docs.Culture
"docs.Culture::cultures_name" <-- "docs.RepoObject_OutputFilter::cultures_name"
"docs.Culture::cultures_name" <-- "ssas.Measures_translation::cultures_name"
"docs.Culture::cultures_name" <-- "ssas.RepoObjectColumn_translation::cultures_name"
"docs.Culture::cultures_name" <-- "docs.ObjectRefCyclic::cultures_name"footer The diagram is interactive and contains links.
@enduml

