@startuml
left to right direction
'top to bottom direction
hide circle
'avoide "." issues:
set namespaceSeparator none


skinparam class {
  BackgroundColor White
  BackgroundColor<<FN>> Yellow
  BackgroundColor<<FS>> Yellow
  BackgroundColor<<FT>> LightGray
  BackgroundColor<<IF>> Yellow
  BackgroundColor<<IS>> Yellow
  BackgroundColor<<P>> Aqua
  BackgroundColor<<PC>> Aqua
  BackgroundColor<<SN>> Yellow
  BackgroundColor<<SO>> SlateBlue
  BackgroundColor<<TF>> LightGray
  BackgroundColor<<TR>> Tomato
  BackgroundColor<<U>> White
  BackgroundColor<<V>> WhiteSmoke
  BackgroundColor<<X>> Aqua
  BackgroundColor<<external>> AliceBlue
}


entity "puml-link:dhw:sqldb:docs.fs_cleanstringforfilename.adoc[]" as docs.fs_cleanStringForFilename << FN >> {
  --
  --
  --
}

entity "puml-link:dhw:sqldb:docs.objectrefcyclic.adoc[]" as docs.ObjectRefCyclic << V >> {
  --
  - cultures_name : (nvarchar(10))
  - ObjectRefCyclic_Puml : (nvarchar(max))
  - page_content : (nvarchar(max))
  --
  --
}

entity "puml-link:dhw:sqldb:docs.objectrefcyclic_entitylist.adoc[]" as docs.ObjectRefCyclic_EntityList << V >> {
  --
  - cultures_name : (nvarchar(10))
  PumlEntityList : (nvarchar(max))
  PumlEntityOnlyPkList : (nvarchar(max))
  XrefEntityList : (nvarchar(max))
  --
  --
}

entity "puml-link:dhw:sqldb:docs.repoobject_plantuml_entity_t.adoc[]" as docs.RepoObject_Plantuml_Entity_T << U >> {
  - **RepoObject_guid** : (uniqueidentifier)
  - **cultures_name** : (nvarchar(10))
  --
  - RepoObject_fullname2 : (nvarchar(257))
  - RepoObject_Puml : (nvarchar(max))
  - RepoObject_PumlOnlyIndex : (nvarchar(max))
  - RepoObject_PumlOnlyPK : (nvarchar(max))
  - RepoObject_PumlOnlyPkOrIndex : (nvarchar(max))
  - RepoObject_PumlOnlyPkOrIndexOrMeasure : (nvarchar(max))
  - RepoObject_PumlOnlyPkOrNotHidden : (nvarchar(max))
  - RepoObject_schema_name : (nvarchar(128))
  --
  --
}

entity "puml-link:dhw:sqldb:reference.referencetree_cyclic_union.adoc[]" as reference.ReferenceTree_cyclic_union << V >> {
  --
  Referenced_fullname : (nvarchar(261))
  Referenced_fullname2 : (nvarchar(257))
  - Referenced_guid : (uniqueidentifier)
  Referenced_type : (char(2))
  Referencing_fullname : (nvarchar(261))
  Referencing_fullname2 : (nvarchar(257))
  - Referencing_guid : (uniqueidentifier)
  Referencing_type : (varchar(2))
  --
  --
}

docs.fs_cleanStringForFilename <.. docs.ObjectRefCyclic_EntityList
docs.ObjectRefCyclic_EntityList <.. docs.ObjectRefCyclic
docs.RepoObject_Plantuml_Entity_T <.. docs.ObjectRefCyclic_EntityList
reference.ReferenceTree_cyclic_union <.. docs.ObjectRefCyclic_EntityList
"docs.ObjectRefCyclic_EntityList::cultures_name" <-- "docs.ObjectRefCyclic::cultures_name"
"docs.RepoObject_Plantuml_Entity_T::cultures_name" <-- "docs.ObjectRefCyclic_EntityList::cultures_name"
@enduml

