@startuml
left to right direction
'top to bottom direction
hide circle
'avoide "." issues:
set namespaceSeparator none


skinparam class {
  BackgroundColor White
  BackgroundColor<<FN>> Yellow
  BackgroundColor<<FS>> Yellow
  BackgroundColor<<FT>> LightGray
  BackgroundColor<<IF>> Yellow
  BackgroundColor<<IS>> Yellow
  BackgroundColor<<P>> Aqua
  BackgroundColor<<PC>> Aqua
  BackgroundColor<<SN>> Yellow
  BackgroundColor<<SO>> SlateBlue
  BackgroundColor<<TF>> LightGray
  BackgroundColor<<TR>> Tomato
  BackgroundColor<<U>> White
  BackgroundColor<<V>> WhiteSmoke
  BackgroundColor<<X>> Aqua
  BackgroundColor<<external>> AliceBlue
}


entity "puml-link:dhw:sqldb:docs.repoobject_plantuml_entity.adoc[]" as docs.RepoObject_Plantuml_Entity << V >> {
  - cultures_name : (nvarchar(10))
  - RepoObject_fullname2 : (nvarchar(257))
  - RepoObject_guid : (uniqueidentifier)
  - RepoObject_Puml : (nvarchar(max))
  - RepoObject_PumlOnlyIndex : (nvarchar(max))
  - RepoObject_PumlOnlyPK : (nvarchar(max))
  - RepoObject_PumlOnlyPkOrIndex : (nvarchar(max))
  - RepoObject_PumlOnlyPkOrIndexOrMeasure : (nvarchar(max))
  - RepoObject_PumlOnlyPkOrNotHidden : (nvarchar(max))
  - RepoObject_schema_name : (nvarchar(128))
  --
}

entity "puml-link:dhw:sqldb:docs.repoobject_plantuml_entity_t.adoc[]" as docs.RepoObject_Plantuml_Entity_T << U >> {
  - **RepoObject_guid** : (uniqueidentifier)
  - **cultures_name** : (nvarchar(10))
  - RepoObject_fullname2 : (nvarchar(257))
  - RepoObject_Puml : (nvarchar(max))
  - RepoObject_PumlOnlyIndex : (nvarchar(max))
  - RepoObject_PumlOnlyPK : (nvarchar(max))
  - RepoObject_PumlOnlyPkOrIndex : (nvarchar(max))
  - RepoObject_PumlOnlyPkOrIndexOrMeasure : (nvarchar(max))
  - RepoObject_PumlOnlyPkOrNotHidden : (nvarchar(max))
  - RepoObject_schema_name : (nvarchar(128))
  --
}

entity "puml-link:dhw:sqldb:docs.usp_antoraexport_objectpuml.adoc[]" as docs.usp_AntoraExport_ObjectPuml << P >> {
  --
}

entity "puml-link:dhw:sqldb:docs.usp_persist_repoobject_plantuml_entity_t.adoc[]" as docs.usp_PERSIST_RepoObject_Plantuml_Entity_T << P >> {
  --
}

entity "puml-link:dhw:sqldb:logs.usp_executionlog_insert.adoc[]" as logs.usp_ExecutionLog_insert << P >> {
  --
}

docs.RepoObject_Plantuml_Entity <.. docs.usp_PERSIST_RepoObject_Plantuml_Entity_T
docs.RepoObject_Plantuml_Entity_T <.. docs.usp_PERSIST_RepoObject_Plantuml_Entity_T
docs.usp_PERSIST_RepoObject_Plantuml_Entity_T <.. docs.usp_AntoraExport_ObjectPuml
logs.usp_ExecutionLog_insert <.. docs.usp_PERSIST_RepoObject_Plantuml_Entity_T
footer The diagram is interactive and contains links.
@enduml

