@startuml
left to right direction
'top to bottom direction
hide circle
'avoide "." issues:
set namespaceSeparator none


skinparam class {
  BackgroundColor White
  BackgroundColor<<FN>> Yellow
  BackgroundColor<<FS>> Yellow
  BackgroundColor<<FT>> LightGray
  BackgroundColor<<IF>> Yellow
  BackgroundColor<<IS>> Yellow
  BackgroundColor<<P>> Aqua
  BackgroundColor<<PC>> Aqua
  BackgroundColor<<SN>> Yellow
  BackgroundColor<<SO>> SlateBlue
  BackgroundColor<<TF>> LightGray
  BackgroundColor<<TR>> Tomato
  BackgroundColor<<U>> White
  BackgroundColor<<V>> WhiteSmoke
  BackgroundColor<<X>> Aqua
  BackgroundColor<<external>> AliceBlue
}


entity "puml-link:dhw:sqldb:config.fs_dwh_database_name.adoc[]" as config.fs_dwh_database_name << FN >> {
  --
}

entity "puml-link:dhw:sqldb:docs.antoranavlistrepoobject_by_schema.adoc[]" as docs.AntoraNavListRepoObject_by_schema << V >> {
  - cultures_name : (nvarchar(10))
  is_ssas : (tinyint)
  nav_list : (nvarchar(max))
  - RepoObject_schema_name : (nvarchar(128))
  --
}

entity "puml-link:dhw:sqldb:docs.antorapage_objectbyschema.adoc[]" as docs.AntoraPage_ObjectBySchema << V >> {
  - cultures_name : (nvarchar(10))
  - page_content : (nvarchar(4000))
  - partial_content : (nvarchar(4000))
  --
}

entity "puml-link:dhw:sqldb:docs.fs_cleanstringforfilename.adoc[]" as docs.fs_cleanStringForFilename << FN >> {
  --
}

config.fs_dwh_database_name <.. docs.AntoraPage_ObjectBySchema
docs.AntoraNavListRepoObject_by_schema <.. docs.AntoraPage_ObjectBySchema
docs.fs_cleanStringForFilename <.. docs.AntoraPage_ObjectBySchema
"docs.AntoraNavListRepoObject_by_schema::cultures_name" <-- "docs.AntoraPage_ObjectBySchema::cultures_name"footer The diagram is interactive and contains links.
@enduml

