@startuml
left to right direction
'top to bottom direction
hide circle
'avoide "." issues:
set namespaceSeparator none


skinparam class {
  BackgroundColor White
  BackgroundColor<<FN>> Yellow
  BackgroundColor<<FS>> Yellow
  BackgroundColor<<FT>> LightGray
  BackgroundColor<<IF>> Yellow
  BackgroundColor<<IS>> Yellow
  BackgroundColor<<P>> Aqua
  BackgroundColor<<PC>> Aqua
  BackgroundColor<<SN>> Yellow
  BackgroundColor<<SO>> SlateBlue
  BackgroundColor<<TF>> LightGray
  BackgroundColor<<TR>> Tomato
  BackgroundColor<<U>> White
  BackgroundColor<<V>> WhiteSmoke
  BackgroundColor<<X>> Aqua
  BackgroundColor<<external>> AliceBlue
}


entity "puml-link:dhw:sqldb:docs.repoobject_plantuml.adoc[]" as docs.RepoObject_Plantuml << V >> {
  - **RepoObject_guid** : (uniqueidentifier)
  **cultures_name** : (nvarchar(10))
  --
  ColRefList : (nvarchar(max))
  ObjectRefList : (nvarchar(max))
  ObjectRefList_0_30 : (nvarchar(max))
  ObjectRefList_30_0 : (nvarchar(max))
  - PlantumlEntity_0_30_ObjectRef : (nvarchar(max))
  - PlantumlEntity_1_1_ColRef : (nvarchar(max))
  - PlantumlEntity_1_1_FkRef : (nvarchar(max))
  - PlantumlEntity_1_1_ObjectRef : (nvarchar(max))
  - PlantumlEntity_30_0_ObjectRef : (nvarchar(max))
  PumlEntityList : (nvarchar(max))
  PumlEntityList_0_30 : (nvarchar(max))
  PumlEntityList_30_0 : (nvarchar(max))
  - RepoObject_fullname2 : (nvarchar(257))
  --
  --
}

entity "puml-link:dhw:sqldb:docs.repoobject_plantuml_objectreflist_30_0.adoc[]" as docs.RepoObject_Plantuml_ObjectRefList_30_0 << V >> {
  - **RepoObject_guid** : (uniqueidentifier)
  --
  ObjectRefList : (nvarchar(max))
  --
  --
}

entity "puml-link:dhw:sqldb:reference.repoobject_reference_t.adoc[]" as reference.RepoObject_reference_T << U >> {
  **referenced_RepoObject_guid** : (uniqueidentifier)
  **referencing_RepoObject_guid** : (uniqueidentifier)
  --
  - is_ReversePersistenceViaView : (bit)
  referenced_entity_name : (nvarchar(128))
  referenced_external_AntoraComponent : (nvarchar(128))
  referenced_external_AntoraModule : (nvarchar(128))
  referenced_is_external : (int)
  - referenced_is_PersistenceSource : (bit)
  - referenced_is_PersistenceTarget : (bit)
  referenced_schema_name : (nvarchar(128))
  referenced_type : (char(2))
  referencing_entity_name : (nvarchar(128))
  referencing_external_AntoraComponent : (nvarchar(128))
  referencing_external_AntoraModule : (nvarchar(128))
  referencing_is_external : (int)
  - referencing_is_PersistenceTarget : (bit)
  - referencing_is_PersistenceUspSourceRef : (bit)
  referencing_is_PersistenceUspTargetRef : (bit)
  referencing_schema_name : (nvarchar(128))
  referencing_type : (varchar(2))
  # referenced_fullname : (nvarchar(261))
  # referenced_fullname2 : (nvarchar(257))
  ~ referenced_puml_entity : (nvarchar(4000))
  # referencing_fullname : (nvarchar(261))
  # referencing_fullname2 : (nvarchar(257))
  ~ referencing_puml_entity : (nvarchar(4000))
  --
  --
}

entity "puml-link:dhw:sqldb:reference.repoobject_referencetree.adoc[]" as reference.RepoObject_ReferenceTree << U >> {
  - **RepoObject_guid** : (uniqueidentifier)
  **Referenced_Depth** : (int)
  **Referencing_Depth** : (int)
  - **Referenced_guid** : (uniqueidentifier)
  - **Referencing_guid** : (uniqueidentifier)
  --
  Referenced_fullname : (nvarchar(261))
  Referenced_fullname2 : (nvarchar(257))
  Referenced_type : (char(2))
  Referencing_fullname : (nvarchar(261))
  Referencing_fullname2 : (nvarchar(257))
  Referencing_type : (varchar(2))
  --
  --
}

docs.RepoObject_Plantuml_ObjectRefList_30_0 <.. docs.RepoObject_Plantuml
reference.RepoObject_reference_T <.. docs.RepoObject_Plantuml_ObjectRefList_30_0
reference.RepoObject_ReferenceTree <.. docs.RepoObject_Plantuml_ObjectRefList_30_0
"docs.RepoObject_Plantuml_ObjectRefList_30_0::ObjectRefList" <-- "docs.RepoObject_Plantuml::ObjectRefList_30_0"
@enduml

