@startuml
left to right direction
'top to bottom direction
hide circle
'avoide "." issues:
set namespaceSeparator none


skinparam class {
  BackgroundColor White
  BackgroundColor<<FN>> Yellow
  BackgroundColor<<FS>> Yellow
  BackgroundColor<<FT>> LightGray
  BackgroundColor<<IF>> Yellow
  BackgroundColor<<IS>> Yellow
  BackgroundColor<<P>> Aqua
  BackgroundColor<<PC>> Aqua
  BackgroundColor<<SN>> Yellow
  BackgroundColor<<SO>> SlateBlue
  BackgroundColor<<TF>> LightGray
  BackgroundColor<<TR>> Tomato
  BackgroundColor<<U>> White
  BackgroundColor<<V>> WhiteSmoke
  BackgroundColor<<X>> Aqua
  BackgroundColor<<external>> AliceBlue
}


entity "puml-link:dhw:sqldb:docs.repoobject_plantuml.adoc[]" as docs.RepoObject_Plantuml << V >> {
  - **RepoObject_guid** : (uniqueidentifier)
  **cultures_name** : (nvarchar(10))
  ColRefList : (nvarchar(max))
  ObjectRefList : (nvarchar(max))
  ObjectRefList_0_30 : (nvarchar(max))
  ObjectRefList_30_0 : (nvarchar(max))
  - PlantumlEntity_0_30_ObjectRef : (nvarchar(max))
  - PlantumlEntity_1_1_ColRef : (nvarchar(max))
  - PlantumlEntity_1_1_FkRef : (nvarchar(max))
  - PlantumlEntity_1_1_ObjectRef : (nvarchar(max))
  - PlantumlEntity_30_0_ObjectRef : (nvarchar(max))
  PumlEntityList : (nvarchar(max))
  PumlEntityList_0_30 : (nvarchar(max))
  PumlEntityList_30_0 : (nvarchar(max))
  - RepoObject_fullname2 : (nvarchar(257))
  --
}

entity "puml-link:dhw:sqldb:docs.repoobject_plantuml_t.adoc[]" as docs.RepoObject_Plantuml_T << U >> {
  - **RepoObject_guid** : (uniqueidentifier)
  **cultures_name** : (nvarchar(10))
  ColRefList : (nvarchar(max))
  ObjectRefList : (nvarchar(max))
  ObjectRefList_0_30 : (nvarchar(max))
  ObjectRefList_30_0 : (nvarchar(max))
  - PlantumlEntity_0_30_ObjectRef : (nvarchar(max))
  - PlantumlEntity_1_1_ColRef : (nvarchar(max))
  - PlantumlEntity_1_1_FkRef : (nvarchar(max))
  - PlantumlEntity_1_1_ObjectRef : (nvarchar(max))
  - PlantumlEntity_30_0_ObjectRef : (nvarchar(max))
  PumlEntityList : (nvarchar(max))
  PumlEntityList_0_30 : (nvarchar(max))
  PumlEntityList_30_0 : (nvarchar(max))
  - RepoObject_fullname2 : (nvarchar(257))
  --
}

entity "puml-link:dhw:sqldb:docs.usp_antoraexport_objectpuml.adoc[]" as docs.usp_AntoraExport_ObjectPuml << P >> {
  --
}

entity "puml-link:dhw:sqldb:docs.usp_persist_repoobject_plantuml_t.adoc[]" as docs.usp_PERSIST_RepoObject_Plantuml_T << P >> {
  --
}

entity "puml-link:dhw:sqldb:logs.usp_executionlog_insert.adoc[]" as logs.usp_ExecutionLog_insert << P >> {
  --
}

docs.RepoObject_Plantuml <.. docs.usp_PERSIST_RepoObject_Plantuml_T
docs.RepoObject_Plantuml_T <.. docs.usp_PERSIST_RepoObject_Plantuml_T
docs.usp_PERSIST_RepoObject_Plantuml_T <.. docs.usp_AntoraExport_ObjectPuml
logs.usp_ExecutionLog_insert <.. docs.usp_PERSIST_RepoObject_Plantuml_T
footer The diagram is interactive and contains links.
@enduml

