@startuml
left to right direction
'top to bottom direction
hide circle
'avoide "." issues:
set namespaceSeparator none


skinparam class {
  BackgroundColor White
  BackgroundColor<<FN>> Yellow
  BackgroundColor<<FS>> Yellow
  BackgroundColor<<FT>> LightGray
  BackgroundColor<<IF>> Yellow
  BackgroundColor<<IS>> Yellow
  BackgroundColor<<P>> Aqua
  BackgroundColor<<PC>> Aqua
  BackgroundColor<<SN>> Yellow
  BackgroundColor<<SO>> SlateBlue
  BackgroundColor<<TF>> LightGray
  BackgroundColor<<TR>> Tomato
  BackgroundColor<<U>> White
  BackgroundColor<<V>> WhiteSmoke
  BackgroundColor<<X>> Aqua
  BackgroundColor<<external>> AliceBlue
}


entity "puml-link:dhw:sqldb:docs.antoraindexsemanticgroup.adoc[]" as docs.AntoraIndexSemanticgroup << V >> {
  AntoraIndexSemanticgroup : (nvarchar(max))
  cultures_name : (nvarchar(10))
  IndexSemanticGroup : (nvarchar(512))
  --
}

entity "puml-link:dhw:sqldb:docs.antoraindexsemanticgrouppatterndatatype.adoc[]" as docs.AntoraIndexSemanticgroupPatterndatatype << V >> {
  **IndexSemanticGroup** : (nvarchar(512))
  **IndexPatternColumnDatatype** : (nvarchar(4000))
  AntoraIndexSemanticgroupPatterndatatype : (nvarchar(max))
  cultures_name : (nvarchar(10))
  --
}

entity "puml-link:dhw:sqldb:docs.fs_cleanstringforanchorid.adoc[]" as docs.fs_cleanStringForAnchorId << FN >> {
  --
}

entity "puml-link:dhw:sqldb:docs.repoobject_columnlist.adoc[]" as docs.RepoObject_ColumnList << V >> {
  AntoraColumnDetails : (nvarchar(max))
  AntoraNonPkColumnTableRows : (nvarchar(max))
  AntoraPkColumnTableRows : (nvarchar(max))
  - cultures_name : (nvarchar(10))
  is_external : (tinyint)
  PlantumlAllEntityColumns : (nvarchar(max))
  PlantumlIndexColumns : (nvarchar(max))
  PlantumlNonPkEntityColumns : (nvarchar(max))
  PlantumlNonPkHiddenEntityColumns : (nvarchar(max))
  PlantumlNonPkIndexColumns : (nvarchar(max))
  PlantumlPkEntityColumns : (nvarchar(max))
  - RepoObject_guid : (uniqueidentifier)
  --
}

entity "puml-link:dhw:sqldb:docs.repoobject_indexlist.adoc[]" as docs.RepoObject_IndexList << V >> {
  **RepoObject_guid** : (uniqueidentifier)
  **cultures_name** : (nvarchar(10))
  AntoraIndexList : (nvarchar(max))
  PumlIndexList : (nvarchar(max))
  --
}

entity "puml-link:dhw:sqldb:docs.repoobject_measurelist.adoc[]" as docs.RepoObject_MeasureList << V >> {
  **RepoObject_guid** : (uniqueidentifier)
  **cultures_name** : (nvarchar(10))
  AntoraMeasureDetails : (nvarchar(max))
  is_external : (tinyint)
  PlantumlMeasures : (nvarchar(max))
  --
}

entity "puml-link:dhw:sqldb:docs.ssis_connectionlist.adoc[]" as docs.ssis_ConnectionList << V >> {
  - AntoraModule : (varchar(50))
  ConnectionList : (nvarchar(max))
  - PackageName : (varchar(200))
  --
}

entity "puml-link:dhw:sqldb:docs.ssis_dfttaskcomponentinputcolumnlist.adoc[]" as docs.ssis_DftTaskComponentInputColumnList << V >> {
  - AntoraModule : (varchar(50))
  Component_refId : (varchar(max))
  - DftTaskComponentInputColumnList : (nvarchar(max))
  input_refId : (varchar(max))
  PackageName : (varchar(200))
  TaskPath : (varchar(8000))
  --
}

entity "puml-link:dhw:sqldb:docs.ssis_dfttaskcomponentinputlist.adoc[]" as docs.ssis_DftTaskComponentInputList << V >> {
  - AntoraModule : (varchar(50))
  Component_refId : (varchar(max))
  DftTaskComponentInputList : (nvarchar(max))
  PackageName : (varchar(200))
  TaskPath : (varchar(8000))
  --
}

entity "puml-link:dhw:sqldb:docs.ssis_dfttaskcomponentlist.adoc[]" as docs.ssis_DftTaskComponentList << V >> {
  - AntoraModule : (varchar(50))
  DftTaskComponentList : (nvarchar(max))
  - PackageName : (varchar(200))
  - TaskPath : (varchar(8000))
  --
}

entity "puml-link:dhw:sqldb:docs.ssis_dfttaskcomponentoutputcolumnlist.adoc[]" as docs.ssis_DftTaskComponentOutputColumnList << V >> {
  - AntoraModule : (varchar(50))
  Component_refId : (varchar(max))
  - DftTaskComponentOutputColumnList : (nvarchar(max))
  output_refId : (varchar(max))
  PackageName : (varchar(200))
  TaskPath : (varchar(8000))
  --
}

entity "puml-link:dhw:sqldb:docs.ssis_dfttaskcomponentoutputlist.adoc[]" as docs.ssis_DftTaskComponentOutputList << V >> {
  - AntoraModule : (varchar(50))
  Component_refId : (varchar(max))
  DftTaskComponentOutputList : (nvarchar(max))
  PackageName : (varchar(200))
  TaskPath : (varchar(8000))
  --
}

entity "puml-link:dhw:sqldb:docs.ssis_parameterlist.adoc[]" as docs.ssis_ParameterList << V >> {
  - AntoraModule : (varchar(50))
  - PackageName : (varchar(200))
  ParameterList : (nvarchar(max))
  --
}

entity "puml-link:dhw:sqldb:docs.ssis_projectconnectionlist.adoc[]" as docs.ssis_ProjectConnectionList << V >> {
  - AntoraModule : (varchar(50))
  ProjectConnectionList : (nvarchar(max))
  --
}

entity "puml-link:dhw:sqldb:docs.ssis_pumlpartialcontrolflows.adoc[]" as docs.ssis_PumlPartialControlFlows << V >> {
  - AntoraModule : (varchar(50))
  - PackageName : (varchar(200))
  PumlPartialControlFlows : (nvarchar(max))
  --
}

entity "puml-link:dhw:sqldb:docs.ssis_pumlpartialdataflow.adoc[]" as docs.ssis_PumlPartialDataFlow << V >> {
  - AntoraModule : (varchar(50))
  - PackageName : (varchar(200))
  PumlPartialDataFlow : (nvarchar(max))
  TaskFromParent : (varchar(2000))
  --
}

entity "puml-link:dhw:sqldb:docs.ssis_pumlpartialdftcomponent.adoc[]" as docs.ssis_PumlPartialDftComponent << V >> {
  - AntoraModule : (varchar(50))
  - Component_name : (varchar(max))
  - Component_refId : (varchar(max))
  - PackageName : (varchar(200))
  PumlPartialDftComponent : (nvarchar(max))
  - TaskPath : (varchar(8000))
  --
}

entity "puml-link:dhw:sqldb:docs.ssis_pumlpartialtaskcomponent.adoc[]" as docs.ssis_PumlPartialTaskComponent << V >> {
  - AntoraModule : (varchar(50))
  - PackageName : (varchar(200))
  PumlPartialTaskComponent : (nvarchar(4000))
  - TaskName : (varchar(2000))
  - TaskPath : (varchar(8000))
  TaskPathLevel : (int)
  TaskPathLevelLag : (int)
  TaskPathLevelLead : (int)
  TaskPathParent : (varchar(8000))
  --
}

entity "puml-link:dhw:sqldb:docs.ssis_task.adoc[]" as docs.ssis_Task << V >> {
  AdocFilename : (nvarchar(4000))
  - AntoraModule : (varchar(50))
  - PackageName : (varchar(200))
  - TaskContent : (nvarchar(max))
  - TaskPath : (varchar(8000))
  --
}

entity "puml-link:dhw:sqldb:docs.ssis_tasklist.adoc[]" as docs.ssis_TaskList << V >> {
  - AntoraModule : (varchar(50))
  - PackageName : (varchar(200))
  TaskList : (nvarchar(max))
  --
}

entity "puml-link:dhw:sqldb:docs.ssis_variablelist.adoc[]" as docs.ssis_VariableList << V >> {
  - AntoraModule : (varchar(50))
  - PackageName : (varchar(200))
  VariableList : (nvarchar(max))
  --
}

entity "puml-link:dhw:sqldb:docs.unit_2.adoc[]" as docs.Unit_2 << V >> {
  AntoraComponent : (nvarchar(max))
  AntoraModule : (nvarchar(max))
  AntoraPage : (nvarchar(4000))
  AntoraSectionId : (nvarchar(4000))
  AntoraSiteUrl : (nvarchar(max))
  AntoraVersion : (nvarchar(max))
  Object_fullname2 : (nvarchar(257))
  Object_Type : (varchar(2))
  Unit_ColummName : (nvarchar(128))
  Unit_Description : (nvarchar(max))
  Unit_DisplayFolder : (nvarchar(500))
  Unit_Expression : (nvarchar(max))
  Unit_FormatString : (nvarchar(500))
  - Unit_fullname2 : (nvarchar(638))
  - Unit_guid : (uniqueidentifier)
  Unit_isHidden : (bit)
  Unit_IsKey : (bit)
  Unit_IsSsas : (bit)
  Unit_IsUnique : (bit)
  - Unit_Metatype : (varchar(7))
  - Unit_Name : (nvarchar(500))
  Unit_ObjectName : (nvarchar(128))
  - Unit_Schema : (nvarchar(128))
  Unit_SummarizeBy : (nvarchar(500))
  Unit_TypeName : (nvarchar(128))
  --
}

entity "puml-link:dhw:sqldb:reference.repoobjectcolumn_referencedreferencing.adoc[]" as reference.RepoObjectColumn_ReferencedReferencing << V >> {
  - referenced_AntoraXref : (nvarchar(max))
  referenced_external_AntoraComponent : (nvarchar(128))
  referenced_external_AntoraModule : (nvarchar(128))
  - Referenced_fullname : (nvarchar(261))
  - Referenced_fullname2 : (nvarchar(257))
  - Referenced_guid : (uniqueidentifier)
  - referenced_is_external : (bit)
  Referenced_RepoObject_guid : (uniqueidentifier)
  Referenced_type : (char(2))
  - ReferencedColumn_fullname : (nvarchar(392))
  - ReferencedColumn_fullname2 : (nvarchar(386))
  ReferencedColumn_name : (nvarchar(128))
  - referencing_AntoraXref : (nvarchar(max))
  referencing_external_AntoraComponent : (nvarchar(128))
  referencing_external_AntoraModule : (nvarchar(128))
  - Referencing_fullname : (nvarchar(261))
  - Referencing_fullname2 : (nvarchar(257))
  - Referencing_guid : (uniqueidentifier)
  - referencing_is_external : (bit)
  Referencing_RepoObject_guid : (uniqueidentifier)
  Referencing_type : (char(2))
  - ReferencingColumn_fullname : (nvarchar(392))
  - ReferencingColumn_fullname2 : (nvarchar(386))
  ReferencingColumn_name : (nvarchar(128))
  --
}

entity "puml-link:dhw:sqldb:repo.foreignkey_gross.adoc[]" as repo.ForeignKey_gross << V >> {
  delete_referential_action : (tinyint)
  ForeignKey_fullname : (nvarchar(517))
  ForeignKey_guid : (uniqueidentifier)
  ForeignKey_name : (nvarchar(128))
  - is_MatchingDatatypePattern : (int)
  - referenced_AntoraXref : (nvarchar(4000))
  referenced_index_guid : (uniqueidentifier)
  referenced_index_name : (nvarchar(450))
  referenced_IndexPatternColumnDatatype : (nvarchar(4000))
  referenced_IndexPatternColumnName : (nvarchar(4000))
  referenced_RepoObject_fullname : (nvarchar(261))
  referenced_RepoObject_fullname2 : (nvarchar(257))
  referenced_RepoObject_guid : (uniqueidentifier)
  referenced_SysObject_name : (nvarchar(128))
  referenced_SysObject_schema_name : (nvarchar(128))
  referencing_index_guid : (uniqueidentifier)
  referencing_index_name : (nvarchar(450))
  referencing_IndexPatternColumnDatatype : (nvarchar(4000))
  referencing_IndexPatternColumnName : (nvarchar(4000))
  referencing_RepoObject_fullname : (nvarchar(261))
  referencing_RepoObject_fullname2 : (nvarchar(257))
  referencing_RepoObject_guid : (uniqueidentifier)
  referencing_SysObject_name : (nvarchar(128))
  referencing_SysObject_schema_name : (nvarchar(128))
  update_referential_action : (tinyint)
  --
}

docs.fs_cleanStringForAnchorId <.. reference.RepoObjectColumn_ReferencedReferencing
docs.fs_cleanStringForAnchorId <.. repo.ForeignKey_gross
docs.fs_cleanStringForAnchorId <.. docs.Unit_2
docs.fs_cleanStringForAnchorId <.. docs.RepoObject_MeasureList
docs.fs_cleanStringForAnchorId <.. docs.ssis_ConnectionList
docs.fs_cleanStringForAnchorId <.. docs.AntoraIndexSemanticgroup
docs.fs_cleanStringForAnchorId <.. docs.AntoraIndexSemanticgroupPatterndatatype
docs.fs_cleanStringForAnchorId <.. docs.RepoObject_IndexList
docs.fs_cleanStringForAnchorId <.. docs.RepoObject_ColumnList
docs.fs_cleanStringForAnchorId <.. docs.ssis_ParameterList
docs.fs_cleanStringForAnchorId <.. docs.ssis_TaskList
docs.fs_cleanStringForAnchorId <.. docs.ssis_VariableList
docs.fs_cleanStringForAnchorId <.. docs.ssis_ProjectConnectionList
docs.fs_cleanStringForAnchorId <.. docs.ssis_PumlPartialTaskComponent
docs.fs_cleanStringForAnchorId <.. docs.ssis_PumlPartialControlFlows
docs.fs_cleanStringForAnchorId <.. docs.ssis_PumlPartialDataFlow
docs.fs_cleanStringForAnchorId <.. docs.ssis_PumlPartialDftComponent
docs.fs_cleanStringForAnchorId <.. docs.ssis_DftTaskComponentList
docs.fs_cleanStringForAnchorId <.. docs.ssis_DftTaskComponentInputList
docs.fs_cleanStringForAnchorId <.. docs.ssis_DftTaskComponentInputColumnList
docs.fs_cleanStringForAnchorId <.. docs.ssis_DftTaskComponentOutputColumnList
docs.fs_cleanStringForAnchorId <.. docs.ssis_DftTaskComponentOutputList
docs.fs_cleanStringForAnchorId <.. docs.ssis_Task
footer The diagram is interactive and contains links.
@enduml

