@startuml
left to right direction
'top to bottom direction
hide circle
'avoide "." issues:
set namespaceSeparator none


skinparam class {
  BackgroundColor White
  BackgroundColor<<FN>> Yellow
  BackgroundColor<<FS>> Yellow
  BackgroundColor<<FT>> LightGray
  BackgroundColor<<IF>> Yellow
  BackgroundColor<<IS>> Yellow
  BackgroundColor<<P>> Aqua
  BackgroundColor<<PC>> Aqua
  BackgroundColor<<SN>> Yellow
  BackgroundColor<<SO>> SlateBlue
  BackgroundColor<<TF>> LightGray
  BackgroundColor<<TR>> Tomato
  BackgroundColor<<U>> White
  BackgroundColor<<V>> WhiteSmoke
  BackgroundColor<<X>> Aqua
  BackgroundColor<<external>> AliceBlue
}


entity "puml-link:dhw:sqldb:config.ftv_get_parameter_value.adoc[]" as config.ftv_get_parameter_value << IF >> {
  --
  Parameter_value_result : (nvarchar(max))
  Parameter_value_result_date : (date)
  Parameter_value_result_datetime : (datetime)
  Parameter_value_result_int : (int)
  --
  --
}

entity "puml-link:dhw:sqldb:docs.fs_pumlheadertoptobottom.adoc[]" as docs.fs_PumlHeaderTopToBottom << FN >> {
  --
  --
  --
}

entity "puml-link:dhw:sqldb:docs.objectrefcyclic.adoc[]" as docs.ObjectRefCyclic << V >> {
  --
  - cultures_name : (nvarchar(10))
  - ObjectRefCyclic_Puml : (nvarchar(max))
  - page_content : (nvarchar(max))
  --
  --
}

entity "puml-link:dhw:sqldb:docs.objectrefcyclic_entitylist.adoc[]" as docs.ObjectRefCyclic_EntityList << V >> {
  --
  - cultures_name : (nvarchar(10))
  PumlEntityList : (nvarchar(max))
  PumlEntityOnlyPkList : (nvarchar(max))
  XrefEntityList : (nvarchar(max))
  --
  --
}

entity "puml-link:dhw:sqldb:docs.objectrefcyclic_objectreflist.adoc[]" as docs.ObjectRefCyclic_ObjectRefList << V >> {
  --
  PumlObjectRefList : (nvarchar(max))
  --
  --
}

config.ftv_get_parameter_value <.. docs.ObjectRefCyclic
docs.fs_PumlHeaderTopToBottom <.. docs.ObjectRefCyclic
docs.ObjectRefCyclic_EntityList <.. docs.ObjectRefCyclic
docs.ObjectRefCyclic_ObjectRefList <.. docs.ObjectRefCyclic
"docs.ObjectRefCyclic_EntityList::cultures_name" <-- "docs.ObjectRefCyclic::cultures_name"
@enduml

