@startuml
left to right direction
'top to bottom direction
hide circle
'avoide "." issues:
set namespaceSeparator none


skinparam class {
  BackgroundColor White
  BackgroundColor<<FN>> Yellow
  BackgroundColor<<FS>> Yellow
  BackgroundColor<<FT>> LightGray
  BackgroundColor<<IF>> Yellow
  BackgroundColor<<IS>> Yellow
  BackgroundColor<<P>> Aqua
  BackgroundColor<<PC>> Aqua
  BackgroundColor<<SN>> Yellow
  BackgroundColor<<SO>> SlateBlue
  BackgroundColor<<TF>> LightGray
  BackgroundColor<<TR>> Tomato
  BackgroundColor<<U>> White
  BackgroundColor<<V>> WhiteSmoke
  BackgroundColor<<X>> Aqua
  BackgroundColor<<external>> AliceBlue
}


entity "puml-link:dhw:sqldb:docs.antoraindexsemanticgroup.adoc[]" as docs.AntoraIndexSemanticgroup << V >> {
  --
  AntoraIndexSemanticgroup : (nvarchar(max))
  cultures_name : (nvarchar(10))
  - fixvalue : (int)
  IndexSemanticGroup : (nvarchar(512))
  --
  --
}

entity "puml-link:dhw:sqldb:docs.antoraindexsemanticgrouppatterndatatype.adoc[]" as docs.AntoraIndexSemanticgroupPatterndatatype << V >> {
  **IndexSemanticGroup** : (nvarchar(512))
  **IndexPatternColumnDatatype** : (nvarchar(4000))
  --
  AntoraIndexSemanticgroupPatterndatatype : (nvarchar(max))
  cultures_name : (nvarchar(10))
  --
  --
}

entity "puml-link:dhw:sqldb:docs.antorapage_indexsemanticgroup.adoc[]" as docs.AntoraPage_IndexSemanticGroup << V >> {
  - **page_content** : (nvarchar(max))
  --
  --
  --
}

entity "puml-link:dhw:sqldb:docs.fs_cleanstringforanchorid.adoc[]" as docs.fs_cleanStringForAnchorId << FN >> {
  --
  --
  --
}

docs.AntoraIndexSemanticgroup <.. docs.AntoraPage_IndexSemanticGroup
docs.AntoraIndexSemanticgroupPatterndatatype <.. docs.AntoraIndexSemanticgroup
docs.fs_cleanStringForAnchorId <.. docs.AntoraIndexSemanticgroup
"docs.AntoraIndexSemanticgroupPatterndatatype::cultures_name" <-- "docs.AntoraIndexSemanticgroup::cultures_name"
"docs.AntoraIndexSemanticgroupPatterndatatype::IndexSemanticGroup" <-- "docs.AntoraIndexSemanticgroup::IndexSemanticGroup"
@enduml

