@startuml
left to right direction
'top to bottom direction
hide circle
'avoide "." issues:
set namespaceSeparator none


skinparam class {
  BackgroundColor White
  BackgroundColor<<FN>> Yellow
  BackgroundColor<<FS>> Yellow
  BackgroundColor<<FT>> LightGray
  BackgroundColor<<IF>> Yellow
  BackgroundColor<<IS>> Yellow
  BackgroundColor<<P>> Aqua
  BackgroundColor<<PC>> Aqua
  BackgroundColor<<SN>> Yellow
  BackgroundColor<<SO>> SlateBlue
  BackgroundColor<<TF>> LightGray
  BackgroundColor<<TR>> Tomato
  BackgroundColor<<U>> White
  BackgroundColor<<V>> WhiteSmoke
  BackgroundColor<<X>> Aqua
  BackgroundColor<<external>> AliceBlue
}


entity "puml-link:dhw:sqldb:docs.repoobject_adoc.adoc[]" as docs.RepoObject_Adoc << V >> {
  --
  - AdocContent : (nvarchar(max))
  - cultures_name : (nvarchar(10))
  is_DocsOutput : (int)
  PropertyCount : (int)
  RepoObject_DisplayName : (nvarchar(128))
  RepoObject_FullDisplayName2 : (nvarchar(257))
  RepoObject_fullname : (nvarchar(261))
  RepoObject_fullname2 : (nvarchar(257))
  - RepoObject_guid : (uniqueidentifier)
  RepoObject_schema_name : (nvarchar(128))
  RepoObject_translation : (nvarchar(128))
  SysObject_fullname : (nvarchar(261))
  SysObject_fullname2 : (nvarchar(257))
  SysObject_schema_name : (nvarchar(128))
  SysObject_type : (char(2))
  SysObject_type_name : (nvarchar(128))
  --
  --
}

entity "puml-link:dhw:sqldb:docs.repoobject_columnlist.adoc[]" as docs.RepoObject_ColumnList << V >> {
  --
  AntoraColumnDetails : (nvarchar(max))
  AntoraNonPkColumnTableRows : (nvarchar(max))
  AntoraPkColumnTableRows : (nvarchar(max))
  - cultures_name : (nvarchar(10))
  is_external : (tinyint)
  PlantumlIndexColumns : (nvarchar(max))
  PlantumlNonPkEntityColumns : (nvarchar(max))
  PlantumlNonPkHiddenEntityColumns : (nvarchar(max))
  PlantumlNonPkIndexColumns : (nvarchar(max))
  PlantumlPkEntityColumns : (nvarchar(max))
  - RepoObject_guid : (uniqueidentifier)
  --
  --
}

entity "puml-link:dhw:sqldb:docs.repoobject_columnlist_t.adoc[]" as docs.RepoObject_ColumnList_T << U >> {
  - **RepoObject_guid** : (uniqueidentifier)
  - **cultures_name** : (nvarchar(10))
  --
  AntoraColumnDetails : (nvarchar(max))
  AntoraNonPkColumnTableRows : (nvarchar(max))
  AntoraPkColumnTableRows : (nvarchar(max))
  is_external : (tinyint)
  PlantumlIndexColumns : (nvarchar(max))
  PlantumlNonPkEntityColumns : (nvarchar(max))
  PlantumlNonPkHiddenEntityColumns : (nvarchar(max))
  PlantumlNonPkIndexColumns : (nvarchar(max))
  PlantumlPkEntityColumns : (nvarchar(max))
  --
  --
}

entity "puml-link:dhw:sqldb:docs.repoobject_plantuml_entity.adoc[]" as docs.RepoObject_Plantuml_Entity << V >> {
  --
  - cultures_name : (nvarchar(10))
  - RepoObject_fullname2 : (nvarchar(257))
  - RepoObject_guid : (uniqueidentifier)
  - RepoObject_Puml : (nvarchar(max))
  - RepoObject_PumlOnlyIndex : (nvarchar(max))
  - RepoObject_PumlOnlyPK : (nvarchar(max))
  - RepoObject_PumlOnlyPkOrIndex : (nvarchar(max))
  - RepoObject_PumlOnlyPkOrIndexOrMeasure : (nvarchar(max))
  - RepoObject_PumlOnlyPkOrNotHidden : (nvarchar(max))
  - RepoObject_schema_name : (nvarchar(128))
  --
  --
}

entity "puml-link:dhw:sqldb:docs.usp_persist_repoobject_columnlist_t.adoc[]" as docs.usp_PERSIST_RepoObject_ColumnList_T << P >> {
  --
  --
  --
}

docs.RepoObject_ColumnList <.. docs.RepoObject_ColumnList_T
docs.RepoObject_ColumnList_T <.. docs.RepoObject_Adoc
docs.RepoObject_ColumnList_T <.. docs.RepoObject_Plantuml_Entity
docs.RepoObject_ColumnList_T <.. docs.usp_PERSIST_RepoObject_ColumnList_T
"docs.RepoObject_ColumnList::AntoraColumnDetails" <-- "docs.RepoObject_ColumnList_T::AntoraColumnDetails"
"docs.RepoObject_ColumnList::AntoraNonPkColumnTableRows" <-- "docs.RepoObject_ColumnList_T::AntoraNonPkColumnTableRows"
"docs.RepoObject_ColumnList::AntoraPkColumnTableRows" <-- "docs.RepoObject_ColumnList_T::AntoraPkColumnTableRows"
"docs.RepoObject_ColumnList::cultures_name" <-- "docs.RepoObject_ColumnList_T::cultures_name"
"docs.RepoObject_ColumnList::is_external" <-- "docs.RepoObject_ColumnList_T::is_external"
"docs.RepoObject_ColumnList::PlantumlIndexColumns" <-- "docs.RepoObject_ColumnList_T::PlantumlIndexColumns"
"docs.RepoObject_ColumnList::PlantumlNonPkEntityColumns" <-- "docs.RepoObject_ColumnList_T::PlantumlNonPkEntityColumns"
"docs.RepoObject_ColumnList::PlantumlNonPkHiddenEntityColumns" <-- "docs.RepoObject_ColumnList_T::PlantumlNonPkHiddenEntityColumns"
"docs.RepoObject_ColumnList::PlantumlNonPkIndexColumns" <-- "docs.RepoObject_ColumnList_T::PlantumlNonPkIndexColumns"
"docs.RepoObject_ColumnList::PlantumlPkEntityColumns" <-- "docs.RepoObject_ColumnList_T::PlantumlPkEntityColumns"
"docs.RepoObject_ColumnList::RepoObject_guid" <-- "docs.RepoObject_ColumnList_T::RepoObject_guid"
@enduml

