@startuml
left to right direction
'top to bottom direction
hide circle
'avoide "." issues:
set namespaceSeparator none


skinparam class {
  BackgroundColor White
  BackgroundColor<<FN>> Yellow
  BackgroundColor<<FS>> Yellow
  BackgroundColor<<FT>> LightGray
  BackgroundColor<<IF>> Yellow
  BackgroundColor<<IS>> Yellow
  BackgroundColor<<P>> Aqua
  BackgroundColor<<PC>> Aqua
  BackgroundColor<<SN>> Yellow
  BackgroundColor<<SO>> SlateBlue
  BackgroundColor<<TF>> LightGray
  BackgroundColor<<TR>> Tomato
  BackgroundColor<<U>> White
  BackgroundColor<<V>> WhiteSmoke
  BackgroundColor<<X>> Aqua
  BackgroundColor<<external>> AliceBlue
}


entity "puml-link:dhw:sqldb:docs.fs_cleanstringforpuml.adoc[]" as docs.fs_cleanStringForPuml << FN >> {
  --
  --
  --
}

entity "puml-link:dhw:sqldb:docs.schema_plantuml_fkreflist.adoc[]" as docs.Schema_PlantUml_FkRefList << V >> {
  --
  cultures_name : (nvarchar(10))
  FkRefList : (nvarchar(max))
  SchemaName : (nvarchar(128))
  --
  --
}

entity "puml-link:dhw:sqldb:docs.schema_puml.adoc[]" as docs.Schema_puml << V >> {
  - **RepoSchema_guid** : (uniqueidentifier)
  **cultures_name** : (nvarchar(10))
  --
  - is_ssas : (bit)
  - PumlSchemaEr : (nvarchar(max))
  - PumlSchemaIndexEr : (nvarchar(max))
  PumlSchemaSsasEr : (nvarchar(max))
  - RepoSchema_name : (nvarchar(128))
  --
  --
}

entity "puml-link:dhw:sqldb:repo.foreignkey_indexes_union_t.adoc[]" as repo.ForeignKey_Indexes_union_T << U >> {
  **ForeignKey_guid** : (uniqueidentifier)
  --
  delete_referential_action : (tinyint)
  ForeignKey_fullname : (nvarchar(517))
  ForeignKey_name : (nvarchar(263))
  - is_MatchingDatatypePattern : (int)
  referenced_index_guid : (uniqueidentifier)
  referenced_index_name : (nvarchar(450))
  referenced_IndexPatternColumnDatatype : (nvarchar(4000))
  referenced_IndexPatternColumnName : (nvarchar(4000))
  referenced_RepoObject_fullname : (nvarchar(517))
  referenced_RepoObject_fullname2 : (nvarchar(257))
  referenced_RepoObject_guid : (uniqueidentifier)
  referenced_SysObject_name : (nvarchar(128))
  referenced_SysObject_schema_name : (nvarchar(128))
  referencing_index_guid : (uniqueidentifier)
  referencing_index_name : (nvarchar(450))
  referencing_IndexPatternColumnDatatype : (nvarchar(4000))
  referencing_IndexPatternColumnName : (nvarchar(4000))
  referencing_RepoObject_fullname : (nvarchar(517))
  referencing_RepoObject_fullname2 : (nvarchar(257))
  referencing_RepoObject_guid : (uniqueidentifier)
  referencing_SysObject_name : (nvarchar(128))
  referencing_SysObject_schema_name : (nvarchar(128))
  update_referential_action : (tinyint)
  --
  --
}

docs.fs_cleanStringForPuml <.. docs.Schema_PlantUml_FkRefList
docs.Schema_PlantUml_FkRefList <.. docs.Schema_puml
repo.ForeignKey_Indexes_union_T <.. docs.Schema_PlantUml_FkRefList
"repo.ForeignKey_Indexes_union_T::referencing_SysObject_schema_name" <-- "docs.Schema_PlantUml_FkRefList::SchemaName"
@enduml

