@startuml
left to right direction
'top to bottom direction
hide circle
'avoide "." issues:
set namespaceSeparator none


skinparam class {
  BackgroundColor White
  BackgroundColor<<FN>> Yellow
  BackgroundColor<<FS>> Yellow
  BackgroundColor<<FT>> LightGray
  BackgroundColor<<IF>> Yellow
  BackgroundColor<<IS>> Yellow
  BackgroundColor<<P>> Aqua
  BackgroundColor<<PC>> Aqua
  BackgroundColor<<SN>> Yellow
  BackgroundColor<<SO>> SlateBlue
  BackgroundColor<<TF>> LightGray
  BackgroundColor<<TR>> Tomato
  BackgroundColor<<U>> White
  BackgroundColor<<V>> WhiteSmoke
  BackgroundColor<<X>> Aqua
  BackgroundColor<<external>> AliceBlue
}


entity "puml-link:dhw:sqldb:config.fs_get_parameter_value.adoc[]" as config.fs_get_parameter_value << FN >> {
  --
  --
  --
}

entity "puml-link:dhw:sqldb:docs.fs_antoramodulefolder.adoc[]" as docs.fs_AntoraModuleFolder << FN >> {
  --
  --
  --
}

entity "puml-link:dhw:sqldb:docs.fs_cleanstringforfilename.adoc[]" as docs.fs_cleanStringForFilename << FN >> {
  --
  --
  --
}

entity "puml-link:dhw:sqldb:docs.repoobject_outputfilter_t.adoc[]" as docs.RepoObject_OutputFilter_T << U >> {
  - **RepoObject_guid** : (uniqueidentifier)
  - **cultures_name** : (nvarchar(10))
  --
  AntoraComponent : (nvarchar(max))
  AntoraModule : (nvarchar(max))
  external_AntoraComponent : (nvarchar(128))
  external_AntoraModule : (nvarchar(128))
  external_DatabaseName : (nvarchar(128))
  is_DocsOutput : (int)
  - is_external : (bit)
  - is_ssas : (bit)
  - PumlEntityTopDefault : (nvarchar(max))
  - PumlEntityTopWorkaround : (nvarchar(max))
  RepoObject_DisplayName : (nvarchar(128))
  RepoObject_FullDisplayName2 : (nvarchar(257))
  - RepoObject_fullname : (nvarchar(261))
  - RepoObject_fullname2 : (nvarchar(257))
  - RepoObject_name : (nvarchar(128))
  - RepoObject_schema_name : (nvarchar(128))
  RepoObject_translation : (nvarchar(128))
  SysObject_type : (char(2))
  SysObject_type_name : (nvarchar(128))
  tables_isHidden : (bit)
  --
  --
}

entity "puml-link:dhw:sqldb:docs.schema_puml.adoc[]" as docs.Schema_puml << V >> {
  - **RepoSchema_guid** : (uniqueidentifier)
  **cultures_name** : (nvarchar(10))
  --
  - is_ssas : (bit)
  - PumlSchemaEr : (nvarchar(max))
  - PumlSchemaIndexEr : (nvarchar(max))
  PumlSchemaSsasEr : (nvarchar(max))
  - RepoSchema_name : (nvarchar(128))
  --
  --
}

entity "puml-link:dhw:sqldb:docs.usp_antoraexport.adoc[]" as docs.usp_AntoraExport << P >> {
  --
  --
  --
}

entity "puml-link:dhw:sqldb:docs.usp_antoraexport_objectpuml.adoc[]" as docs.usp_AntoraExport_ObjectPuml << P >> {
  --
  --
  --
}

entity "puml-link:dhw:sqldb:docs.usp_persist_repoobject_plantuml_entity_t.adoc[]" as docs.usp_PERSIST_RepoObject_Plantuml_Entity_T << P >> {
  --
  --
  --
}

entity "puml-link:dhw:sqldb:docs.usp_persist_repoobject_plantuml_t.adoc[]" as docs.usp_PERSIST_RepoObject_Plantuml_T << P >> {
  --
  --
  --
}

entity "puml-link:dhw:sqldb:logs.usp_executionlog_insert.adoc[]" as logs.usp_ExecutionLog_insert << P >> {
  --
  --
  --
}

config.fs_get_parameter_value <.. docs.usp_AntoraExport_ObjectPuml
docs.fs_AntoraModuleFolder <.. docs.usp_AntoraExport_ObjectPuml
docs.fs_cleanStringForFilename <.. docs.usp_AntoraExport_ObjectPuml
docs.RepoObject_OutputFilter_T <.. docs.usp_AntoraExport_ObjectPuml
docs.Schema_puml <.. docs.usp_AntoraExport_ObjectPuml
docs.usp_AntoraExport_ObjectPuml <.. docs.usp_AntoraExport
docs.usp_PERSIST_RepoObject_Plantuml_Entity_T <.. docs.usp_AntoraExport_ObjectPuml
docs.usp_PERSIST_RepoObject_Plantuml_T <.. docs.usp_AntoraExport_ObjectPuml
logs.usp_ExecutionLog_insert <.. docs.usp_AntoraExport_ObjectPuml

@enduml

