@startuml
left to right direction
'top to bottom direction
hide circle
'avoide "." issues:
set namespaceSeparator none


skinparam class {
  BackgroundColor White
  BackgroundColor<<FN>> Yellow
  BackgroundColor<<FS>> Yellow
  BackgroundColor<<FT>> LightGray
  BackgroundColor<<IF>> Yellow
  BackgroundColor<<IS>> Yellow
  BackgroundColor<<P>> Aqua
  BackgroundColor<<PC>> Aqua
  BackgroundColor<<SN>> Yellow
  BackgroundColor<<SO>> SlateBlue
  BackgroundColor<<TF>> LightGray
  BackgroundColor<<TR>> Tomato
  BackgroundColor<<U>> White
  BackgroundColor<<V>> WhiteSmoke
  BackgroundColor<<X>> Aqua
  BackgroundColor<<external>> AliceBlue
}


entity "puml-link:dhw:sqldb:docs.repoobject_adoc.adoc[]" as docs.RepoObject_Adoc << V >> {
  - AdocContent : (nvarchar(max))
  - cultures_name : (nvarchar(10))
  is_DocsOutput : (int)
  PropertyCount : (int)
  RepoObject_DisplayName : (nvarchar(128))
  RepoObject_FullDisplayName2 : (nvarchar(257))
  RepoObject_fullname : (nvarchar(261))
  RepoObject_fullname2 : (nvarchar(257))
  - RepoObject_guid : (uniqueidentifier)
  RepoObject_schema_name : (nvarchar(128))
  RepoObject_translation : (nvarchar(128))
  SysObject_fullname : (nvarchar(261))
  SysObject_fullname2 : (nvarchar(257))
  SysObject_schema_name : (nvarchar(128))
  SysObject_type : (char(2))
  SysObject_type_name : (nvarchar(128))
  --
}

entity "puml-link:dhw:sqldb:docs.repoobject_parameterlist.adoc[]" as docs.RepoObject_ParameterList << V >> {
  **RepoObject_guid** : (uniqueidentifier)
  AntoraParameterList : (nvarchar(max))
  --
}

entity "puml-link:dhw:sqldb:repo_sys.parameters.adoc[]" as repo_sys.parameters << V >> {
  column_encryption_key_database_name : (sysname)
  column_encryption_key_id : (int)
  default_value : (sql_variant)
  encryption_algorithm_name : (sysname)
  encryption_type : (int)
  encryption_type_desc : (nvarchar(64))
  - has_default_value : (bit)
  - is_cursor_ref : (bit)
  is_nullable : (bit)
  - is_output : (bit)
  - is_readonly : (bit)
  - is_xml_document : (bit)
  - max_length : (smallint)
  name : (sysname)
  - object_id : (int)
  - parameter_id : (int)
  - precision : (tinyint)
  - scale : (tinyint)
  SysObject_fullname : (nvarchar(517))
  SysObject_fullname2 : (nvarchar(257))
  SysObject_name : (sysname)
  SysObject_RepoObject_guid : (uniqueidentifier)
  SysObject_schema_name : (sysname)
  SysObject_type : (char(2))
  - system_type_id : (tinyint)
  user_type_fullname : (nvarchar(182))
  - user_type_id : (int)
  user_type_name : (sysname)
  - xml_collection_id : (int)
  --
}

docs.RepoObject_ParameterList <.. docs.RepoObject_Adoc
repo_sys.parameters <.. docs.RepoObject_ParameterList
"repo_sys.parameters::SysObject_RepoObject_guid" <-- "docs.RepoObject_ParameterList::RepoObject_guid"footer The diagram is interactive and contains links.
@enduml

