@startuml
left to right direction
'top to bottom direction
hide circle
'avoide "." issues:
set namespaceSeparator none


skinparam class {
  BackgroundColor White
  BackgroundColor<<FN>> Yellow
  BackgroundColor<<FS>> Yellow
  BackgroundColor<<FT>> LightGray
  BackgroundColor<<IF>> Yellow
  BackgroundColor<<IS>> Yellow
  BackgroundColor<<P>> Aqua
  BackgroundColor<<PC>> Aqua
  BackgroundColor<<SN>> Yellow
  BackgroundColor<<SO>> SlateBlue
  BackgroundColor<<TF>> LightGray
  BackgroundColor<<TR>> Tomato
  BackgroundColor<<U>> White
  BackgroundColor<<V>> WhiteSmoke
  BackgroundColor<<X>> Aqua
  BackgroundColor<<external>> AliceBlue
}


entity "puml-link:dhw:sqldb:docs.fs_cleanstringforanchorid.adoc[]" as docs.fs_cleanStringForAnchorId << FN >> {
  --
}

entity "puml-link:dhw:sqldb:docs.fs_cleanstringforfilename.adoc[]" as docs.fs_cleanStringForFilename << FN >> {
  --
}

entity "puml-link:dhw:sqldb:docs.fs_cleanstringforheader.adoc[]" as docs.fs_cleanStringForHeader << FN >> {
  --
}

entity "puml-link:dhw:sqldb:docs.ssis_adoc.adoc[]" as docs.ssis_Adoc << V >> {
  - **AntoraModule** : (varchar(50))
  **PackageBasename** : (varchar(8000))
  - AdocContent : (nvarchar(max))
  --
}

entity "puml-link:dhw:sqldb:docs.ssis_dfttaskcomponentlist.adoc[]" as docs.ssis_DftTaskComponentList << V >> {
  - AntoraModule : (varchar(50))
  DftTaskComponentList : (nvarchar(max))
  - PackageName : (varchar(200))
  - TaskPath : (varchar(8000))
  --
}

entity "puml-link:dhw:sqldb:docs.ssis_pumldfttask.adoc[]" as docs.ssis_PumlDftTask << V >> {
  - AntoraModule : (varchar(50))
  - PackageName : (varchar(200))
  - PumlDftTask : (nvarchar(max))
  - TaskPath : (varchar(8000))
  --
}

entity "puml-link:dhw:sqldb:docs.ssis_sqltaskparameterinnertable.adoc[]" as docs.ssis_SqlTaskParameterInnerTable << V >> {
  - AntoraModule : (varchar(50))
  - PackageName : (varchar(200))
  - SqlTaskParameterInnerTable : (nvarchar(max))
  - TaskPath : (varchar(8000))
  --
}

entity "puml-link:dhw:sqldb:docs.ssis_tasklist.adoc[]" as docs.ssis_TaskList << V >> {
  - AntoraModule : (varchar(50))
  - PackageName : (varchar(200))
  TaskList : (nvarchar(max))
  --
}

entity "puml-link:dhw:sqldb:ssis.packageconnection.adoc[]" as ssis.PackageConnection << U >> {
  - **AntoraModule** : (varchar(50))
  - **PackageName** : (varchar(200))
  - **ConnectionManagerID** : (uniqueidentifier)
  ConnectionManagerName : (varchar(max))
  ConnectionManagerType : (varchar(max))
  ConnectionString : (varchar(max))
  ExpressionValue : (varchar(max))
  RetainSameConnectionProperty : (nvarchar(max))
  --
}

entity "puml-link:dhw:sqldb:ssis.packagetask.adoc[]" as ssis.PackageTask << U >> {
  - AntoraModule : (varchar(50))
  - ControlFlowDetailsRowID : (int)
  DelayValidationPropertyValue : (varchar(100))
  ExecutedPackageName : (varchar(1000))
  ExecutePackageConnection : (varchar(1000))
  ExecutePackageExpression : (varchar(1000))
  ExpressionValue : (varchar(5000))
  IsDisabled : (varchar(10))
  - PackageName : (varchar(200))
  Script : (varchar(max))
  SqlConnection : (uniqueidentifier)
  SqlStatementSource : (nvarchar(max))
  TaskDescription : (varchar(max))
  - TaskName : (varchar(2000))
  - TaskPath : (varchar(8000))
  TaskType : (varchar(5000))
  # PackageBasename : (varchar(8000))
  # TaskPathLevel : (int)
  # TaskPathParent : (varchar(8000))
  --
}

entity "puml-link:dhw:sqldb:ssis.projectconnection.adoc[]" as ssis.ProjectConnection << U >> {
  - **AntoraModule** : (varchar(50))
  - **ConnectionManagerID** : (uniqueidentifier)
  - ConnectionManagerName : (varchar(max))
  ConnectionManagerType : (varchar(max))
  - ConnectionPath : (varchar(8000))
  ConnectionString : (nvarchar(max))
  ExpressionValue : (nvarchar(max))
  --
}

docs.fs_cleanStringForAnchorId <.. docs.ssis_TaskList
docs.fs_cleanStringForFilename <.. docs.ssis_TaskList
docs.fs_cleanStringForHeader <.. docs.ssis_TaskList
docs.ssis_DftTaskComponentList <.. docs.ssis_TaskList
docs.ssis_PumlDftTask <.. docs.ssis_TaskList
docs.ssis_SqlTaskParameterInnerTable <.. docs.ssis_TaskList
docs.ssis_TaskList <.. docs.ssis_Adoc
ssis.PackageConnection <.. docs.ssis_TaskList
ssis.PackageTask <.. docs.ssis_TaskList
ssis.ProjectConnection <.. docs.ssis_TaskList
"ssis.PackageTask::AntoraModule" <-- "docs.ssis_TaskList::AntoraModule"
"ssis.PackageTask::PackageName" <-- "docs.ssis_TaskList::PackageName"footer The diagram is interactive and contains links.
@enduml

