@startuml
left to right direction
'top to bottom direction
hide circle
'avoide "." issues:
set namespaceSeparator none


skinparam class {
  BackgroundColor White
  BackgroundColor<<FN>> Yellow
  BackgroundColor<<FS>> Yellow
  BackgroundColor<<FT>> LightGray
  BackgroundColor<<IF>> Yellow
  BackgroundColor<<IS>> Yellow
  BackgroundColor<<P>> Aqua
  BackgroundColor<<PC>> Aqua
  BackgroundColor<<SN>> Yellow
  BackgroundColor<<SO>> SlateBlue
  BackgroundColor<<TF>> LightGray
  BackgroundColor<<TR>> Tomato
  BackgroundColor<<U>> White
  BackgroundColor<<V>> WhiteSmoke
  BackgroundColor<<X>> Aqua
  BackgroundColor<<external>> AliceBlue
}


entity "puml-link:dhw:sqldb:docs.antoraindexsemanticgrouppatterndatatype.adoc[]" as docs.AntoraIndexSemanticgroupPatterndatatype << V >> {
  **IndexSemanticGroup** : (nvarchar(512))
  **IndexPatternColumnDatatype** : (nvarchar(4000))
  --
  AntoraIndexSemanticgroupPatterndatatype : (nvarchar(max))
  cultures_name : (nvarchar(10))
  --
  --
}

entity "puml-link:dhw:sqldb:docs.fs_cleanstringforlabel.adoc[]" as docs.fs_cleanStringForLabel << FN >> {
  --
  --
  --
}

entity "puml-link:dhw:sqldb:docs.repoobject_columnlist.adoc[]" as docs.RepoObject_ColumnList << V >> {
  --
  AntoraColumnDetails : (nvarchar(max))
  AntoraNonPkColumnTableRows : (nvarchar(max))
  AntoraPkColumnTableRows : (nvarchar(max))
  - cultures_name : (nvarchar(10))
  is_external : (tinyint)
  PlantumlIndexColumns : (nvarchar(max))
  PlantumlNonPkEntityColumns : (nvarchar(max))
  PlantumlNonPkHiddenEntityColumns : (nvarchar(max))
  PlantumlNonPkIndexColumns : (nvarchar(max))
  PlantumlPkEntityColumns : (nvarchar(max))
  - RepoObject_guid : (uniqueidentifier)
  --
  --
}

entity "puml-link:dhw:sqldb:docs.repoobject_indexlist.adoc[]" as docs.RepoObject_IndexList << V >> {
  **RepoObject_guid** : (uniqueidentifier)
  **cultures_name** : (nvarchar(10))
  --
  AntoraIndexList : (nvarchar(max))
  PumlIndexList : (nvarchar(max))
  --
  --
}

entity "puml-link:dhw:sqldb:docs.repoobject_measurelist.adoc[]" as docs.RepoObject_MeasureList << V >> {
  **RepoObject_guid** : (uniqueidentifier)
  **cultures_name** : (nvarchar(10))
  --
  AntoraMeasureDetails : (nvarchar(max))
  is_external : (tinyint)
  PlantumlMeasures : (nvarchar(max))
  --
  --
}

docs.fs_cleanStringForLabel <.. docs.RepoObject_ColumnList
docs.fs_cleanStringForLabel <.. docs.AntoraIndexSemanticgroupPatterndatatype
docs.fs_cleanStringForLabel <.. docs.RepoObject_MeasureList
docs.fs_cleanStringForLabel <.. docs.RepoObject_IndexList

@enduml

