@startuml
left to right direction
'top to bottom direction
hide circle
'avoide "." issues:
set namespaceSeparator none


skinparam class {
  BackgroundColor White
  BackgroundColor<<FN>> Yellow
  BackgroundColor<<FS>> Yellow
  BackgroundColor<<FT>> LightGray
  BackgroundColor<<IF>> Yellow
  BackgroundColor<<IS>> Yellow
  BackgroundColor<<P>> Aqua
  BackgroundColor<<PC>> Aqua
  BackgroundColor<<SN>> Yellow
  BackgroundColor<<SO>> SlateBlue
  BackgroundColor<<TF>> LightGray
  BackgroundColor<<TR>> Tomato
  BackgroundColor<<U>> White
  BackgroundColor<<V>> WhiteSmoke
  BackgroundColor<<X>> Aqua
  BackgroundColor<<external>> AliceBlue
}


entity "puml-link:dhw:sqldb:docs.fs_cleanstringforpuml.adoc[]" as docs.fs_cleanStringForPuml << FN >> {
  --
}

entity "puml-link:dhw:sqldb:docs.schema_ssasrelationlist.adoc[]" as docs.Schema_SsasRelationList << V >> {
  - **SchemaName** : (nvarchar(128))
  **cultures_name** : (nvarchar(10))
  SsasRelationList_PumlRelation : (nvarchar(max))
  --
}

entity "puml-link:dhw:sqldb:docs.ssas_pumlrelation.adoc[]" as docs.ssas_PumlRelation << V >> {
  delete_referential_action : (tinyint)
  ForeignKey_fullname : (nvarchar(517))
  - ForeignKey_guid : (uniqueidentifier)
  ForeignKey_name : (nvarchar(263))
  - PumlRelation : (nvarchar(max))
  referenced_ColumnName : (nvarchar(128))
  referenced_IndexPatternColumnDatatype : (nvarchar(500))
  referenced_IndexPatternColumnGuid : (varchar(36))
  referenced_IndexPatternColumnName : (nvarchar(128))
  referenced_ObjectName : (nvarchar(128))
  referenced_RepoObject_fullname : (nvarchar(517))
  referenced_RepoObject_fullname2 : (nvarchar(257))
  referenced_RepoObject_guid : (uniqueidentifier)
  referencing_ColumnName : (nvarchar(128))
  referencing_IndexPatternColumnDatatype : (nvarchar(500))
  referencing_IndexPatternColumnGuid : (varchar(36))
  referencing_IndexPatternColumnName : (nvarchar(128))
  referencing_ObjectName : (nvarchar(128))
  referencing_RepoObject_fullname : (nvarchar(517))
  referencing_RepoObject_fullname2 : (nvarchar(257))
  referencing_RepoObject_guid : (uniqueidentifier)
  relationships_crossFilteringBehavior : (nvarchar(500))
  relationships_fromCardinality : (nvarchar(500))
  - relationships_isActive : (bit)
  relationships_name : (nvarchar(500))
  relationships_toCardinality : (nvarchar(500))
  - SchemaName : (nvarchar(128))
  update_referential_action : (tinyint)
  --
}

entity "puml-link:dhw:sqldb:repo.foreignkey_ssas_indexpattern.adoc[]" as repo.ForeignKey_ssas_IndexPattern << V >> {
  - databasename : (nvarchar(128))
  delete_referential_action : (tinyint)
  ForeignKey_fullname : (nvarchar(517))
  - ForeignKey_guid : (uniqueidentifier)
  ForeignKey_name : (nvarchar(263))
  referenced_ColumnName : (nvarchar(128))
  referenced_IndexPatternColumnDatatype : (nvarchar(500))
  referenced_IndexPatternColumnGuid : (varchar(36))
  referenced_IndexPatternColumnName : (nvarchar(128))
  - referenced_IsKey : (bit)
  - referenced_IsNullable : (bit)
  referenced_ObjectName : (nvarchar(128))
  referenced_RepoObject_fullname : (nvarchar(517))
  referenced_RepoObject_fullname2 : (nvarchar(257))
  referenced_RepoObject_guid : (uniqueidentifier)
  referencing_ColumnName : (nvarchar(128))
  referencing_IndexPatternColumnDatatype : (nvarchar(500))
  referencing_IndexPatternColumnGuid : (varchar(36))
  referencing_IndexPatternColumnName : (nvarchar(128))
  - referencing_IsKey : (bit)
  - referencing_IsNullable : (bit)
  referencing_ObjectName : (nvarchar(128))
  referencing_RepoObject_fullname : (nvarchar(517))
  referencing_RepoObject_fullname2 : (nvarchar(257))
  referencing_RepoObject_guid : (uniqueidentifier)
  relationships_crossFilteringBehavior : (nvarchar(500))
  relationships_fromCardinality : (nvarchar(500))
  - relationships_isActive : (bit)
  relationships_name : (nvarchar(500))
  relationships_toCardinality : (nvarchar(500))
  update_referential_action : (tinyint)
  --
}

docs.fs_cleanStringForPuml <.. docs.ssas_PumlRelation
docs.ssas_PumlRelation <.. docs.Schema_SsasRelationList
repo.ForeignKey_ssas_IndexPattern <.. docs.ssas_PumlRelation
"docs.ssas_PumlRelation::SchemaName" <-- "docs.Schema_SsasRelationList::SchemaName"
"repo.ForeignKey_ssas_IndexPattern::databasename" <-- "docs.ssas_PumlRelation::SchemaName"
"repo.ForeignKey_ssas_IndexPattern::delete_referential_action" <-- "docs.ssas_PumlRelation::delete_referential_action"
"repo.ForeignKey_ssas_IndexPattern::ForeignKey_fullname" <-- "docs.ssas_PumlRelation::ForeignKey_fullname"
"repo.ForeignKey_ssas_IndexPattern::ForeignKey_guid" <-- "docs.ssas_PumlRelation::ForeignKey_guid"
"repo.ForeignKey_ssas_IndexPattern::ForeignKey_name" <-- "docs.ssas_PumlRelation::ForeignKey_name"
"repo.ForeignKey_ssas_IndexPattern::referenced_ColumnName" <-- "docs.ssas_PumlRelation::referenced_ColumnName"
"repo.ForeignKey_ssas_IndexPattern::referenced_IndexPatternColumnDatatype" <-- "docs.ssas_PumlRelation::referenced_IndexPatternColumnDatatype"
"repo.ForeignKey_ssas_IndexPattern::referenced_IndexPatternColumnGuid" <-- "docs.ssas_PumlRelation::referenced_IndexPatternColumnGuid"
"repo.ForeignKey_ssas_IndexPattern::referenced_IndexPatternColumnName" <-- "docs.ssas_PumlRelation::referenced_IndexPatternColumnName"
"repo.ForeignKey_ssas_IndexPattern::referenced_ObjectName" <-- "docs.ssas_PumlRelation::referenced_ObjectName"
"repo.ForeignKey_ssas_IndexPattern::referenced_RepoObject_fullname" <-- "docs.ssas_PumlRelation::referenced_RepoObject_fullname"
"repo.ForeignKey_ssas_IndexPattern::referenced_RepoObject_fullname2" <-- "docs.ssas_PumlRelation::referenced_RepoObject_fullname2"
"repo.ForeignKey_ssas_IndexPattern::referenced_RepoObject_guid" <-- "docs.ssas_PumlRelation::referenced_RepoObject_guid"
"repo.ForeignKey_ssas_IndexPattern::referencing_ColumnName" <-- "docs.ssas_PumlRelation::referencing_ColumnName"
"repo.ForeignKey_ssas_IndexPattern::referencing_IndexPatternColumnDatatype" <-- "docs.ssas_PumlRelation::referencing_IndexPatternColumnDatatype"
"repo.ForeignKey_ssas_IndexPattern::referencing_IndexPatternColumnGuid" <-- "docs.ssas_PumlRelation::referencing_IndexPatternColumnGuid"
"repo.ForeignKey_ssas_IndexPattern::referencing_IndexPatternColumnName" <-- "docs.ssas_PumlRelation::referencing_IndexPatternColumnName"
"repo.ForeignKey_ssas_IndexPattern::referencing_ObjectName" <-- "docs.ssas_PumlRelation::referencing_ObjectName"
"repo.ForeignKey_ssas_IndexPattern::referencing_RepoObject_fullname" <-- "docs.ssas_PumlRelation::referencing_RepoObject_fullname"
"repo.ForeignKey_ssas_IndexPattern::referencing_RepoObject_fullname2" <-- "docs.ssas_PumlRelation::referencing_RepoObject_fullname2"
"repo.ForeignKey_ssas_IndexPattern::referencing_RepoObject_guid" <-- "docs.ssas_PumlRelation::referencing_RepoObject_guid"
"repo.ForeignKey_ssas_IndexPattern::relationships_crossFilteringBehavior" <-- "docs.ssas_PumlRelation::relationships_crossFilteringBehavior"
"repo.ForeignKey_ssas_IndexPattern::relationships_fromCardinality" <-- "docs.ssas_PumlRelation::relationships_fromCardinality"
"repo.ForeignKey_ssas_IndexPattern::relationships_isActive" <-- "docs.ssas_PumlRelation::relationships_isActive"
"repo.ForeignKey_ssas_IndexPattern::relationships_name" <-- "docs.ssas_PumlRelation::relationships_name"
"repo.ForeignKey_ssas_IndexPattern::relationships_toCardinality" <-- "docs.ssas_PumlRelation::relationships_toCardinality"
"repo.ForeignKey_ssas_IndexPattern::update_referential_action" <-- "docs.ssas_PumlRelation::update_referential_action"footer The diagram is interactive and contains links.
@enduml

