@startuml
left to right direction
'top to bottom direction
hide circle
'avoide "." issues:
set namespaceSeparator none


skinparam class {
  BackgroundColor White
  BackgroundColor<<FN>> Yellow
  BackgroundColor<<FS>> Yellow
  BackgroundColor<<FT>> LightGray
  BackgroundColor<<IF>> Yellow
  BackgroundColor<<IS>> Yellow
  BackgroundColor<<P>> Aqua
  BackgroundColor<<PC>> Aqua
  BackgroundColor<<SN>> Yellow
  BackgroundColor<<SO>> SlateBlue
  BackgroundColor<<TF>> LightGray
  BackgroundColor<<TR>> Tomato
  BackgroundColor<<U>> White
  BackgroundColor<<V>> WhiteSmoke
  BackgroundColor<<X>> Aqua
  BackgroundColor<<external>> AliceBlue
}


entity "puml-link:dhw:sqldb:docs.fs_cleanstringforanchorid.adoc[]" as docs.fs_cleanStringForAnchorId << FN >> {
  --
}

entity "puml-link:dhw:sqldb:docs.fs_cleanstringforheader.adoc[]" as docs.fs_cleanStringForHeader << FN >> {
  --
}

entity "puml-link:dhw:sqldb:docs.ssis_adoc.adoc[]" as docs.ssis_Adoc << V >> {
  - **AntoraModule** : (varchar(50))
  **PackageBasename** : (varchar(8000))
  - AdocContent : (nvarchar(max))
  --
}

entity "puml-link:dhw:sqldb:docs.ssis_variablelist.adoc[]" as docs.ssis_VariableList << V >> {
  - AntoraModule : (varchar(50))
  - PackageName : (varchar(200))
  VariableList : (nvarchar(max))
  --
}

entity "puml-link:dhw:sqldb:ssis.packagevariable.adoc[]" as ssis.PackageVariable << U >> {
  - **AntoraModule** : (varchar(50))
  - **PackageName** : (varchar(200))
  - **VariableName** : (varchar(500))
  ExpressionValue : (varchar(5000))
  VariableDataType : (varchar(max))
  VariableHexValue : (varchar(1000))
  VariableValue : (varchar(max))
  --
}

docs.fs_cleanStringForAnchorId <.. docs.ssis_VariableList
docs.fs_cleanStringForHeader <.. docs.ssis_VariableList
docs.ssis_VariableList <.. docs.ssis_Adoc
ssis.PackageVariable <.. docs.ssis_VariableList
"ssis.PackageVariable::AntoraModule" <-- "docs.ssis_VariableList::AntoraModule"
"ssis.PackageVariable::PackageName" <-- "docs.ssis_VariableList::PackageName"footer The diagram is interactive and contains links.
@enduml

