@startuml
left to right direction
'top to bottom direction
hide circle
'avoide "." issues:
set namespaceSeparator none


skinparam class {
  BackgroundColor White
  BackgroundColor<<FN>> Yellow
  BackgroundColor<<FS>> Yellow
  BackgroundColor<<FT>> LightGray
  BackgroundColor<<IF>> Yellow
  BackgroundColor<<IS>> Yellow
  BackgroundColor<<P>> Aqua
  BackgroundColor<<PC>> Aqua
  BackgroundColor<<SN>> Yellow
  BackgroundColor<<SO>> SlateBlue
  BackgroundColor<<TF>> LightGray
  BackgroundColor<<TR>> Tomato
  BackgroundColor<<U>> White
  BackgroundColor<<V>> WhiteSmoke
  BackgroundColor<<X>> Aqua
  BackgroundColor<<external>> AliceBlue
}


entity "puml-link:dhw:sqldb:docs.repoobject_adoc.adoc[]" as docs.RepoObject_Adoc << V >> {
  --
  - AdocContent : (nvarchar(max))
  - cultures_name : (nvarchar(10))
  is_DocsOutput : (int)
  PropertyCount : (int)
  RepoObject_DisplayName : (nvarchar(128))
  RepoObject_FullDisplayName2 : (nvarchar(257))
  RepoObject_fullname : (nvarchar(261))
  RepoObject_fullname2 : (nvarchar(257))
  - RepoObject_guid : (uniqueidentifier)
  RepoObject_schema_name : (nvarchar(128))
  RepoObject_translation : (nvarchar(128))
  SysObject_fullname : (nvarchar(261))
  SysObject_fullname2 : (nvarchar(257))
  SysObject_schema_name : (nvarchar(128))
  SysObject_type : (char(2))
  SysObject_type_name : (nvarchar(128))
  --
  --
}

entity "puml-link:dhw:sqldb:docs.repoobject_indexlist.adoc[]" as docs.RepoObject_IndexList << V >> {
  **RepoObject_guid** : (uniqueidentifier)
  **cultures_name** : (nvarchar(10))
  --
  AntoraIndexList : (nvarchar(max))
  PumlIndexList : (nvarchar(max))
  --
  --
}

entity "puml-link:dhw:sqldb:docs.repoobject_indexlist_t.adoc[]" as docs.RepoObject_IndexList_T << U >> {
  - **RepoObject_guid** : (uniqueidentifier)
  - **cultures_name** : (nvarchar(10))
  --
  AntoraIndexList : (nvarchar(max))
  PumlIndexList : (nvarchar(max))
  --
  --
}

entity "puml-link:dhw:sqldb:docs.repoobject_plantuml_entity.adoc[]" as docs.RepoObject_Plantuml_Entity << V >> {
  --
  - cultures_name : (nvarchar(10))
  - RepoObject_fullname2 : (nvarchar(257))
  - RepoObject_guid : (uniqueidentifier)
  - RepoObject_Puml : (nvarchar(max))
  - RepoObject_PumlOnlyIndex : (nvarchar(max))
  - RepoObject_PumlOnlyPK : (nvarchar(max))
  - RepoObject_PumlOnlyPkOrIndex : (nvarchar(max))
  - RepoObject_PumlOnlyPkOrIndexOrMeasure : (nvarchar(max))
  - RepoObject_PumlOnlyPkOrNotHidden : (nvarchar(max))
  - RepoObject_schema_name : (nvarchar(128))
  --
  --
}

entity "puml-link:dhw:sqldb:docs.usp_persist_repoobject_indexlist_t.adoc[]" as docs.usp_PERSIST_RepoObject_IndexList_T << P >> {
  --
  --
  --
}

docs.RepoObject_IndexList <.. docs.RepoObject_IndexList_T
docs.RepoObject_IndexList_T <.. docs.RepoObject_Plantuml_Entity
docs.RepoObject_IndexList_T <.. docs.usp_PERSIST_RepoObject_IndexList_T
docs.RepoObject_IndexList_T <.. docs.RepoObject_Adoc
"docs.RepoObject_IndexList::AntoraIndexList" <-- "docs.RepoObject_IndexList_T::AntoraIndexList"
"docs.RepoObject_IndexList::cultures_name" <-- "docs.RepoObject_IndexList_T::cultures_name"
"docs.RepoObject_IndexList::PumlIndexList" <-- "docs.RepoObject_IndexList_T::PumlIndexList"
"docs.RepoObject_IndexList::RepoObject_guid" <-- "docs.RepoObject_IndexList_T::RepoObject_guid"
@enduml

