@startuml
left to right direction
'top to bottom direction
hide circle
'avoide "." issues:
set namespaceSeparator none


skinparam class {
  BackgroundColor White
  BackgroundColor<<FN>> Yellow
  BackgroundColor<<FS>> Yellow
  BackgroundColor<<FT>> LightGray
  BackgroundColor<<IF>> Yellow
  BackgroundColor<<IS>> Yellow
  BackgroundColor<<P>> Aqua
  BackgroundColor<<PC>> Aqua
  BackgroundColor<<SN>> Yellow
  BackgroundColor<<SO>> SlateBlue
  BackgroundColor<<TF>> LightGray
  BackgroundColor<<TR>> Tomato
  BackgroundColor<<U>> White
  BackgroundColor<<V>> WhiteSmoke
  BackgroundColor<<X>> Aqua
  BackgroundColor<<external>> AliceBlue
}


entity "puml-link:dhw:sqldb:docs.fs_cleanstringforanchorid.adoc[]" as docs.fs_cleanStringForAnchorId << FN >> {
  --
}

entity "puml-link:dhw:sqldb:docs.fs_cleanstringforfilename.adoc[]" as docs.fs_cleanStringForFilename << FN >> {
  --
}

entity "puml-link:dhw:sqldb:docs.ssis_dfttaskcomponentlist.adoc[]" as docs.ssis_DftTaskComponentList << V >> {
  - AntoraModule : (varchar(50))
  DftTaskComponentList : (nvarchar(max))
  - PackageName : (varchar(200))
  - TaskPath : (varchar(8000))
  --
}

entity "puml-link:dhw:sqldb:docs.ssis_pumldfttask.adoc[]" as docs.ssis_PumlDftTask << V >> {
  - AntoraModule : (varchar(50))
  - PackageName : (varchar(200))
  - PumlDftTask : (nvarchar(max))
  - TaskPath : (varchar(8000))
  --
}

entity "puml-link:dhw:sqldb:docs.ssis_pumlpartialdftcomponent.adoc[]" as docs.ssis_PumlPartialDftComponent << V >> {
  - AntoraModule : (varchar(50))
  - Component_name : (varchar(max))
  - Component_refId : (varchar(max))
  - PackageName : (varchar(200))
  PumlPartialDftComponent : (nvarchar(max))
  - TaskPath : (varchar(8000))
  --
}

entity "puml-link:dhw:sqldb:ssis.packagetask_dft_component.adoc[]" as ssis.PackageTask_Dft_Component << U >> {
  - AntoraModule : (varchar(50))
  Component_AccessMode : (varchar(max))
  Component_AlwaysUseDefaultCodePage : (varchar(max))
  Component_CommandTimeout : (int)
  Component_componentClassID : (varchar(max))
  Component_Connection_description : (varchar(max))
  Component_Connection_name : (varchar(max))
  Component_Connection_refId : (varchar(max))
  Component_connectionManagerID : (varchar(max))
  Component_connectionManagerRefId : (varchar(max))
  Component_ContactInfo : (varchar(max))
  Component_DefaultCodePage : (int)
  Component_description : (varchar(max))
  Component_FastLoadKeepIdentity : (bit)
  Component_FastLoadKeepNulls : (bit)
  Component_FastLoadMaxInsertCommitSize : (int)
  Component_FastLoadOptions : (varchar(max))
  Component_IsSortedProperty : (varchar(10))
  - Component_name : (varchar(max))
  Component_OpenRowset : (varchar(max))
  Component_OpenRowsetVariable : (varchar(max))
  Component_ParameterMapping : (varchar(max))
  - Component_refId : (varchar(max))
  Component_SqlCommand : (varchar(max))
  Component_SqlCommandVariable : (varchar(max))
  Component_VariableName : (varchar(max))
  - ControlFlowDetailsRowID : (int)
  - PackageName : (varchar(200))
  - TaskPath : (varchar(8000))
  ~ Component_ConnectionManagerName : (varchar(max))
  # PackageBasename : (varchar(8000))
  --
}

docs.fs_cleanStringForAnchorId <.. docs.ssis_PumlPartialDftComponent
docs.fs_cleanStringForFilename <.. docs.ssis_PumlPartialDftComponent
docs.ssis_PumlPartialDftComponent <.. docs.ssis_DftTaskComponentList
docs.ssis_PumlPartialDftComponent <.. docs.ssis_PumlDftTask
ssis.PackageTask_Dft_Component <.. docs.ssis_PumlPartialDftComponent
"ssis.PackageTask_Dft_Component::AntoraModule" <-- "docs.ssis_PumlPartialDftComponent::AntoraModule"
"ssis.PackageTask_Dft_Component::Component_name" <-- "docs.ssis_PumlPartialDftComponent::Component_name"
"ssis.PackageTask_Dft_Component::Component_refId" <-- "docs.ssis_PumlPartialDftComponent::Component_refId"
"ssis.PackageTask_Dft_Component::PackageName" <-- "docs.ssis_PumlPartialDftComponent::PackageName"
"ssis.PackageTask_Dft_Component::TaskPath" <-- "docs.ssis_PumlPartialDftComponent::TaskPath"footer The diagram is interactive and contains links.
@enduml

