@startuml
left to right direction
'top to bottom direction
hide circle
'avoide "." issues:
set namespaceSeparator none


skinparam class {
  BackgroundColor White
  BackgroundColor<<FN>> Yellow
  BackgroundColor<<FS>> Yellow
  BackgroundColor<<FT>> LightGray
  BackgroundColor<<IF>> Yellow
  BackgroundColor<<IS>> Yellow
  BackgroundColor<<P>> Aqua
  BackgroundColor<<PC>> Aqua
  BackgroundColor<<SN>> Yellow
  BackgroundColor<<SO>> SlateBlue
  BackgroundColor<<TF>> LightGray
  BackgroundColor<<TR>> Tomato
  BackgroundColor<<U>> White
  BackgroundColor<<V>> WhiteSmoke
  BackgroundColor<<X>> Aqua
  BackgroundColor<<external>> AliceBlue
}


entity "puml-link:dhw:sqldb:docs.fs_cleanstringforpuml.adoc[]" as docs.fs_cleanStringForPuml << FN >> {
  --
  --
  --
}

entity "puml-link:dhw:sqldb:docs.repoobject_outputfilter_t.adoc[]" as docs.RepoObject_OutputFilter_T << U >> {
  - **RepoObject_guid** : (uniqueidentifier)
  - **cultures_name** : (nvarchar(10))
  --
  AntoraComponent : (nvarchar(max))
  AntoraModule : (nvarchar(max))
  external_AntoraComponent : (nvarchar(128))
  external_AntoraModule : (nvarchar(128))
  external_DatabaseName : (nvarchar(128))
  is_DocsOutput : (int)
  - is_external : (bit)
  - is_ssas : (bit)
  - PumlEntityTopDefault : (nvarchar(max))
  - PumlEntityTopWorkaround : (nvarchar(max))
  RepoObject_DisplayName : (nvarchar(128))
  RepoObject_FullDisplayName2 : (nvarchar(257))
  - RepoObject_fullname : (nvarchar(261))
  - RepoObject_fullname2 : (nvarchar(257))
  - RepoObject_name : (nvarchar(128))
  - RepoObject_schema_name : (nvarchar(128))
  RepoObject_translation : (nvarchar(128))
  SysObject_type : (char(2))
  SysObject_type_name : (nvarchar(128))
  tables_isHidden : (bit)
  --
  --
}

entity "puml-link:dhw:sqldb:docs.repoobject_plantuml.adoc[]" as docs.RepoObject_Plantuml << V >> {
  - **RepoObject_guid** : (uniqueidentifier)
  **cultures_name** : (nvarchar(10))
  --
  ColRefList : (nvarchar(max))
  ObjectRefList : (nvarchar(max))
  ObjectRefList_0_30 : (nvarchar(max))
  ObjectRefList_30_0 : (nvarchar(max))
  - PlantumlEntity_0_30_ObjectRef : (nvarchar(max))
  - PlantumlEntity_1_1_ColRef : (nvarchar(max))
  - PlantumlEntity_1_1_FkRef : (nvarchar(max))
  - PlantumlEntity_1_1_ObjectRef : (nvarchar(max))
  - PlantumlEntity_30_0_ObjectRef : (nvarchar(max))
  PumlEntityList : (nvarchar(max))
  PumlEntityList_0_30 : (nvarchar(max))
  PumlEntityList_30_0 : (nvarchar(max))
  - RepoObject_fullname2 : (nvarchar(257))
  --
  --
}

entity "puml-link:dhw:sqldb:docs.repoobject_plantuml_colreflist_1_1.adoc[]" as docs.RepoObject_Plantuml_ColRefList_1_1 << V >> {
  --
  ColRefList : (nvarchar(max))
  - cultures_name : (nvarchar(10))
  - RepoObject_guid : (uniqueidentifier)
  --
  --
}

entity "puml-link:dhw:sqldb:reference.repoobjectcolumn_reference_t.adoc[]" as reference.RepoObjectColumn_reference_T << U >> {
  **referenced_RepoObjectColumn_guid** : (uniqueidentifier)
  **referencing_RepoObjectColumn_guid** : (uniqueidentifier)
  --
  is_referenced_object : (tinyint)
  is_referencing_object_equal_referenced_object : (tinyint)
  referenced_column_name : (nvarchar(128))
  referenced_entity_name : (nvarchar(128))
  referenced_external_AntoraComponent : (nvarchar(128))
  referenced_external_AntoraModule : (nvarchar(128))
  referenced_is_external : (tinyint)
  referenced_RepoObject_guid : (uniqueidentifier)
  referenced_schema_name : (nvarchar(128))
  referenced_type : (char(2))
  referencing_column_name : (nvarchar(128))
  referencing_entity_name : (nvarchar(128))
  referencing_external_AntoraComponent : (nvarchar(128))
  referencing_external_AntoraModule : (nvarchar(128))
  referencing_is_external : (tinyint)
  referencing_RepoObject_guid : (uniqueidentifier)
  referencing_schema_name : (nvarchar(128))
  referencing_type : (char(2))
  # referenced_ro_fullname : (nvarchar(261))
  # referenced_ro_fullname2 : (nvarchar(257))
  # referenced_roc_fullname : (nvarchar(392))
  # referenced_roc_fullname2 : (nvarchar(386))
  # referencing_ro_fullname : (nvarchar(261))
  # referencing_ro_fullname2 : (nvarchar(257))
  # referencing_roc_fullname : (nvarchar(392))
  # referencing_roc_fullname2 : (nvarchar(386))
  --
  --
}

entity "puml-link:dhw:sqldb:ssas.repoobjectcolumn_translation_t.adoc[]" as ssas.RepoObjectColumn_translation_T << U >> {
  - **RepoObjectColumn_guid** : (uniqueidentifier)
  - **cultures_name** : (nvarchar(10))
  --
  - Column_name : (nvarchar(128))
  cultures_translations_model_name : (nvarchar(500))
  cultures_translations_model_tables_columns_name : (nvarchar(128))
  cultures_translations_model_tables_name : (nvarchar(128))
  databasename : (nvarchar(128))
  RepoObjectColumn_DisplayName : (nvarchar(128))
  RepoObjectColumn_translation : (nvarchar(128))
  tables_columns_name : (nvarchar(128))
  tables_name : (nvarchar(128))
  --
  --
}

docs.fs_cleanStringForPuml <.. docs.RepoObject_Plantuml_ColRefList_1_1
docs.RepoObject_OutputFilter_T <.. docs.RepoObject_Plantuml_ColRefList_1_1
docs.RepoObject_Plantuml_ColRefList_1_1 <.. docs.RepoObject_Plantuml
reference.RepoObjectColumn_reference_T <.. docs.RepoObject_Plantuml_ColRefList_1_1
ssas.RepoObjectColumn_translation_T <.. docs.RepoObject_Plantuml_ColRefList_1_1
"docs.RepoObject_OutputFilter_T::cultures_name" <-- "docs.RepoObject_Plantuml_ColRefList_1_1::cultures_name"
"docs.RepoObject_OutputFilter_T::RepoObject_guid" <-- "docs.RepoObject_Plantuml_ColRefList_1_1::RepoObject_guid"
"docs.RepoObject_Plantuml_ColRefList_1_1::ColRefList" <-- "docs.RepoObject_Plantuml::ColRefList"
"docs.RepoObject_Plantuml_ColRefList_1_1::cultures_name" <-- "docs.RepoObject_Plantuml::cultures_name"
@enduml

