@startuml
left to right direction
'top to bottom direction
hide circle
'avoide "." issues:
set namespaceSeparator none


skinparam class {
  BackgroundColor White
  BackgroundColor<<FN>> Yellow
  BackgroundColor<<FS>> Yellow
  BackgroundColor<<FT>> LightGray
  BackgroundColor<<IF>> Yellow
  BackgroundColor<<IS>> Yellow
  BackgroundColor<<P>> Aqua
  BackgroundColor<<PC>> Aqua
  BackgroundColor<<SN>> Yellow
  BackgroundColor<<SO>> SlateBlue
  BackgroundColor<<TF>> LightGray
  BackgroundColor<<TR>> Tomato
  BackgroundColor<<U>> White
  BackgroundColor<<V>> WhiteSmoke
  BackgroundColor<<X>> Aqua
  BackgroundColor<<external>> AliceBlue
}


entity "puml-link:dhw:sqldb:docs.foreignkey_relationscript.adoc[]" as docs.ForeignKey_RelationScript << V >> {
  **referenced_RepoObject_guid** : (uniqueidentifier)
  **referencing_RepoObject_guid** : (uniqueidentifier)
  --
  - DbmlRelation : (nvarchar(4000))
  referenced_RepoObject_fullname : (nvarchar(261))
  referencing_RepoObject_fullname : (nvarchar(261))
  --
  --
}

entity "puml-link:dhw:sqldb:repo.foreignkey_indexes_union_t.adoc[]" as repo.ForeignKey_Indexes_union_T << U >> {
  **ForeignKey_guid** : (uniqueidentifier)
  --
  delete_referential_action : (tinyint)
  ForeignKey_fullname : (nvarchar(517))
  ForeignKey_name : (nvarchar(263))
  - is_MatchingDatatypePattern : (int)
  referenced_index_guid : (uniqueidentifier)
  referenced_index_name : (nvarchar(450))
  referenced_IndexPatternColumnDatatype : (nvarchar(4000))
  referenced_IndexPatternColumnName : (nvarchar(4000))
  referenced_RepoObject_fullname : (nvarchar(517))
  referenced_RepoObject_fullname2 : (nvarchar(257))
  referenced_RepoObject_guid : (uniqueidentifier)
  referenced_SysObject_name : (nvarchar(128))
  referenced_SysObject_schema_name : (nvarchar(128))
  referencing_index_guid : (uniqueidentifier)
  referencing_index_name : (nvarchar(450))
  referencing_IndexPatternColumnDatatype : (nvarchar(4000))
  referencing_IndexPatternColumnName : (nvarchar(4000))
  referencing_RepoObject_fullname : (nvarchar(517))
  referencing_RepoObject_fullname2 : (nvarchar(257))
  referencing_RepoObject_guid : (uniqueidentifier)
  referencing_SysObject_name : (nvarchar(128))
  referencing_SysObject_schema_name : (nvarchar(128))
  update_referential_action : (tinyint)
  --
  --
}

repo.ForeignKey_Indexes_union_T <.. docs.ForeignKey_RelationScript
"repo.ForeignKey_Indexes_union_T::referenced_RepoObject_fullname" <-- "docs.ForeignKey_RelationScript::referenced_RepoObject_fullname"
"repo.ForeignKey_Indexes_union_T::referenced_RepoObject_guid" <-- "docs.ForeignKey_RelationScript::referenced_RepoObject_guid"
"repo.ForeignKey_Indexes_union_T::referencing_RepoObject_fullname" <-- "docs.ForeignKey_RelationScript::referencing_RepoObject_fullname"
"repo.ForeignKey_Indexes_union_T::referencing_RepoObject_guid" <-- "docs.ForeignKey_RelationScript::referencing_RepoObject_guid"
@enduml

