@startuml
left to right direction
'top to bottom direction
hide circle
'avoide "." issues:
set namespaceSeparator none


skinparam class {
  BackgroundColor White
  BackgroundColor<<FN>> Yellow
  BackgroundColor<<FS>> Yellow
  BackgroundColor<<FT>> LightGray
  BackgroundColor<<IF>> Yellow
  BackgroundColor<<IS>> Yellow
  BackgroundColor<<P>> Aqua
  BackgroundColor<<PC>> Aqua
  BackgroundColor<<SN>> Yellow
  BackgroundColor<<SO>> SlateBlue
  BackgroundColor<<TF>> LightGray
  BackgroundColor<<TR>> Tomato
  BackgroundColor<<U>> White
  BackgroundColor<<V>> WhiteSmoke
  BackgroundColor<<X>> Aqua
  BackgroundColor<<external>> AliceBlue
}


entity "puml-link:dhw:sqldb:docs.ftv_repoobject_antoraxref.adoc[]" as docs.ftv_RepoObject_AntoraXref << IF >> {
  AntoraXrefComponentModule : (nvarchar(max))
  AntoraXrefModule : (nvarchar(max))
  cultures_name : (nvarchar(10))
  RepoObject_guid : (uniqueidentifier)
  --
}

entity "puml-link:dhw:sqldb:docs.repoobject_adoc.adoc[]" as docs.RepoObject_Adoc << V >> {
  - AdocContent : (nvarchar(max))
  - cultures_name : (nvarchar(10))
  is_DocsOutput : (int)
  PropertyCount : (int)
  RepoObject_DisplayName : (nvarchar(128))
  RepoObject_FullDisplayName2 : (nvarchar(257))
  RepoObject_fullname : (nvarchar(261))
  RepoObject_fullname2 : (nvarchar(257))
  - RepoObject_guid : (uniqueidentifier)
  RepoObject_schema_name : (nvarchar(128))
  RepoObject_translation : (nvarchar(128))
  SysObject_fullname : (nvarchar(261))
  SysObject_fullname2 : (nvarchar(257))
  SysObject_schema_name : (nvarchar(128))
  SysObject_type : (char(2))
  SysObject_type_name : (nvarchar(128))
  --
}

entity "puml-link:dhw:sqldb:docs.repoobject_antoraxrefcultureslist.adoc[]" as docs.RepoObject_AntoraXrefCulturesList << V >> {
  AntoraXrefCulturesList : (nvarchar(max))
  cultures_count : (int)
  - RepoObject_guid : (uniqueidentifier)
  --
}

entity "puml-link:dhw:sqldb:docs.repoobject_outputfilter_t.adoc[]" as docs.RepoObject_OutputFilter_T << U >> {
  - **RepoObject_guid** : (uniqueidentifier)
  - **cultures_name** : (nvarchar(10))
  AntoraComponent : (nvarchar(max))
  AntoraModule : (nvarchar(max))
  external_AntoraComponent : (nvarchar(128))
  external_AntoraModule : (nvarchar(128))
  external_DatabaseName : (nvarchar(128))
  is_DocsOutput : (int)
  - is_external : (bit)
  - is_ssas : (bit)
  - PumlEntityTopDefault : (nvarchar(max))
  - PumlEntityTopWorkaround : (nvarchar(max))
  RepoObject_DisplayName : (nvarchar(128))
  RepoObject_FullDisplayName2 : (nvarchar(257))
  - RepoObject_fullname : (nvarchar(261))
  - RepoObject_fullname2 : (nvarchar(257))
  - RepoObject_name : (nvarchar(128))
  - RepoObject_schema_name : (nvarchar(128))
  RepoObject_translation : (nvarchar(128))
  SysObject_type : (char(2))
  SysObject_type_name : (nvarchar(128))
  tables_isHidden : (bit)
  --
}

docs.ftv_RepoObject_AntoraXref <.. docs.RepoObject_AntoraXrefCulturesList
docs.RepoObject_AntoraXrefCulturesList <.. docs.RepoObject_Adoc
docs.RepoObject_OutputFilter_T <.. docs.RepoObject_AntoraXrefCulturesList
"docs.RepoObject_OutputFilter_T::RepoObject_guid" <-- "docs.RepoObject_AntoraXrefCulturesList::RepoObject_guid"footer The diagram is interactive and contains links.
@enduml

