@startuml
left to right direction
'top to bottom direction
hide circle
'avoide "." issues:
set namespaceSeparator none


skinparam class {
  BackgroundColor White
  BackgroundColor<<FN>> Yellow
  BackgroundColor<<FS>> Yellow
  BackgroundColor<<FT>> LightGray
  BackgroundColor<<IF>> Yellow
  BackgroundColor<<IS>> Yellow
  BackgroundColor<<P>> Aqua
  BackgroundColor<<PC>> Aqua
  BackgroundColor<<SN>> Yellow
  BackgroundColor<<SO>> SlateBlue
  BackgroundColor<<TF>> LightGray
  BackgroundColor<<TR>> Tomato
  BackgroundColor<<U>> White
  BackgroundColor<<V>> WhiteSmoke
  BackgroundColor<<X>> Aqua
  BackgroundColor<<external>> AliceBlue
}


entity "puml-link:dhw:sqldb:docs.ssis_adoc.adoc[]" as docs.ssis_Adoc << V >> {
  - **AntoraModule** : (varchar(50))
  **PackageBasename** : (varchar(8000))
  - AdocContent : (nvarchar(max))
  --
}

entity "puml-link:dhw:sqldb:docs.ssis_adoc_t.adoc[]" as docs.ssis_Adoc_T << U >> {
  - **AntoraModule** : (varchar(50))
  **PackageBasename** : (varchar(8000))
  - AdocContent : (nvarchar(max))
  --
}

entity "puml-link:dhw:sqldb:docs.usp_antoraexport_ssispartialproperties.adoc[]" as docs.usp_AntoraExport_SsisPartialProperties << P >> {
  --
}

entity "puml-link:dhw:sqldb:docs.usp_persist_ssis_adoc_t.adoc[]" as docs.usp_PERSIST_ssis_Adoc_T << P >> {
  --
}

entity "puml-link:dhw:sqldb:logs.usp_executionlog_insert.adoc[]" as logs.usp_ExecutionLog_insert << P >> {
  --
}

docs.ssis_Adoc <.. docs.usp_PERSIST_ssis_Adoc_T
docs.ssis_Adoc_T <.. docs.usp_PERSIST_ssis_Adoc_T
docs.usp_PERSIST_ssis_Adoc_T <.. docs.usp_AntoraExport_SsisPartialProperties
logs.usp_ExecutionLog_insert <.. docs.usp_PERSIST_ssis_Adoc_T
footer The diagram is interactive and contains links.
@enduml

