@startuml
left to right direction
'top to bottom direction
hide circle
'avoide "." issues:
set namespaceSeparator none


skinparam class {
  BackgroundColor White
  BackgroundColor<<FN>> Yellow
  BackgroundColor<<FS>> Yellow
  BackgroundColor<<FT>> LightGray
  BackgroundColor<<IF>> Yellow
  BackgroundColor<<IS>> Yellow
  BackgroundColor<<P>> Aqua
  BackgroundColor<<PC>> Aqua
  BackgroundColor<<SN>> Yellow
  BackgroundColor<<SO>> SlateBlue
  BackgroundColor<<TF>> LightGray
  BackgroundColor<<TR>> Tomato
  BackgroundColor<<U>> White
  BackgroundColor<<V>> WhiteSmoke
  BackgroundColor<<X>> Aqua
  BackgroundColor<<external>> AliceBlue
}


entity "puml-link:dhw:sqldb:docs.fs_cleanstringforanchorid.adoc[]" as docs.fs_cleanStringForAnchorId << FN >> {
  --
}

entity "puml-link:dhw:sqldb:docs.fs_cleanstringforheader.adoc[]" as docs.fs_cleanStringForHeader << FN >> {
  --
}

entity "puml-link:dhw:sqldb:docs.ssis_dfttaskcomponentinputcolumnlist.adoc[]" as docs.ssis_DftTaskComponentInputColumnList << V >> {
  - AntoraModule : (varchar(50))
  Component_refId : (varchar(max))
  - DftTaskComponentInputColumnList : (nvarchar(max))
  input_refId : (varchar(max))
  PackageName : (varchar(200))
  TaskPath : (varchar(8000))
  --
}

entity "puml-link:dhw:sqldb:docs.ssis_dfttaskcomponentinputlist.adoc[]" as docs.ssis_DftTaskComponentInputList << V >> {
  - AntoraModule : (varchar(50))
  Component_refId : (varchar(max))
  DftTaskComponentInputList : (nvarchar(max))
  PackageName : (varchar(200))
  TaskPath : (varchar(8000))
  --
}

entity "puml-link:dhw:sqldb:ssis.packagetask_dft_component_input_externalmetadatacolumn.adoc[]" as ssis.PackageTask_Dft_Component_input_externalMetadataColumn << U >> {
  - AntoraModule : (varchar(50))
  Column_dataType : (varchar(100))
  Column_length : (int)
  Column_name : (varchar(max))
  Column_precision : (int)
  Column_refId : (varchar(max))
  Column_scale : (int)
  Component_refId : (varchar(max))
  - ControlFlowDetailsRowID : (int)
  externalMetadataColumns_isused : (bit)
  input_errorOrTruncationOperation : (varchar(100))
  input_errorRowDisposition : (varchar(100))
  input_hasSideEffects : (bit)
  input_name : (varchar(500))
  input_refId : (varchar(max))
  PackageName : (varchar(200))
  TaskPath : (varchar(8000))
  --
}

entity "puml-link:dhw:sqldb:ssis.packagetask_dft_component_input_inputcolumn.adoc[]" as ssis.PackageTask_Dft_Component_input_inputColumn << U >> {
  - AntoraModule : (varchar(50))
  Column_cachedDataType : (varchar(100))
  Column_cachedName : (varchar(max))
  Column_externalMetadataColumnId : (varchar(max))
  Column_lineageId : (varchar(max))
  Column_refId : (varchar(max))
  Component_refId : (varchar(max))
  - ControlFlowDetailsRowID : (int)
  input_errorOrTruncationOperation : (varchar(100))
  input_errorRowDisposition : (varchar(100))
  input_hasSideEffects : (bit)
  input_name : (varchar(500))
  input_refId : (varchar(max))
  PackageName : (varchar(200))
  TaskPath : (varchar(8000))
  --
}

docs.fs_cleanStringForAnchorId <.. docs.ssis_DftTaskComponentInputColumnList
docs.fs_cleanStringForHeader <.. docs.ssis_DftTaskComponentInputColumnList
docs.ssis_DftTaskComponentInputColumnList <.. docs.ssis_DftTaskComponentInputList
ssis.PackageTask_Dft_Component_input_externalMetadataColumn <.. docs.ssis_DftTaskComponentInputColumnList
ssis.PackageTask_Dft_Component_input_inputColumn <.. docs.ssis_DftTaskComponentInputColumnList
"ssis.PackageTask_Dft_Component_input_inputColumn::AntoraModule" <-- "docs.ssis_DftTaskComponentInputColumnList::AntoraModule"
"ssis.PackageTask_Dft_Component_input_inputColumn::Component_refId" <-- "docs.ssis_DftTaskComponentInputColumnList::Component_refId"
"ssis.PackageTask_Dft_Component_input_inputColumn::input_refId" <-- "docs.ssis_DftTaskComponentInputColumnList::input_refId"
"ssis.PackageTask_Dft_Component_input_inputColumn::PackageName" <-- "docs.ssis_DftTaskComponentInputColumnList::PackageName"
"ssis.PackageTask_Dft_Component_input_inputColumn::TaskPath" <-- "docs.ssis_DftTaskComponentInputColumnList::TaskPath"footer The diagram is interactive and contains links.
@enduml

