@startuml
left to right direction
'top to bottom direction
hide circle
'avoide "." issues:
set namespaceSeparator none


skinparam class {
  BackgroundColor White
  BackgroundColor<<FN>> Yellow
  BackgroundColor<<FS>> Yellow
  BackgroundColor<<FT>> LightGray
  BackgroundColor<<IF>> Yellow
  BackgroundColor<<IS>> Yellow
  BackgroundColor<<P>> Aqua
  BackgroundColor<<PC>> Aqua
  BackgroundColor<<SN>> Yellow
  BackgroundColor<<SO>> SlateBlue
  BackgroundColor<<TF>> LightGray
  BackgroundColor<<TR>> Tomato
  BackgroundColor<<U>> White
  BackgroundColor<<V>> WhiteSmoke
  BackgroundColor<<X>> Aqua
  BackgroundColor<<external>> AliceBlue
}


entity "puml-link:dhw:sqldb:property.external_repoobjectproperty.adoc[]" as property.external_RepoObjectProperty << U >> {
  - **RepoObject_guid** : (uniqueidentifier)
  - **property_name** : (nvarchar(128))
  --
  AntoraComponent : (nvarchar(max))
  AntoraModule : (nvarchar(max))
  dwh_database : (nvarchar(128))
  property_value : (nvarchar(max))
  repo_database : (nvarchar(128))
  - RepoObject_name : (nvarchar(128))
  - RepoObject_schema_name : (nvarchar(128))
  --
  --
}

entity "puml-link:dhw:sqldb:property.repoobjectproperty_external_src.adoc[]" as property.RepoObjectProperty_external_src << V >> {
  - **RepoObject_guid** : (uniqueidentifier)
  - **property_name** : (nvarchar(128))
  --
  property_value : (nvarchar(max))
  --
  --
}

entity "puml-link:dhw:sqldb:property.repoobjectproperty_external_tgt.adoc[]" as property.RepoObjectProperty_external_tgt << V >> {
  - **RepoObject_guid** : (uniqueidentifier)
  - **property_name** : (nvarchar(128))
  --
  inheritance : (tinyint)
  property_value : (nvarchar(max))
  - RepoObjectProperty_id : (int)
  --
  --
}

entity "puml-link:dhw:sqldb:property.usp_persist_repoobjectproperty_external_tgt.adoc[]" as property.usp_PERSIST_RepoObjectProperty_external_tgt << P >> {
  --
  --
  --
}

property.external_RepoObjectProperty <.. property.RepoObjectProperty_external_src
property.RepoObjectProperty_external_src <.. property.RepoObjectProperty_external_tgt
property.RepoObjectProperty_external_src <.. property.usp_PERSIST_RepoObjectProperty_external_tgt
"property.external_RepoObjectProperty::property_name" <-- "property.RepoObjectProperty_external_src::property_name"
"property.external_RepoObjectProperty::property_value" <-- "property.RepoObjectProperty_external_src::property_value"
"property.external_RepoObjectProperty::RepoObject_guid" <-- "property.RepoObjectProperty_external_src::RepoObject_guid"
"property.RepoObjectProperty_external_src::property_name" <-- "property.RepoObjectProperty_external_tgt::property_name"
"property.RepoObjectProperty_external_src::property_value" <-- "property.RepoObjectProperty_external_tgt::property_value"
"property.RepoObjectProperty_external_src::RepoObject_guid" <-- "property.RepoObjectProperty_external_tgt::RepoObject_guid"
@enduml

