@startuml
left to right direction
'top to bottom direction
hide circle
'avoide "." issues:
set namespaceSeparator none


skinparam class {
  BackgroundColor White
  BackgroundColor<<FN>> Yellow
  BackgroundColor<<FS>> Yellow
  BackgroundColor<<FT>> LightGray
  BackgroundColor<<IF>> Yellow
  BackgroundColor<<IS>> Yellow
  BackgroundColor<<P>> Aqua
  BackgroundColor<<PC>> Aqua
  BackgroundColor<<SN>> Yellow
  BackgroundColor<<SO>> SlateBlue
  BackgroundColor<<TF>> LightGray
  BackgroundColor<<TR>> Tomato
  BackgroundColor<<U>> White
  BackgroundColor<<V>> WhiteSmoke
  BackgroundColor<<X>> Aqua
  BackgroundColor<<external>> AliceBlue
}


entity "puml-link:dhw:sqldb:logs.usp_executionlog_insert.adoc[]" as logs.usp_ExecutionLog_insert << P >> {
  --
}

entity "puml-link:dhw:sqldb:property.extendedproperty_repo2sys_level0.adoc[]" as property.ExtendedProperty_Repo2Sys_level0 << V >> {
  - level0name : (nvarchar(128))
  - level0type : (nvarchar(6))
  level1name : (nvarchar(128))
  level1type : (nvarchar(128))
  level2name : (varchar(128))
  level2type : (nvarchar(128))
  - property_name : (varchar(14))
  property_value : (nvarchar(4000))
  --
}

entity "puml-link:dhw:sqldb:property.extendedproperty_repo2sys_level1.adoc[]" as property.ExtendedProperty_Repo2Sys_level1 << V >> {
  - **level0type** : (nvarchar(6))
  - **level0name** : (nvarchar(128))
  **level1type** : (varchar(9))
  - **level1name** : (nvarchar(128))
  - **property_name** : (nvarchar(128))
  level2name : (varchar(128))
  level2type : (varchar(10))
  property_value : (nvarchar(4000))
  - RepoObject_guid : (uniqueidentifier)
  - RepoObject_type : (char(2))
  --
}

entity "puml-link:dhw:sqldb:property.extendedproperty_repo2sys_level2_union.adoc[]" as property.ExtendedProperty_Repo2Sys_level2_Union << V >> {
  - **level0type** : (nvarchar(6))
  - **level0name** : (nvarchar(128))
  **level1type** : (varchar(9))
  - **level1name** : (nvarchar(128))
  **level2type** : (nvarchar(10))
  - **level2name** : (nvarchar(128))
  - **property_name** : (nvarchar(128))
  property_value : (nvarchar(4000))
  --
}

entity "puml-link:dhw:sqldb:property.usp_sync_extendedproperties_repo2sys_delete.adoc[]" as property.usp_sync_ExtendedProperties_Repo2Sys_Delete << P >> {
  --
}

entity "puml-link:dhw:sqldb:repo_sys.extendedproperties_parameterforaddupdatedrop.adoc[]" as repo_sys.ExtendedProperties_ParameterForAddUpdateDrop << V >> {
  - class : (tinyint)
  class_desc : (nvarchar(60))
  level0name : (nvarchar(128))
  - level0type : (varchar(6))
  level1name : (nvarchar(128))
  level1type : (varchar(9))
  level2name : (nvarchar(128))
  level2type : (varchar(10))
  - minor_id : (int)
  - property_name : (sysname)
  property_value : (sql_variant)
  type : (char(2))
  type_level1type : (varchar(9))
  type_level2type : (varchar(10))
  --
}

logs.usp_ExecutionLog_insert <.. property.usp_sync_ExtendedProperties_Repo2Sys_Delete
property.ExtendedProperty_Repo2Sys_level0 <.. property.usp_sync_ExtendedProperties_Repo2Sys_Delete
property.ExtendedProperty_Repo2Sys_level1 <.. property.usp_sync_ExtendedProperties_Repo2Sys_Delete
property.ExtendedProperty_Repo2Sys_level2_Union <.. property.usp_sync_ExtendedProperties_Repo2Sys_Delete
repo_sys.ExtendedProperties_ParameterForAddUpdateDrop <.. property.usp_sync_ExtendedProperties_Repo2Sys_Delete
footer The diagram is interactive and contains links.
@enduml

