@startuml
left to right direction
'top to bottom direction
hide circle
'avoide "." issues:
set namespaceSeparator none


skinparam class {
  BackgroundColor White
  BackgroundColor<<FN>> Yellow
  BackgroundColor<<FS>> Yellow
  BackgroundColor<<FT>> LightGray
  BackgroundColor<<IF>> Yellow
  BackgroundColor<<IS>> Yellow
  BackgroundColor<<P>> Aqua
  BackgroundColor<<PC>> Aqua
  BackgroundColor<<SN>> Yellow
  BackgroundColor<<SO>> SlateBlue
  BackgroundColor<<TF>> LightGray
  BackgroundColor<<TR>> Tomato
  BackgroundColor<<U>> White
  BackgroundColor<<V>> WhiteSmoke
  BackgroundColor<<X>> Aqua
  BackgroundColor<<external>> AliceBlue
}


entity "puml-link:dhw:sqldb:config.parameter.adoc[]" as config.Parameter << U >> {
  - **Parameter_name** : (varchar(100))
  - **sub_Parameter** : (nvarchar(128))
  Parameter_default_value : (nvarchar(max))
  Parameter_desciption : (nvarchar(1000))
  Parameter_value : (nvarchar(max))
  ~ Parameter_value_result : (nvarchar(max))
  ~ Parameter_value_result_date : (date)
  ~ Parameter_value_result_datetime : (datetime)
  ~ Parameter_value_result_int : (int)
  --
}

entity "puml-link:dhw:sqldb:property.propertyname_repoobjectcolumn_t.adoc[]" as property.PropertyName_RepoObjectColumn_T << U >> {
  - **property_name** : (nvarchar(128))
  - has_inheritance : (bit)
  --
}

entity "puml-link:dhw:sqldb:property.repoobjectcolumnproperty.adoc[]" as property.RepoObjectColumnProperty << U >> {
  - **RepoObjectColumnProperty_id** : (int)
  inheritance : (tinyint)
  - property_name : (nvarchar(128))
  - property_value : (nvarchar(max))
  - RepoObjectColumn_guid : (uniqueidentifier)
  ~ property_bigint : (bigint)
  ~ property_float : (float)
  ~ property_int : (int)
  ~ property_money : (money)
  ~ property_real : (real)
  --
}

entity "puml-link:dhw:sqldb:property.repoobjectcolumnproperty_inheritancetype_inheritancedefinition.adoc[]" as property.RepoObjectColumnProperty_InheritanceType_InheritanceDefinition << V >> {
  - **RepoObjectColumn_guid** : (uniqueidentifier)
  - **property_name** : (nvarchar(128))
  Inheritance_StringAggSeparatorSql : (nvarchar(max))
  InheritanceDefinition : (nvarchar(max))
  InheritanceType : (int)
  par_Inheritance_StringAggSeparatorSql : (nvarchar(max))
  par_InheritanceDefinition : (nvarchar(max))
  par_InheritanceType : (int)
  property_value : (nvarchar(max))
  - RepoObjectColumn_name : (nvarchar(128))
  roc_Inheritance_StringAggSeparatorSql : (nvarchar(4000))
  roc_InheritanceDefinition : (nvarchar(4000))
  roc_InheritanceType : (tinyint)
  sub_Inheritance_StringAggSeparatorSql : (nvarchar(max))
  sub_InheritanceDefinition : (nvarchar(max))
  sub_InheritanceType : (int)
  --
}

entity "puml-link:dhw:sqldb:property.repoobjectcolumnproperty_inheritancetype_resulting_inheritancedefinition.adoc[]" as property.RepoObjectColumnProperty_InheritanceType_resulting_InheritanceDefinition << V >> {
  Inheritance_StringAggSeparatorSql : (nvarchar(max))
  InheritanceDefinition : (nvarchar(max))
  InheritanceType : (int)
  - is_force_inherit_empty_source : (int)
  - is_StringAggAllSources : (int)
  - property_name : (nvarchar(128))
  property_value : (nvarchar(max))
  - RepoObjectColumn_guid : (uniqueidentifier)
  - RepoObjectColumn_name : (nvarchar(128))
  resulting_InheritanceDefinition : (nvarchar(max))
  --
}

entity "puml-link:dhw:sqldb:repo.repoobjectcolumn.adoc[]" as repo.RepoObjectColumn << U >> {
  - **RepoObjectColumn_guid** : (uniqueidentifier)
  Inheritance_StringAggSeparatorSql : (nvarchar(4000))
  InheritanceDefinition : (nvarchar(4000))
  InheritanceType : (tinyint)
  is_persistence_no_check : (bit)
  is_persistence_no_include : (bit)
  is_persistence_no_update : (bit)
  is_query_plan_expression : (bit)
  is_required_ColumnMerge : (bit)
  is_SysObjectColumn_missing : (bit)
  persistence_source_RepoObjectColumn_guid : (uniqueidentifier)
  Referencing_Count : (int)
  Repo_default_definition : (nvarchar(max))
  Repo_default_is_system_named : (bit)
  Repo_default_name : (nvarchar(128))
  Repo_definition : (nvarchar(max))
  - Repo_generated_always_type : (tinyint)
  Repo_graph_type : (int)
  Repo_increment_value : (sql_variant)
  - Repo_is_computed : (bit)
  - Repo_is_identity : (bit)
  Repo_is_nullable : (bit)
  Repo_is_persisted : (bit)
  Repo_seed_value : (sql_variant)
  Repo_user_type_fullname : (nvarchar(128))
  Repo_user_type_name : (nvarchar(128))
  Repo_uses_database_collation : (bit)
  - RepoObject_guid : (uniqueidentifier)
  RepoObjectColumn_column_id : (int)
  - RepoObjectColumn_name : (nvarchar(128))
  SysObjectColumn_column_id : (int)
  - SysObjectColumn_name : (nvarchar(128))
  # Column_name : (nvarchar(128))
  ~ has_different_sys_names : (bit)
  # is_RepoObjectColumn_name_uniqueidentifier : (int)
  # is_SysObjectColumn_name_uniqueidentifier : (int)
  --
}

config.Parameter <.. property.RepoObjectColumnProperty_InheritanceType_InheritanceDefinition
property.PropertyName_RepoObjectColumn_T <.. property.RepoObjectColumnProperty_InheritanceType_InheritanceDefinition
property.RepoObjectColumnProperty <.. property.RepoObjectColumnProperty_InheritanceType_InheritanceDefinition
property.RepoObjectColumnProperty_InheritanceType_InheritanceDefinition <.. property.RepoObjectColumnProperty_InheritanceType_resulting_InheritanceDefinition
repo.RepoObjectColumn <.. property.RepoObjectColumnProperty_InheritanceType_InheritanceDefinition
"config.Parameter::Parameter_value_result" <-- "property.RepoObjectColumnProperty_InheritanceType_InheritanceDefinition::sub_Inheritance_StringAggSeparatorSql"
"config.Parameter::Parameter_value_result" <-- "property.RepoObjectColumnProperty_InheritanceType_InheritanceDefinition::sub_InheritanceDefinition"
"config.Parameter::Parameter_value_result" <-- "property.RepoObjectColumnProperty_InheritanceType_InheritanceDefinition::par_InheritanceDefinition"
"config.Parameter::Parameter_value_result" <-- "property.RepoObjectColumnProperty_InheritanceType_InheritanceDefinition::par_Inheritance_StringAggSeparatorSql"
"config.Parameter::Parameter_value_result_int" <-- "property.RepoObjectColumnProperty_InheritanceType_InheritanceDefinition::sub_InheritanceType"
"config.Parameter::Parameter_value_result_int" <-- "property.RepoObjectColumnProperty_InheritanceType_InheritanceDefinition::par_InheritanceType"
"property.PropertyName_RepoObjectColumn_T::property_name" <-- "property.RepoObjectColumnProperty_InheritanceType_InheritanceDefinition::property_name"
"property.RepoObjectColumnProperty::property_value" <-- "property.RepoObjectColumnProperty_InheritanceType_InheritanceDefinition::property_value"
"property.RepoObjectColumnProperty_InheritanceType_InheritanceDefinition::Inheritance_StringAggSeparatorSql" <-- "property.RepoObjectColumnProperty_InheritanceType_resulting_InheritanceDefinition::Inheritance_StringAggSeparatorSql"
"property.RepoObjectColumnProperty_InheritanceType_InheritanceDefinition::InheritanceDefinition" <-- "property.RepoObjectColumnProperty_InheritanceType_resulting_InheritanceDefinition::InheritanceDefinition"
"property.RepoObjectColumnProperty_InheritanceType_InheritanceDefinition::InheritanceType" <-- "property.RepoObjectColumnProperty_InheritanceType_resulting_InheritanceDefinition::InheritanceType"
"property.RepoObjectColumnProperty_InheritanceType_InheritanceDefinition::property_name" <-- "property.RepoObjectColumnProperty_InheritanceType_resulting_InheritanceDefinition::property_name"
"property.RepoObjectColumnProperty_InheritanceType_InheritanceDefinition::property_value" <-- "property.RepoObjectColumnProperty_InheritanceType_resulting_InheritanceDefinition::property_value"
"property.RepoObjectColumnProperty_InheritanceType_InheritanceDefinition::RepoObjectColumn_guid" <-- "property.RepoObjectColumnProperty_InheritanceType_resulting_InheritanceDefinition::RepoObjectColumn_guid"
"property.RepoObjectColumnProperty_InheritanceType_InheritanceDefinition::RepoObjectColumn_name" <-- "property.RepoObjectColumnProperty_InheritanceType_resulting_InheritanceDefinition::RepoObjectColumn_name"
"repo.RepoObjectColumn::Inheritance_StringAggSeparatorSql" <-- "property.RepoObjectColumnProperty_InheritanceType_InheritanceDefinition::roc_Inheritance_StringAggSeparatorSql"
"repo.RepoObjectColumn::Inheritance_StringAggSeparatorSql" <-- "property.RepoObjectColumnProperty_InheritanceType_InheritanceDefinition::Inheritance_StringAggSeparatorSql"
"repo.RepoObjectColumn::InheritanceDefinition" <-- "property.RepoObjectColumnProperty_InheritanceType_InheritanceDefinition::roc_InheritanceDefinition"
"repo.RepoObjectColumn::InheritanceType" <-- "property.RepoObjectColumnProperty_InheritanceType_InheritanceDefinition::roc_InheritanceType"
"repo.RepoObjectColumn::RepoObjectColumn_guid" <-- "property.RepoObjectColumnProperty_InheritanceType_InheritanceDefinition::RepoObjectColumn_guid"
"repo.RepoObjectColumn::RepoObjectColumn_name" <-- "property.RepoObjectColumnProperty_InheritanceType_InheritanceDefinition::RepoObjectColumn_name"footer The diagram is interactive and contains links.
@enduml

