@startuml
left to right direction
'top to bottom direction
hide circle
'avoide "." issues:
set namespaceSeparator none


skinparam class {
  BackgroundColor White
  BackgroundColor<<FN>> Yellow
  BackgroundColor<<FS>> Yellow
  BackgroundColor<<FT>> LightGray
  BackgroundColor<<IF>> Yellow
  BackgroundColor<<IS>> Yellow
  BackgroundColor<<P>> Aqua
  BackgroundColor<<PC>> Aqua
  BackgroundColor<<SN>> Yellow
  BackgroundColor<<SO>> SlateBlue
  BackgroundColor<<TF>> LightGray
  BackgroundColor<<TR>> Tomato
  BackgroundColor<<U>> White
  BackgroundColor<<V>> WhiteSmoke
  BackgroundColor<<X>> Aqua
  BackgroundColor<<external>> AliceBlue
}


entity "puml-link:dhw:sqldb:logs.usp_executionlog_insert.adoc[]" as logs.usp_ExecutionLog_insert << P >> {
  --
}

entity "puml-link:dhw:sqldb:property.propertyname_repoobject.adoc[]" as property.PropertyName_RepoObject << V >> {
  **property_name** : (nvarchar(128))
  --
}

entity "puml-link:dhw:sqldb:property.propertyname_repoobject_t.adoc[]" as property.PropertyName_RepoObject_T << U >> {
  **property_name** : (nvarchar(128))
  - has_inheritance : (bit)
  --
}

entity "puml-link:dhw:sqldb:property.usp_persist_propertyname_repoobject_t.adoc[]" as property.usp_PERSIST_PropertyName_RepoObject_T << P >> {
  --
}

entity "puml-link:dhw:sqldb:property.usp_repoobject_inheritance.adoc[]" as property.usp_RepoObject_Inheritance << P >> {
  --
}

logs.usp_ExecutionLog_insert <.. property.usp_PERSIST_PropertyName_RepoObject_T
property.PropertyName_RepoObject <.. property.usp_PERSIST_PropertyName_RepoObject_T
property.PropertyName_RepoObject_T <.. property.usp_PERSIST_PropertyName_RepoObject_T
property.usp_PERSIST_PropertyName_RepoObject_T <.. property.usp_RepoObject_Inheritance
footer The diagram is interactive and contains links.
@enduml

