@startuml
left to right direction
'top to bottom direction
hide circle
'avoide "." issues:
set namespaceSeparator none


skinparam class {
  BackgroundColor White
  BackgroundColor<<FN>> Yellow
  BackgroundColor<<FS>> Yellow
  BackgroundColor<<FT>> LightGray
  BackgroundColor<<IF>> Yellow
  BackgroundColor<<IS>> Yellow
  BackgroundColor<<P>> Aqua
  BackgroundColor<<PC>> Aqua
  BackgroundColor<<SN>> Yellow
  BackgroundColor<<SO>> SlateBlue
  BackgroundColor<<TF>> LightGray
  BackgroundColor<<TR>> Tomato
  BackgroundColor<<U>> White
  BackgroundColor<<V>> WhiteSmoke
  BackgroundColor<<X>> Aqua
  BackgroundColor<<external>> AliceBlue
}


entity "puml-link:dhw:sqldb:property.repoobjectproperty_collect_source_uspgenerator.adoc[]" as property.RepoObjectProperty_Collect_source_uspgenerator << V >> {
  **RepoObject_guid** : (uniqueidentifier)
  - **property_name** : (varchar(14))
  property_value : (nvarchar(max))
  --
}

entity "puml-link:dhw:sqldb:property.usp_repoobjectproperty_collect.adoc[]" as property.usp_RepoObjectProperty_collect << P >> {
  --
}

entity "puml-link:dhw:sqldb:uspgenerator.generatorusp_sqlusp.adoc[]" as uspgenerator.GeneratorUsp_SqlUsp << V >> {
  - AdocUspSteps : (nvarchar(max))
  - has_logging : (tinyint)
  MS_Description : (nvarchar(4000))
  RepoObject_guid : (uniqueidentifier)
  SqlStepList : (nvarchar(max))
  - SqlUsp : (nvarchar(max))
  usp_Description : (nvarchar(4000))
  - usp_fullname : (nvarchar(261))
  - usp_id : (int)
  - usp_name : (nvarchar(128))
  - usp_schema : (nvarchar(128))
  - UspExamples : (nvarchar(4000))
  UspParameters : (nvarchar(max))
  --
}

property.RepoObjectProperty_Collect_source_uspgenerator <.. property.usp_RepoObjectProperty_collect
uspgenerator.GeneratorUsp_SqlUsp <.. property.RepoObjectProperty_Collect_source_uspgenerator
"uspgenerator.GeneratorUsp_SqlUsp::RepoObject_guid" <-- "property.RepoObjectProperty_Collect_source_uspgenerator::RepoObject_guid"footer The diagram is interactive and contains links.
@enduml

