@startuml
left to right direction
'top to bottom direction
hide circle
'avoide "." issues:
set namespaceSeparator none


skinparam class {
  BackgroundColor White
  BackgroundColor<<FN>> Yellow
  BackgroundColor<<FS>> Yellow
  BackgroundColor<<FT>> LightGray
  BackgroundColor<<IF>> Yellow
  BackgroundColor<<IS>> Yellow
  BackgroundColor<<P>> Aqua
  BackgroundColor<<PC>> Aqua
  BackgroundColor<<SN>> Yellow
  BackgroundColor<<SO>> SlateBlue
  BackgroundColor<<TF>> LightGray
  BackgroundColor<<TR>> Tomato
  BackgroundColor<<U>> White
  BackgroundColor<<V>> WhiteSmoke
  BackgroundColor<<X>> Aqua
  BackgroundColor<<external>> AliceBlue
}


entity "puml-link:dhw:sqldb:property.propertyname_repoobject_t.adoc[]" as property.PropertyName_RepoObject_T << U >> {
  **property_name** : (nvarchar(128))
  - has_inheritance : (bit)
  --
}

entity "puml-link:dhw:sqldb:property.repoobjectproperty.adoc[]" as property.RepoObjectProperty << U >> {
  - **RepoObjectProperty_id** : (int)
  inheritance : (tinyint)
  - property_name : (nvarchar(128))
  property_value : (nvarchar(max))
  - RepoObject_guid : (uniqueidentifier)
  ~ property_bigint : (bigint)
  ~ property_float : (float)
  ~ property_int : (int)
  ~ property_money : (money)
  ~ property_real : (real)
  --
}

entity "puml-link:dhw:sqldb:property.repoobjectproperty_external_src.adoc[]" as property.RepoObjectProperty_external_src << V >> {
  - **RepoObject_guid** : (uniqueidentifier)
  - **property_name** : (nvarchar(128))
  property_value : (nvarchar(max))
  --
}

entity "puml-link:dhw:sqldb:property.repoobjectproperty_external_tgt.adoc[]" as property.RepoObjectProperty_external_tgt << V >> {
  - **RepoObject_guid** : (uniqueidentifier)
  - **property_name** : (nvarchar(128))
  inheritance : (tinyint)
  property_value : (nvarchar(max))
  - RepoObjectProperty_id : (int)
  --
}

entity "puml-link:dhw:sqldb:property.usp_persist_repoobjectproperty_external_tgt.adoc[]" as property.usp_PERSIST_RepoObjectProperty_external_tgt << P >> {
  --
}

entity "puml-link:dhw:sqldb:repo.repoobject.adoc[]" as repo.RepoObject << U >> {
  - **RepoObject_guid** : (uniqueidentifier)
  external_AntoraComponent : (nvarchar(128))
  external_AntoraModule : (nvarchar(128))
  has_execution_plan_issue : (bit)
  has_get_referenced_issue : (bit)
  Inheritance_Source_fullname : (nvarchar(261))
  Inheritance_StringAggSeparatorSql : (nvarchar(4000))
  InheritanceDefinition : (nvarchar(4000))
  InheritanceType : (tinyint)
  - is_DocsExclude : (bit)
  - is_external : (bit)
  is_repo_managed : (bit)
  is_required_ObjectMerge : (bit)
  - is_ssas : (bit)
  is_SysObject_missing : (bit)
  - modify_dt : (datetime)
  pk_index_guid : (uniqueidentifier)
  pk_IndexPatternColumnName_new : (nvarchar(4000))
  Repo_history_table_guid : (uniqueidentifier)
  Repo_temporal_type : (tinyint)
  - RepoObject_name : (nvarchar(128))
  RepoObject_Referencing_Count : (int)
  - RepoObject_schema_name : (nvarchar(128))
  - RepoObject_type : (char(2))
  SysObject_id : (int)
  SysObject_modify_date : (datetime)
  - SysObject_name : (nvarchar(128))
  - SysObject_parent_object_id : (int)
  - SysObject_schema_name : (nvarchar(128))
  SysObject_type : (char(2))
  ~ has_different_sys_names : (bit)
  # is_RepoObject_name_uniqueidentifier : (int)
  # is_SysObject_name_uniqueidentifier : (int)
  ~ node_id : (bigint)
  # RepoObject_fullname : (nvarchar(261))
  # RepoObject_fullname2 : (nvarchar(257))
  # SysObject_fullname : (nvarchar(261))
  # SysObject_fullname2 : (nvarchar(257))
  ~ SysObject_query_sql : (nvarchar(406))
  # usp_persistence_fullname2 : (nvarchar(269))
  # usp_persistence_name : (nvarchar(140))
  --
}

property.PropertyName_RepoObject_T <.. property.RepoObjectProperty_external_tgt
property.RepoObjectProperty <.. property.RepoObjectProperty_external_tgt
property.RepoObjectProperty_external_src <.. property.RepoObjectProperty_external_tgt
property.RepoObjectProperty_external_tgt <.. property.PropertyName_RepoObject_T
property.RepoObjectProperty_external_tgt <.. property.usp_PERSIST_RepoObjectProperty_external_tgt
property.RepoObjectProperty_external_tgt <.. property.RepoObjectProperty
property.RepoObjectProperty_external_tgt <.. repo.RepoObject
repo.RepoObject <.. property.RepoObjectProperty_external_tgt
"property.RepoObjectProperty::inheritance" <-- "property.RepoObjectProperty_external_tgt::inheritance"
"property.RepoObjectProperty::property_name" <-- "property.RepoObjectProperty_external_tgt::property_name"
"property.RepoObjectProperty::property_value" <-- "property.RepoObjectProperty_external_tgt::property_value"
"property.RepoObjectProperty::RepoObject_guid" <-- "property.RepoObjectProperty_external_tgt::RepoObject_guid"
"property.RepoObjectProperty::RepoObjectProperty_id" <-- "property.RepoObjectProperty_external_tgt::RepoObjectProperty_id"
"property.RepoObjectProperty_external_src::property_name" <-- "property.RepoObjectProperty_external_tgt::property_name"
"property.RepoObjectProperty_external_src::property_value" <-- "property.RepoObjectProperty_external_tgt::property_value"
"property.RepoObjectProperty_external_src::RepoObject_guid" <-- "property.RepoObjectProperty_external_tgt::RepoObject_guid"footer The diagram is interactive and contains links.
@enduml

