@startuml
left to right direction
'top to bottom direction
hide circle
'avoide "." issues:
set namespaceSeparator none


skinparam class {
  BackgroundColor White
  BackgroundColor<<FN>> Yellow
  BackgroundColor<<FS>> Yellow
  BackgroundColor<<FT>> LightGray
  BackgroundColor<<IF>> Yellow
  BackgroundColor<<IS>> Yellow
  BackgroundColor<<P>> Aqua
  BackgroundColor<<PC>> Aqua
  BackgroundColor<<SN>> Yellow
  BackgroundColor<<SO>> SlateBlue
  BackgroundColor<<TF>> LightGray
  BackgroundColor<<TR>> Tomato
  BackgroundColor<<U>> White
  BackgroundColor<<V>> WhiteSmoke
  BackgroundColor<<X>> Aqua
  BackgroundColor<<external>> AliceBlue
}


entity "puml-link:dhw:sqldb:logs.usp_executionlog_insert.adoc[]" as logs.usp_ExecutionLog_insert << P >> {
  --
}

entity "puml-link:dhw:sqldb:property.repoobjectcolumn_inheritance_temp.adoc[]" as property.RepoObjectColumn_Inheritance_temp << U >> {
  Inheritance_StringAggSeparatorSql : (nvarchar(4000))
  InheritanceType : (int)
  - is_force_inherit_empty_source : (int)
  - is_StringAggAllSources : (int)
  - property_name : (nvarchar(128))
  property_value : (nvarchar(max))
  property_value_new : (nvarchar(max))
  - referenced_RepoObject_fullname : (nvarchar(261))
  referenced_RepoObjectColumn_guid : (uniqueidentifier)
  - referenced_RepoObjectColumn_name : (nvarchar(128))
  - referencing_RepoObject_fullname : (nvarchar(261))
  - referencing_RepoObjectColumn_name : (nvarchar(128))
  - RepoObjectColumn_guid : (uniqueidentifier)
  resulting_InheritanceDefinition : (nvarchar(4000))
  RowNumberSource : (bigint)
  --
}

entity "puml-link:dhw:sqldb:property.repoobjectcolumnproperty.adoc[]" as property.RepoObjectColumnProperty << U >> {
  - **RepoObjectColumnProperty_id** : (int)
  inheritance : (tinyint)
  - property_name : (nvarchar(128))
  - property_value : (nvarchar(max))
  - RepoObjectColumn_guid : (uniqueidentifier)
  ~ property_bigint : (bigint)
  ~ property_float : (float)
  ~ property_int : (int)
  ~ property_money : (money)
  ~ property_real : (real)
  --
}

entity "puml-link:dhw:sqldb:property.repoobjectcolumnproperty_inheritancetype_resulting_inheritancedefinition.adoc[]" as property.RepoObjectColumnProperty_InheritanceType_resulting_InheritanceDefinition << V >> {
  Inheritance_StringAggSeparatorSql : (nvarchar(max))
  InheritanceDefinition : (nvarchar(max))
  InheritanceType : (int)
  - is_force_inherit_empty_source : (int)
  - is_StringAggAllSources : (int)
  - property_name : (nvarchar(128))
  property_value : (nvarchar(max))
  - RepoObjectColumn_guid : (uniqueidentifier)
  - RepoObjectColumn_name : (nvarchar(128))
  resulting_InheritanceDefinition : (nvarchar(max))
  --
}

entity "puml-link:dhw:sqldb:property.usp_persist_propertyname_repoobjectcolumn_t.adoc[]" as property.usp_PERSIST_PropertyName_RepoObjectColumn_T << P >> {
  --
}

entity "puml-link:dhw:sqldb:property.usp_repoobjectcolumn_inheritance.adoc[]" as property.usp_RepoObjectColumn_Inheritance << P >> {
  --
}

entity "puml-link:dhw:sqldb:repo.usp_main.adoc[]" as repo.usp_main << P >> {
  --
}

logs.usp_ExecutionLog_insert <.. property.usp_RepoObjectColumn_Inheritance
property.RepoObjectColumn_Inheritance_temp <.. property.usp_RepoObjectColumn_Inheritance
property.RepoObjectColumnProperty <.. property.usp_RepoObjectColumn_Inheritance
property.RepoObjectColumnProperty_InheritanceType_resulting_InheritanceDefinition <.. property.usp_RepoObjectColumn_Inheritance
property.usp_PERSIST_PropertyName_RepoObjectColumn_T <.. property.usp_RepoObjectColumn_Inheritance
property.usp_RepoObjectColumn_Inheritance <.. repo.usp_main
footer The diagram is interactive and contains links.
@enduml

