@startuml
left to right direction
'top to bottom direction
hide circle
'avoide "." issues:
set namespaceSeparator none


skinparam class {
  BackgroundColor White
  BackgroundColor<<FN>> Yellow
  BackgroundColor<<FS>> Yellow
  BackgroundColor<<FT>> LightGray
  BackgroundColor<<IF>> Yellow
  BackgroundColor<<IS>> Yellow
  BackgroundColor<<P>> Aqua
  BackgroundColor<<PC>> Aqua
  BackgroundColor<<SN>> Yellow
  BackgroundColor<<SO>> SlateBlue
  BackgroundColor<<TF>> LightGray
  BackgroundColor<<TR>> Tomato
  BackgroundColor<<U>> White
  BackgroundColor<<V>> WhiteSmoke
  BackgroundColor<<X>> Aqua
  BackgroundColor<<external>> AliceBlue
}


entity "puml-link:dhw:sqldb:property.repoobjectproperty_inheritancetype_inheritancedefinition.adoc[]" as property.RepoObjectProperty_InheritanceType_InheritanceDefinition << V >> {
  - **RepoObject_guid** : (uniqueidentifier)
  - **property_name** : (nvarchar(128))
  Inheritance_Source_fullname : (nvarchar(261))
  Inheritance_StringAggSeparatorSql : (nvarchar(max))
  InheritanceDefinition : (nvarchar(max))
  InheritanceType : (int)
  par_Inheritance_StringAggSeparatorSql : (nvarchar(max))
  par_InheritanceDefintion : (nvarchar(max))
  par_InheritanceType : (int)
  property_value : (nvarchar(max))
  - RepoObject_fullname : (nvarchar(261))
  - RepoObject_type : (char(2))
  ro_Inheritance_StringAggSeparatorSql : (nvarchar(4000))
  ro_InheritanceDefinition : (nvarchar(4000))
  ro_InheritanceType : (tinyint)
  sub_Inheritance_StringAggSeparatorSql : (nvarchar(max))
  sub_InheritanceDefintion : (nvarchar(max))
  sub_InheritanceType : (int)
  --
}

entity "puml-link:dhw:sqldb:property.repoobjectproperty_inheritancetype_resulting_inheritancedefinition.adoc[]" as property.RepoObjectProperty_InheritanceType_resulting_InheritanceDefinition << V >> {
  Inheritance_Source_fullname : (nvarchar(261))
  Inheritance_StringAggSeparatorSql : (nvarchar(max))
  InheritanceDefinition : (nvarchar(max))
  InheritanceType : (int)
  - is_force_inherit_empty_source : (int)
  - is_StringAggAllSources : (int)
  - property_name : (nvarchar(128))
  property_value : (nvarchar(max))
  - RepoObject_fullname : (nvarchar(261))
  - RepoObject_guid : (uniqueidentifier)
  - RepoObject_type : (char(2))
  resulting_InheritanceDefinition : (nvarchar(max))
  --
}

entity "puml-link:dhw:sqldb:property.usp_repoobject_inheritance.adoc[]" as property.usp_RepoObject_Inheritance << P >> {
  --
}

property.RepoObjectProperty_InheritanceType_InheritanceDefinition <.. property.RepoObjectProperty_InheritanceType_resulting_InheritanceDefinition
property.RepoObjectProperty_InheritanceType_resulting_InheritanceDefinition <.. property.usp_RepoObject_Inheritance
"property.RepoObjectProperty_InheritanceType_InheritanceDefinition::Inheritance_Source_fullname" <-- "property.RepoObjectProperty_InheritanceType_resulting_InheritanceDefinition::Inheritance_Source_fullname"
"property.RepoObjectProperty_InheritanceType_InheritanceDefinition::Inheritance_StringAggSeparatorSql" <-- "property.RepoObjectProperty_InheritanceType_resulting_InheritanceDefinition::Inheritance_StringAggSeparatorSql"
"property.RepoObjectProperty_InheritanceType_InheritanceDefinition::InheritanceDefinition" <-- "property.RepoObjectProperty_InheritanceType_resulting_InheritanceDefinition::InheritanceDefinition"
"property.RepoObjectProperty_InheritanceType_InheritanceDefinition::InheritanceType" <-- "property.RepoObjectProperty_InheritanceType_resulting_InheritanceDefinition::InheritanceType"
"property.RepoObjectProperty_InheritanceType_InheritanceDefinition::property_name" <-- "property.RepoObjectProperty_InheritanceType_resulting_InheritanceDefinition::property_name"
"property.RepoObjectProperty_InheritanceType_InheritanceDefinition::property_value" <-- "property.RepoObjectProperty_InheritanceType_resulting_InheritanceDefinition::property_value"
"property.RepoObjectProperty_InheritanceType_InheritanceDefinition::RepoObject_fullname" <-- "property.RepoObjectProperty_InheritanceType_resulting_InheritanceDefinition::RepoObject_fullname"
"property.RepoObjectProperty_InheritanceType_InheritanceDefinition::RepoObject_guid" <-- "property.RepoObjectProperty_InheritanceType_resulting_InheritanceDefinition::RepoObject_guid"
"property.RepoObjectProperty_InheritanceType_InheritanceDefinition::RepoObject_type" <-- "property.RepoObjectProperty_InheritanceType_resulting_InheritanceDefinition::RepoObject_type"footer The diagram is interactive and contains links.
@enduml

