@startuml
left to right direction
'top to bottom direction
hide circle
'avoide "." issues:
set namespaceSeparator none


skinparam class {
  BackgroundColor White
  BackgroundColor<<FN>> Yellow
  BackgroundColor<<FS>> Yellow
  BackgroundColor<<FT>> LightGray
  BackgroundColor<<IF>> Yellow
  BackgroundColor<<IS>> Yellow
  BackgroundColor<<P>> Aqua
  BackgroundColor<<PC>> Aqua
  BackgroundColor<<SN>> Yellow
  BackgroundColor<<SO>> SlateBlue
  BackgroundColor<<TF>> LightGray
  BackgroundColor<<TR>> Tomato
  BackgroundColor<<U>> White
  BackgroundColor<<V>> WhiteSmoke
  BackgroundColor<<X>> Aqua
  BackgroundColor<<external>> AliceBlue
}


entity "puml-link:dhw:sqldb:configt.type_level1type_level2type.adoc[]" as configT.type_level1type_level2type << V >> {
  **type** : (nvarchar(128))
  --
  level1type : (varchar(9))
  level2type : (varchar(10))
  type_desc : (nvarchar(128))
  --
  --
}

entity "puml-link:dhw:sqldb:property.extendedproperty_repo2sys_level1.adoc[]" as property.ExtendedProperty_Repo2Sys_level1 << V >> {
  - **level0type** : (nvarchar(6))
  - **level0name** : (nvarchar(128))
  **level1type** : (varchar(9))
  - **level1name** : (nvarchar(128))
  - **property_name** : (nvarchar(128))
  --
  level2name : (varchar(128))
  level2type : (varchar(10))
  property_value : (nvarchar(4000))
  - RepoObject_guid : (uniqueidentifier)
  - RepoObject_type : (char(2))
  --
  --
}

entity "puml-link:dhw:sqldb:property.repoobjectproperty.adoc[]" as property.RepoObjectProperty << U >> {
  - **RepoObjectProperty_id** : (int)
  --
  inheritance : (tinyint)
  - property_name : (nvarchar(128))
  property_value : (nvarchar(max))
  - RepoObject_guid : (uniqueidentifier)
  ~ property_bigint : (bigint)
  ~ property_float : (float)
  ~ property_int : (int)
  ~ property_money : (money)
  ~ property_real : (real)
  --
  --
}

entity "puml-link:dhw:sqldb:property.usp_sync_extendedproperties_repo2sys_delete.adoc[]" as property.usp_sync_ExtendedProperties_Repo2Sys_Delete << P >> {
  --
  --
  --
}

entity "puml-link:dhw:sqldb:property.usp_sync_extendedproperties_repo2sys_insertupdate.adoc[]" as property.usp_sync_ExtendedProperties_Repo2Sys_InsertUpdate << P >> {
  --
  --
  --
}

entity "puml-link:dhw:sqldb:repo.repoobject.adoc[]" as repo.RepoObject << U >> {
  - **RepoObject_guid** : (uniqueidentifier)
  --
  external_AntoraComponent : (nvarchar(128))
  external_AntoraModule : (nvarchar(128))
  has_execution_plan_issue : (bit)
  has_get_referenced_issue : (bit)
  Inheritance_Source_fullname : (nvarchar(261))
  Inheritance_StringAggSeparatorSql : (nvarchar(4000))
  InheritanceDefinition : (nvarchar(4000))
  InheritanceType : (tinyint)
  - is_DocsExclude : (bit)
  - is_external : (bit)
  is_repo_managed : (bit)
  is_required_ObjectMerge : (bit)
  - is_ssas : (bit)
  is_SysObject_missing : (bit)
  - modify_dt : (datetime)
  pk_index_guid : (uniqueidentifier)
  pk_IndexPatternColumnName_new : (nvarchar(4000))
  Repo_history_table_guid : (uniqueidentifier)
  Repo_temporal_type : (tinyint)
  - RepoObject_name : (nvarchar(128))
  RepoObject_Referencing_Count : (int)
  - RepoObject_schema_name : (nvarchar(128))
  - RepoObject_type : (char(2))
  SysObject_id : (int)
  SysObject_modify_date : (datetime)
  - SysObject_name : (nvarchar(128))
  - SysObject_parent_object_id : (int)
  - SysObject_schema_name : (nvarchar(128))
  SysObject_type : (char(2))
  ~ has_different_sys_names : (bit)
  # is_RepoObject_name_uniqueidentifier : (int)
  # is_SysObject_name_uniqueidentifier : (int)
  ~ node_id : (bigint)
  # RepoObject_fullname : (nvarchar(261))
  # RepoObject_fullname2 : (nvarchar(257))
  # SysObject_fullname : (nvarchar(261))
  # SysObject_fullname2 : (nvarchar(257))
  ~ SysObject_query_sql : (nvarchar(406))
  # usp_persistence_fullname2 : (nvarchar(269))
  # usp_persistence_name : (nvarchar(140))
  --
  --
}

configT.type_level1type_level2type <.. property.ExtendedProperty_Repo2Sys_level1
property.ExtendedProperty_Repo2Sys_level1 <.. property.usp_sync_ExtendedProperties_Repo2Sys_InsertUpdate
property.ExtendedProperty_Repo2Sys_level1 <.. property.usp_sync_ExtendedProperties_Repo2Sys_Delete
property.RepoObjectProperty <.. property.ExtendedProperty_Repo2Sys_level1
repo.RepoObject <.. property.ExtendedProperty_Repo2Sys_level1
"configT.type_level1type_level2type::level1type" <-- "property.ExtendedProperty_Repo2Sys_level1::level1type"
"configT.type_level1type_level2type::level2type" <-- "property.ExtendedProperty_Repo2Sys_level1::level2type"
"property.RepoObjectProperty::property_name" <-- "property.ExtendedProperty_Repo2Sys_level1::property_name"
"property.RepoObjectProperty::RepoObject_guid" <-- "property.ExtendedProperty_Repo2Sys_level1::RepoObject_guid"
"repo.RepoObject::RepoObject_name" <-- "property.ExtendedProperty_Repo2Sys_level1::level1name"
"repo.RepoObject::RepoObject_schema_name" <-- "property.ExtendedProperty_Repo2Sys_level1::level0name"
"repo.RepoObject::RepoObject_type" <-- "property.ExtendedProperty_Repo2Sys_level1::RepoObject_type"
@enduml

