@startuml
left to right direction
'top to bottom direction
hide circle
'avoide "." issues:
set namespaceSeparator none


skinparam class {
  BackgroundColor White
  BackgroundColor<<FN>> Yellow
  BackgroundColor<<FS>> Yellow
  BackgroundColor<<FT>> LightGray
  BackgroundColor<<IF>> Yellow
  BackgroundColor<<IS>> Yellow
  BackgroundColor<<P>> Aqua
  BackgroundColor<<PC>> Aqua
  BackgroundColor<<SN>> Yellow
  BackgroundColor<<SO>> SlateBlue
  BackgroundColor<<TF>> LightGray
  BackgroundColor<<TR>> Tomato
  BackgroundColor<<U>> White
  BackgroundColor<<V>> WhiteSmoke
  BackgroundColor<<X>> Aqua
  BackgroundColor<<external>> AliceBlue
}


entity "puml-link:dhw:sqldb:reference.additional_reference_database.adoc[]" as reference.additional_Reference_database << V >> {
  - **AntoraComponent** : (nvarchar(128))
  - **AntoraModule** : (nvarchar(128))
  --
}

entity "puml-link:dhw:sqldb:reference.additional_reference_database_t.adoc[]" as reference.additional_Reference_database_T << U >> {
  - **AntoraComponent** : (nvarchar(128))
  - **AntoraModule** : (nvarchar(128))
  DatabaseName : (nvarchar(128))
  RepoDatabaseName : (nvarchar(128))
  --
}

entity "puml-link:dhw:sqldb:reference.additional_reference_is_external.adoc[]" as reference.additional_Reference_is_external << V >> {
  internal_AntoraComponent : (nvarchar(max))
  internal_AntoraModule : (nvarchar(max))
  - referenced_AntoraComponent : (nvarchar(128))
  - referenced_AntoraModule : (nvarchar(128))
  referenced_Column : (nvarchar(128))
  - referenced_is_external : (int)
  - referenced_Object : (nvarchar(128))
  - referenced_Schema : (nvarchar(128))
  - referencing_AntoraComponent : (nvarchar(128))
  - referencing_AntoraModule : (nvarchar(128))
  referencing_Column : (nvarchar(128))
  - referencing_is_external : (int)
  - referencing_Object : (nvarchar(128))
  - referencing_Schema : (nvarchar(128))
  --
}

entity "puml-link:dhw:sqldb:reference.usp_persist_additional_reference_database_t.adoc[]" as reference.usp_PERSIST_additional_Reference_database_T << P >> {
  --
}

reference.additional_Reference_database <.. reference.additional_Reference_database_T
reference.additional_Reference_database <.. reference.usp_PERSIST_additional_Reference_database_T
reference.additional_Reference_is_external <.. reference.additional_Reference_database
"reference.additional_Reference_database::AntoraComponent" <-- "reference.additional_Reference_database_T::AntoraComponent"
"reference.additional_Reference_database::AntoraModule" <-- "reference.additional_Reference_database_T::AntoraModule"footer The diagram is interactive and contains links.
@enduml

