@startuml
left to right direction
'top to bottom direction
hide circle
'avoide "." issues:
set namespaceSeparator none


skinparam class {
  BackgroundColor White
  BackgroundColor<<FN>> Yellow
  BackgroundColor<<FS>> Yellow
  BackgroundColor<<FT>> LightGray
  BackgroundColor<<IF>> Yellow
  BackgroundColor<<IS>> Yellow
  BackgroundColor<<P>> Aqua
  BackgroundColor<<PC>> Aqua
  BackgroundColor<<SN>> Yellow
  BackgroundColor<<SO>> SlateBlue
  BackgroundColor<<TF>> LightGray
  BackgroundColor<<TR>> Tomato
  BackgroundColor<<U>> White
  BackgroundColor<<V>> WhiteSmoke
  BackgroundColor<<X>> Aqua
  BackgroundColor<<external>> AliceBlue
}


entity "puml-link:dhw:sqldb:reference.repoobject_reference_persistence.adoc[]" as reference.RepoObject_reference_persistence << V >> {
  **referenced_RepoObject_guid** : (uniqueidentifier)
  - **referencing_RepoObject_guid** : (uniqueidentifier)
  --
  - InformationSource : (varchar(27))
  - referenced_entity_name : (nvarchar(128))
  - referenced_fullname : (nvarchar(261))
  referenced_id : (int)
  - referenced_schema_name : (nvarchar(128))
  referenced_type : (char(2))
  - referencing_entity_name : (nvarchar(128))
  - referencing_fullname : (nvarchar(261))
  referencing_id : (int)
  - referencing_schema_name : (nvarchar(128))
  referencing_type : (varchar(2))
  --
  --
}

entity "puml-link:dhw:sqldb:reference.repoobject_reference_union.adoc[]" as reference.RepoObject_reference_union << V >> {
  **referenced_RepoObject_guid** : (uniqueidentifier)
  **referencing_RepoObject_guid** : (uniqueidentifier)
  --
  - InformationSource : (varchar(34))
  - one : (int)
  referenced_entity_name : (nvarchar(128))
  referenced_external_AntoraComponent : (nvarchar(128))
  referenced_external_AntoraModule : (nvarchar(128))
  referenced_fullname : (nvarchar(517))
  referenced_id : (int)
  referenced_is_external : (int)
  referenced_schema_name : (nvarchar(128))
  referenced_type : (char(2))
  referencing_entity_name : (nvarchar(128))
  referencing_external_AntoraComponent : (nvarchar(128))
  referencing_external_AntoraModule : (nvarchar(128))
  referencing_fullname : (nvarchar(517))
  referencing_id : (int)
  referencing_is_external : (int)
  referencing_schema_name : (nvarchar(128))
  referencing_type : (varchar(2))
  --
  --
}

entity "puml-link:dhw:sqldb:repo.repoobject.adoc[]" as repo.RepoObject << U >> {
  - **RepoObject_guid** : (uniqueidentifier)
  --
  external_AntoraComponent : (nvarchar(128))
  external_AntoraModule : (nvarchar(128))
  has_execution_plan_issue : (bit)
  has_get_referenced_issue : (bit)
  Inheritance_Source_fullname : (nvarchar(261))
  Inheritance_StringAggSeparatorSql : (nvarchar(4000))
  InheritanceDefinition : (nvarchar(4000))
  InheritanceType : (tinyint)
  - is_DocsExclude : (bit)
  - is_external : (bit)
  is_repo_managed : (bit)
  is_required_ObjectMerge : (bit)
  - is_ssas : (bit)
  is_SysObject_missing : (bit)
  - modify_dt : (datetime)
  pk_index_guid : (uniqueidentifier)
  pk_IndexPatternColumnName_new : (nvarchar(4000))
  Repo_history_table_guid : (uniqueidentifier)
  Repo_temporal_type : (tinyint)
  - RepoObject_name : (nvarchar(128))
  RepoObject_Referencing_Count : (int)
  - RepoObject_schema_name : (nvarchar(128))
  - RepoObject_type : (char(2))
  SysObject_id : (int)
  SysObject_modify_date : (datetime)
  - SysObject_name : (nvarchar(128))
  - SysObject_parent_object_id : (int)
  - SysObject_schema_name : (nvarchar(128))
  SysObject_type : (char(2))
  ~ has_different_sys_names : (bit)
  # is_RepoObject_name_uniqueidentifier : (int)
  # is_SysObject_name_uniqueidentifier : (int)
  ~ node_id : (bigint)
  # RepoObject_fullname : (nvarchar(261))
  # RepoObject_fullname2 : (nvarchar(257))
  # SysObject_fullname : (nvarchar(261))
  # SysObject_fullname2 : (nvarchar(257))
  ~ SysObject_query_sql : (nvarchar(406))
  # usp_persistence_fullname2 : (nvarchar(269))
  # usp_persistence_name : (nvarchar(140))
  --
  --
}

entity "puml-link:dhw:sqldb:repo.repoobject_persistence.adoc[]" as repo.RepoObject_persistence << U >> {
  - **target_RepoObject_guid** : (uniqueidentifier)
  --
  - has_history : (bit)
  - has_history_columns : (bit)
  history_schema_name : (nvarchar(128))
  history_table_name : (nvarchar(128))
  - is_persistence_check_duplicate_per_pk : (bit)
  - is_persistence_check_for_empty_source : (bit)
  - is_persistence_delete_changed : (bit)
  - is_persistence_delete_missing : (bit)
  - is_persistence_insert : (bit)
  - is_persistence_merge_delete_missing : (bit)
  - is_persistence_merge_insert : (bit)
  - is_persistence_merge_update_changed : (bit)
  - is_persistence_truncate : (bit)
  - is_persistence_update_changed : (bit)
  source_filter : (nvarchar(4000))
  source_RepoObject_guid : (uniqueidentifier)
  source_RepoObject_name : (nvarchar(128))
  target_filter : (nvarchar(4000))
  ~ is_persistence : (bit)
  ~ temporal_type : (tinyint)
  --
  --
}

entity "puml-link:dhw:sqldb:repo.usp_main.adoc[]" as repo.usp_main << P >> {
  --
  --
  --
}

reference.RepoObject_reference_persistence <.. reference.RepoObject_reference_union
reference.RepoObject_reference_persistence <.. repo.usp_main
repo.RepoObject <.. reference.RepoObject_reference_persistence
repo.RepoObject_persistence <.. reference.RepoObject_reference_persistence
"repo.RepoObject::RepoObject_fullname" <-- "reference.RepoObject_reference_persistence::referenced_fullname"
"repo.RepoObject::RepoObject_fullname" <-- "reference.RepoObject_reference_persistence::referencing_fullname"
"repo.RepoObject::SysObject_id" <-- "reference.RepoObject_reference_persistence::referencing_id"
"repo.RepoObject::SysObject_id" <-- "reference.RepoObject_reference_persistence::referenced_id"
"repo.RepoObject::SysObject_name" <-- "reference.RepoObject_reference_persistence::referencing_entity_name"
"repo.RepoObject::SysObject_name" <-- "reference.RepoObject_reference_persistence::referenced_entity_name"
"repo.RepoObject::SysObject_schema_name" <-- "reference.RepoObject_reference_persistence::referencing_schema_name"
"repo.RepoObject::SysObject_schema_name" <-- "reference.RepoObject_reference_persistence::referenced_schema_name"
"repo.RepoObject::SysObject_type" <-- "reference.RepoObject_reference_persistence::referenced_type"
"repo.RepoObject_persistence::source_RepoObject_guid" <-- "reference.RepoObject_reference_persistence::referenced_RepoObject_guid"
"repo.RepoObject_persistence::target_RepoObject_guid" <-- "reference.RepoObject_reference_persistence::referencing_RepoObject_guid"
@enduml

