@startuml
left to right direction
'top to bottom direction
hide circle
'avoide "." issues:
set namespaceSeparator none


skinparam class {
  BackgroundColor White
  BackgroundColor<<FN>> Yellow
  BackgroundColor<<FS>> Yellow
  BackgroundColor<<FT>> LightGray
  BackgroundColor<<IF>> Yellow
  BackgroundColor<<IS>> Yellow
  BackgroundColor<<P>> Aqua
  BackgroundColor<<PC>> Aqua
  BackgroundColor<<SN>> Yellow
  BackgroundColor<<SO>> SlateBlue
  BackgroundColor<<TF>> LightGray
  BackgroundColor<<TR>> Tomato
  BackgroundColor<<U>> White
  BackgroundColor<<V>> WhiteSmoke
  BackgroundColor<<X>> Aqua
  BackgroundColor<<external>> AliceBlue
}


entity "puml-link:dhw:sqldb:reference.repoobjectcolumn_referencedlist.adoc[]" as reference.RepoObjectColumn_ReferencedList << V >> {
  --
  AntoraReferencedColumnList : (nvarchar(max))
  Referencing_fullname : (nvarchar(261))
  Referencing_fullname2 : (nvarchar(257))
  - Referencing_guid : (uniqueidentifier)
  Referencing_type : (char(2))
  ReferencingColumn_fullname : (nvarchar(392))
  ReferencingColumn_fullname2 : (nvarchar(386))
  --
  --
}

entity "puml-link:dhw:sqldb:reference.repoobjectcolumn_referencedreferencing.adoc[]" as reference.RepoObjectColumn_ReferencedReferencing << V >> {
  --
  - referenced_AntoraXref : (nvarchar(max))
  referenced_external_AntoraComponent : (nvarchar(128))
  referenced_external_AntoraModule : (nvarchar(128))
  - Referenced_fullname : (nvarchar(261))
  - Referenced_fullname2 : (nvarchar(257))
  - Referenced_guid : (uniqueidentifier)
  - referenced_is_external : (bit)
  Referenced_RepoObject_guid : (uniqueidentifier)
  Referenced_type : (char(2))
  - ReferencedColumn_fullname : (nvarchar(392))
  - ReferencedColumn_fullname2 : (nvarchar(386))
  ReferencedColumn_name : (nvarchar(128))
  - referencing_AntoraXref : (nvarchar(max))
  referencing_external_AntoraComponent : (nvarchar(128))
  referencing_external_AntoraModule : (nvarchar(128))
  - Referencing_fullname : (nvarchar(261))
  - Referencing_fullname2 : (nvarchar(257))
  - Referencing_guid : (uniqueidentifier)
  - referencing_is_external : (bit)
  Referencing_RepoObject_guid : (uniqueidentifier)
  Referencing_type : (char(2))
  - ReferencingColumn_fullname : (nvarchar(392))
  - ReferencingColumn_fullname2 : (nvarchar(386))
  ReferencingColumn_name : (nvarchar(128))
  --
  --
}

entity "puml-link:dhw:sqldb:repo.repoobjectcolumn_gross2.adoc[]" as repo.RepoObjectColumn_gross2 << V >> {
  --
  AntoraReferencedColumnList : (nvarchar(max))
  AntoraReferencingColumnList : (nvarchar(max))
  - Column_name : (nvarchar(128))
  Description : (nvarchar(max))
  has_different_sys_names : (bit)
  has_get_referenced_issue : (bit)
  index_column_id : (int)
  index_name : (nvarchar(450))
  Inheritance_StringAggSeparatorSql : (nvarchar(4000))
  InheritanceDefinition : (nvarchar(4000))
  InheritanceType : (tinyint)
  - is_external : (bit)
  is_index_primary_key : (bit)
  is_persistence_no_check : (bit)
  is_persistence_no_include : (bit)
  is_persistence_no_update : (bit)
  is_query_plan_expression : (bit)
  is_repo_managed : (bit)
  - is_RepoObject_name_uniqueidentifier : (int)
  - is_RepoObjectColumn_name_uniqueidentifier : (int)
  is_required_ColumnMerge : (bit)
  - is_ssas : (bit)
  is_SysObject_missing : (bit)
  - is_SysObject_name_uniqueidentifier : (int)
  is_SysObjectColumn_missing : (bit)
  - is_SysObjectColumn_name_uniqueidentifier : (int)
  isAnyIndexColumn : (int)
  - modify_dt : (datetime)
  node_id : (bigint)
  persistence_source_RepoObject_guid : (uniqueidentifier)
  persistence_source_RepoObject_guid_via_Column : (uniqueidentifier)
  persistence_source_RepoObjectColumn_guid : (uniqueidentifier)
  pk_index_guid : (uniqueidentifier)
  Property_ms_description : (nvarchar(4000))
  Referencing_Count : (int)
  Repo_default_definition : (nvarchar(max))
  Repo_default_is_system_named : (bit)
  Repo_default_name : (nvarchar(128))
  Repo_definition : (nvarchar(max))
  - Repo_generated_always_type : (tinyint)
  Repo_graph_type : (int)
  Repo_increment_value : (sql_variant)
  - Repo_is_computed : (bit)
  - Repo_is_identity : (bit)
  Repo_is_nullable : (bit)
  Repo_is_persisted : (bit)
  Repo_seed_value : (sql_variant)
  Repo_user_type_fullname : (nvarchar(128))
  Repo_user_type_name : (nvarchar(128))
  Repo_uses_database_collation : (bit)
  - RepoObject_fullname : (nvarchar(261))
  - RepoObject_fullname2 : (nvarchar(257))
  - RepoObject_guid : (uniqueidentifier)
  - RepoObject_name : (nvarchar(128))
  RepoObject_Referencing_Count : (int)
  - RepoObject_schema_name : (nvarchar(128))
  - RepoObject_type : (char(2))
  RepoObjectColumn_column_id : (int)
  - RepoObjectColumn_fullname : (nvarchar(520))
  - RepoObjectColumn_fullname2 : (nvarchar(386))
  - RepoObjectColumn_guid : (uniqueidentifier)
  - RepoObjectColumn_name : (nvarchar(128))
  - SysObject_fullname : (nvarchar(261))
  - SysObject_fullname2 : (nvarchar(257))
  SysObject_id : (int)
  SysObject_modify_date : (datetime)
  - SysObject_name : (nvarchar(128))
  - SysObject_parent_object_id : (int)
  - SysObject_schema_name : (nvarchar(128))
  SysObject_type : (char(2))
  SysObjectColumn_column_id : (int)
  - SysObjectColumn_name : (nvarchar(128))
  tabcol_Description : (nvarchar(max))
  tabcol_DisplayFolder : (nvarchar(500))
  tabcol_Expression : (nvarchar(max))
  tabcol_FormatString : (nvarchar(500))
  - tabcol_IsHidden : (bit)
  - tabcol_IsKey : (bit)
  - tabcol_IsUnique : (bit)
  tabcol_SummarizeBy : (nvarchar(500))
  tabcol_Type : (nvarchar(500))
  --
  --
}

reference.RepoObjectColumn_ReferencedList <.. repo.RepoObjectColumn_gross2
reference.RepoObjectColumn_ReferencedReferencing <.. reference.RepoObjectColumn_ReferencedList
"reference.RepoObjectColumn_ReferencedList::AntoraReferencedColumnList" <-- "repo.RepoObjectColumn_gross2::AntoraReferencedColumnList"
"reference.RepoObjectColumn_ReferencedReferencing::Referencing_fullname" <-- "reference.RepoObjectColumn_ReferencedList::Referencing_fullname"
"reference.RepoObjectColumn_ReferencedReferencing::Referencing_guid" <-- "reference.RepoObjectColumn_ReferencedList::Referencing_guid"
@enduml

