@startuml
left to right direction
'top to bottom direction
hide circle
'avoide "." issues:
set namespaceSeparator none


skinparam class {
  BackgroundColor White
  BackgroundColor<<FN>> Yellow
  BackgroundColor<<FS>> Yellow
  BackgroundColor<<FT>> LightGray
  BackgroundColor<<IF>> Yellow
  BackgroundColor<<IS>> Yellow
  BackgroundColor<<P>> Aqua
  BackgroundColor<<PC>> Aqua
  BackgroundColor<<SN>> Yellow
  BackgroundColor<<SO>> SlateBlue
  BackgroundColor<<TF>> LightGray
  BackgroundColor<<TR>> Tomato
  BackgroundColor<<U>> White
  BackgroundColor<<V>> WhiteSmoke
  BackgroundColor<<X>> Aqua
  BackgroundColor<<external>> AliceBlue
}


entity "puml-link:dhw:sqldb:logs.usp_executionlog_insert.adoc[]" as logs.usp_ExecutionLog_insert << P >> {
  --
}

entity "puml-link:dhw:sqldb:reference.repoobject_referencetree_30_0.adoc[]" as reference.RepoObject_ReferenceTree_30_0 << V >> {
  **RepoObject_guid** : (uniqueidentifier)
  **Referencing_guid** : (uniqueidentifier)
  **Referenced_guid** : (uniqueidentifier)
  Referenced_Depth : (int)
  Referenced_fullname : (nvarchar(261))
  Referenced_fullname2 : (nvarchar(257))
  Referenced_type : (char(2))
  Referencing_Depth : (int)
  Referencing_fullname : (nvarchar(261))
  Referencing_fullname2 : (nvarchar(257))
  Referencing_type : (varchar(2))
  --
}

entity "puml-link:dhw:sqldb:reference.repoobject_referencetree_30_0_t.adoc[]" as reference.RepoObject_ReferenceTree_30_0_T << U >> {
  Referenced_Depth : (int)
  Referenced_fullname : (nvarchar(261))
  Referenced_fullname2 : (nvarchar(257))
  Referenced_guid : (uniqueidentifier)
  Referenced_type : (char(2))
  Referencing_Depth : (int)
  Referencing_fullname : (nvarchar(261))
  Referencing_fullname2 : (nvarchar(257))
  Referencing_guid : (uniqueidentifier)
  Referencing_type : (varchar(2))
  RepoObject_guid : (uniqueidentifier)
  --
}

entity "puml-link:dhw:sqldb:reference.usp_persist_repoobject_referencetree_30_0_t.adoc[]" as reference.usp_PERSIST_RepoObject_ReferenceTree_30_0_T << P >> {
  --
}

entity "puml-link:dhw:sqldb:reference.usp_repoobject_referencetree.adoc[]" as reference.usp_RepoObject_ReferenceTree << P >> {
  --
}

logs.usp_ExecutionLog_insert <.. reference.usp_PERSIST_RepoObject_ReferenceTree_30_0_T
reference.RepoObject_ReferenceTree_30_0 <.. reference.usp_PERSIST_RepoObject_ReferenceTree_30_0_T
reference.RepoObject_ReferenceTree_30_0_T <.. reference.usp_PERSIST_RepoObject_ReferenceTree_30_0_T
reference.usp_PERSIST_RepoObject_ReferenceTree_30_0_T <.. reference.usp_RepoObject_ReferenceTree
footer The diagram is interactive and contains links.
@enduml

