@startuml
left to right direction
'top to bottom direction
hide circle
'avoide "." issues:
set namespaceSeparator none


skinparam class {
  BackgroundColor White
  BackgroundColor<<FN>> Yellow
  BackgroundColor<<FS>> Yellow
  BackgroundColor<<FT>> LightGray
  BackgroundColor<<IF>> Yellow
  BackgroundColor<<IS>> Yellow
  BackgroundColor<<P>> Aqua
  BackgroundColor<<PC>> Aqua
  BackgroundColor<<SN>> Yellow
  BackgroundColor<<SO>> SlateBlue
  BackgroundColor<<TF>> LightGray
  BackgroundColor<<TR>> Tomato
  BackgroundColor<<U>> White
  BackgroundColor<<V>> WhiteSmoke
  BackgroundColor<<X>> Aqua
  BackgroundColor<<external>> AliceBlue
}


entity "puml-link:dhw:sqldb:config.ftv_get_parameter_value.adoc[]" as config.ftv_get_parameter_value << IF >> {
  --
  Parameter_value_result : (nvarchar(max))
  Parameter_value_result_date : (date)
  Parameter_value_result_datetime : (datetime)
  Parameter_value_result_int : (int)
  --
  --
}

entity "puml-link:dhw:sqldb:reference.additional_reference.adoc[]" as reference.additional_Reference << U >> {
  - **Id** : (int)
  --
  - referenced_AntoraComponent : (nvarchar(128))
  - referenced_AntoraModule : (nvarchar(128))
  referenced_Column : (nvarchar(128))
  - referenced_Object : (nvarchar(128))
  - referenced_Schema : (nvarchar(128))
  - referencing_AntoraComponent : (nvarchar(128))
  - referencing_AntoraModule : (nvarchar(128))
  referencing_Column : (nvarchar(128))
  - referencing_Object : (nvarchar(128))
  - referencing_Schema : (nvarchar(128))
  # tik : (nvarchar(1311))
  # tik_hash : (binary(16))
  --
  --
}

entity "puml-link:dhw:sqldb:reference.additional_reference_database.adoc[]" as reference.additional_Reference_database << V >> {
  - **AntoraComponent** : (nvarchar(128))
  - **AntoraModule** : (nvarchar(128))
  --
  --
  --
}

entity "puml-link:dhw:sqldb:reference.additional_reference_is_external.adoc[]" as reference.additional_Reference_is_external << V >> {
  --
  internal_AntoraComponent : (nvarchar(max))
  internal_AntoraModule : (nvarchar(max))
  - referenced_AntoraComponent : (nvarchar(128))
  - referenced_AntoraModule : (nvarchar(128))
  referenced_Column : (nvarchar(128))
  - referenced_is_external : (int)
  - referenced_Object : (nvarchar(128))
  - referenced_Schema : (nvarchar(128))
  - referencing_AntoraComponent : (nvarchar(128))
  - referencing_AntoraModule : (nvarchar(128))
  referencing_Column : (nvarchar(128))
  - referencing_is_external : (int)
  - referencing_Object : (nvarchar(128))
  - referencing_Schema : (nvarchar(128))
  --
  --
}

entity "puml-link:dhw:sqldb:reference.additional_reference_object.adoc[]" as reference.additional_Reference_Object << V >> {
  - **AntoraComponent** : (nvarchar(128))
  - **AntoraModule** : (nvarchar(128))
  - **SchemaName** : (nvarchar(128))
  - **ObjectName** : (nvarchar(128))
  --
  --
  --
}

entity "puml-link:dhw:sqldb:reference.additional_reference_objectcolumn.adoc[]" as reference.additional_Reference_ObjectColumn << V >> {
  - **AntoraComponent** : (nvarchar(128))
  - **AntoraModule** : (nvarchar(128))
  - **SchemaName** : (nvarchar(128))
  - **ObjectName** : (nvarchar(128))
  **ColumnName** : (nvarchar(128))
  --
  --
  --
}

config.ftv_get_parameter_value <.. reference.additional_Reference_is_external
reference.additional_Reference <.. reference.additional_Reference_is_external
reference.additional_Reference_is_external <.. reference.additional_Reference_ObjectColumn
reference.additional_Reference_is_external <.. reference.additional_Reference_Object
reference.additional_Reference_is_external <.. reference.additional_Reference_database
"reference.additional_Reference::referenced_AntoraComponent" <-- "reference.additional_Reference_is_external::referenced_AntoraComponent"
"reference.additional_Reference::referenced_AntoraModule" <-- "reference.additional_Reference_is_external::referenced_AntoraModule"
"reference.additional_Reference::referenced_Column" <-- "reference.additional_Reference_is_external::referenced_Column"
"reference.additional_Reference::referenced_Object" <-- "reference.additional_Reference_is_external::referenced_Object"
"reference.additional_Reference::referenced_Schema" <-- "reference.additional_Reference_is_external::referenced_Schema"
"reference.additional_Reference::referencing_AntoraComponent" <-- "reference.additional_Reference_is_external::referencing_AntoraComponent"
"reference.additional_Reference::referencing_AntoraModule" <-- "reference.additional_Reference_is_external::referencing_AntoraModule"
"reference.additional_Reference::referencing_Column" <-- "reference.additional_Reference_is_external::referencing_Column"
"reference.additional_Reference::referencing_Object" <-- "reference.additional_Reference_is_external::referencing_Object"
"reference.additional_Reference::referencing_Schema" <-- "reference.additional_Reference_is_external::referencing_Schema"
@enduml

