@startuml
left to right direction
'top to bottom direction
hide circle
'avoide "." issues:
set namespaceSeparator none


skinparam class {
  BackgroundColor White
  BackgroundColor<<FN>> Yellow
  BackgroundColor<<FS>> Yellow
  BackgroundColor<<FT>> LightGray
  BackgroundColor<<IF>> Yellow
  BackgroundColor<<IS>> Yellow
  BackgroundColor<<P>> Aqua
  BackgroundColor<<PC>> Aqua
  BackgroundColor<<SN>> Yellow
  BackgroundColor<<SO>> SlateBlue
  BackgroundColor<<TF>> LightGray
  BackgroundColor<<TR>> Tomato
  BackgroundColor<<U>> White
  BackgroundColor<<V>> WhiteSmoke
  BackgroundColor<<X>> Aqua
  BackgroundColor<<external>> AliceBlue
}


entity "puml-link:dhw:sqldb:reference.repoobject_reference_t.adoc[]" as reference.RepoObject_reference_T << U >> {
  **referenced_RepoObject_guid** : (uniqueidentifier)
  **referencing_RepoObject_guid** : (uniqueidentifier)
  --
  - is_ReversePersistenceViaView : (bit)
  referenced_entity_name : (nvarchar(128))
  referenced_external_AntoraComponent : (nvarchar(128))
  referenced_external_AntoraModule : (nvarchar(128))
  referenced_is_external : (int)
  - referenced_is_PersistenceSource : (bit)
  - referenced_is_PersistenceTarget : (bit)
  referenced_schema_name : (nvarchar(128))
  referenced_type : (char(2))
  referencing_entity_name : (nvarchar(128))
  referencing_external_AntoraComponent : (nvarchar(128))
  referencing_external_AntoraModule : (nvarchar(128))
  referencing_is_external : (int)
  - referencing_is_PersistenceTarget : (bit)
  - referencing_is_PersistenceUspSourceRef : (bit)
  referencing_is_PersistenceUspTargetRef : (bit)
  referencing_schema_name : (nvarchar(128))
  referencing_type : (varchar(2))
  # referenced_fullname : (nvarchar(261))
  # referenced_fullname2 : (nvarchar(257))
  ~ referenced_puml_entity : (nvarchar(4000))
  # referencing_fullname : (nvarchar(261))
  # referencing_fullname2 : (nvarchar(257))
  ~ referencing_puml_entity : (nvarchar(4000))
  --
  --
}

entity "puml-link:dhw:sqldb:reference.repoobjectcolumn_reference_sqlexpressiondependencies.adoc[]" as reference.RepoObjectColumn_reference_SqlExpressionDependencies << V >> {
  - **referencing_id** : (int)
  - **referencing_minor_id** : (int)
  **referenced_id** : (int)
  - **referenced_minor_id** : (int)
  --
  definition : (nvarchar(max))
  - InformationSource : (varchar(31))
  is_computed : (bit)
  is_referenced_object : (bit)
  is_referencing_object_equal_referenced_object : (bit)
  referenced_column_name : (sysname)
  referenced_entity_name : (nvarchar(128))
  referenced_node_id : (bigint)
  referenced_RepoObject_guid : (uniqueidentifier)
  referenced_RepoObjectColumn_guid : (uniqueidentifier)
  referenced_schema_name : (nvarchar(128))
  referenced_type : (char(2))
  referencing_column_name : (sysname)
  referencing_entity_name : (nvarchar(128))
  referencing_node_id : (bigint)
  referencing_RepoObject_guid : (uniqueidentifier)
  referencing_RepoObjectColumn_guid : (uniqueidentifier)
  referencing_schema_name : (nvarchar(128))
  referencing_type : (char(2))
  --
  --
}

entity "puml-link:dhw:sqldb:reference.repoobjectcolumn_reference_union.adoc[]" as reference.RepoObjectColumn_reference_union << V >> {
  --
  definition : (nvarchar(max))
  - InformationSource : (varchar(34))
  is_computed : (bit)
  is_referenced_object : (bit)
  is_referencing_object_equal_referenced_object : (bit)
  referenced_column_name : (nvarchar(128))
  referenced_entity_name : (nvarchar(128))
  referenced_external_AntoraComponent : (nvarchar(128))
  referenced_external_AntoraModule : (nvarchar(128))
  referenced_id : (int)
  referenced_is_external : (tinyint)
  referenced_RepoObject_guid : (uniqueidentifier)
  referenced_RepoObjectColumn_guid : (uniqueidentifier)
  referenced_schema_name : (nvarchar(128))
  referenced_type : (char(2))
  referencing_column_name : (nvarchar(128))
  referencing_entity_name : (nvarchar(128))
  referencing_external_AntoraComponent : (nvarchar(128))
  referencing_external_AntoraModule : (nvarchar(128))
  referencing_id : (int)
  referencing_is_external : (tinyint)
  referencing_RepoObject_guid : (uniqueidentifier)
  referencing_RepoObjectColumn_guid : (uniqueidentifier)
  referencing_schema_name : (nvarchar(128))
  referencing_type : (char(2))
  --
  --
}

entity "puml-link:dhw:sqldb:repo_sys.sql_expression_dependencies.adoc[]" as repo_sys.sql_expression_dependencies << V >> {
  --
  definition : (nvarchar(max))
  - is_ambiguous : (bit)
  - is_caller_dependent : (bit)
  is_computed : (bit)
  - is_schema_bound_reference : (bit)
  referenced_class : (tinyint)
  referenced_class_desc : (nvarchar(60))
  referenced_column_name : (sysname)
  referenced_database_name : (nvarchar(128))
  referenced_entity_name : (nvarchar(128))
  referenced_id : (int)
  - referenced_minor_id : (int)
  referenced_RepoObject_guid : (uniqueidentifier)
  referenced_RepoObjectColumn_guid : (uniqueidentifier)
  referenced_schema_name : (nvarchar(128))
  referenced_server_name : (nvarchar(128))
  referenced_type : (char(2))
  referenced_type_desciption : (nvarchar(60))
  referencing_class : (tinyint)
  referencing_class_desc : (nvarchar(60))
  referencing_column_name : (sysname)
  referencing_entity_name : (nvarchar(128))
  - referencing_id : (int)
  - referencing_minor_id : (int)
  referencing_RepoObject_guid : (uniqueidentifier)
  referencing_RepoObjectColumn_guid : (uniqueidentifier)
  referencing_schema_name : (nvarchar(128))
  referencing_type : (char(2))
  referencing_type_desciption : (nvarchar(60))
  --
  --
}

reference.RepoObject_reference_T <.. reference.RepoObjectColumn_reference_SqlExpressionDependencies
reference.RepoObjectColumn_reference_SqlExpressionDependencies <.. reference.RepoObjectColumn_reference_union
repo_sys.sql_expression_dependencies <.. reference.RepoObjectColumn_reference_SqlExpressionDependencies
"repo_sys.sql_expression_dependencies::definition" <-- "reference.RepoObjectColumn_reference_SqlExpressionDependencies::definition"
"repo_sys.sql_expression_dependencies::is_computed" <-- "reference.RepoObjectColumn_reference_SqlExpressionDependencies::is_computed"
"repo_sys.sql_expression_dependencies::referenced_column_name" <-- "reference.RepoObjectColumn_reference_SqlExpressionDependencies::referenced_column_name"
"repo_sys.sql_expression_dependencies::referenced_entity_name" <-- "reference.RepoObjectColumn_reference_SqlExpressionDependencies::referenced_entity_name"
"repo_sys.sql_expression_dependencies::referenced_id" <-- "reference.RepoObjectColumn_reference_SqlExpressionDependencies::referenced_id"
"repo_sys.sql_expression_dependencies::referenced_minor_id" <-- "reference.RepoObjectColumn_reference_SqlExpressionDependencies::referenced_minor_id"
"repo_sys.sql_expression_dependencies::referenced_RepoObject_guid" <-- "reference.RepoObjectColumn_reference_SqlExpressionDependencies::referenced_RepoObject_guid"
"repo_sys.sql_expression_dependencies::referenced_RepoObjectColumn_guid" <-- "reference.RepoObjectColumn_reference_SqlExpressionDependencies::referenced_RepoObjectColumn_guid"
"repo_sys.sql_expression_dependencies::referenced_schema_name" <-- "reference.RepoObjectColumn_reference_SqlExpressionDependencies::referenced_schema_name"
"repo_sys.sql_expression_dependencies::referenced_type" <-- "reference.RepoObjectColumn_reference_SqlExpressionDependencies::referenced_type"
"repo_sys.sql_expression_dependencies::referencing_column_name" <-- "reference.RepoObjectColumn_reference_SqlExpressionDependencies::referencing_column_name"
"repo_sys.sql_expression_dependencies::referencing_entity_name" <-- "reference.RepoObjectColumn_reference_SqlExpressionDependencies::referencing_entity_name"
"repo_sys.sql_expression_dependencies::referencing_id" <-- "reference.RepoObjectColumn_reference_SqlExpressionDependencies::referencing_id"
"repo_sys.sql_expression_dependencies::referencing_minor_id" <-- "reference.RepoObjectColumn_reference_SqlExpressionDependencies::referencing_minor_id"
"repo_sys.sql_expression_dependencies::referencing_RepoObject_guid" <-- "reference.RepoObjectColumn_reference_SqlExpressionDependencies::referencing_RepoObject_guid"
"repo_sys.sql_expression_dependencies::referencing_RepoObjectColumn_guid" <-- "reference.RepoObjectColumn_reference_SqlExpressionDependencies::referencing_RepoObjectColumn_guid"
"repo_sys.sql_expression_dependencies::referencing_schema_name" <-- "reference.RepoObjectColumn_reference_SqlExpressionDependencies::referencing_schema_name"
"repo_sys.sql_expression_dependencies::referencing_type" <-- "reference.RepoObjectColumn_reference_SqlExpressionDependencies::referencing_type"
@enduml

