@startuml
left to right direction
'top to bottom direction
hide circle
'avoide "." issues:
set namespaceSeparator none


skinparam class {
  BackgroundColor White
  BackgroundColor<<FN>> Yellow
  BackgroundColor<<FS>> Yellow
  BackgroundColor<<FT>> LightGray
  BackgroundColor<<IF>> Yellow
  BackgroundColor<<IS>> Yellow
  BackgroundColor<<P>> Aqua
  BackgroundColor<<PC>> Aqua
  BackgroundColor<<SN>> Yellow
  BackgroundColor<<SO>> SlateBlue
  BackgroundColor<<TF>> LightGray
  BackgroundColor<<TR>> Tomato
  BackgroundColor<<U>> White
  BackgroundColor<<V>> WhiteSmoke
  BackgroundColor<<X>> Aqua
  BackgroundColor<<external>> AliceBlue
}


entity "puml-link:dhw:sqldb:docs.ftv_repoobject_reference_plantuml_entityreflist.adoc[]" as docs.ftv_RepoObject_Reference_PlantUml_EntityRefList << IF >> {
  --
  PumlEntityList : (nvarchar(max))
  PumlEntityOnlyPkList : (nvarchar(max))
  Referenced_Depth : (int)
  Referencing_Depth : (int)
  ro_guid : (uniqueidentifier)
  --
  --
}

entity "puml-link:dhw:sqldb:docs.repoobject_plantuml_objectreflist_0_30.adoc[]" as docs.RepoObject_Plantuml_ObjectRefList_0_30 << V >> {
  - **RepoObject_guid** : (uniqueidentifier)
  --
  ObjectRefList : (nvarchar(max))
  --
  --
}

entity "puml-link:dhw:sqldb:docs.repoobject_plantuml_objectreflist_30_0.adoc[]" as docs.RepoObject_Plantuml_ObjectRefList_30_0 << V >> {
  - **RepoObject_guid** : (uniqueidentifier)
  --
  ObjectRefList : (nvarchar(max))
  --
  --
}

entity "puml-link:dhw:sqldb:reference.persistence.adoc[]" as reference.Persistence << V >> {
  --
  referenced_fullname : (nvarchar(261))
  referenced_RepoObject_guid : (uniqueidentifier)
  referenced_schema_name : (nvarchar(128))
  referenced_usp_persistence_name : (nvarchar(140))
  referenced_usp_persistence_RepoObject_guid : (uniqueidentifier)
  referencing_fullname : (nvarchar(261))
  referencing_RepoObject_guid : (uniqueidentifier)
  referencing_schema_name : (nvarchar(128))
  referencing_usp_persistence_name : (nvarchar(140))
  referencing_usp_persistence_RepoObject_guid : (uniqueidentifier)
  --
  --
}

entity "puml-link:dhw:sqldb:reference.repoobject_referencetree.adoc[]" as reference.RepoObject_ReferenceTree << U >> {
  - **RepoObject_guid** : (uniqueidentifier)
  **Referenced_Depth** : (int)
  **Referencing_Depth** : (int)
  - **Referenced_guid** : (uniqueidentifier)
  - **Referencing_guid** : (uniqueidentifier)
  --
  Referenced_fullname : (nvarchar(261))
  Referenced_fullname2 : (nvarchar(257))
  Referenced_type : (char(2))
  Referencing_fullname : (nvarchar(261))
  Referencing_fullname2 : (nvarchar(257))
  Referencing_type : (varchar(2))
  --
  --
}

entity "puml-link:dhw:sqldb:reference.repoobject_referencetree_cyclic.adoc[]" as reference.RepoObject_ReferenceTree_cyclic << V >> {
  --
  Referenced_Depth_0_30 : (int)
  Referenced_Depth_30_0 : (int)
  Referenced_fullname : (nvarchar(261))
  Referenced_fullname2 : (nvarchar(257))
  - Referenced_guid : (uniqueidentifier)
  Referenced_type : (char(2))
  Referencing_Depth_0_30 : (int)
  Referencing_Depth_30_0 : (int)
  Referencing_fullname : (nvarchar(261))
  Referencing_fullname2 : (nvarchar(257))
  - Referencing_guid : (uniqueidentifier)
  Referencing_type : (varchar(2))
  - RepoObject_guid : (uniqueidentifier)
  --
  --
}

entity "puml-link:dhw:sqldb:reference.usp_repoobject_referencetree_insert.adoc[]" as reference.usp_RepoObject_ReferenceTree_insert << P >> {
  --
  --
  --
}

reference.RepoObject_ReferenceTree <.. reference.usp_RepoObject_ReferenceTree_insert
reference.RepoObject_ReferenceTree <.. docs.ftv_RepoObject_Reference_PlantUml_EntityRefList
reference.RepoObject_ReferenceTree <.. docs.RepoObject_Plantuml_ObjectRefList_0_30
reference.RepoObject_ReferenceTree <.. docs.RepoObject_Plantuml_ObjectRefList_30_0
reference.RepoObject_ReferenceTree <.. reference.Persistence
reference.RepoObject_ReferenceTree <.. reference.RepoObject_ReferenceTree_cyclic
"reference.RepoObject_ReferenceTree::Referenced_Depth" <-- "reference.RepoObject_ReferenceTree_cyclic::Referenced_Depth_30_0"
"reference.RepoObject_ReferenceTree::Referenced_Depth" <-- "reference.RepoObject_ReferenceTree_cyclic::Referenced_Depth_0_30"
"reference.RepoObject_ReferenceTree::Referenced_fullname" <-- "reference.RepoObject_ReferenceTree_cyclic::Referenced_fullname"
"reference.RepoObject_ReferenceTree::Referenced_fullname2" <-- "reference.RepoObject_ReferenceTree_cyclic::Referenced_fullname2"
"reference.RepoObject_ReferenceTree::Referenced_guid" <-- "reference.RepoObject_ReferenceTree_cyclic::Referenced_guid"
"reference.RepoObject_ReferenceTree::Referenced_type" <-- "reference.RepoObject_ReferenceTree_cyclic::Referenced_type"
"reference.RepoObject_ReferenceTree::Referencing_Depth" <-- "reference.RepoObject_ReferenceTree_cyclic::Referencing_Depth_30_0"
"reference.RepoObject_ReferenceTree::Referencing_Depth" <-- "reference.RepoObject_ReferenceTree_cyclic::Referencing_Depth_0_30"
"reference.RepoObject_ReferenceTree::Referencing_fullname" <-- "reference.RepoObject_ReferenceTree_cyclic::Referencing_fullname"
"reference.RepoObject_ReferenceTree::Referencing_fullname2" <-- "reference.RepoObject_ReferenceTree_cyclic::Referencing_fullname2"
"reference.RepoObject_ReferenceTree::Referencing_guid" <-- "reference.RepoObject_ReferenceTree_cyclic::Referencing_guid"
"reference.RepoObject_ReferenceTree::Referencing_type" <-- "reference.RepoObject_ReferenceTree_cyclic::Referencing_type"
"reference.RepoObject_ReferenceTree::RepoObject_guid" <-- "reference.RepoObject_ReferenceTree_cyclic::RepoObject_guid"
@enduml

