@startuml
left to right direction
'top to bottom direction
hide circle
'avoide "." issues:
set namespaceSeparator none


skinparam class {
  BackgroundColor White
  BackgroundColor<<FN>> Yellow
  BackgroundColor<<FS>> Yellow
  BackgroundColor<<FT>> LightGray
  BackgroundColor<<IF>> Yellow
  BackgroundColor<<IS>> Yellow
  BackgroundColor<<P>> Aqua
  BackgroundColor<<PC>> Aqua
  BackgroundColor<<SN>> Yellow
  BackgroundColor<<SO>> SlateBlue
  BackgroundColor<<TF>> LightGray
  BackgroundColor<<TR>> Tomato
  BackgroundColor<<U>> White
  BackgroundColor<<V>> WhiteSmoke
  BackgroundColor<<X>> Aqua
  BackgroundColor<<external>> AliceBlue
}


entity "puml-link:dhw:sqldb:reference.repoobjectcolumn_reference_queryplan.adoc[]" as reference.RepoObjectColumn_reference_QueryPlan << V >> {
  **referencing_id** : (int)
  **referencing_minor_id** : (int)
  **referenced_id** : (int)
  **referenced_minor_id** : (int)
  --
  definition : (nvarchar(max))
  - InformationSource : (varchar(10))
  is_computed : (bit)
  is_referenced_object : (bit)
  is_referencing_object_equal_referenced_object : (bit)
  is_source_column_name_expression : (bit)
  is_target_column_name_expression : (bit)
  referenced_column_name : (nvarchar(128))
  referenced_entity_name : (nvarchar(128))
  referenced_node_id : (bigint)
  referenced_RepoObject_guid : (uniqueidentifier)
  referenced_RepoObjectColumn_guid : (uniqueidentifier)
  referenced_schema_name : (nvarchar(128))
  referenced_type : (char(2))
  referencing_column_name : (nvarchar(128))
  - referencing_entity_name : (nvarchar(128))
  referencing_node_id : (bigint)
  - referencing_RepoObject_guid : (uniqueidentifier)
  referencing_RepoObjectColumn_guid : (uniqueidentifier)
  - referencing_schema_name : (nvarchar(128))
  referencing_type : (char(2))
  source_schema_name_quoted : (nvarchar(128))
  source_table_name_quoted : (nvarchar(128))
  --
  --
}

entity "puml-link:dhw:sqldb:reference.repoobjectsource_queryplan.adoc[]" as reference.RepoObjectSource_QueryPlan << U >> {
  --
  const_info : (xml)
  const_value : (nvarchar(4000))
  - RepoObject_guid : (uniqueidentifier)
  source_column_info : (xml)
  source_column_name : (nvarchar(128))
  source_database_name : (nvarchar(128))
  source_schema_name : (nvarchar(128))
  source_server_name : (nvarchar(128))
  source_table_name : (nvarchar(128))
  SysObject_query_executed_dt : (datetime)
  target_column_info : (xml)
  target_column_name : (nvarchar(128))
  ~ is_source_column_name_expression : (bit)
  ~ is_target_column_name_expression : (bit)
  --
  --
}

entity "puml-link:dhw:sqldb:reference.usp_repoobjectsource_queryplan.adoc[]" as reference.usp_RepoObjectSource_QueryPlan << P >> {
  --
  --
  --
}

reference.RepoObjectSource_QueryPlan <.. reference.RepoObjectColumn_reference_QueryPlan
reference.RepoObjectSource_QueryPlan <.. reference.usp_RepoObjectSource_QueryPlan
"reference.RepoObjectSource_QueryPlan::is_source_column_name_expression" <-- "reference.RepoObjectColumn_reference_QueryPlan::is_source_column_name_expression"
"reference.RepoObjectSource_QueryPlan::is_target_column_name_expression" <-- "reference.RepoObjectColumn_reference_QueryPlan::is_target_column_name_expression"
"reference.RepoObjectSource_QueryPlan::RepoObject_guid" <-- "reference.RepoObjectColumn_reference_QueryPlan::referencing_RepoObject_guid"
"reference.RepoObjectSource_QueryPlan::source_column_name" <-- "reference.RepoObjectSource_QueryPlan::is_source_column_name_expression"
"reference.RepoObjectSource_QueryPlan::source_column_name" <-- "reference.RepoObjectColumn_reference_QueryPlan::referenced_column_name"
"reference.RepoObjectSource_QueryPlan::source_schema_name" <-- "reference.RepoObjectColumn_reference_QueryPlan::source_schema_name_quoted"
"reference.RepoObjectSource_QueryPlan::source_table_name" <-- "reference.RepoObjectColumn_reference_QueryPlan::source_table_name_quoted"
"reference.RepoObjectSource_QueryPlan::target_column_name" <-- "reference.RepoObjectSource_QueryPlan::is_target_column_name_expression"
"reference.RepoObjectSource_QueryPlan::target_column_name" <-- "reference.RepoObjectColumn_reference_QueryPlan::referencing_column_name"
@enduml

