@startuml
left to right direction
'top to bottom direction
hide circle
'avoide "." issues:
set namespaceSeparator none


skinparam class {
  BackgroundColor White
  BackgroundColor<<FN>> Yellow
  BackgroundColor<<FS>> Yellow
  BackgroundColor<<FT>> LightGray
  BackgroundColor<<IF>> Yellow
  BackgroundColor<<IS>> Yellow
  BackgroundColor<<P>> Aqua
  BackgroundColor<<PC>> Aqua
  BackgroundColor<<SN>> Yellow
  BackgroundColor<<SO>> SlateBlue
  BackgroundColor<<TF>> LightGray
  BackgroundColor<<TR>> Tomato
  BackgroundColor<<U>> White
  BackgroundColor<<V>> WhiteSmoke
  BackgroundColor<<X>> Aqua
  BackgroundColor<<external>> AliceBlue
}


entity "puml-link:dhw:sqldb:reference.referencetree_cyclic_ref_persistenceusp.adoc[]" as reference.ReferenceTree_cyclic_ref_PersistenceUsp << V >> {
  - referenced_fullname : (nvarchar(261))
  - referenced_fullname2 : (nvarchar(257))
  - Referenced_guid : (uniqueidentifier)
  referenced_type : (char(2))
  - referencing_fullname : (nvarchar(261))
  - referencing_fullname2 : (nvarchar(257))
  - Referencing_guid : (uniqueidentifier)
  referencing_type : (varchar(2))
  --
}

entity "puml-link:dhw:sqldb:reference.referencetree_cyclic_ref_primary.adoc[]" as reference.ReferenceTree_cyclic_ref_primary << V >> {
  Referenced_fullname : (nvarchar(261))
  Referenced_fullname2 : (nvarchar(257))
  - Referenced_guid : (uniqueidentifier)
  Referenced_type : (char(2))
  Referencing_fullname : (nvarchar(261))
  Referencing_fullname2 : (nvarchar(257))
  - Referencing_guid : (uniqueidentifier)
  Referencing_type : (varchar(2))
  --
}

entity "puml-link:dhw:sqldb:reference.referencetree_cyclic_union.adoc[]" as reference.ReferenceTree_cyclic_union << V >> {
  Referenced_fullname : (nvarchar(261))
  Referenced_fullname2 : (nvarchar(257))
  - Referenced_guid : (uniqueidentifier)
  Referenced_type : (char(2))
  Referencing_fullname : (nvarchar(261))
  Referencing_fullname2 : (nvarchar(257))
  - Referencing_guid : (uniqueidentifier)
  Referencing_type : (varchar(2))
  --
}

entity "puml-link:dhw:sqldb:reference.repoobject_referencetree_cyclic.adoc[]" as reference.RepoObject_ReferenceTree_cyclic << V >> {
  Referenced_Depth_0_30 : (int)
  Referenced_Depth_30_0 : (int)
  Referenced_fullname : (nvarchar(261))
  Referenced_fullname2 : (nvarchar(257))
  - Referenced_guid : (uniqueidentifier)
  Referenced_type : (char(2))
  Referencing_Depth_0_30 : (int)
  Referencing_Depth_30_0 : (int)
  Referencing_fullname : (nvarchar(261))
  Referencing_fullname2 : (nvarchar(257))
  - Referencing_guid : (uniqueidentifier)
  Referencing_type : (varchar(2))
  - RepoObject_guid : (uniqueidentifier)
  --
}

reference.ReferenceTree_cyclic_ref_primary <.. reference.ReferenceTree_cyclic_ref_PersistenceUsp
reference.ReferenceTree_cyclic_ref_primary <.. reference.ReferenceTree_cyclic_union
reference.RepoObject_ReferenceTree_cyclic <.. reference.ReferenceTree_cyclic_ref_primary
"reference.RepoObject_ReferenceTree_cyclic::Referenced_fullname" <-- "reference.ReferenceTree_cyclic_ref_primary::Referenced_fullname"
"reference.RepoObject_ReferenceTree_cyclic::Referenced_fullname2" <-- "reference.ReferenceTree_cyclic_ref_primary::Referenced_fullname2"
"reference.RepoObject_ReferenceTree_cyclic::Referenced_guid" <-- "reference.ReferenceTree_cyclic_ref_primary::Referenced_guid"
"reference.RepoObject_ReferenceTree_cyclic::Referenced_type" <-- "reference.ReferenceTree_cyclic_ref_primary::Referenced_type"
"reference.RepoObject_ReferenceTree_cyclic::referencing_fullname" <-- "reference.ReferenceTree_cyclic_ref_primary::Referencing_fullname"
"reference.RepoObject_ReferenceTree_cyclic::referencing_fullname2" <-- "reference.ReferenceTree_cyclic_ref_primary::Referencing_fullname2"
"reference.RepoObject_ReferenceTree_cyclic::Referencing_guid" <-- "reference.ReferenceTree_cyclic_ref_primary::Referencing_guid"
"reference.RepoObject_ReferenceTree_cyclic::referencing_type" <-- "reference.ReferenceTree_cyclic_ref_primary::Referencing_type"footer The diagram is interactive and contains links.
@enduml

