@startuml
left to right direction
'top to bottom direction
hide circle
'avoide "." issues:
set namespaceSeparator none


skinparam class {
  BackgroundColor White
  BackgroundColor<<FN>> Yellow
  BackgroundColor<<FS>> Yellow
  BackgroundColor<<FT>> LightGray
  BackgroundColor<<IF>> Yellow
  BackgroundColor<<IS>> Yellow
  BackgroundColor<<P>> Aqua
  BackgroundColor<<PC>> Aqua
  BackgroundColor<<SN>> Yellow
  BackgroundColor<<SO>> SlateBlue
  BackgroundColor<<TF>> LightGray
  BackgroundColor<<TR>> Tomato
  BackgroundColor<<U>> White
  BackgroundColor<<V>> WhiteSmoke
  BackgroundColor<<X>> Aqua
  BackgroundColor<<external>> AliceBlue
}


entity "puml-link:dhw:sqldb:reference.ftv_repoobject_columreferencerepoobject.adoc[]" as reference.ftv_RepoObject_ColumReferenceRepoObject << IF >> {
  --
  Dbml : (nvarchar(max))
  Parameter_RepoObject_guid : (uniqueidentifier)
  RepoObject_fullname : (nvarchar(261))
  RepoObject_guid : (uniqueidentifier)
  RepoObject_type : (char(2))
  --
  --
}

entity "puml-link:dhw:sqldb:reference.ftv_repoobjectcolumn_referencetree.adoc[]" as reference.ftv_RepoObjectColumn_ReferenceTree << IF >> {
  --
  Referenced_Depth : (int)
  Referenced_fullname : (nvarchar(261))
  Referenced_fullname2 : (nvarchar(257))
  Referenced_guid : (uniqueidentifier)
  Referenced_RepoObject_guid : (uniqueidentifier)
  Referenced_type : (char(2))
  ReferencedColumn_fullname : (nvarchar(392))
  ReferencedColumn_fullname2 : (nvarchar(386))
  ReferencedColumn_name : (nvarchar(128))
  Referencing_Depth : (int)
  Referencing_fullname : (nvarchar(261))
  Referencing_fullname2 : (nvarchar(257))
  Referencing_guid : (uniqueidentifier)
  Referencing_RepoObject_guid : (uniqueidentifier)
  Referencing_type : (char(2))
  ReferencingColumn_fullname : (nvarchar(392))
  ReferencingColumn_fullname2 : (nvarchar(386))
  ReferencingColumn_name : (nvarchar(128))
  RepoObjectColumn_guid : (uniqueidentifier)
  --
  --
}

entity "puml-link:dhw:sqldb:reference.repoobjectcolumn_referencetree.adoc[]" as reference.RepoObjectColumn_ReferenceTree << V >> {
  --
  Referenced_Depth : (int)
  Referenced_fullname : (nvarchar(261))
  Referenced_fullname2 : (nvarchar(257))
  Referenced_guid : (uniqueidentifier)
  Referenced_RepoObject_guid : (uniqueidentifier)
  Referenced_type : (char(2))
  ReferencedColumn_fullname : (nvarchar(392))
  ReferencedColumn_fullname2 : (nvarchar(386))
  ReferencedColumn_name : (nvarchar(128))
  Referencing_Depth : (int)
  Referencing_fullname : (nvarchar(261))
  Referencing_fullname2 : (nvarchar(257))
  Referencing_guid : (uniqueidentifier)
  Referencing_RepoObject_guid : (uniqueidentifier)
  Referencing_type : (char(2))
  ReferencingColumn_fullname : (nvarchar(392))
  ReferencingColumn_fullname2 : (nvarchar(386))
  ReferencingColumn_name : (nvarchar(128))
  RepoObjectColumn_guid : (uniqueidentifier)
  --
  --
}

entity "puml-link:dhw:sqldb:repo.repoobjectcolumn.adoc[]" as repo.RepoObjectColumn << U >> {
  - **RepoObjectColumn_guid** : (uniqueidentifier)
  --
  Inheritance_StringAggSeparatorSql : (nvarchar(4000))
  InheritanceDefinition : (nvarchar(4000))
  InheritanceType : (tinyint)
  is_persistence_no_check : (bit)
  is_persistence_no_include : (bit)
  is_persistence_no_update : (bit)
  is_query_plan_expression : (bit)
  is_required_ColumnMerge : (bit)
  is_SysObjectColumn_missing : (bit)
  persistence_source_RepoObjectColumn_guid : (uniqueidentifier)
  Referencing_Count : (int)
  Repo_default_definition : (nvarchar(max))
  Repo_default_is_system_named : (bit)
  Repo_default_name : (nvarchar(128))
  Repo_definition : (nvarchar(max))
  - Repo_generated_always_type : (tinyint)
  Repo_graph_type : (int)
  Repo_increment_value : (sql_variant)
  - Repo_is_computed : (bit)
  - Repo_is_identity : (bit)
  Repo_is_nullable : (bit)
  Repo_is_persisted : (bit)
  Repo_seed_value : (sql_variant)
  Repo_user_type_fullname : (nvarchar(128))
  Repo_user_type_name : (nvarchar(128))
  Repo_uses_database_collation : (bit)
  - RepoObject_guid : (uniqueidentifier)
  RepoObjectColumn_column_id : (int)
  - RepoObjectColumn_name : (nvarchar(128))
  SysObjectColumn_column_id : (int)
  - SysObjectColumn_name : (nvarchar(128))
  # Column_name : (nvarchar(128))
  ~ has_different_sys_names : (bit)
  # is_RepoObjectColumn_name_uniqueidentifier : (int)
  # is_SysObjectColumn_name_uniqueidentifier : (int)
  --
  --
}

reference.ftv_RepoObjectColumn_ReferenceTree <.. reference.RepoObjectColumn_ReferenceTree
reference.RepoObjectColumn_ReferenceTree <.. reference.ftv_RepoObject_ColumReferenceRepoObject
repo.RepoObjectColumn <.. reference.RepoObjectColumn_ReferenceTree

@enduml

