@startuml
left to right direction
'top to bottom direction
hide circle
'avoide "." issues:
set namespaceSeparator none


skinparam class {
  BackgroundColor White
  BackgroundColor<<FN>> Yellow
  BackgroundColor<<FS>> Yellow
  BackgroundColor<<FT>> LightGray
  BackgroundColor<<IF>> Yellow
  BackgroundColor<<IS>> Yellow
  BackgroundColor<<P>> Aqua
  BackgroundColor<<PC>> Aqua
  BackgroundColor<<SN>> Yellow
  BackgroundColor<<SO>> SlateBlue
  BackgroundColor<<TF>> LightGray
  BackgroundColor<<TR>> Tomato
  BackgroundColor<<U>> White
  BackgroundColor<<V>> WhiteSmoke
  BackgroundColor<<X>> Aqua
  BackgroundColor<<external>> AliceBlue
}


entity "puml-link:dhw:sqldb:reference.additional_reference_objectcolumn.adoc[]" as reference.additional_Reference_ObjectColumn << V >> {
  - **AntoraComponent** : (nvarchar(128))
  - **AntoraModule** : (nvarchar(128))
  - **SchemaName** : (nvarchar(128))
  - **ObjectName** : (nvarchar(128))
  **ColumnName** : (nvarchar(128))
  --
}

entity "puml-link:dhw:sqldb:reference.additional_reference_objectcolumn_t.adoc[]" as reference.additional_Reference_ObjectColumn_T << U >> {
  - **RepoObjectColumn_guid** : (uniqueidentifier)
  - AntoraComponent : (nvarchar(128))
  - AntoraModule : (nvarchar(128))
  ColumnName : (nvarchar(128))
  Description : (nvarchar(max))
  - ObjectName : (nvarchar(128))
  - SchemaName : (nvarchar(128))
  --
}

entity "puml-link:dhw:sqldb:reference.usp_persist_additional_reference_objectcolumn_t.adoc[]" as reference.usp_PERSIST_additional_Reference_ObjectColumn_T << P >> {
  --
}

entity "puml-link:dhw:sqldb:repo.repoobjectcolumn_external_src.adoc[]" as repo.RepoObjectColumn_external_src << V >> {
  - **RepoObjectColumn_guid** : (uniqueidentifier)
  - is_SysObjectColumn_missing : (int)
  RepoObject_guid : (uniqueidentifier)
  - RepoObjectColumn_name : (nvarchar(128))
  - SysObjectColumn_name : (nvarchar(128))
  --
}

reference.additional_Reference_ObjectColumn <.. reference.additional_Reference_ObjectColumn_T
reference.additional_Reference_ObjectColumn_T <.. reference.usp_PERSIST_additional_Reference_ObjectColumn_T
reference.additional_Reference_ObjectColumn_T <.. repo.RepoObjectColumn_external_src
"reference.additional_Reference_ObjectColumn::AntoraComponent" <-- "reference.additional_Reference_ObjectColumn_T::AntoraComponent"
"reference.additional_Reference_ObjectColumn::AntoraModule" <-- "reference.additional_Reference_ObjectColumn_T::AntoraModule"
"reference.additional_Reference_ObjectColumn::ColumnName" <-- "reference.additional_Reference_ObjectColumn_T::ColumnName"
"reference.additional_Reference_ObjectColumn::ObjectName" <-- "reference.additional_Reference_ObjectColumn_T::ObjectName"
"reference.additional_Reference_ObjectColumn::SchemaName" <-- "reference.additional_Reference_ObjectColumn_T::SchemaName"
"reference.additional_Reference_ObjectColumn_T::ColumnName" <-- "repo.RepoObjectColumn_external_src::RepoObjectColumn_name"
"reference.additional_Reference_ObjectColumn_T::ColumnName" <-- "repo.RepoObjectColumn_external_src::SysObjectColumn_name"
"reference.additional_Reference_ObjectColumn_T::RepoObjectColumn_guid" <-- "repo.RepoObjectColumn_external_src::RepoObjectColumn_guid"footer The diagram is interactive and contains links.
@enduml

