@startuml
left to right direction
'top to bottom direction
hide circle
'avoide "." issues:
set namespaceSeparator none


skinparam class {
  BackgroundColor White
  BackgroundColor<<FN>> Yellow
  BackgroundColor<<FS>> Yellow
  BackgroundColor<<FT>> LightGray
  BackgroundColor<<IF>> Yellow
  BackgroundColor<<IS>> Yellow
  BackgroundColor<<P>> Aqua
  BackgroundColor<<PC>> Aqua
  BackgroundColor<<SN>> Yellow
  BackgroundColor<<SO>> SlateBlue
  BackgroundColor<<TF>> LightGray
  BackgroundColor<<TR>> Tomato
  BackgroundColor<<U>> White
  BackgroundColor<<V>> WhiteSmoke
  BackgroundColor<<X>> Aqua
  BackgroundColor<<external>> AliceBlue
}


entity "puml-link:dhw:sqldb:config.ftv_dwh_database.adoc[]" as config.ftv_dwh_database << IF >> {
  dwh_database_id : (smallint)
  dwh_database_name : (nvarchar(128))
  --
}

entity "puml-link:dhw:sqldb:logs.usp_executionlog_insert.adoc[]" as logs.usp_ExecutionLog_insert << P >> {
  --
}

entity "puml-link:dhw:sqldb:reference.usp_update_referencing_count.adoc[]" as reference.usp_update_Referencing_Count << P >> {
  --
}

entity "puml-link:dhw:sqldb:repo.repoobject.adoc[]" as repo.RepoObject << U >> {
  - **RepoObject_guid** : (uniqueidentifier)
  external_AntoraComponent : (nvarchar(128))
  external_AntoraModule : (nvarchar(128))
  has_execution_plan_issue : (bit)
  has_get_referenced_issue : (bit)
  Inheritance_Source_fullname : (nvarchar(261))
  Inheritance_StringAggSeparatorSql : (nvarchar(4000))
  InheritanceDefinition : (nvarchar(4000))
  InheritanceType : (tinyint)
  - is_DocsExclude : (bit)
  - is_external : (bit)
  is_repo_managed : (bit)
  is_required_ObjectMerge : (bit)
  - is_ssas : (bit)
  is_SysObject_missing : (bit)
  - modify_dt : (datetime)
  pk_index_guid : (uniqueidentifier)
  pk_IndexPatternColumnName_new : (nvarchar(4000))
  Repo_history_table_guid : (uniqueidentifier)
  Repo_temporal_type : (tinyint)
  - RepoObject_name : (nvarchar(128))
  RepoObject_Referencing_Count : (int)
  - RepoObject_schema_name : (nvarchar(128))
  - RepoObject_type : (char(2))
  SysObject_id : (int)
  SysObject_modify_date : (datetime)
  - SysObject_name : (nvarchar(128))
  - SysObject_parent_object_id : (int)
  - SysObject_schema_name : (nvarchar(128))
  SysObject_type : (char(2))
  ~ has_different_sys_names : (bit)
  # is_RepoObject_name_uniqueidentifier : (int)
  # is_SysObject_name_uniqueidentifier : (int)
  ~ node_id : (bigint)
  # RepoObject_fullname : (nvarchar(261))
  # RepoObject_fullname2 : (nvarchar(257))
  # SysObject_fullname : (nvarchar(261))
  # SysObject_fullname2 : (nvarchar(257))
  ~ SysObject_query_sql : (nvarchar(406))
  # usp_persistence_fullname2 : (nvarchar(269))
  # usp_persistence_name : (nvarchar(140))
  --
}

entity "puml-link:dhw:sqldb:repo.repoobjectcolumn.adoc[]" as repo.RepoObjectColumn << U >> {
  - **RepoObjectColumn_guid** : (uniqueidentifier)
  Inheritance_StringAggSeparatorSql : (nvarchar(4000))
  InheritanceDefinition : (nvarchar(4000))
  InheritanceType : (tinyint)
  is_persistence_no_check : (bit)
  is_persistence_no_include : (bit)
  is_persistence_no_update : (bit)
  is_query_plan_expression : (bit)
  is_required_ColumnMerge : (bit)
  is_SysObjectColumn_missing : (bit)
  persistence_source_RepoObjectColumn_guid : (uniqueidentifier)
  Referencing_Count : (int)
  Repo_default_definition : (nvarchar(max))
  Repo_default_is_system_named : (bit)
  Repo_default_name : (nvarchar(128))
  Repo_definition : (nvarchar(max))
  - Repo_generated_always_type : (tinyint)
  Repo_graph_type : (int)
  Repo_increment_value : (sql_variant)
  - Repo_is_computed : (bit)
  - Repo_is_identity : (bit)
  Repo_is_nullable : (bit)
  Repo_is_persisted : (bit)
  Repo_seed_value : (sql_variant)
  Repo_user_type_fullname : (nvarchar(128))
  Repo_user_type_name : (nvarchar(128))
  Repo_uses_database_collation : (bit)
  - RepoObject_guid : (uniqueidentifier)
  RepoObjectColumn_column_id : (int)
  - RepoObjectColumn_name : (nvarchar(128))
  SysObjectColumn_column_id : (int)
  - SysObjectColumn_name : (nvarchar(128))
  # Column_name : (nvarchar(128))
  ~ has_different_sys_names : (bit)
  # is_RepoObjectColumn_name_uniqueidentifier : (int)
  # is_SysObjectColumn_name_uniqueidentifier : (int)
  --
}

entity "puml-link:dhw:sqldb:repo.usp_main.adoc[]" as repo.usp_main << P >> {
  --
}

entity "puml-link:dhw:sqldb:repo_sys.repoobjectreferenced.adoc[]" as repo_sys.RepoObjectReferenced << V >> {
  has_different_sys_names : (bit)
  - is_all_columns_found : (bit)
  - is_ambiguous : (bit)
  - is_caller_dependent : (bit)
  - is_incomplete : (bit)
  - is_insert_all : (bit)
  is_repo_managed : (bit)
  - is_select_all : (bit)
  - is_selected : (bit)
  - is_updated : (bit)
  referenced_class : (tinyint)
  referenced_class_desc : (nvarchar(60))
  referenced_database_name : (nvarchar(128))
  referenced_entity_name : (nvarchar(128))
  referenced_id : (int)
  referenced_minor_id : (int)
  referenced_minor_name : (nvarchar(128))
  referenced_schema_name : (nvarchar(128))
  referenced_server_name : (nvarchar(128))
  referencing_minor_id : (int)
  - RepoObject_fullname : (nvarchar(261))
  - RepoObject_guid : (uniqueidentifier)
  - SysObject_fullname : (nvarchar(261))
  SysObject_id : (int)
  SysObject_modify_date : (datetime)
  SysObject_type : (char(2))
  --
}

entity "puml-link:dhw:sqldb:repo_sys.repoobjectreferencing.adoc[]" as repo_sys.RepoObjectReferencing << V >> {
  has_different_sys_names : (bit)
  - is_caller_dependent : (bit)
  is_repo_managed : (bit)
  referencing_class : (tinyint)
  referencing_class_desc : (nvarchar(60))
  referencing_entity_name : (sysname)
  - referencing_id : (int)
  referencing_schema_name : (sysname)
  - RepoObject_fullname : (nvarchar(261))
  - RepoObject_guid : (uniqueidentifier)
  - SysObject_fullname : (nvarchar(261))
  SysObject_id : (int)
  SysObject_modify_date : (datetime)
  SysObject_type : (char(2))
  --
}

config.ftv_dwh_database <.. reference.usp_update_Referencing_Count
logs.usp_ExecutionLog_insert <.. reference.usp_update_Referencing_Count
reference.usp_update_Referencing_Count <.. repo.usp_main
repo.RepoObject <.. reference.usp_update_Referencing_Count
repo.RepoObjectColumn <.. reference.usp_update_Referencing_Count
repo_sys.RepoObjectReferenced <.. reference.usp_update_Referencing_Count
repo_sys.RepoObjectReferencing <.. reference.usp_update_Referencing_Count
footer The diagram is interactive and contains links.
@enduml

