@startuml
left to right direction
'top to bottom direction
hide circle
'avoide "." issues:
set namespaceSeparator none


skinparam class {
  BackgroundColor White
  BackgroundColor<<FN>> Yellow
  BackgroundColor<<FS>> Yellow
  BackgroundColor<<FT>> LightGray
  BackgroundColor<<IF>> Yellow
  BackgroundColor<<IS>> Yellow
  BackgroundColor<<P>> Aqua
  BackgroundColor<<PC>> Aqua
  BackgroundColor<<SN>> Yellow
  BackgroundColor<<SO>> SlateBlue
  BackgroundColor<<TF>> LightGray
  BackgroundColor<<TR>> Tomato
  BackgroundColor<<U>> White
  BackgroundColor<<V>> WhiteSmoke
  BackgroundColor<<X>> Aqua
  BackgroundColor<<external>> AliceBlue
}


entity "puml-link:dhw:sqldb:reference.additional_reference.adoc[]" as reference.additional_Reference << U >> {
  - **Id** : (int)
  --
  - referenced_AntoraComponent : (nvarchar(128))
  - referenced_AntoraModule : (nvarchar(128))
  referenced_Column : (nvarchar(128))
  - referenced_Object : (nvarchar(128))
  - referenced_Schema : (nvarchar(128))
  - referencing_AntoraComponent : (nvarchar(128))
  - referencing_AntoraModule : (nvarchar(128))
  referencing_Column : (nvarchar(128))
  - referencing_Object : (nvarchar(128))
  - referencing_Schema : (nvarchar(128))
  # tik : (nvarchar(1311))
  # tik_hash : (binary(16))
  --
  --
}

entity "puml-link:dhw:sqldb:reference.additional_reference_from_properties_tgt.adoc[]" as reference.additional_Reference_from_properties_tgt << V >> {
  - **Id** : (int)
  --
  referenced_AntoraComponent : (nvarchar(max))
  referenced_AntoraModule : (nvarchar(max))
  referenced_Column : (nvarchar(max))
  referenced_Object : (nvarchar(max))
  referenced_Schema : (nvarchar(max))
  referencing_AntoraComponent : (nvarchar(max))
  referencing_AntoraModule : (nvarchar(max))
  referencing_Column : (nvarchar(max))
  referencing_Object : (nvarchar(max))
  referencing_Schema : (nvarchar(max))
  - tik : (nvarchar(1311))
  tik_hash : (binary(16))
  --
  --
}

entity "puml-link:dhw:sqldb:reference.additional_reference_from_ssas_tgt.adoc[]" as reference.additional_Reference_from_ssas_tgt << V >> {
  - **Id** : (int)
  --
  referenced_AntoraComponent : (nvarchar(128))
  referenced_AntoraModule : (nvarchar(128))
  referenced_Column : (nvarchar(500))
  referenced_Object : (nvarchar(max))
  referenced_Schema : (nvarchar(max))
  referencing_AntoraComponent : (nvarchar(max))
  referencing_AntoraModule : (nvarchar(max))
  referencing_Column : (nvarchar(128))
  - referencing_Object : (nvarchar(128))
  - referencing_Schema : (nvarchar(128))
  - tik : (nvarchar(1311))
  tik_hash : (binary(16))
  --
  --
}

entity "puml-link:dhw:sqldb:reference.additional_reference_guid.adoc[]" as reference.additional_Reference_guid << V >> {
  --
  - referenced_AntoraComponent : (nvarchar(128))
  - referenced_AntoraModule : (nvarchar(128))
  referenced_Column : (nvarchar(128))
  referenced_external_AntoraComponent : (nvarchar(128))
  referenced_external_AntoraModule : (nvarchar(128))
  referenced_fullname : (nvarchar(261))
  referenced_id : (int)
  referenced_is_external : (bit)
  - referenced_Object : (nvarchar(128))
  referenced_RepoObject_guid : (uniqueidentifier)
  referenced_RepoObjectColumn_guid : (uniqueidentifier)
  - referenced_Schema : (nvarchar(128))
  referenced_type : (char(2))
  - referencing_AntoraComponent : (nvarchar(128))
  - referencing_AntoraModule : (nvarchar(128))
  referencing_Column : (nvarchar(128))
  referencing_external_AntoraComponent : (nvarchar(128))
  referencing_external_AntoraModule : (nvarchar(128))
  referencing_fullname : (nvarchar(261))
  referencing_id : (int)
  referencing_is_external : (bit)
  - referencing_Object : (nvarchar(128))
  referencing_RepoObject_guid : (uniqueidentifier)
  referencing_RepoObjectColumn_guid : (uniqueidentifier)
  - referencing_Schema : (nvarchar(128))
  referencing_type : (char(2))
  --
  --
}

entity "puml-link:dhw:sqldb:reference.additional_reference_is_external.adoc[]" as reference.additional_Reference_is_external << V >> {
  --
  internal_AntoraComponent : (nvarchar(max))
  internal_AntoraModule : (nvarchar(max))
  - referenced_AntoraComponent : (nvarchar(128))
  - referenced_AntoraModule : (nvarchar(128))
  referenced_Column : (nvarchar(128))
  - referenced_is_external : (int)
  - referenced_Object : (nvarchar(128))
  - referenced_Schema : (nvarchar(128))
  - referencing_AntoraComponent : (nvarchar(128))
  - referencing_AntoraModule : (nvarchar(128))
  referencing_Column : (nvarchar(128))
  - referencing_is_external : (int)
  - referencing_Object : (nvarchar(128))
  - referencing_Schema : (nvarchar(128))
  --
  --
}

entity "puml-link:dhw:sqldb:reference.additional_reference_wo_columns_from_properties_tgt.adoc[]" as reference.additional_Reference_wo_columns_from_properties_tgt << V >> {
  - **Id** : (int)
  --
  referenced_AntoraComponent : (nvarchar(max))
  referenced_AntoraModule : (nvarchar(max))
  referenced_Column : (nvarchar(128))
  referenced_Object : (nvarchar(max))
  referenced_Schema : (nvarchar(max))
  referencing_AntoraComponent : (nvarchar(max))
  referencing_AntoraModule : (nvarchar(max))
  referencing_Column : (nvarchar(128))
  referencing_Object : (nvarchar(max))
  referencing_Schema : (nvarchar(max))
  - tik : (nvarchar(1311))
  tik_hash : (binary(16))
  --
  --
}

reference.additional_Reference <.. reference.additional_Reference_guid
reference.additional_Reference <.. reference.additional_Reference_is_external
reference.additional_Reference <.. reference.additional_Reference_from_properties_tgt
reference.additional_Reference <.. reference.additional_Reference_wo_columns_from_properties_tgt
reference.additional_Reference <.. reference.additional_Reference_from_ssas_tgt
reference.additional_Reference_from_properties_tgt <.. reference.additional_Reference
reference.additional_Reference_from_ssas_tgt <.. reference.additional_Reference
reference.additional_Reference_wo_columns_from_properties_tgt <.. reference.additional_Reference
"reference.additional_Reference::Id" <-- "reference.additional_Reference_from_properties_tgt::Id"
"reference.additional_Reference::Id" <-- "reference.additional_Reference_wo_columns_from_properties_tgt::Id"
"reference.additional_Reference::Id" <-- "reference.additional_Reference_from_ssas_tgt::Id"
"reference.additional_Reference::referenced_AntoraComponent" <-- "reference.additional_Reference::tik"
"reference.additional_Reference::referenced_AntoraComponent" <-- "reference.additional_Reference::tik_hash"
"reference.additional_Reference::referenced_AntoraComponent" <-- "reference.additional_Reference_guid::referenced_AntoraComponent"
"reference.additional_Reference::referenced_AntoraComponent" <-- "reference.additional_Reference_is_external::referenced_AntoraComponent"
"reference.additional_Reference::referenced_AntoraComponent" <-- "reference.additional_Reference_from_properties_tgt::referenced_AntoraComponent"
"reference.additional_Reference::referenced_AntoraComponent" <-- "reference.additional_Reference_wo_columns_from_properties_tgt::referenced_AntoraComponent"
"reference.additional_Reference::referenced_AntoraComponent" <-- "reference.additional_Reference_from_ssas_tgt::referenced_AntoraComponent"
"reference.additional_Reference::referenced_AntoraModule" <-- "reference.additional_Reference::tik"
"reference.additional_Reference::referenced_AntoraModule" <-- "reference.additional_Reference::tik_hash"
"reference.additional_Reference::referenced_AntoraModule" <-- "reference.additional_Reference_guid::referenced_AntoraModule"
"reference.additional_Reference::referenced_AntoraModule" <-- "reference.additional_Reference_is_external::referenced_AntoraModule"
"reference.additional_Reference::referenced_AntoraModule" <-- "reference.additional_Reference_from_properties_tgt::referenced_AntoraModule"
"reference.additional_Reference::referenced_AntoraModule" <-- "reference.additional_Reference_wo_columns_from_properties_tgt::referenced_AntoraModule"
"reference.additional_Reference::referenced_AntoraModule" <-- "reference.additional_Reference_from_ssas_tgt::referenced_AntoraModule"
"reference.additional_Reference::referenced_Column" <-- "reference.additional_Reference::tik"
"reference.additional_Reference::referenced_Column" <-- "reference.additional_Reference::tik_hash"
"reference.additional_Reference::referenced_Column" <-- "reference.additional_Reference_guid::referenced_Column"
"reference.additional_Reference::referenced_Column" <-- "reference.additional_Reference_is_external::referenced_Column"
"reference.additional_Reference::referenced_Column" <-- "reference.additional_Reference_from_properties_tgt::referenced_Column"
"reference.additional_Reference::referenced_Column" <-- "reference.additional_Reference_wo_columns_from_properties_tgt::referenced_Column"
"reference.additional_Reference::referenced_Column" <-- "reference.additional_Reference_from_ssas_tgt::referenced_Column"
"reference.additional_Reference::referenced_Object" <-- "reference.additional_Reference::tik"
"reference.additional_Reference::referenced_Object" <-- "reference.additional_Reference::tik_hash"
"reference.additional_Reference::referenced_Object" <-- "reference.additional_Reference_guid::referenced_Object"
"reference.additional_Reference::referenced_Object" <-- "reference.additional_Reference_is_external::referenced_Object"
"reference.additional_Reference::referenced_Object" <-- "reference.additional_Reference_from_properties_tgt::referenced_Object"
"reference.additional_Reference::referenced_Object" <-- "reference.additional_Reference_wo_columns_from_properties_tgt::referenced_Object"
"reference.additional_Reference::referenced_Object" <-- "reference.additional_Reference_from_ssas_tgt::referenced_Object"
"reference.additional_Reference::referenced_Schema" <-- "reference.additional_Reference::tik"
"reference.additional_Reference::referenced_Schema" <-- "reference.additional_Reference::tik_hash"
"reference.additional_Reference::referenced_Schema" <-- "reference.additional_Reference_guid::referenced_Schema"
"reference.additional_Reference::referenced_Schema" <-- "reference.additional_Reference_is_external::referenced_Schema"
"reference.additional_Reference::referenced_Schema" <-- "reference.additional_Reference_from_properties_tgt::referenced_Schema"
"reference.additional_Reference::referenced_Schema" <-- "reference.additional_Reference_wo_columns_from_properties_tgt::referenced_Schema"
"reference.additional_Reference::referenced_Schema" <-- "reference.additional_Reference_from_ssas_tgt::referenced_Schema"
"reference.additional_Reference::referencing_AntoraComponent" <-- "reference.additional_Reference::tik"
"reference.additional_Reference::referencing_AntoraComponent" <-- "reference.additional_Reference::tik_hash"
"reference.additional_Reference::referencing_AntoraComponent" <-- "reference.additional_Reference_guid::referencing_AntoraComponent"
"reference.additional_Reference::referencing_AntoraComponent" <-- "reference.additional_Reference_is_external::referencing_AntoraComponent"
"reference.additional_Reference::referencing_AntoraComponent" <-- "reference.additional_Reference_from_properties_tgt::referencing_AntoraComponent"
"reference.additional_Reference::referencing_AntoraComponent" <-- "reference.additional_Reference_wo_columns_from_properties_tgt::referencing_AntoraComponent"
"reference.additional_Reference::referencing_AntoraComponent" <-- "reference.additional_Reference_from_ssas_tgt::referencing_AntoraComponent"
"reference.additional_Reference::referencing_AntoraModule" <-- "reference.additional_Reference::tik"
"reference.additional_Reference::referencing_AntoraModule" <-- "reference.additional_Reference::tik_hash"
"reference.additional_Reference::referencing_AntoraModule" <-- "reference.additional_Reference_guid::referencing_AntoraModule"
"reference.additional_Reference::referencing_AntoraModule" <-- "reference.additional_Reference_is_external::referencing_AntoraModule"
"reference.additional_Reference::referencing_AntoraModule" <-- "reference.additional_Reference_from_properties_tgt::referencing_AntoraModule"
"reference.additional_Reference::referencing_AntoraModule" <-- "reference.additional_Reference_wo_columns_from_properties_tgt::referencing_AntoraModule"
"reference.additional_Reference::referencing_AntoraModule" <-- "reference.additional_Reference_from_ssas_tgt::referencing_AntoraModule"
"reference.additional_Reference::referencing_Column" <-- "reference.additional_Reference::tik"
"reference.additional_Reference::referencing_Column" <-- "reference.additional_Reference::tik_hash"
"reference.additional_Reference::referencing_Column" <-- "reference.additional_Reference_guid::referencing_Column"
"reference.additional_Reference::referencing_Column" <-- "reference.additional_Reference_is_external::referencing_Column"
"reference.additional_Reference::referencing_Column" <-- "reference.additional_Reference_from_properties_tgt::referencing_Column"
"reference.additional_Reference::referencing_Column" <-- "reference.additional_Reference_wo_columns_from_properties_tgt::referencing_Column"
"reference.additional_Reference::referencing_Column" <-- "reference.additional_Reference_from_ssas_tgt::referencing_Column"
"reference.additional_Reference::referencing_Object" <-- "reference.additional_Reference::tik"
"reference.additional_Reference::referencing_Object" <-- "reference.additional_Reference::tik_hash"
"reference.additional_Reference::referencing_Object" <-- "reference.additional_Reference_guid::referencing_Object"
"reference.additional_Reference::referencing_Object" <-- "reference.additional_Reference_is_external::referencing_Object"
"reference.additional_Reference::referencing_Object" <-- "reference.additional_Reference_from_properties_tgt::referencing_Object"
"reference.additional_Reference::referencing_Object" <-- "reference.additional_Reference_wo_columns_from_properties_tgt::referencing_Object"
"reference.additional_Reference::referencing_Object" <-- "reference.additional_Reference_from_ssas_tgt::referencing_Object"
"reference.additional_Reference::referencing_Schema" <-- "reference.additional_Reference::tik"
"reference.additional_Reference::referencing_Schema" <-- "reference.additional_Reference::tik_hash"
"reference.additional_Reference::referencing_Schema" <-- "reference.additional_Reference_guid::referencing_Schema"
"reference.additional_Reference::referencing_Schema" <-- "reference.additional_Reference_is_external::referencing_Schema"
"reference.additional_Reference::referencing_Schema" <-- "reference.additional_Reference_from_properties_tgt::referencing_Schema"
"reference.additional_Reference::referencing_Schema" <-- "reference.additional_Reference_wo_columns_from_properties_tgt::referencing_Schema"
"reference.additional_Reference::referencing_Schema" <-- "reference.additional_Reference_from_ssas_tgt::referencing_Schema"
"reference.additional_Reference::tik" <-- "reference.additional_Reference_from_properties_tgt::tik"
"reference.additional_Reference::tik" <-- "reference.additional_Reference_wo_columns_from_properties_tgt::tik"
"reference.additional_Reference::tik" <-- "reference.additional_Reference_from_ssas_tgt::tik"
"reference.additional_Reference::tik_hash" <-- "reference.additional_Reference_from_properties_tgt::tik_hash"
"reference.additional_Reference::tik_hash" <-- "reference.additional_Reference_wo_columns_from_properties_tgt::tik_hash"
"reference.additional_Reference::tik_hash" <-- "reference.additional_Reference_from_ssas_tgt::tik_hash"
@enduml

