@startuml
left to right direction
'top to bottom direction
hide circle
'avoide "." issues:
set namespaceSeparator none


skinparam class {
  BackgroundColor White
  BackgroundColor<<FN>> Yellow
  BackgroundColor<<FS>> Yellow
  BackgroundColor<<FT>> LightGray
  BackgroundColor<<IF>> Yellow
  BackgroundColor<<IS>> Yellow
  BackgroundColor<<P>> Aqua
  BackgroundColor<<PC>> Aqua
  BackgroundColor<<SN>> Yellow
  BackgroundColor<<SO>> SlateBlue
  BackgroundColor<<TF>> LightGray
  BackgroundColor<<TR>> Tomato
  BackgroundColor<<U>> White
  BackgroundColor<<V>> WhiteSmoke
  BackgroundColor<<X>> Aqua
  BackgroundColor<<external>> AliceBlue
}


entity "puml-link:dhw:sqldb:config.ftv_dwh_database.adoc[]" as config.ftv_dwh_database << IF >> {
  dwh_database_id : (smallint)
  dwh_database_name : (nvarchar(128))
  --
}

entity "puml-link:dhw:sqldb:reference.repoobject_reference_t.adoc[]" as reference.RepoObject_reference_T << U >> {
  **referenced_RepoObject_guid** : (uniqueidentifier)
  **referencing_RepoObject_guid** : (uniqueidentifier)
  - is_ReversePersistenceViaView : (bit)
  referenced_entity_name : (nvarchar(128))
  referenced_external_AntoraComponent : (nvarchar(128))
  referenced_external_AntoraModule : (nvarchar(128))
  referenced_is_external : (int)
  - referenced_is_PersistenceSource : (bit)
  - referenced_is_PersistenceTarget : (bit)
  referenced_schema_name : (nvarchar(128))
  referenced_type : (char(2))
  referencing_entity_name : (nvarchar(128))
  referencing_external_AntoraComponent : (nvarchar(128))
  referencing_external_AntoraModule : (nvarchar(128))
  referencing_is_external : (int)
  - referencing_is_PersistenceTarget : (bit)
  - referencing_is_PersistenceUspSourceRef : (bit)
  referencing_is_PersistenceUspTargetRef : (bit)
  referencing_schema_name : (nvarchar(128))
  referencing_type : (varchar(2))
  # referenced_fullname : (nvarchar(261))
  # referenced_fullname2 : (nvarchar(257))
  ~ referenced_puml_entity : (nvarchar(4000))
  # referencing_fullname : (nvarchar(261))
  # referencing_fullname2 : (nvarchar(257))
  ~ referencing_puml_entity : (nvarchar(4000))
  --
}

entity "puml-link:dhw:sqldb:reference.repoobjectcolumn_reference_queryplan.adoc[]" as reference.RepoObjectColumn_reference_QueryPlan << V >> {
  **referencing_id** : (int)
  **referencing_minor_id** : (int)
  **referenced_id** : (int)
  **referenced_minor_id** : (int)
  definition : (nvarchar(max))
  - InformationSource : (varchar(10))
  is_computed : (bit)
  is_referenced_object : (bit)
  is_referencing_object_equal_referenced_object : (bit)
  is_source_column_name_expression : (bit)
  is_target_column_name_expression : (bit)
  referenced_column_name : (nvarchar(128))
  referenced_entity_name : (nvarchar(128))
  referenced_node_id : (bigint)
  referenced_RepoObject_guid : (uniqueidentifier)
  referenced_RepoObjectColumn_guid : (uniqueidentifier)
  referenced_schema_name : (nvarchar(128))
  referenced_type : (char(2))
  referencing_column_name : (nvarchar(128))
  - referencing_entity_name : (nvarchar(128))
  referencing_node_id : (bigint)
  - referencing_RepoObject_guid : (uniqueidentifier)
  referencing_RepoObjectColumn_guid : (uniqueidentifier)
  - referencing_schema_name : (nvarchar(128))
  referencing_type : (char(2))
  source_schema_name_quoted : (nvarchar(128))
  source_table_name_quoted : (nvarchar(128))
  --
}

entity "puml-link:dhw:sqldb:reference.repoobjectsource_queryplan.adoc[]" as reference.RepoObjectSource_QueryPlan << U >> {
  const_info : (xml)
  const_value : (nvarchar(4000))
  - RepoObject_guid : (uniqueidentifier)
  source_column_info : (xml)
  source_column_name : (nvarchar(128))
  source_database_name : (nvarchar(128))
  source_schema_name : (nvarchar(128))
  source_server_name : (nvarchar(128))
  source_table_name : (nvarchar(128))
  SysObject_query_executed_dt : (datetime)
  target_column_info : (xml)
  target_column_name : (nvarchar(128))
  ~ is_source_column_name_expression : (bit)
  ~ is_target_column_name_expression : (bit)
  --
}

entity "puml-link:dhw:sqldb:reference.sysobjectcolumn_queryplanexpression.adoc[]" as reference.SysObjectColumn_QueryPlanExpression << V >> {
  RepoObject_guid : (uniqueidentifier)
  SysObjectColumn_column_id : (int)
  SysObjectColumn_name : (nvarchar(128))
  --
}

entity "puml-link:dhw:sqldb:repo.repoobject.adoc[]" as repo.RepoObject << U >> {
  - **RepoObject_guid** : (uniqueidentifier)
  external_AntoraComponent : (nvarchar(128))
  external_AntoraModule : (nvarchar(128))
  has_execution_plan_issue : (bit)
  has_get_referenced_issue : (bit)
  Inheritance_Source_fullname : (nvarchar(261))
  Inheritance_StringAggSeparatorSql : (nvarchar(4000))
  InheritanceDefinition : (nvarchar(4000))
  InheritanceType : (tinyint)
  - is_DocsExclude : (bit)
  - is_external : (bit)
  is_repo_managed : (bit)
  is_required_ObjectMerge : (bit)
  - is_ssas : (bit)
  is_SysObject_missing : (bit)
  - modify_dt : (datetime)
  pk_index_guid : (uniqueidentifier)
  pk_IndexPatternColumnName_new : (nvarchar(4000))
  Repo_history_table_guid : (uniqueidentifier)
  Repo_temporal_type : (tinyint)
  - RepoObject_name : (nvarchar(128))
  RepoObject_Referencing_Count : (int)
  - RepoObject_schema_name : (nvarchar(128))
  - RepoObject_type : (char(2))
  SysObject_id : (int)
  SysObject_modify_date : (datetime)
  - SysObject_name : (nvarchar(128))
  - SysObject_parent_object_id : (int)
  - SysObject_schema_name : (nvarchar(128))
  SysObject_type : (char(2))
  ~ has_different_sys_names : (bit)
  # is_RepoObject_name_uniqueidentifier : (int)
  # is_SysObject_name_uniqueidentifier : (int)
  ~ node_id : (bigint)
  # RepoObject_fullname : (nvarchar(261))
  # RepoObject_fullname2 : (nvarchar(257))
  # SysObject_fullname : (nvarchar(261))
  # SysObject_fullname2 : (nvarchar(257))
  ~ SysObject_query_sql : (nvarchar(406))
  # usp_persistence_fullname2 : (nvarchar(269))
  # usp_persistence_name : (nvarchar(140))
  --
}

entity "puml-link:dhw:sqldb:repo.repoobjectcolumn_gross.adoc[]" as repo.RepoObjectColumn_gross << V >> {
  - Column_name : (nvarchar(128))
  Description : (nvarchar(max))
  has_different_sys_names : (bit)
  has_get_referenced_issue : (bit)
  Inheritance_StringAggSeparatorSql : (nvarchar(4000))
  InheritanceDefinition : (nvarchar(4000))
  InheritanceType : (tinyint)
  - is_external : (bit)
  is_persistence_no_check : (bit)
  is_persistence_no_include : (bit)
  is_persistence_no_update : (bit)
  is_query_plan_expression : (bit)
  is_repo_managed : (bit)
  - is_RepoObject_name_uniqueidentifier : (int)
  - is_RepoObjectColumn_name_uniqueidentifier : (int)
  is_required_ColumnMerge : (bit)
  - is_ssas : (bit)
  is_SysObject_missing : (bit)
  - is_SysObject_name_uniqueidentifier : (int)
  is_SysObjectColumn_missing : (bit)
  - is_SysObjectColumn_name_uniqueidentifier : (int)
  - modify_dt : (datetime)
  node_id : (bigint)
  persistence_source_RepoObject_guid : (uniqueidentifier)
  persistence_source_RepoObjectColumn_guid : (uniqueidentifier)
  pk_index_guid : (uniqueidentifier)
  Property_ms_description : (nvarchar(4000))
  Referencing_Count : (int)
  Repo_default_definition : (nvarchar(max))
  Repo_default_is_system_named : (bit)
  Repo_default_name : (nvarchar(128))
  Repo_definition : (nvarchar(max))
  - Repo_generated_always_type : (tinyint)
  Repo_graph_type : (int)
  Repo_increment_value : (sql_variant)
  - Repo_is_computed : (bit)
  - Repo_is_identity : (bit)
  Repo_is_nullable : (bit)
  Repo_is_persisted : (bit)
  Repo_seed_value : (sql_variant)
  Repo_user_type_fullname : (nvarchar(128))
  Repo_user_type_name : (nvarchar(128))
  Repo_uses_database_collation : (bit)
  - RepoObject_fullname : (nvarchar(261))
  - RepoObject_fullname2 : (nvarchar(257))
  - RepoObject_guid : (uniqueidentifier)
  - RepoObject_name : (nvarchar(128))
  RepoObject_Referencing_Count : (int)
  - RepoObject_schema_name : (nvarchar(128))
  - RepoObject_type : (char(2))
  RepoObjectColumn_column_id : (int)
  - RepoObjectColumn_fullname : (nvarchar(520))
  - RepoObjectColumn_fullname2 : (nvarchar(386))
  - RepoObjectColumn_guid : (uniqueidentifier)
  - RepoObjectColumn_name : (nvarchar(128))
  - SysObject_fullname : (nvarchar(261))
  - SysObject_fullname2 : (nvarchar(257))
  SysObject_id : (int)
  SysObject_modify_date : (datetime)
  - SysObject_name : (nvarchar(128))
  - SysObject_parent_object_id : (int)
  - SysObject_schema_name : (nvarchar(128))
  SysObject_type : (char(2))
  SysObjectColumn_column_id : (int)
  - SysObjectColumn_name : (nvarchar(128))
  tabcol_Description : (nvarchar(max))
  tabcol_DisplayFolder : (nvarchar(500))
  tabcol_Expression : (nvarchar(max))
  tabcol_FormatString : (nvarchar(500))
  - tabcol_IsHidden : (bit)
  - tabcol_IsKey : (bit)
  - tabcol_IsUnique : (bit)
  tabcol_SummarizeBy : (nvarchar(500))
  tabcol_Type : (nvarchar(500))
  --
}

config.ftv_dwh_database <.. reference.RepoObjectColumn_reference_QueryPlan
reference.RepoObject_reference_T <.. reference.RepoObjectColumn_reference_QueryPlan
reference.RepoObjectColumn_reference_QueryPlan <.. reference.SysObjectColumn_QueryPlanExpression
reference.RepoObjectSource_QueryPlan <.. reference.RepoObjectColumn_reference_QueryPlan
repo.RepoObject <.. reference.RepoObjectColumn_reference_QueryPlan
repo.RepoObjectColumn_gross <.. reference.RepoObjectColumn_reference_QueryPlan
"reference.RepoObjectSource_QueryPlan::is_source_column_name_expression" <-- "reference.RepoObjectColumn_reference_QueryPlan::is_source_column_name_expression"
"reference.RepoObjectSource_QueryPlan::is_target_column_name_expression" <-- "reference.RepoObjectColumn_reference_QueryPlan::is_target_column_name_expression"
"reference.RepoObjectSource_QueryPlan::RepoObject_guid" <-- "reference.RepoObjectColumn_reference_QueryPlan::referencing_RepoObject_guid"
"reference.RepoObjectSource_QueryPlan::source_column_name" <-- "reference.RepoObjectColumn_reference_QueryPlan::referenced_column_name"
"reference.RepoObjectSource_QueryPlan::source_schema_name" <-- "reference.RepoObjectColumn_reference_QueryPlan::source_schema_name_quoted"
"reference.RepoObjectSource_QueryPlan::source_table_name" <-- "reference.RepoObjectColumn_reference_QueryPlan::source_table_name_quoted"
"reference.RepoObjectSource_QueryPlan::target_column_name" <-- "reference.RepoObjectColumn_reference_QueryPlan::referencing_column_name"
"repo.RepoObject::SysObject_id" <-- "reference.RepoObjectColumn_reference_QueryPlan::referencing_id"
"repo.RepoObject::SysObject_name" <-- "reference.RepoObjectColumn_reference_QueryPlan::referencing_entity_name"
"repo.RepoObject::SysObject_schema_name" <-- "reference.RepoObjectColumn_reference_QueryPlan::referencing_schema_name"
"repo.RepoObject::SysObject_type" <-- "reference.RepoObjectColumn_reference_QueryPlan::referencing_type"
"repo.RepoObjectColumn_gross::RepoObject_guid" <-- "reference.RepoObjectColumn_reference_QueryPlan::referenced_RepoObject_guid"
"repo.RepoObjectColumn_gross::RepoObjectColumn_guid" <-- "reference.RepoObjectColumn_reference_QueryPlan::referenced_RepoObjectColumn_guid"
"repo.RepoObjectColumn_gross::RepoObjectColumn_guid" <-- "reference.RepoObjectColumn_reference_QueryPlan::referencing_RepoObjectColumn_guid"
"repo.RepoObjectColumn_gross::SysObject_id" <-- "reference.RepoObjectColumn_reference_QueryPlan::referenced_id"
"repo.RepoObjectColumn_gross::SysObject_name" <-- "reference.RepoObjectColumn_reference_QueryPlan::referenced_entity_name"
"repo.RepoObjectColumn_gross::SysObject_schema_name" <-- "reference.RepoObjectColumn_reference_QueryPlan::referenced_schema_name"
"repo.RepoObjectColumn_gross::SysObject_type" <-- "reference.RepoObjectColumn_reference_QueryPlan::referenced_type"
"repo.RepoObjectColumn_gross::SysObjectColumn_column_id" <-- "reference.RepoObjectColumn_reference_QueryPlan::referenced_minor_id"
"repo.RepoObjectColumn_gross::SysObjectColumn_column_id" <-- "reference.RepoObjectColumn_reference_QueryPlan::referencing_minor_id"footer The diagram is interactive and contains links.
@enduml

