@startuml
left to right direction
'top to bottom direction
hide circle
'avoide "." issues:
set namespaceSeparator none


skinparam class {
  BackgroundColor White
  BackgroundColor<<FN>> Yellow
  BackgroundColor<<FS>> Yellow
  BackgroundColor<<FT>> LightGray
  BackgroundColor<<IF>> Yellow
  BackgroundColor<<IS>> Yellow
  BackgroundColor<<P>> Aqua
  BackgroundColor<<PC>> Aqua
  BackgroundColor<<SN>> Yellow
  BackgroundColor<<SO>> SlateBlue
  BackgroundColor<<TF>> LightGray
  BackgroundColor<<TR>> Tomato
  BackgroundColor<<U>> White
  BackgroundColor<<V>> WhiteSmoke
  BackgroundColor<<X>> Aqua
  BackgroundColor<<external>> AliceBlue
}


entity "puml-link:dhw:sqldb:reference.repoobject_reference_persistence_target_as_source.adoc[]" as reference.RepoObject_reference_persistence_target_as_source << V >> {
  --
  - InformationSource : (varchar(28))
  referenced_entity_name : (nvarchar(128))
  referenced_fullname : (nvarchar(517))
  - referenced_id : (int)
  referenced_RepoObject_guid : (uniqueidentifier)
  referenced_schema_name : (nvarchar(128))
  referenced_type : (char(2))
  referencing_entity_name : (nvarchar(128))
  referencing_fullname : (nvarchar(517))
  referencing_id : (int)
  referencing_RepoObject_guid : (uniqueidentifier)
  referencing_schema_name : (nvarchar(128))
  referencing_type : (char(2))
  --
  --
}

entity "puml-link:dhw:sqldb:reference.repoobject_reference_sqlexpressiondependencies.adoc[]" as reference.RepoObject_reference_SqlExpressionDependencies << V >> {
  **referenced_RepoObject_guid** : (uniqueidentifier)
  **referencing_RepoObject_guid** : (uniqueidentifier)
  --
  - InformationSource : (varchar(31))
  referenced_entity_name : (nvarchar(128))
  referenced_fullname : (nvarchar(517))
  referenced_id : (int)
  referenced_schema_name : (nvarchar(128))
  referenced_type : (char(2))
  referencing_entity_name : (nvarchar(128))
  referencing_fullname : (nvarchar(517))
  - referencing_id : (int)
  referencing_schema_name : (nvarchar(128))
  referencing_type : (char(2))
  --
  --
}

entity "puml-link:dhw:sqldb:reference.repoobject_reference_union.adoc[]" as reference.RepoObject_reference_union << V >> {
  **referenced_RepoObject_guid** : (uniqueidentifier)
  **referencing_RepoObject_guid** : (uniqueidentifier)
  --
  - InformationSource : (varchar(34))
  - one : (int)
  referenced_entity_name : (nvarchar(128))
  referenced_external_AntoraComponent : (nvarchar(128))
  referenced_external_AntoraModule : (nvarchar(128))
  referenced_fullname : (nvarchar(517))
  referenced_id : (int)
  referenced_is_external : (int)
  referenced_schema_name : (nvarchar(128))
  referenced_type : (char(2))
  referencing_entity_name : (nvarchar(128))
  referencing_external_AntoraComponent : (nvarchar(128))
  referencing_external_AntoraModule : (nvarchar(128))
  referencing_fullname : (nvarchar(517))
  referencing_id : (int)
  referencing_is_external : (int)
  referencing_schema_name : (nvarchar(128))
  referencing_type : (varchar(2))
  --
  --
}

entity "puml-link:dhw:sqldb:repo.repoobject.adoc[]" as repo.RepoObject << U >> {
  - **RepoObject_guid** : (uniqueidentifier)
  --
  external_AntoraComponent : (nvarchar(128))
  external_AntoraModule : (nvarchar(128))
  has_execution_plan_issue : (bit)
  has_get_referenced_issue : (bit)
  Inheritance_Source_fullname : (nvarchar(261))
  Inheritance_StringAggSeparatorSql : (nvarchar(4000))
  InheritanceDefinition : (nvarchar(4000))
  InheritanceType : (tinyint)
  - is_DocsExclude : (bit)
  - is_external : (bit)
  is_repo_managed : (bit)
  is_required_ObjectMerge : (bit)
  - is_ssas : (bit)
  is_SysObject_missing : (bit)
  - modify_dt : (datetime)
  pk_index_guid : (uniqueidentifier)
  pk_IndexPatternColumnName_new : (nvarchar(4000))
  Repo_history_table_guid : (uniqueidentifier)
  Repo_temporal_type : (tinyint)
  - RepoObject_name : (nvarchar(128))
  RepoObject_Referencing_Count : (int)
  - RepoObject_schema_name : (nvarchar(128))
  - RepoObject_type : (char(2))
  SysObject_id : (int)
  SysObject_modify_date : (datetime)
  - SysObject_name : (nvarchar(128))
  - SysObject_parent_object_id : (int)
  - SysObject_schema_name : (nvarchar(128))
  SysObject_type : (char(2))
  ~ has_different_sys_names : (bit)
  # is_RepoObject_name_uniqueidentifier : (int)
  # is_SysObject_name_uniqueidentifier : (int)
  ~ node_id : (bigint)
  # RepoObject_fullname : (nvarchar(261))
  # RepoObject_fullname2 : (nvarchar(257))
  # SysObject_fullname : (nvarchar(261))
  # SysObject_fullname2 : (nvarchar(257))
  ~ SysObject_query_sql : (nvarchar(406))
  # usp_persistence_fullname2 : (nvarchar(269))
  # usp_persistence_name : (nvarchar(140))
  --
  --
}

entity "puml-link:dhw:sqldb:repo_sys.sql_expression_dependencies.adoc[]" as repo_sys.sql_expression_dependencies << V >> {
  --
  definition : (nvarchar(max))
  - is_ambiguous : (bit)
  - is_caller_dependent : (bit)
  is_computed : (bit)
  - is_schema_bound_reference : (bit)
  referenced_class : (tinyint)
  referenced_class_desc : (nvarchar(60))
  referenced_column_name : (sysname)
  referenced_database_name : (nvarchar(128))
  referenced_entity_name : (nvarchar(128))
  referenced_id : (int)
  - referenced_minor_id : (int)
  referenced_RepoObject_guid : (uniqueidentifier)
  referenced_RepoObjectColumn_guid : (uniqueidentifier)
  referenced_schema_name : (nvarchar(128))
  referenced_server_name : (nvarchar(128))
  referenced_type : (char(2))
  referenced_type_desciption : (nvarchar(60))
  referencing_class : (tinyint)
  referencing_class_desc : (nvarchar(60))
  referencing_column_name : (sysname)
  referencing_entity_name : (nvarchar(128))
  - referencing_id : (int)
  - referencing_minor_id : (int)
  referencing_RepoObject_guid : (uniqueidentifier)
  referencing_RepoObjectColumn_guid : (uniqueidentifier)
  referencing_schema_name : (nvarchar(128))
  referencing_type : (char(2))
  referencing_type_desciption : (nvarchar(60))
  --
  --
}

reference.RepoObject_reference_SqlExpressionDependencies <.. reference.RepoObject_reference_union
reference.RepoObject_reference_SqlExpressionDependencies <.. reference.RepoObject_reference_persistence_target_as_source
repo.RepoObject <.. reference.RepoObject_reference_SqlExpressionDependencies
repo_sys.sql_expression_dependencies <.. reference.RepoObject_reference_SqlExpressionDependencies
"repo_sys.sql_expression_dependencies::referenced_entity_name" <-- "reference.RepoObject_reference_SqlExpressionDependencies::referenced_entity_name"
"repo_sys.sql_expression_dependencies::referenced_id" <-- "reference.RepoObject_reference_SqlExpressionDependencies::referenced_id"
"repo_sys.sql_expression_dependencies::referenced_RepoObject_guid" <-- "reference.RepoObject_reference_SqlExpressionDependencies::referenced_RepoObject_guid"
"repo_sys.sql_expression_dependencies::referenced_schema_name" <-- "reference.RepoObject_reference_SqlExpressionDependencies::referenced_schema_name"
"repo_sys.sql_expression_dependencies::referenced_type" <-- "reference.RepoObject_reference_SqlExpressionDependencies::referenced_type"
"repo_sys.sql_expression_dependencies::referencing_entity_name" <-- "reference.RepoObject_reference_SqlExpressionDependencies::referencing_entity_name"
"repo_sys.sql_expression_dependencies::referencing_id" <-- "reference.RepoObject_reference_SqlExpressionDependencies::referencing_id"
"repo_sys.sql_expression_dependencies::referencing_RepoObject_guid" <-- "reference.RepoObject_reference_SqlExpressionDependencies::referencing_RepoObject_guid"
"repo_sys.sql_expression_dependencies::referencing_schema_name" <-- "reference.RepoObject_reference_SqlExpressionDependencies::referencing_schema_name"
"repo_sys.sql_expression_dependencies::referencing_type" <-- "reference.RepoObject_reference_SqlExpressionDependencies::referencing_type"
@enduml

