@startuml
left to right direction
'top to bottom direction
hide circle
'avoide "." issues:
set namespaceSeparator none


skinparam class {
  BackgroundColor White
  BackgroundColor<<FN>> Yellow
  BackgroundColor<<FS>> Yellow
  BackgroundColor<<FT>> LightGray
  BackgroundColor<<IF>> Yellow
  BackgroundColor<<IS>> Yellow
  BackgroundColor<<P>> Aqua
  BackgroundColor<<PC>> Aqua
  BackgroundColor<<SN>> Yellow
  BackgroundColor<<SO>> SlateBlue
  BackgroundColor<<TF>> LightGray
  BackgroundColor<<TR>> Tomato
  BackgroundColor<<U>> White
  BackgroundColor<<V>> WhiteSmoke
  BackgroundColor<<X>> Aqua
  BackgroundColor<<external>> AliceBlue
}


entity "puml-link:dhw:sqldb:docs.repoobject_plantuml_colreflist_1_1.adoc[]" as docs.RepoObject_Plantuml_ColRefList_1_1 << V >> {
  --
  ColRefList : (nvarchar(max))
  - cultures_name : (nvarchar(10))
  - RepoObject_guid : (uniqueidentifier)
  --
  --
}

entity "puml-link:dhw:sqldb:reference.repoobjectcolumn_reference.adoc[]" as reference.RepoObjectColumn_reference << V >> {
  **referenced_RepoObjectColumn_guid** : (uniqueidentifier)
  **referencing_RepoObjectColumn_guid** : (uniqueidentifier)
  --
  is_referenced_object : (tinyint)
  is_referencing_object_equal_referenced_object : (tinyint)
  referenced_column_name : (nvarchar(128))
  referenced_entity_name : (nvarchar(128))
  referenced_external_AntoraComponent : (nvarchar(128))
  referenced_external_AntoraModule : (nvarchar(128))
  referenced_is_external : (tinyint)
  referenced_RepoObject_guid : (uniqueidentifier)
  referenced_schema_name : (nvarchar(128))
  referenced_type : (char(2))
  referencing_column_name : (nvarchar(128))
  referencing_entity_name : (nvarchar(128))
  referencing_external_AntoraComponent : (nvarchar(128))
  referencing_external_AntoraModule : (nvarchar(128))
  referencing_is_external : (tinyint)
  referencing_RepoObject_guid : (uniqueidentifier)
  referencing_schema_name : (nvarchar(128))
  referencing_type : (char(2))
  --
  --
}

entity "puml-link:dhw:sqldb:reference.repoobjectcolumn_reference_t.adoc[]" as reference.RepoObjectColumn_reference_T << U >> {
  **referenced_RepoObjectColumn_guid** : (uniqueidentifier)
  **referencing_RepoObjectColumn_guid** : (uniqueidentifier)
  --
  is_referenced_object : (tinyint)
  is_referencing_object_equal_referenced_object : (tinyint)
  referenced_column_name : (nvarchar(128))
  referenced_entity_name : (nvarchar(128))
  referenced_external_AntoraComponent : (nvarchar(128))
  referenced_external_AntoraModule : (nvarchar(128))
  referenced_is_external : (tinyint)
  referenced_RepoObject_guid : (uniqueidentifier)
  referenced_schema_name : (nvarchar(128))
  referenced_type : (char(2))
  referencing_column_name : (nvarchar(128))
  referencing_entity_name : (nvarchar(128))
  referencing_external_AntoraComponent : (nvarchar(128))
  referencing_external_AntoraModule : (nvarchar(128))
  referencing_is_external : (tinyint)
  referencing_RepoObject_guid : (uniqueidentifier)
  referencing_schema_name : (nvarchar(128))
  referencing_type : (char(2))
  # referenced_ro_fullname : (nvarchar(261))
  # referenced_ro_fullname2 : (nvarchar(257))
  # referenced_roc_fullname : (nvarchar(392))
  # referenced_roc_fullname2 : (nvarchar(386))
  # referencing_ro_fullname : (nvarchar(261))
  # referencing_ro_fullname2 : (nvarchar(257))
  # referencing_roc_fullname : (nvarchar(392))
  # referencing_roc_fullname2 : (nvarchar(386))
  --
  --
}

entity "puml-link:dhw:sqldb:reference.repoobjectcolumn_referencedreferencing.adoc[]" as reference.RepoObjectColumn_ReferencedReferencing << V >> {
  --
  - referenced_AntoraXref : (nvarchar(max))
  referenced_external_AntoraComponent : (nvarchar(128))
  referenced_external_AntoraModule : (nvarchar(128))
  - Referenced_fullname : (nvarchar(261))
  - Referenced_fullname2 : (nvarchar(257))
  - Referenced_guid : (uniqueidentifier)
  - referenced_is_external : (bit)
  Referenced_RepoObject_guid : (uniqueidentifier)
  Referenced_type : (char(2))
  - ReferencedColumn_fullname : (nvarchar(392))
  - ReferencedColumn_fullname2 : (nvarchar(386))
  ReferencedColumn_name : (nvarchar(128))
  - referencing_AntoraXref : (nvarchar(max))
  referencing_external_AntoraComponent : (nvarchar(128))
  referencing_external_AntoraModule : (nvarchar(128))
  - Referencing_fullname : (nvarchar(261))
  - Referencing_fullname2 : (nvarchar(257))
  - Referencing_guid : (uniqueidentifier)
  - referencing_is_external : (bit)
  Referencing_RepoObject_guid : (uniqueidentifier)
  Referencing_type : (char(2))
  - ReferencingColumn_fullname : (nvarchar(392))
  - ReferencingColumn_fullname2 : (nvarchar(386))
  ReferencingColumn_name : (nvarchar(128))
  --
  --
}

entity "puml-link:dhw:sqldb:reference.repoobjectcolumn_relationscript.adoc[]" as reference.RepoObjectColumn_RelationScript << V >> {
  --
  - DbmlRelation : (nvarchar(786))
  referenced_RepoObject_guid : (uniqueidentifier)
  referencing_RepoObject_guid : (uniqueidentifier)
  --
  --
}

entity "puml-link:dhw:sqldb:reference.usp_persist_repoobjectcolumn_reference_t.adoc[]" as reference.usp_PERSIST_RepoObjectColumn_reference_T << P >> {
  --
  --
  --
}

entity "puml-link:dhw:sqldb:repo.indexcolumn_referencedreferencing_hasfullcolumnsinreferencing.adoc[]" as repo.IndexColumn_ReferencedReferencing_HasFullColumnsInReferencing << V >> {
  - **index_guid** : (uniqueidentifier)
  - **index_column_id** : (int)
  **RowNumberInReferencing** : (bigint)
  --
  is_descending_key : (bit)
  referenced_RepoObject_guid : (uniqueidentifier)
  - referenced_RepoObjectColumn_guid : (uniqueidentifier)
  referencing_RepoObject_guid : (uniqueidentifier)
  - referencing_RepoObjectColumn_guid : (uniqueidentifier)
  --
  --
}

entity "puml-link:dhw:sqldb:repo.repoobjectcolumn_missingsource_typev.adoc[]" as repo.RepoObjectColumn_MissingSource_TypeV << V >> {
  --
  has_different_sys_names : (bit)
  is_query_plan_expression : (bit)
  - is_RepoObjectColumn_name_uniqueidentifier : (int)
  is_SysObjectColumn_missing : (bit)
  - is_SysObjectColumn_name_uniqueidentifier : (int)
  persistence_source_RepoObjectColumn_guid : (uniqueidentifier)
  Referencing_Count : (int)
  Repo_default_definition : (nvarchar(max))
  Repo_default_is_system_named : (bit)
  Repo_default_name : (nvarchar(128))
  Repo_definition : (nvarchar(max))
  - Repo_generated_always_type : (tinyint)
  Repo_graph_type : (int)
  Repo_increment_value : (sql_variant)
  - Repo_is_computed : (bit)
  - Repo_is_identity : (bit)
  Repo_is_nullable : (bit)
  Repo_is_persisted : (bit)
  Repo_seed_value : (sql_variant)
  Repo_user_type_fullname : (nvarchar(128))
  Repo_user_type_name : (nvarchar(128))
  Repo_uses_database_collation : (bit)
  - RepoObject_fullname : (nvarchar(261))
  - RepoObject_guid : (uniqueidentifier)
  - RepoObjectColumn_guid : (uniqueidentifier)
  - RepoObjectColumn_name : (nvarchar(128))
  - SysObject_fullname : (nvarchar(261))
  SysObjectColumn_column_id : (int)
  - SysObjectColumn_name : (nvarchar(128))
  --
  --
}

reference.RepoObjectColumn_reference <.. reference.RepoObjectColumn_reference_T
reference.RepoObjectColumn_reference_T <.. repo.RepoObjectColumn_MissingSource_TypeV
reference.RepoObjectColumn_reference_T <.. repo.IndexColumn_ReferencedReferencing_HasFullColumnsInReferencing
reference.RepoObjectColumn_reference_T <.. reference.RepoObjectColumn_ReferencedReferencing
reference.RepoObjectColumn_reference_T <.. reference.usp_PERSIST_RepoObjectColumn_reference_T
reference.RepoObjectColumn_reference_T <.. reference.RepoObjectColumn_RelationScript
reference.RepoObjectColumn_reference_T <.. docs.RepoObject_Plantuml_ColRefList_1_1
"reference.RepoObjectColumn_reference::is_referenced_object" <-- "reference.RepoObjectColumn_reference_T::is_referenced_object"
"reference.RepoObjectColumn_reference::is_referencing_object_equal_referenced_object" <-- "reference.RepoObjectColumn_reference_T::is_referencing_object_equal_referenced_object"
"reference.RepoObjectColumn_reference::referenced_column_name" <-- "reference.RepoObjectColumn_reference_T::referenced_column_name"
"reference.RepoObjectColumn_reference::referenced_entity_name" <-- "reference.RepoObjectColumn_reference_T::referenced_entity_name"
"reference.RepoObjectColumn_reference::referenced_external_AntoraComponent" <-- "reference.RepoObjectColumn_reference_T::referenced_external_AntoraComponent"
"reference.RepoObjectColumn_reference::referenced_external_AntoraModule" <-- "reference.RepoObjectColumn_reference_T::referenced_external_AntoraModule"
"reference.RepoObjectColumn_reference::referenced_is_external" <-- "reference.RepoObjectColumn_reference_T::referenced_is_external"
"reference.RepoObjectColumn_reference::referenced_RepoObject_guid" <-- "reference.RepoObjectColumn_reference_T::referenced_RepoObject_guid"
"reference.RepoObjectColumn_reference::referenced_RepoObjectColumn_guid" <-- "reference.RepoObjectColumn_reference_T::referenced_RepoObjectColumn_guid"
"reference.RepoObjectColumn_reference::referenced_schema_name" <-- "reference.RepoObjectColumn_reference_T::referenced_schema_name"
"reference.RepoObjectColumn_reference::referenced_type" <-- "reference.RepoObjectColumn_reference_T::referenced_type"
"reference.RepoObjectColumn_reference::referencing_column_name" <-- "reference.RepoObjectColumn_reference_T::referencing_column_name"
"reference.RepoObjectColumn_reference::referencing_entity_name" <-- "reference.RepoObjectColumn_reference_T::referencing_entity_name"
"reference.RepoObjectColumn_reference::referencing_external_AntoraComponent" <-- "reference.RepoObjectColumn_reference_T::referencing_external_AntoraComponent"
"reference.RepoObjectColumn_reference::referencing_external_AntoraModule" <-- "reference.RepoObjectColumn_reference_T::referencing_external_AntoraModule"
"reference.RepoObjectColumn_reference::referencing_is_external" <-- "reference.RepoObjectColumn_reference_T::referencing_is_external"
"reference.RepoObjectColumn_reference::referencing_RepoObject_guid" <-- "reference.RepoObjectColumn_reference_T::referencing_RepoObject_guid"
"reference.RepoObjectColumn_reference::referencing_RepoObjectColumn_guid" <-- "reference.RepoObjectColumn_reference_T::referencing_RepoObjectColumn_guid"
"reference.RepoObjectColumn_reference::referencing_schema_name" <-- "reference.RepoObjectColumn_reference_T::referencing_schema_name"
"reference.RepoObjectColumn_reference::referencing_type" <-- "reference.RepoObjectColumn_reference_T::referencing_type"
"reference.RepoObjectColumn_reference_T::referenced_column_name" <-- "reference.RepoObjectColumn_ReferencedReferencing::ReferencedColumn_name"
"reference.RepoObjectColumn_reference_T::referenced_column_name" <-- "reference.RepoObjectColumn_reference_T::referenced_roc_fullname"
"reference.RepoObjectColumn_reference_T::referenced_column_name" <-- "reference.RepoObjectColumn_reference_T::referenced_roc_fullname2"
"reference.RepoObjectColumn_reference_T::referenced_entity_name" <-- "reference.RepoObjectColumn_reference_T::referenced_ro_fullname"
"reference.RepoObjectColumn_reference_T::referenced_entity_name" <-- "reference.RepoObjectColumn_reference_T::referenced_ro_fullname2"
"reference.RepoObjectColumn_reference_T::referenced_entity_name" <-- "reference.RepoObjectColumn_reference_T::referenced_roc_fullname"
"reference.RepoObjectColumn_reference_T::referenced_entity_name" <-- "reference.RepoObjectColumn_reference_T::referenced_roc_fullname2"
"reference.RepoObjectColumn_reference_T::referenced_external_AntoraComponent" <-- "reference.RepoObjectColumn_ReferencedReferencing::referenced_external_AntoraComponent"
"reference.RepoObjectColumn_reference_T::referenced_external_AntoraModule" <-- "reference.RepoObjectColumn_ReferencedReferencing::referenced_external_AntoraModule"
"reference.RepoObjectColumn_reference_T::referenced_is_external" <-- "reference.RepoObjectColumn_ReferencedReferencing::referenced_is_external"
"reference.RepoObjectColumn_reference_T::referenced_RepoObject_guid" <-- "reference.RepoObjectColumn_ReferencedReferencing::Referenced_RepoObject_guid"
"reference.RepoObjectColumn_reference_T::referenced_RepoObject_guid" <-- "reference.RepoObjectColumn_RelationScript::referenced_RepoObject_guid"
"reference.RepoObjectColumn_reference_T::referenced_RepoObjectColumn_guid" <-- "reference.RepoObjectColumn_ReferencedReferencing::Referenced_guid"
"reference.RepoObjectColumn_reference_T::referenced_ro_fullname" <-- "reference.RepoObjectColumn_ReferencedReferencing::Referenced_fullname"
"reference.RepoObjectColumn_reference_T::referenced_ro_fullname2" <-- "reference.RepoObjectColumn_ReferencedReferencing::Referenced_fullname2"
"reference.RepoObjectColumn_reference_T::referenced_roc_fullname" <-- "reference.RepoObjectColumn_ReferencedReferencing::ReferencedColumn_fullname"
"reference.RepoObjectColumn_reference_T::referenced_roc_fullname2" <-- "reference.RepoObjectColumn_ReferencedReferencing::ReferencedColumn_fullname2"
"reference.RepoObjectColumn_reference_T::referenced_schema_name" <-- "reference.RepoObjectColumn_reference_T::referenced_ro_fullname"
"reference.RepoObjectColumn_reference_T::referenced_schema_name" <-- "reference.RepoObjectColumn_reference_T::referenced_ro_fullname2"
"reference.RepoObjectColumn_reference_T::referenced_schema_name" <-- "reference.RepoObjectColumn_reference_T::referenced_roc_fullname"
"reference.RepoObjectColumn_reference_T::referenced_schema_name" <-- "reference.RepoObjectColumn_reference_T::referenced_roc_fullname2"
"reference.RepoObjectColumn_reference_T::referenced_type" <-- "reference.RepoObjectColumn_ReferencedReferencing::Referenced_type"
"reference.RepoObjectColumn_reference_T::referencing_column_name" <-- "reference.RepoObjectColumn_ReferencedReferencing::ReferencingColumn_name"
"reference.RepoObjectColumn_reference_T::referencing_column_name" <-- "reference.RepoObjectColumn_reference_T::referencing_roc_fullname"
"reference.RepoObjectColumn_reference_T::referencing_column_name" <-- "reference.RepoObjectColumn_reference_T::referencing_roc_fullname2"
"reference.RepoObjectColumn_reference_T::referencing_entity_name" <-- "reference.RepoObjectColumn_reference_T::referencing_ro_fullname"
"reference.RepoObjectColumn_reference_T::referencing_entity_name" <-- "reference.RepoObjectColumn_reference_T::referencing_ro_fullname2"
"reference.RepoObjectColumn_reference_T::referencing_entity_name" <-- "reference.RepoObjectColumn_reference_T::referencing_roc_fullname"
"reference.RepoObjectColumn_reference_T::referencing_entity_name" <-- "reference.RepoObjectColumn_reference_T::referencing_roc_fullname2"
"reference.RepoObjectColumn_reference_T::referencing_external_AntoraComponent" <-- "reference.RepoObjectColumn_ReferencedReferencing::referencing_external_AntoraComponent"
"reference.RepoObjectColumn_reference_T::referencing_external_AntoraModule" <-- "reference.RepoObjectColumn_ReferencedReferencing::referencing_external_AntoraModule"
"reference.RepoObjectColumn_reference_T::referencing_is_external" <-- "reference.RepoObjectColumn_ReferencedReferencing::referencing_is_external"
"reference.RepoObjectColumn_reference_T::referencing_RepoObject_guid" <-- "reference.RepoObjectColumn_ReferencedReferencing::Referencing_RepoObject_guid"
"reference.RepoObjectColumn_reference_T::referencing_RepoObject_guid" <-- "reference.RepoObjectColumn_RelationScript::referencing_RepoObject_guid"
"reference.RepoObjectColumn_reference_T::referencing_RepoObjectColumn_guid" <-- "reference.RepoObjectColumn_ReferencedReferencing::Referencing_guid"
"reference.RepoObjectColumn_reference_T::referencing_ro_fullname" <-- "reference.RepoObjectColumn_ReferencedReferencing::Referencing_fullname"
"reference.RepoObjectColumn_reference_T::referencing_ro_fullname2" <-- "reference.RepoObjectColumn_ReferencedReferencing::Referencing_fullname2"
"reference.RepoObjectColumn_reference_T::referencing_roc_fullname" <-- "reference.RepoObjectColumn_ReferencedReferencing::ReferencingColumn_fullname"
"reference.RepoObjectColumn_reference_T::referencing_roc_fullname2" <-- "reference.RepoObjectColumn_ReferencedReferencing::ReferencingColumn_fullname2"
"reference.RepoObjectColumn_reference_T::referencing_schema_name" <-- "reference.RepoObjectColumn_reference_T::referencing_ro_fullname"
"reference.RepoObjectColumn_reference_T::referencing_schema_name" <-- "reference.RepoObjectColumn_reference_T::referencing_ro_fullname2"
"reference.RepoObjectColumn_reference_T::referencing_schema_name" <-- "reference.RepoObjectColumn_reference_T::referencing_roc_fullname"
"reference.RepoObjectColumn_reference_T::referencing_schema_name" <-- "reference.RepoObjectColumn_reference_T::referencing_roc_fullname2"
"reference.RepoObjectColumn_reference_T::referencing_type" <-- "reference.RepoObjectColumn_ReferencedReferencing::Referencing_type"
@enduml

