@startuml
left to right direction
'top to bottom direction
hide circle
'avoide "." issues:
set namespaceSeparator none


skinparam class {
  BackgroundColor White
  BackgroundColor<<FN>> Yellow
  BackgroundColor<<FS>> Yellow
  BackgroundColor<<FT>> LightGray
  BackgroundColor<<IF>> Yellow
  BackgroundColor<<IS>> Yellow
  BackgroundColor<<P>> Aqua
  BackgroundColor<<PC>> Aqua
  BackgroundColor<<SN>> Yellow
  BackgroundColor<<SO>> SlateBlue
  BackgroundColor<<TF>> LightGray
  BackgroundColor<<TR>> Tomato
  BackgroundColor<<U>> White
  BackgroundColor<<V>> WhiteSmoke
  BackgroundColor<<X>> Aqua
}


entity "puml-link:reference.ftv_RepoObject_DbmlColumnRelation.adoc[prefix=..]" as reference.ftv_RepoObject_DbmlColumnRelation << IF >> {
  --
  Referenced_Depth : (int)
  Referenced_fullname : (nvarchar(261))
  Referenced_fullname2 : (nvarchar(257))
  Referenced_guid : (uniqueidentifier)
  Referenced_RepoObject_guid : (uniqueidentifier)
  Referenced_type : (char(2))
  ReferencedColumn_fullname : (nvarchar(392))
  ReferencedColumn_fullname2 : (nvarchar(386))
  ReferencedColumn_name : (nvarchar(128))
  Referencing_Depth : (int)
  Referencing_fullname : (nvarchar(261))
  Referencing_fullname2 : (nvarchar(257))
  Referencing_guid : (uniqueidentifier)
  Referencing_RepoObject_guid : (uniqueidentifier)
  Referencing_type : (char(2))
  ReferencingColumn_fullname : (nvarchar(392))
  ReferencingColumn_fullname2 : (nvarchar(386))
  ReferencingColumn_name : (nvarchar(128))
  RepoObject_guid : (uniqueidentifier)
  --
  --
}

entity "puml-link:reference.ftv_RepoObjectColumn_ReferenceTree.adoc[prefix=..]" as reference.ftv_RepoObjectColumn_ReferenceTree << IF >> {
  --
  Referenced_Depth : (int)
  Referenced_fullname : (nvarchar(261))
  Referenced_fullname2 : (nvarchar(257))
  Referenced_guid : (uniqueidentifier)
  Referenced_RepoObject_guid : (uniqueidentifier)
  Referenced_type : (char(2))
  ReferencedColumn_fullname : (nvarchar(392))
  ReferencedColumn_fullname2 : (nvarchar(386))
  ReferencedColumn_name : (nvarchar(128))
  Referencing_Depth : (int)
  Referencing_fullname : (nvarchar(261))
  Referencing_fullname2 : (nvarchar(257))
  Referencing_guid : (uniqueidentifier)
  Referencing_RepoObject_guid : (uniqueidentifier)
  Referencing_type : (char(2))
  ReferencingColumn_fullname : (nvarchar(392))
  ReferencingColumn_fullname2 : (nvarchar(386))
  ReferencingColumn_name : (nvarchar(128))
  RepoObjectColumn_guid : (uniqueidentifier)
  --
  --
}

entity "puml-link:reference.RepoObjectColumn_reference_T.adoc[prefix=..]" as reference.RepoObjectColumn_reference_T << U >> {
  **referenced_RepoObjectColumn_guid** : (uniqueidentifier)
  **referencing_RepoObjectColumn_guid** : (uniqueidentifier)
  --
  is_referenced_object : (tinyint)
  is_referencing_object_equal_referenced_object : (tinyint)
  referenced_column_name : (nvarchar(128))
  referenced_entity_name : (nvarchar(128))
  referenced_RepoObject_guid : (uniqueidentifier)
  referenced_schema_name : (nvarchar(128))
  referenced_type : (char(2))
  referencing_column_name : (nvarchar(128))
  referencing_entity_name : (nvarchar(128))
  referencing_RepoObject_guid : (uniqueidentifier)
  referencing_schema_name : (nvarchar(128))
  referencing_type : (char(2))
  # referenced_ro_fullname : (nvarchar(261))
  # referenced_ro_fullname2 : (nvarchar(257))
  # referenced_roc_fullname : (nvarchar(392))
  # referenced_roc_fullname2 : (nvarchar(386))
  # referencing_ro_fullname : (nvarchar(261))
  # referencing_ro_fullname2 : (nvarchar(257))
  # referencing_roc_fullname : (nvarchar(392))
  # referencing_roc_fullname2 : (nvarchar(386))
  --
  --
}

entity "puml-link:reference.RepoObjectColumn_ReferencedList.adoc[prefix=..]" as reference.RepoObjectColumn_ReferencedList << V >> {
  --
  AntoraReferencedColumnList : (nvarchar(max))
  Referencing_fullname : (nvarchar(261))
  Referencing_fullname2 : (nvarchar(257))
  - Referencing_guid : (uniqueidentifier)
  Referencing_type : (char(2))
  ReferencingColumn_fullname : (nvarchar(392))
  ReferencingColumn_fullname2 : (nvarchar(386))
  --
  --
}

entity "puml-link:reference.RepoObjectColumn_ReferencingList.adoc[prefix=..]" as reference.RepoObjectColumn_ReferencingList << V >> {
  --
  AntoraReferencingColumnList : (nvarchar(max))
  Referenced_fullname : (nvarchar(261))
  Referenced_fullname2 : (nvarchar(257))
  - Referenced_guid : (uniqueidentifier)
  Referenced_type : (char(2))
  ReferencedColumn_fullname : (nvarchar(392))
  ReferencedColumn_fullname2 : (nvarchar(386))
  --
  --
}

entity "puml-link:reference.RepoObjectColumn_ReferencingReferenced.adoc[prefix=..]" as reference.RepoObjectColumn_ReferencingReferenced << V >> {
  - **Referenced_guid** : (uniqueidentifier)
  - **Referencing_guid** : (uniqueidentifier)
  --
  - Referenced_fullname : (nvarchar(261))
  - Referenced_fullname2 : (nvarchar(257))
  Referenced_RepoObject_guid : (uniqueidentifier)
  Referenced_type : (char(2))
  - ReferencedColumn_fullname : (nvarchar(392))
  - ReferencedColumn_fullname2 : (nvarchar(386))
  ReferencedColumn_name : (nvarchar(128))
  - Referencing_fullname : (nvarchar(261))
  - Referencing_fullname2 : (nvarchar(257))
  Referencing_RepoObject_guid : (uniqueidentifier)
  Referencing_type : (char(2))
  - ReferencingColumn_fullname : (nvarchar(392))
  - ReferencingColumn_fullname2 : (nvarchar(386))
  ReferencingColumn_name : (nvarchar(128))
  --
  --
}

reference.RepoObjectColumn_reference_T <.. reference.RepoObjectColumn_ReferencingReferenced
reference.RepoObjectColumn_ReferencingReferenced <.. reference.ftv_RepoObjectColumn_ReferenceTree
reference.RepoObjectColumn_ReferencingReferenced <.. reference.ftv_RepoObject_DbmlColumnRelation
reference.RepoObjectColumn_ReferencingReferenced <.. reference.RepoObjectColumn_ReferencedList
reference.RepoObjectColumn_ReferencingReferenced <.. reference.RepoObjectColumn_ReferencingList
reference.RepoObjectColumn_reference_T::referenced_column_name <-- reference.RepoObjectColumn_ReferencingReferenced::ReferencedColumn_name
reference.RepoObjectColumn_reference_T::referenced_RepoObject_guid <-- reference.RepoObjectColumn_ReferencingReferenced::Referenced_RepoObject_guid
reference.RepoObjectColumn_reference_T::referenced_RepoObjectColumn_guid <-- reference.RepoObjectColumn_ReferencingReferenced::Referenced_guid
reference.RepoObjectColumn_reference_T::referenced_ro_fullname <-- reference.RepoObjectColumn_ReferencingReferenced::Referenced_fullname
reference.RepoObjectColumn_reference_T::referenced_ro_fullname2 <-- reference.RepoObjectColumn_ReferencingReferenced::Referenced_fullname2
reference.RepoObjectColumn_reference_T::referenced_roc_fullname <-- reference.RepoObjectColumn_ReferencingReferenced::ReferencedColumn_fullname
reference.RepoObjectColumn_reference_T::referenced_roc_fullname2 <-- reference.RepoObjectColumn_ReferencingReferenced::ReferencedColumn_fullname2
reference.RepoObjectColumn_reference_T::referenced_type <-- reference.RepoObjectColumn_ReferencingReferenced::Referenced_type
reference.RepoObjectColumn_reference_T::referencing_column_name <-- reference.RepoObjectColumn_ReferencingReferenced::ReferencingColumn_name
reference.RepoObjectColumn_reference_T::referencing_RepoObject_guid <-- reference.RepoObjectColumn_ReferencingReferenced::Referencing_RepoObject_guid
reference.RepoObjectColumn_reference_T::referencing_RepoObjectColumn_guid <-- reference.RepoObjectColumn_ReferencingReferenced::Referencing_guid
reference.RepoObjectColumn_reference_T::referencing_ro_fullname <-- reference.RepoObjectColumn_ReferencingReferenced::Referencing_fullname
reference.RepoObjectColumn_reference_T::referencing_ro_fullname2 <-- reference.RepoObjectColumn_ReferencingReferenced::Referencing_fullname2
reference.RepoObjectColumn_reference_T::referencing_roc_fullname <-- reference.RepoObjectColumn_ReferencingReferenced::ReferencingColumn_fullname
reference.RepoObjectColumn_reference_T::referencing_roc_fullname2 <-- reference.RepoObjectColumn_ReferencingReferenced::ReferencingColumn_fullname2
reference.RepoObjectColumn_reference_T::referencing_type <-- reference.RepoObjectColumn_ReferencingReferenced::Referencing_type
reference.RepoObjectColumn_ReferencingReferenced::Referenced_fullname <-- reference.RepoObjectColumn_ReferencingList::Referenced_fullname
reference.RepoObjectColumn_ReferencingReferenced::Referenced_guid <-- reference.RepoObjectColumn_ReferencingList::Referenced_guid
reference.RepoObjectColumn_ReferencingReferenced::Referencing_fullname <-- reference.RepoObjectColumn_ReferencedList::Referencing_fullname
reference.RepoObjectColumn_ReferencingReferenced::Referencing_guid <-- reference.RepoObjectColumn_ReferencedList::Referencing_guid
footer
to view a reduced diagram in original size and to be able to click on the links:
open the diagram in a new tab via the Context menu.
end footer

@enduml

