@startuml
left to right direction
'top to bottom direction
hide circle
'avoide "." issues:
set namespaceSeparator none


skinparam class {
  BackgroundColor White
  BackgroundColor<<FN>> Yellow
  BackgroundColor<<FS>> Yellow
  BackgroundColor<<FT>> LightGray
  BackgroundColor<<IF>> Yellow
  BackgroundColor<<IS>> Yellow
  BackgroundColor<<P>> Aqua
  BackgroundColor<<PC>> Aqua
  BackgroundColor<<SN>> Yellow
  BackgroundColor<<SO>> SlateBlue
  BackgroundColor<<TF>> LightGray
  BackgroundColor<<TR>> Tomato
  BackgroundColor<<U>> White
  BackgroundColor<<V>> WhiteSmoke
  BackgroundColor<<X>> Aqua
  BackgroundColor<<external>> AliceBlue
}


entity "puml-link:dhw:sqldb:reference.repoobject_reference_t.adoc[]" as reference.RepoObject_reference_T << U >> {
  **referenced_RepoObject_guid** : (uniqueidentifier)
  **referencing_RepoObject_guid** : (uniqueidentifier)
  - is_ReversePersistenceViaView : (bit)
  referenced_entity_name : (nvarchar(128))
  referenced_external_AntoraComponent : (nvarchar(128))
  referenced_external_AntoraModule : (nvarchar(128))
  referenced_is_external : (int)
  - referenced_is_PersistenceSource : (bit)
  - referenced_is_PersistenceTarget : (bit)
  referenced_schema_name : (nvarchar(128))
  referenced_type : (char(2))
  referencing_entity_name : (nvarchar(128))
  referencing_external_AntoraComponent : (nvarchar(128))
  referencing_external_AntoraModule : (nvarchar(128))
  referencing_is_external : (int)
  - referencing_is_PersistenceTarget : (bit)
  - referencing_is_PersistenceUspSourceRef : (bit)
  referencing_is_PersistenceUspTargetRef : (bit)
  referencing_schema_name : (nvarchar(128))
  referencing_type : (varchar(2))
  # referenced_fullname : (nvarchar(261))
  # referenced_fullname2 : (nvarchar(257))
  ~ referenced_puml_entity : (nvarchar(4000))
  # referencing_fullname : (nvarchar(261))
  # referencing_fullname2 : (nvarchar(257))
  ~ referencing_puml_entity : (nvarchar(4000))
  --
}

entity "puml-link:dhw:sqldb:reference.repoobject_reference_t_bidirectional.adoc[]" as reference.RepoObject_reference_T_bidirectional << V >> {
  referenced_entity_name : (nvarchar(128))
  - referenced_fullname : (nvarchar(261))
  - referenced_fullname2 : (nvarchar(257))
  referenced_is_persistence : (bit)
  - referenced_RepoObject_guid : (uniqueidentifier)
  referenced_schema_name : (nvarchar(128))
  referenced_source_RepoObject_guid : (uniqueidentifier)
  referenced_type : (char(2))
  referencing_entity_name : (nvarchar(128))
  - referencing_fullname : (nvarchar(261))
  - referencing_fullname2 : (nvarchar(257))
  referencing_is_persistence : (bit)
  - referencing_RepoObject_guid : (uniqueidentifier)
  referencing_schema_name : (nvarchar(128))
  referencing_source_RepoObject_guid : (uniqueidentifier)
  referencing_type : (varchar(2))
  --
}

entity "puml-link:dhw:sqldb:repo.repoobject_persistence.adoc[]" as repo.RepoObject_persistence << U >> {
  - **target_RepoObject_guid** : (uniqueidentifier)
  - has_history : (bit)
  - has_history_columns : (bit)
  history_schema_name : (nvarchar(128))
  history_table_name : (nvarchar(128))
  - is_persistence_check_duplicate_per_pk : (bit)
  - is_persistence_check_for_empty_source : (bit)
  - is_persistence_delete_changed : (bit)
  - is_persistence_delete_missing : (bit)
  - is_persistence_insert : (bit)
  - is_persistence_merge_delete_missing : (bit)
  - is_persistence_merge_insert : (bit)
  - is_persistence_merge_update_changed : (bit)
  - is_persistence_persist_source : (bit)
  - is_persistence_truncate : (bit)
  - is_persistence_update_changed : (bit)
  source_filter : (nvarchar(4000))
  source_RepoObject_guid : (uniqueidentifier)
  source_RepoObject_name : (nvarchar(128))
  target_filter : (nvarchar(4000))
  ~ is_persistence : (bit)
  ~ temporal_type : (tinyint)
  --
}

reference.RepoObject_reference_T <.. reference.RepoObject_reference_T_bidirectional
repo.RepoObject_persistence <.. reference.RepoObject_reference_T_bidirectional
"reference.RepoObject_reference_T::referenced_entity_name" <-- "reference.RepoObject_reference_T_bidirectional::referenced_entity_name"
"reference.RepoObject_reference_T::referenced_fullname" <-- "reference.RepoObject_reference_T_bidirectional::referenced_fullname"
"reference.RepoObject_reference_T::referenced_fullname2" <-- "reference.RepoObject_reference_T_bidirectional::referenced_fullname2"
"reference.RepoObject_reference_T::referenced_RepoObject_guid" <-- "reference.RepoObject_reference_T_bidirectional::referenced_RepoObject_guid"
"reference.RepoObject_reference_T::referenced_schema_name" <-- "reference.RepoObject_reference_T_bidirectional::referenced_schema_name"
"reference.RepoObject_reference_T::referenced_type" <-- "reference.RepoObject_reference_T_bidirectional::referenced_type"
"reference.RepoObject_reference_T::referencing_entity_name" <-- "reference.RepoObject_reference_T_bidirectional::referencing_entity_name"
"reference.RepoObject_reference_T::referencing_fullname" <-- "reference.RepoObject_reference_T_bidirectional::referencing_fullname"
"reference.RepoObject_reference_T::referencing_fullname2" <-- "reference.RepoObject_reference_T_bidirectional::referencing_fullname2"
"reference.RepoObject_reference_T::referencing_RepoObject_guid" <-- "reference.RepoObject_reference_T_bidirectional::referencing_RepoObject_guid"
"reference.RepoObject_reference_T::referencing_schema_name" <-- "reference.RepoObject_reference_T_bidirectional::referencing_schema_name"
"reference.RepoObject_reference_T::referencing_type" <-- "reference.RepoObject_reference_T_bidirectional::referencing_type"
"repo.RepoObject_persistence::is_persistence" <-- "reference.RepoObject_reference_T_bidirectional::referenced_is_persistence"
"repo.RepoObject_persistence::is_persistence" <-- "reference.RepoObject_reference_T_bidirectional::referencing_is_persistence"
"repo.RepoObject_persistence::source_RepoObject_guid" <-- "reference.RepoObject_reference_T_bidirectional::referenced_source_RepoObject_guid"
"repo.RepoObject_persistence::source_RepoObject_guid" <-- "reference.RepoObject_reference_T_bidirectional::referencing_source_RepoObject_guid"footer The diagram is interactive and contains links.
@enduml

