@startuml
left to right direction
'top to bottom direction
hide circle
'avoide "." issues:
set namespaceSeparator none


skinparam class {
  BackgroundColor White
  BackgroundColor<<FN>> Yellow
  BackgroundColor<<FS>> Yellow
  BackgroundColor<<FT>> LightGray
  BackgroundColor<<IF>> Yellow
  BackgroundColor<<IS>> Yellow
  BackgroundColor<<P>> Aqua
  BackgroundColor<<PC>> Aqua
  BackgroundColor<<SN>> Yellow
  BackgroundColor<<SO>> SlateBlue
  BackgroundColor<<TF>> LightGray
  BackgroundColor<<TR>> Tomato
  BackgroundColor<<U>> White
  BackgroundColor<<V>> WhiteSmoke
  BackgroundColor<<X>> Aqua
  BackgroundColor<<external>> AliceBlue
}


entity "puml-link:dhw:sqldb:reference.repoobjectcolumnsource_virtual.adoc[]" as reference.RepoObjectColumnSource_virtual << U >> {
  - **RepoObjectColumn_guid** : (uniqueidentifier)
  - **Source_RepoObjectColumn_guid** : (uniqueidentifier)
  --
  --
  --
}

entity "puml-link:dhw:sqldb:reference.usp_repoobjectcolumnsource_virtual_set.adoc[]" as reference.usp_RepoObjectColumnSource_virtual_set << P >> {
  --
  --
  --
}

entity "puml-link:dhw:sqldb:repo.repoobjectcolumn.adoc[]" as repo.RepoObjectColumn << U >> {
  - **RepoObjectColumn_guid** : (uniqueidentifier)
  --
  Inheritance_StringAggSeparatorSql : (nvarchar(4000))
  InheritanceDefinition : (nvarchar(4000))
  InheritanceType : (tinyint)
  is_persistence_no_check : (bit)
  is_persistence_no_include : (bit)
  is_persistence_no_update : (bit)
  is_query_plan_expression : (bit)
  is_required_ColumnMerge : (bit)
  is_SysObjectColumn_missing : (bit)
  persistence_source_RepoObjectColumn_guid : (uniqueidentifier)
  Referencing_Count : (int)
  Repo_default_definition : (nvarchar(max))
  Repo_default_is_system_named : (bit)
  Repo_default_name : (nvarchar(128))
  Repo_definition : (nvarchar(max))
  - Repo_generated_always_type : (tinyint)
  Repo_graph_type : (int)
  Repo_increment_value : (sql_variant)
  - Repo_is_computed : (bit)
  - Repo_is_identity : (bit)
  Repo_is_nullable : (bit)
  Repo_is_persisted : (bit)
  Repo_seed_value : (sql_variant)
  Repo_user_type_fullname : (nvarchar(128))
  Repo_user_type_name : (nvarchar(128))
  Repo_uses_database_collation : (bit)
  - RepoObject_guid : (uniqueidentifier)
  RepoObjectColumn_column_id : (int)
  - RepoObjectColumn_name : (nvarchar(128))
  SysObjectColumn_column_id : (int)
  - SysObjectColumn_name : (nvarchar(128))
  # Column_name : (nvarchar(128))
  ~ has_different_sys_names : (bit)
  # is_RepoObjectColumn_name_uniqueidentifier : (int)
  # is_SysObjectColumn_name_uniqueidentifier : (int)
  --
  --
}

entity "puml-link:dhw:sqldb:repo.repoobjectcolumn_gross.adoc[]" as repo.RepoObjectColumn_gross << V >> {
  --
  - Column_name : (nvarchar(128))
  Description : (nvarchar(max))
  has_different_sys_names : (bit)
  has_get_referenced_issue : (bit)
  Inheritance_StringAggSeparatorSql : (nvarchar(4000))
  InheritanceDefinition : (nvarchar(4000))
  InheritanceType : (tinyint)
  - is_external : (bit)
  is_persistence_no_check : (bit)
  is_persistence_no_include : (bit)
  is_persistence_no_update : (bit)
  is_query_plan_expression : (bit)
  is_repo_managed : (bit)
  - is_RepoObject_name_uniqueidentifier : (int)
  - is_RepoObjectColumn_name_uniqueidentifier : (int)
  is_required_ColumnMerge : (bit)
  - is_ssas : (bit)
  is_SysObject_missing : (bit)
  - is_SysObject_name_uniqueidentifier : (int)
  is_SysObjectColumn_missing : (bit)
  - is_SysObjectColumn_name_uniqueidentifier : (int)
  - modify_dt : (datetime)
  node_id : (bigint)
  persistence_source_RepoObject_guid : (uniqueidentifier)
  persistence_source_RepoObjectColumn_guid : (uniqueidentifier)
  pk_index_guid : (uniqueidentifier)
  Property_ms_description : (nvarchar(4000))
  Referencing_Count : (int)
  Repo_default_definition : (nvarchar(max))
  Repo_default_is_system_named : (bit)
  Repo_default_name : (nvarchar(128))
  Repo_definition : (nvarchar(max))
  - Repo_generated_always_type : (tinyint)
  Repo_graph_type : (int)
  Repo_increment_value : (sql_variant)
  - Repo_is_computed : (bit)
  - Repo_is_identity : (bit)
  Repo_is_nullable : (bit)
  Repo_is_persisted : (bit)
  Repo_seed_value : (sql_variant)
  Repo_user_type_fullname : (nvarchar(128))
  Repo_user_type_name : (nvarchar(128))
  Repo_uses_database_collation : (bit)
  - RepoObject_fullname : (nvarchar(261))
  - RepoObject_fullname2 : (nvarchar(257))
  - RepoObject_guid : (uniqueidentifier)
  - RepoObject_name : (nvarchar(128))
  RepoObject_Referencing_Count : (int)
  - RepoObject_schema_name : (nvarchar(128))
  - RepoObject_type : (char(2))
  RepoObjectColumn_column_id : (int)
  - RepoObjectColumn_fullname : (nvarchar(520))
  - RepoObjectColumn_fullname2 : (nvarchar(386))
  - RepoObjectColumn_guid : (uniqueidentifier)
  - RepoObjectColumn_name : (nvarchar(128))
  - SysObject_fullname : (nvarchar(261))
  - SysObject_fullname2 : (nvarchar(257))
  SysObject_id : (int)
  SysObject_modify_date : (datetime)
  - SysObject_name : (nvarchar(128))
  - SysObject_parent_object_id : (int)
  - SysObject_schema_name : (nvarchar(128))
  SysObject_type : (char(2))
  SysObjectColumn_column_id : (int)
  - SysObjectColumn_name : (nvarchar(128))
  tabcol_Description : (nvarchar(max))
  tabcol_DisplayFolder : (nvarchar(500))
  tabcol_Expression : (nvarchar(max))
  tabcol_FormatString : (nvarchar(500))
  - tabcol_IsHidden : (bit)
  - tabcol_IsKey : (bit)
  - tabcol_IsUnique : (bit)
  tabcol_SummarizeBy : (nvarchar(500))
  tabcol_Type : (nvarchar(500))
  --
  --
}

reference.RepoObjectColumnSource_virtual <.. reference.usp_RepoObjectColumnSource_virtual_set
repo.RepoObjectColumn <.. reference.usp_RepoObjectColumnSource_virtual_set
repo.RepoObjectColumn_gross <.. reference.usp_RepoObjectColumnSource_virtual_set

@enduml

