@startuml
left to right direction
'top to bottom direction
hide circle
'avoide "." issues:
set namespaceSeparator none


skinparam class {
  BackgroundColor White
  BackgroundColor<<FN>> Yellow
  BackgroundColor<<FS>> Yellow
  BackgroundColor<<FT>> LightGray
  BackgroundColor<<IF>> Yellow
  BackgroundColor<<IS>> Yellow
  BackgroundColor<<P>> Aqua
  BackgroundColor<<PC>> Aqua
  BackgroundColor<<SN>> Yellow
  BackgroundColor<<SO>> SlateBlue
  BackgroundColor<<TF>> LightGray
  BackgroundColor<<TR>> Tomato
  BackgroundColor<<U>> White
  BackgroundColor<<V>> WhiteSmoke
  BackgroundColor<<X>> Aqua
  BackgroundColor<<external>> AliceBlue
}


entity "puml-link:dhw:sqldb:reference.additional_reference_guid.adoc[]" as reference.additional_Reference_guid << V >> {
  - referenced_AntoraComponent : (nvarchar(128))
  - referenced_AntoraModule : (nvarchar(128))
  referenced_Column : (nvarchar(128))
  referenced_external_AntoraComponent : (nvarchar(128))
  referenced_external_AntoraModule : (nvarchar(128))
  referenced_fullname : (nvarchar(261))
  referenced_id : (int)
  referenced_is_external : (bit)
  - referenced_Object : (nvarchar(128))
  referenced_RepoObject_guid : (uniqueidentifier)
  referenced_RepoObjectColumn_guid : (uniqueidentifier)
  - referenced_Schema : (nvarchar(128))
  referenced_type : (char(2))
  - referencing_AntoraComponent : (nvarchar(128))
  - referencing_AntoraModule : (nvarchar(128))
  referencing_Column : (nvarchar(128))
  referencing_external_AntoraComponent : (nvarchar(128))
  referencing_external_AntoraModule : (nvarchar(128))
  referencing_fullname : (nvarchar(261))
  referencing_id : (int)
  referencing_is_external : (bit)
  - referencing_Object : (nvarchar(128))
  referencing_RepoObject_guid : (uniqueidentifier)
  referencing_RepoObjectColumn_guid : (uniqueidentifier)
  - referencing_Schema : (nvarchar(128))
  referencing_type : (char(2))
  --
}

entity "puml-link:dhw:sqldb:reference.repoobject_reference_additional_internal.adoc[]" as reference.RepoObject_reference_additional_internal << V >> {
  - InformationSource : (varchar(30))
  - referenced_entity_name : (nvarchar(128))
  referenced_fullname : (nvarchar(261))
  referenced_id : (int)
  referenced_RepoObject_guid : (uniqueidentifier)
  - referenced_schema_name : (nvarchar(128))
  referenced_type : (char(2))
  - referencing_entity_name : (nvarchar(128))
  referencing_fullname : (nvarchar(261))
  referencing_id : (int)
  referencing_RepoObject_guid : (uniqueidentifier)
  - referencing_schema_name : (nvarchar(128))
  referencing_type : (char(2))
  --
}

reference.additional_Reference_guid <.. reference.RepoObject_reference_additional_internal
"reference.additional_Reference_guid::referenced_fullname" <-- "reference.RepoObject_reference_additional_internal::referenced_fullname"
"reference.additional_Reference_guid::referenced_id" <-- "reference.RepoObject_reference_additional_internal::referenced_id"
"reference.additional_Reference_guid::referenced_Object" <-- "reference.RepoObject_reference_additional_internal::referenced_entity_name"
"reference.additional_Reference_guid::referenced_RepoObject_guid" <-- "reference.RepoObject_reference_additional_internal::referenced_RepoObject_guid"
"reference.additional_Reference_guid::referenced_Schema" <-- "reference.RepoObject_reference_additional_internal::referenced_schema_name"
"reference.additional_Reference_guid::referenced_type" <-- "reference.RepoObject_reference_additional_internal::referenced_type"
"reference.additional_Reference_guid::referencing_fullname" <-- "reference.RepoObject_reference_additional_internal::referencing_fullname"
"reference.additional_Reference_guid::referencing_id" <-- "reference.RepoObject_reference_additional_internal::referencing_id"
"reference.additional_Reference_guid::referencing_Object" <-- "reference.RepoObject_reference_additional_internal::referencing_entity_name"
"reference.additional_Reference_guid::referencing_RepoObject_guid" <-- "reference.RepoObject_reference_additional_internal::referencing_RepoObject_guid"
"reference.additional_Reference_guid::referencing_Schema" <-- "reference.RepoObject_reference_additional_internal::referencing_schema_name"
"reference.additional_Reference_guid::referencing_type" <-- "reference.RepoObject_reference_additional_internal::referencing_type"footer The diagram is interactive and contains links.
@enduml

