@startuml
left to right direction
'top to bottom direction
hide circle
'avoide "." issues:
set namespaceSeparator none


skinparam class {
  BackgroundColor White
  BackgroundColor<<FN>> Yellow
  BackgroundColor<<FS>> Yellow
  BackgroundColor<<FT>> LightGray
  BackgroundColor<<IF>> Yellow
  BackgroundColor<<IS>> Yellow
  BackgroundColor<<P>> Aqua
  BackgroundColor<<PC>> Aqua
  BackgroundColor<<SN>> Yellow
  BackgroundColor<<SO>> SlateBlue
  BackgroundColor<<TF>> LightGray
  BackgroundColor<<TR>> Tomato
  BackgroundColor<<U>> White
  BackgroundColor<<V>> WhiteSmoke
  BackgroundColor<<X>> Aqua
  BackgroundColor<<external>> AliceBlue
}


entity "puml-link:dhw:sqldb:reference.repoobject_referencedreferencing.adoc[]" as reference.RepoObject_ReferencedReferencing << V >> {
  - referenced_AntoraXref : (nvarchar(max))
  referenced_external_AntoraComponent : (nvarchar(128))
  referenced_external_AntoraModule : (nvarchar(128))
  - Referenced_fullname : (nvarchar(261))
  - Referenced_fullname2 : (nvarchar(257))
  - Referenced_guid : (uniqueidentifier)
  referenced_is_DocsOutput : (int)
  - referenced_is_external : (bit)
  Referenced_type : (char(2))
  - referencing_AntoraXref : (nvarchar(max))
  referencing_external_AntoraComponent : (nvarchar(128))
  referencing_external_AntoraModule : (nvarchar(128))
  - Referencing_fullname : (nvarchar(261))
  - Referencing_fullname2 : (nvarchar(257))
  - Referencing_guid : (uniqueidentifier)
  referencing_is_DocsOutput : (int)
  - referencing_is_external : (bit)
  Referencing_type : (varchar(2))
  --
}

entity "puml-link:dhw:sqldb:reference.repoobject_referencinglist.adoc[]" as reference.RepoObject_ReferencingList << V >> {
  AntoraReferencingList : (nvarchar(max))
  Referenced_fullname : (nvarchar(261))
  Referenced_fullname2 : (nvarchar(257))
  - Referenced_guid : (uniqueidentifier)
  Referenced_type : (char(2))
  --
}

entity "puml-link:dhw:sqldb:repo.repoobject_gross2.adoc[]" as repo.RepoObject_gross2 << V >> {
  AntoraComponent : (nvarchar(max))
  AntoraModule : (nvarchar(max))
  AntoraReferencedList : (nvarchar(max))
  AntoraReferencingList : (nvarchar(max))
  CreateColumnList : (nvarchar(max))
  DbmlColumnList : (nvarchar(max))
  Description : (nvarchar(max))
  external_AntoraComponent : (nvarchar(128))
  external_AntoraModule : (nvarchar(128))
  external_DatabaseName : (nvarchar(128))
  external_RepoDatabaseName : (nvarchar(128))
  has_different_sys_names : (bit)
  has_execution_plan_issue : (bit)
  has_get_referenced_issue : (bit)
  has_history : (bit)
  has_history_columns : (bit)
  history_schema_name : (nvarchar(128))
  history_table_name : (nvarchar(128))
  Inheritance_StringAggSeparatorSql : (nvarchar(4000))
  InheritanceDefinition : (nvarchar(4000))
  InheritanceType : (tinyint)
  - is_DocsExclude : (bit)
  is_DocsOutput : (int)
  - is_external : (bit)
  - is_in_reference : (int)
  is_persistence : (bit)
  is_persistence_check_duplicate_per_pk : (bit)
  is_persistence_check_for_empty_source : (bit)
  is_persistence_delete_changed : (bit)
  is_persistence_delete_missing : (bit)
  is_persistence_insert : (bit)
  is_persistence_merge_delete_missing : (bit)
  is_persistence_merge_insert : (bit)
  is_persistence_merge_update_changed : (bit)
  is_persistence_persist_source : (bit)
  is_persistence_truncate : (bit)
  is_persistence_update_changed : (bit)
  is_repo_managed : (bit)
  - is_RepoObject_name_uniqueidentifier : (int)
  is_required_ObjectMerge : (bit)
  - is_ssas : (bit)
  is_SysObject_missing : (bit)
  - is_SysObject_name_uniqueidentifier : (int)
  - modify_dt : (datetime)
  node_id : (bigint)
  persistence_source_RepoObject_fullname : (nvarchar(261))
  persistence_source_RepoObject_fullname2 : (nvarchar(257))
  persistence_source_RepoObject_guid : (uniqueidentifier)
  persistence_source_RepoObject_xref : (nvarchar(4000))
  persistence_source_SysObject_fullname : (nvarchar(261))
  persistence_source_SysObject_fullname_or_tempsource : (nvarchar(261))
  persistence_source_SysObject_fullname2 : (nvarchar(257))
  persistence_source_SysObject_xref : (nvarchar(4000))
  PersistenceCompareColumnList : (nvarchar(max))
  PersistenceInsertColumnList : (nvarchar(max))
  PersistenceUpdateColumnList : (nvarchar(max))
  pk_index_guid : (uniqueidentifier)
  pk_IndexPatternColumnDatatype : (nvarchar(4000))
  pk_IndexPatternColumnName : (nvarchar(4000))
  pk_IndexPatternColumnName_new : (nvarchar(4000))
  pk_IndexSemanticGroup : (nvarchar(512))
  Property_ms_description : (nvarchar(4000))
  Repo_history_table_guid : (uniqueidentifier)
  Repo_temporal_type : (tinyint)
  - RepoObject_fullname : (nvarchar(261))
  - RepoObject_fullname2 : (nvarchar(257))
  - RepoObject_guid : (uniqueidentifier)
  - RepoObject_name : (nvarchar(128))
  RepoObject_Referencing_Count : (int)
  - RepoObject_schema_name : (nvarchar(128))
  - RepoObject_type : (char(2))
  RepoObject_type_name : (nvarchar(128))
  source_filter : (nvarchar(4000))
  sql_modules_antora : (nvarchar(max))
  sql_modules_definition : (nvarchar(max))
  sql_modules_formatted : (nvarchar(max))
  sql_modules_formatted2 : (nvarchar(max))
  - SysObject_fullname : (nvarchar(261))
  - SysObject_fullname2 : (nvarchar(257))
  SysObject_id : (int)
  SysObject_modify_date : (datetime)
  - SysObject_name : (nvarchar(128))
  - SysObject_parent_object_id : (int)
  SysObject_query_executed_dt : (datetime)
  SysObject_query_plan : (xml)
  - SysObject_query_sql : (nvarchar(406))
  - SysObject_schema_name : (nvarchar(128))
  SysObject_type : (char(2))
  SysObject_type_name : (nvarchar(128))
  tables_dataCategory : (nvarchar(500))
  tables_description : (nvarchar(max))
  tables_isHidden : (bit)
  target_filter : (nvarchar(4000))
  temporal_type : (tinyint)
  - usp_persistence_name : (nvarchar(140))
  usp_persistence_RepoObject_guid : (uniqueidentifier)
  uspgenerator_usp_id : (int)
  --
}

entity "puml-link:dhw:sqldb:repo.repoobject_sat2.adoc[]" as repo.RepoObject_sat2 << V >> {
  - **RepoObject_guid** : (uniqueidentifier)
  AntoraReferencedList : (nvarchar(max))
  AntoraReferencingList : (nvarchar(max))
  CreateColumnList : (nvarchar(max))
  DbmlColumnList : (nvarchar(max))
  PersistenceCompareColumnList : (nvarchar(max))
  PersistenceInsertColumnList : (nvarchar(max))
  PersistenceUpdateColumnList : (nvarchar(max))
  sql_modules_antora : (nvarchar(max))
  sql_modules_definition : (nvarchar(max))
  sql_modules_formatted : (nvarchar(max))
  sql_modules_formatted2 : (nvarchar(max))
  --
}

reference.RepoObject_ReferencedReferencing <.. reference.RepoObject_ReferencingList
reference.RepoObject_ReferencingList <.. repo.RepoObject_gross2
reference.RepoObject_ReferencingList <.. repo.RepoObject_sat2
"reference.RepoObject_ReferencedReferencing::referenced_fullname" <-- "reference.RepoObject_ReferencingList::Referenced_fullname"
"reference.RepoObject_ReferencedReferencing::Referenced_guid" <-- "reference.RepoObject_ReferencingList::Referenced_guid"
"reference.RepoObject_ReferencingList::AntoraReferencingList" <-- "repo.RepoObject_gross2::AntoraReferencingList"
"reference.RepoObject_ReferencingList::AntoraReferencingList" <-- "repo.RepoObject_sat2::AntoraReferencingList"footer The diagram is interactive and contains links.
@enduml

