@startuml
left to right direction
'top to bottom direction
hide circle
'avoide "." issues:
set namespaceSeparator none


skinparam class {
  BackgroundColor White
  BackgroundColor<<FN>> Yellow
  BackgroundColor<<FS>> Yellow
  BackgroundColor<<FT>> LightGray
  BackgroundColor<<IF>> Yellow
  BackgroundColor<<IS>> Yellow
  BackgroundColor<<P>> Aqua
  BackgroundColor<<PC>> Aqua
  BackgroundColor<<SN>> Yellow
  BackgroundColor<<SO>> SlateBlue
  BackgroundColor<<TF>> LightGray
  BackgroundColor<<TR>> Tomato
  BackgroundColor<<U>> White
  BackgroundColor<<V>> WhiteSmoke
  BackgroundColor<<X>> Aqua
  BackgroundColor<<external>> AliceBlue
}


entity "puml-link:dhw:sqldb:reference.persistence.adoc[]" as reference.Persistence << V >> {
  --
  referenced_fullname : (nvarchar(261))
  referenced_RepoObject_guid : (uniqueidentifier)
  referenced_schema_name : (nvarchar(128))
  referenced_usp_persistence_name : (nvarchar(140))
  referenced_usp_persistence_RepoObject_guid : (uniqueidentifier)
  referencing_fullname : (nvarchar(261))
  referencing_RepoObject_guid : (uniqueidentifier)
  referencing_schema_name : (nvarchar(128))
  referencing_usp_persistence_name : (nvarchar(140))
  referencing_usp_persistence_RepoObject_guid : (uniqueidentifier)
  --
  --
}

entity "puml-link:dhw:sqldb:reference.persistence_bidirectional.adoc[]" as reference.Persistence_bidirectional << V >> {
  --
  referenced_fullname : (nvarchar(261))
  referenced_RepoObject_guid : (uniqueidentifier)
  referenced_schema_name : (nvarchar(128))
  referenced_usp_persistence_name : (nvarchar(140))
  referenced_usp_persistence_RepoObject_guid : (uniqueidentifier)
  referencing_fullname : (nvarchar(261))
  referencing_RepoObject_guid : (uniqueidentifier)
  referencing_schema_name : (nvarchar(128))
  referencing_usp_persistence_name : (nvarchar(140))
  referencing_usp_persistence_RepoObject_guid : (uniqueidentifier)
  --
  --
}

reference.Persistence <.. reference.Persistence_bidirectional
"reference.Persistence::referenced_fullname" <-- "reference.Persistence_bidirectional::referenced_fullname"
"reference.Persistence::referenced_RepoObject_guid" <-- "reference.Persistence_bidirectional::referenced_RepoObject_guid"
"reference.Persistence::referenced_schema_name" <-- "reference.Persistence_bidirectional::referenced_schema_name"
"reference.Persistence::referenced_usp_persistence_name" <-- "reference.Persistence_bidirectional::referenced_usp_persistence_name"
"reference.Persistence::referenced_usp_persistence_RepoObject_guid" <-- "reference.Persistence_bidirectional::referenced_usp_persistence_RepoObject_guid"
"reference.Persistence::referencing_fullname" <-- "reference.Persistence_bidirectional::referencing_fullname"
"reference.Persistence::referencing_RepoObject_guid" <-- "reference.Persistence_bidirectional::referencing_RepoObject_guid"
"reference.Persistence::referencing_schema_name" <-- "reference.Persistence_bidirectional::referencing_schema_name"
"reference.Persistence::referencing_usp_persistence_name" <-- "reference.Persistence_bidirectional::referencing_usp_persistence_name"
"reference.Persistence::referencing_usp_persistence_RepoObject_guid" <-- "reference.Persistence_bidirectional::referencing_usp_persistence_RepoObject_guid"
@enduml

