@startuml
left to right direction
'top to bottom direction
hide circle
'avoide "." issues:
set namespaceSeparator none


skinparam class {
  BackgroundColor White
  BackgroundColor<<FN>> Yellow
  BackgroundColor<<FS>> Yellow
  BackgroundColor<<FT>> LightGray
  BackgroundColor<<IF>> Yellow
  BackgroundColor<<IS>> Yellow
  BackgroundColor<<P>> Aqua
  BackgroundColor<<PC>> Aqua
  BackgroundColor<<SN>> Yellow
  BackgroundColor<<SO>> SlateBlue
  BackgroundColor<<TF>> LightGray
  BackgroundColor<<TR>> Tomato
  BackgroundColor<<U>> White
  BackgroundColor<<V>> WhiteSmoke
  BackgroundColor<<X>> Aqua
  BackgroundColor<<external>> AliceBlue
}


entity "puml-link:dhw:sqldb:config.ftv_dwh_database.adoc[]" as config.ftv_dwh_database << IF >> {
  --
  dwh_database_id : (smallint)
  dwh_database_name : (nvarchar(128))
  --
  --
}

entity "puml-link:dhw:sqldb:property.repoobjectcolumnproperty_sys_repo.adoc[]" as property.RepoObjectColumnProperty_sys_repo << V >> {
  - **RepoObjectColumn_guid** : (uniqueidentifier)
  - **property_name** : (sysname)
  --
  property_value : (sql_variant)
  RepoObjectColumnProperty_id : (int)
  RepoObjectColumnProperty_property_value : (nvarchar(max))
  SysObject_name : (nvarchar(128))
  SysObject_schema_name : (nvarchar(128))
  SysObjectColumn_name : (nvarchar(128))
  --
  --
}

entity "puml-link:dhw:sqldb:property.repoobjectproperty_sys_repo.adoc[]" as property.RepoObjectProperty_sys_repo << V >> {
  - **RepoObject_guid** : (uniqueidentifier)
  - **property_name** : (sysname)
  --
  property_value : (sql_variant)
  RepoObjectProperty_id : (int)
  RepoObjectProperty_property_value : (nvarchar(max))
  SysObject_name : (nvarchar(128))
  SysObject_schema_name : (nvarchar(128))
  --
  --
}

entity "puml-link:dhw:sqldb:property.usp_sync_extendedproperties_sys2repo_insertupdate.adoc[]" as property.usp_sync_ExtendedProperties_Sys2Repo_InsertUpdate << P >> {
  --
  --
  --
}

entity "puml-link:dhw:sqldb:repo_sys.extendedproperties.adoc[]" as repo_sys.ExtendedProperties << V >> {
  --
  - class : (tinyint)
  class_desc : (nvarchar(60))
  entity_column_name : (nvarchar(128))
  entity_index_name : (nvarchar(128))
  entity_parameter_name : (nvarchar(128))
  level2type : (varchar(9))
  - major_id : (int)
  - minor_id : (int)
  minor_name : (nvarchar(128))
  parent_name : (sysname)
  parent_object_id : (int)
  parent_type : (char(2))
  property_basetype : (sql_variant)
  - property_name : (sysname)
  property_nvarchar : (nvarchar(4000))
  property_value : (sql_variant)
  SysObject_name : (nvarchar(128))
  SysObject_schema_name : (nvarchar(128))
  --
  --
}

entity "puml-link:dhw:sqldb:repo_sys.extendedproperties_parameterforaddupdatedrop.adoc[]" as repo_sys.ExtendedProperties_ParameterForAddUpdateDrop << V >> {
  --
  - class : (tinyint)
  class_desc : (nvarchar(60))
  level0name : (nvarchar(128))
  - level0type : (varchar(6))
  level1name : (nvarchar(128))
  level1type : (varchar(9))
  level2name : (nvarchar(128))
  level2type : (varchar(10))
  - minor_id : (int)
  - property_name : (sysname)
  property_value : (sql_variant)
  type : (char(2))
  type_level1type : (varchar(9))
  type_level2type : (varchar(10))
  --
  --
}

entity "puml-link:dhw:sqldb:repo_sys.syscolumn.adoc[]" as repo_sys.SysColumn << V >> {
  --
  collation_name : (sysname)
  column_encryption_key_database_name : (sysname)
  column_encryption_key_id : (int)
  default_definition : (nvarchar(max))
  default_is_system_named : (bit)
  default_name : (sysname)
  - default_object_id : (int)
  default_parent_column_id : (int)
  definition : (nvarchar(max))
  encryption_algorithm_name : (sysname)
  encryption_type : (int)
  encryption_type_desc : (nvarchar(64))
  generated_always_type : (tinyint)
  generated_always_type_desc : (nvarchar(60))
  graph_type : (int)
  graph_type_desc : (nvarchar(60))
  increment_value : (sql_variant)
  - is_ansi_padded : (bit)
  is_column_set : (bit)
  - is_computed : (bit)
  is_dts_replicated : (bit)
  - is_filestream : (bit)
  is_hidden : (bit)
  - is_identity : (bit)
  - is_masked : (bit)
  is_merge_published : (bit)
  is_non_sql_subscribed : (bit)
  is_nullable : (bit)
  is_persisted : (bit)
  is_replicated : (bit)
  - is_rowguidcol : (bit)
  is_sparse : (bit)
  - is_xml_document : (bit)
  last_value : (sql_variant)
  - max_length : (smallint)
  - precision : (tinyint)
  - rule_object_id : (int)
  - scale : (tinyint)
  seed_value : (sql_variant)
  - SysObject_column_id : (int)
  SysObject_column_name : (sysname)
  SysObject_fullname : (nvarchar(517))
  SysObject_fullname2 : (nvarchar(257))
  - SysObject_id : (int)
  SysObject_name : (nvarchar(128))
  SysObject_RepoObject_guid : (uniqueidentifier)
  SysObject_RepoObjectColumn_guid : (uniqueidentifier)
  SysObject_schema_name : (nvarchar(128))
  SysObject_type : (char(2))
  SysObject_type_desc : (nvarchar(60))
  - system_type_id : (tinyint)
  user_type_fullname : (nvarchar(182))
  - user_type_id : (int)
  user_type_name : (sysname)
  uses_database_collation : (bit)
  - xml_collection_id : (int)
  --
  --
}

entity "puml-link:dhw:sqldb:repo_sys.sysobject.adoc[]" as repo_sys.SysObject << V >> {
  --
  - create_date : (datetime)
  history_table_id : (int)
  - is_ms_shipped : (bit)
  - is_published : (bit)
  - is_schema_published : (bit)
  max_column_id_used : (int)
  - modify_date : (datetime)
  - parent_object_id : (int)
  principal_id : (int)
  - schema_id : (int)
  sql_modules_definition : (nvarchar(max))
  - SysObject_fullname : (nvarchar(517))
  - SysObject_fullname2 : (nvarchar(257))
  - SysObject_id : (int)
  - SysObject_name : (sysname)
  SysObject_RepoObject_guid : (uniqueidentifier)
  SysObject_schema_name : (sysname)
  temporal_type : (tinyint)
  temporal_type_desc : (nvarchar(60))
  type : (char(2))
  type_desc : (nvarchar(60))
  --
  --
}

entity "puml-link:dhw:sqldb:repo_sys.sysschema.adoc[]" as repo_sys.SysSchema << V >> {
  --
  - SysSchema_id : (int)
  - SysSchema_name : (sysname)
  SysSchema_principal_id : (int)
  SysSchema_RepoSchema_guid : (uniqueidentifier)
  --
  --
}

entity "puml-link:dhw:sqldb:sys_dwh.columns.adoc[]" as sys_dwh.columns << SN >> {
  --
  --
  --
}

entity "puml-link:dhw:sqldb:sys_dwh.extended_properties.adoc[]" as sys_dwh.extended_properties << SN >> {
  --
  --
  --
}

entity "puml-link:dhw:sqldb:sys_dwh.indexes.adoc[]" as sys_dwh.indexes << SN >> {
  --
  --
  --
}

entity "puml-link:dhw:sqldb:sys_dwh.objects.adoc[]" as sys_dwh.objects << SN >> {
  --
  --
  --
}

entity "puml-link:dhw:sqldb:sys_dwh.parameters.adoc[]" as sys_dwh.parameters << SN >> {
  --
  --
  --
}

entity "puml-link:dhw:sqldb:sys_dwh.schemas.adoc[]" as sys_dwh.schemas << SN >> {
  --
  --
  --
}

config.ftv_dwh_database <.. repo_sys.ExtendedProperties
repo_sys.ExtendedProperties <.. repo_sys.ExtendedProperties_ParameterForAddUpdateDrop
repo_sys.ExtendedProperties <.. repo_sys.SysObject
repo_sys.ExtendedProperties <.. property.RepoObjectColumnProperty_sys_repo
repo_sys.ExtendedProperties <.. property.RepoObjectProperty_sys_repo
repo_sys.ExtendedProperties <.. repo_sys.SysColumn
repo_sys.ExtendedProperties <.. property.usp_sync_ExtendedProperties_Sys2Repo_InsertUpdate
repo_sys.ExtendedProperties <.. repo_sys.SysSchema
sys_dwh.columns <.. repo_sys.ExtendedProperties
sys_dwh.extended_properties <.. repo_sys.ExtendedProperties
sys_dwh.indexes <.. repo_sys.ExtendedProperties
sys_dwh.objects <.. repo_sys.ExtendedProperties
sys_dwh.parameters <.. repo_sys.ExtendedProperties
sys_dwh.schemas <.. repo_sys.ExtendedProperties
"repo_sys.ExtendedProperties::class" <-- "repo_sys.ExtendedProperties_ParameterForAddUpdateDrop::class"
"repo_sys.ExtendedProperties::class_desc" <-- "repo_sys.ExtendedProperties_ParameterForAddUpdateDrop::class_desc"
"repo_sys.ExtendedProperties::entity_column_name" <-- "property.RepoObjectColumnProperty_sys_repo::SysObjectColumn_name"
"repo_sys.ExtendedProperties::minor_id" <-- "repo_sys.ExtendedProperties_ParameterForAddUpdateDrop::minor_id"
"repo_sys.ExtendedProperties::property_name" <-- "repo_sys.ExtendedProperties_ParameterForAddUpdateDrop::property_name"
"repo_sys.ExtendedProperties::property_name" <-- "property.RepoObjectColumnProperty_sys_repo::property_name"
"repo_sys.ExtendedProperties::property_name" <-- "property.RepoObjectProperty_sys_repo::property_name"
"repo_sys.ExtendedProperties::property_value" <-- "repo_sys.ExtendedProperties_ParameterForAddUpdateDrop::property_value"
"repo_sys.ExtendedProperties::property_value" <-- "property.RepoObjectColumnProperty_sys_repo::property_value"
"repo_sys.ExtendedProperties::property_value" <-- "property.RepoObjectProperty_sys_repo::property_value"
"repo_sys.ExtendedProperties::SysObject_name" <-- "property.RepoObjectColumnProperty_sys_repo::SysObject_name"
"repo_sys.ExtendedProperties::SysObject_name" <-- "property.RepoObjectProperty_sys_repo::SysObject_name"
"repo_sys.ExtendedProperties::SysObject_schema_name" <-- "repo_sys.ExtendedProperties_ParameterForAddUpdateDrop::level0name"
"repo_sys.ExtendedProperties::SysObject_schema_name" <-- "property.RepoObjectColumnProperty_sys_repo::SysObject_schema_name"
"repo_sys.ExtendedProperties::SysObject_schema_name" <-- "property.RepoObjectProperty_sys_repo::SysObject_schema_name"
@enduml

