@startuml
left to right direction
'top to bottom direction
hide circle
'avoide "." issues:
set namespaceSeparator none


skinparam class {
  BackgroundColor White
  BackgroundColor<<FN>> Yellow
  BackgroundColor<<FS>> Yellow
  BackgroundColor<<FT>> LightGray
  BackgroundColor<<IF>> Yellow
  BackgroundColor<<IS>> Yellow
  BackgroundColor<<P>> Aqua
  BackgroundColor<<PC>> Aqua
  BackgroundColor<<SN>> Yellow
  BackgroundColor<<SO>> SlateBlue
  BackgroundColor<<TF>> LightGray
  BackgroundColor<<TR>> Tomato
  BackgroundColor<<U>> White
  BackgroundColor<<V>> WhiteSmoke
  BackgroundColor<<X>> Aqua
  BackgroundColor<<external>> AliceBlue
}


entity "puml-link:dhw:sqldb:repo.index_columlist.adoc[]" as repo.Index_ColumList << V >> {
  AntoraIndexColumnList : (nvarchar(max))
  ColumnList : (nvarchar(max))
  ConstraintColumnList : (nvarchar(max))
  DbmlIndexColumnList : (nvarchar(max))
  - index_guid : (uniqueidentifier)
  PersistenceWhereColumnList : (nvarchar(max))
  PumlIndexColumnList : (nvarchar(max))
  --
}

entity "puml-link:dhw:sqldb:repo.index_columlist_t.adoc[]" as repo.Index_ColumList_T << U >> {
  - **index_guid** : (uniqueidentifier)
  AntoraIndexColumnList : (nvarchar(max))
  ColumnList : (nvarchar(max))
  ConstraintColumnList : (nvarchar(max))
  DbmlIndexColumnList : (nvarchar(max))
  PersistenceWhereColumnList : (nvarchar(max))
  PumlIndexColumnList : (nvarchar(max))
  --
}

entity "puml-link:dhw:sqldb:repo.index_gross.adoc[]" as repo.Index_gross << V >> {
  AntoraIndexColumnList : (nvarchar(max))
  ColumnList : (nvarchar(max))
  ConstraintColumnList : (nvarchar(max))
  DbmlIndexColumnList : (nvarchar(max))
  - index_guid : (uniqueidentifier)
  index_name : (nvarchar(450))
  index_type : (tinyint)
  IndexPatternColumnDatatype : (nvarchar(4000))
  IndexPatternColumnName : (nvarchar(4000))
  IndexSemanticGroup : (nvarchar(512))
  - is_DocsExclude : (bit)
  is_DocsOutput : (int)
  is_index_disabled : (bit)
  is_index_primary_key : (bit)
  is_index_real : (bit)
  is_index_unique : (bit)
  is_persistence : (bit)
  is_repo_managed : (bit)
  parent_RepoObject_guid : (uniqueidentifier)
  PersistenceWhereColumnList : (nvarchar(max))
  PumlIndexColumnList : (nvarchar(max))
  referenced_index_guid : (uniqueidentifier)
  - RepoObject_fullname : (nvarchar(261))
  - RepoObject_fullname2 : (nvarchar(257))
  RowNumber_PatternPerParentObject : (bigint)
  RowNumber_PkPerParentObject : (bigint)
  - SysObject_fullname : (nvarchar(261))
  - SysObject_fullname2 : (nvarchar(257))
  SysObject_id : (int)
  - SysObject_name : (nvarchar(128))
  - SysObject_schema_name : (nvarchar(128))
  SysObject_type : (char(2))
  --
}

entity "puml-link:dhw:sqldb:repo.index_sqlconstraint_pkuq.adoc[]" as repo.Index_SqlConstraint_PkUq << V >> {
  index_guid : (uniqueidentifier)
  parent_RepoObject_guid : (uniqueidentifier)
  - SqlConstraint : (nvarchar(max))
  --
}

entity "puml-link:dhw:sqldb:repo.usp_persist_index_columlist_t.adoc[]" as repo.usp_PERSIST_Index_ColumList_T << P >> {
  --
}

entity "puml-link:dhw:sqldb:uspgenerator.generatoruspstep_persistence_src.adoc[]" as uspgenerator.GeneratorUspStep_Persistence_src << V >> {
  - **usp_id** : (int)
  - has_logging : (int)
  - is_condition : (int)
  - is_inactive : (int)
  - is_SubProcedure : (int)
  log_flag_InsertUpdateDelete : (varchar(1))
  log_source_object : (nvarchar(261))
  log_target_object : (nvarchar(261))
  - Name : (varchar(45))
  - Number : (int)
  Parent_Number : (int)
  - RepoObject_guid : (uniqueidentifier)
  Statement : (nvarchar(max))
  - usp_fullname : (nvarchar(261))
  --
}

repo.Index_ColumList <.. repo.Index_ColumList_T
repo.Index_ColumList_T <.. repo.Index_SqlConstraint_PkUq
repo.Index_ColumList_T <.. repo.Index_gross
repo.Index_ColumList_T <.. repo.usp_PERSIST_Index_ColumList_T
repo.Index_ColumList_T <.. uspgenerator.GeneratorUspStep_Persistence_src
"repo.Index_ColumList::AntoraIndexColumnList" <-- "repo.Index_ColumList_T::AntoraIndexColumnList"
"repo.Index_ColumList::ColumnList" <-- "repo.Index_ColumList_T::ColumnList"
"repo.Index_ColumList::ConstraintColumnList" <-- "repo.Index_ColumList_T::ConstraintColumnList"
"repo.Index_ColumList::DbmlIndexColumnList" <-- "repo.Index_ColumList_T::DbmlIndexColumnList"
"repo.Index_ColumList::index_guid" <-- "repo.Index_ColumList_T::index_guid"
"repo.Index_ColumList::PersistenceWhereColumnList" <-- "repo.Index_ColumList_T::PersistenceWhereColumnList"
"repo.Index_ColumList::PumlIndexColumnList" <-- "repo.Index_ColumList_T::PumlIndexColumnList"
"repo.Index_ColumList_T::AntoraIndexColumnList" <-- "repo.Index_gross::AntoraIndexColumnList"
"repo.Index_ColumList_T::ColumnList" <-- "repo.Index_gross::ColumnList"
"repo.Index_ColumList_T::ConstraintColumnList" <-- "repo.Index_gross::ConstraintColumnList"
"repo.Index_ColumList_T::DbmlIndexColumnList" <-- "repo.Index_gross::DbmlIndexColumnList"
"repo.Index_ColumList_T::PersistenceWhereColumnList" <-- "repo.Index_gross::PersistenceWhereColumnList"
"repo.Index_ColumList_T::PumlIndexColumnList" <-- "repo.Index_gross::PumlIndexColumnList"footer The diagram is interactive and contains links.
@enduml

