@startuml
left to right direction
'top to bottom direction
hide circle
'avoide "." issues:
set namespaceSeparator none


skinparam class {
  BackgroundColor White
  BackgroundColor<<FN>> Yellow
  BackgroundColor<<FS>> Yellow
  BackgroundColor<<FT>> LightGray
  BackgroundColor<<IF>> Yellow
  BackgroundColor<<IS>> Yellow
  BackgroundColor<<P>> Aqua
  BackgroundColor<<PC>> Aqua
  BackgroundColor<<SN>> Yellow
  BackgroundColor<<SO>> SlateBlue
  BackgroundColor<<TF>> LightGray
  BackgroundColor<<TR>> Tomato
  BackgroundColor<<U>> White
  BackgroundColor<<V>> WhiteSmoke
  BackgroundColor<<X>> Aqua
  BackgroundColor<<external>> AliceBlue
}


entity "puml-link:dhw:sqldb:repo.index_union.adoc[]" as repo.Index_union << V >> {
  **index_guid** : (uniqueidentifier)
  --
  index_name : (nvarchar(450))
  index_type : (tinyint)
  IndexPatternColumnGuid : (varchar(8000))
  is_index_disabled : (bit)
  is_index_primary_key : (bit)
  is_index_real : (bit)
  is_index_unique : (bit)
  parent_RepoObject_guid : (uniqueidentifier)
  referenced_index_guid : (uniqueidentifier)
  --
  --
}

entity "puml-link:dhw:sqldb:repo.index_unique_indexpatterncolumnguid.adoc[]" as repo.Index_unique_IndexPatternColumnGuid << V >> {
  --
  index_guid : (uniqueidentifier)
  IndexPatternColumnGuid : (varchar(8000))
  --
  --
}

entity "puml-link:dhw:sqldb:repo_sys.indexcolumn_unique.adoc[]" as repo_sys.IndexColumn_unique << V >> {
  --
  - index_column_id : (int)
  index_guid : (uniqueidentifier)
  - index_id : (int)
  index_name : (sysname)
  is_descending_key : (bit)
  is_index_primary_key : (bit)
  is_index_real : (bit)
  is_index_unique : (bit)
  parent_RepoObject_guid : (uniqueidentifier)
  parent_schema_name : (nvarchar(128))
  parent_SysObject_fullname : (nvarchar(261))
  parent_SysObject_name : (nvarchar(128))
  RepoObjectColumn_guid : (uniqueidentifier)
  SysObject_column_name : (sysname)
  SysObject_column_user_type_fullname : (nvarchar(182))
  --
  --
}

repo.Index_unique_IndexPatternColumnGuid <.. repo.Index_union
repo_sys.IndexColumn_unique <.. repo.Index_unique_IndexPatternColumnGuid
"repo_sys.IndexColumn_unique::index_guid" <-- "repo.Index_unique_IndexPatternColumnGuid::index_guid"
@enduml

