@startuml
left to right direction
'top to bottom direction
hide circle
'avoide "." issues:
set namespaceSeparator none


skinparam class {
  BackgroundColor White
  BackgroundColor<<FN>> Yellow
  BackgroundColor<<FS>> Yellow
  BackgroundColor<<FT>> LightGray
  BackgroundColor<<IF>> Yellow
  BackgroundColor<<IS>> Yellow
  BackgroundColor<<P>> Aqua
  BackgroundColor<<PC>> Aqua
  BackgroundColor<<SN>> Yellow
  BackgroundColor<<SO>> SlateBlue
  BackgroundColor<<TF>> LightGray
  BackgroundColor<<TR>> Tomato
  BackgroundColor<<U>> White
  BackgroundColor<<V>> WhiteSmoke
  BackgroundColor<<X>> Aqua
  BackgroundColor<<external>> AliceBlue
}


entity "puml-link:dhw:sqldb:repo.repoobject_ssas_src.adoc[]" as repo.RepoObject_SSAS_src << V >> {
  - **RepoObject_guid** : (uniqueidentifier)
  --
  - is_repo_managed : (int)
  - is_ssas : (int)
  - RepoObject_name : (nvarchar(128))
  - RepoObject_schema_name : (nvarchar(128))
  - RepoObject_type : (varchar(1))
  - SysObject_name : (nvarchar(128))
  - SysObject_schema_name : (nvarchar(128))
  - SysObject_type : (varchar(1))
  --
  --
}

entity "puml-link:dhw:sqldb:repo.repoobject_ssas_tgt.adoc[]" as repo.RepoObject_SSAS_tgt << V >> {
  - **RepoObject_guid** : (uniqueidentifier)
  --
  external_AntoraComponent : (nvarchar(128))
  external_AntoraModule : (nvarchar(128))
  has_execution_plan_issue : (bit)
  has_get_referenced_issue : (bit)
  Inheritance_StringAggSeparatorSql : (nvarchar(4000))
  InheritanceDefinition : (nvarchar(4000))
  InheritanceType : (tinyint)
  is_external : (bit)
  - is_repo_managed : (int)
  is_required_ObjectMerge : (bit)
  - is_ssas : (int)
  is_SysObject_missing : (bit)
  - modify_dt : (datetime)
  pk_index_guid : (uniqueidentifier)
  pk_IndexPatternColumnName_new : (nvarchar(4000))
  Repo_history_table_guid : (uniqueidentifier)
  Repo_temporal_type : (tinyint)
  - RepoObject_name : (nvarchar(128))
  RepoObject_Referencing_Count : (int)
  - RepoObject_schema_name : (nvarchar(128))
  - RepoObject_type : (varchar(1))
  SysObject_id : (int)
  - SysObject_modify_date : (datetime)
  - SysObject_name : (nvarchar(128))
  - SysObject_parent_object_id : (int)
  - SysObject_schema_name : (nvarchar(128))
  - SysObject_type : (varchar(1))
  --
  --
}

entity "puml-link:dhw:sqldb:repo.reposchema.adoc[]" as repo.RepoSchema << U >> {
  - **RepoSchema_guid** : (uniqueidentifier)
  --
  - is_ssas : (bit)
  is_SysSchema_missing : (bit)
  - MeasuresRepoObjekt_guid : (uniqueidentifier)
  RepoSchema_ms_description : (nvarchar(4000))
  - RepoSchema_name : (nvarchar(128))
  SysSchema_id : (int)
  - SysSchema_name : (nvarchar(128))
  ~ has_different_sys_names : (bit)
  # is_RepoSchema_name_uniqueidentifier : (int)
  # is_SysSchema_name_uniqueidentifier : (int)
  # MeasuresRepoObjekt_name : (varchar(9))
  --
  --
}

entity "puml-link:dhw:sqldb:repo.usp_persist_repoobject_ssas_tgt.adoc[]" as repo.usp_PERSIST_RepoObject_SSAS_tgt << P >> {
  --
  --
  --
}

entity "puml-link:dhw:sqldb:ssas.model_json_31_tables_t.adoc[]" as ssas.model_json_31_tables_T << U >> {
  - **databasename** : (nvarchar(128))
  **tables_name** : (nvarchar(128))
  --
  - RepoObject_guid : (uniqueidentifier)
  tables_annotations_ja : (nvarchar(max))
  tables_columns_ja : (nvarchar(max))
  tables_dataCategory : (nvarchar(500))
  tables_description : (nvarchar(max))
  tables_description_ja : (nvarchar(max))
  tables_hierarchies_ja : (nvarchar(max))
  tables_isHidden : (bit)
  tables_measures_ja : (nvarchar(max))
  tables_partitions_ja : (nvarchar(max))
  --
  --
}

repo.RepoObject_SSAS_src <.. repo.RepoObject_SSAS_tgt
repo.RepoObject_SSAS_src <.. repo.usp_PERSIST_RepoObject_SSAS_tgt
repo.RepoSchema <.. repo.RepoObject_SSAS_src
ssas.model_json_31_tables_T <.. repo.RepoObject_SSAS_src
"repo.RepoObject_SSAS_src::is_repo_managed" <-- "repo.RepoObject_SSAS_tgt::is_repo_managed"
"repo.RepoObject_SSAS_src::is_ssas" <-- "repo.RepoObject_SSAS_tgt::is_ssas"
"repo.RepoObject_SSAS_src::RepoObject_guid" <-- "repo.RepoObject_SSAS_tgt::RepoObject_guid"
"repo.RepoObject_SSAS_src::RepoObject_name" <-- "repo.RepoObject_SSAS_tgt::RepoObject_name"
"repo.RepoObject_SSAS_src::RepoObject_schema_name" <-- "repo.RepoObject_SSAS_tgt::RepoObject_schema_name"
"repo.RepoObject_SSAS_src::RepoObject_type" <-- "repo.RepoObject_SSAS_tgt::RepoObject_type"
"repo.RepoObject_SSAS_src::SysObject_name" <-- "repo.RepoObject_SSAS_tgt::SysObject_name"
"repo.RepoObject_SSAS_src::SysObject_schema_name" <-- "repo.RepoObject_SSAS_tgt::SysObject_schema_name"
"repo.RepoObject_SSAS_src::SysObject_type" <-- "repo.RepoObject_SSAS_tgt::SysObject_type"
@enduml

