@startuml
left to right direction
'top to bottom direction
hide circle
'avoide "." issues:
set namespaceSeparator none


skinparam class {
  BackgroundColor White
  BackgroundColor<<FN>> Yellow
  BackgroundColor<<FS>> Yellow
  BackgroundColor<<FT>> LightGray
  BackgroundColor<<IF>> Yellow
  BackgroundColor<<IS>> Yellow
  BackgroundColor<<P>> Aqua
  BackgroundColor<<PC>> Aqua
  BackgroundColor<<SN>> Yellow
  BackgroundColor<<SO>> SlateBlue
  BackgroundColor<<TF>> LightGray
  BackgroundColor<<TR>> Tomato
  BackgroundColor<<U>> White
  BackgroundColor<<V>> WhiteSmoke
  BackgroundColor<<X>> Aqua
  BackgroundColor<<external>> AliceBlue
}


entity "puml-link:dhw:sqldb:config.fs_get_parameter_value.adoc[]" as config.fs_get_parameter_value << FN >> {
  --
}

entity "puml-link:dhw:sqldb:configt.type_level1type_level2type.adoc[]" as configT.type_level1type_level2type << V >> {
  **type** : (nvarchar(128))
  level1type : (varchar(9))
  level2type : (varchar(10))
  type_desc : (nvarchar(128))
  --
}

entity "puml-link:dhw:sqldb:logs.usp_executionlog_insert.adoc[]" as logs.usp_ExecutionLog_insert << P >> {
  --
}

entity "puml-link:dhw:sqldb:reference.repoobjectsource_virtual.adoc[]" as reference.RepoObjectSource_virtual << U >> {
  - **RepoObject_guid** : (uniqueidentifier)
  - **Source_RepoObject_guid** : (uniqueidentifier)
  --
}

entity "puml-link:dhw:sqldb:repo.repoobject.adoc[]" as repo.RepoObject << U >> {
  - **RepoObject_guid** : (uniqueidentifier)
  external_AntoraComponent : (nvarchar(128))
  external_AntoraModule : (nvarchar(128))
  has_execution_plan_issue : (bit)
  has_get_referenced_issue : (bit)
  Inheritance_Source_fullname : (nvarchar(261))
  Inheritance_StringAggSeparatorSql : (nvarchar(4000))
  InheritanceDefinition : (nvarchar(4000))
  InheritanceType : (tinyint)
  - is_DocsExclude : (bit)
  - is_external : (bit)
  is_repo_managed : (bit)
  is_required_ObjectMerge : (bit)
  - is_ssas : (bit)
  is_SysObject_missing : (bit)
  - modify_dt : (datetime)
  pk_index_guid : (uniqueidentifier)
  pk_IndexPatternColumnName_new : (nvarchar(4000))
  Repo_history_table_guid : (uniqueidentifier)
  Repo_temporal_type : (tinyint)
  - RepoObject_name : (nvarchar(128))
  RepoObject_Referencing_Count : (int)
  - RepoObject_schema_name : (nvarchar(128))
  - RepoObject_type : (char(2))
  SysObject_id : (int)
  SysObject_modify_date : (datetime)
  - SysObject_name : (nvarchar(128))
  - SysObject_parent_object_id : (int)
  - SysObject_schema_name : (nvarchar(128))
  SysObject_type : (char(2))
  ~ has_different_sys_names : (bit)
  # is_RepoObject_name_uniqueidentifier : (int)
  # is_SysObject_name_uniqueidentifier : (int)
  ~ node_id : (bigint)
  # RepoObject_fullname : (nvarchar(261))
  # RepoObject_fullname2 : (nvarchar(257))
  # SysObject_fullname : (nvarchar(261))
  # SysObject_fullname2 : (nvarchar(257))
  ~ SysObject_query_sql : (nvarchar(406))
  # usp_persistence_fullname2 : (nvarchar(269))
  # usp_persistence_name : (nvarchar(140))
  --
}

entity "puml-link:dhw:sqldb:repo.repoobject_persistence.adoc[]" as repo.RepoObject_persistence << U >> {
  - **target_RepoObject_guid** : (uniqueidentifier)
  - has_history : (bit)
  - has_history_columns : (bit)
  history_schema_name : (nvarchar(128))
  history_table_name : (nvarchar(128))
  - is_persistence_check_duplicate_per_pk : (bit)
  - is_persistence_check_for_empty_source : (bit)
  - is_persistence_delete_changed : (bit)
  - is_persistence_delete_missing : (bit)
  - is_persistence_insert : (bit)
  - is_persistence_merge_delete_missing : (bit)
  - is_persistence_merge_insert : (bit)
  - is_persistence_merge_update_changed : (bit)
  - is_persistence_persist_source : (bit)
  - is_persistence_truncate : (bit)
  - is_persistence_update_changed : (bit)
  source_filter : (nvarchar(4000))
  source_RepoObject_guid : (uniqueidentifier)
  source_RepoObject_name : (nvarchar(128))
  target_filter : (nvarchar(4000))
  ~ is_persistence : (bit)
  ~ temporal_type : (tinyint)
  --
}

entity "puml-link:dhw:sqldb:repo.repoobject_requiredrepoobjectmerge.adoc[]" as repo.RepoObject_RequiredRepoObjectMerge << V >> {
  - RepoObject_fullname : (nvarchar(261))
  - RepoObject_guid : (uniqueidentifier)
  - RepoObject_name : (nvarchar(128))
  - RepoObject_schema_name : (nvarchar(128))
  - ro2_RepoObject_fullname : (nvarchar(261))
  - ro2_RepoObject_guid : (uniqueidentifier)
  - ro2_RepoObject_name : (nvarchar(128))
  - ro2_RepoObject_schema_name : (nvarchar(128))
  - ro2_SysObject_fullname : (nvarchar(261))
  - ro2_SysObject_name : (nvarchar(128))
  - SysObject_fullname : (nvarchar(261))
  - SysObject_name : (nvarchar(128))
  - SysObject_schema_name : (nvarchar(128))
  --
}

entity "puml-link:dhw:sqldb:repo.sysobject_repoobject_via_guid.adoc[]" as repo.SysObject_RepoObject_via_guid << V >> {
  history_table_guid : (uniqueidentifier)
  history_table_id : (int)
  is_external : (bit)
  is_repo_managed : (bit)
  is_RepoObject_name_uniqueidentifier : (int)
  is_ssas : (bit)
  is_SysObject_name_uniqueidentifier : (int)
  - modify_date : (datetime)
  - parent_object_id : (int)
  Repo_history_table_guid : (uniqueidentifier)
  Repo_temporal_type : (tinyint)
  RepoObject_guid : (uniqueidentifier)
  RepoObject_is_SysObject_missing : (bit)
  RepoObject_name : (nvarchar(128))
  RepoObject_schema_name : (nvarchar(128))
  RepoObject_SysObject_id : (int)
  RepoObject_SysObject_modify_date : (datetime)
  RepoObject_SysObject_name : (nvarchar(128))
  RepoObject_SysObject_parent_object_id : (int)
  RepoObject_SysObject_schema_name : (nvarchar(128))
  RepoObject_SysObject_type : (char(2))
  RepoObject_type : (char(2))
  - SysObject_id : (int)
  - SysObject_name : (sysname)
  SysObject_RepoObject_guid : (uniqueidentifier)
  SysObject_schema_name : (sysname)
  SysObject_type : (char(2))
  SysObject_type_desc : (nvarchar(60))
  temporal_type : (tinyint)
  --
}

entity "puml-link:dhw:sqldb:repo.sysobject_repoobject_via_name.adoc[]" as repo.SysObject_RepoObject_via_name << V >> {
  history_table_guid : (uniqueidentifier)
  history_table_id : (int)
  is_external : (bit)
  is_repo_managed : (bit)
  is_RepoObject_name_uniqueidentifier : (int)
  is_ssas : (bit)
  is_SysObject_name_uniqueidentifier : (int)
  - modify_date : (datetime)
  - parent_object_id : (int)
  Repo_history_table_guid : (uniqueidentifier)
  Repo_temporal_type : (tinyint)
  RepoObject_guid : (uniqueidentifier)
  RepoObject_is_SysObject_missing : (bit)
  RepoObject_name : (nvarchar(128))
  RepoObject_schema_name : (nvarchar(128))
  RepoObject_SysObject_id : (int)
  RepoObject_SysObject_modify_date : (datetime)
  RepoObject_SysObject_name : (nvarchar(128))
  RepoObject_SysObject_parent_object_id : (int)
  RepoObject_SysObject_schema_name : (nvarchar(128))
  RepoObject_SysObject_type : (char(2))
  RepoObject_type : (char(2))
  - SysObject_id : (int)
  - SysObject_name : (sysname)
  SysObject_RepoObject_guid : (uniqueidentifier)
  SysObject_schema_name : (sysname)
  SysObject_type : (char(2))
  SysObject_type_desc : (nvarchar(60))
  temporal_type : (tinyint)
  --
}

entity "puml-link:dhw:sqldb:repo.usp_sync_guid.adoc[]" as repo.usp_sync_guid << P >> {
  --
}

entity "puml-link:dhw:sqldb:repo.usp_sync_guid_repoobject.adoc[]" as repo.usp_sync_guid_RepoObject << P >> {
  --
}

entity "puml-link:dhw:sqldb:repo_sys.sysobject.adoc[]" as repo_sys.SysObject << V >> {
  - create_date : (datetime)
  history_table_id : (int)
  - is_ms_shipped : (bit)
  - is_published : (bit)
  - is_schema_published : (bit)
  max_column_id_used : (int)
  - modify_date : (datetime)
  - parent_object_id : (int)
  principal_id : (int)
  - schema_id : (int)
  sql_modules_definition : (nvarchar(max))
  - SysObject_fullname : (nvarchar(517))
  - SysObject_fullname2 : (nvarchar(257))
  - SysObject_id : (int)
  - SysObject_name : (sysname)
  SysObject_RepoObject_guid : (uniqueidentifier)
  SysObject_schema_name : (sysname)
  temporal_type : (tinyint)
  temporal_type_desc : (nvarchar(60))
  type : (char(2))
  type_desc : (nvarchar(60))
  --
}

entity "puml-link:dhw:sqldb:repo_sys.usp_addorupdateextendedproperty.adoc[]" as repo_sys.usp_AddOrUpdateExtendedProperty << P >> {
  --
}

config.fs_get_parameter_value <.. repo.usp_sync_guid_RepoObject
configT.type_level1type_level2type <.. repo.usp_sync_guid_RepoObject
logs.usp_ExecutionLog_insert <.. repo.usp_sync_guid_RepoObject
reference.RepoObjectSource_virtual <.. repo.usp_sync_guid_RepoObject
repo.RepoObject <.. repo.usp_sync_guid_RepoObject
repo.RepoObject_persistence <.. repo.usp_sync_guid_RepoObject
repo.RepoObject_RequiredRepoObjectMerge <.. repo.usp_sync_guid_RepoObject
repo.SysObject_RepoObject_via_guid <.. repo.usp_sync_guid_RepoObject
repo.SysObject_RepoObject_via_name <.. repo.usp_sync_guid_RepoObject
repo.usp_sync_guid_RepoObject <.. repo.usp_sync_guid
repo_sys.SysObject <.. repo.usp_sync_guid_RepoObject
repo_sys.usp_AddOrUpdateExtendedProperty <.. repo.usp_sync_guid_RepoObject
footer The diagram is interactive and contains links.
@enduml

