@startuml
left to right direction
'top to bottom direction
hide circle
'avoide "." issues:
set namespaceSeparator none


skinparam class {
  BackgroundColor White
  BackgroundColor<<FN>> Yellow
  BackgroundColor<<FS>> Yellow
  BackgroundColor<<FT>> LightGray
  BackgroundColor<<IF>> Yellow
  BackgroundColor<<IS>> Yellow
  BackgroundColor<<P>> Aqua
  BackgroundColor<<PC>> Aqua
  BackgroundColor<<SN>> Yellow
  BackgroundColor<<SO>> SlateBlue
  BackgroundColor<<TF>> LightGray
  BackgroundColor<<TR>> Tomato
  BackgroundColor<<U>> White
  BackgroundColor<<V>> WhiteSmoke
  BackgroundColor<<X>> Aqua
  BackgroundColor<<external>> AliceBlue
}


entity "puml-link:dhw:sqldb:repo.sysschema_reposchema_via_guid.adoc[]" as repo.SysSchema_RepoSchema_via_guid << V >> {
  --
  is_RepoSchema_name_uniqueidentifier : (int)
  is_SysSchema_name_uniqueidentifier : (int)
  RepoSchema_guid : (uniqueidentifier)
  RepoSchema_is_SysSchema_missing : (bit)
  RepoSchema_name : (nvarchar(128))
  RepoSchema_SysSchema_id : (int)
  RepoSchema_SysSchema_name : (nvarchar(128))
  - SysSchema_id : (int)
  - SysSchema_name : (sysname)
  SysSchema_RepoSchema_guid : (uniqueidentifier)
  --
  --
}

entity "puml-link:dhw:sqldb:repo.sysschema_reposchema_via_name.adoc[]" as repo.SysSchema_RepoSchema_via_name << V >> {
  --
  is_RepoSchema_name_uniqueidentifier : (int)
  is_SysSchema_name_uniqueidentifier : (int)
  RepoSchema_guid : (uniqueidentifier)
  RepoSchema_is_SysSchema_missing : (bit)
  RepoSchema_name : (nvarchar(128))
  RepoSchema_SysSchema_id : (int)
  RepoSchema_SysSchema_name : (nvarchar(128))
  - SysSchema_id : (int)
  - SysSchema_name : (sysname)
  SysSchema_RepoSchema_guid : (uniqueidentifier)
  --
  --
}

entity "puml-link:dhw:sqldb:repo.usp_sync_guid_reposchema.adoc[]" as repo.usp_sync_guid_RepoSchema << P >> {
  --
  --
  --
}

entity "puml-link:dhw:sqldb:repo_sys.extendedproperties.adoc[]" as repo_sys.ExtendedProperties << V >> {
  --
  - class : (tinyint)
  class_desc : (nvarchar(60))
  entity_column_name : (nvarchar(128))
  entity_index_name : (nvarchar(128))
  entity_parameter_name : (nvarchar(128))
  level2type : (varchar(9))
  - major_id : (int)
  - minor_id : (int)
  minor_name : (nvarchar(128))
  parent_name : (sysname)
  parent_object_id : (int)
  parent_type : (char(2))
  property_basetype : (sql_variant)
  - property_name : (sysname)
  property_nvarchar : (nvarchar(4000))
  property_value : (sql_variant)
  SysObject_name : (nvarchar(128))
  SysObject_schema_name : (nvarchar(128))
  --
  --
}

entity "puml-link:dhw:sqldb:repo_sys.sysschema.adoc[]" as repo_sys.SysSchema << V >> {
  --
  - SysSchema_id : (int)
  - SysSchema_name : (sysname)
  SysSchema_principal_id : (int)
  SysSchema_RepoSchema_guid : (uniqueidentifier)
  --
  --
}

entity "puml-link:dhw:sqldb:sys_dwh.schemas.adoc[]" as sys_dwh.schemas << SN >> {
  --
  --
  --
}

repo_sys.ExtendedProperties <.. repo_sys.SysSchema
repo_sys.SysSchema <.. repo.SysSchema_RepoSchema_via_guid
repo_sys.SysSchema <.. repo.SysSchema_RepoSchema_via_name
repo_sys.SysSchema <.. repo.usp_sync_guid_RepoSchema
sys_dwh.schemas <.. repo_sys.SysSchema
"repo_sys.SysSchema::SysSchema_id" <-- "repo.SysSchema_RepoSchema_via_guid::SysSchema_id"
"repo_sys.SysSchema::SysSchema_id" <-- "repo.SysSchema_RepoSchema_via_name::SysSchema_id"
"repo_sys.SysSchema::SysSchema_name" <-- "repo.SysSchema_RepoSchema_via_guid::SysSchema_name"
"repo_sys.SysSchema::SysSchema_name" <-- "repo.SysSchema_RepoSchema_via_name::SysSchema_name"
"repo_sys.SysSchema::SysSchema_RepoSchema_guid" <-- "repo.SysSchema_RepoSchema_via_guid::SysSchema_RepoSchema_guid"
"repo_sys.SysSchema::SysSchema_RepoSchema_guid" <-- "repo.SysSchema_RepoSchema_via_name::SysSchema_RepoSchema_guid"
@enduml

