@startuml
left to right direction
'top to bottom direction
hide circle
'avoide "." issues:
set namespaceSeparator none


skinparam class {
  BackgroundColor White
  BackgroundColor<<FN>> Yellow
  BackgroundColor<<FS>> Yellow
  BackgroundColor<<FT>> LightGray
  BackgroundColor<<IF>> Yellow
  BackgroundColor<<IS>> Yellow
  BackgroundColor<<P>> Aqua
  BackgroundColor<<PC>> Aqua
  BackgroundColor<<SN>> Yellow
  BackgroundColor<<SO>> SlateBlue
  BackgroundColor<<TF>> LightGray
  BackgroundColor<<TR>> Tomato
  BackgroundColor<<U>> White
  BackgroundColor<<V>> WhiteSmoke
  BackgroundColor<<X>> Aqua
  BackgroundColor<<external>> AliceBlue
}


entity "puml-link:dhw:sqldb:logs.usp_executionlog_insert.adoc[]" as logs.usp_ExecutionLog_insert << P >> {
  --
  --
  --
}

entity "puml-link:dhw:sqldb:repo.index_columlist.adoc[]" as repo.Index_ColumList << V >> {
  --
  AntoraIndexColumnList : (nvarchar(max))
  ColumnList : (nvarchar(max))
  ConstraintColumnList : (nvarchar(max))
  DbmlIndexColumnList : (nvarchar(max))
  - index_guid : (uniqueidentifier)
  PersistenceWhereColumnList : (nvarchar(max))
  PumlIndexColumnList : (nvarchar(max))
  --
  --
}

entity "puml-link:dhw:sqldb:repo.index_columlist_t.adoc[]" as repo.Index_ColumList_T << U >> {
  - **index_guid** : (uniqueidentifier)
  --
  AntoraIndexColumnList : (nvarchar(max))
  ColumnList : (nvarchar(max))
  ConstraintColumnList : (nvarchar(max))
  DbmlIndexColumnList : (nvarchar(max))
  PersistenceWhereColumnList : (nvarchar(max))
  PumlIndexColumnList : (nvarchar(max))
  --
  --
}

entity "puml-link:dhw:sqldb:repo.usp_index_finish.adoc[]" as repo.usp_Index_finish << P >> {
  --
  --
  --
}

entity "puml-link:dhw:sqldb:repo.usp_persist_index_columlist_t.adoc[]" as repo.usp_PERSIST_Index_ColumList_T << P >> {
  --
  --
  --
}

logs.usp_ExecutionLog_insert <.. repo.usp_PERSIST_Index_ColumList_T
repo.Index_ColumList <.. repo.usp_PERSIST_Index_ColumList_T
repo.Index_ColumList_T <.. repo.usp_PERSIST_Index_ColumList_T
repo.usp_PERSIST_Index_ColumList_T <.. repo.usp_Index_finish

@enduml

