@startuml
left to right direction
'top to bottom direction
hide circle
'avoide "." issues:
set namespaceSeparator none


skinparam class {
  BackgroundColor White
  BackgroundColor<<FN>> Yellow
  BackgroundColor<<FS>> Yellow
  BackgroundColor<<FT>> LightGray
  BackgroundColor<<IF>> Yellow
  BackgroundColor<<IS>> Yellow
  BackgroundColor<<P>> Aqua
  BackgroundColor<<PC>> Aqua
  BackgroundColor<<SN>> Yellow
  BackgroundColor<<SO>> SlateBlue
  BackgroundColor<<TF>> LightGray
  BackgroundColor<<TR>> Tomato
  BackgroundColor<<U>> White
  BackgroundColor<<V>> WhiteSmoke
  BackgroundColor<<X>> Aqua
  BackgroundColor<<external>> AliceBlue
}


entity "puml-link:dhw:sqldb:config.fs_get_parameter_value.adoc[]" as config.fs_get_parameter_value << FN >> {
  --
}

entity "puml-link:dhw:sqldb:logs.usp_executionlog_insert.adoc[]" as logs.usp_ExecutionLog_insert << P >> {
  --
}

entity "puml-link:dhw:sqldb:repo.usp_main.adoc[]" as repo.usp_main << P >> {
  --
}

entity "puml-link:dhw:sqldb:repo.usp_repoobjectcolumn_update_repoobjectcolumn_column_id.adoc[]" as repo.usp_RepoObjectColumn_update_RepoObjectColumn_column_id << P >> {
  --
}

config.fs_get_parameter_value <.. repo.usp_RepoObjectColumn_update_RepoObjectColumn_column_id
logs.usp_ExecutionLog_insert <.. repo.usp_RepoObjectColumn_update_RepoObjectColumn_column_id
repo.usp_RepoObjectColumn_update_RepoObjectColumn_column_id <.. repo.usp_main
footer The diagram is interactive and contains links.
@enduml

