@startuml
left to right direction
'top to bottom direction
hide circle
'avoide "." issues:
set namespaceSeparator none


skinparam class {
  BackgroundColor White
  BackgroundColor<<FN>> Yellow
  BackgroundColor<<FS>> Yellow
  BackgroundColor<<FT>> LightGray
  BackgroundColor<<IF>> Yellow
  BackgroundColor<<IS>> Yellow
  BackgroundColor<<P>> Aqua
  BackgroundColor<<PC>> Aqua
  BackgroundColor<<SN>> Yellow
  BackgroundColor<<SO>> SlateBlue
  BackgroundColor<<TF>> LightGray
  BackgroundColor<<TR>> Tomato
  BackgroundColor<<U>> White
  BackgroundColor<<V>> WhiteSmoke
  BackgroundColor<<X>> Aqua
  BackgroundColor<<external>> AliceBlue
}


entity "puml-link:dhw:sqldb:repo.repoobject.adoc[]" as repo.RepoObject << U >> {
  - **RepoObject_guid** : (uniqueidentifier)
  external_AntoraComponent : (nvarchar(128))
  external_AntoraModule : (nvarchar(128))
  has_execution_plan_issue : (bit)
  has_get_referenced_issue : (bit)
  Inheritance_Source_fullname : (nvarchar(261))
  Inheritance_StringAggSeparatorSql : (nvarchar(4000))
  InheritanceDefinition : (nvarchar(4000))
  InheritanceType : (tinyint)
  - is_DocsExclude : (bit)
  - is_external : (bit)
  is_repo_managed : (bit)
  is_required_ObjectMerge : (bit)
  - is_ssas : (bit)
  is_SysObject_missing : (bit)
  - modify_dt : (datetime)
  pk_index_guid : (uniqueidentifier)
  pk_IndexPatternColumnName_new : (nvarchar(4000))
  Repo_history_table_guid : (uniqueidentifier)
  Repo_temporal_type : (tinyint)
  - RepoObject_name : (nvarchar(128))
  RepoObject_Referencing_Count : (int)
  - RepoObject_schema_name : (nvarchar(128))
  - RepoObject_type : (char(2))
  SysObject_id : (int)
  SysObject_modify_date : (datetime)
  - SysObject_name : (nvarchar(128))
  - SysObject_parent_object_id : (int)
  - SysObject_schema_name : (nvarchar(128))
  SysObject_type : (char(2))
  ~ has_different_sys_names : (bit)
  # is_RepoObject_name_uniqueidentifier : (int)
  # is_SysObject_name_uniqueidentifier : (int)
  ~ node_id : (bigint)
  # RepoObject_fullname : (nvarchar(261))
  # RepoObject_fullname2 : (nvarchar(257))
  # SysObject_fullname : (nvarchar(261))
  # SysObject_fullname2 : (nvarchar(257))
  ~ SysObject_query_sql : (nvarchar(406))
  # usp_persistence_fullname2 : (nvarchar(269))
  # usp_persistence_name : (nvarchar(140))
  --
}

entity "puml-link:dhw:sqldb:repo.repoobject_requiredrepoobjectmerge.adoc[]" as repo.RepoObject_RequiredRepoObjectMerge << V >> {
  - RepoObject_fullname : (nvarchar(261))
  - RepoObject_guid : (uniqueidentifier)
  - RepoObject_name : (nvarchar(128))
  - RepoObject_schema_name : (nvarchar(128))
  - ro2_RepoObject_fullname : (nvarchar(261))
  - ro2_RepoObject_guid : (uniqueidentifier)
  - ro2_RepoObject_name : (nvarchar(128))
  - ro2_RepoObject_schema_name : (nvarchar(128))
  - ro2_SysObject_fullname : (nvarchar(261))
  - ro2_SysObject_name : (nvarchar(128))
  - SysObject_fullname : (nvarchar(261))
  - SysObject_name : (nvarchar(128))
  - SysObject_schema_name : (nvarchar(128))
  --
}

entity "puml-link:dhw:sqldb:repo.usp_sync_guid_repoobject.adoc[]" as repo.usp_sync_guid_RepoObject << P >> {
  --
}

repo.RepoObject <.. repo.RepoObject_RequiredRepoObjectMerge
repo.RepoObject_RequiredRepoObjectMerge <.. repo.usp_sync_guid_RepoObject
"repo.RepoObject::RepoObject_fullname" <-- "repo.RepoObject_RequiredRepoObjectMerge::ro2_RepoObject_fullname"
"repo.RepoObject::RepoObject_fullname" <-- "repo.RepoObject_RequiredRepoObjectMerge::RepoObject_fullname"
"repo.RepoObject::RepoObject_guid" <-- "repo.RepoObject_RequiredRepoObjectMerge::RepoObject_guid"
"repo.RepoObject::RepoObject_guid" <-- "repo.RepoObject_RequiredRepoObjectMerge::ro2_RepoObject_guid"
"repo.RepoObject::RepoObject_name" <-- "repo.RepoObject_RequiredRepoObjectMerge::RepoObject_name"
"repo.RepoObject::RepoObject_name" <-- "repo.RepoObject_RequiredRepoObjectMerge::ro2_RepoObject_name"
"repo.RepoObject::RepoObject_schema_name" <-- "repo.RepoObject_RequiredRepoObjectMerge::ro2_RepoObject_schema_name"
"repo.RepoObject::RepoObject_schema_name" <-- "repo.RepoObject_RequiredRepoObjectMerge::RepoObject_schema_name"
"repo.RepoObject::SysObject_fullname" <-- "repo.RepoObject_RequiredRepoObjectMerge::ro2_SysObject_fullname"
"repo.RepoObject::SysObject_fullname" <-- "repo.RepoObject_RequiredRepoObjectMerge::SysObject_fullname"
"repo.RepoObject::SysObject_name" <-- "repo.RepoObject_RequiredRepoObjectMerge::SysObject_name"
"repo.RepoObject::SysObject_name" <-- "repo.RepoObject_RequiredRepoObjectMerge::ro2_SysObject_name"
"repo.RepoObject::SysObject_schema_name" <-- "repo.RepoObject_RequiredRepoObjectMerge::SysObject_schema_name"footer The diagram is interactive and contains links.
@enduml

