@startuml
left to right direction
'top to bottom direction
hide circle
'avoide "." issues:
set namespaceSeparator none


skinparam class {
  BackgroundColor White
  BackgroundColor<<FN>> Yellow
  BackgroundColor<<FS>> Yellow
  BackgroundColor<<FT>> LightGray
  BackgroundColor<<IF>> Yellow
  BackgroundColor<<IS>> Yellow
  BackgroundColor<<P>> Aqua
  BackgroundColor<<PC>> Aqua
  BackgroundColor<<SN>> Yellow
  BackgroundColor<<SO>> SlateBlue
  BackgroundColor<<TF>> LightGray
  BackgroundColor<<TR>> Tomato
  BackgroundColor<<U>> White
  BackgroundColor<<V>> WhiteSmoke
  BackgroundColor<<X>> Aqua
  BackgroundColor<<external>> AliceBlue
}


entity "puml-link:dhw:sqldb:repo.foreignkey_indexpattern.adoc[]" as repo.ForeignKey_IndexPattern << V >> {
  - **constraint_object_id** : (int)
  **ForeignKey_guid** : (uniqueidentifier)
  --
  delete_referential_action : (tinyint)
  ForeignKey_fullname : (nvarchar(261))
  ForeignKey_name : (sysname)
  referenced_IndexPatternColumnName : (nvarchar(4000))
  referenced_RepoObject_guid : (uniqueidentifier)
  referencing_IndexPatternColumnName : (nvarchar(4000))
  referencing_RepoObject_guid : (uniqueidentifier)
  update_referential_action : (tinyint)
  --
  --
}

entity "puml-link:dhw:sqldb:repo_sys.foreignkey.adoc[]" as repo_sys.ForeignKey << V >> {
  --
  - create_date : (datetime)
  delete_referential_action : (tinyint)
  delete_referential_action_desc : (nvarchar(60))
  ForeignKey_fullname : (nvarchar(261))
  ForeignKey_guid : (uniqueidentifier)
  - is_disabled : (bit)
  - is_ms_shipped : (bit)
  - is_not_for_replication : (bit)
  - is_not_trusted : (bit)
  - is_published : (bit)
  - is_schema_published : (bit)
  - is_system_named : (bit)
  key_index_id : (int)
  - modify_date : (datetime)
  - name : (sysname)
  - object_id : (int)
  - parent_object_id : (int)
  parent_RepoObject_fullname : (nvarchar(261))
  parent_RepoObject_guid : (uniqueidentifier)
  parent_SysObject_fullname : (nvarchar(261))
  principal_id : (int)
  referenced_object_id : (int)
  - schema_id : (int)
  type : (char(2))
  type_desc : (nvarchar(60))
  update_referential_action : (tinyint)
  update_referential_action_desc : (nvarchar(60))
  --
  --
}

entity "puml-link:dhw:sqldb:repo_sys.foreignkeycolumn.adoc[]" as repo_sys.ForeignKeyColumn << V >> {
  --
  - constraint_column_id : (int)
  - constraint_object_id : (int)
  ForeignKey_fullname : (nvarchar(261))
  ForeignKey_guid : (uniqueidentifier)
  ForeignKey_name : (sysname)
  - parent_column_id : (int)
  - parent_object_id : (int)
  - referenced_column_id : (int)
  referenced_column_name : (sysname)
  referenced_name : (nvarchar(128))
  - referenced_object_id : (int)
  referenced_RepoObject_guid : (uniqueidentifier)
  referenced_RepoObjectColumn_guid : (uniqueidentifier)
  referenced_schema_name : (nvarchar(128))
  referencing_column_name : (sysname)
  referencing_name : (nvarchar(128))
  referencing_RepoObject_fullname : (nvarchar(261))
  referencing_RepoObject_guid : (uniqueidentifier)
  referencing_RepoObjectColumn_guid : (uniqueidentifier)
  referencing_schema_name : (nvarchar(128))
  referencing_SysObject_fullname : (nvarchar(261))
  --
  --
}

entity "puml-link:dhw:sqldb:repo_sys.syscolumn.adoc[]" as repo_sys.SysColumn << V >> {
  --
  collation_name : (sysname)
  column_encryption_key_database_name : (sysname)
  column_encryption_key_id : (int)
  default_definition : (nvarchar(max))
  default_is_system_named : (bit)
  default_name : (sysname)
  - default_object_id : (int)
  default_parent_column_id : (int)
  definition : (nvarchar(max))
  encryption_algorithm_name : (sysname)
  encryption_type : (int)
  encryption_type_desc : (nvarchar(64))
  generated_always_type : (tinyint)
  generated_always_type_desc : (nvarchar(60))
  graph_type : (int)
  graph_type_desc : (nvarchar(60))
  increment_value : (sql_variant)
  - is_ansi_padded : (bit)
  is_column_set : (bit)
  - is_computed : (bit)
  is_dts_replicated : (bit)
  - is_filestream : (bit)
  is_hidden : (bit)
  - is_identity : (bit)
  - is_masked : (bit)
  is_merge_published : (bit)
  is_non_sql_subscribed : (bit)
  is_nullable : (bit)
  is_persisted : (bit)
  is_replicated : (bit)
  - is_rowguidcol : (bit)
  is_sparse : (bit)
  - is_xml_document : (bit)
  last_value : (sql_variant)
  - max_length : (smallint)
  - precision : (tinyint)
  - rule_object_id : (int)
  - scale : (tinyint)
  seed_value : (sql_variant)
  - SysObject_column_id : (int)
  SysObject_column_name : (sysname)
  SysObject_fullname : (nvarchar(517))
  SysObject_fullname2 : (nvarchar(257))
  - SysObject_id : (int)
  SysObject_name : (nvarchar(128))
  SysObject_RepoObject_guid : (uniqueidentifier)
  SysObject_RepoObjectColumn_guid : (uniqueidentifier)
  SysObject_schema_name : (nvarchar(128))
  SysObject_type : (char(2))
  SysObject_type_desc : (nvarchar(60))
  - system_type_id : (tinyint)
  user_type_fullname : (nvarchar(182))
  - user_type_id : (int)
  user_type_name : (sysname)
  uses_database_collation : (bit)
  - xml_collection_id : (int)
  --
  --
}

entity "puml-link:dhw:sqldb:sys_dwh.foreign_key_columns.adoc[]" as sys_dwh.foreign_key_columns << SN >> {
  --
  --
  --
}

repo_sys.ForeignKey <.. repo_sys.ForeignKeyColumn
repo_sys.ForeignKeyColumn <.. repo.ForeignKey_IndexPattern
repo_sys.SysColumn <.. repo_sys.ForeignKeyColumn
sys_dwh.foreign_key_columns <.. repo_sys.ForeignKeyColumn
"repo_sys.ForeignKey::ForeignKey_fullname" <-- "repo_sys.ForeignKeyColumn::ForeignKey_fullname"
"repo_sys.ForeignKey::ForeignKey_guid" <-- "repo_sys.ForeignKeyColumn::ForeignKey_guid"
"repo_sys.ForeignKey::name" <-- "repo_sys.ForeignKeyColumn::ForeignKey_name"
"repo_sys.ForeignKey::parent_RepoObject_fullname" <-- "repo_sys.ForeignKeyColumn::referencing_RepoObject_fullname"
"repo_sys.ForeignKey::parent_SysObject_fullname" <-- "repo_sys.ForeignKeyColumn::referencing_SysObject_fullname"
"repo_sys.ForeignKeyColumn::ForeignKey_name" <-- "repo.ForeignKey_IndexPattern::ForeignKey_name"
"repo_sys.SysColumn::SysObject_column_name" <-- "repo_sys.ForeignKeyColumn::referencing_column_name"
"repo_sys.SysColumn::SysObject_column_name" <-- "repo_sys.ForeignKeyColumn::referenced_column_name"
"repo_sys.SysColumn::SysObject_name" <-- "repo_sys.ForeignKeyColumn::referencing_name"
"repo_sys.SysColumn::SysObject_name" <-- "repo_sys.ForeignKeyColumn::referenced_name"
"repo_sys.SysColumn::SysObject_RepoObject_guid" <-- "repo_sys.ForeignKeyColumn::referencing_RepoObject_guid"
"repo_sys.SysColumn::SysObject_RepoObject_guid" <-- "repo_sys.ForeignKeyColumn::referenced_RepoObject_guid"
"repo_sys.SysColumn::SysObject_RepoObjectColumn_guid" <-- "repo_sys.ForeignKeyColumn::referencing_RepoObjectColumn_guid"
"repo_sys.SysColumn::SysObject_RepoObjectColumn_guid" <-- "repo_sys.ForeignKeyColumn::referenced_RepoObjectColumn_guid"
"repo_sys.SysColumn::SysObject_schema_name" <-- "repo_sys.ForeignKeyColumn::referencing_schema_name"
"repo_sys.SysColumn::SysObject_schema_name" <-- "repo_sys.ForeignKeyColumn::referenced_schema_name"
@enduml

