@startuml
left to right direction
'top to bottom direction
hide circle
'avoide "." issues:
set namespaceSeparator none


skinparam class {
  BackgroundColor White
  BackgroundColor<<FN>> Yellow
  BackgroundColor<<FS>> Yellow
  BackgroundColor<<FT>> LightGray
  BackgroundColor<<IF>> Yellow
  BackgroundColor<<IS>> Yellow
  BackgroundColor<<P>> Aqua
  BackgroundColor<<PC>> Aqua
  BackgroundColor<<SN>> Yellow
  BackgroundColor<<SO>> SlateBlue
  BackgroundColor<<TF>> LightGray
  BackgroundColor<<TR>> Tomato
  BackgroundColor<<U>> White
  BackgroundColor<<V>> WhiteSmoke
  BackgroundColor<<X>> Aqua
  BackgroundColor<<external>> AliceBlue
}


entity "puml-link:dhw:sqldb:docs.repoobject_measurelist.adoc[]" as docs.RepoObject_MeasureList << V >> {
  **RepoObject_guid** : (uniqueidentifier)
  **cultures_name** : (nvarchar(10))
  AntoraMeasureDetails : (nvarchar(max))
  is_external : (tinyint)
  PlantumlMeasures : (nvarchar(max))
  --
}

entity "puml-link:dhw:sqldb:repo.measures.adoc[]" as repo.Measures << V >> {
  Description : (nvarchar(max))
  Expression : (nvarchar(max))
  is_ssas : (bit)
  - Measure_guid : (uniqueidentifier)
  measures_description : (nvarchar(max))
  measures_description_ja : (nvarchar(max))
  measures_displayFolder : (nvarchar(500))
  measures_expression : (nvarchar(max))
  measures_expression_ja : (nvarchar(max))
  measures_formatString : (nvarchar(500))
  measures_fullname : (nvarchar(517))
  - measures_fullname2 : (nvarchar(638))
  measures_isHidden : (bit)
  - measures_name : (nvarchar(500))
  MeasuresRepoObjekt_guid : (uniqueidentifier)
  MeasuresRepoObjekt_name : (varchar(9))
  - RepoObject_fullname2 : (nvarchar(257))
  - RepoObject_guid : (uniqueidentifier)
  - RepoObject_name : (nvarchar(128))
  - RepoSchema_name : (nvarchar(128))
  --
}

entity "puml-link:dhw:sqldb:repo.measures_union.adoc[]" as repo.Measures_union << V >> {
  Description : (nvarchar(max))
  Expression : (nvarchar(max))
  is_ssas : (bit)
  - Measure_guid : (uniqueidentifier)
  measures_description : (nvarchar(max))
  measures_description_ja : (nvarchar(max))
  measures_displayFolder : (nvarchar(500))
  measures_expression : (nvarchar(max))
  measures_expression_ja : (nvarchar(max))
  measures_formatString : (nvarchar(500))
  measures_fullname : (nvarchar(517))
  - measures_fullname2 : (nvarchar(638))
  measures_isHidden : (bit)
  - measures_name : (nvarchar(500))
  - RepoObject_fullname2 : (nvarchar(257))
  RepoObject_guid : (uniqueidentifier)
  RepoObject_name : (nvarchar(128))
  - RepoSchema_name : (nvarchar(128))
  --
}

entity "puml-link:dhw:sqldb:ssas.measures_translation.adoc[]" as ssas.Measures_translation << V >> {
  - **Measure_guid** : (uniqueidentifier)
  - **cultures_name** : (nvarchar(10))
  **RepoObject_name** : (nvarchar(128))
  displayfolder_DisplayName : (nvarchar(512))
  displayfolder_translation : (nvarchar(512))
  Measure_DisplayName : (nvarchar(500))
  Measure_translation : (nvarchar(128))
  measures_displayFolder : (nvarchar(500))
  - measures_name : (nvarchar(500))
  - RepoSchema_name : (nvarchar(128))
  --
}

repo.Measures <.. repo.Measures_union
repo.Measures_union <.. docs.RepoObject_MeasureList
repo.Measures_union <.. ssas.Measures_translation
"repo.Measures_union::Measure_guid" <-- "ssas.Measures_translation::Measure_guid"
"repo.Measures_union::measures_displayFolder" <-- "ssas.Measures_translation::measures_displayFolder"
"repo.Measures_union::measures_name" <-- "ssas.Measures_translation::measures_name"
"repo.Measures_union::RepoObject_guid" <-- "docs.RepoObject_MeasureList::RepoObject_guid"
"repo.Measures_union::RepoObject_name" <-- "ssas.Measures_translation::RepoObject_name"
"repo.Measures_union::RepoSchema_name" <-- "ssas.Measures_translation::RepoSchema_name"footer The diagram is interactive and contains links.
@enduml

