@startuml
left to right direction
'top to bottom direction
hide circle
'avoide "." issues:
set namespaceSeparator none


skinparam class {
  BackgroundColor White
  BackgroundColor<<FN>> Yellow
  BackgroundColor<<FS>> Yellow
  BackgroundColor<<FT>> LightGray
  BackgroundColor<<IF>> Yellow
  BackgroundColor<<IS>> Yellow
  BackgroundColor<<P>> Aqua
  BackgroundColor<<PC>> Aqua
  BackgroundColor<<SN>> Yellow
  BackgroundColor<<SO>> SlateBlue
  BackgroundColor<<TF>> LightGray
  BackgroundColor<<TR>> Tomato
  BackgroundColor<<U>> White
  BackgroundColor<<V>> WhiteSmoke
  BackgroundColor<<X>> Aqua
  BackgroundColor<<external>> AliceBlue
}


entity "puml-link:dhw:sqldb:repo.foreignkey_indexes.adoc[]" as repo.ForeignKey_Indexes << V >> {
  --
  delete_referential_action : (tinyint)
  ForeignKey_fullname : (nvarchar(261))
  ForeignKey_guid : (uniqueidentifier)
  ForeignKey_name : (sysname)
  - is_MatchingDatatypePattern : (int)
  referenced_index_guid : (uniqueidentifier)
  referenced_index_name : (nvarchar(450))
  referenced_IndexPatternColumnDatatype : (nvarchar(4000))
  referenced_IndexPatternColumnName : (nvarchar(4000))
  referenced_RepoObject_fullname : (nvarchar(261))
  referenced_RepoObject_fullname2 : (nvarchar(257))
  referenced_RepoObject_guid : (uniqueidentifier)
  referenced_SysObject_name : (nvarchar(128))
  referenced_SysObject_schema_name : (nvarchar(128))
  referencing_index_guid : (uniqueidentifier)
  referencing_index_name : (nvarchar(450))
  referencing_IndexPatternColumnDatatype : (nvarchar(4000))
  referencing_IndexPatternColumnName : (nvarchar(4000))
  referencing_RepoObject_fullname : (nvarchar(261))
  referencing_RepoObject_fullname2 : (nvarchar(257))
  referencing_RepoObject_guid : (uniqueidentifier)
  referencing_SysObject_name : (nvarchar(128))
  referencing_SysObject_schema_name : (nvarchar(128))
  update_referential_action : (tinyint)
  --
  --
}

entity "puml-link:dhw:sqldb:repo.foreignkey_indexpattern.adoc[]" as repo.ForeignKey_IndexPattern << V >> {
  - **constraint_object_id** : (int)
  **ForeignKey_guid** : (uniqueidentifier)
  --
  delete_referential_action : (tinyint)
  ForeignKey_fullname : (nvarchar(261))
  ForeignKey_name : (sysname)
  referenced_IndexPatternColumnName : (nvarchar(4000))
  referenced_RepoObject_guid : (uniqueidentifier)
  referencing_IndexPatternColumnName : (nvarchar(4000))
  referencing_RepoObject_guid : (uniqueidentifier)
  update_referential_action : (tinyint)
  --
  --
}

entity "puml-link:dhw:sqldb:repo_sys.foreignkey.adoc[]" as repo_sys.ForeignKey << V >> {
  --
  - create_date : (datetime)
  delete_referential_action : (tinyint)
  delete_referential_action_desc : (nvarchar(60))
  ForeignKey_fullname : (nvarchar(261))
  ForeignKey_guid : (uniqueidentifier)
  - is_disabled : (bit)
  - is_ms_shipped : (bit)
  - is_not_for_replication : (bit)
  - is_not_trusted : (bit)
  - is_published : (bit)
  - is_schema_published : (bit)
  - is_system_named : (bit)
  key_index_id : (int)
  - modify_date : (datetime)
  - name : (sysname)
  - object_id : (int)
  - parent_object_id : (int)
  parent_RepoObject_fullname : (nvarchar(261))
  parent_RepoObject_guid : (uniqueidentifier)
  parent_SysObject_fullname : (nvarchar(261))
  principal_id : (int)
  referenced_object_id : (int)
  - schema_id : (int)
  type : (char(2))
  type_desc : (nvarchar(60))
  update_referential_action : (tinyint)
  update_referential_action_desc : (nvarchar(60))
  --
  --
}

entity "puml-link:dhw:sqldb:repo_sys.foreignkeycolumn.adoc[]" as repo_sys.ForeignKeyColumn << V >> {
  --
  - constraint_column_id : (int)
  - constraint_object_id : (int)
  ForeignKey_fullname : (nvarchar(261))
  ForeignKey_guid : (uniqueidentifier)
  ForeignKey_name : (sysname)
  - parent_column_id : (int)
  - parent_object_id : (int)
  - referenced_column_id : (int)
  referenced_column_name : (sysname)
  referenced_name : (nvarchar(128))
  - referenced_object_id : (int)
  referenced_RepoObject_guid : (uniqueidentifier)
  referenced_RepoObjectColumn_guid : (uniqueidentifier)
  referenced_schema_name : (nvarchar(128))
  referencing_column_name : (sysname)
  referencing_name : (nvarchar(128))
  referencing_RepoObject_fullname : (nvarchar(261))
  referencing_RepoObject_guid : (uniqueidentifier)
  referencing_RepoObjectColumn_guid : (uniqueidentifier)
  referencing_schema_name : (nvarchar(128))
  referencing_SysObject_fullname : (nvarchar(261))
  --
  --
}

repo.ForeignKey_IndexPattern <.. repo.ForeignKey_Indexes
repo_sys.ForeignKey <.. repo.ForeignKey_IndexPattern
repo_sys.ForeignKeyColumn <.. repo.ForeignKey_IndexPattern
"repo.ForeignKey_IndexPattern::delete_referential_action" <-- "repo.ForeignKey_Indexes::delete_referential_action"
"repo.ForeignKey_IndexPattern::ForeignKey_fullname" <-- "repo.ForeignKey_Indexes::ForeignKey_fullname"
"repo.ForeignKey_IndexPattern::ForeignKey_guid" <-- "repo.ForeignKey_Indexes::ForeignKey_guid"
"repo.ForeignKey_IndexPattern::ForeignKey_name" <-- "repo.ForeignKey_Indexes::ForeignKey_name"
"repo.ForeignKey_IndexPattern::referenced_IndexPatternColumnName" <-- "repo.ForeignKey_Indexes::referenced_IndexPatternColumnName"
"repo.ForeignKey_IndexPattern::referenced_RepoObject_guid" <-- "repo.ForeignKey_Indexes::referenced_RepoObject_guid"
"repo.ForeignKey_IndexPattern::referencing_IndexPatternColumnName" <-- "repo.ForeignKey_Indexes::referencing_IndexPatternColumnName"
"repo.ForeignKey_IndexPattern::referencing_RepoObject_guid" <-- "repo.ForeignKey_Indexes::referencing_RepoObject_guid"
"repo.ForeignKey_IndexPattern::update_referential_action" <-- "repo.ForeignKey_Indexes::update_referential_action"
"repo_sys.ForeignKey::delete_referential_action" <-- "repo.ForeignKey_IndexPattern::delete_referential_action"
"repo_sys.ForeignKey::ForeignKey_guid" <-- "repo.ForeignKey_IndexPattern::ForeignKey_guid"
"repo_sys.ForeignKey::object_id" <-- "repo.ForeignKey_IndexPattern::constraint_object_id"
"repo_sys.ForeignKeyColumn::ForeignKey_name" <-- "repo.ForeignKey_IndexPattern::ForeignKey_name"
@enduml

