@startuml
left to right direction
'top to bottom direction
hide circle
'avoide "." issues:
set namespaceSeparator none


skinparam class {
  BackgroundColor White
  BackgroundColor<<FN>> Yellow
  BackgroundColor<<FS>> Yellow
  BackgroundColor<<FT>> LightGray
  BackgroundColor<<IF>> Yellow
  BackgroundColor<<IS>> Yellow
  BackgroundColor<<P>> Aqua
  BackgroundColor<<PC>> Aqua
  BackgroundColor<<SN>> Yellow
  BackgroundColor<<SO>> SlateBlue
  BackgroundColor<<TF>> LightGray
  BackgroundColor<<TR>> Tomato
  BackgroundColor<<U>> White
  BackgroundColor<<V>> WhiteSmoke
  BackgroundColor<<X>> Aqua
  BackgroundColor<<external>> AliceBlue
}


entity "puml-link:dhw:sqldb:config.ftv_get_parameter_value.adoc[]" as config.ftv_get_parameter_value << IF >> {
  --
  Parameter_value_result : (nvarchar(max))
  Parameter_value_result_date : (date)
  Parameter_value_result_datetime : (datetime)
  Parameter_value_result_int : (int)
  --
  --
}

entity "puml-link:dhw:sqldb:configt.type.adoc[]" as configT.type << V >> {
  **type** : (nvarchar(128))
  --
  - is_DocsOutput : (int)
  type_desc : (nvarchar(128))
  --
  --
}

entity "puml-link:dhw:sqldb:docs.fs_cleanstringforfilename.adoc[]" as docs.fs_cleanStringForFilename << FN >> {
  --
  --
  --
}

entity "puml-link:dhw:sqldb:docs.repoobject_adoc.adoc[]" as docs.RepoObject_Adoc << V >> {
  --
  - AdocContent : (nvarchar(max))
  - cultures_name : (nvarchar(10))
  is_DocsOutput : (int)
  PropertyCount : (int)
  RepoObject_DisplayName : (nvarchar(128))
  RepoObject_FullDisplayName2 : (nvarchar(257))
  RepoObject_fullname : (nvarchar(261))
  RepoObject_fullname2 : (nvarchar(257))
  - RepoObject_guid : (uniqueidentifier)
  RepoObject_schema_name : (nvarchar(128))
  RepoObject_translation : (nvarchar(128))
  SysObject_fullname : (nvarchar(261))
  SysObject_fullname2 : (nvarchar(257))
  SysObject_schema_name : (nvarchar(128))
  SysObject_type : (char(2))
  SysObject_type_name : (nvarchar(128))
  --
  --
}

entity "puml-link:dhw:sqldb:docs.repoobject_outputfilter.adoc[]" as docs.RepoObject_OutputFilter << V >> {
  - **RepoObject_guid** : (uniqueidentifier)
  - **cultures_name** : (nvarchar(10))
  --
  AntoraComponent : (nvarchar(max))
  AntoraModule : (nvarchar(max))
  external_AntoraComponent : (nvarchar(128))
  external_AntoraModule : (nvarchar(128))
  external_DatabaseName : (nvarchar(128))
  is_DocsOutput : (int)
  - is_external : (bit)
  - is_ssas : (bit)
  - PumlEntityTopDefault : (nvarchar(max))
  - PumlEntityTopWorkaround : (nvarchar(max))
  RepoObject_DisplayName : (nvarchar(128))
  RepoObject_FullDisplayName2 : (nvarchar(257))
  - RepoObject_fullname : (nvarchar(261))
  - RepoObject_fullname2 : (nvarchar(257))
  - RepoObject_name : (nvarchar(128))
  - RepoObject_schema_name : (nvarchar(128))
  RepoObject_translation : (nvarchar(128))
  SysObject_type : (char(2))
  SysObject_type_name : (nvarchar(128))
  tables_isHidden : (bit)
  --
  --
}

entity "puml-link:dhw:sqldb:docs.repoobject_plantuml.adoc[]" as docs.RepoObject_Plantuml << V >> {
  - **RepoObject_guid** : (uniqueidentifier)
  **cultures_name** : (nvarchar(10))
  --
  ColRefList : (nvarchar(max))
  ObjectRefList : (nvarchar(max))
  ObjectRefList_0_30 : (nvarchar(max))
  ObjectRefList_30_0 : (nvarchar(max))
  - PlantumlEntity_0_30_ObjectRef : (nvarchar(max))
  - PlantumlEntity_1_1_ColRef : (nvarchar(max))
  - PlantumlEntity_1_1_FkRef : (nvarchar(max))
  - PlantumlEntity_1_1_ObjectRef : (nvarchar(max))
  - PlantumlEntity_30_0_ObjectRef : (nvarchar(max))
  PumlEntityList : (nvarchar(max))
  PumlEntityList_0_30 : (nvarchar(max))
  PumlEntityList_30_0 : (nvarchar(max))
  - RepoObject_fullname2 : (nvarchar(257))
  --
  --
}

entity "puml-link:dhw:sqldb:docs.unit_1_union.adoc[]" as docs.Unit_1_union << V >> {
  --
  Object_fullname2 : (nvarchar(257))
  Object_Type : (varchar(2))
  Unit_ColummName : (nvarchar(128))
  Unit_Description : (nvarchar(max))
  Unit_DisplayFolder : (nvarchar(500))
  Unit_Expression : (nvarchar(max))
  Unit_FormatString : (nvarchar(500))
  - Unit_fullname2 : (nvarchar(638))
  - Unit_guid : (uniqueidentifier)
  Unit_isHidden : (bit)
  Unit_IsKey : (bit)
  Unit_IsSsas : (bit)
  Unit_IsUnique : (bit)
  - Unit_Metatype : (varchar(7))
  - Unit_Name : (nvarchar(500))
  Unit_ObjectName : (nvarchar(128))
  - Unit_Schema : (nvarchar(128))
  Unit_SummarizeBy : (nvarchar(500))
  Unit_TypeName : (nvarchar(128))
  --
  --
}

entity "puml-link:dhw:sqldb:property.fs_get_repoobjectproperty_nvarchar.adoc[]" as property.fs_get_RepoObjectProperty_nvarchar << FN >> {
  --
  --
  --
}

entity "puml-link:dhw:sqldb:property.repoobjectproperty_collect_source_rogross.adoc[]" as property.RepoObjectProperty_Collect_source_ROGross << V >> {
  - **RepoObject_guid** : (uniqueidentifier)
  - **property_name** : (varchar(39))
  --
  property_value : (nvarchar(max))
  --
  --
}

entity "puml-link:dhw:sqldb:reference.additional_reference_database_t.adoc[]" as reference.additional_Reference_database_T << U >> {
  - **AntoraComponent** : (nvarchar(128))
  - **AntoraModule** : (nvarchar(128))
  --
  DatabaseName : (nvarchar(128))
  RepoDatabaseName : (nvarchar(128))
  --
  --
}

entity "puml-link:dhw:sqldb:reference.persistence.adoc[]" as reference.Persistence << V >> {
  --
  referenced_fullname : (nvarchar(261))
  referenced_RepoObject_guid : (uniqueidentifier)
  referenced_schema_name : (nvarchar(128))
  referenced_usp_persistence_name : (nvarchar(140))
  referenced_usp_persistence_RepoObject_guid : (uniqueidentifier)
  referencing_fullname : (nvarchar(261))
  referencing_RepoObject_guid : (uniqueidentifier)
  referencing_schema_name : (nvarchar(128))
  referencing_usp_persistence_name : (nvarchar(140))
  referencing_usp_persistence_RepoObject_guid : (uniqueidentifier)
  --
  --
}

entity "puml-link:dhw:sqldb:reference.repoobject_queryplan.adoc[]" as reference.RepoObject_QueryPlan << U >> {
  - **RepoObject_guid** : (uniqueidentifier)
  --
  SysObject_query_executed_dt : (datetime)
  SysObject_query_plan : (xml)
  --
  --
}

entity "puml-link:dhw:sqldb:reference.repoobject_reference_persistence_target_as_source.adoc[]" as reference.RepoObject_reference_persistence_target_as_source << V >> {
  --
  - InformationSource : (varchar(28))
  referenced_entity_name : (nvarchar(128))
  referenced_fullname : (nvarchar(517))
  - referenced_id : (int)
  referenced_RepoObject_guid : (uniqueidentifier)
  referenced_schema_name : (nvarchar(128))
  referenced_type : (char(2))
  referencing_entity_name : (nvarchar(128))
  referencing_fullname : (nvarchar(517))
  referencing_id : (int)
  referencing_RepoObject_guid : (uniqueidentifier)
  referencing_schema_name : (nvarchar(128))
  referencing_type : (char(2))
  --
  --
}

entity "puml-link:dhw:sqldb:reference.repoobject_referencedreferencing.adoc[]" as reference.RepoObject_ReferencedReferencing << V >> {
  --
  - referenced_AntoraXref : (nvarchar(max))
  referenced_external_AntoraComponent : (nvarchar(128))
  referenced_external_AntoraModule : (nvarchar(128))
  - Referenced_fullname : (nvarchar(261))
  - Referenced_fullname2 : (nvarchar(257))
  - Referenced_guid : (uniqueidentifier)
  referenced_is_DocsOutput : (int)
  - referenced_is_external : (bit)
  Referenced_type : (char(2))
  - referencing_AntoraXref : (nvarchar(max))
  referencing_external_AntoraComponent : (nvarchar(128))
  referencing_external_AntoraModule : (nvarchar(128))
  - Referencing_fullname : (nvarchar(261))
  - Referencing_fullname2 : (nvarchar(257))
  - Referencing_guid : (uniqueidentifier)
  referencing_is_DocsOutput : (int)
  - referencing_is_external : (bit)
  Referencing_type : (varchar(2))
  --
  --
}

entity "puml-link:dhw:sqldb:reference.repoobject_referencetree_0_30.adoc[]" as reference.RepoObject_ReferenceTree_0_30 << V >> {
  **RepoObject_guid** : (uniqueidentifier)
  **Referencing_guid** : (uniqueidentifier)
  **Referenced_guid** : (uniqueidentifier)
  --
  Referenced_Depth : (int)
  Referenced_fullname : (nvarchar(261))
  Referenced_fullname2 : (nvarchar(257))
  Referenced_type : (char(2))
  Referencing_Depth : (int)
  Referencing_fullname : (nvarchar(261))
  Referencing_fullname2 : (nvarchar(257))
  Referencing_type : (varchar(2))
  --
  --
}

entity "puml-link:dhw:sqldb:reference.repoobject_referencetree_30_0.adoc[]" as reference.RepoObject_ReferenceTree_30_0 << V >> {
  **RepoObject_guid** : (uniqueidentifier)
  **Referencing_guid** : (uniqueidentifier)
  **Referenced_guid** : (uniqueidentifier)
  --
  Referenced_Depth : (int)
  Referenced_fullname : (nvarchar(261))
  Referenced_fullname2 : (nvarchar(257))
  Referenced_type : (char(2))
  Referencing_Depth : (int)
  Referencing_fullname : (nvarchar(261))
  Referencing_fullname2 : (nvarchar(257))
  Referencing_type : (varchar(2))
  --
  --
}

entity "puml-link:dhw:sqldb:reference.repoobject_referencetree_referenced.adoc[]" as reference.RepoObject_ReferenceTree_referenced << V >> {
  **RepoObject_guid** : (uniqueidentifier)
  **Referenced_Depth** : (int)
  **Referencing_Depth** : (int)
  **Referenced_guid** : (uniqueidentifier)
  **Referencing_guid** : (uniqueidentifier)
  --
  Referenced_fullname : (nvarchar(261))
  Referenced_fullname2 : (nvarchar(257))
  referenced_is_DocsOutput : (int)
  Referenced_type : (char(2))
  Referencing_fullname : (nvarchar(261))
  Referencing_fullname2 : (nvarchar(257))
  referencing_is_DocsOutput : (int)
  Referencing_type : (varchar(2))
  --
  --
}

entity "puml-link:dhw:sqldb:reference.repoobject_referencetree_referenced_30_0.adoc[]" as reference.RepoObject_ReferenceTree_referenced_30_0 << V >> {
  - **RepoObject_guid** : (uniqueidentifier)
  **Referenced_guid** : (uniqueidentifier)
  --
  Referenced_Depth : (int)
  Referenced_fullname : (nvarchar(261))
  Referenced_fullname2 : (nvarchar(257))
  RepoObject_fullname : (nvarchar(261))
  RepoObject_fullname2 : (nvarchar(257))
  --
  --
}

entity "puml-link:dhw:sqldb:reference.repoobject_referencetree_referencing.adoc[]" as reference.RepoObject_ReferenceTree_referencing << V >> {
  **RepoObject_guid** : (uniqueidentifier)
  **Referenced_Depth** : (int)
  **Referencing_Depth** : (int)
  **Referenced_guid** : (uniqueidentifier)
  **Referencing_guid** : (uniqueidentifier)
  --
  Referenced_fullname : (nvarchar(261))
  Referenced_fullname2 : (nvarchar(257))
  referenced_is_DocsOutput : (int)
  Referenced_type : (char(2))
  Referencing_fullname : (nvarchar(261))
  Referencing_fullname2 : (nvarchar(257))
  referencing_is_DocsOutput : (int)
  Referencing_type : (varchar(2))
  --
  --
}

entity "puml-link:dhw:sqldb:reference.repoobject_referencetree_referencing_0_30.adoc[]" as reference.RepoObject_ReferenceTree_referencing_0_30 << V >> {
  - **RepoObject_guid** : (uniqueidentifier)
  **Referencing_guid** : (uniqueidentifier)
  --
  referencing_Depth : (int)
  referencing_fullname : (nvarchar(261))
  referencing_fullname2 : (nvarchar(257))
  RepoObject_fullname : (nvarchar(261))
  RepoObject_fullname2 : (nvarchar(257))
  --
  --
}

entity "puml-link:dhw:sqldb:reference.usp_repoobject_update_sysobjectqueryplan.adoc[]" as reference.usp_RepoObject_update_SysObjectQueryPlan << P >> {
  --
  --
  --
}

entity "puml-link:dhw:sqldb:reference.usp_repoobjectsource_firstresultset.adoc[]" as reference.usp_RepoObjectSource_FirstResultSet << P >> {
  --
  --
  --
}

entity "puml-link:dhw:sqldb:reference.usp_repoobjectsource_queryplan.adoc[]" as reference.usp_RepoObjectSource_QueryPlan << P >> {
  --
  --
  --
}

entity "puml-link:dhw:sqldb:repo.index_gross.adoc[]" as repo.Index_gross << V >> {
  --
  AntoraIndexColumnList : (nvarchar(max))
  ColumnList : (nvarchar(max))
  ConstraintColumnList : (nvarchar(max))
  DbmlIndexColumnList : (nvarchar(max))
  - index_guid : (uniqueidentifier)
  index_name : (nvarchar(450))
  index_type : (tinyint)
  IndexPatternColumnDatatype : (nvarchar(4000))
  IndexPatternColumnName : (nvarchar(4000))
  IndexSemanticGroup : (nvarchar(512))
  - is_DocsExclude : (bit)
  is_DocsOutput : (int)
  is_index_disabled : (bit)
  is_index_primary_key : (bit)
  is_index_real : (bit)
  is_index_unique : (bit)
  is_persistence : (bit)
  is_repo_managed : (bit)
  parent_RepoObject_guid : (uniqueidentifier)
  PersistenceWhereColumnList : (nvarchar(max))
  PumlIndexColumnList : (nvarchar(max))
  referenced_index_guid : (uniqueidentifier)
  - RepoObject_fullname : (nvarchar(261))
  - RepoObject_fullname2 : (nvarchar(257))
  RowNumber_PatternPerParentObject : (bigint)
  RowNumber_PkPerParentObject : (bigint)
  - SysObject_fullname : (nvarchar(261))
  - SysObject_fullname2 : (nvarchar(257))
  SysObject_id : (int)
  - SysObject_name : (nvarchar(128))
  - SysObject_schema_name : (nvarchar(128))
  SysObject_type : (char(2))
  --
  --
}

entity "puml-link:dhw:sqldb:repo.index_settings.adoc[]" as repo.Index_Settings << U >> {
  - **index_guid** : (uniqueidentifier)
  --
  IndexPatternColumnDatatype : (nvarchar(4000))
  IndexPatternColumnName : (nvarchar(4000))
  IndexSemanticGroup : (nvarchar(512))
  - is_create_constraint : (bit)
  --
  --
}

entity "puml-link:dhw:sqldb:repo.index_virtual_forupdate.adoc[]" as repo.Index_virtual_ForUpdate << V >> {
  --
  - has_managedName : (bit)
  - index_guid : (uniqueidentifier)
  index_name : (nvarchar(128))
  - index_type : (tinyint)
  IndexPatternColumnDatatype : (nvarchar(4000))
  IndexPatternColumnName : (nvarchar(4000))
  IndexSemanticGroup : (nvarchar(512))
  - is_index_disabled : (bit)
  - is_index_primary_key : (bit)
  - is_index_unique : (bit)
  is_persistence : (bit)
  is_repo_managed : (bit)
  - parent_RepoObject_guid : (uniqueidentifier)
  referenced_index_guid : (uniqueidentifier)
  - RepoObject_fullname : (nvarchar(261))
  - RepoObject_fullname2 : (nvarchar(257))
  RowNumberInReferencing : (int)
  - SysObject_fullname : (nvarchar(261))
  - SysObject_fullname2 : (nvarchar(257))
  --
  --
}

entity "puml-link:dhw:sqldb:repo.repoobject.adoc[]" as repo.RepoObject << U >> {
  - **RepoObject_guid** : (uniqueidentifier)
  --
  external_AntoraComponent : (nvarchar(128))
  external_AntoraModule : (nvarchar(128))
  has_execution_plan_issue : (bit)
  has_get_referenced_issue : (bit)
  Inheritance_Source_fullname : (nvarchar(261))
  Inheritance_StringAggSeparatorSql : (nvarchar(4000))
  InheritanceDefinition : (nvarchar(4000))
  InheritanceType : (tinyint)
  - is_DocsExclude : (bit)
  - is_external : (bit)
  is_repo_managed : (bit)
  is_required_ObjectMerge : (bit)
  - is_ssas : (bit)
  is_SysObject_missing : (bit)
  - modify_dt : (datetime)
  pk_index_guid : (uniqueidentifier)
  pk_IndexPatternColumnName_new : (nvarchar(4000))
  Repo_history_table_guid : (uniqueidentifier)
  Repo_temporal_type : (tinyint)
  - RepoObject_name : (nvarchar(128))
  RepoObject_Referencing_Count : (int)
  - RepoObject_schema_name : (nvarchar(128))
  - RepoObject_type : (char(2))
  SysObject_id : (int)
  SysObject_modify_date : (datetime)
  - SysObject_name : (nvarchar(128))
  - SysObject_parent_object_id : (int)
  - SysObject_schema_name : (nvarchar(128))
  SysObject_type : (char(2))
  ~ has_different_sys_names : (bit)
  # is_RepoObject_name_uniqueidentifier : (int)
  # is_SysObject_name_uniqueidentifier : (int)
  ~ node_id : (bigint)
  # RepoObject_fullname : (nvarchar(261))
  # RepoObject_fullname2 : (nvarchar(257))
  # SysObject_fullname : (nvarchar(261))
  # SysObject_fullname2 : (nvarchar(257))
  ~ SysObject_query_sql : (nvarchar(406))
  # usp_persistence_fullname2 : (nvarchar(269))
  # usp_persistence_name : (nvarchar(140))
  --
  --
}

entity "puml-link:dhw:sqldb:repo.repoobject_gross.adoc[]" as repo.RepoObject_gross << V >> {
  --
  AntoraComponent : (nvarchar(max))
  AntoraModule : (nvarchar(max))
  Description : (nvarchar(max))
  external_AntoraComponent : (nvarchar(128))
  external_AntoraModule : (nvarchar(128))
  external_DatabaseName : (nvarchar(128))
  external_RepoDatabaseName : (nvarchar(128))
  has_different_sys_names : (bit)
  has_execution_plan_issue : (bit)
  has_get_referenced_issue : (bit)
  has_history : (bit)
  has_history_columns : (bit)
  history_schema_name : (nvarchar(128))
  history_table_name : (nvarchar(128))
  Inheritance_StringAggSeparatorSql : (nvarchar(4000))
  InheritanceDefinition : (nvarchar(4000))
  InheritanceType : (tinyint)
  - is_DocsExclude : (bit)
  is_DocsOutput : (int)
  - is_external : (bit)
  - is_in_reference : (int)
  is_persistence : (bit)
  is_persistence_check_duplicate_per_pk : (bit)
  is_persistence_check_for_empty_source : (bit)
  is_persistence_delete_changed : (bit)
  is_persistence_delete_missing : (bit)
  is_persistence_insert : (bit)
  is_persistence_merge_delete_missing : (bit)
  is_persistence_merge_insert : (bit)
  is_persistence_merge_update_changed : (bit)
  is_persistence_truncate : (bit)
  is_persistence_update_changed : (bit)
  is_repo_managed : (bit)
  - is_RepoObject_name_uniqueidentifier : (int)
  is_required_ObjectMerge : (bit)
  - is_ssas : (bit)
  is_SysObject_missing : (bit)
  - is_SysObject_name_uniqueidentifier : (int)
  - modify_dt : (datetime)
  node_id : (bigint)
  persistence_source_RepoObject_fullname : (nvarchar(261))
  persistence_source_RepoObject_fullname2 : (nvarchar(257))
  persistence_source_RepoObject_guid : (uniqueidentifier)
  persistence_source_RepoObject_xref : (nvarchar(4000))
  persistence_source_SysObject_fullname : (nvarchar(261))
  persistence_source_SysObject_fullname2 : (nvarchar(257))
  persistence_source_SysObject_xref : (nvarchar(4000))
  pk_index_guid : (uniqueidentifier)
  pk_IndexPatternColumnDatatype : (nvarchar(4000))
  pk_IndexPatternColumnName : (nvarchar(4000))
  pk_IndexPatternColumnName_new : (nvarchar(4000))
  pk_IndexSemanticGroup : (nvarchar(512))
  Property_ms_description : (nvarchar(4000))
  Repo_history_table_guid : (uniqueidentifier)
  Repo_temporal_type : (tinyint)
  - RepoObject_fullname : (nvarchar(261))
  - RepoObject_fullname2 : (nvarchar(257))
  - RepoObject_guid : (uniqueidentifier)
  - RepoObject_name : (nvarchar(128))
  RepoObject_Referencing_Count : (int)
  - RepoObject_schema_name : (nvarchar(128))
  - RepoObject_type : (char(2))
  RepoObject_type_name : (nvarchar(128))
  source_filter : (nvarchar(4000))
  - SysObject_fullname : (nvarchar(261))
  - SysObject_fullname2 : (nvarchar(257))
  SysObject_id : (int)
  SysObject_modify_date : (datetime)
  - SysObject_name : (nvarchar(128))
  - SysObject_parent_object_id : (int)
  SysObject_query_executed_dt : (datetime)
  SysObject_query_plan : (xml)
  - SysObject_query_sql : (nvarchar(406))
  - SysObject_schema_name : (nvarchar(128))
  SysObject_type : (char(2))
  SysObject_type_name : (nvarchar(128))
  tables_dataCategory : (nvarchar(500))
  tables_description : (nvarchar(max))
  tables_isHidden : (bit)
  target_filter : (nvarchar(4000))
  temporal_type : (tinyint)
  - usp_persistence_name : (nvarchar(140))
  usp_persistence_RepoObject_guid : (uniqueidentifier)
  uspgenerator_usp_id : (int)
  --
  --
}

entity "puml-link:dhw:sqldb:repo.repoobject_gross2.adoc[]" as repo.RepoObject_gross2 << V >> {
  --
  AntoraComponent : (nvarchar(max))
  AntoraModule : (nvarchar(max))
  AntoraReferencedList : (nvarchar(max))
  AntoraReferencingList : (nvarchar(max))
  CreateColumnList : (nvarchar(max))
  DbmlColumnList : (nvarchar(max))
  Description : (nvarchar(max))
  external_AntoraComponent : (nvarchar(128))
  external_AntoraModule : (nvarchar(128))
  external_DatabaseName : (nvarchar(128))
  external_RepoDatabaseName : (nvarchar(128))
  has_different_sys_names : (bit)
  has_execution_plan_issue : (bit)
  has_get_referenced_issue : (bit)
  has_history : (bit)
  has_history_columns : (bit)
  history_schema_name : (nvarchar(128))
  history_table_name : (nvarchar(128))
  Inheritance_StringAggSeparatorSql : (nvarchar(4000))
  InheritanceDefinition : (nvarchar(4000))
  InheritanceType : (tinyint)
  - is_DocsExclude : (bit)
  is_DocsOutput : (int)
  - is_external : (bit)
  - is_in_reference : (int)
  is_persistence : (bit)
  is_persistence_check_duplicate_per_pk : (bit)
  is_persistence_check_for_empty_source : (bit)
  is_persistence_delete_changed : (bit)
  is_persistence_delete_missing : (bit)
  is_persistence_insert : (bit)
  is_persistence_merge_delete_missing : (bit)
  is_persistence_merge_insert : (bit)
  is_persistence_merge_update_changed : (bit)
  is_persistence_truncate : (bit)
  is_persistence_update_changed : (bit)
  is_repo_managed : (bit)
  - is_RepoObject_name_uniqueidentifier : (int)
  is_required_ObjectMerge : (bit)
  - is_ssas : (bit)
  is_SysObject_missing : (bit)
  - is_SysObject_name_uniqueidentifier : (int)
  - modify_dt : (datetime)
  node_id : (bigint)
  persistence_source_RepoObject_fullname : (nvarchar(261))
  persistence_source_RepoObject_fullname2 : (nvarchar(257))
  persistence_source_RepoObject_guid : (uniqueidentifier)
  persistence_source_RepoObject_xref : (nvarchar(4000))
  persistence_source_SysObject_fullname : (nvarchar(261))
  persistence_source_SysObject_fullname2 : (nvarchar(257))
  persistence_source_SysObject_xref : (nvarchar(4000))
  PersistenceCompareColumnList : (nvarchar(max))
  PersistenceInsertColumnList : (nvarchar(max))
  PersistenceUpdateColumnList : (nvarchar(max))
  pk_index_guid : (uniqueidentifier)
  pk_IndexPatternColumnDatatype : (nvarchar(4000))
  pk_IndexPatternColumnName : (nvarchar(4000))
  pk_IndexPatternColumnName_new : (nvarchar(4000))
  pk_IndexSemanticGroup : (nvarchar(512))
  Property_ms_description : (nvarchar(4000))
  Repo_history_table_guid : (uniqueidentifier)
  Repo_temporal_type : (tinyint)
  - RepoObject_fullname : (nvarchar(261))
  - RepoObject_fullname2 : (nvarchar(257))
  - RepoObject_guid : (uniqueidentifier)
  - RepoObject_name : (nvarchar(128))
  RepoObject_Referencing_Count : (int)
  - RepoObject_schema_name : (nvarchar(128))
  - RepoObject_type : (char(2))
  RepoObject_type_name : (nvarchar(128))
  source_filter : (nvarchar(4000))
  sql_modules_antora : (nvarchar(max))
  sql_modules_definition : (nvarchar(max))
  sql_modules_formatted : (nvarchar(max))
  sql_modules_formatted2 : (nvarchar(max))
  - SysObject_fullname : (nvarchar(261))
  - SysObject_fullname2 : (nvarchar(257))
  SysObject_id : (int)
  SysObject_modify_date : (datetime)
  - SysObject_name : (nvarchar(128))
  - SysObject_parent_object_id : (int)
  SysObject_query_executed_dt : (datetime)
  SysObject_query_plan : (xml)
  - SysObject_query_sql : (nvarchar(406))
  - SysObject_schema_name : (nvarchar(128))
  SysObject_type : (char(2))
  SysObject_type_name : (nvarchar(128))
  tables_dataCategory : (nvarchar(500))
  tables_description : (nvarchar(max))
  tables_isHidden : (bit)
  target_filter : (nvarchar(4000))
  temporal_type : (tinyint)
  - usp_persistence_name : (nvarchar(140))
  usp_persistence_RepoObject_guid : (uniqueidentifier)
  uspgenerator_usp_id : (int)
  --
  --
}

entity "puml-link:dhw:sqldb:repo.repoobject_persistence.adoc[]" as repo.RepoObject_persistence << U >> {
  - **target_RepoObject_guid** : (uniqueidentifier)
  --
  - has_history : (bit)
  - has_history_columns : (bit)
  history_schema_name : (nvarchar(128))
  history_table_name : (nvarchar(128))
  - is_persistence_check_duplicate_per_pk : (bit)
  - is_persistence_check_for_empty_source : (bit)
  - is_persistence_delete_changed : (bit)
  - is_persistence_delete_missing : (bit)
  - is_persistence_insert : (bit)
  - is_persistence_merge_delete_missing : (bit)
  - is_persistence_merge_insert : (bit)
  - is_persistence_merge_update_changed : (bit)
  - is_persistence_truncate : (bit)
  - is_persistence_update_changed : (bit)
  source_filter : (nvarchar(4000))
  source_RepoObject_guid : (uniqueidentifier)
  source_RepoObject_name : (nvarchar(128))
  target_filter : (nvarchar(4000))
  ~ is_persistence : (bit)
  ~ temporal_type : (tinyint)
  --
  --
}

entity "puml-link:dhw:sqldb:repo.repoobject_sat2.adoc[]" as repo.RepoObject_sat2 << V >> {
  - **RepoObject_guid** : (uniqueidentifier)
  --
  AntoraReferencedList : (nvarchar(max))
  AntoraReferencingList : (nvarchar(max))
  CreateColumnList : (nvarchar(max))
  DbmlColumnList : (nvarchar(max))
  PersistenceCompareColumnList : (nvarchar(max))
  PersistenceInsertColumnList : (nvarchar(max))
  PersistenceUpdateColumnList : (nvarchar(max))
  sql_modules_antora : (nvarchar(max))
  sql_modules_definition : (nvarchar(max))
  sql_modules_formatted : (nvarchar(max))
  sql_modules_formatted2 : (nvarchar(max))
  --
  --
}

entity "puml-link:dhw:sqldb:repo.repoobject_sqlcreatetable.adoc[]" as repo.RepoObject_SqlCreateTable << V >> {
  - **RepoObject_guid** : (uniqueidentifier)
  --
  ConList : (nvarchar(max))
  - DbmlTable : (nvarchar(max))
  persistence_source_RepoObject_fullname : (nvarchar(261))
  persistence_source_RepoObject_guid : (uniqueidentifier)
  persistence_source_SysObject_fullname : (nvarchar(261))
  - RepoObject_fullname : (nvarchar(261))
  - SqlCreateTable : (nvarchar(max))
  --
  --
}

entity "puml-link:dhw:sqldb:ssas.model_json_31_tables_t.adoc[]" as ssas.model_json_31_tables_T << U >> {
  - **databasename** : (nvarchar(128))
  **tables_name** : (nvarchar(128))
  --
  - RepoObject_guid : (uniqueidentifier)
  tables_annotations_ja : (nvarchar(max))
  tables_columns_ja : (nvarchar(max))
  tables_dataCategory : (nvarchar(500))
  tables_description : (nvarchar(max))
  tables_description_ja : (nvarchar(max))
  tables_hierarchies_ja : (nvarchar(max))
  tables_isHidden : (bit)
  tables_measures_ja : (nvarchar(max))
  tables_partitions_ja : (nvarchar(max))
  --
  --
}

entity "puml-link:dhw:sqldb:ssas.model_json_3161_tables_descriptions_stragg.adoc[]" as ssas.model_json_3161_tables_descriptions_StrAgg << V >> {
  --
  - databasename : (nvarchar(128))
  descriptions_StrAgg : (nvarchar(max))
  - RepoObject_guid : (uniqueidentifier)
  - tables_name : (nvarchar(128))
  --
  --
}

entity "puml-link:dhw:sqldb:uspgenerator.generatorusp.adoc[]" as uspgenerator.GeneratorUsp << U >> {
  - **id** : (int)
  --
  - has_logging : (tinyint)
  usp_Description : (nvarchar(4000))
  usp_Examples : (nvarchar(4000))
  - usp_name : (nvarchar(128))
  - usp_schema : (nvarchar(128))
  # usp_fullname : (nvarchar(261))
  --
  --
}

entity "puml-link:dhw:sqldb:uspgenerator.generatoruspstep_persistence_isinactive_setpoint.adoc[]" as uspgenerator.GeneratorUspStep_Persistence_IsInactive_setpoint << V >> {
  - **usp_id** : (int)
  --
  - is_inactive : (int)
  - Number : (int)
  source_pk_index_guid : (uniqueidentifier)
  --
  --
}

entity "puml-link:dhw:sqldb:uspgenerator.generatoruspstep_persistence_src.adoc[]" as uspgenerator.GeneratorUspStep_Persistence_src << V >> {
  - **usp_id** : (int)
  --
  - has_logging : (int)
  - is_condition : (int)
  - is_inactive : (int)
  - is_SubProcedure : (int)
  log_flag_InsertUpdateDelete : (varchar(1))
  log_source_object : (nvarchar(261))
  log_target_object : (nvarchar(261))
  - Name : (varchar(45))
  - Number : (int)
  Parent_Number : (int)
  - RepoObject_guid : (uniqueidentifier)
  Statement : (nvarchar(max))
  - usp_fullname : (nvarchar(261))
  --
  --
}

entity "puml-link:dhw:sqldb:uspgenerator.usp_generatorusp_insert_update_persistence.adoc[]" as uspgenerator.usp_GeneratorUsp_insert_update_persistence << P >> {
  --
  --
  --
}

entity "puml-link:dhw:sqldb:workflow.workflowstep_s.adoc[]" as workflow.WorkflowStep_S << V >> {
  - **Workflow_id** : (int)
  **Procedure_RepoObject_guid** : (uniqueidentifier)
  --
  --
  --
}

config.ftv_get_parameter_value <.. repo.RepoObject_gross
configT.type <.. repo.RepoObject_gross
docs.fs_cleanStringForFilename <.. repo.RepoObject_gross
property.fs_get_RepoObjectProperty_nvarchar <.. repo.RepoObject_gross
reference.additional_Reference_database_T <.. repo.RepoObject_gross
reference.RepoObject_QueryPlan <.. repo.RepoObject_gross
reference.RepoObject_ReferencedReferencing <.. repo.RepoObject_gross
repo.Index_Settings <.. repo.RepoObject_gross
repo.RepoObject <.. repo.RepoObject_gross
repo.RepoObject_gross <.. repo.RepoObject_SqlCreateTable
repo.RepoObject_gross <.. uspgenerator.GeneratorUspStep_Persistence_IsInactive_setpoint
repo.RepoObject_gross <.. uspgenerator.GeneratorUspStep_Persistence_src
repo.RepoObject_gross <.. repo.Index_gross
repo.RepoObject_gross <.. reference.usp_RepoObjectSource_QueryPlan
repo.RepoObject_gross <.. reference.usp_RepoObjectSource_FirstResultSet
repo.RepoObject_gross <.. reference.usp_RepoObject_update_SysObjectQueryPlan
repo.RepoObject_gross <.. uspgenerator.usp_GeneratorUsp_insert_update_persistence
repo.RepoObject_gross <.. docs.RepoObject_Adoc
repo.RepoObject_gross <.. docs.RepoObject_OutputFilter
repo.RepoObject_gross <.. docs.RepoObject_Plantuml
repo.RepoObject_gross <.. repo.Index_virtual_ForUpdate
repo.RepoObject_gross <.. reference.RepoObject_ReferenceTree_referenced
repo.RepoObject_gross <.. reference.RepoObject_ReferenceTree_referencing
repo.RepoObject_gross <.. property.RepoObjectProperty_Collect_source_ROGross
repo.RepoObject_gross <.. reference.RepoObject_ReferenceTree_referenced_30_0
repo.RepoObject_gross <.. reference.RepoObject_ReferenceTree_referencing_0_30
repo.RepoObject_gross <.. reference.RepoObject_ReferenceTree_0_30
repo.RepoObject_gross <.. reference.RepoObject_ReferenceTree_30_0
repo.RepoObject_gross <.. reference.Persistence
repo.RepoObject_gross <.. reference.RepoObject_reference_persistence_target_as_source
repo.RepoObject_gross <.. workflow.WorkflowStep_S
repo.RepoObject_gross <.. repo.RepoObject_gross2
repo.RepoObject_gross <.. docs.Unit_1_union
repo.RepoObject_gross <.. repo.RepoObject_sat2
repo.RepoObject_persistence <.. repo.RepoObject_gross
ssas.model_json_31_tables_T <.. repo.RepoObject_gross
ssas.model_json_3161_tables_descriptions_StrAgg <.. repo.RepoObject_gross
uspgenerator.GeneratorUsp <.. repo.RepoObject_gross
"configT.type::is_DocsOutput" <-- "repo.RepoObject_gross::is_DocsOutput"
"configT.type::type_desc" <-- "repo.RepoObject_gross::RepoObject_type_name"
"configT.type::type_desc" <-- "repo.RepoObject_gross::SysObject_type_name"
"reference.additional_Reference_database_T::AntoraComponent" <-- "repo.RepoObject_gross::AntoraComponent"
"reference.additional_Reference_database_T::DatabaseName" <-- "repo.RepoObject_gross::external_DatabaseName"
"reference.additional_Reference_database_T::RepoDatabaseName" <-- "repo.RepoObject_gross::external_RepoDatabaseName"
"reference.RepoObject_QueryPlan::SysObject_query_executed_dt" <-- "repo.RepoObject_gross::SysObject_query_executed_dt"
"reference.RepoObject_QueryPlan::SysObject_query_plan" <-- "repo.RepoObject_gross::SysObject_query_plan"
"repo.Index_Settings::IndexPatternColumnDatatype" <-- "repo.RepoObject_gross::pk_IndexPatternColumnDatatype"
"repo.Index_Settings::IndexPatternColumnName" <-- "repo.RepoObject_gross::pk_IndexPatternColumnName"
"repo.Index_Settings::IndexSemanticGroup" <-- "repo.RepoObject_gross::pk_IndexSemanticGroup"
"repo.RepoObject::external_AntoraComponent" <-- "repo.RepoObject_gross::external_AntoraComponent"
"repo.RepoObject::external_AntoraModule" <-- "repo.RepoObject_gross::external_AntoraModule"
"repo.RepoObject::has_different_sys_names" <-- "repo.RepoObject_gross::has_different_sys_names"
"repo.RepoObject::has_execution_plan_issue" <-- "repo.RepoObject_gross::has_execution_plan_issue"
"repo.RepoObject::has_get_referenced_issue" <-- "repo.RepoObject_gross::has_get_referenced_issue"
"repo.RepoObject::Inheritance_StringAggSeparatorSql" <-- "repo.RepoObject_gross::Inheritance_StringAggSeparatorSql"
"repo.RepoObject::InheritanceDefinition" <-- "repo.RepoObject_gross::InheritanceDefinition"
"repo.RepoObject::InheritanceType" <-- "repo.RepoObject_gross::InheritanceType"
"repo.RepoObject::is_DocsExclude" <-- "repo.RepoObject_gross::is_DocsExclude"
"repo.RepoObject::is_external" <-- "repo.RepoObject_gross::is_external"
"repo.RepoObject::is_repo_managed" <-- "repo.RepoObject_gross::is_repo_managed"
"repo.RepoObject::is_RepoObject_name_uniqueidentifier" <-- "repo.RepoObject_gross::is_RepoObject_name_uniqueidentifier"
"repo.RepoObject::is_required_ObjectMerge" <-- "repo.RepoObject_gross::is_required_ObjectMerge"
"repo.RepoObject::is_ssas" <-- "repo.RepoObject_gross::is_ssas"
"repo.RepoObject::is_SysObject_missing" <-- "repo.RepoObject_gross::is_SysObject_missing"
"repo.RepoObject::is_SysObject_name_uniqueidentifier" <-- "repo.RepoObject_gross::is_SysObject_name_uniqueidentifier"
"repo.RepoObject::modify_dt" <-- "repo.RepoObject_gross::modify_dt"
"repo.RepoObject::node_id" <-- "repo.RepoObject_gross::node_id"
"repo.RepoObject::pk_index_guid" <-- "repo.RepoObject_gross::pk_index_guid"
"repo.RepoObject::pk_IndexPatternColumnName_new" <-- "repo.RepoObject_gross::pk_IndexPatternColumnName_new"
"repo.RepoObject::Repo_history_table_guid" <-- "repo.RepoObject_gross::Repo_history_table_guid"
"repo.RepoObject::Repo_temporal_type" <-- "repo.RepoObject_gross::Repo_temporal_type"
"repo.RepoObject::RepoObject_fullname" <-- "repo.RepoObject_gross::RepoObject_fullname"
"repo.RepoObject::RepoObject_fullname" <-- "repo.RepoObject_gross::persistence_source_RepoObject_fullname"
"repo.RepoObject::RepoObject_fullname2" <-- "repo.RepoObject_gross::RepoObject_fullname2"
"repo.RepoObject::RepoObject_fullname2" <-- "repo.RepoObject_gross::persistence_source_RepoObject_fullname2"
"repo.RepoObject::RepoObject_guid" <-- "repo.RepoObject_gross::RepoObject_guid"
"repo.RepoObject::RepoObject_guid" <-- "repo.RepoObject_gross::usp_persistence_RepoObject_guid"
"repo.RepoObject::RepoObject_name" <-- "repo.RepoObject_gross::RepoObject_name"
"repo.RepoObject::RepoObject_Referencing_Count" <-- "repo.RepoObject_gross::RepoObject_Referencing_Count"
"repo.RepoObject::RepoObject_schema_name" <-- "repo.RepoObject_gross::RepoObject_schema_name"
"repo.RepoObject::RepoObject_type" <-- "repo.RepoObject_gross::RepoObject_type"
"repo.RepoObject::SysObject_fullname" <-- "repo.RepoObject_gross::SysObject_fullname"
"repo.RepoObject::SysObject_fullname" <-- "repo.RepoObject_gross::persistence_source_SysObject_fullname"
"repo.RepoObject::SysObject_fullname2" <-- "repo.RepoObject_gross::SysObject_fullname2"
"repo.RepoObject::SysObject_fullname2" <-- "repo.RepoObject_gross::persistence_source_SysObject_fullname2"
"repo.RepoObject::SysObject_id" <-- "repo.RepoObject_gross::SysObject_id"
"repo.RepoObject::SysObject_modify_date" <-- "repo.RepoObject_gross::SysObject_modify_date"
"repo.RepoObject::SysObject_name" <-- "repo.RepoObject_gross::SysObject_name"
"repo.RepoObject::SysObject_parent_object_id" <-- "repo.RepoObject_gross::SysObject_parent_object_id"
"repo.RepoObject::SysObject_query_sql" <-- "repo.RepoObject_gross::SysObject_query_sql"
"repo.RepoObject::SysObject_schema_name" <-- "repo.RepoObject_gross::SysObject_schema_name"
"repo.RepoObject::SysObject_type" <-- "repo.RepoObject_gross::SysObject_type"
"repo.RepoObject::usp_persistence_name" <-- "repo.RepoObject_gross::usp_persistence_name"
"repo.RepoObject_gross::AntoraComponent" <-- "repo.RepoObject_gross2::AntoraComponent"
"repo.RepoObject_gross::AntoraComponent" <-- "docs.RepoObject_OutputFilter::AntoraComponent"
"repo.RepoObject_gross::AntoraModule" <-- "repo.RepoObject_gross2::AntoraModule"
"repo.RepoObject_gross::AntoraModule" <-- "docs.RepoObject_OutputFilter::AntoraModule"
"repo.RepoObject_gross::Description" <-- "repo.RepoObject_gross2::Description"
"repo.RepoObject_gross::external_AntoraComponent" <-- "repo.RepoObject_gross2::external_AntoraComponent"
"repo.RepoObject_gross::external_AntoraComponent" <-- "docs.RepoObject_OutputFilter::external_AntoraComponent"
"repo.RepoObject_gross::external_AntoraModule" <-- "repo.RepoObject_gross2::external_AntoraModule"
"repo.RepoObject_gross::external_AntoraModule" <-- "docs.RepoObject_OutputFilter::external_AntoraModule"
"repo.RepoObject_gross::external_DatabaseName" <-- "repo.RepoObject_gross2::external_DatabaseName"
"repo.RepoObject_gross::external_DatabaseName" <-- "docs.RepoObject_OutputFilter::external_DatabaseName"
"repo.RepoObject_gross::external_RepoDatabaseName" <-- "repo.RepoObject_gross2::external_RepoDatabaseName"
"repo.RepoObject_gross::has_different_sys_names" <-- "repo.RepoObject_gross2::has_different_sys_names"
"repo.RepoObject_gross::has_execution_plan_issue" <-- "repo.RepoObject_gross2::has_execution_plan_issue"
"repo.RepoObject_gross::has_get_referenced_issue" <-- "repo.RepoObject_gross2::has_get_referenced_issue"
"repo.RepoObject_gross::has_history" <-- "repo.RepoObject_gross2::has_history"
"repo.RepoObject_gross::has_history_columns" <-- "repo.RepoObject_gross2::has_history_columns"
"repo.RepoObject_gross::history_schema_name" <-- "repo.RepoObject_gross2::history_schema_name"
"repo.RepoObject_gross::history_table_name" <-- "repo.RepoObject_gross2::history_table_name"
"repo.RepoObject_gross::Inheritance_StringAggSeparatorSql" <-- "repo.RepoObject_gross2::Inheritance_StringAggSeparatorSql"
"repo.RepoObject_gross::InheritanceDefinition" <-- "repo.RepoObject_gross2::InheritanceDefinition"
"repo.RepoObject_gross::InheritanceType" <-- "repo.RepoObject_gross2::InheritanceType"
"repo.RepoObject_gross::is_DocsExclude" <-- "repo.RepoObject_gross2::is_DocsExclude"
"repo.RepoObject_gross::is_DocsExclude" <-- "repo.Index_gross::is_DocsExclude"
"repo.RepoObject_gross::is_DocsOutput" <-- "docs.RepoObject_Adoc::is_DocsOutput"
"repo.RepoObject_gross::is_DocsOutput" <-- "docs.RepoObject_OutputFilter::is_DocsOutput"
"repo.RepoObject_gross::is_DocsOutput" <-- "repo.RepoObject_gross2::is_DocsOutput"
"repo.RepoObject_gross::is_DocsOutput" <-- "repo.Index_gross::is_DocsOutput"
"repo.RepoObject_gross::is_external" <-- "repo.RepoObject_gross2::is_external"
"repo.RepoObject_gross::is_external" <-- "docs.RepoObject_OutputFilter::is_external"
"repo.RepoObject_gross::is_in_reference" <-- "repo.RepoObject_gross2::is_in_reference"
"repo.RepoObject_gross::is_persistence" <-- "repo.Index_gross::is_persistence"
"repo.RepoObject_gross::is_persistence" <-- "repo.Index_virtual_ForUpdate::is_persistence"
"repo.RepoObject_gross::is_persistence" <-- "repo.RepoObject_gross2::is_persistence"
"repo.RepoObject_gross::is_persistence_check_duplicate_per_pk" <-- "repo.RepoObject_gross2::is_persistence_check_duplicate_per_pk"
"repo.RepoObject_gross::is_persistence_check_for_empty_source" <-- "repo.RepoObject_gross2::is_persistence_check_for_empty_source"
"repo.RepoObject_gross::is_persistence_delete_changed" <-- "repo.RepoObject_gross2::is_persistence_delete_changed"
"repo.RepoObject_gross::is_persistence_delete_missing" <-- "repo.RepoObject_gross2::is_persistence_delete_missing"
"repo.RepoObject_gross::is_persistence_insert" <-- "repo.RepoObject_gross2::is_persistence_insert"
"repo.RepoObject_gross::is_persistence_merge_delete_missing" <-- "repo.RepoObject_gross2::is_persistence_merge_delete_missing"
"repo.RepoObject_gross::is_persistence_merge_insert" <-- "repo.RepoObject_gross2::is_persistence_merge_insert"
"repo.RepoObject_gross::is_persistence_merge_update_changed" <-- "repo.RepoObject_gross2::is_persistence_merge_update_changed"
"repo.RepoObject_gross::is_persistence_truncate" <-- "repo.RepoObject_gross2::is_persistence_truncate"
"repo.RepoObject_gross::is_persistence_update_changed" <-- "repo.RepoObject_gross2::is_persistence_update_changed"
"repo.RepoObject_gross::is_repo_managed" <-- "repo.Index_gross::is_repo_managed"
"repo.RepoObject_gross::is_repo_managed" <-- "repo.Index_virtual_ForUpdate::is_repo_managed"
"repo.RepoObject_gross::is_repo_managed" <-- "repo.RepoObject_gross2::is_repo_managed"
"repo.RepoObject_gross::is_RepoObject_name_uniqueidentifier" <-- "repo.RepoObject_gross2::is_RepoObject_name_uniqueidentifier"
"repo.RepoObject_gross::is_required_ObjectMerge" <-- "repo.RepoObject_gross2::is_required_ObjectMerge"
"repo.RepoObject_gross::is_ssas" <-- "repo.RepoObject_gross2::is_ssas"
"repo.RepoObject_gross::is_ssas" <-- "docs.RepoObject_OutputFilter::is_ssas"
"repo.RepoObject_gross::is_SysObject_missing" <-- "repo.RepoObject_gross2::is_SysObject_missing"
"repo.RepoObject_gross::is_SysObject_name_uniqueidentifier" <-- "repo.RepoObject_gross2::is_SysObject_name_uniqueidentifier"
"repo.RepoObject_gross::modify_dt" <-- "repo.RepoObject_gross2::modify_dt"
"repo.RepoObject_gross::node_id" <-- "repo.RepoObject_gross2::node_id"
"repo.RepoObject_gross::persistence_source_RepoObject_fullname" <-- "repo.RepoObject_gross2::persistence_source_RepoObject_fullname"
"repo.RepoObject_gross::persistence_source_RepoObject_fullname2" <-- "repo.RepoObject_gross2::persistence_source_RepoObject_fullname2"
"repo.RepoObject_gross::persistence_source_RepoObject_guid" <-- "repo.RepoObject_gross2::persistence_source_RepoObject_guid"
"repo.RepoObject_gross::persistence_source_RepoObject_xref" <-- "repo.RepoObject_gross2::persistence_source_RepoObject_xref"
"repo.RepoObject_gross::persistence_source_SysObject_fullname" <-- "repo.RepoObject_gross2::persistence_source_SysObject_fullname"
"repo.RepoObject_gross::persistence_source_SysObject_fullname2" <-- "repo.RepoObject_gross2::persistence_source_SysObject_fullname2"
"repo.RepoObject_gross::persistence_source_SysObject_xref" <-- "repo.RepoObject_gross2::persistence_source_SysObject_xref"
"repo.RepoObject_gross::pk_index_guid" <-- "repo.RepoObject_gross2::pk_index_guid"
"repo.RepoObject_gross::pk_IndexPatternColumnDatatype" <-- "repo.RepoObject_gross2::pk_IndexPatternColumnDatatype"
"repo.RepoObject_gross::pk_IndexPatternColumnName" <-- "repo.RepoObject_gross2::pk_IndexPatternColumnName"
"repo.RepoObject_gross::pk_IndexPatternColumnName_new" <-- "repo.RepoObject_gross2::pk_IndexPatternColumnName_new"
"repo.RepoObject_gross::pk_IndexSemanticGroup" <-- "repo.RepoObject_gross2::pk_IndexSemanticGroup"
"repo.RepoObject_gross::Property_ms_description" <-- "repo.RepoObject_gross2::Property_ms_description"
"repo.RepoObject_gross::Repo_history_table_guid" <-- "repo.RepoObject_gross2::Repo_history_table_guid"
"repo.RepoObject_gross::Repo_temporal_type" <-- "repo.RepoObject_gross2::Repo_temporal_type"
"repo.RepoObject_gross::RepoObject_fullname" <-- "repo.Index_gross::RepoObject_fullname"
"repo.RepoObject_gross::RepoObject_fullname" <-- "docs.RepoObject_OutputFilter::RepoObject_fullname"
"repo.RepoObject_gross::RepoObject_fullname" <-- "reference.RepoObject_ReferenceTree_referenced_30_0::RepoObject_fullname"
"repo.RepoObject_gross::RepoObject_fullname" <-- "reference.RepoObject_ReferenceTree_referencing_0_30::RepoObject_fullname"
"repo.RepoObject_gross::RepoObject_fullname" <-- "reference.Persistence::referenced_fullname"
"repo.RepoObject_gross::RepoObject_fullname" <-- "reference.Persistence::referencing_fullname"
"repo.RepoObject_gross::RepoObject_fullname" <-- "repo.RepoObject_gross2::RepoObject_fullname"
"repo.RepoObject_gross::RepoObject_fullname2" <-- "docs.RepoObject_OutputFilter::RepoObject_fullname2"
"repo.RepoObject_gross::RepoObject_fullname2" <-- "repo.Index_gross::RepoObject_fullname2"
"repo.RepoObject_gross::RepoObject_fullname2" <-- "docs.RepoObject_Plantuml::RepoObject_fullname2"
"repo.RepoObject_gross::RepoObject_fullname2" <-- "repo.RepoObject_gross2::RepoObject_fullname2"
"repo.RepoObject_gross::RepoObject_guid" <-- "docs.RepoObject_OutputFilter::RepoObject_guid"
"repo.RepoObject_gross::RepoObject_guid" <-- "docs.RepoObject_Plantuml::RepoObject_guid"
"repo.RepoObject_gross::RepoObject_guid" <-- "property.RepoObjectProperty_Collect_source_ROGross::RepoObject_guid"
"repo.RepoObject_gross::RepoObject_guid" <-- "reference.RepoObject_ReferenceTree_referenced_30_0::RepoObject_guid"
"repo.RepoObject_gross::RepoObject_guid" <-- "reference.RepoObject_ReferenceTree_referencing_0_30::RepoObject_guid"
"repo.RepoObject_gross::RepoObject_guid" <-- "reference.Persistence::referenced_RepoObject_guid"
"repo.RepoObject_gross::RepoObject_guid" <-- "reference.Persistence::referencing_RepoObject_guid"
"repo.RepoObject_gross::RepoObject_guid" <-- "repo.RepoObject_gross2::RepoObject_guid"
"repo.RepoObject_gross::RepoObject_guid" <-- "repo.RepoObject_sat2::RepoObject_guid"
"repo.RepoObject_gross::RepoObject_name" <-- "repo.RepoObject_gross2::RepoObject_name"
"repo.RepoObject_gross::RepoObject_name" <-- "docs.RepoObject_OutputFilter::RepoObject_name"
"repo.RepoObject_gross::RepoObject_Referencing_Count" <-- "repo.RepoObject_gross2::RepoObject_Referencing_Count"
"repo.RepoObject_gross::RepoObject_schema_name" <-- "docs.RepoObject_OutputFilter::RepoObject_schema_name"
"repo.RepoObject_gross::RepoObject_schema_name" <-- "reference.Persistence::referenced_schema_name"
"repo.RepoObject_gross::RepoObject_schema_name" <-- "reference.Persistence::referencing_schema_name"
"repo.RepoObject_gross::RepoObject_schema_name" <-- "repo.RepoObject_gross2::RepoObject_schema_name"
"repo.RepoObject_gross::RepoObject_type" <-- "repo.RepoObject_gross2::RepoObject_type"
"repo.RepoObject_gross::RepoObject_type_name" <-- "repo.RepoObject_gross2::RepoObject_type_name"
"repo.RepoObject_gross::source_filter" <-- "repo.RepoObject_gross2::source_filter"
"repo.RepoObject_gross::SysObject_fullname" <-- "repo.Index_gross::SysObject_fullname"
"repo.RepoObject_gross::SysObject_fullname" <-- "repo.RepoObject_gross2::SysObject_fullname"
"repo.RepoObject_gross::SysObject_fullname2" <-- "repo.Index_gross::SysObject_fullname2"
"repo.RepoObject_gross::SysObject_fullname2" <-- "repo.RepoObject_gross2::SysObject_fullname2"
"repo.RepoObject_gross::SysObject_id" <-- "repo.Index_gross::SysObject_id"
"repo.RepoObject_gross::SysObject_id" <-- "repo.RepoObject_gross2::SysObject_id"
"repo.RepoObject_gross::SysObject_modify_date" <-- "repo.RepoObject_gross2::SysObject_modify_date"
"repo.RepoObject_gross::SysObject_name" <-- "repo.Index_gross::SysObject_name"
"repo.RepoObject_gross::SysObject_name" <-- "repo.RepoObject_gross2::SysObject_name"
"repo.RepoObject_gross::SysObject_parent_object_id" <-- "repo.RepoObject_gross2::SysObject_parent_object_id"
"repo.RepoObject_gross::SysObject_query_executed_dt" <-- "repo.RepoObject_gross2::SysObject_query_executed_dt"
"repo.RepoObject_gross::SysObject_query_plan" <-- "repo.RepoObject_gross2::SysObject_query_plan"
"repo.RepoObject_gross::SysObject_query_sql" <-- "repo.RepoObject_gross2::SysObject_query_sql"
"repo.RepoObject_gross::SysObject_schema_name" <-- "repo.Index_gross::SysObject_schema_name"
"repo.RepoObject_gross::SysObject_schema_name" <-- "repo.RepoObject_gross2::SysObject_schema_name"
"repo.RepoObject_gross::SysObject_type" <-- "repo.Index_gross::SysObject_type"
"repo.RepoObject_gross::SysObject_type" <-- "docs.RepoObject_OutputFilter::SysObject_type"
"repo.RepoObject_gross::SysObject_type" <-- "repo.RepoObject_gross2::SysObject_type"
"repo.RepoObject_gross::SysObject_type_name" <-- "docs.RepoObject_OutputFilter::SysObject_type_name"
"repo.RepoObject_gross::SysObject_type_name" <-- "repo.RepoObject_gross2::SysObject_type_name"
"repo.RepoObject_gross::tables_dataCategory" <-- "repo.RepoObject_gross2::tables_dataCategory"
"repo.RepoObject_gross::tables_description" <-- "repo.RepoObject_gross2::tables_description"
"repo.RepoObject_gross::tables_isHidden" <-- "repo.RepoObject_gross2::tables_isHidden"
"repo.RepoObject_gross::tables_isHidden" <-- "docs.RepoObject_OutputFilter::tables_isHidden"
"repo.RepoObject_gross::target_filter" <-- "repo.RepoObject_gross2::target_filter"
"repo.RepoObject_gross::temporal_type" <-- "repo.RepoObject_gross2::temporal_type"
"repo.RepoObject_gross::usp_persistence_name" <-- "reference.Persistence::referenced_usp_persistence_name"
"repo.RepoObject_gross::usp_persistence_name" <-- "reference.Persistence::referencing_usp_persistence_name"
"repo.RepoObject_gross::usp_persistence_name" <-- "repo.RepoObject_gross2::usp_persistence_name"
"repo.RepoObject_gross::usp_persistence_RepoObject_guid" <-- "reference.Persistence::referenced_usp_persistence_RepoObject_guid"
"repo.RepoObject_gross::usp_persistence_RepoObject_guid" <-- "reference.Persistence::referencing_usp_persistence_RepoObject_guid"
"repo.RepoObject_gross::usp_persistence_RepoObject_guid" <-- "repo.RepoObject_gross2::usp_persistence_RepoObject_guid"
"repo.RepoObject_gross::uspgenerator_usp_id" <-- "repo.RepoObject_gross2::uspgenerator_usp_id"
"repo.RepoObject_persistence::has_history" <-- "repo.RepoObject_gross::has_history"
"repo.RepoObject_persistence::has_history_columns" <-- "repo.RepoObject_gross::has_history_columns"
"repo.RepoObject_persistence::history_schema_name" <-- "repo.RepoObject_gross::history_schema_name"
"repo.RepoObject_persistence::history_table_name" <-- "repo.RepoObject_gross::history_table_name"
"repo.RepoObject_persistence::is_persistence" <-- "repo.RepoObject_gross::is_persistence"
"repo.RepoObject_persistence::is_persistence_check_duplicate_per_pk" <-- "repo.RepoObject_gross::is_persistence_check_duplicate_per_pk"
"repo.RepoObject_persistence::is_persistence_check_for_empty_source" <-- "repo.RepoObject_gross::is_persistence_check_for_empty_source"
"repo.RepoObject_persistence::is_persistence_delete_changed" <-- "repo.RepoObject_gross::is_persistence_delete_changed"
"repo.RepoObject_persistence::is_persistence_delete_missing" <-- "repo.RepoObject_gross::is_persistence_delete_missing"
"repo.RepoObject_persistence::is_persistence_insert" <-- "repo.RepoObject_gross::is_persistence_insert"
"repo.RepoObject_persistence::is_persistence_merge_delete_missing" <-- "repo.RepoObject_gross::is_persistence_merge_delete_missing"
"repo.RepoObject_persistence::is_persistence_merge_insert" <-- "repo.RepoObject_gross::is_persistence_merge_insert"
"repo.RepoObject_persistence::is_persistence_merge_update_changed" <-- "repo.RepoObject_gross::is_persistence_merge_update_changed"
"repo.RepoObject_persistence::is_persistence_truncate" <-- "repo.RepoObject_gross::is_persistence_truncate"
"repo.RepoObject_persistence::is_persistence_update_changed" <-- "repo.RepoObject_gross::is_persistence_update_changed"
"repo.RepoObject_persistence::source_filter" <-- "repo.RepoObject_gross::source_filter"
"repo.RepoObject_persistence::source_RepoObject_guid" <-- "repo.RepoObject_gross::persistence_source_RepoObject_guid"
"repo.RepoObject_persistence::target_filter" <-- "repo.RepoObject_gross::target_filter"
"repo.RepoObject_persistence::temporal_type" <-- "repo.RepoObject_gross::temporal_type"
"ssas.model_json_31_tables_T::tables_dataCategory" <-- "repo.RepoObject_gross::tables_dataCategory"
"ssas.model_json_31_tables_T::tables_description" <-- "repo.RepoObject_gross::tables_description"
"ssas.model_json_31_tables_T::tables_isHidden" <-- "repo.RepoObject_gross::tables_isHidden"
"uspgenerator.GeneratorUsp::id" <-- "repo.RepoObject_gross::uspgenerator_usp_id"
@enduml

