@startuml
left to right direction
'top to bottom direction
hide circle
'avoide "." issues:
set namespaceSeparator none


skinparam class {
  BackgroundColor White
  BackgroundColor<<FN>> Yellow
  BackgroundColor<<FS>> Yellow
  BackgroundColor<<FT>> LightGray
  BackgroundColor<<IF>> Yellow
  BackgroundColor<<IS>> Yellow
  BackgroundColor<<P>> Aqua
  BackgroundColor<<PC>> Aqua
  BackgroundColor<<SN>> Yellow
  BackgroundColor<<SO>> SlateBlue
  BackgroundColor<<TF>> LightGray
  BackgroundColor<<TR>> Tomato
  BackgroundColor<<U>> White
  BackgroundColor<<V>> WhiteSmoke
  BackgroundColor<<X>> Aqua
  BackgroundColor<<external>> AliceBlue
}


entity "puml-link:dhw:sqldb:logs.usp_executionlog_insert.adoc[]" as logs.usp_ExecutionLog_insert << P >> {
  --
}

entity "puml-link:dhw:sqldb:repo.index_gross.adoc[]" as repo.Index_gross << V >> {
  AntoraIndexColumnList : (nvarchar(max))
  ColumnList : (nvarchar(max))
  ConstraintColumnList : (nvarchar(max))
  DbmlIndexColumnList : (nvarchar(max))
  - index_guid : (uniqueidentifier)
  index_name : (nvarchar(450))
  index_type : (tinyint)
  IndexPatternColumnDatatype : (nvarchar(4000))
  IndexPatternColumnName : (nvarchar(4000))
  IndexSemanticGroup : (nvarchar(512))
  - is_DocsExclude : (bit)
  is_DocsOutput : (int)
  is_index_disabled : (bit)
  is_index_primary_key : (bit)
  is_index_real : (bit)
  is_index_unique : (bit)
  is_persistence : (bit)
  is_repo_managed : (bit)
  parent_RepoObject_guid : (uniqueidentifier)
  PersistenceWhereColumnList : (nvarchar(max))
  PumlIndexColumnList : (nvarchar(max))
  referenced_index_guid : (uniqueidentifier)
  - RepoObject_fullname : (nvarchar(261))
  - RepoObject_fullname2 : (nvarchar(257))
  RowNumber_PatternPerParentObject : (bigint)
  RowNumber_PkPerParentObject : (bigint)
  - SysObject_fullname : (nvarchar(261))
  - SysObject_fullname2 : (nvarchar(257))
  SysObject_id : (int)
  - SysObject_name : (nvarchar(128))
  - SysObject_schema_name : (nvarchar(128))
  SysObject_type : (char(2))
  --
}

entity "puml-link:dhw:sqldb:repo.index_virtual.adoc[]" as repo.Index_virtual << U >> {
  - **index_guid** : (uniqueidentifier)
  - has_managedName : (bit)
  index_name : (nvarchar(128))
  - index_type : (tinyint)
  - is_index_disabled : (bit)
  - is_index_primary_key : (bit)
  - is_index_unique : (bit)
  - parent_RepoObject_guid : (uniqueidentifier)
  referenced_index_guid : (uniqueidentifier)
  RowNumberInReferencing : (int)
  --
}

entity "puml-link:dhw:sqldb:repo.index_virtual_forupdate.adoc[]" as repo.Index_virtual_ForUpdate << V >> {
  - has_managedName : (bit)
  - index_guid : (uniqueidentifier)
  index_name : (nvarchar(128))
  - index_type : (tinyint)
  IndexPatternColumnDatatype : (nvarchar(4000))
  IndexPatternColumnName : (nvarchar(4000))
  IndexSemanticGroup : (nvarchar(512))
  - is_index_disabled : (bit)
  - is_index_primary_key : (bit)
  - is_index_unique : (bit)
  is_persistence : (bit)
  is_repo_managed : (bit)
  - parent_RepoObject_guid : (uniqueidentifier)
  referenced_index_guid : (uniqueidentifier)
  - RepoObject_fullname : (nvarchar(261))
  - RepoObject_fullname2 : (nvarchar(257))
  RowNumberInReferencing : (int)
  - SysObject_fullname : (nvarchar(261))
  - SysObject_fullname2 : (nvarchar(257))
  --
}

entity "puml-link:dhw:sqldb:repo.index_virtual_indexpatterncolumnguid.adoc[]" as repo.Index_virtual_IndexPatternColumnGuid << V >> {
  - index_guid : (uniqueidentifier)
  IndexPatternColumnGuid : (varchar(8000))
  parent_RepoObject_guid : (uniqueidentifier)
  --
}

entity "puml-link:dhw:sqldb:repo.indexcolumn_virtual.adoc[]" as repo.IndexColumn_virtual << U >> {
  - **index_guid** : (uniqueidentifier)
  - **index_column_id** : (int)
  - is_descending_key : (bit)
  - RepoObjectColumn_guid : (uniqueidentifier)
  --
}

entity "puml-link:dhw:sqldb:repo.indexcolumn_virtual_referenced_setpoint.adoc[]" as repo.IndexColumn_virtual_referenced_setpoint << V >> {
  - **index_guid** : (uniqueidentifier)
  - **index_column_id** : (int)
  is_descending_key : (bit)
  referenced_index_guid : (uniqueidentifier)
  referenced_RepoObject_guid : (uniqueidentifier)
  referenced_RepoObjectColumn_guid : (uniqueidentifier)
  referencing_RepoObject_guid : (uniqueidentifier)
  referencing_RepoObjectColumn_guid : (uniqueidentifier)
  RowNumberInReferencing : (int)
  --
}

entity "puml-link:dhw:sqldb:repo.indexreferencedreferencing_hasfullcolumnsinreferencing.adoc[]" as repo.IndexReferencedReferencing_HasFullColumnsInReferencing << V >> {
  referenced_index_guid : (uniqueidentifier)
  - referenced_RepoObject_guid : (uniqueidentifier)
  referencing_IndexPatternColumnGuid : (varchar(8000))
  - referencing_RepoObject_guid : (uniqueidentifier)
  RowNumberInReferencing : (bigint)
  RowNumberInReferencing_Target : (int)
  source_index_guid : (uniqueidentifier)
  - source_index_type : (tinyint)
  --
}

entity "puml-link:dhw:sqldb:repo.usp_index_finish.adoc[]" as repo.usp_Index_finish << P >> {
  --
}

entity "puml-link:dhw:sqldb:repo.usp_index_inheritance.adoc[]" as repo.usp_index_inheritance << P >> {
  --
}

entity "puml-link:dhw:sqldb:repo.usp_main.adoc[]" as repo.usp_main << P >> {
  --
}

entity "puml-link:dhw:sqldb:repo.usp_persist_indexcolumn_referencedreferencing_hasfullcolumnsinreferencing_t.adoc[]" as repo.usp_PERSIST_IndexColumn_ReferencedReferencing_HasFullColumnsInReferencing_T << P >> {
  --
}

logs.usp_ExecutionLog_insert <.. repo.usp_index_inheritance
repo.Index_gross <.. repo.usp_index_inheritance
repo.Index_virtual <.. repo.usp_index_inheritance
repo.Index_virtual_ForUpdate <.. repo.usp_index_inheritance
repo.Index_virtual_IndexPatternColumnGuid <.. repo.usp_index_inheritance
repo.IndexColumn_virtual <.. repo.usp_index_inheritance
repo.IndexColumn_virtual_referenced_setpoint <.. repo.usp_index_inheritance
repo.IndexReferencedReferencing_HasFullColumnsInReferencing <.. repo.usp_index_inheritance
repo.usp_Index_finish <.. repo.usp_index_inheritance
repo.usp_index_inheritance <.. repo.usp_main
repo.usp_PERSIST_IndexColumn_ReferencedReferencing_HasFullColumnsInReferencing_T <.. repo.usp_index_inheritance
footer The diagram is interactive and contains links.
@enduml

