@startuml
left to right direction
'top to bottom direction
hide circle
'avoide "." issues:
set namespaceSeparator none


skinparam class {
  BackgroundColor White
  BackgroundColor<<FN>> Yellow
  BackgroundColor<<FS>> Yellow
  BackgroundColor<<FT>> LightGray
  BackgroundColor<<IF>> Yellow
  BackgroundColor<<IS>> Yellow
  BackgroundColor<<P>> Aqua
  BackgroundColor<<PC>> Aqua
  BackgroundColor<<SN>> Yellow
  BackgroundColor<<SO>> SlateBlue
  BackgroundColor<<TF>> LightGray
  BackgroundColor<<TR>> Tomato
  BackgroundColor<<U>> White
  BackgroundColor<<V>> WhiteSmoke
  BackgroundColor<<X>> Aqua
  BackgroundColor<<external>> AliceBlue
}


entity "puml-link:dhw:sqldb:repo.repoobjectcolumn_ssas_src.adoc[]" as repo.RepoObjectColumn_SSAS_src << V >> {
  - **RepoObjectColumn_guid** : (uniqueidentifier)
  --
  - is_SysObjectColumn_missing : (int)
  - Repo_is_nullable : (bit)
  Repo_user_type_fullname : (nvarchar(500))
  Repo_user_type_name : (nvarchar(500))
  - RepoObject_guid : (uniqueidentifier)
  - RepoObjectColumn_name : (nvarchar(128))
  - SysObjectColumn_name : (nvarchar(128))
  --
  --
}

entity "puml-link:dhw:sqldb:repo.repoobjectcolumn_ssas_tgt.adoc[]" as repo.RepoObjectColumn_SSAS_tgt << V >> {
  - **RepoObjectColumn_guid** : (uniqueidentifier)
  --
  Inheritance_StringAggSeparatorSql : (nvarchar(4000))
  InheritanceDefinition : (nvarchar(4000))
  InheritanceType : (tinyint)
  is_persistence_no_check : (bit)
  is_persistence_no_include : (bit)
  is_persistence_no_update : (bit)
  is_query_plan_expression : (bit)
  is_required_ColumnMerge : (bit)
  - is_SysObjectColumn_missing : (int)
  persistence_source_RepoObjectColumn_guid : (uniqueidentifier)
  Referencing_Count : (int)
  Repo_default_definition : (nvarchar(max))
  Repo_default_is_system_named : (bit)
  Repo_default_name : (nvarchar(128))
  Repo_definition : (nvarchar(max))
  - Repo_generated_always_type : (tinyint)
  Repo_graph_type : (int)
  Repo_increment_value : (sql_variant)
  - Repo_is_computed : (bit)
  - Repo_is_identity : (bit)
  - Repo_is_nullable : (bit)
  Repo_is_persisted : (bit)
  Repo_seed_value : (sql_variant)
  Repo_user_type_fullname : (nvarchar(500))
  Repo_user_type_name : (nvarchar(500))
  Repo_uses_database_collation : (bit)
  - RepoObject_guid : (uniqueidentifier)
  RepoObjectColumn_column_id : (int)
  - RepoObjectColumn_name : (nvarchar(128))
  SysObjectColumn_column_id : (int)
  - SysObjectColumn_name : (nvarchar(128))
  --
  --
}

entity "puml-link:dhw:sqldb:repo.usp_persist_repoobjectcolumn_ssas_tgt.adoc[]" as repo.usp_PERSIST_RepoObjectColumn_SSAS_tgt << P >> {
  --
  --
  --
}

entity "puml-link:dhw:sqldb:ssas.model_json_311_tables_columns_t.adoc[]" as ssas.model_json_311_tables_columns_T << U >> {
  - **databasename** : (nvarchar(128))
  - **tables_name** : (nvarchar(128))
  **tables_columns_name** : (nvarchar(128))
  --
  - RepoObject_guid : (uniqueidentifier)
  - RepoObjectColumn_guid : (uniqueidentifier)
  tables_columns_dataType : (nvarchar(500))
  tables_columns_description : (nvarchar(max))
  tables_columns_description_ja : (nvarchar(max))
  tables_columns_displayFolder : (nvarchar(500))
  tables_columns_expression : (nvarchar(max))
  tables_columns_expression_ja : (nvarchar(max))
  tables_columns_formatString : (nvarchar(500))
  tables_columns_isDataTypeInferred : (bit)
  tables_columns_isHidden : (bit)
  tables_columns_isKey : (bit)
  tables_columns_isNameInferred : (bit)
  tables_columns_isNullable : (bit)
  tables_columns_isUnique : (bit)
  tables_columns_keepUniqueRows : (bit)
  tables_columns_sortByColumn : (nvarchar(500))
  tables_columns_sourceColumn : (nvarchar(500))
  tables_columns_sourceProviderType : (nvarchar(500))
  tables_columns_summarizeBy : (nvarchar(500))
  tables_columns_type : (nvarchar(500))
  --
  --
}

repo.RepoObjectColumn_SSAS_src <.. repo.RepoObjectColumn_SSAS_tgt
repo.RepoObjectColumn_SSAS_src <.. repo.usp_PERSIST_RepoObjectColumn_SSAS_tgt
ssas.model_json_311_tables_columns_T <.. repo.RepoObjectColumn_SSAS_src
"repo.RepoObjectColumn_SSAS_src::is_SysObjectColumn_missing" <-- "repo.RepoObjectColumn_SSAS_tgt::is_SysObjectColumn_missing"
"repo.RepoObjectColumn_SSAS_src::Repo_is_nullable" <-- "repo.RepoObjectColumn_SSAS_tgt::Repo_is_nullable"
"repo.RepoObjectColumn_SSAS_src::Repo_user_type_fullname" <-- "repo.RepoObjectColumn_SSAS_tgt::Repo_user_type_fullname"
"repo.RepoObjectColumn_SSAS_src::Repo_user_type_name" <-- "repo.RepoObjectColumn_SSAS_tgt::Repo_user_type_name"
"repo.RepoObjectColumn_SSAS_src::RepoObject_guid" <-- "repo.RepoObjectColumn_SSAS_tgt::RepoObject_guid"
"repo.RepoObjectColumn_SSAS_src::RepoObjectColumn_guid" <-- "repo.RepoObjectColumn_SSAS_tgt::RepoObjectColumn_guid"
"repo.RepoObjectColumn_SSAS_src::RepoObjectColumn_name" <-- "repo.RepoObjectColumn_SSAS_tgt::RepoObjectColumn_name"
"repo.RepoObjectColumn_SSAS_src::SysObjectColumn_name" <-- "repo.RepoObjectColumn_SSAS_tgt::SysObjectColumn_name"
"ssas.model_json_311_tables_columns_T::RepoObject_guid" <-- "repo.RepoObjectColumn_SSAS_src::RepoObject_guid"
"ssas.model_json_311_tables_columns_T::RepoObjectColumn_guid" <-- "repo.RepoObjectColumn_SSAS_src::RepoObjectColumn_guid"
"ssas.model_json_311_tables_columns_T::tables_columns_dataType" <-- "repo.RepoObjectColumn_SSAS_src::Repo_user_type_name"
"ssas.model_json_311_tables_columns_T::tables_columns_dataType" <-- "repo.RepoObjectColumn_SSAS_src::Repo_user_type_fullname"
"ssas.model_json_311_tables_columns_T::tables_columns_name" <-- "repo.RepoObjectColumn_SSAS_src::RepoObjectColumn_name"
"ssas.model_json_311_tables_columns_T::tables_columns_name" <-- "repo.RepoObjectColumn_SSAS_src::SysObjectColumn_name"
@enduml

