@startuml
left to right direction
'top to bottom direction
hide circle
'avoide "." issues:
set namespaceSeparator none


skinparam class {
  BackgroundColor White
  BackgroundColor<<FN>> Yellow
  BackgroundColor<<FS>> Yellow
  BackgroundColor<<FT>> LightGray
  BackgroundColor<<IF>> Yellow
  BackgroundColor<<IS>> Yellow
  BackgroundColor<<P>> Aqua
  BackgroundColor<<PC>> Aqua
  BackgroundColor<<SN>> Yellow
  BackgroundColor<<SO>> SlateBlue
  BackgroundColor<<TF>> LightGray
  BackgroundColor<<TR>> Tomato
  BackgroundColor<<U>> White
  BackgroundColor<<V>> WhiteSmoke
  BackgroundColor<<X>> Aqua
  BackgroundColor<<external>> AliceBlue
}


entity "puml-link:dhw:sqldb:config.fs_get_parameter_value.adoc[]" as config.fs_get_parameter_value << FN >> {
  --
  --
  --
}

entity "puml-link:dhw:sqldb:configt.type_level1type_level2type.adoc[]" as configT.type_level1type_level2type << V >> {
  **type** : (nvarchar(128))
  --
  level1type : (varchar(9))
  level2type : (varchar(10))
  type_desc : (nvarchar(128))
  --
  --
}

entity "puml-link:dhw:sqldb:logs.usp_executionlog_insert.adoc[]" as logs.usp_ExecutionLog_insert << P >> {
  --
  --
  --
}

entity "puml-link:dhw:sqldb:reference.repoobjectcolumnsource_virtual.adoc[]" as reference.RepoObjectColumnSource_virtual << U >> {
  - **RepoObjectColumn_guid** : (uniqueidentifier)
  - **Source_RepoObjectColumn_guid** : (uniqueidentifier)
  --
  --
  --
}

entity "puml-link:dhw:sqldb:repo.indexcolumn_virtual.adoc[]" as repo.IndexColumn_virtual << U >> {
  - **index_guid** : (uniqueidentifier)
  - **index_column_id** : (int)
  --
  - is_descending_key : (bit)
  - RepoObjectColumn_guid : (uniqueidentifier)
  --
  --
}

entity "puml-link:dhw:sqldb:repo.repoobject.adoc[]" as repo.RepoObject << U >> {
  - **RepoObject_guid** : (uniqueidentifier)
  --
  external_AntoraComponent : (nvarchar(128))
  external_AntoraModule : (nvarchar(128))
  has_execution_plan_issue : (bit)
  has_get_referenced_issue : (bit)
  Inheritance_Source_fullname : (nvarchar(261))
  Inheritance_StringAggSeparatorSql : (nvarchar(4000))
  InheritanceDefinition : (nvarchar(4000))
  InheritanceType : (tinyint)
  - is_DocsExclude : (bit)
  - is_external : (bit)
  is_repo_managed : (bit)
  is_required_ObjectMerge : (bit)
  - is_ssas : (bit)
  is_SysObject_missing : (bit)
  - modify_dt : (datetime)
  pk_index_guid : (uniqueidentifier)
  pk_IndexPatternColumnName_new : (nvarchar(4000))
  Repo_history_table_guid : (uniqueidentifier)
  Repo_temporal_type : (tinyint)
  - RepoObject_name : (nvarchar(128))
  RepoObject_Referencing_Count : (int)
  - RepoObject_schema_name : (nvarchar(128))
  - RepoObject_type : (char(2))
  SysObject_id : (int)
  SysObject_modify_date : (datetime)
  - SysObject_name : (nvarchar(128))
  - SysObject_parent_object_id : (int)
  - SysObject_schema_name : (nvarchar(128))
  SysObject_type : (char(2))
  ~ has_different_sys_names : (bit)
  # is_RepoObject_name_uniqueidentifier : (int)
  # is_SysObject_name_uniqueidentifier : (int)
  ~ node_id : (bigint)
  # RepoObject_fullname : (nvarchar(261))
  # RepoObject_fullname2 : (nvarchar(257))
  # SysObject_fullname : (nvarchar(261))
  # SysObject_fullname2 : (nvarchar(257))
  ~ SysObject_query_sql : (nvarchar(406))
  # usp_persistence_fullname2 : (nvarchar(269))
  # usp_persistence_name : (nvarchar(140))
  --
  --
}

entity "puml-link:dhw:sqldb:repo.repoobject_persistence.adoc[]" as repo.RepoObject_persistence << U >> {
  - **target_RepoObject_guid** : (uniqueidentifier)
  --
  - has_history : (bit)
  - has_history_columns : (bit)
  history_schema_name : (nvarchar(128))
  history_table_name : (nvarchar(128))
  - is_persistence_check_duplicate_per_pk : (bit)
  - is_persistence_check_for_empty_source : (bit)
  - is_persistence_delete_changed : (bit)
  - is_persistence_delete_missing : (bit)
  - is_persistence_insert : (bit)
  - is_persistence_merge_delete_missing : (bit)
  - is_persistence_merge_insert : (bit)
  - is_persistence_merge_update_changed : (bit)
  - is_persistence_truncate : (bit)
  - is_persistence_update_changed : (bit)
  source_filter : (nvarchar(4000))
  source_RepoObject_guid : (uniqueidentifier)
  source_RepoObject_name : (nvarchar(128))
  target_filter : (nvarchar(4000))
  ~ is_persistence : (bit)
  ~ temporal_type : (tinyint)
  --
  --
}

entity "puml-link:dhw:sqldb:repo.repoobjectcolumn.adoc[]" as repo.RepoObjectColumn << U >> {
  - **RepoObjectColumn_guid** : (uniqueidentifier)
  --
  Inheritance_StringAggSeparatorSql : (nvarchar(4000))
  InheritanceDefinition : (nvarchar(4000))
  InheritanceType : (tinyint)
  is_persistence_no_check : (bit)
  is_persistence_no_include : (bit)
  is_persistence_no_update : (bit)
  is_query_plan_expression : (bit)
  is_required_ColumnMerge : (bit)
  is_SysObjectColumn_missing : (bit)
  persistence_source_RepoObjectColumn_guid : (uniqueidentifier)
  Referencing_Count : (int)
  Repo_default_definition : (nvarchar(max))
  Repo_default_is_system_named : (bit)
  Repo_default_name : (nvarchar(128))
  Repo_definition : (nvarchar(max))
  - Repo_generated_always_type : (tinyint)
  Repo_graph_type : (int)
  Repo_increment_value : (sql_variant)
  - Repo_is_computed : (bit)
  - Repo_is_identity : (bit)
  Repo_is_nullable : (bit)
  Repo_is_persisted : (bit)
  Repo_seed_value : (sql_variant)
  Repo_user_type_fullname : (nvarchar(128))
  Repo_user_type_name : (nvarchar(128))
  Repo_uses_database_collation : (bit)
  - RepoObject_guid : (uniqueidentifier)
  RepoObjectColumn_column_id : (int)
  - RepoObjectColumn_name : (nvarchar(128))
  SysObjectColumn_column_id : (int)
  - SysObjectColumn_name : (nvarchar(128))
  # Column_name : (nvarchar(128))
  ~ has_different_sys_names : (bit)
  # is_RepoObjectColumn_name_uniqueidentifier : (int)
  # is_SysObjectColumn_name_uniqueidentifier : (int)
  --
  --
}

entity "puml-link:dhw:sqldb:repo.repoobjectcolumn_gross.adoc[]" as repo.RepoObjectColumn_gross << V >> {
  --
  - Column_name : (nvarchar(128))
  Description : (nvarchar(max))
  has_different_sys_names : (bit)
  has_get_referenced_issue : (bit)
  Inheritance_StringAggSeparatorSql : (nvarchar(4000))
  InheritanceDefinition : (nvarchar(4000))
  InheritanceType : (tinyint)
  - is_external : (bit)
  is_persistence_no_check : (bit)
  is_persistence_no_include : (bit)
  is_persistence_no_update : (bit)
  is_query_plan_expression : (bit)
  is_repo_managed : (bit)
  - is_RepoObject_name_uniqueidentifier : (int)
  - is_RepoObjectColumn_name_uniqueidentifier : (int)
  is_required_ColumnMerge : (bit)
  - is_ssas : (bit)
  is_SysObject_missing : (bit)
  - is_SysObject_name_uniqueidentifier : (int)
  is_SysObjectColumn_missing : (bit)
  - is_SysObjectColumn_name_uniqueidentifier : (int)
  - modify_dt : (datetime)
  node_id : (bigint)
  persistence_source_RepoObject_guid : (uniqueidentifier)
  persistence_source_RepoObjectColumn_guid : (uniqueidentifier)
  pk_index_guid : (uniqueidentifier)
  Property_ms_description : (nvarchar(4000))
  Referencing_Count : (int)
  Repo_default_definition : (nvarchar(max))
  Repo_default_is_system_named : (bit)
  Repo_default_name : (nvarchar(128))
  Repo_definition : (nvarchar(max))
  - Repo_generated_always_type : (tinyint)
  Repo_graph_type : (int)
  Repo_increment_value : (sql_variant)
  - Repo_is_computed : (bit)
  - Repo_is_identity : (bit)
  Repo_is_nullable : (bit)
  Repo_is_persisted : (bit)
  Repo_seed_value : (sql_variant)
  Repo_user_type_fullname : (nvarchar(128))
  Repo_user_type_name : (nvarchar(128))
  Repo_uses_database_collation : (bit)
  - RepoObject_fullname : (nvarchar(261))
  - RepoObject_fullname2 : (nvarchar(257))
  - RepoObject_guid : (uniqueidentifier)
  - RepoObject_name : (nvarchar(128))
  RepoObject_Referencing_Count : (int)
  - RepoObject_schema_name : (nvarchar(128))
  - RepoObject_type : (char(2))
  RepoObjectColumn_column_id : (int)
  - RepoObjectColumn_fullname : (nvarchar(520))
  - RepoObjectColumn_fullname2 : (nvarchar(386))
  - RepoObjectColumn_guid : (uniqueidentifier)
  - RepoObjectColumn_name : (nvarchar(128))
  - SysObject_fullname : (nvarchar(261))
  - SysObject_fullname2 : (nvarchar(257))
  SysObject_id : (int)
  SysObject_modify_date : (datetime)
  - SysObject_name : (nvarchar(128))
  - SysObject_parent_object_id : (int)
  - SysObject_schema_name : (nvarchar(128))
  SysObject_type : (char(2))
  SysObjectColumn_column_id : (int)
  - SysObjectColumn_name : (nvarchar(128))
  tabcol_Description : (nvarchar(max))
  tabcol_DisplayFolder : (nvarchar(500))
  tabcol_Expression : (nvarchar(max))
  tabcol_FormatString : (nvarchar(500))
  - tabcol_IsHidden : (bit)
  - tabcol_IsKey : (bit)
  - tabcol_IsUnique : (bit)
  tabcol_SummarizeBy : (nvarchar(500))
  tabcol_Type : (nvarchar(500))
  --
  --
}

entity "puml-link:dhw:sqldb:repo.repoobjectcolumn_histvalidcolums_setpoint.adoc[]" as repo.RepoObjectColumn_HistValidColums_setpoint << V >> {
  - **RepoObject_guid** : (uniqueidentifier)
  **RepoObjectColumn_name** : (sysname)
  --
  - Repo_generated_always_type : (int)
  - Repo_is_nullable : (int)
  - Repo_user_type_fullname : (varchar(12))
  - Repo_user_type_name : (varchar(9))
  --
  --
}

entity "puml-link:dhw:sqldb:repo.repoobjectcolumn_requiredrepoobjectcolumnmerge.adoc[]" as repo.RepoObjectColumn_RequiredRepoObjectColumnMerge << V >> {
  --
  - is_RepoObjectColumn_name_uniqueidentifier : (int)
  - is_SysObjectColumn_name_uniqueidentifier : (int)
  persistence_source_RepoObjectColumn_guid : (uniqueidentifier)
  - RepoObject_guid : (uniqueidentifier)
  - RepoObjectColumn_guid : (uniqueidentifier)
  - RepoObjectColumn_name : (nvarchar(128))
  roc2_persistence_source_RepoObjectColumn_guid : (uniqueidentifier)
  - roc2_RepoObjectColumn_guid : (uniqueidentifier)
  - roc2_RepoObjectColumn_name : (nvarchar(128))
  - roc2_SysObjectColumn_name : (nvarchar(128))
  - SysObjectColumn_name : (nvarchar(128))
  --
  --
}

entity "puml-link:dhw:sqldb:repo.syscolumn_repoobjectcolumn_via_guid.adoc[]" as repo.SysColumn_RepoObjectColumn_via_guid << V >> {
  --
  default_definition : (nvarchar(max))
  default_is_system_named : (bit)
  default_name : (sysname)
  definition : (nvarchar(max))
  generated_always_type : (tinyint)
  graph_type : (int)
  has_different_sys_names : (bit)
  increment_value : (sql_variant)
  - is_computed : (bit)
  - is_identity : (bit)
  is_nullable : (bit)
  is_persisted : (bit)
  is_query_plan_expression : (bit)
  is_repo_managed : (bit)
  is_RepoObjectColumn_name_uniqueidentifier : (int)
  is_SysObjectColumn_missing : (bit)
  is_SysObjectColumn_name_uniqueidentifier : (int)
  persistence_source_RepoObjectColumn_guid : (uniqueidentifier)
  Referencing_Count : (int)
  Repo_default_definition : (nvarchar(max))
  Repo_default_is_system_named : (bit)
  Repo_default_name : (nvarchar(128))
  Repo_definition : (nvarchar(max))
  Repo_generated_always_type : (tinyint)
  Repo_graph_type : (int)
  Repo_increment_value : (sql_variant)
  Repo_is_computed : (bit)
  Repo_is_identity : (bit)
  Repo_is_nullable : (bit)
  Repo_is_persisted : (bit)
  Repo_seed_value : (sql_variant)
  Repo_user_type_fullname : (nvarchar(128))
  Repo_user_type_name : (nvarchar(128))
  Repo_uses_database_collation : (bit)
  - RepoObject_fullname : (nvarchar(261))
  RepoObject_guid : (uniqueidentifier)
  RepoObjectColumn_guid : (uniqueidentifier)
  RepoObjectColumn_name : (nvarchar(128))
  RowNumberOverName : (bigint)
  seed_value : (sql_variant)
  - SysObject_column_id : (int)
  SysObject_column_name : (sysname)
  - SysObject_fullname : (nvarchar(261))
  - SysObject_id : (int)
  SysObject_name : (nvarchar(128))
  SysObject_RepoObject_guid : (uniqueidentifier)
  SysObject_RepoObjectColumn_guid : (uniqueidentifier)
  SysObject_schema_name : (nvarchar(128))
  SysObject_type : (char(2))
  SysObjectColumn_column_id : (int)
  SysObjectColumn_name : (nvarchar(128))
  user_type_fullname : (nvarchar(182))
  user_type_name : (sysname)
  uses_database_collation : (bit)
  --
  --
}

entity "puml-link:dhw:sqldb:repo.syscolumn_repoobjectcolumn_via_name.adoc[]" as repo.SysColumn_RepoObjectColumn_via_name << V >> {
  --
  default_definition : (nvarchar(max))
  default_is_system_named : (bit)
  default_name : (sysname)
  definition : (nvarchar(max))
  generated_always_type : (tinyint)
  graph_type : (int)
  has_different_sys_names : (bit)
  increment_value : (sql_variant)
  - is_computed : (bit)
  - is_identity : (bit)
  is_nullable : (bit)
  is_persisted : (bit)
  is_query_plan_expression : (bit)
  is_repo_managed : (bit)
  is_RepoObjectColumn_name_uniqueidentifier : (int)
  is_SysObjectColumn_missing : (bit)
  is_SysObjectColumn_name_uniqueidentifier : (int)
  persistence_source_RepoObjectColumn_guid : (uniqueidentifier)
  Referencing_Count : (int)
  Repo_default_definition : (nvarchar(max))
  Repo_default_is_system_named : (bit)
  Repo_default_name : (nvarchar(128))
  Repo_definition : (nvarchar(max))
  Repo_generated_always_type : (tinyint)
  Repo_graph_type : (int)
  Repo_increment_value : (sql_variant)
  Repo_is_computed : (bit)
  Repo_is_identity : (bit)
  Repo_is_nullable : (bit)
  Repo_is_persisted : (bit)
  Repo_seed_value : (sql_variant)
  Repo_user_type_fullname : (nvarchar(128))
  Repo_user_type_name : (nvarchar(128))
  Repo_uses_database_collation : (bit)
  RepoObject_fullname : (nvarchar(261))
  RepoObject_guid : (uniqueidentifier)
  RepoObjectColumn_guid : (uniqueidentifier)
  RepoObjectColumn_name : (nvarchar(128))
  RowNumberOverName : (bigint)
  seed_value : (sql_variant)
  - SysObject_column_id : (int)
  SysObject_column_name : (sysname)
  SysObject_fullname : (nvarchar(261))
  - SysObject_id : (int)
  SysObject_name : (nvarchar(128))
  SysObject_RepoObject_guid : (uniqueidentifier)
  SysObject_RepoObjectColumn_guid : (uniqueidentifier)
  SysObject_schema_name : (nvarchar(128))
  SysObject_type : (char(2))
  SysObjectColumn_column_id : (int)
  SysObjectColumn_name : (nvarchar(128))
  user_type_fullname : (nvarchar(182))
  user_type_name : (sysname)
  uses_database_collation : (bit)
  --
  --
}

entity "puml-link:dhw:sqldb:repo.usp_sync_guid.adoc[]" as repo.usp_sync_guid << P >> {
  --
  --
  --
}

entity "puml-link:dhw:sqldb:repo.usp_sync_guid_repoobjectcolumn.adoc[]" as repo.usp_sync_guid_RepoObjectColumn << P >> {
  --
  --
  --
}

entity "puml-link:dhw:sqldb:repo_sys.syscolumn.adoc[]" as repo_sys.SysColumn << V >> {
  --
  collation_name : (sysname)
  column_encryption_key_database_name : (sysname)
  column_encryption_key_id : (int)
  default_definition : (nvarchar(max))
  default_is_system_named : (bit)
  default_name : (sysname)
  - default_object_id : (int)
  default_parent_column_id : (int)
  definition : (nvarchar(max))
  encryption_algorithm_name : (sysname)
  encryption_type : (int)
  encryption_type_desc : (nvarchar(64))
  generated_always_type : (tinyint)
  generated_always_type_desc : (nvarchar(60))
  graph_type : (int)
  graph_type_desc : (nvarchar(60))
  increment_value : (sql_variant)
  - is_ansi_padded : (bit)
  is_column_set : (bit)
  - is_computed : (bit)
  is_dts_replicated : (bit)
  - is_filestream : (bit)
  is_hidden : (bit)
  - is_identity : (bit)
  - is_masked : (bit)
  is_merge_published : (bit)
  is_non_sql_subscribed : (bit)
  is_nullable : (bit)
  is_persisted : (bit)
  is_replicated : (bit)
  - is_rowguidcol : (bit)
  is_sparse : (bit)
  - is_xml_document : (bit)
  last_value : (sql_variant)
  - max_length : (smallint)
  - precision : (tinyint)
  - rule_object_id : (int)
  - scale : (tinyint)
  seed_value : (sql_variant)
  - SysObject_column_id : (int)
  SysObject_column_name : (sysname)
  SysObject_fullname : (nvarchar(517))
  SysObject_fullname2 : (nvarchar(257))
  - SysObject_id : (int)
  SysObject_name : (nvarchar(128))
  SysObject_RepoObject_guid : (uniqueidentifier)
  SysObject_RepoObjectColumn_guid : (uniqueidentifier)
  SysObject_schema_name : (nvarchar(128))
  SysObject_type : (char(2))
  SysObject_type_desc : (nvarchar(60))
  - system_type_id : (tinyint)
  user_type_fullname : (nvarchar(182))
  - user_type_id : (int)
  user_type_name : (sysname)
  uses_database_collation : (bit)
  - xml_collection_id : (int)
  --
  --
}

entity "puml-link:dhw:sqldb:repo_sys.usp_addorupdateextendedproperty.adoc[]" as repo_sys.usp_AddOrUpdateExtendedProperty << P >> {
  --
  --
  --
}

config.fs_get_parameter_value <.. repo.usp_sync_guid_RepoObjectColumn
configT.type_level1type_level2type <.. repo.usp_sync_guid_RepoObjectColumn
logs.usp_ExecutionLog_insert <.. repo.usp_sync_guid_RepoObjectColumn
reference.RepoObjectColumnSource_virtual <.. repo.usp_sync_guid_RepoObjectColumn
repo.IndexColumn_virtual <.. repo.usp_sync_guid_RepoObjectColumn
repo.RepoObject <.. repo.usp_sync_guid_RepoObjectColumn
repo.RepoObject_persistence <.. repo.usp_sync_guid_RepoObjectColumn
repo.RepoObjectColumn <.. repo.usp_sync_guid_RepoObjectColumn
repo.RepoObjectColumn_gross <.. repo.usp_sync_guid_RepoObjectColumn
repo.RepoObjectColumn_HistValidColums_setpoint <.. repo.usp_sync_guid_RepoObjectColumn
repo.RepoObjectColumn_RequiredRepoObjectColumnMerge <.. repo.usp_sync_guid_RepoObjectColumn
repo.SysColumn_RepoObjectColumn_via_guid <.. repo.usp_sync_guid_RepoObjectColumn
repo.SysColumn_RepoObjectColumn_via_name <.. repo.usp_sync_guid_RepoObjectColumn
repo.usp_sync_guid_RepoObjectColumn <.. repo.usp_sync_guid
repo_sys.SysColumn <.. repo.usp_sync_guid_RepoObjectColumn
repo_sys.usp_AddOrUpdateExtendedProperty <.. repo.usp_sync_guid_RepoObjectColumn

@enduml

