@startuml
left to right direction
'top to bottom direction
hide circle
'avoide "." issues:
set namespaceSeparator none


skinparam class {
  BackgroundColor White
  BackgroundColor<<FN>> Yellow
  BackgroundColor<<FS>> Yellow
  BackgroundColor<<FT>> LightGray
  BackgroundColor<<IF>> Yellow
  BackgroundColor<<IS>> Yellow
  BackgroundColor<<P>> Aqua
  BackgroundColor<<PC>> Aqua
  BackgroundColor<<SN>> Yellow
  BackgroundColor<<SO>> SlateBlue
  BackgroundColor<<TF>> LightGray
  BackgroundColor<<TR>> Tomato
  BackgroundColor<<U>> White
  BackgroundColor<<V>> WhiteSmoke
  BackgroundColor<<X>> Aqua
  BackgroundColor<<external>> AliceBlue
}


entity "puml-link:dhw:sqldb:repo.indexcolumn_ssas_gross.adoc[]" as repo.IndexColumn_ssas_gross << V >> {
  column_user_type_fullname : (nvarchar(128))
  - index_column_id : (int)
  - index_guid : (uniqueidentifier)
  - index_name : (nvarchar(450))
  is_descending_key : (bit)
  - is_index_primary_key : (bit)
  is_index_real : (bit)
  - is_index_unique : (bit)
  - Object_column_name : (nvarchar(128))
  parent_Object_fullname : (nvarchar(261))
  parent_Object_name : (nvarchar(128))
  - parent_RepoObject_guid : (uniqueidentifier)
  parent_schema_name : (nvarchar(128))
  - RepoObjectColumn_guid : (uniqueidentifier)
  --
}

entity "puml-link:dhw:sqldb:repo.indexcolumn_union.adoc[]" as repo.IndexColumn_union << V >> {
  **index_guid** : (uniqueidentifier)
  - **index_column_id** : (int)
  index_name : (nvarchar(450))
  is_descending_key : (bit)
  is_index_primary_key : (bit)
  is_index_real : (bit)
  is_index_unique : (bit)
  parent_RepoObject_guid : (uniqueidentifier)
  parent_schema_name : (nvarchar(128))
  parent_SysObject_fullname : (nvarchar(261))
  parent_SysObject_name : (nvarchar(128))
  RepoObjectColumn_guid : (uniqueidentifier)
  SysObject_column_name : (nvarchar(128))
  SysObject_column_user_type_fullname : (nvarchar(182))
  --
}

entity "puml-link:dhw:sqldb:repo.indexcolumn_union_t.adoc[]" as repo.IndexColumn_union_T << U >> {
  **index_guid** : (uniqueidentifier)
  - **index_column_id** : (int)
  index_name : (nvarchar(450))
  is_descending_key : (bit)
  is_index_primary_key : (bit)
  is_index_real : (bit)
  is_index_unique : (bit)
  parent_RepoObject_guid : (uniqueidentifier)
  parent_schema_name : (nvarchar(128))
  parent_SysObject_fullname : (nvarchar(261))
  parent_SysObject_name : (nvarchar(128))
  RepoObjectColumn_guid : (uniqueidentifier)
  SysObject_column_name : (nvarchar(128))
  SysObject_column_user_type_fullname : (nvarchar(182))
  --
}

entity "puml-link:dhw:sqldb:repo.indexcolumn_virtual_gross.adoc[]" as repo.IndexColumn_virtual_gross << V >> {
  - **index_column_id** : (int)
  column_user_type_fullname : (nvarchar(128))
  - index_guid : (uniqueidentifier)
  index_name : (nvarchar(128))
  - is_descending_key : (bit)
  - is_index_primary_key : (bit)
  is_index_real : (bit)
  - is_index_unique : (bit)
  - Object_column_name : (nvarchar(128))
  parent_Object_fullname : (nvarchar(261))
  parent_Object_name : (nvarchar(128))
  - parent_RepoObject_guid : (uniqueidentifier)
  parent_schema_name : (nvarchar(128))
  - RepoObjectColumn_guid : (uniqueidentifier)
  --
}

entity "puml-link:dhw:sqldb:repo.usp_persist_indexcolumn_union_t.adoc[]" as repo.usp_PERSIST_IndexColumn_union_T << P >> {
  --
}

entity "puml-link:dhw:sqldb:repo_sys.indexcolumn_unique.adoc[]" as repo_sys.IndexColumn_unique << V >> {
  - index_column_id : (int)
  index_guid : (uniqueidentifier)
  - index_id : (int)
  index_name : (sysname)
  is_descending_key : (bit)
  is_index_primary_key : (bit)
  is_index_real : (bit)
  is_index_unique : (bit)
  parent_RepoObject_guid : (uniqueidentifier)
  parent_schema_name : (nvarchar(128))
  parent_SysObject_fullname : (nvarchar(261))
  parent_SysObject_name : (nvarchar(128))
  RepoObjectColumn_guid : (uniqueidentifier)
  SysObject_column_name : (sysname)
  SysObject_column_user_type_fullname : (nvarchar(182))
  --
}

repo.IndexColumn_ssas_gross <.. repo.IndexColumn_union
repo.IndexColumn_union <.. repo.IndexColumn_union_T
repo.IndexColumn_union <.. repo.usp_PERSIST_IndexColumn_union_T
repo.IndexColumn_virtual_gross <.. repo.IndexColumn_union
repo_sys.IndexColumn_unique <.. repo.IndexColumn_union
"repo.IndexColumn_union::index_column_id" <-- "repo.IndexColumn_union_T::index_column_id"
"repo.IndexColumn_union::index_guid" <-- "repo.IndexColumn_union_T::index_guid"
"repo.IndexColumn_union::index_name" <-- "repo.IndexColumn_union_T::index_name"
"repo.IndexColumn_union::is_descending_key" <-- "repo.IndexColumn_union_T::is_descending_key"
"repo.IndexColumn_union::is_index_primary_key" <-- "repo.IndexColumn_union_T::is_index_primary_key"
"repo.IndexColumn_union::is_index_real" <-- "repo.IndexColumn_union_T::is_index_real"
"repo.IndexColumn_union::is_index_unique" <-- "repo.IndexColumn_union_T::is_index_unique"
"repo.IndexColumn_union::parent_RepoObject_guid" <-- "repo.IndexColumn_union_T::parent_RepoObject_guid"
"repo.IndexColumn_union::parent_schema_name" <-- "repo.IndexColumn_union_T::parent_schema_name"
"repo.IndexColumn_union::parent_SysObject_fullname" <-- "repo.IndexColumn_union_T::parent_SysObject_fullname"
"repo.IndexColumn_union::parent_SysObject_name" <-- "repo.IndexColumn_union_T::parent_SysObject_name"
"repo.IndexColumn_union::RepoObjectColumn_guid" <-- "repo.IndexColumn_union_T::RepoObjectColumn_guid"
"repo.IndexColumn_union::SysObject_column_name" <-- "repo.IndexColumn_union_T::SysObject_column_name"
"repo.IndexColumn_union::SysObject_column_user_type_fullname" <-- "repo.IndexColumn_union_T::SysObject_column_user_type_fullname"footer The diagram is interactive and contains links.
@enduml

