@startuml
left to right direction
'top to bottom direction
hide circle
'avoide "." issues:
set namespaceSeparator none


skinparam class {
  BackgroundColor White
  BackgroundColor<<FN>> Yellow
  BackgroundColor<<FS>> Yellow
  BackgroundColor<<FT>> LightGray
  BackgroundColor<<IF>> Yellow
  BackgroundColor<<IS>> Yellow
  BackgroundColor<<P>> Aqua
  BackgroundColor<<PC>> Aqua
  BackgroundColor<<SN>> Yellow
  BackgroundColor<<SO>> SlateBlue
  BackgroundColor<<TF>> LightGray
  BackgroundColor<<TR>> Tomato
  BackgroundColor<<U>> White
  BackgroundColor<<V>> WhiteSmoke
  BackgroundColor<<X>> Aqua
  BackgroundColor<<external>> AliceBlue
}


entity "puml-link:dhw:sqldb:repo.foreignkey_ssas_indexes.adoc[]" as repo.ForeignKey_ssas_Indexes << V >> {
  --
  delete_referential_action : (tinyint)
  ForeignKey_fullname : (nvarchar(517))
  - ForeignKey_guid : (uniqueidentifier)
  ForeignKey_name : (nvarchar(263))
  - is_MatchingDatatypePattern : (int)
  referenced_index_guid : (uniqueidentifier)
  referenced_index_name : (nvarchar(450))
  referenced_IndexPatternColumnDatatype : (nvarchar(500))
  referenced_IndexPatternColumnName : (nvarchar(128))
  referenced_RepoObject_fullname : (nvarchar(517))
  referenced_RepoObject_fullname2 : (nvarchar(257))
  referenced_RepoObject_guid : (uniqueidentifier)
  referenced_SysObject_name : (nvarchar(128))
  - referenced_SysObject_schema_name : (nvarchar(128))
  referencing_index_guid : (uniqueidentifier)
  referencing_index_name : (nvarchar(450))
  referencing_IndexPatternColumnDatatype : (nvarchar(500))
  referencing_IndexPatternColumnName : (nvarchar(128))
  referencing_RepoObject_fullname : (nvarchar(517))
  referencing_RepoObject_fullname2 : (nvarchar(257))
  referencing_RepoObject_guid : (uniqueidentifier)
  referencing_SysObject_name : (nvarchar(128))
  - referencing_SysObject_schema_name : (nvarchar(128))
  update_referential_action : (tinyint)
  --
  --
}

entity "puml-link:dhw:sqldb:repo.index_ssas.adoc[]" as repo.Index_ssas << V >> {
  - **databasename** : (nvarchar(128))
  **index_name** : (nvarchar(450))
  --
  - ColumnName : (nvarchar(128))
  - is_index_primary_key : (bit)
  - is_index_unique : (bit)
  - RepoObject_guid : (uniqueidentifier)
  - TableName : (nvarchar(128))
  --
  --
}

entity "puml-link:dhw:sqldb:repo.index_ssas_indexpatterncolumnguid.adoc[]" as repo.Index_ssas_IndexPatternColumnGuid << V >> {
  --
  - index_guid : (uniqueidentifier)
  IndexPatternColumnGuid : (varchar(8000))
  parent_RepoObject_guid : (uniqueidentifier)
  --
  --
}

entity "puml-link:dhw:sqldb:repo.index_ssas_t.adoc[]" as repo.Index_ssas_T << U >> {
  - **databasename** : (nvarchar(128))
  **index_name** : (nvarchar(450))
  --
  - ColumnName : (nvarchar(128))
  - index_guid : (uniqueidentifier)
  - is_index_primary_key : (bit)
  - is_index_unique : (bit)
  - RepoObject_guid : (uniqueidentifier)
  - TableID : (numeric(20, 0))
  - TableName : (nvarchar(128))
  --
  --
}

entity "puml-link:dhw:sqldb:repo.index_union.adoc[]" as repo.Index_union << V >> {
  **index_guid** : (uniqueidentifier)
  --
  index_name : (nvarchar(450))
  index_type : (tinyint)
  IndexPatternColumnGuid : (varchar(8000))
  is_index_disabled : (bit)
  is_index_primary_key : (bit)
  is_index_real : (bit)
  is_index_unique : (bit)
  parent_RepoObject_guid : (uniqueidentifier)
  referenced_index_guid : (uniqueidentifier)
  --
  --
}

entity "puml-link:dhw:sqldb:repo.indexcolumn_ssas.adoc[]" as repo.IndexColumn_ssas << V >> {
  - **index_guid** : (uniqueidentifier)
  - **index_column_id** : (int)
  --
  - ColumnName : (nvarchar(128))
  - databasename : (nvarchar(128))
  - RepoObjectColumn_guid : (uniqueidentifier)
  - TableName : (nvarchar(max))
  --
  --
}

entity "puml-link:dhw:sqldb:repo.indexcolumn_ssas_gross.adoc[]" as repo.IndexColumn_ssas_gross << V >> {
  --
  column_user_type_fullname : (nvarchar(128))
  - index_column_id : (int)
  - index_guid : (uniqueidentifier)
  - index_name : (nvarchar(450))
  is_descending_key : (bit)
  - is_index_primary_key : (bit)
  is_index_real : (bit)
  - is_index_unique : (bit)
  - Object_column_name : (nvarchar(128))
  parent_Object_fullname : (nvarchar(261))
  parent_Object_name : (nvarchar(128))
  - parent_RepoObject_guid : (uniqueidentifier)
  parent_schema_name : (nvarchar(128))
  - RepoObjectColumn_guid : (uniqueidentifier)
  --
  --
}

entity "puml-link:dhw:sqldb:repo.usp_persist_index_ssas_t.adoc[]" as repo.usp_PERSIST_Index_ssas_T << P >> {
  --
  --
  --
}

repo.Index_ssas <.. repo.Index_ssas_T
repo.Index_ssas_T <.. repo.Index_union
repo.Index_ssas_T <.. repo.IndexColumn_ssas
repo.Index_ssas_T <.. repo.Index_ssas_IndexPatternColumnGuid
repo.Index_ssas_T <.. repo.usp_PERSIST_Index_ssas_T
repo.Index_ssas_T <.. repo.ForeignKey_ssas_Indexes
repo.Index_ssas_T <.. repo.IndexColumn_ssas_gross
"repo.Index_ssas::ColumnName" <-- "repo.Index_ssas_T::ColumnName"
"repo.Index_ssas::databasename" <-- "repo.Index_ssas_T::databasename"
"repo.Index_ssas::index_name" <-- "repo.Index_ssas_T::index_name"
"repo.Index_ssas::is_index_primary_key" <-- "repo.Index_ssas_T::is_index_primary_key"
"repo.Index_ssas::is_index_unique" <-- "repo.Index_ssas_T::is_index_unique"
"repo.Index_ssas::RepoObject_guid" <-- "repo.Index_ssas_T::RepoObject_guid"
"repo.Index_ssas::TableName" <-- "repo.Index_ssas_T::TableName"
"repo.Index_ssas_T::databasename" <-- "repo.IndexColumn_ssas::databasename"
"repo.Index_ssas_T::index_guid" <-- "repo.IndexColumn_ssas::index_guid"
"repo.Index_ssas_T::index_guid" <-- "repo.Index_ssas_IndexPatternColumnGuid::index_guid"
"repo.Index_ssas_T::index_guid" <-- "repo.ForeignKey_ssas_Indexes::referenced_index_guid"
"repo.Index_ssas_T::index_guid" <-- "repo.ForeignKey_ssas_Indexes::referencing_index_guid"
"repo.Index_ssas_T::index_name" <-- "repo.ForeignKey_ssas_Indexes::referenced_index_name"
"repo.Index_ssas_T::index_name" <-- "repo.ForeignKey_ssas_Indexes::referencing_index_name"
"repo.Index_ssas_T::index_name" <-- "repo.IndexColumn_ssas_gross::index_name"
"repo.Index_ssas_T::is_index_primary_key" <-- "repo.IndexColumn_ssas_gross::is_index_primary_key"
"repo.Index_ssas_T::is_index_unique" <-- "repo.IndexColumn_ssas_gross::is_index_unique"
"repo.Index_ssas_T::RepoObject_guid" <-- "repo.IndexColumn_ssas_gross::parent_RepoObject_guid"
"repo.Index_ssas_T::TableName" <-- "repo.IndexColumn_ssas::TableName"
@enduml

