@startuml
left to right direction
'top to bottom direction
hide circle
'avoide "." issues:
set namespaceSeparator none


skinparam class {
  BackgroundColor White
  BackgroundColor<<FN>> Yellow
  BackgroundColor<<FS>> Yellow
  BackgroundColor<<FT>> LightGray
  BackgroundColor<<IF>> Yellow
  BackgroundColor<<IS>> Yellow
  BackgroundColor<<P>> Aqua
  BackgroundColor<<PC>> Aqua
  BackgroundColor<<SN>> Yellow
  BackgroundColor<<SO>> SlateBlue
  BackgroundColor<<TF>> LightGray
  BackgroundColor<<TR>> Tomato
  BackgroundColor<<U>> White
  BackgroundColor<<V>> WhiteSmoke
  BackgroundColor<<X>> Aqua
  BackgroundColor<<external>> AliceBlue
}


entity "puml-link:dhw:sqldb:repo.index_referencing_indexpatterncolumnguid.adoc[]" as repo.Index_referencing_IndexPatternColumnGuid << V >> {
  **source_index_guid** : (uniqueidentifier)
  **referencing_RepoObject_guid** : (uniqueidentifier)
  referencing_IndexPatternColumnGuid : (varchar(8000))
  --
}

entity "puml-link:dhw:sqldb:repo.indexcolumn_referencedreferencing_hasfullcolumnsinreferencing_t.adoc[]" as repo.IndexColumn_ReferencedReferencing_HasFullColumnsInReferencing_T << U >> {
  **index_guid** : (uniqueidentifier)
  - **index_column_id** : (int)
  **RowNumberInReferencing** : (bigint)
  is_descending_key : (bit)
  referenced_RepoObject_guid : (uniqueidentifier)
  referenced_RepoObjectColumn_guid : (uniqueidentifier)
  referencing_RepoObject_guid : (uniqueidentifier)
  referencing_RepoObjectColumn_guid : (uniqueidentifier)
  --
}

entity "puml-link:dhw:sqldb:repo.indexreferencedreferencing.adoc[]" as repo.IndexReferencedReferencing << V >> {
  referenced_index_guid : (uniqueidentifier)
  - referenced_RepoObject_guid : (uniqueidentifier)
  - referencing_RepoObject_guid : (uniqueidentifier)
  RowNumberInReferencing_Target : (int)
  source_index_guid : (uniqueidentifier)
  - source_index_type : (tinyint)
  --
}

entity "puml-link:dhw:sqldb:repo.indexreferencedreferencing_hasfullcolumnsinreferencing.adoc[]" as repo.IndexReferencedReferencing_HasFullColumnsInReferencing << V >> {
  referenced_index_guid : (uniqueidentifier)
  - referenced_RepoObject_guid : (uniqueidentifier)
  referencing_IndexPatternColumnGuid : (varchar(8000))
  - referencing_RepoObject_guid : (uniqueidentifier)
  RowNumberInReferencing : (bigint)
  RowNumberInReferencing_Target : (int)
  source_index_guid : (uniqueidentifier)
  - source_index_type : (tinyint)
  --
}

entity "puml-link:dhw:sqldb:repo.usp_index_inheritance.adoc[]" as repo.usp_index_inheritance << P >> {
  --
}

repo.Index_referencing_IndexPatternColumnGuid <.. repo.IndexReferencedReferencing_HasFullColumnsInReferencing
repo.IndexColumn_ReferencedReferencing_HasFullColumnsInReferencing_T <.. repo.IndexReferencedReferencing_HasFullColumnsInReferencing
repo.IndexReferencedReferencing <.. repo.IndexReferencedReferencing_HasFullColumnsInReferencing
repo.IndexReferencedReferencing_HasFullColumnsInReferencing <.. repo.usp_index_inheritance
"repo.Index_referencing_IndexPatternColumnGuid::referencing_IndexPatternColumnGuid" <-- "repo.IndexReferencedReferencing_HasFullColumnsInReferencing::referencing_IndexPatternColumnGuid"
"repo.IndexColumn_ReferencedReferencing_HasFullColumnsInReferencing_T::RowNumberInReferencing" <-- "repo.IndexReferencedReferencing_HasFullColumnsInReferencing::RowNumberInReferencing"
"repo.IndexReferencedReferencing::referenced_index_guid" <-- "repo.IndexReferencedReferencing_HasFullColumnsInReferencing::referenced_index_guid"
"repo.IndexReferencedReferencing::referenced_RepoObject_guid" <-- "repo.IndexReferencedReferencing_HasFullColumnsInReferencing::referenced_RepoObject_guid"
"repo.IndexReferencedReferencing::referencing_RepoObject_guid" <-- "repo.IndexReferencedReferencing_HasFullColumnsInReferencing::referencing_RepoObject_guid"
"repo.IndexReferencedReferencing::RowNumberInReferencing_Target" <-- "repo.IndexReferencedReferencing_HasFullColumnsInReferencing::RowNumberInReferencing_Target"
"repo.IndexReferencedReferencing::source_index_guid" <-- "repo.IndexReferencedReferencing_HasFullColumnsInReferencing::source_index_guid"
"repo.IndexReferencedReferencing::source_index_type" <-- "repo.IndexReferencedReferencing_HasFullColumnsInReferencing::source_index_type"footer The diagram is interactive and contains links.
@enduml

