@startuml
left to right direction
'top to bottom direction
hide circle
'avoide "." issues:
set namespaceSeparator none


skinparam class {
  BackgroundColor White
  BackgroundColor<<FN>> Yellow
  BackgroundColor<<FS>> Yellow
  BackgroundColor<<FT>> LightGray
  BackgroundColor<<IF>> Yellow
  BackgroundColor<<IS>> Yellow
  BackgroundColor<<P>> Aqua
  BackgroundColor<<PC>> Aqua
  BackgroundColor<<SN>> Yellow
  BackgroundColor<<SO>> SlateBlue
  BackgroundColor<<TF>> LightGray
  BackgroundColor<<TR>> Tomato
  BackgroundColor<<U>> White
  BackgroundColor<<V>> WhiteSmoke
  BackgroundColor<<X>> Aqua
  BackgroundColor<<external>> AliceBlue
}


entity "puml-link:dhw:sqldb:repo.foreignkey_indexpattern.adoc[]" as repo.ForeignKey_IndexPattern << V >> {
  - **constraint_object_id** : (int)
  **ForeignKey_guid** : (uniqueidentifier)
  delete_referential_action : (tinyint)
  ForeignKey_fullname : (nvarchar(261))
  ForeignKey_name : (sysname)
  referenced_IndexPatternColumnName : (nvarchar(4000))
  referenced_RepoObject_guid : (uniqueidentifier)
  referencing_IndexPatternColumnName : (nvarchar(4000))
  referencing_RepoObject_guid : (uniqueidentifier)
  update_referential_action : (tinyint)
  --
}

entity "puml-link:dhw:sqldb:repo.repoobject.adoc[]" as repo.RepoObject << U >> {
  - **RepoObject_guid** : (uniqueidentifier)
  external_AntoraComponent : (nvarchar(128))
  external_AntoraModule : (nvarchar(128))
  has_execution_plan_issue : (bit)
  has_get_referenced_issue : (bit)
  Inheritance_Source_fullname : (nvarchar(261))
  Inheritance_StringAggSeparatorSql : (nvarchar(4000))
  InheritanceDefinition : (nvarchar(4000))
  InheritanceType : (tinyint)
  - is_DocsExclude : (bit)
  - is_external : (bit)
  is_repo_managed : (bit)
  is_required_ObjectMerge : (bit)
  - is_ssas : (bit)
  is_SysObject_missing : (bit)
  - modify_dt : (datetime)
  pk_index_guid : (uniqueidentifier)
  pk_IndexPatternColumnName_new : (nvarchar(4000))
  Repo_history_table_guid : (uniqueidentifier)
  Repo_temporal_type : (tinyint)
  - RepoObject_name : (nvarchar(128))
  RepoObject_Referencing_Count : (int)
  - RepoObject_schema_name : (nvarchar(128))
  - RepoObject_type : (char(2))
  SysObject_id : (int)
  SysObject_modify_date : (datetime)
  - SysObject_name : (nvarchar(128))
  - SysObject_parent_object_id : (int)
  - SysObject_schema_name : (nvarchar(128))
  SysObject_type : (char(2))
  ~ has_different_sys_names : (bit)
  # is_RepoObject_name_uniqueidentifier : (int)
  # is_SysObject_name_uniqueidentifier : (int)
  ~ node_id : (bigint)
  # RepoObject_fullname : (nvarchar(261))
  # RepoObject_fullname2 : (nvarchar(257))
  # SysObject_fullname : (nvarchar(261))
  # SysObject_fullname2 : (nvarchar(257))
  ~ SysObject_query_sql : (nvarchar(406))
  # usp_persistence_fullname2 : (nvarchar(269))
  # usp_persistence_name : (nvarchar(140))
  --
}

entity "puml-link:dhw:sqldb:repo_sys.foreignkey.adoc[]" as repo_sys.ForeignKey << V >> {
  - create_date : (datetime)
  delete_referential_action : (tinyint)
  delete_referential_action_desc : (nvarchar(60))
  ForeignKey_fullname : (nvarchar(261))
  ForeignKey_guid : (uniqueidentifier)
  - is_disabled : (bit)
  - is_ms_shipped : (bit)
  - is_not_for_replication : (bit)
  - is_not_trusted : (bit)
  - is_published : (bit)
  - is_schema_published : (bit)
  - is_system_named : (bit)
  key_index_id : (int)
  - modify_date : (datetime)
  - name : (sysname)
  - object_id : (int)
  - parent_object_id : (int)
  parent_RepoObject_fullname : (nvarchar(261))
  parent_RepoObject_guid : (uniqueidentifier)
  parent_SysObject_fullname : (nvarchar(261))
  principal_id : (int)
  referenced_object_id : (int)
  - schema_id : (int)
  type : (char(2))
  type_desc : (nvarchar(60))
  update_referential_action : (tinyint)
  update_referential_action_desc : (nvarchar(60))
  --
}

entity "puml-link:dhw:sqldb:repo_sys.foreignkeycolumn.adoc[]" as repo_sys.ForeignKeyColumn << V >> {
  - constraint_column_id : (int)
  - constraint_object_id : (int)
  ForeignKey_fullname : (nvarchar(261))
  ForeignKey_guid : (uniqueidentifier)
  ForeignKey_name : (sysname)
  - parent_column_id : (int)
  - parent_object_id : (int)
  - referenced_column_id : (int)
  referenced_column_name : (sysname)
  referenced_name : (nvarchar(128))
  - referenced_object_id : (int)
  referenced_RepoObject_guid : (uniqueidentifier)
  referenced_RepoObjectColumn_guid : (uniqueidentifier)
  referenced_schema_name : (nvarchar(128))
  referencing_column_name : (sysname)
  referencing_name : (nvarchar(128))
  referencing_RepoObject_fullname : (nvarchar(261))
  referencing_RepoObject_guid : (uniqueidentifier)
  referencing_RepoObjectColumn_guid : (uniqueidentifier)
  referencing_schema_name : (nvarchar(128))
  referencing_SysObject_fullname : (nvarchar(261))
  --
}

entity "puml-link:dhw:sqldb:sys_dwh.foreign_keys.adoc[]" as sys_dwh.foreign_keys << SN >> {
  --
}

repo.RepoObject <.. repo_sys.ForeignKey
repo_sys.ForeignKey <.. repo_sys.ForeignKeyColumn
repo_sys.ForeignKey <.. repo.ForeignKey_IndexPattern
sys_dwh.foreign_keys <.. repo_sys.ForeignKey
"repo.RepoObject::RepoObject_fullname" <-- "repo_sys.ForeignKey::ForeignKey_fullname"
"repo.RepoObject::RepoObject_fullname" <-- "repo_sys.ForeignKey::parent_RepoObject_fullname"
"repo.RepoObject::RepoObject_guid" <-- "repo_sys.ForeignKey::parent_RepoObject_guid"
"repo.RepoObject::RepoObject_guid" <-- "repo_sys.ForeignKey::ForeignKey_guid"
"repo.RepoObject::SysObject_fullname" <-- "repo_sys.ForeignKey::parent_SysObject_fullname"
"repo_sys.ForeignKey::delete_referential_action" <-- "repo.ForeignKey_IndexPattern::delete_referential_action"
"repo_sys.ForeignKey::ForeignKey_fullname" <-- "repo_sys.ForeignKeyColumn::ForeignKey_fullname"
"repo_sys.ForeignKey::ForeignKey_guid" <-- "repo_sys.ForeignKeyColumn::ForeignKey_guid"
"repo_sys.ForeignKey::ForeignKey_guid" <-- "repo.ForeignKey_IndexPattern::ForeignKey_guid"
"repo_sys.ForeignKey::name" <-- "repo_sys.ForeignKeyColumn::ForeignKey_name"
"repo_sys.ForeignKey::object_id" <-- "repo.ForeignKey_IndexPattern::constraint_object_id"
"repo_sys.ForeignKey::parent_RepoObject_fullname" <-- "repo_sys.ForeignKeyColumn::referencing_RepoObject_fullname"
"repo_sys.ForeignKey::parent_SysObject_fullname" <-- "repo_sys.ForeignKeyColumn::referencing_SysObject_fullname"footer The diagram is interactive and contains links.
@enduml

