@startuml
left to right direction
'top to bottom direction
hide circle
'avoide "." issues:
set namespaceSeparator none


skinparam class {
  BackgroundColor White
  BackgroundColor<<FN>> Yellow
  BackgroundColor<<FS>> Yellow
  BackgroundColor<<FT>> LightGray
  BackgroundColor<<IF>> Yellow
  BackgroundColor<<IS>> Yellow
  BackgroundColor<<P>> Aqua
  BackgroundColor<<PC>> Aqua
  BackgroundColor<<SN>> Yellow
  BackgroundColor<<SO>> SlateBlue
  BackgroundColor<<TF>> LightGray
  BackgroundColor<<TR>> Tomato
  BackgroundColor<<U>> White
  BackgroundColor<<V>> WhiteSmoke
  BackgroundColor<<X>> Aqua
  BackgroundColor<<external>> AliceBlue
}


entity "puml-link:dhw:sqldb:repo.index_ssas.adoc[]" as repo.Index_ssas << V >> {
  - **databasename** : (nvarchar(128))
  **index_name** : (nvarchar(450))
  --
  - ColumnName : (nvarchar(128))
  - is_index_primary_key : (bit)
  - is_index_unique : (bit)
  - RepoObject_guid : (uniqueidentifier)
  - TableName : (nvarchar(128))
  --
  --
}

entity "puml-link:dhw:sqldb:repo.index_ssas_t.adoc[]" as repo.Index_ssas_T << U >> {
  - **databasename** : (nvarchar(128))
  **index_name** : (nvarchar(450))
  --
  - ColumnName : (nvarchar(128))
  - index_guid : (uniqueidentifier)
  - is_index_primary_key : (bit)
  - is_index_unique : (bit)
  - RepoObject_guid : (uniqueidentifier)
  - TableID : (numeric(20, 0))
  - TableName : (nvarchar(128))
  --
  --
}

entity "puml-link:dhw:sqldb:repo.usp_persist_index_ssas_t.adoc[]" as repo.usp_PERSIST_Index_ssas_T << P >> {
  --
  --
  --
}

entity "puml-link:dhw:sqldb:ssas.indexcolumn_union.adoc[]" as ssas.IndexColumn_union << V >> {
  --
  - ColumnName : (nvarchar(128))
  - databasename : (nvarchar(128))
  - index_column_id : (int)
  index_name : (nvarchar(450))
  - is_descending_key : (int)
  - is_index_primary_key : (bit)
  - is_index_unique : (bit)
  - RepoObject_guid : (uniqueidentifier)
  - RepoObjectColumn_guid : (uniqueidentifier)
  - TableName : (nvarchar(128))
  tables_columns_type : (nvarchar(500))
  --
  --
}

repo.Index_ssas <.. repo.Index_ssas_T
repo.Index_ssas <.. repo.usp_PERSIST_Index_ssas_T
ssas.IndexColumn_union <.. repo.Index_ssas
"repo.Index_ssas::ColumnName" <-- "repo.Index_ssas_T::ColumnName"
"repo.Index_ssas::databasename" <-- "repo.Index_ssas_T::databasename"
"repo.Index_ssas::index_name" <-- "repo.Index_ssas_T::index_name"
"repo.Index_ssas::is_index_primary_key" <-- "repo.Index_ssas_T::is_index_primary_key"
"repo.Index_ssas::is_index_unique" <-- "repo.Index_ssas_T::is_index_unique"
"repo.Index_ssas::RepoObject_guid" <-- "repo.Index_ssas_T::RepoObject_guid"
"repo.Index_ssas::TableName" <-- "repo.Index_ssas_T::TableName"
"ssas.IndexColumn_union::ColumnName" <-- "repo.Index_ssas::ColumnName"
"ssas.IndexColumn_union::databasename" <-- "repo.Index_ssas::databasename"
"ssas.IndexColumn_union::index_name" <-- "repo.Index_ssas::index_name"
"ssas.IndexColumn_union::is_index_primary_key" <-- "repo.Index_ssas::is_index_primary_key"
"ssas.IndexColumn_union::is_index_unique" <-- "repo.Index_ssas::is_index_unique"
"ssas.IndexColumn_union::RepoObject_guid" <-- "repo.Index_ssas::RepoObject_guid"
"ssas.IndexColumn_union::TableName" <-- "repo.Index_ssas::TableName"
@enduml

