@startuml
left to right direction
'top to bottom direction
hide circle
'avoide "." issues:
set namespaceSeparator none


skinparam class {
  BackgroundColor White
  BackgroundColor<<FN>> Yellow
  BackgroundColor<<FS>> Yellow
  BackgroundColor<<FT>> LightGray
  BackgroundColor<<IF>> Yellow
  BackgroundColor<<IS>> Yellow
  BackgroundColor<<P>> Aqua
  BackgroundColor<<PC>> Aqua
  BackgroundColor<<SN>> Yellow
  BackgroundColor<<SO>> SlateBlue
  BackgroundColor<<TF>> LightGray
  BackgroundColor<<TR>> Tomato
  BackgroundColor<<U>> White
  BackgroundColor<<V>> WhiteSmoke
  BackgroundColor<<X>> Aqua
  BackgroundColor<<external>> AliceBlue
}


entity "puml-link:dhw:sqldb:repo.check_indexcolumn_virtual_referenced_setpoint.adoc[]" as repo.check_IndexColumn_virtual_referenced_setpoint << V >> {
  - index_column_id : (int)
  - index_guid : (uniqueidentifier)
  referenced_index_guid : (uniqueidentifier)
  referenced_RepoObject_guid : (uniqueidentifier)
  referenced_RepoObjectColumn_guid : (uniqueidentifier)
  referencing_RepoObject_guid : (uniqueidentifier)
  referencing_RepoObjectColumn_guid : (uniqueidentifier)
  RepoObject_guid_s : (uniqueidentifier)
  RepoObject_guid_t : (uniqueidentifier)
  RepoObjectColumn_guid_t : (uniqueidentifier)
  SysObject_fullname_s : (nvarchar(261))
  SysObject_fullname_t : (nvarchar(261))
  SysObjectColumn_name_s : (nvarchar(128))
  SysObjectColumn_name_t : (nvarchar(128))
  --
}

entity "puml-link:dhw:sqldb:repo.indexcolumn_virtual_referenced_setpoint.adoc[]" as repo.IndexColumn_virtual_referenced_setpoint << V >> {
  - **index_guid** : (uniqueidentifier)
  - **index_column_id** : (int)
  is_descending_key : (bit)
  referenced_index_guid : (uniqueidentifier)
  referenced_RepoObject_guid : (uniqueidentifier)
  referenced_RepoObjectColumn_guid : (uniqueidentifier)
  referencing_RepoObject_guid : (uniqueidentifier)
  referencing_RepoObjectColumn_guid : (uniqueidentifier)
  RowNumberInReferencing : (int)
  --
}

entity "puml-link:dhw:sqldb:repo.repoobject.adoc[]" as repo.RepoObject << U >> {
  - **RepoObject_guid** : (uniqueidentifier)
  external_AntoraComponent : (nvarchar(128))
  external_AntoraModule : (nvarchar(128))
  has_execution_plan_issue : (bit)
  has_get_referenced_issue : (bit)
  Inheritance_Source_fullname : (nvarchar(261))
  Inheritance_StringAggSeparatorSql : (nvarchar(4000))
  InheritanceDefinition : (nvarchar(4000))
  InheritanceType : (tinyint)
  - is_DocsExclude : (bit)
  - is_external : (bit)
  is_repo_managed : (bit)
  is_required_ObjectMerge : (bit)
  - is_ssas : (bit)
  is_SysObject_missing : (bit)
  - modify_dt : (datetime)
  pk_index_guid : (uniqueidentifier)
  pk_IndexPatternColumnName_new : (nvarchar(4000))
  Repo_history_table_guid : (uniqueidentifier)
  Repo_temporal_type : (tinyint)
  - RepoObject_name : (nvarchar(128))
  RepoObject_Referencing_Count : (int)
  - RepoObject_schema_name : (nvarchar(128))
  - RepoObject_type : (char(2))
  SysObject_id : (int)
  SysObject_modify_date : (datetime)
  - SysObject_name : (nvarchar(128))
  - SysObject_parent_object_id : (int)
  - SysObject_schema_name : (nvarchar(128))
  SysObject_type : (char(2))
  ~ has_different_sys_names : (bit)
  # is_RepoObject_name_uniqueidentifier : (int)
  # is_SysObject_name_uniqueidentifier : (int)
  ~ node_id : (bigint)
  # RepoObject_fullname : (nvarchar(261))
  # RepoObject_fullname2 : (nvarchar(257))
  # SysObject_fullname : (nvarchar(261))
  # SysObject_fullname2 : (nvarchar(257))
  ~ SysObject_query_sql : (nvarchar(406))
  # usp_persistence_fullname2 : (nvarchar(269))
  # usp_persistence_name : (nvarchar(140))
  --
}

entity "puml-link:dhw:sqldb:repo.repoobjectcolumn.adoc[]" as repo.RepoObjectColumn << U >> {
  - **RepoObjectColumn_guid** : (uniqueidentifier)
  Inheritance_StringAggSeparatorSql : (nvarchar(4000))
  InheritanceDefinition : (nvarchar(4000))
  InheritanceType : (tinyint)
  is_persistence_no_check : (bit)
  is_persistence_no_include : (bit)
  is_persistence_no_update : (bit)
  is_query_plan_expression : (bit)
  is_required_ColumnMerge : (bit)
  is_SysObjectColumn_missing : (bit)
  persistence_source_RepoObjectColumn_guid : (uniqueidentifier)
  Referencing_Count : (int)
  Repo_default_definition : (nvarchar(max))
  Repo_default_is_system_named : (bit)
  Repo_default_name : (nvarchar(128))
  Repo_definition : (nvarchar(max))
  - Repo_generated_always_type : (tinyint)
  Repo_graph_type : (int)
  Repo_increment_value : (sql_variant)
  - Repo_is_computed : (bit)
  - Repo_is_identity : (bit)
  Repo_is_nullable : (bit)
  Repo_is_persisted : (bit)
  Repo_seed_value : (sql_variant)
  Repo_user_type_fullname : (nvarchar(128))
  Repo_user_type_name : (nvarchar(128))
  Repo_uses_database_collation : (bit)
  - RepoObject_guid : (uniqueidentifier)
  RepoObjectColumn_column_id : (int)
  - RepoObjectColumn_name : (nvarchar(128))
  SysObjectColumn_column_id : (int)
  - SysObjectColumn_name : (nvarchar(128))
  # Column_name : (nvarchar(128))
  ~ has_different_sys_names : (bit)
  # is_RepoObjectColumn_name_uniqueidentifier : (int)
  # is_SysObjectColumn_name_uniqueidentifier : (int)
  --
}

repo.IndexColumn_virtual_referenced_setpoint <.. repo.check_IndexColumn_virtual_referenced_setpoint
repo.RepoObject <.. repo.check_IndexColumn_virtual_referenced_setpoint
repo.RepoObjectColumn <.. repo.check_IndexColumn_virtual_referenced_setpoint
"repo.IndexColumn_virtual_referenced_setpoint::index_column_id" <-- "repo.check_IndexColumn_virtual_referenced_setpoint::index_column_id"
"repo.IndexColumn_virtual_referenced_setpoint::index_guid" <-- "repo.check_IndexColumn_virtual_referenced_setpoint::index_guid"
"repo.IndexColumn_virtual_referenced_setpoint::referenced_index_guid" <-- "repo.check_IndexColumn_virtual_referenced_setpoint::referenced_index_guid"
"repo.IndexColumn_virtual_referenced_setpoint::referenced_RepoObject_guid" <-- "repo.check_IndexColumn_virtual_referenced_setpoint::referenced_RepoObject_guid"
"repo.IndexColumn_virtual_referenced_setpoint::referenced_RepoObjectColumn_guid" <-- "repo.check_IndexColumn_virtual_referenced_setpoint::referenced_RepoObjectColumn_guid"
"repo.IndexColumn_virtual_referenced_setpoint::referencing_RepoObject_guid" <-- "repo.check_IndexColumn_virtual_referenced_setpoint::referencing_RepoObject_guid"
"repo.IndexColumn_virtual_referenced_setpoint::referencing_RepoObjectColumn_guid" <-- "repo.check_IndexColumn_virtual_referenced_setpoint::referencing_RepoObjectColumn_guid"
"repo.RepoObject::SysObject_fullname" <-- "repo.check_IndexColumn_virtual_referenced_setpoint::SysObject_fullname_s"
"repo.RepoObject::SysObject_fullname" <-- "repo.check_IndexColumn_virtual_referenced_setpoint::SysObject_fullname_t"
"repo.RepoObjectColumn::RepoObject_guid" <-- "repo.check_IndexColumn_virtual_referenced_setpoint::RepoObject_guid_s"
"repo.RepoObjectColumn::RepoObject_guid" <-- "repo.check_IndexColumn_virtual_referenced_setpoint::RepoObject_guid_t"
"repo.RepoObjectColumn::RepoObjectColumn_guid" <-- "repo.check_IndexColumn_virtual_referenced_setpoint::RepoObjectColumn_guid_t"
"repo.RepoObjectColumn::SysObjectColumn_name" <-- "repo.check_IndexColumn_virtual_referenced_setpoint::SysObjectColumn_name_s"
"repo.RepoObjectColumn::SysObjectColumn_name" <-- "repo.check_IndexColumn_virtual_referenced_setpoint::SysObjectColumn_name_t"footer The diagram is interactive and contains links.
@enduml

