@startuml
left to right direction
'top to bottom direction
hide circle
'avoide "." issues:
set namespaceSeparator none


skinparam class {
  BackgroundColor White
  BackgroundColor<<FN>> Yellow
  BackgroundColor<<FS>> Yellow
  BackgroundColor<<FT>> LightGray
  BackgroundColor<<IF>> Yellow
  BackgroundColor<<IS>> Yellow
  BackgroundColor<<P>> Aqua
  BackgroundColor<<PC>> Aqua
  BackgroundColor<<SN>> Yellow
  BackgroundColor<<SO>> SlateBlue
  BackgroundColor<<TF>> LightGray
  BackgroundColor<<TR>> Tomato
  BackgroundColor<<U>> White
  BackgroundColor<<V>> WhiteSmoke
  BackgroundColor<<X>> Aqua
  BackgroundColor<<external>> AliceBlue
}


entity "puml-link:dhw:sqldb:reference.repoobjectcolumn_reference_t.adoc[]" as reference.RepoObjectColumn_reference_T << U >> {
  **referenced_RepoObjectColumn_guid** : (uniqueidentifier)
  **referencing_RepoObjectColumn_guid** : (uniqueidentifier)
  is_referenced_object : (tinyint)
  is_referencing_object_equal_referenced_object : (tinyint)
  referenced_column_name : (nvarchar(128))
  referenced_entity_name : (nvarchar(128))
  referenced_external_AntoraComponent : (nvarchar(128))
  referenced_external_AntoraModule : (nvarchar(128))
  referenced_is_external : (tinyint)
  referenced_RepoObject_guid : (uniqueidentifier)
  referenced_schema_name : (nvarchar(128))
  referenced_type : (char(2))
  referencing_column_name : (nvarchar(128))
  referencing_entity_name : (nvarchar(128))
  referencing_external_AntoraComponent : (nvarchar(128))
  referencing_external_AntoraModule : (nvarchar(128))
  referencing_is_external : (tinyint)
  referencing_RepoObject_guid : (uniqueidentifier)
  referencing_schema_name : (nvarchar(128))
  referencing_type : (char(2))
  # referenced_ro_fullname : (nvarchar(261))
  # referenced_ro_fullname2 : (nvarchar(257))
  # referenced_roc_fullname : (nvarchar(392))
  # referenced_roc_fullname2 : (nvarchar(386))
  # referencing_ro_fullname : (nvarchar(261))
  # referencing_ro_fullname2 : (nvarchar(257))
  # referencing_roc_fullname : (nvarchar(392))
  # referencing_roc_fullname2 : (nvarchar(386))
  --
}

entity "puml-link:dhw:sqldb:repo.indexcolumn_referencedreferencing_hasfullcolumnsinreferencing.adoc[]" as repo.IndexColumn_ReferencedReferencing_HasFullColumnsInReferencing << V >> {
  - **index_guid** : (uniqueidentifier)
  - **index_column_id** : (int)
  **RowNumberInReferencing** : (bigint)
  is_descending_key : (bit)
  referenced_RepoObject_guid : (uniqueidentifier)
  - referenced_RepoObjectColumn_guid : (uniqueidentifier)
  referencing_RepoObject_guid : (uniqueidentifier)
  - referencing_RepoObjectColumn_guid : (uniqueidentifier)
  --
}

entity "puml-link:dhw:sqldb:repo.indexcolumn_referencedreferencing_hasfullcolumnsinreferencing_t.adoc[]" as repo.IndexColumn_ReferencedReferencing_HasFullColumnsInReferencing_T << U >> {
  **index_guid** : (uniqueidentifier)
  - **index_column_id** : (int)
  **RowNumberInReferencing** : (bigint)
  is_descending_key : (bit)
  referenced_RepoObject_guid : (uniqueidentifier)
  referenced_RepoObjectColumn_guid : (uniqueidentifier)
  referencing_RepoObject_guid : (uniqueidentifier)
  referencing_RepoObjectColumn_guid : (uniqueidentifier)
  --
}

entity "puml-link:dhw:sqldb:repo.indexcolumn_union_t.adoc[]" as repo.IndexColumn_union_T << U >> {
  **index_guid** : (uniqueidentifier)
  - **index_column_id** : (int)
  index_name : (nvarchar(450))
  is_descending_key : (bit)
  is_index_primary_key : (bit)
  is_index_real : (bit)
  is_index_unique : (bit)
  parent_RepoObject_guid : (uniqueidentifier)
  parent_schema_name : (nvarchar(128))
  parent_SysObject_fullname : (nvarchar(261))
  parent_SysObject_name : (nvarchar(128))
  RepoObjectColumn_guid : (uniqueidentifier)
  SysObject_column_name : (nvarchar(128))
  SysObject_column_user_type_fullname : (nvarchar(182))
  --
}

entity "puml-link:dhw:sqldb:repo.repoobjectcolumn.adoc[]" as repo.RepoObjectColumn << U >> {
  - **RepoObjectColumn_guid** : (uniqueidentifier)
  Inheritance_StringAggSeparatorSql : (nvarchar(4000))
  InheritanceDefinition : (nvarchar(4000))
  InheritanceType : (tinyint)
  is_persistence_no_check : (bit)
  is_persistence_no_include : (bit)
  is_persistence_no_update : (bit)
  is_query_plan_expression : (bit)
  is_required_ColumnMerge : (bit)
  is_SysObjectColumn_missing : (bit)
  persistence_source_RepoObjectColumn_guid : (uniqueidentifier)
  Referencing_Count : (int)
  Repo_default_definition : (nvarchar(max))
  Repo_default_is_system_named : (bit)
  Repo_default_name : (nvarchar(128))
  Repo_definition : (nvarchar(max))
  - Repo_generated_always_type : (tinyint)
  Repo_graph_type : (int)
  Repo_increment_value : (sql_variant)
  - Repo_is_computed : (bit)
  - Repo_is_identity : (bit)
  Repo_is_nullable : (bit)
  Repo_is_persisted : (bit)
  Repo_seed_value : (sql_variant)
  Repo_user_type_fullname : (nvarchar(128))
  Repo_user_type_name : (nvarchar(128))
  Repo_uses_database_collation : (bit)
  - RepoObject_guid : (uniqueidentifier)
  RepoObjectColumn_column_id : (int)
  - RepoObjectColumn_name : (nvarchar(128))
  SysObjectColumn_column_id : (int)
  - SysObjectColumn_name : (nvarchar(128))
  # Column_name : (nvarchar(128))
  ~ has_different_sys_names : (bit)
  # is_RepoObjectColumn_name_uniqueidentifier : (int)
  # is_SysObjectColumn_name_uniqueidentifier : (int)
  --
}

entity "puml-link:dhw:sqldb:repo.usp_persist_indexcolumn_referencedreferencing_hasfullcolumnsinreferencing_t.adoc[]" as repo.usp_PERSIST_IndexColumn_ReferencedReferencing_HasFullColumnsInReferencing_T << P >> {
  --
}

reference.RepoObjectColumn_reference_T <.. repo.IndexColumn_ReferencedReferencing_HasFullColumnsInReferencing
repo.IndexColumn_ReferencedReferencing_HasFullColumnsInReferencing <.. repo.IndexColumn_ReferencedReferencing_HasFullColumnsInReferencing_T
repo.IndexColumn_ReferencedReferencing_HasFullColumnsInReferencing <.. repo.usp_PERSIST_IndexColumn_ReferencedReferencing_HasFullColumnsInReferencing_T
repo.IndexColumn_union_T <.. repo.IndexColumn_ReferencedReferencing_HasFullColumnsInReferencing
repo.RepoObjectColumn <.. repo.IndexColumn_ReferencedReferencing_HasFullColumnsInReferencing
"repo.IndexColumn_ReferencedReferencing_HasFullColumnsInReferencing::index_column_id" <-- "repo.IndexColumn_ReferencedReferencing_HasFullColumnsInReferencing_T::index_column_id"
"repo.IndexColumn_ReferencedReferencing_HasFullColumnsInReferencing::index_guid" <-- "repo.IndexColumn_ReferencedReferencing_HasFullColumnsInReferencing_T::index_guid"
"repo.IndexColumn_ReferencedReferencing_HasFullColumnsInReferencing::is_descending_key" <-- "repo.IndexColumn_ReferencedReferencing_HasFullColumnsInReferencing_T::is_descending_key"
"repo.IndexColumn_ReferencedReferencing_HasFullColumnsInReferencing::referenced_RepoObject_guid" <-- "repo.IndexColumn_ReferencedReferencing_HasFullColumnsInReferencing_T::referenced_RepoObject_guid"
"repo.IndexColumn_ReferencedReferencing_HasFullColumnsInReferencing::referenced_RepoObjectColumn_guid" <-- "repo.IndexColumn_ReferencedReferencing_HasFullColumnsInReferencing_T::referenced_RepoObjectColumn_guid"
"repo.IndexColumn_ReferencedReferencing_HasFullColumnsInReferencing::referencing_RepoObject_guid" <-- "repo.IndexColumn_ReferencedReferencing_HasFullColumnsInReferencing_T::referencing_RepoObject_guid"
"repo.IndexColumn_ReferencedReferencing_HasFullColumnsInReferencing::referencing_RepoObjectColumn_guid" <-- "repo.IndexColumn_ReferencedReferencing_HasFullColumnsInReferencing_T::referencing_RepoObjectColumn_guid"
"repo.IndexColumn_ReferencedReferencing_HasFullColumnsInReferencing::RowNumberInReferencing" <-- "repo.IndexColumn_ReferencedReferencing_HasFullColumnsInReferencing_T::RowNumberInReferencing"
"repo.IndexColumn_union_T::index_column_id" <-- "repo.IndexColumn_ReferencedReferencing_HasFullColumnsInReferencing::index_column_id"
"repo.IndexColumn_union_T::index_guid" <-- "repo.IndexColumn_ReferencedReferencing_HasFullColumnsInReferencing::index_guid"
"repo.IndexColumn_union_T::is_descending_key" <-- "repo.IndexColumn_ReferencedReferencing_HasFullColumnsInReferencing::is_descending_key"footer The diagram is interactive and contains links.
@enduml

