@startuml
left to right direction
'top to bottom direction
hide circle
'avoide "." issues:
set namespaceSeparator none


skinparam class {
  BackgroundColor White
  BackgroundColor<<FN>> Yellow
  BackgroundColor<<FS>> Yellow
  BackgroundColor<<FT>> LightGray
  BackgroundColor<<IF>> Yellow
  BackgroundColor<<IS>> Yellow
  BackgroundColor<<P>> Aqua
  BackgroundColor<<PC>> Aqua
  BackgroundColor<<SN>> Yellow
  BackgroundColor<<SO>> SlateBlue
  BackgroundColor<<TF>> LightGray
  BackgroundColor<<TR>> Tomato
  BackgroundColor<<U>> White
  BackgroundColor<<V>> WhiteSmoke
  BackgroundColor<<X>> Aqua
  BackgroundColor<<external>> AliceBlue
}


entity "puml-link:dhw:sqldb:repo.index_referencing_indexpatterncolumnguid.adoc[]" as repo.Index_referencing_IndexPatternColumnGuid << V >> {
  **source_index_guid** : (uniqueidentifier)
  **referencing_RepoObject_guid** : (uniqueidentifier)
  --
  referencing_IndexPatternColumnGuid : (varchar(8000))
  --
  --
}

entity "puml-link:dhw:sqldb:repo.indexcolumn_referencedreferencing_hasfullcolumnsinreferencing.adoc[]" as repo.IndexColumn_ReferencedReferencing_HasFullColumnsInReferencing << V >> {
  - **index_guid** : (uniqueidentifier)
  - **index_column_id** : (int)
  **RowNumberInReferencing** : (bigint)
  --
  is_descending_key : (bit)
  referenced_RepoObject_guid : (uniqueidentifier)
  - referenced_RepoObjectColumn_guid : (uniqueidentifier)
  referencing_RepoObject_guid : (uniqueidentifier)
  - referencing_RepoObjectColumn_guid : (uniqueidentifier)
  --
  --
}

entity "puml-link:dhw:sqldb:repo.indexcolumn_referencedreferencing_hasfullcolumnsinreferencing_check.adoc[]" as repo.IndexColumn_ReferencedReferencing_HasFullColumnsInReferencing_check << V >> {
  --
  - index_column_id : (int)
  index_guid : (uniqueidentifier)
  IndexPatternColumnDatatype : (nvarchar(4000))
  IndexPatternColumnName : (nvarchar(4000))
  IndexSemanticGroup : (nvarchar(512))
  is_descending_key : (bit)
  referenced_RepoObject_fullname : (nvarchar(261))
  referenced_RepoObject_guid : (uniqueidentifier)
  referenced_RepoObjectColumn_guid : (uniqueidentifier)
  referenced_RepoObjectColumn_name : (nvarchar(128))
  referencing_RepoObject_fullname : (nvarchar(261))
  referencing_RepoObject_guid : (uniqueidentifier)
  referencing_RepoObjectColumn_guid : (uniqueidentifier)
  referencing_RepoObjectColumn_name : (nvarchar(128))
  RowNumberInReferencing : (bigint)
  --
  --
}

entity "puml-link:dhw:sqldb:repo.indexcolumn_referencedreferencing_hasfullcolumnsinreferencing_t.adoc[]" as repo.IndexColumn_ReferencedReferencing_HasFullColumnsInReferencing_T << U >> {
  **index_guid** : (uniqueidentifier)
  - **index_column_id** : (int)
  **RowNumberInReferencing** : (bigint)
  --
  is_descending_key : (bit)
  referenced_RepoObject_guid : (uniqueidentifier)
  referenced_RepoObjectColumn_guid : (uniqueidentifier)
  referencing_RepoObject_guid : (uniqueidentifier)
  referencing_RepoObjectColumn_guid : (uniqueidentifier)
  --
  --
}

entity "puml-link:dhw:sqldb:repo.indexcolumn_virtual_referenced_setpoint.adoc[]" as repo.IndexColumn_virtual_referenced_setpoint << V >> {
  - **index_guid** : (uniqueidentifier)
  - **index_column_id** : (int)
  --
  is_descending_key : (bit)
  referenced_index_guid : (uniqueidentifier)
  referenced_RepoObject_guid : (uniqueidentifier)
  referenced_RepoObjectColumn_guid : (uniqueidentifier)
  referencing_RepoObject_guid : (uniqueidentifier)
  referencing_RepoObjectColumn_guid : (uniqueidentifier)
  RowNumberInReferencing : (int)
  --
  --
}

entity "puml-link:dhw:sqldb:repo.indexreferencedreferencing_hasfullcolumnsinreferencing.adoc[]" as repo.IndexReferencedReferencing_HasFullColumnsInReferencing << V >> {
  --
  referenced_index_guid : (uniqueidentifier)
  - referenced_RepoObject_guid : (uniqueidentifier)
  referencing_IndexPatternColumnGuid : (varchar(8000))
  - referencing_RepoObject_guid : (uniqueidentifier)
  RowNumberInReferencing : (bigint)
  RowNumberInReferencing_Target : (int)
  source_index_guid : (uniqueidentifier)
  - source_index_type : (tinyint)
  --
  --
}

entity "puml-link:dhw:sqldb:repo.usp_persist_indexcolumn_referencedreferencing_hasfullcolumnsinreferencing_t.adoc[]" as repo.usp_PERSIST_IndexColumn_ReferencedReferencing_HasFullColumnsInReferencing_T << P >> {
  --
  --
  --
}

repo.IndexColumn_ReferencedReferencing_HasFullColumnsInReferencing <.. repo.IndexColumn_ReferencedReferencing_HasFullColumnsInReferencing_T
repo.IndexColumn_ReferencedReferencing_HasFullColumnsInReferencing_T <.. repo.Index_referencing_IndexPatternColumnGuid
repo.IndexColumn_ReferencedReferencing_HasFullColumnsInReferencing_T <.. repo.usp_PERSIST_IndexColumn_ReferencedReferencing_HasFullColumnsInReferencing_T
repo.IndexColumn_ReferencedReferencing_HasFullColumnsInReferencing_T <.. repo.IndexReferencedReferencing_HasFullColumnsInReferencing
repo.IndexColumn_ReferencedReferencing_HasFullColumnsInReferencing_T <.. repo.IndexColumn_virtual_referenced_setpoint
repo.IndexColumn_ReferencedReferencing_HasFullColumnsInReferencing_T <.. repo.IndexColumn_ReferencedReferencing_HasFullColumnsInReferencing_check
"repo.IndexColumn_ReferencedReferencing_HasFullColumnsInReferencing::index_column_id" <-- "repo.IndexColumn_ReferencedReferencing_HasFullColumnsInReferencing_T::index_column_id"
"repo.IndexColumn_ReferencedReferencing_HasFullColumnsInReferencing::index_guid" <-- "repo.IndexColumn_ReferencedReferencing_HasFullColumnsInReferencing_T::index_guid"
"repo.IndexColumn_ReferencedReferencing_HasFullColumnsInReferencing::is_descending_key" <-- "repo.IndexColumn_ReferencedReferencing_HasFullColumnsInReferencing_T::is_descending_key"
"repo.IndexColumn_ReferencedReferencing_HasFullColumnsInReferencing::referenced_RepoObject_guid" <-- "repo.IndexColumn_ReferencedReferencing_HasFullColumnsInReferencing_T::referenced_RepoObject_guid"
"repo.IndexColumn_ReferencedReferencing_HasFullColumnsInReferencing::referenced_RepoObjectColumn_guid" <-- "repo.IndexColumn_ReferencedReferencing_HasFullColumnsInReferencing_T::referenced_RepoObjectColumn_guid"
"repo.IndexColumn_ReferencedReferencing_HasFullColumnsInReferencing::referencing_RepoObject_guid" <-- "repo.IndexColumn_ReferencedReferencing_HasFullColumnsInReferencing_T::referencing_RepoObject_guid"
"repo.IndexColumn_ReferencedReferencing_HasFullColumnsInReferencing::referencing_RepoObjectColumn_guid" <-- "repo.IndexColumn_ReferencedReferencing_HasFullColumnsInReferencing_T::referencing_RepoObjectColumn_guid"
"repo.IndexColumn_ReferencedReferencing_HasFullColumnsInReferencing::RowNumberInReferencing" <-- "repo.IndexColumn_ReferencedReferencing_HasFullColumnsInReferencing_T::RowNumberInReferencing"
"repo.IndexColumn_ReferencedReferencing_HasFullColumnsInReferencing_T::index_column_id" <-- "repo.IndexColumn_virtual_referenced_setpoint::index_column_id"
"repo.IndexColumn_ReferencedReferencing_HasFullColumnsInReferencing_T::index_column_id" <-- "repo.IndexColumn_ReferencedReferencing_HasFullColumnsInReferencing_check::index_column_id"
"repo.IndexColumn_ReferencedReferencing_HasFullColumnsInReferencing_T::index_guid" <-- "repo.Index_referencing_IndexPatternColumnGuid::source_index_guid"
"repo.IndexColumn_ReferencedReferencing_HasFullColumnsInReferencing_T::index_guid" <-- "repo.IndexColumn_ReferencedReferencing_HasFullColumnsInReferencing_check::index_guid"
"repo.IndexColumn_ReferencedReferencing_HasFullColumnsInReferencing_T::is_descending_key" <-- "repo.IndexColumn_virtual_referenced_setpoint::is_descending_key"
"repo.IndexColumn_ReferencedReferencing_HasFullColumnsInReferencing_T::is_descending_key" <-- "repo.IndexColumn_ReferencedReferencing_HasFullColumnsInReferencing_check::is_descending_key"
"repo.IndexColumn_ReferencedReferencing_HasFullColumnsInReferencing_T::referenced_RepoObject_guid" <-- "repo.IndexColumn_virtual_referenced_setpoint::referenced_RepoObject_guid"
"repo.IndexColumn_ReferencedReferencing_HasFullColumnsInReferencing_T::referenced_RepoObject_guid" <-- "repo.IndexColumn_ReferencedReferencing_HasFullColumnsInReferencing_check::referenced_RepoObject_guid"
"repo.IndexColumn_ReferencedReferencing_HasFullColumnsInReferencing_T::referenced_RepoObjectColumn_guid" <-- "repo.IndexColumn_virtual_referenced_setpoint::referenced_RepoObjectColumn_guid"
"repo.IndexColumn_ReferencedReferencing_HasFullColumnsInReferencing_T::referenced_RepoObjectColumn_guid" <-- "repo.IndexColumn_ReferencedReferencing_HasFullColumnsInReferencing_check::referenced_RepoObjectColumn_guid"
"repo.IndexColumn_ReferencedReferencing_HasFullColumnsInReferencing_T::referencing_RepoObject_guid" <-- "repo.IndexColumn_virtual_referenced_setpoint::referencing_RepoObject_guid"
"repo.IndexColumn_ReferencedReferencing_HasFullColumnsInReferencing_T::referencing_RepoObject_guid" <-- "repo.Index_referencing_IndexPatternColumnGuid::referencing_RepoObject_guid"
"repo.IndexColumn_ReferencedReferencing_HasFullColumnsInReferencing_T::referencing_RepoObject_guid" <-- "repo.IndexColumn_ReferencedReferencing_HasFullColumnsInReferencing_check::referencing_RepoObject_guid"
"repo.IndexColumn_ReferencedReferencing_HasFullColumnsInReferencing_T::referencing_RepoObjectColumn_guid" <-- "repo.IndexColumn_virtual_referenced_setpoint::referencing_RepoObjectColumn_guid"
"repo.IndexColumn_ReferencedReferencing_HasFullColumnsInReferencing_T::referencing_RepoObjectColumn_guid" <-- "repo.IndexColumn_ReferencedReferencing_HasFullColumnsInReferencing_check::referencing_RepoObjectColumn_guid"
"repo.IndexColumn_ReferencedReferencing_HasFullColumnsInReferencing_T::RowNumberInReferencing" <-- "repo.IndexReferencedReferencing_HasFullColumnsInReferencing::RowNumberInReferencing"
"repo.IndexColumn_ReferencedReferencing_HasFullColumnsInReferencing_T::RowNumberInReferencing" <-- "repo.IndexColumn_ReferencedReferencing_HasFullColumnsInReferencing_check::RowNumberInReferencing"
@enduml

