@startuml
left to right direction
'top to bottom direction
hide circle
'avoide "." issues:
set namespaceSeparator none


skinparam class {
  BackgroundColor White
  BackgroundColor<<FN>> Yellow
  BackgroundColor<<FS>> Yellow
  BackgroundColor<<FT>> LightGray
  BackgroundColor<<IF>> Yellow
  BackgroundColor<<IS>> Yellow
  BackgroundColor<<P>> Aqua
  BackgroundColor<<PC>> Aqua
  BackgroundColor<<SN>> Yellow
  BackgroundColor<<SO>> SlateBlue
  BackgroundColor<<TF>> LightGray
  BackgroundColor<<TR>> Tomato
  BackgroundColor<<U>> White
  BackgroundColor<<V>> WhiteSmoke
  BackgroundColor<<X>> Aqua
  BackgroundColor<<external>> AliceBlue
}


entity "puml-link:dhw:sqldb:docs.fs_cleanstringforanchorid.adoc[]" as docs.fs_cleanStringForAnchorId << FN >> {
  --
  --
  --
}

entity "puml-link:dhw:sqldb:docs.fs_cleanstringforfilename.adoc[]" as docs.fs_cleanStringForFilename << FN >> {
  --
  --
  --
}

entity "puml-link:dhw:sqldb:docs.repoobject_indexlist.adoc[]" as docs.RepoObject_IndexList << V >> {
  **RepoObject_guid** : (uniqueidentifier)
  **cultures_name** : (nvarchar(10))
  --
  AntoraIndexList : (nvarchar(max))
  PumlIndexList : (nvarchar(max))
  --
  --
}

entity "puml-link:dhw:sqldb:repo.foreignkey_gross.adoc[]" as repo.ForeignKey_gross << V >> {
  --
  delete_referential_action : (tinyint)
  ForeignKey_fullname : (nvarchar(517))
  ForeignKey_guid : (uniqueidentifier)
  ForeignKey_name : (nvarchar(128))
  - is_MatchingDatatypePattern : (int)
  - referenced_AntoraXref : (nvarchar(4000))
  referenced_index_guid : (uniqueidentifier)
  referenced_index_name : (nvarchar(450))
  referenced_IndexPatternColumnDatatype : (nvarchar(4000))
  referenced_IndexPatternColumnName : (nvarchar(4000))
  referenced_RepoObject_fullname : (nvarchar(261))
  referenced_RepoObject_fullname2 : (nvarchar(257))
  referenced_RepoObject_guid : (uniqueidentifier)
  referenced_SysObject_name : (nvarchar(128))
  referenced_SysObject_schema_name : (nvarchar(128))
  referencing_index_guid : (uniqueidentifier)
  referencing_index_name : (nvarchar(450))
  referencing_IndexPatternColumnDatatype : (nvarchar(4000))
  referencing_IndexPatternColumnName : (nvarchar(4000))
  referencing_RepoObject_fullname : (nvarchar(261))
  referencing_RepoObject_fullname2 : (nvarchar(257))
  referencing_RepoObject_guid : (uniqueidentifier)
  referencing_SysObject_name : (nvarchar(128))
  referencing_SysObject_schema_name : (nvarchar(128))
  update_referential_action : (tinyint)
  --
  --
}

entity "puml-link:dhw:sqldb:repo.foreignkey_indexes_union_t.adoc[]" as repo.ForeignKey_Indexes_union_T << U >> {
  **ForeignKey_guid** : (uniqueidentifier)
  --
  delete_referential_action : (tinyint)
  ForeignKey_fullname : (nvarchar(517))
  ForeignKey_name : (nvarchar(263))
  - is_MatchingDatatypePattern : (int)
  referenced_index_guid : (uniqueidentifier)
  referenced_index_name : (nvarchar(450))
  referenced_IndexPatternColumnDatatype : (nvarchar(4000))
  referenced_IndexPatternColumnName : (nvarchar(4000))
  referenced_RepoObject_fullname : (nvarchar(517))
  referenced_RepoObject_fullname2 : (nvarchar(257))
  referenced_RepoObject_guid : (uniqueidentifier)
  referenced_SysObject_name : (nvarchar(128))
  referenced_SysObject_schema_name : (nvarchar(128))
  referencing_index_guid : (uniqueidentifier)
  referencing_index_name : (nvarchar(450))
  referencing_IndexPatternColumnDatatype : (nvarchar(4000))
  referencing_IndexPatternColumnName : (nvarchar(4000))
  referencing_RepoObject_fullname : (nvarchar(517))
  referencing_RepoObject_fullname2 : (nvarchar(257))
  referencing_RepoObject_guid : (uniqueidentifier)
  referencing_SysObject_name : (nvarchar(128))
  referencing_SysObject_schema_name : (nvarchar(128))
  update_referential_action : (tinyint)
  --
  --
}

entity "puml-link:dhw:sqldb:repo.index_gross.adoc[]" as repo.Index_gross << V >> {
  --
  AntoraIndexColumnList : (nvarchar(max))
  ColumnList : (nvarchar(max))
  ConstraintColumnList : (nvarchar(max))
  DbmlIndexColumnList : (nvarchar(max))
  - index_guid : (uniqueidentifier)
  index_name : (nvarchar(450))
  index_type : (tinyint)
  IndexPatternColumnDatatype : (nvarchar(4000))
  IndexPatternColumnName : (nvarchar(4000))
  IndexSemanticGroup : (nvarchar(512))
  - is_DocsExclude : (bit)
  is_DocsOutput : (int)
  is_index_disabled : (bit)
  is_index_primary_key : (bit)
  is_index_real : (bit)
  is_index_unique : (bit)
  is_persistence : (bit)
  is_repo_managed : (bit)
  parent_RepoObject_guid : (uniqueidentifier)
  PersistenceWhereColumnList : (nvarchar(max))
  PumlIndexColumnList : (nvarchar(max))
  referenced_index_guid : (uniqueidentifier)
  - RepoObject_fullname : (nvarchar(261))
  - RepoObject_fullname2 : (nvarchar(257))
  RowNumber_PatternPerParentObject : (bigint)
  RowNumber_PkPerParentObject : (bigint)
  - SysObject_fullname : (nvarchar(261))
  - SysObject_fullname2 : (nvarchar(257))
  SysObject_id : (int)
  - SysObject_name : (nvarchar(128))
  - SysObject_schema_name : (nvarchar(128))
  SysObject_type : (char(2))
  --
  --
}

docs.fs_cleanStringForAnchorId <.. repo.ForeignKey_gross
docs.fs_cleanStringForFilename <.. repo.ForeignKey_gross
repo.ForeignKey_gross <.. docs.RepoObject_IndexList
repo.ForeignKey_Indexes_union_T <.. repo.ForeignKey_gross
repo.Index_gross <.. repo.ForeignKey_gross
"repo.ForeignKey_Indexes_union_T::delete_referential_action" <-- "repo.ForeignKey_gross::delete_referential_action"
"repo.ForeignKey_Indexes_union_T::ForeignKey_fullname" <-- "repo.ForeignKey_gross::ForeignKey_fullname"
"repo.ForeignKey_Indexes_union_T::ForeignKey_guid" <-- "repo.ForeignKey_gross::ForeignKey_guid"
"repo.ForeignKey_Indexes_union_T::ForeignKey_name" <-- "repo.ForeignKey_gross::ForeignKey_name"
"repo.ForeignKey_Indexes_union_T::is_MatchingDatatypePattern" <-- "repo.ForeignKey_gross::is_MatchingDatatypePattern"
"repo.ForeignKey_Indexes_union_T::referenced_index_guid" <-- "repo.ForeignKey_gross::referenced_index_guid"
"repo.ForeignKey_Indexes_union_T::referenced_IndexPatternColumnDatatype" <-- "repo.ForeignKey_gross::referenced_IndexPatternColumnDatatype"
"repo.ForeignKey_Indexes_union_T::referenced_IndexPatternColumnName" <-- "repo.ForeignKey_gross::referenced_IndexPatternColumnName"
"repo.ForeignKey_Indexes_union_T::referenced_RepoObject_fullname" <-- "repo.ForeignKey_gross::referenced_RepoObject_fullname"
"repo.ForeignKey_Indexes_union_T::referenced_RepoObject_fullname2" <-- "repo.ForeignKey_gross::referenced_RepoObject_fullname2"
"repo.ForeignKey_Indexes_union_T::referenced_RepoObject_guid" <-- "repo.ForeignKey_gross::referenced_RepoObject_guid"
"repo.ForeignKey_Indexes_union_T::referenced_SysObject_name" <-- "repo.ForeignKey_gross::referenced_SysObject_name"
"repo.ForeignKey_Indexes_union_T::referenced_SysObject_schema_name" <-- "repo.ForeignKey_gross::referenced_SysObject_schema_name"
"repo.ForeignKey_Indexes_union_T::referencing_index_guid" <-- "repo.ForeignKey_gross::referencing_index_guid"
"repo.ForeignKey_Indexes_union_T::referencing_IndexPatternColumnDatatype" <-- "repo.ForeignKey_gross::referencing_IndexPatternColumnDatatype"
"repo.ForeignKey_Indexes_union_T::referencing_IndexPatternColumnName" <-- "repo.ForeignKey_gross::referencing_IndexPatternColumnName"
"repo.ForeignKey_Indexes_union_T::referencing_RepoObject_fullname" <-- "repo.ForeignKey_gross::referencing_RepoObject_fullname"
"repo.ForeignKey_Indexes_union_T::referencing_RepoObject_fullname2" <-- "repo.ForeignKey_gross::referencing_RepoObject_fullname2"
"repo.ForeignKey_Indexes_union_T::referencing_RepoObject_guid" <-- "repo.ForeignKey_gross::referencing_RepoObject_guid"
"repo.ForeignKey_Indexes_union_T::referencing_SysObject_name" <-- "repo.ForeignKey_gross::referencing_SysObject_name"
"repo.ForeignKey_Indexes_union_T::referencing_SysObject_schema_name" <-- "repo.ForeignKey_gross::referencing_SysObject_schema_name"
"repo.ForeignKey_Indexes_union_T::update_referential_action" <-- "repo.ForeignKey_gross::update_referential_action"
"repo.Index_gross::index_name" <-- "repo.ForeignKey_gross::referenced_index_name"
"repo.Index_gross::index_name" <-- "repo.ForeignKey_gross::referencing_index_name"
@enduml

