@startuml
left to right direction
'top to bottom direction
hide circle
'avoide "." issues:
set namespaceSeparator none


skinparam class {
  BackgroundColor White
  BackgroundColor<<FN>> Yellow
  BackgroundColor<<FS>> Yellow
  BackgroundColor<<FT>> LightGray
  BackgroundColor<<IF>> Yellow
  BackgroundColor<<IS>> Yellow
  BackgroundColor<<P>> Aqua
  BackgroundColor<<PC>> Aqua
  BackgroundColor<<SN>> Yellow
  BackgroundColor<<SO>> SlateBlue
  BackgroundColor<<TF>> LightGray
  BackgroundColor<<TR>> Tomato
  BackgroundColor<<U>> White
  BackgroundColor<<V>> WhiteSmoke
  BackgroundColor<<X>> Aqua
  BackgroundColor<<external>> AliceBlue
}


entity "puml-link:dhw:sqldb:logs.usp_executionlog_insert.adoc[]" as logs.usp_ExecutionLog_insert << P >> {
  --
  --
  --
}

entity "puml-link:dhw:sqldb:repo.indexcolumn_union.adoc[]" as repo.IndexColumn_union << V >> {
  **index_guid** : (uniqueidentifier)
  - **index_column_id** : (int)
  --
  index_name : (nvarchar(450))
  is_descending_key : (bit)
  is_index_primary_key : (bit)
  is_index_real : (bit)
  is_index_unique : (bit)
  parent_RepoObject_guid : (uniqueidentifier)
  parent_schema_name : (nvarchar(128))
  parent_SysObject_fullname : (nvarchar(261))
  parent_SysObject_name : (nvarchar(128))
  RepoObjectColumn_guid : (uniqueidentifier)
  SysObject_column_name : (nvarchar(128))
  SysObject_column_user_type_fullname : (nvarchar(182))
  --
  --
}

entity "puml-link:dhw:sqldb:repo.indexcolumn_union_t.adoc[]" as repo.IndexColumn_union_T << U >> {
  **index_guid** : (uniqueidentifier)
  - **index_column_id** : (int)
  --
  index_name : (nvarchar(450))
  is_descending_key : (bit)
  is_index_primary_key : (bit)
  is_index_real : (bit)
  is_index_unique : (bit)
  parent_RepoObject_guid : (uniqueidentifier)
  parent_schema_name : (nvarchar(128))
  parent_SysObject_fullname : (nvarchar(261))
  parent_SysObject_name : (nvarchar(128))
  RepoObjectColumn_guid : (uniqueidentifier)
  SysObject_column_name : (nvarchar(128))
  SysObject_column_user_type_fullname : (nvarchar(182))
  --
  --
}

entity "puml-link:dhw:sqldb:repo.usp_index_finish.adoc[]" as repo.usp_Index_finish << P >> {
  --
  --
  --
}

entity "puml-link:dhw:sqldb:repo.usp_persist_indexcolumn_union_t.adoc[]" as repo.usp_PERSIST_IndexColumn_union_T << P >> {
  --
  --
  --
}

logs.usp_ExecutionLog_insert <.. repo.usp_PERSIST_IndexColumn_union_T
repo.IndexColumn_union <.. repo.usp_PERSIST_IndexColumn_union_T
repo.IndexColumn_union_T <.. repo.usp_PERSIST_IndexColumn_union_T
repo.usp_PERSIST_IndexColumn_union_T <.. repo.usp_Index_finish

@enduml

