@startuml
left to right direction
'top to bottom direction
hide circle
'avoide "." issues:
set namespaceSeparator none


skinparam class {
  BackgroundColor White
  BackgroundColor<<FN>> Yellow
  BackgroundColor<<FS>> Yellow
  BackgroundColor<<FT>> LightGray
  BackgroundColor<<IF>> Yellow
  BackgroundColor<<IS>> Yellow
  BackgroundColor<<P>> Aqua
  BackgroundColor<<PC>> Aqua
  BackgroundColor<<SN>> Yellow
  BackgroundColor<<SO>> SlateBlue
  BackgroundColor<<TF>> LightGray
  BackgroundColor<<TR>> Tomato
  BackgroundColor<<U>> White
  BackgroundColor<<V>> WhiteSmoke
  BackgroundColor<<X>> Aqua
  BackgroundColor<<external>> AliceBlue
}


entity "puml-link:dhw:sqldb:repo.index_virtual_indexpatterncolumnguid.adoc[]" as repo.Index_virtual_IndexPatternColumnGuid << V >> {
  - index_guid : (uniqueidentifier)
  IndexPatternColumnGuid : (varchar(8000))
  parent_RepoObject_guid : (uniqueidentifier)
  --
}

entity "puml-link:dhw:sqldb:repo.indexcolumn_virtual.adoc[]" as repo.IndexColumn_virtual << U >> {
  - **index_guid** : (uniqueidentifier)
  - **index_column_id** : (int)
  - is_descending_key : (bit)
  - RepoObjectColumn_guid : (uniqueidentifier)
  --
}

entity "puml-link:dhw:sqldb:repo.indexcolumn_virtual_gross.adoc[]" as repo.IndexColumn_virtual_gross << V >> {
  - **index_column_id** : (int)
  column_user_type_fullname : (nvarchar(128))
  - index_guid : (uniqueidentifier)
  index_name : (nvarchar(128))
  - is_descending_key : (bit)
  - is_index_primary_key : (bit)
  is_index_real : (bit)
  - is_index_unique : (bit)
  - Object_column_name : (nvarchar(128))
  parent_Object_fullname : (nvarchar(261))
  parent_Object_name : (nvarchar(128))
  - parent_RepoObject_guid : (uniqueidentifier)
  parent_schema_name : (nvarchar(128))
  - RepoObjectColumn_guid : (uniqueidentifier)
  --
}

entity "puml-link:dhw:sqldb:repo.usp_index_finish.adoc[]" as repo.usp_Index_finish << P >> {
  --
}

entity "puml-link:dhw:sqldb:repo.usp_index_inheritance.adoc[]" as repo.usp_index_inheritance << P >> {
  --
}

entity "puml-link:dhw:sqldb:repo.usp_index_virtual_set.adoc[]" as repo.usp_Index_virtual_set << P >> {
  --
}

entity "puml-link:dhw:sqldb:repo.usp_sync_guid_repoobjectcolumn.adoc[]" as repo.usp_sync_guid_RepoObjectColumn << P >> {
  --
}

repo.IndexColumn_virtual <.. repo.IndexColumn_virtual_gross
repo.IndexColumn_virtual <.. repo.usp_index_inheritance
repo.IndexColumn_virtual <.. repo.usp_Index_virtual_set
repo.IndexColumn_virtual <.. repo.usp_sync_guid_RepoObjectColumn
repo.IndexColumn_virtual <.. repo.Index_virtual_IndexPatternColumnGuid
repo.IndexColumn_virtual <.. repo.usp_Index_finish
"repo.IndexColumn_virtual::index_column_id" <-- "repo.IndexColumn_virtual_gross::index_column_id"
"repo.IndexColumn_virtual::index_guid" <-- "repo.IndexColumn_virtual_gross::index_guid"
"repo.IndexColumn_virtual::is_descending_key" <-- "repo.IndexColumn_virtual_gross::is_descending_key"
"repo.IndexColumn_virtual::RepoObjectColumn_guid" <-- "repo.IndexColumn_virtual_gross::RepoObjectColumn_guid"footer The diagram is interactive and contains links.
@enduml

