@startuml
left to right direction
'top to bottom direction
hide circle
'avoide "." issues:
set namespaceSeparator none


skinparam class {
  BackgroundColor White
  BackgroundColor<<FN>> Yellow
  BackgroundColor<<FS>> Yellow
  BackgroundColor<<FT>> LightGray
  BackgroundColor<<IF>> Yellow
  BackgroundColor<<IS>> Yellow
  BackgroundColor<<P>> Aqua
  BackgroundColor<<PC>> Aqua
  BackgroundColor<<SN>> Yellow
  BackgroundColor<<SO>> SlateBlue
  BackgroundColor<<TF>> LightGray
  BackgroundColor<<TR>> Tomato
  BackgroundColor<<U>> White
  BackgroundColor<<V>> WhiteSmoke
  BackgroundColor<<X>> Aqua
  BackgroundColor<<external>> AliceBlue
}


entity "puml-link:dhw:sqldb:logs.usp_executionlog_insert.adoc[]" as logs.usp_ExecutionLog_insert << P >> {
  --
  --
  --
}

entity "puml-link:dhw:sqldb:reference.usp_additional_reference.adoc[]" as reference.usp_additional_Reference << P >> {
  --
  --
  --
}

entity "puml-link:dhw:sqldb:repo.repoobject_external_src.adoc[]" as repo.RepoObject_external_src << V >> {
  - **RepoObject_guid** : (uniqueidentifier)
  --
  - external_AntoraComponent : (nvarchar(128))
  - external_AntoraModule : (nvarchar(128))
  - is_external : (int)
  - is_repo_managed : (int)
  - RepoObject_name : (nvarchar(128))
  - RepoObject_schema_name : (nvarchar(128))
  - RepoObject_type : (varchar(1))
  - SysObject_name : (nvarchar(128))
  - SysObject_schema_name : (nvarchar(128))
  - SysObject_type : (varchar(1))
  --
  --
}

entity "puml-link:dhw:sqldb:repo.repoobject_external_tgt.adoc[]" as repo.RepoObject_external_tgt << V >> {
  - **RepoObject_guid** : (uniqueidentifier)
  --
  - external_AntoraComponent : (nvarchar(128))
  - external_AntoraModule : (nvarchar(128))
  has_execution_plan_issue : (bit)
  has_get_referenced_issue : (bit)
  Inheritance_StringAggSeparatorSql : (nvarchar(4000))
  InheritanceDefinition : (nvarchar(4000))
  InheritanceType : (tinyint)
  - is_external : (int)
  - is_repo_managed : (int)
  is_required_ObjectMerge : (bit)
  - is_ssas : (bit)
  is_SysObject_missing : (bit)
  - modify_dt : (datetime)
  pk_index_guid : (uniqueidentifier)
  pk_IndexPatternColumnName_new : (nvarchar(4000))
  Repo_history_table_guid : (uniqueidentifier)
  Repo_temporal_type : (tinyint)
  - RepoObject_name : (nvarchar(128))
  RepoObject_Referencing_Count : (int)
  - RepoObject_schema_name : (nvarchar(128))
  - RepoObject_type : (varchar(1))
  SysObject_id : (int)
  SysObject_modify_date : (datetime)
  - SysObject_name : (nvarchar(128))
  - SysObject_parent_object_id : (int)
  - SysObject_schema_name : (nvarchar(128))
  - SysObject_type : (varchar(1))
  --
  --
}

entity "puml-link:dhw:sqldb:repo.usp_persist_repoobject_external_tgt.adoc[]" as repo.usp_PERSIST_RepoObject_external_tgt << P >> {
  --
  --
  --
}

logs.usp_ExecutionLog_insert <.. repo.usp_PERSIST_RepoObject_external_tgt
repo.RepoObject_external_src <.. repo.usp_PERSIST_RepoObject_external_tgt
repo.RepoObject_external_tgt <.. repo.usp_PERSIST_RepoObject_external_tgt
repo.usp_PERSIST_RepoObject_external_tgt <.. reference.usp_additional_Reference

@enduml

