@startuml
left to right direction
'top to bottom direction
hide circle
'avoide "." issues:
set namespaceSeparator none


skinparam class {
  BackgroundColor White
  BackgroundColor<<FN>> Yellow
  BackgroundColor<<FS>> Yellow
  BackgroundColor<<FT>> LightGray
  BackgroundColor<<IF>> Yellow
  BackgroundColor<<IS>> Yellow
  BackgroundColor<<P>> Aqua
  BackgroundColor<<PC>> Aqua
  BackgroundColor<<SN>> Yellow
  BackgroundColor<<SO>> SlateBlue
  BackgroundColor<<TF>> LightGray
  BackgroundColor<<TR>> Tomato
  BackgroundColor<<U>> White
  BackgroundColor<<V>> WhiteSmoke
  BackgroundColor<<X>> Aqua
  BackgroundColor<<external>> AliceBlue
}


entity "puml-link:dhw:sqldb:docs.repoobject_adoc.adoc[]" as docs.RepoObject_Adoc << V >> {
  - AdocContent : (nvarchar(max))
  - cultures_name : (nvarchar(10))
  is_DocsOutput : (int)
  PropertyCount : (int)
  RepoObject_DisplayName : (nvarchar(128))
  RepoObject_FullDisplayName2 : (nvarchar(257))
  RepoObject_fullname : (nvarchar(261))
  RepoObject_fullname2 : (nvarchar(257))
  - RepoObject_guid : (uniqueidentifier)
  RepoObject_schema_name : (nvarchar(128))
  RepoObject_translation : (nvarchar(128))
  SysObject_fullname : (nvarchar(261))
  SysObject_fullname2 : (nvarchar(257))
  SysObject_schema_name : (nvarchar(128))
  SysObject_type : (char(2))
  SysObject_type_name : (nvarchar(128))
  --
}

entity "puml-link:dhw:sqldb:property.repoobjectproperty_collect_source_rogross.adoc[]" as property.RepoObjectProperty_Collect_source_ROGross << V >> {
  - **RepoObject_guid** : (uniqueidentifier)
  - **property_name** : (varchar(39))
  property_value : (nvarchar(max))
  --
}

entity "puml-link:dhw:sqldb:repo.repoobject_sat2.adoc[]" as repo.RepoObject_sat2 << V >> {
  - **RepoObject_guid** : (uniqueidentifier)
  AntoraReferencedList : (nvarchar(max))
  AntoraReferencingList : (nvarchar(max))
  CreateColumnList : (nvarchar(max))
  DbmlColumnList : (nvarchar(max))
  PersistenceCompareColumnList : (nvarchar(max))
  PersistenceInsertColumnList : (nvarchar(max))
  PersistenceUpdateColumnList : (nvarchar(max))
  sql_modules_antora : (nvarchar(max))
  sql_modules_definition : (nvarchar(max))
  sql_modules_formatted : (nvarchar(max))
  sql_modules_formatted2 : (nvarchar(max))
  --
}

entity "puml-link:dhw:sqldb:repo.repoobject_sat2_t.adoc[]" as repo.RepoObject_sat2_T << U >> {
  - **RepoObject_guid** : (uniqueidentifier)
  AntoraReferencedList : (nvarchar(max))
  AntoraReferencingList : (nvarchar(max))
  CreateColumnList : (nvarchar(max))
  DbmlColumnList : (nvarchar(max))
  PersistenceCompareColumnList : (nvarchar(max))
  PersistenceInsertColumnList : (nvarchar(max))
  PersistenceUpdateColumnList : (nvarchar(max))
  sql_modules_antora : (nvarchar(max))
  sql_modules_definition : (nvarchar(max))
  sql_modules_formatted : (nvarchar(max))
  sql_modules_formatted2 : (nvarchar(max))
  --
}

entity "puml-link:dhw:sqldb:repo.usp_persist_repoobject_sat2_t.adoc[]" as repo.usp_PERSIST_RepoObject_sat2_T << P >> {
  --
}

entity "puml-link:dhw:sqldb:uspgenerator.generatoruspstep_persistence_src.adoc[]" as uspgenerator.GeneratorUspStep_Persistence_src << V >> {
  - **usp_id** : (int)
  - has_logging : (int)
  - is_condition : (int)
  - is_inactive : (int)
  - is_SubProcedure : (int)
  log_flag_InsertUpdateDelete : (varchar(1))
  log_source_object : (nvarchar(261))
  log_target_object : (nvarchar(261))
  - Name : (varchar(45))
  - Number : (int)
  Parent_Number : (int)
  - RepoObject_guid : (uniqueidentifier)
  Statement : (nvarchar(max))
  - usp_fullname : (nvarchar(261))
  --
}

repo.RepoObject_sat2 <.. repo.RepoObject_sat2_T
repo.RepoObject_sat2_T <.. property.RepoObjectProperty_Collect_source_ROGross
repo.RepoObject_sat2_T <.. repo.usp_PERSIST_RepoObject_sat2_T
repo.RepoObject_sat2_T <.. docs.RepoObject_Adoc
repo.RepoObject_sat2_T <.. uspgenerator.GeneratorUspStep_Persistence_src
"repo.RepoObject_sat2::AntoraReferencedList" <-- "repo.RepoObject_sat2_T::AntoraReferencedList"
"repo.RepoObject_sat2::AntoraReferencingList" <-- "repo.RepoObject_sat2_T::AntoraReferencingList"
"repo.RepoObject_sat2::CreateColumnList" <-- "repo.RepoObject_sat2_T::CreateColumnList"
"repo.RepoObject_sat2::DbmlColumnList" <-- "repo.RepoObject_sat2_T::DbmlColumnList"
"repo.RepoObject_sat2::PersistenceCompareColumnList" <-- "repo.RepoObject_sat2_T::PersistenceCompareColumnList"
"repo.RepoObject_sat2::PersistenceInsertColumnList" <-- "repo.RepoObject_sat2_T::PersistenceInsertColumnList"
"repo.RepoObject_sat2::PersistenceUpdateColumnList" <-- "repo.RepoObject_sat2_T::PersistenceUpdateColumnList"
"repo.RepoObject_sat2::RepoObject_guid" <-- "repo.RepoObject_sat2_T::RepoObject_guid"
"repo.RepoObject_sat2::sql_modules_antora" <-- "repo.RepoObject_sat2_T::sql_modules_antora"
"repo.RepoObject_sat2::sql_modules_definition" <-- "repo.RepoObject_sat2_T::sql_modules_definition"
"repo.RepoObject_sat2::sql_modules_formatted" <-- "repo.RepoObject_sat2_T::sql_modules_formatted"
"repo.RepoObject_sat2::sql_modules_formatted2" <-- "repo.RepoObject_sat2_T::sql_modules_formatted2"footer The diagram is interactive and contains links.
@enduml

