@startuml
left to right direction
'top to bottom direction
hide circle
'avoide "." issues:
set namespaceSeparator none


skinparam class {
  BackgroundColor White
  BackgroundColor<<FN>> Yellow
  BackgroundColor<<FS>> Yellow
  BackgroundColor<<FT>> LightGray
  BackgroundColor<<IF>> Yellow
  BackgroundColor<<IS>> Yellow
  BackgroundColor<<P>> Aqua
  BackgroundColor<<PC>> Aqua
  BackgroundColor<<SN>> Yellow
  BackgroundColor<<SO>> SlateBlue
  BackgroundColor<<TF>> LightGray
  BackgroundColor<<TR>> Tomato
  BackgroundColor<<U>> White
  BackgroundColor<<V>> WhiteSmoke
  BackgroundColor<<X>> Aqua
  BackgroundColor<<external>> AliceBlue
}


entity "puml-link:dhw:sqldb:repo.index_columlist.adoc[]" as repo.Index_ColumList << V >> {
  AntoraIndexColumnList : (nvarchar(max))
  ColumnList : (nvarchar(max))
  ConstraintColumnList : (nvarchar(max))
  DbmlIndexColumnList : (nvarchar(max))
  - index_guid : (uniqueidentifier)
  PersistenceWhereColumnList : (nvarchar(max))
  PumlIndexColumnList : (nvarchar(max))
  --
}

entity "puml-link:dhw:sqldb:repo.index_indexpattern.adoc[]" as repo.Index_IndexPattern << V >> {
  - index_guid : (uniqueidentifier)
  IndexPatternColumnDatatype : (nvarchar(4000))
  IndexPatternColumnName : (nvarchar(4000))
  --
}

entity "puml-link:dhw:sqldb:repo.indexcolumn_referencedreferencing_hasfullcolumnsinreferencing.adoc[]" as repo.IndexColumn_ReferencedReferencing_HasFullColumnsInReferencing << V >> {
  - **index_guid** : (uniqueidentifier)
  - **index_column_id** : (int)
  **RowNumberInReferencing** : (bigint)
  is_descending_key : (bit)
  referenced_RepoObject_guid : (uniqueidentifier)
  - referenced_RepoObjectColumn_guid : (uniqueidentifier)
  referencing_RepoObject_guid : (uniqueidentifier)
  - referencing_RepoObjectColumn_guid : (uniqueidentifier)
  --
}

entity "puml-link:dhw:sqldb:repo.indexcolumn_union.adoc[]" as repo.IndexColumn_union << V >> {
  **index_guid** : (uniqueidentifier)
  - **index_column_id** : (int)
  index_name : (nvarchar(450))
  is_descending_key : (bit)
  is_index_primary_key : (bit)
  is_index_real : (bit)
  is_index_unique : (bit)
  parent_RepoObject_guid : (uniqueidentifier)
  parent_schema_name : (nvarchar(128))
  parent_SysObject_fullname : (nvarchar(261))
  parent_SysObject_name : (nvarchar(128))
  RepoObjectColumn_guid : (uniqueidentifier)
  SysObject_column_name : (nvarchar(128))
  SysObject_column_user_type_fullname : (nvarchar(182))
  --
}

entity "puml-link:dhw:sqldb:repo.indexcolumn_union_t.adoc[]" as repo.IndexColumn_union_T << U >> {
  **index_guid** : (uniqueidentifier)
  - **index_column_id** : (int)
  index_name : (nvarchar(450))
  is_descending_key : (bit)
  is_index_primary_key : (bit)
  is_index_real : (bit)
  is_index_unique : (bit)
  parent_RepoObject_guid : (uniqueidentifier)
  parent_schema_name : (nvarchar(128))
  parent_SysObject_fullname : (nvarchar(261))
  parent_SysObject_name : (nvarchar(128))
  RepoObjectColumn_guid : (uniqueidentifier)
  SysObject_column_name : (nvarchar(128))
  SysObject_column_user_type_fullname : (nvarchar(182))
  --
}

entity "puml-link:dhw:sqldb:repo.repoobjectcolumn_gross2.adoc[]" as repo.RepoObjectColumn_gross2 << V >> {
  AntoraReferencedColumnList : (nvarchar(max))
  AntoraReferencingColumnList : (nvarchar(max))
  - Column_name : (nvarchar(128))
  Description : (nvarchar(max))
  has_different_sys_names : (bit)
  has_get_referenced_issue : (bit)
  index_column_id : (int)
  index_name : (nvarchar(450))
  Inheritance_StringAggSeparatorSql : (nvarchar(4000))
  InheritanceDefinition : (nvarchar(4000))
  InheritanceType : (tinyint)
  - is_external : (bit)
  is_index_primary_key : (bit)
  is_persistence_no_check : (bit)
  is_persistence_no_include : (bit)
  is_persistence_no_update : (bit)
  is_query_plan_expression : (bit)
  is_repo_managed : (bit)
  - is_RepoObject_name_uniqueidentifier : (int)
  - is_RepoObjectColumn_name_uniqueidentifier : (int)
  is_required_ColumnMerge : (bit)
  - is_ssas : (bit)
  is_SysObject_missing : (bit)
  - is_SysObject_name_uniqueidentifier : (int)
  is_SysObjectColumn_missing : (bit)
  - is_SysObjectColumn_name_uniqueidentifier : (int)
  isAnyIndexColumn : (int)
  - modify_dt : (datetime)
  node_id : (bigint)
  persistence_source_RepoObject_guid : (uniqueidentifier)
  persistence_source_RepoObject_guid_via_Column : (uniqueidentifier)
  persistence_source_RepoObjectColumn_guid : (uniqueidentifier)
  pk_index_guid : (uniqueidentifier)
  Property_ms_description : (nvarchar(4000))
  Referencing_Count : (int)
  Repo_default_definition : (nvarchar(max))
  Repo_default_is_system_named : (bit)
  Repo_default_name : (nvarchar(128))
  Repo_definition : (nvarchar(max))
  - Repo_generated_always_type : (tinyint)
  Repo_graph_type : (int)
  Repo_increment_value : (sql_variant)
  - Repo_is_computed : (bit)
  - Repo_is_identity : (bit)
  Repo_is_nullable : (bit)
  Repo_is_persisted : (bit)
  Repo_seed_value : (sql_variant)
  Repo_user_type_fullname : (nvarchar(128))
  Repo_user_type_name : (nvarchar(128))
  Repo_uses_database_collation : (bit)
  - RepoObject_fullname : (nvarchar(261))
  - RepoObject_fullname2 : (nvarchar(257))
  - RepoObject_guid : (uniqueidentifier)
  - RepoObject_name : (nvarchar(128))
  RepoObject_Referencing_Count : (int)
  - RepoObject_schema_name : (nvarchar(128))
  - RepoObject_type : (char(2))
  RepoObjectColumn_column_id : (int)
  - RepoObjectColumn_fullname : (nvarchar(520))
  - RepoObjectColumn_fullname2 : (nvarchar(386))
  - RepoObjectColumn_guid : (uniqueidentifier)
  - RepoObjectColumn_name : (nvarchar(128))
  - SysObject_fullname : (nvarchar(261))
  - SysObject_fullname2 : (nvarchar(257))
  SysObject_id : (int)
  SysObject_modify_date : (datetime)
  - SysObject_name : (nvarchar(128))
  - SysObject_parent_object_id : (int)
  - SysObject_schema_name : (nvarchar(128))
  SysObject_type : (char(2))
  SysObjectColumn_column_id : (int)
  - SysObjectColumn_name : (nvarchar(128))
  tabcol_Description : (nvarchar(max))
  tabcol_DisplayFolder : (nvarchar(500))
  tabcol_Expression : (nvarchar(max))
  tabcol_FormatString : (nvarchar(500))
  - tabcol_IsHidden : (bit)
  - tabcol_IsKey : (bit)
  - tabcol_IsUnique : (bit)
  tabcol_SummarizeBy : (nvarchar(500))
  tabcol_Type : (nvarchar(500))
  --
}

entity "puml-link:dhw:sqldb:repo.usp_persist_indexcolumn_union_t.adoc[]" as repo.usp_PERSIST_IndexColumn_union_T << P >> {
  --
}

repo.IndexColumn_union <.. repo.IndexColumn_union_T
repo.IndexColumn_union_T <.. repo.Index_ColumList
repo.IndexColumn_union_T <.. repo.IndexColumn_ReferencedReferencing_HasFullColumnsInReferencing
repo.IndexColumn_union_T <.. repo.Index_IndexPattern
repo.IndexColumn_union_T <.. repo.RepoObjectColumn_gross2
repo.IndexColumn_union_T <.. repo.usp_PERSIST_IndexColumn_union_T
"repo.IndexColumn_union::index_column_id" <-- "repo.IndexColumn_union_T::index_column_id"
"repo.IndexColumn_union::index_guid" <-- "repo.IndexColumn_union_T::index_guid"
"repo.IndexColumn_union::index_name" <-- "repo.IndexColumn_union_T::index_name"
"repo.IndexColumn_union::is_descending_key" <-- "repo.IndexColumn_union_T::is_descending_key"
"repo.IndexColumn_union::is_index_primary_key" <-- "repo.IndexColumn_union_T::is_index_primary_key"
"repo.IndexColumn_union::is_index_real" <-- "repo.IndexColumn_union_T::is_index_real"
"repo.IndexColumn_union::is_index_unique" <-- "repo.IndexColumn_union_T::is_index_unique"
"repo.IndexColumn_union::parent_RepoObject_guid" <-- "repo.IndexColumn_union_T::parent_RepoObject_guid"
"repo.IndexColumn_union::parent_schema_name" <-- "repo.IndexColumn_union_T::parent_schema_name"
"repo.IndexColumn_union::parent_SysObject_fullname" <-- "repo.IndexColumn_union_T::parent_SysObject_fullname"
"repo.IndexColumn_union::parent_SysObject_name" <-- "repo.IndexColumn_union_T::parent_SysObject_name"
"repo.IndexColumn_union::RepoObjectColumn_guid" <-- "repo.IndexColumn_union_T::RepoObjectColumn_guid"
"repo.IndexColumn_union::SysObject_column_name" <-- "repo.IndexColumn_union_T::SysObject_column_name"
"repo.IndexColumn_union::SysObject_column_user_type_fullname" <-- "repo.IndexColumn_union_T::SysObject_column_user_type_fullname"
"repo.IndexColumn_union_T::index_column_id" <-- "repo.RepoObjectColumn_gross2::index_column_id"
"repo.IndexColumn_union_T::index_column_id" <-- "repo.IndexColumn_ReferencedReferencing_HasFullColumnsInReferencing::index_column_id"
"repo.IndexColumn_union_T::index_guid" <-- "repo.IndexColumn_ReferencedReferencing_HasFullColumnsInReferencing::index_guid"
"repo.IndexColumn_union_T::index_guid" <-- "repo.Index_IndexPattern::index_guid"
"repo.IndexColumn_union_T::index_guid" <-- "repo.Index_ColumList::index_guid"
"repo.IndexColumn_union_T::index_name" <-- "repo.RepoObjectColumn_gross2::index_name"
"repo.IndexColumn_union_T::is_descending_key" <-- "repo.IndexColumn_ReferencedReferencing_HasFullColumnsInReferencing::is_descending_key"
"repo.IndexColumn_union_T::is_index_primary_key" <-- "repo.RepoObjectColumn_gross2::is_index_primary_key"footer The diagram is interactive and contains links.
@enduml

