@startuml
left to right direction
'top to bottom direction
hide circle
'avoide "." issues:
set namespaceSeparator none


skinparam class {
  BackgroundColor White
  BackgroundColor<<FN>> Yellow
  BackgroundColor<<FS>> Yellow
  BackgroundColor<<FT>> LightGray
  BackgroundColor<<IF>> Yellow
  BackgroundColor<<IS>> Yellow
  BackgroundColor<<P>> Aqua
  BackgroundColor<<PC>> Aqua
  BackgroundColor<<SN>> Yellow
  BackgroundColor<<SO>> SlateBlue
  BackgroundColor<<TF>> LightGray
  BackgroundColor<<TR>> Tomato
  BackgroundColor<<U>> White
  BackgroundColor<<V>> WhiteSmoke
  BackgroundColor<<X>> Aqua
  BackgroundColor<<external>> AliceBlue
}


entity "puml-link:dhw:sqldb:repo.repoobject.adoc[]" as repo.RepoObject << U >> {
  - **RepoObject_guid** : (uniqueidentifier)
  --
  external_AntoraComponent : (nvarchar(128))
  external_AntoraModule : (nvarchar(128))
  has_execution_plan_issue : (bit)
  has_get_referenced_issue : (bit)
  Inheritance_Source_fullname : (nvarchar(261))
  Inheritance_StringAggSeparatorSql : (nvarchar(4000))
  InheritanceDefinition : (nvarchar(4000))
  InheritanceType : (tinyint)
  - is_DocsExclude : (bit)
  - is_external : (bit)
  is_repo_managed : (bit)
  is_required_ObjectMerge : (bit)
  - is_ssas : (bit)
  is_SysObject_missing : (bit)
  - modify_dt : (datetime)
  pk_index_guid : (uniqueidentifier)
  pk_IndexPatternColumnName_new : (nvarchar(4000))
  Repo_history_table_guid : (uniqueidentifier)
  Repo_temporal_type : (tinyint)
  - RepoObject_name : (nvarchar(128))
  RepoObject_Referencing_Count : (int)
  - RepoObject_schema_name : (nvarchar(128))
  - RepoObject_type : (char(2))
  SysObject_id : (int)
  SysObject_modify_date : (datetime)
  - SysObject_name : (nvarchar(128))
  - SysObject_parent_object_id : (int)
  - SysObject_schema_name : (nvarchar(128))
  SysObject_type : (char(2))
  ~ has_different_sys_names : (bit)
  # is_RepoObject_name_uniqueidentifier : (int)
  # is_SysObject_name_uniqueidentifier : (int)
  ~ node_id : (bigint)
  # RepoObject_fullname : (nvarchar(261))
  # RepoObject_fullname2 : (nvarchar(257))
  # SysObject_fullname : (nvarchar(261))
  # SysObject_fullname2 : (nvarchar(257))
  ~ SysObject_query_sql : (nvarchar(406))
  # usp_persistence_fullname2 : (nvarchar(269))
  # usp_persistence_name : (nvarchar(140))
  --
  --
}

entity "puml-link:dhw:sqldb:repo.sysobject_repoobject_via_guid.adoc[]" as repo.SysObject_RepoObject_via_guid << V >> {
  --
  history_table_guid : (uniqueidentifier)
  history_table_id : (int)
  is_external : (bit)
  is_repo_managed : (bit)
  is_RepoObject_name_uniqueidentifier : (int)
  is_ssas : (bit)
  is_SysObject_name_uniqueidentifier : (int)
  - modify_date : (datetime)
  - parent_object_id : (int)
  Repo_history_table_guid : (uniqueidentifier)
  Repo_temporal_type : (tinyint)
  RepoObject_guid : (uniqueidentifier)
  RepoObject_is_SysObject_missing : (bit)
  RepoObject_name : (nvarchar(128))
  RepoObject_schema_name : (nvarchar(128))
  RepoObject_SysObject_id : (int)
  RepoObject_SysObject_modify_date : (datetime)
  RepoObject_SysObject_name : (nvarchar(128))
  RepoObject_SysObject_parent_object_id : (int)
  RepoObject_SysObject_schema_name : (nvarchar(128))
  RepoObject_SysObject_type : (char(2))
  RepoObject_type : (char(2))
  - SysObject_id : (int)
  - SysObject_name : (sysname)
  SysObject_RepoObject_guid : (uniqueidentifier)
  SysObject_schema_name : (sysname)
  SysObject_type : (char(2))
  SysObject_type_desc : (nvarchar(60))
  temporal_type : (tinyint)
  --
  --
}

entity "puml-link:dhw:sqldb:repo.usp_sync_guid_repoobject.adoc[]" as repo.usp_sync_guid_RepoObject << P >> {
  --
  --
  --
}

entity "puml-link:dhw:sqldb:repo_sys.sysobject.adoc[]" as repo_sys.SysObject << V >> {
  --
  - create_date : (datetime)
  history_table_id : (int)
  - is_ms_shipped : (bit)
  - is_published : (bit)
  - is_schema_published : (bit)
  max_column_id_used : (int)
  - modify_date : (datetime)
  - parent_object_id : (int)
  principal_id : (int)
  - schema_id : (int)
  sql_modules_definition : (nvarchar(max))
  - SysObject_fullname : (nvarchar(517))
  - SysObject_fullname2 : (nvarchar(257))
  - SysObject_id : (int)
  - SysObject_name : (sysname)
  SysObject_RepoObject_guid : (uniqueidentifier)
  SysObject_schema_name : (sysname)
  temporal_type : (tinyint)
  temporal_type_desc : (nvarchar(60))
  type : (char(2))
  type_desc : (nvarchar(60))
  --
  --
}

repo.RepoObject <.. repo.SysObject_RepoObject_via_guid
repo.SysObject_RepoObject_via_guid <.. repo.usp_sync_guid_RepoObject
repo_sys.SysObject <.. repo.SysObject_RepoObject_via_guid
"repo.RepoObject::is_external" <-- "repo.SysObject_RepoObject_via_guid::is_external"
"repo.RepoObject::is_repo_managed" <-- "repo.SysObject_RepoObject_via_guid::is_repo_managed"
"repo.RepoObject::is_RepoObject_name_uniqueidentifier" <-- "repo.SysObject_RepoObject_via_guid::is_RepoObject_name_uniqueidentifier"
"repo.RepoObject::is_ssas" <-- "repo.SysObject_RepoObject_via_guid::is_ssas"
"repo.RepoObject::is_SysObject_missing" <-- "repo.SysObject_RepoObject_via_guid::RepoObject_is_SysObject_missing"
"repo.RepoObject::is_SysObject_name_uniqueidentifier" <-- "repo.SysObject_RepoObject_via_guid::is_SysObject_name_uniqueidentifier"
"repo.RepoObject::Repo_history_table_guid" <-- "repo.SysObject_RepoObject_via_guid::Repo_history_table_guid"
"repo.RepoObject::Repo_temporal_type" <-- "repo.SysObject_RepoObject_via_guid::Repo_temporal_type"
"repo.RepoObject::RepoObject_guid" <-- "repo.SysObject_RepoObject_via_guid::history_table_guid"
"repo.RepoObject::RepoObject_guid" <-- "repo.SysObject_RepoObject_via_guid::RepoObject_guid"
"repo.RepoObject::RepoObject_name" <-- "repo.SysObject_RepoObject_via_guid::RepoObject_name"
"repo.RepoObject::RepoObject_schema_name" <-- "repo.SysObject_RepoObject_via_guid::RepoObject_schema_name"
"repo.RepoObject::RepoObject_type" <-- "repo.SysObject_RepoObject_via_guid::RepoObject_type"
"repo.RepoObject::SysObject_id" <-- "repo.SysObject_RepoObject_via_guid::RepoObject_SysObject_id"
"repo.RepoObject::SysObject_modify_date" <-- "repo.SysObject_RepoObject_via_guid::RepoObject_SysObject_modify_date"
"repo.RepoObject::SysObject_name" <-- "repo.SysObject_RepoObject_via_guid::RepoObject_SysObject_name"
"repo.RepoObject::SysObject_parent_object_id" <-- "repo.SysObject_RepoObject_via_guid::RepoObject_SysObject_parent_object_id"
"repo.RepoObject::SysObject_schema_name" <-- "repo.SysObject_RepoObject_via_guid::RepoObject_SysObject_schema_name"
"repo.RepoObject::SysObject_type" <-- "repo.SysObject_RepoObject_via_guid::RepoObject_SysObject_type"
"repo_sys.SysObject::history_table_id" <-- "repo.SysObject_RepoObject_via_guid::history_table_id"
"repo_sys.SysObject::modify_date" <-- "repo.SysObject_RepoObject_via_guid::modify_date"
"repo_sys.SysObject::parent_object_id" <-- "repo.SysObject_RepoObject_via_guid::parent_object_id"
"repo_sys.SysObject::SysObject_id" <-- "repo.SysObject_RepoObject_via_guid::SysObject_id"
"repo_sys.SysObject::SysObject_name" <-- "repo.SysObject_RepoObject_via_guid::SysObject_name"
"repo_sys.SysObject::SysObject_RepoObject_guid" <-- "repo.SysObject_RepoObject_via_guid::SysObject_RepoObject_guid"
"repo_sys.SysObject::SysObject_schema_name" <-- "repo.SysObject_RepoObject_via_guid::SysObject_schema_name"
"repo_sys.SysObject::temporal_type" <-- "repo.SysObject_RepoObject_via_guid::temporal_type"
"repo_sys.SysObject::type" <-- "repo.SysObject_RepoObject_via_guid::SysObject_type"
"repo_sys.SysObject::type_desc" <-- "repo.SysObject_RepoObject_via_guid::SysObject_type_desc"
@enduml

