@startuml
left to right direction
'top to bottom direction
hide circle
'avoide "." issues:
set namespaceSeparator none


skinparam class {
  BackgroundColor White
  BackgroundColor<<FN>> Yellow
  BackgroundColor<<FS>> Yellow
  BackgroundColor<<FT>> LightGray
  BackgroundColor<<IF>> Yellow
  BackgroundColor<<IS>> Yellow
  BackgroundColor<<P>> Aqua
  BackgroundColor<<PC>> Aqua
  BackgroundColor<<SN>> Yellow
  BackgroundColor<<SO>> SlateBlue
  BackgroundColor<<TF>> LightGray
  BackgroundColor<<TR>> Tomato
  BackgroundColor<<U>> White
  BackgroundColor<<V>> WhiteSmoke
  BackgroundColor<<X>> Aqua
  BackgroundColor<<external>> AliceBlue
}


entity "puml-link:dhw:sqldb:configt.join_type.adoc[]" as configT.join_type << V >> {
  - **join_type** : (varchar(16))
  - join_type_variant : (varchar(16))
  --
}

entity "puml-link:dhw:sqldb:sqlparse.repoobject_sqlmodules_20_statement_children.adoc[]" as sqlparse.RepoObject_SqlModules_20_statement_children << V >> {
  - **RepoObject_guid** : (uniqueidentifier)
  - **json_key** : (nvarchar(4000))
  child0_children : (nvarchar(max))
  child0_class : (nvarchar(500))
  child0_is_group : (bit)
  child0_is_keyword : (bit)
  child0_is_whitespace : (bit)
  child0_normalized : (nvarchar(max))
  child1_children : (nvarchar(max))
  child1_class : (nvarchar(500))
  child1_is_group : (bit)
  child1_is_keyword : (bit)
  child1_is_whitespace : (bit)
  child1_normalized : (nvarchar(max))
  child2_children : (nvarchar(max))
  child2_class : (nvarchar(500))
  child2_is_group : (bit)
  child2_is_keyword : (bit)
  child2_is_whitespace : (bit)
  child2_normalized : (nvarchar(max))
  child3_children : (nvarchar(max))
  child3_class : (nvarchar(500))
  child3_is_group : (bit)
  child3_is_keyword : (bit)
  child3_is_whitespace : (bit)
  child3_normalized : (nvarchar(max))
  child4_children : (nvarchar(max))
  child4_class : (nvarchar(500))
  child4_is_group : (bit)
  child4_is_keyword : (bit)
  child4_is_whitespace : (bit)
  child4_normalized : (nvarchar(max))
  children : (nvarchar(max))
  class : (nvarchar(500))
  is_group : (bit)
  is_keyword : (bit)
  is_whitespace : (bit)
  normalized : (nvarchar(max))
  RowNumber_per_Object : (bigint)
  SysObject_fullname : (nvarchar(261))
  --
}

entity "puml-link:dhw:sqldb:sqlparse.repoobject_sqlmodules_22_identifier_alias_as.adoc[]" as sqlparse.RepoObject_SqlModules_22_identifier_alias_AS << V >> {
  - **RepoObject_guid** : (uniqueidentifier)
  - **json_key** : (nvarchar(4000))
  **RowNumber** : (bigint)
  identifier_alias : (nvarchar(max))
  identifier_name : (nvarchar(max))
  SysObject_fullname : (nvarchar(261))
  --
}

entity "puml-link:dhw:sqldb:sqlparse.repoobject_sqlmodules_39_object.adoc[]" as sqlparse.RepoObject_SqlModules_39_object << V >> {
  has_GroupBy : (int)
  is_1_create : (int)
  is_2_view : (int)
  is_3_Identifier : (int)
  is_4_as : (int)
  is_5_select : (int)
  is_6_Identifier : (int)
  is_6_IdentifierList : (int)
  is_7_from : (int)
  is_7_IdentifierList : (int)
  is_8_IdentifierList : (int)
  is_create_view_Identifier_as_select : (int)
  is_select_IdentifierList_from : (int)
  is_union : (int)
  Min_RowNumber_From : (bigint)
  Min_RowNumber_GroupBy : (bigint)
  Min_RowNumber_IdentifierList : (bigint)
  Min_RowNumber_Where : (bigint)
  - RepoObject_guid : (uniqueidentifier)
  SysObject_fullname : (nvarchar(261))
  --
}

entity "puml-link:dhw:sqldb:sqlparse.repoobject_sqlmodules_41_from.adoc[]" as sqlparse.RepoObject_SqlModules_41_from << V >> {
  children : (nvarchar(max))
  class : (nvarchar(500))
  identifier_alias : (nvarchar(max))
  identifier_name : (nvarchar(max))
  - is_from : (int)
  is_group : (bit)
  - is_join : (int)
  is_keyword : (bit)
  is_whitespace : (bit)
  join_type : (varchar(16))
  - json_key : (nvarchar(4000))
  Min_RowNumber_From : (bigint)
  Min_RowNumber_GroupBy : (bigint)
  Min_RowNumber_Where : (bigint)
  normalized : (nvarchar(max))
  normalized_PatIndex_Select : (bigint)
  normalized_wo_nolock : (nvarchar(max))
  patindex_nolock : (bigint)
  - RepoObject_guid : (uniqueidentifier)
  RowNumber_per_Object : (bigint)
  SysObject_fullname : (nvarchar(261))
  --
}

entity "puml-link:dhw:sqldb:sqlparse.repoobject_sqlmodules_41_from_t.adoc[]" as sqlparse.RepoObject_SqlModules_41_from_T << U >> {
  children : (nvarchar(max))
  class : (nvarchar(500))
  identifier_alias : (nvarchar(max))
  identifier_name : (nvarchar(max))
  - is_from : (int)
  is_group : (bit)
  - is_join : (int)
  is_keyword : (bit)
  is_whitespace : (bit)
  join_type : (varchar(16))
  - json_key : (nvarchar(4000))
  Min_RowNumber_From : (bigint)
  Min_RowNumber_GroupBy : (bigint)
  Min_RowNumber_Where : (bigint)
  normalized : (nvarchar(max))
  normalized_PatIndex_Select : (bigint)
  normalized_wo_nolock : (nvarchar(max))
  patindex_nolock : (bigint)
  - RepoObject_guid : (uniqueidentifier)
  RowNumber_per_Object : (bigint)
  SysObject_fullname : (nvarchar(261))
  --
}

entity "puml-link:dhw:sqldb:sqlparse.usp_persist_repoobject_sqlmodules_41_from_t.adoc[]" as sqlparse.usp_PERSIST_RepoObject_SqlModules_41_from_T << P >> {
  --
}

configT.join_type <.. sqlparse.RepoObject_SqlModules_41_from
sqlparse.RepoObject_SqlModules_20_statement_children <.. sqlparse.RepoObject_SqlModules_41_from
sqlparse.RepoObject_SqlModules_22_identifier_alias_AS <.. sqlparse.RepoObject_SqlModules_41_from
sqlparse.RepoObject_SqlModules_39_object <.. sqlparse.RepoObject_SqlModules_41_from
sqlparse.RepoObject_SqlModules_41_from <.. sqlparse.RepoObject_SqlModules_41_from_T
sqlparse.RepoObject_SqlModules_41_from <.. sqlparse.usp_PERSIST_RepoObject_SqlModules_41_from_T
"configT.join_type::join_type" <-- "sqlparse.RepoObject_SqlModules_41_from::join_type"
"sqlparse.RepoObject_SqlModules_20_statement_children::children" <-- "sqlparse.RepoObject_SqlModules_41_from::children"
"sqlparse.RepoObject_SqlModules_20_statement_children::class" <-- "sqlparse.RepoObject_SqlModules_41_from::class"
"sqlparse.RepoObject_SqlModules_20_statement_children::is_group" <-- "sqlparse.RepoObject_SqlModules_41_from::is_group"
"sqlparse.RepoObject_SqlModules_20_statement_children::is_keyword" <-- "sqlparse.RepoObject_SqlModules_41_from::is_keyword"
"sqlparse.RepoObject_SqlModules_20_statement_children::is_whitespace" <-- "sqlparse.RepoObject_SqlModules_41_from::is_whitespace"
"sqlparse.RepoObject_SqlModules_20_statement_children::json_key" <-- "sqlparse.RepoObject_SqlModules_41_from::json_key"
"sqlparse.RepoObject_SqlModules_20_statement_children::normalized" <-- "sqlparse.RepoObject_SqlModules_41_from::normalized"
"sqlparse.RepoObject_SqlModules_20_statement_children::RepoObject_guid" <-- "sqlparse.RepoObject_SqlModules_41_from::RepoObject_guid"
"sqlparse.RepoObject_SqlModules_20_statement_children::RowNumber_per_Object" <-- "sqlparse.RepoObject_SqlModules_41_from::RowNumber_per_Object"
"sqlparse.RepoObject_SqlModules_20_statement_children::SysObject_fullname" <-- "sqlparse.RepoObject_SqlModules_41_from::SysObject_fullname"
"sqlparse.RepoObject_SqlModules_22_identifier_alias_AS::identifier_alias" <-- "sqlparse.RepoObject_SqlModules_41_from::identifier_alias"
"sqlparse.RepoObject_SqlModules_22_identifier_alias_AS::identifier_name" <-- "sqlparse.RepoObject_SqlModules_41_from::identifier_name"
"sqlparse.RepoObject_SqlModules_39_object::Min_RowNumber_From" <-- "sqlparse.RepoObject_SqlModules_41_from::Min_RowNumber_From"
"sqlparse.RepoObject_SqlModules_39_object::Min_RowNumber_GroupBy" <-- "sqlparse.RepoObject_SqlModules_41_from::Min_RowNumber_GroupBy"
"sqlparse.RepoObject_SqlModules_39_object::Min_RowNumber_Where" <-- "sqlparse.RepoObject_SqlModules_41_from::Min_RowNumber_Where"
"sqlparse.RepoObject_SqlModules_41_from::children" <-- "sqlparse.RepoObject_SqlModules_41_from_T::children"
"sqlparse.RepoObject_SqlModules_41_from::class" <-- "sqlparse.RepoObject_SqlModules_41_from_T::class"
"sqlparse.RepoObject_SqlModules_41_from::identifier_alias" <-- "sqlparse.RepoObject_SqlModules_41_from_T::identifier_alias"
"sqlparse.RepoObject_SqlModules_41_from::identifier_name" <-- "sqlparse.RepoObject_SqlModules_41_from_T::identifier_name"
"sqlparse.RepoObject_SqlModules_41_from::is_from" <-- "sqlparse.RepoObject_SqlModules_41_from_T::is_from"
"sqlparse.RepoObject_SqlModules_41_from::is_group" <-- "sqlparse.RepoObject_SqlModules_41_from_T::is_group"
"sqlparse.RepoObject_SqlModules_41_from::is_join" <-- "sqlparse.RepoObject_SqlModules_41_from_T::is_join"
"sqlparse.RepoObject_SqlModules_41_from::is_keyword" <-- "sqlparse.RepoObject_SqlModules_41_from_T::is_keyword"
"sqlparse.RepoObject_SqlModules_41_from::is_whitespace" <-- "sqlparse.RepoObject_SqlModules_41_from_T::is_whitespace"
"sqlparse.RepoObject_SqlModules_41_from::join_type" <-- "sqlparse.RepoObject_SqlModules_41_from_T::join_type"
"sqlparse.RepoObject_SqlModules_41_from::json_key" <-- "sqlparse.RepoObject_SqlModules_41_from_T::json_key"
"sqlparse.RepoObject_SqlModules_41_from::Min_RowNumber_From" <-- "sqlparse.RepoObject_SqlModules_41_from_T::Min_RowNumber_From"
"sqlparse.RepoObject_SqlModules_41_from::Min_RowNumber_GroupBy" <-- "sqlparse.RepoObject_SqlModules_41_from_T::Min_RowNumber_GroupBy"
"sqlparse.RepoObject_SqlModules_41_from::Min_RowNumber_Where" <-- "sqlparse.RepoObject_SqlModules_41_from_T::Min_RowNumber_Where"
"sqlparse.RepoObject_SqlModules_41_from::normalized" <-- "sqlparse.RepoObject_SqlModules_41_from_T::normalized"
"sqlparse.RepoObject_SqlModules_41_from::normalized_PatIndex_Select" <-- "sqlparse.RepoObject_SqlModules_41_from_T::normalized_PatIndex_Select"
"sqlparse.RepoObject_SqlModules_41_from::normalized_wo_nolock" <-- "sqlparse.RepoObject_SqlModules_41_from_T::normalized_wo_nolock"
"sqlparse.RepoObject_SqlModules_41_from::patindex_nolock" <-- "sqlparse.RepoObject_SqlModules_41_from_T::patindex_nolock"
"sqlparse.RepoObject_SqlModules_41_from::RepoObject_guid" <-- "sqlparse.RepoObject_SqlModules_41_from_T::RepoObject_guid"
"sqlparse.RepoObject_SqlModules_41_from::RowNumber_per_Object" <-- "sqlparse.RepoObject_SqlModules_41_from_T::RowNumber_per_Object"
"sqlparse.RepoObject_SqlModules_41_from::SysObject_fullname" <-- "sqlparse.RepoObject_SqlModules_41_from_T::SysObject_fullname"footer The diagram is interactive and contains links.
@enduml

