@startuml
left to right direction
'top to bottom direction
hide circle
'avoide "." issues:
set namespaceSeparator none


skinparam class {
  BackgroundColor White
  BackgroundColor<<FN>> Yellow
  BackgroundColor<<FS>> Yellow
  BackgroundColor<<FT>> LightGray
  BackgroundColor<<IF>> Yellow
  BackgroundColor<<IS>> Yellow
  BackgroundColor<<P>> Aqua
  BackgroundColor<<PC>> Aqua
  BackgroundColor<<SN>> Yellow
  BackgroundColor<<SO>> SlateBlue
  BackgroundColor<<TF>> LightGray
  BackgroundColor<<TR>> Tomato
  BackgroundColor<<U>> White
  BackgroundColor<<V>> WhiteSmoke
  BackgroundColor<<X>> Aqua
  BackgroundColor<<external>> AliceBlue
}


entity "puml-link:dhw:sqldb:sqlparse.repoobject_sqlmodules_20_statement_children.adoc[]" as sqlparse.RepoObject_SqlModules_20_statement_children << V >> {
  - **RepoObject_guid** : (uniqueidentifier)
  - **json_key** : (nvarchar(4000))
  child0_children : (nvarchar(max))
  child0_class : (nvarchar(500))
  child0_is_group : (bit)
  child0_is_keyword : (bit)
  child0_is_whitespace : (bit)
  child0_normalized : (nvarchar(max))
  child1_children : (nvarchar(max))
  child1_class : (nvarchar(500))
  child1_is_group : (bit)
  child1_is_keyword : (bit)
  child1_is_whitespace : (bit)
  child1_normalized : (nvarchar(max))
  child2_children : (nvarchar(max))
  child2_class : (nvarchar(500))
  child2_is_group : (bit)
  child2_is_keyword : (bit)
  child2_is_whitespace : (bit)
  child2_normalized : (nvarchar(max))
  child3_children : (nvarchar(max))
  child3_class : (nvarchar(500))
  child3_is_group : (bit)
  child3_is_keyword : (bit)
  child3_is_whitespace : (bit)
  child3_normalized : (nvarchar(max))
  child4_children : (nvarchar(max))
  child4_class : (nvarchar(500))
  child4_is_group : (bit)
  child4_is_keyword : (bit)
  child4_is_whitespace : (bit)
  child4_normalized : (nvarchar(max))
  children : (nvarchar(max))
  class : (nvarchar(500))
  is_group : (bit)
  is_keyword : (bit)
  is_whitespace : (bit)
  normalized : (nvarchar(max))
  RowNumber_per_Object : (bigint)
  SysObject_fullname : (nvarchar(261))
  --
}

entity "puml-link:dhw:sqldb:sqlparse.repoobject_sqlmodules_51_identitfier.adoc[]" as sqlparse.RepoObject_SqlModules_51_Identitfier << V >> {
  child0_class : (nvarchar(500))
  children : (nvarchar(max))
  class : (nvarchar(500))
  is_group : (bit)
  is_keyword : (bit)
  is_whitespace : (bit)
  - json_key : (nvarchar(4000))
  normalized : (nvarchar(max))
  - RepoObject_guid : (uniqueidentifier)
  RowNumber_per_Object : (bigint)
  source_column : (nvarchar(max))
  source_table : (nvarchar(max))
  SysObject_fullname : (nvarchar(261))
  --
}

entity "puml-link:dhw:sqldb:sqlparse.repoobject_sqlmodules_52_identitfier_quotename.adoc[]" as sqlparse.RepoObject_SqlModules_52_Identitfier_QuoteName << V >> {
  child0_class : (nvarchar(500))
  children : (nvarchar(max))
  class : (nvarchar(500))
  is_group : (bit)
  is_keyword : (bit)
  is_whitespace : (bit)
  - json_key : (nvarchar(4000))
  normalized : (nvarchar(max))
  - RepoObject_guid : (uniqueidentifier)
  RowNumber_per_Object : (bigint)
  source_column : (nvarchar(max))
  source_column_QuoteName : (nvarchar(max))
  source_table : (nvarchar(max))
  source_table_QuoteName : (nvarchar(max))
  SysObject_fullname : (nvarchar(261))
  --
}

sqlparse.RepoObject_SqlModules_20_statement_children <.. sqlparse.RepoObject_SqlModules_51_Identitfier
sqlparse.RepoObject_SqlModules_51_Identitfier <.. sqlparse.RepoObject_SqlModules_52_Identitfier_QuoteName
"sqlparse.RepoObject_SqlModules_20_statement_children::child0_class" <-- "sqlparse.RepoObject_SqlModules_51_Identitfier::child0_class"
"sqlparse.RepoObject_SqlModules_20_statement_children::children" <-- "sqlparse.RepoObject_SqlModules_51_Identitfier::children"
"sqlparse.RepoObject_SqlModules_20_statement_children::class" <-- "sqlparse.RepoObject_SqlModules_51_Identitfier::class"
"sqlparse.RepoObject_SqlModules_20_statement_children::is_group" <-- "sqlparse.RepoObject_SqlModules_51_Identitfier::is_group"
"sqlparse.RepoObject_SqlModules_20_statement_children::is_keyword" <-- "sqlparse.RepoObject_SqlModules_51_Identitfier::is_keyword"
"sqlparse.RepoObject_SqlModules_20_statement_children::is_whitespace" <-- "sqlparse.RepoObject_SqlModules_51_Identitfier::is_whitespace"
"sqlparse.RepoObject_SqlModules_20_statement_children::json_key" <-- "sqlparse.RepoObject_SqlModules_51_Identitfier::json_key"
"sqlparse.RepoObject_SqlModules_20_statement_children::normalized" <-- "sqlparse.RepoObject_SqlModules_51_Identitfier::normalized"
"sqlparse.RepoObject_SqlModules_20_statement_children::RepoObject_guid" <-- "sqlparse.RepoObject_SqlModules_51_Identitfier::RepoObject_guid"
"sqlparse.RepoObject_SqlModules_20_statement_children::RowNumber_per_Object" <-- "sqlparse.RepoObject_SqlModules_51_Identitfier::RowNumber_per_Object"
"sqlparse.RepoObject_SqlModules_20_statement_children::SysObject_fullname" <-- "sqlparse.RepoObject_SqlModules_51_Identitfier::SysObject_fullname"
"sqlparse.RepoObject_SqlModules_51_Identitfier::child0_class" <-- "sqlparse.RepoObject_SqlModules_52_Identitfier_QuoteName::child0_class"
"sqlparse.RepoObject_SqlModules_51_Identitfier::children" <-- "sqlparse.RepoObject_SqlModules_52_Identitfier_QuoteName::children"
"sqlparse.RepoObject_SqlModules_51_Identitfier::is_group" <-- "sqlparse.RepoObject_SqlModules_52_Identitfier_QuoteName::is_group"
"sqlparse.RepoObject_SqlModules_51_Identitfier::is_keyword" <-- "sqlparse.RepoObject_SqlModules_52_Identitfier_QuoteName::is_keyword"
"sqlparse.RepoObject_SqlModules_51_Identitfier::is_whitespace" <-- "sqlparse.RepoObject_SqlModules_52_Identitfier_QuoteName::is_whitespace"
"sqlparse.RepoObject_SqlModules_51_Identitfier::json_key" <-- "sqlparse.RepoObject_SqlModules_52_Identitfier_QuoteName::json_key"
"sqlparse.RepoObject_SqlModules_51_Identitfier::normalized" <-- "sqlparse.RepoObject_SqlModules_52_Identitfier_QuoteName::normalized"
"sqlparse.RepoObject_SqlModules_51_Identitfier::RepoObject_guid" <-- "sqlparse.RepoObject_SqlModules_52_Identitfier_QuoteName::RepoObject_guid"
"sqlparse.RepoObject_SqlModules_51_Identitfier::RowNumber_per_Object" <-- "sqlparse.RepoObject_SqlModules_52_Identitfier_QuoteName::RowNumber_per_Object"
"sqlparse.RepoObject_SqlModules_51_Identitfier::source_column" <-- "sqlparse.RepoObject_SqlModules_52_Identitfier_QuoteName::source_column"
"sqlparse.RepoObject_SqlModules_51_Identitfier::source_table" <-- "sqlparse.RepoObject_SqlModules_52_Identitfier_QuoteName::source_table"
"sqlparse.RepoObject_SqlModules_51_Identitfier::SysObject_fullname" <-- "sqlparse.RepoObject_SqlModules_52_Identitfier_QuoteName::SysObject_fullname"footer The diagram is interactive and contains links.
@enduml

