@startuml
left to right direction
'top to bottom direction
hide circle
'avoide "." issues:
set namespaceSeparator none


skinparam class {
  BackgroundColor White
  BackgroundColor<<FN>> Yellow
  BackgroundColor<<FS>> Yellow
  BackgroundColor<<FT>> LightGray
  BackgroundColor<<IF>> Yellow
  BackgroundColor<<IS>> Yellow
  BackgroundColor<<P>> Aqua
  BackgroundColor<<PC>> Aqua
  BackgroundColor<<SN>> Yellow
  BackgroundColor<<SO>> SlateBlue
  BackgroundColor<<TF>> LightGray
  BackgroundColor<<TR>> Tomato
  BackgroundColor<<U>> White
  BackgroundColor<<V>> WhiteSmoke
  BackgroundColor<<X>> Aqua
  BackgroundColor<<external>> AliceBlue
}


entity "puml-link:dhw:sqldb:sqlparse.ftv_sqlparse_with_some_children.adoc[]" as sqlparse.ftv_sqlparse_with_some_children << IF >> {
  child0_children : (nvarchar(max))
  child0_class : (nvarchar(500))
  child0_is_group : (bit)
  child0_is_keyword : (bit)
  child0_is_whitespace : (bit)
  child0_normalized : (nvarchar(max))
  child1_children : (nvarchar(max))
  child1_class : (nvarchar(500))
  child1_is_group : (bit)
  child1_is_keyword : (bit)
  child1_is_whitespace : (bit)
  child1_normalized : (nvarchar(max))
  child2_children : (nvarchar(max))
  child2_class : (nvarchar(500))
  child2_is_group : (bit)
  child2_is_keyword : (bit)
  child2_is_whitespace : (bit)
  child2_normalized : (nvarchar(max))
  child3_children : (nvarchar(max))
  child3_class : (nvarchar(500))
  child3_is_group : (bit)
  child3_is_keyword : (bit)
  child3_is_whitespace : (bit)
  child3_normalized : (nvarchar(max))
  child4_children : (nvarchar(max))
  child4_class : (nvarchar(500))
  child4_is_group : (bit)
  child4_is_keyword : (bit)
  child4_is_whitespace : (bit)
  child4_normalized : (nvarchar(max))
  children : (nvarchar(max))
  class : (nvarchar(500))
  is_group : (bit)
  is_keyword : (bit)
  is_whitespace : (bit)
  - json_key : (nvarchar(4000))
  normalized : (nvarchar(max))
  --
}

entity "puml-link:dhw:sqldb:sqlparse.repoobject_sqlmodules_20_statement_children.adoc[]" as sqlparse.RepoObject_SqlModules_20_statement_children << V >> {
  - **RepoObject_guid** : (uniqueidentifier)
  - **json_key** : (nvarchar(4000))
  child0_children : (nvarchar(max))
  child0_class : (nvarchar(500))
  child0_is_group : (bit)
  child0_is_keyword : (bit)
  child0_is_whitespace : (bit)
  child0_normalized : (nvarchar(max))
  child1_children : (nvarchar(max))
  child1_class : (nvarchar(500))
  child1_is_group : (bit)
  child1_is_keyword : (bit)
  child1_is_whitespace : (bit)
  child1_normalized : (nvarchar(max))
  child2_children : (nvarchar(max))
  child2_class : (nvarchar(500))
  child2_is_group : (bit)
  child2_is_keyword : (bit)
  child2_is_whitespace : (bit)
  child2_normalized : (nvarchar(max))
  child3_children : (nvarchar(max))
  child3_class : (nvarchar(500))
  child3_is_group : (bit)
  child3_is_keyword : (bit)
  child3_is_whitespace : (bit)
  child3_normalized : (nvarchar(max))
  child4_children : (nvarchar(max))
  child4_class : (nvarchar(500))
  child4_is_group : (bit)
  child4_is_keyword : (bit)
  child4_is_whitespace : (bit)
  child4_normalized : (nvarchar(max))
  children : (nvarchar(max))
  class : (nvarchar(500))
  is_group : (bit)
  is_keyword : (bit)
  is_whitespace : (bit)
  normalized : (nvarchar(max))
  RowNumber_per_Object : (bigint)
  SysObject_fullname : (nvarchar(261))
  --
}

entity "puml-link:dhw:sqldb:sqlparse.repoobject_sqlmodules_24_identifierlist_children.adoc[]" as sqlparse.RepoObject_SqlModules_24_IdentifierList_children << V >> {
  - **RepoObject_guid** : (uniqueidentifier)
  - **json_key** : (nvarchar(4000))
  - **T2_json_key** : (nvarchar(4000))
  child0_children : (nvarchar(max))
  child0_class : (nvarchar(500))
  child0_is_group : (bit)
  child0_is_keyword : (bit)
  child0_is_whitespace : (bit)
  child0_normalized : (nvarchar(max))
  child1_children : (nvarchar(max))
  child1_class : (nvarchar(500))
  child1_is_group : (bit)
  child1_is_keyword : (bit)
  child1_is_whitespace : (bit)
  child1_normalized : (nvarchar(max))
  child2_children : (nvarchar(max))
  child2_class : (nvarchar(500))
  child2_is_group : (bit)
  child2_is_keyword : (bit)
  child2_is_whitespace : (bit)
  child2_normalized : (nvarchar(max))
  child3_children : (nvarchar(max))
  child3_class : (nvarchar(500))
  child3_is_group : (bit)
  child3_is_keyword : (bit)
  child3_is_whitespace : (bit)
  child3_normalized : (nvarchar(max))
  child4_children : (nvarchar(max))
  child4_class : (nvarchar(500))
  child4_is_group : (bit)
  child4_is_keyword : (bit)
  child4_is_whitespace : (bit)
  child4_normalized : (nvarchar(max))
  children : (nvarchar(max))
  class : (nvarchar(500))
  Identifier_alias : (nvarchar(max))
  Identifier_source : (nvarchar(max))
  Identifier_source_children : (nvarchar(max))
  Identifier_source_class : (nvarchar(500))
  is_group : (bit)
  is_keyword : (bit)
  is_whitespace : (bit)
  normalized : (nvarchar(max))
  RowNumber_per_Object : (bigint)
  SysObject_fullname : (nvarchar(261))
  T2_class : (nvarchar(500))
  --
}

entity "puml-link:dhw:sqldb:sqlparse.repoobject_sqlmodules_25_identifierlist_children_identifiersplit.adoc[]" as sqlparse.RepoObject_SqlModules_25_IdentifierList_children_IdentifierSplit << V >> {
  class : (nvarchar(500))
  Identifier_alias : (nvarchar(max))
  Identifier_source : (nvarchar(max))
  Identifier_source_children : (nvarchar(max))
  Identifier_source_class : (nvarchar(500))
  Identifier_source_column : (nvarchar(4000))
  Identifier_source_table : (nvarchar(4000))
  - json_key : (nvarchar(4000))
  normalized : (nvarchar(max))
  - RepoObject_guid : (uniqueidentifier)
  RowNumber_per_Object : (bigint)
  SysObject_fullname : (nvarchar(261))
  T2_class : (nvarchar(500))
  - T2_json_key : (nvarchar(4000))
  --
}

sqlparse.ftv_sqlparse_with_some_children <.. sqlparse.RepoObject_SqlModules_24_IdentifierList_children
sqlparse.RepoObject_SqlModules_20_statement_children <.. sqlparse.RepoObject_SqlModules_24_IdentifierList_children
sqlparse.RepoObject_SqlModules_24_IdentifierList_children <.. sqlparse.RepoObject_SqlModules_25_IdentifierList_children_IdentifierSplit
"sqlparse.RepoObject_SqlModules_20_statement_children::class" <-- "sqlparse.RepoObject_SqlModules_24_IdentifierList_children::class"
"sqlparse.RepoObject_SqlModules_20_statement_children::json_key" <-- "sqlparse.RepoObject_SqlModules_24_IdentifierList_children::json_key"
"sqlparse.RepoObject_SqlModules_20_statement_children::normalized" <-- "sqlparse.RepoObject_SqlModules_24_IdentifierList_children::normalized"
"sqlparse.RepoObject_SqlModules_20_statement_children::RepoObject_guid" <-- "sqlparse.RepoObject_SqlModules_24_IdentifierList_children::RepoObject_guid"
"sqlparse.RepoObject_SqlModules_20_statement_children::RowNumber_per_Object" <-- "sqlparse.RepoObject_SqlModules_24_IdentifierList_children::RowNumber_per_Object"
"sqlparse.RepoObject_SqlModules_20_statement_children::SysObject_fullname" <-- "sqlparse.RepoObject_SqlModules_24_IdentifierList_children::SysObject_fullname"
"sqlparse.RepoObject_SqlModules_24_IdentifierList_children::class" <-- "sqlparse.RepoObject_SqlModules_25_IdentifierList_children_IdentifierSplit::class"
"sqlparse.RepoObject_SqlModules_24_IdentifierList_children::Identifier_alias" <-- "sqlparse.RepoObject_SqlModules_25_IdentifierList_children_IdentifierSplit::Identifier_alias"
"sqlparse.RepoObject_SqlModules_24_IdentifierList_children::Identifier_source" <-- "sqlparse.RepoObject_SqlModules_25_IdentifierList_children_IdentifierSplit::Identifier_source"
"sqlparse.RepoObject_SqlModules_24_IdentifierList_children::Identifier_source_children" <-- "sqlparse.RepoObject_SqlModules_25_IdentifierList_children_IdentifierSplit::Identifier_source_children"
"sqlparse.RepoObject_SqlModules_24_IdentifierList_children::Identifier_source_class" <-- "sqlparse.RepoObject_SqlModules_25_IdentifierList_children_IdentifierSplit::Identifier_source_class"
"sqlparse.RepoObject_SqlModules_24_IdentifierList_children::json_key" <-- "sqlparse.RepoObject_SqlModules_25_IdentifierList_children_IdentifierSplit::json_key"
"sqlparse.RepoObject_SqlModules_24_IdentifierList_children::normalized" <-- "sqlparse.RepoObject_SqlModules_25_IdentifierList_children_IdentifierSplit::normalized"
"sqlparse.RepoObject_SqlModules_24_IdentifierList_children::RepoObject_guid" <-- "sqlparse.RepoObject_SqlModules_25_IdentifierList_children_IdentifierSplit::RepoObject_guid"
"sqlparse.RepoObject_SqlModules_24_IdentifierList_children::RowNumber_per_Object" <-- "sqlparse.RepoObject_SqlModules_25_IdentifierList_children_IdentifierSplit::RowNumber_per_Object"
"sqlparse.RepoObject_SqlModules_24_IdentifierList_children::SysObject_fullname" <-- "sqlparse.RepoObject_SqlModules_25_IdentifierList_children_IdentifierSplit::SysObject_fullname"
"sqlparse.RepoObject_SqlModules_24_IdentifierList_children::T2_class" <-- "sqlparse.RepoObject_SqlModules_25_IdentifierList_children_IdentifierSplit::T2_class"
"sqlparse.RepoObject_SqlModules_24_IdentifierList_children::T2_json_key" <-- "sqlparse.RepoObject_SqlModules_25_IdentifierList_children_IdentifierSplit::T2_json_key"footer The diagram is interactive and contains links.
@enduml

