@startuml
left to right direction
'top to bottom direction
hide circle
'avoide "." issues:
set namespaceSeparator none


skinparam class {
  BackgroundColor White
  BackgroundColor<<FN>> Yellow
  BackgroundColor<<FS>> Yellow
  BackgroundColor<<FT>> LightGray
  BackgroundColor<<IF>> Yellow
  BackgroundColor<<IS>> Yellow
  BackgroundColor<<P>> Aqua
  BackgroundColor<<PC>> Aqua
  BackgroundColor<<SN>> Yellow
  BackgroundColor<<SO>> SlateBlue
  BackgroundColor<<TF>> LightGray
  BackgroundColor<<TR>> Tomato
  BackgroundColor<<U>> White
  BackgroundColor<<V>> WhiteSmoke
  BackgroundColor<<X>> Aqua
  BackgroundColor<<external>> AliceBlue
}


entity "puml-link:dhw:sqldb:sqlparse.repoobject_sqlmodules_20_statement_children.adoc[]" as sqlparse.RepoObject_SqlModules_20_statement_children << V >> {
  - **RepoObject_guid** : (uniqueidentifier)
  - **json_key** : (nvarchar(4000))
  --
  child0_children : (nvarchar(max))
  child0_class : (nvarchar(500))
  child0_is_group : (bit)
  child0_is_keyword : (bit)
  child0_is_whitespace : (bit)
  child0_normalized : (nvarchar(max))
  child1_children : (nvarchar(max))
  child1_class : (nvarchar(500))
  child1_is_group : (bit)
  child1_is_keyword : (bit)
  child1_is_whitespace : (bit)
  child1_normalized : (nvarchar(max))
  child2_children : (nvarchar(max))
  child2_class : (nvarchar(500))
  child2_is_group : (bit)
  child2_is_keyword : (bit)
  child2_is_whitespace : (bit)
  child2_normalized : (nvarchar(max))
  child3_children : (nvarchar(max))
  child3_class : (nvarchar(500))
  child3_is_group : (bit)
  child3_is_keyword : (bit)
  child3_is_whitespace : (bit)
  child3_normalized : (nvarchar(max))
  child4_children : (nvarchar(max))
  child4_class : (nvarchar(500))
  child4_is_group : (bit)
  child4_is_keyword : (bit)
  child4_is_whitespace : (bit)
  child4_normalized : (nvarchar(max))
  children : (nvarchar(max))
  class : (nvarchar(500))
  is_group : (bit)
  is_keyword : (bit)
  is_whitespace : (bit)
  normalized : (nvarchar(max))
  RowNumber_per_Object : (bigint)
  SysObject_fullname : (nvarchar(261))
  --
  --
}

entity "puml-link:dhw:sqldb:sqlparse.repoobject_sqlmodules_33_objectnormalized.adoc[]" as sqlparse.RepoObject_SqlModules_33_ObjectNormalized << V >> {
  - **RepoObject_guid** : (uniqueidentifier)
  **normalized** : (nvarchar(max))
  --
  Min_RowNumber_per_normalized : (bigint)
  SysObject_fullname : (nvarchar(261))
  --
  --
}

entity "puml-link:dhw:sqldb:sqlparse.repoobject_sqlmodules_39_object.adoc[]" as sqlparse.RepoObject_SqlModules_39_object << V >> {
  --
  has_GroupBy : (int)
  is_1_create : (int)
  is_2_view : (int)
  is_3_Identifier : (int)
  is_4_as : (int)
  is_5_select : (int)
  is_6_Identifier : (int)
  is_6_IdentifierList : (int)
  is_7_from : (int)
  is_7_IdentifierList : (int)
  is_8_IdentifierList : (int)
  is_create_view_Identifier_as_select : (int)
  is_select_IdentifierList_from : (int)
  is_union : (int)
  Min_RowNumber_From : (bigint)
  Min_RowNumber_GroupBy : (bigint)
  Min_RowNumber_IdentifierList : (bigint)
  Min_RowNumber_Where : (bigint)
  - RepoObject_guid : (uniqueidentifier)
  SysObject_fullname : (nvarchar(261))
  --
  --
}

sqlparse.RepoObject_SqlModules_20_statement_children <.. sqlparse.RepoObject_SqlModules_33_ObjectNormalized
sqlparse.RepoObject_SqlModules_33_ObjectNormalized <.. sqlparse.RepoObject_SqlModules_39_object
"sqlparse.RepoObject_SqlModules_20_statement_children::normalized" <-- "sqlparse.RepoObject_SqlModules_33_ObjectNormalized::normalized"
"sqlparse.RepoObject_SqlModules_20_statement_children::RepoObject_guid" <-- "sqlparse.RepoObject_SqlModules_33_ObjectNormalized::RepoObject_guid"
"sqlparse.RepoObject_SqlModules_20_statement_children::SysObject_fullname" <-- "sqlparse.RepoObject_SqlModules_33_ObjectNormalized::SysObject_fullname"
"sqlparse.RepoObject_SqlModules_33_ObjectNormalized::Min_RowNumber_per_normalized" <-- "sqlparse.RepoObject_SqlModules_39_object::Min_RowNumber_From"
"sqlparse.RepoObject_SqlModules_33_ObjectNormalized::Min_RowNumber_per_normalized" <-- "sqlparse.RepoObject_SqlModules_39_object::Min_RowNumber_GroupBy"
@enduml

