@startuml
left to right direction
'top to bottom direction
hide circle
'avoide "." issues:
set namespaceSeparator none


skinparam class {
  BackgroundColor White
  BackgroundColor<<FN>> Yellow
  BackgroundColor<<FS>> Yellow
  BackgroundColor<<FT>> LightGray
  BackgroundColor<<IF>> Yellow
  BackgroundColor<<IS>> Yellow
  BackgroundColor<<P>> Aqua
  BackgroundColor<<PC>> Aqua
  BackgroundColor<<SN>> Yellow
  BackgroundColor<<SO>> SlateBlue
  BackgroundColor<<TF>> LightGray
  BackgroundColor<<TR>> Tomato
  BackgroundColor<<U>> White
  BackgroundColor<<V>> WhiteSmoke
  BackgroundColor<<X>> Aqua
  BackgroundColor<<external>> AliceBlue
}


entity "puml-link:dhw:sqldb:sqlparse.repoobject_sqlmodules_61_selectidentifier_union.adoc[]" as sqlparse.RepoObject_SqlModules_61_SelectIdentifier_Union << V >> {
  --
  alias_QuoteName : (nvarchar(max))
  class : (nvarchar(500))
  normalized : (nvarchar(max))
  - RepoObject_guid : (uniqueidentifier)
  RowNumber_per_Object : (bigint)
  source_column_QuoteName : (nvarchar(max))
  source_table_QuoteName : (nvarchar(max))
  SysObject_fullname : (nvarchar(261))
  --
  --
}

entity "puml-link:dhw:sqldb:sqlparse.repoobject_sqlmodules_61_selectidentifier_union_t.adoc[]" as sqlparse.RepoObject_SqlModules_61_SelectIdentifier_Union_T << U >> {
  --
  alias_QuoteName : (nvarchar(max))
  class : (nvarchar(500))
  normalized : (nvarchar(max))
  - RepoObject_guid : (uniqueidentifier)
  RowNumber_per_Object : (bigint)
  source_column_QuoteName : (nvarchar(max))
  source_table_QuoteName : (nvarchar(max))
  SysObject_fullname : (nvarchar(261))
  --
  --
}

entity "puml-link:dhw:sqldb:sqlparse.repoobject_sqlmodules_71_reference_explicitetablealias.adoc[]" as sqlparse.RepoObject_SqlModules_71_reference_ExpliciteTableAlias << V >> {
  --
  alias_QuoteName : (nvarchar(max))
  normalized : (nvarchar(max))
  - RepoObject_guid : (uniqueidentifier)
  - RepoObjectColumn_guid : (uniqueidentifier)
  - RepoObjectColumn_name : (nvarchar(128))
  source_column_QuoteName : (nvarchar(max))
  - source_RepoObject_guid : (uniqueidentifier)
  - source_RepoObjectColumn_guid : (uniqueidentifier)
  - source_RepoObjectColumn_name : (nvarchar(128))
  - source_SysObject_fullname : (nvarchar(261))
  source_table_QuoteName : (nvarchar(max))
  SysObject_fullname : (nvarchar(261))
  --
  --
}

entity "puml-link:dhw:sqldb:sqlparse.repoobject_sqlmodules_72_reference_notablealias.adoc[]" as sqlparse.RepoObject_SqlModules_72_reference_NoTableAlias << V >> {
  --
  alias_QuoteName : (nvarchar(max))
  normalized : (nvarchar(max))
  - RepoObject_guid : (uniqueidentifier)
  - RepoObjectColumn_guid : (uniqueidentifier)
  - RepoObjectColumn_name : (nvarchar(128))
  source_column_QuoteName : (nvarchar(max))
  - source_RepoObject_guid : (uniqueidentifier)
  - source_RepoObjectColumn_guid : (uniqueidentifier)
  - source_RepoObjectColumn_name : (nvarchar(128))
  - source_SysObject_fullname : (nvarchar(261))
  source_table_QuoteName : (nvarchar(max))
  SysObject_fullname : (nvarchar(261))
  --
  --
}

entity "puml-link:dhw:sqldb:sqlparse.usp_persist_repoobject_sqlmodules_61_selectidentifier_union_t.adoc[]" as sqlparse.usp_PERSIST_RepoObject_SqlModules_61_SelectIdentifier_Union_T << P >> {
  --
  --
  --
}

sqlparse.RepoObject_SqlModules_61_SelectIdentifier_Union <.. sqlparse.RepoObject_SqlModules_61_SelectIdentifier_Union_T
sqlparse.RepoObject_SqlModules_61_SelectIdentifier_Union_T <.. sqlparse.RepoObject_SqlModules_72_reference_NoTableAlias
sqlparse.RepoObject_SqlModules_61_SelectIdentifier_Union_T <.. sqlparse.usp_PERSIST_RepoObject_SqlModules_61_SelectIdentifier_Union_T
sqlparse.RepoObject_SqlModules_61_SelectIdentifier_Union_T <.. sqlparse.RepoObject_SqlModules_71_reference_ExpliciteTableAlias
"sqlparse.RepoObject_SqlModules_61_SelectIdentifier_Union::alias_QuoteName" <-- "sqlparse.RepoObject_SqlModules_61_SelectIdentifier_Union_T::alias_QuoteName"
"sqlparse.RepoObject_SqlModules_61_SelectIdentifier_Union::class" <-- "sqlparse.RepoObject_SqlModules_61_SelectIdentifier_Union_T::class"
"sqlparse.RepoObject_SqlModules_61_SelectIdentifier_Union::normalized" <-- "sqlparse.RepoObject_SqlModules_61_SelectIdentifier_Union_T::normalized"
"sqlparse.RepoObject_SqlModules_61_SelectIdentifier_Union::RepoObject_guid" <-- "sqlparse.RepoObject_SqlModules_61_SelectIdentifier_Union_T::RepoObject_guid"
"sqlparse.RepoObject_SqlModules_61_SelectIdentifier_Union::RowNumber_per_Object" <-- "sqlparse.RepoObject_SqlModules_61_SelectIdentifier_Union_T::RowNumber_per_Object"
"sqlparse.RepoObject_SqlModules_61_SelectIdentifier_Union::source_column_QuoteName" <-- "sqlparse.RepoObject_SqlModules_61_SelectIdentifier_Union_T::source_column_QuoteName"
"sqlparse.RepoObject_SqlModules_61_SelectIdentifier_Union::source_table_QuoteName" <-- "sqlparse.RepoObject_SqlModules_61_SelectIdentifier_Union_T::source_table_QuoteName"
"sqlparse.RepoObject_SqlModules_61_SelectIdentifier_Union::SysObject_fullname" <-- "sqlparse.RepoObject_SqlModules_61_SelectIdentifier_Union_T::SysObject_fullname"
@enduml

