@startuml
left to right direction
'top to bottom direction
hide circle
'avoide "." issues:
set namespaceSeparator none


skinparam class {
  BackgroundColor White
  BackgroundColor<<FN>> Yellow
  BackgroundColor<<FS>> Yellow
  BackgroundColor<<FT>> LightGray
  BackgroundColor<<IF>> Yellow
  BackgroundColor<<IS>> Yellow
  BackgroundColor<<P>> Aqua
  BackgroundColor<<PC>> Aqua
  BackgroundColor<<SN>> Yellow
  BackgroundColor<<SO>> SlateBlue
  BackgroundColor<<TF>> LightGray
  BackgroundColor<<TR>> Tomato
  BackgroundColor<<U>> White
  BackgroundColor<<V>> WhiteSmoke
  BackgroundColor<<X>> Aqua
  BackgroundColor<<external>> AliceBlue
}


entity "puml-link:dhw:sqldb:sqlparse.repoobject_sqlmodules_25_identifierlist_children_identifiersplit.adoc[]" as sqlparse.RepoObject_SqlModules_25_IdentifierList_children_IdentifierSplit << V >> {
  class : (nvarchar(500))
  Identifier_alias : (nvarchar(max))
  Identifier_source : (nvarchar(max))
  Identifier_source_children : (nvarchar(max))
  Identifier_source_class : (nvarchar(500))
  Identifier_source_column : (nvarchar(4000))
  Identifier_source_table : (nvarchar(4000))
  - json_key : (nvarchar(4000))
  normalized : (nvarchar(max))
  - RepoObject_guid : (uniqueidentifier)
  RowNumber_per_Object : (bigint)
  SysObject_fullname : (nvarchar(261))
  T2_class : (nvarchar(500))
  - T2_json_key : (nvarchar(4000))
  --
}

entity "puml-link:dhw:sqldb:sqlparse.repoobject_sqlmodules_26_identifierlist_children_identifiersplit_quotename.adoc[]" as sqlparse.RepoObject_SqlModules_26_IdentifierList_children_IdentifierSplit_QuoteName << V >> {
  class : (nvarchar(500))
  Identifier_alias : (nvarchar(max))
  Identifier_alias_QuoteName : (nvarchar(max))
  Identifier_source : (nvarchar(max))
  Identifier_source_children : (nvarchar(max))
  Identifier_source_class : (nvarchar(500))
  Identifier_source_column : (nvarchar(4000))
  Identifier_source_column_QuoteName : (nvarchar(4000))
  Identifier_source_table : (nvarchar(4000))
  Identifier_source_table_QuoteName : (nvarchar(4000))
  - json_key : (nvarchar(4000))
  normalized : (nvarchar(max))
  - RepoObject_guid : (uniqueidentifier)
  RowNumber_per_Object : (bigint)
  SysObject_fullname : (nvarchar(261))
  T2_class : (nvarchar(500))
  - T2_json_key : (nvarchar(4000))
  --
}

entity "puml-link:dhw:sqldb:sqlparse.repoobject_sqlmodules_61_selectidentifier_union.adoc[]" as sqlparse.RepoObject_SqlModules_61_SelectIdentifier_Union << V >> {
  alias_QuoteName : (nvarchar(max))
  class : (nvarchar(500))
  normalized : (nvarchar(max))
  - RepoObject_guid : (uniqueidentifier)
  RowNumber_per_Object : (bigint)
  source_column_QuoteName : (nvarchar(max))
  source_table_QuoteName : (nvarchar(max))
  SysObject_fullname : (nvarchar(261))
  --
}

sqlparse.RepoObject_SqlModules_25_IdentifierList_children_IdentifierSplit <.. sqlparse.RepoObject_SqlModules_26_IdentifierList_children_IdentifierSplit_QuoteName
sqlparse.RepoObject_SqlModules_26_IdentifierList_children_IdentifierSplit_QuoteName <.. sqlparse.RepoObject_SqlModules_61_SelectIdentifier_Union
"sqlparse.RepoObject_SqlModules_25_IdentifierList_children_IdentifierSplit::Identifier_alias" <-- "sqlparse.RepoObject_SqlModules_26_IdentifierList_children_IdentifierSplit_QuoteName::Identifier_alias"
"sqlparse.RepoObject_SqlModules_25_IdentifierList_children_IdentifierSplit::Identifier_source" <-- "sqlparse.RepoObject_SqlModules_26_IdentifierList_children_IdentifierSplit_QuoteName::Identifier_source"
"sqlparse.RepoObject_SqlModules_25_IdentifierList_children_IdentifierSplit::Identifier_source_children" <-- "sqlparse.RepoObject_SqlModules_26_IdentifierList_children_IdentifierSplit_QuoteName::Identifier_source_children"
"sqlparse.RepoObject_SqlModules_25_IdentifierList_children_IdentifierSplit::Identifier_source_class" <-- "sqlparse.RepoObject_SqlModules_26_IdentifierList_children_IdentifierSplit_QuoteName::Identifier_source_class"
"sqlparse.RepoObject_SqlModules_25_IdentifierList_children_IdentifierSplit::Identifier_source_column" <-- "sqlparse.RepoObject_SqlModules_26_IdentifierList_children_IdentifierSplit_QuoteName::Identifier_source_column"
"sqlparse.RepoObject_SqlModules_25_IdentifierList_children_IdentifierSplit::Identifier_source_table" <-- "sqlparse.RepoObject_SqlModules_26_IdentifierList_children_IdentifierSplit_QuoteName::Identifier_source_table"
"sqlparse.RepoObject_SqlModules_25_IdentifierList_children_IdentifierSplit::json_key" <-- "sqlparse.RepoObject_SqlModules_26_IdentifierList_children_IdentifierSplit_QuoteName::json_key"
"sqlparse.RepoObject_SqlModules_25_IdentifierList_children_IdentifierSplit::normalized" <-- "sqlparse.RepoObject_SqlModules_26_IdentifierList_children_IdentifierSplit_QuoteName::normalized"
"sqlparse.RepoObject_SqlModules_25_IdentifierList_children_IdentifierSplit::RepoObject_guid" <-- "sqlparse.RepoObject_SqlModules_26_IdentifierList_children_IdentifierSplit_QuoteName::RepoObject_guid"
"sqlparse.RepoObject_SqlModules_25_IdentifierList_children_IdentifierSplit::RowNumber_per_Object" <-- "sqlparse.RepoObject_SqlModules_26_IdentifierList_children_IdentifierSplit_QuoteName::RowNumber_per_Object"
"sqlparse.RepoObject_SqlModules_25_IdentifierList_children_IdentifierSplit::SysObject_fullname" <-- "sqlparse.RepoObject_SqlModules_26_IdentifierList_children_IdentifierSplit_QuoteName::SysObject_fullname"
"sqlparse.RepoObject_SqlModules_25_IdentifierList_children_IdentifierSplit::T2_class" <-- "sqlparse.RepoObject_SqlModules_26_IdentifierList_children_IdentifierSplit_QuoteName::T2_class"
"sqlparse.RepoObject_SqlModules_25_IdentifierList_children_IdentifierSplit::T2_json_key" <-- "sqlparse.RepoObject_SqlModules_26_IdentifierList_children_IdentifierSplit_QuoteName::T2_json_key"footer The diagram is interactive and contains links.
@enduml

