@startuml
left to right direction
'top to bottom direction
hide circle
'avoide "." issues:
set namespaceSeparator none


skinparam class {
  BackgroundColor White
  BackgroundColor<<FN>> Yellow
  BackgroundColor<<FS>> Yellow
  BackgroundColor<<FT>> LightGray
  BackgroundColor<<IF>> Yellow
  BackgroundColor<<IS>> Yellow
  BackgroundColor<<P>> Aqua
  BackgroundColor<<PC>> Aqua
  BackgroundColor<<SN>> Yellow
  BackgroundColor<<SO>> SlateBlue
  BackgroundColor<<TF>> LightGray
  BackgroundColor<<TR>> Tomato
  BackgroundColor<<U>> White
  BackgroundColor<<V>> WhiteSmoke
  BackgroundColor<<X>> Aqua
  BackgroundColor<<external>> AliceBlue
}


entity "puml-link:dhw:sqldb:sqlparse.ftv_sqlparse_with_some_children.adoc[]" as sqlparse.ftv_sqlparse_with_some_children << IF >> {
  child0_children : (nvarchar(max))
  child0_class : (nvarchar(500))
  child0_is_group : (bit)
  child0_is_keyword : (bit)
  child0_is_whitespace : (bit)
  child0_normalized : (nvarchar(max))
  child1_children : (nvarchar(max))
  child1_class : (nvarchar(500))
  child1_is_group : (bit)
  child1_is_keyword : (bit)
  child1_is_whitespace : (bit)
  child1_normalized : (nvarchar(max))
  child2_children : (nvarchar(max))
  child2_class : (nvarchar(500))
  child2_is_group : (bit)
  child2_is_keyword : (bit)
  child2_is_whitespace : (bit)
  child2_normalized : (nvarchar(max))
  child3_children : (nvarchar(max))
  child3_class : (nvarchar(500))
  child3_is_group : (bit)
  child3_is_keyword : (bit)
  child3_is_whitespace : (bit)
  child3_normalized : (nvarchar(max))
  child4_children : (nvarchar(max))
  child4_class : (nvarchar(500))
  child4_is_group : (bit)
  child4_is_keyword : (bit)
  child4_is_whitespace : (bit)
  child4_normalized : (nvarchar(max))
  children : (nvarchar(max))
  class : (nvarchar(500))
  is_group : (bit)
  is_keyword : (bit)
  is_whitespace : (bit)
  - json_key : (nvarchar(4000))
  normalized : (nvarchar(max))
  --
}

entity "puml-link:dhw:sqldb:sqlparse.repoobject_sqlmodules_10_statement.adoc[]" as sqlparse.RepoObject_SqlModules_10_statement << V >> {
  children : (nvarchar(max))
  class : (nvarchar(500))
  is_group : (bit)
  is_keyword : (bit)
  is_whitespace : (bit)
  normalized : (nvarchar(max))
  - RepoObject_guid : (uniqueidentifier)
  sql_modules_json : (nvarchar(max))
  SysObject_fullname : (nvarchar(261))
  --
}

entity "puml-link:dhw:sqldb:sqlparse.repoobject_sqlmodules_20_statement_children.adoc[]" as sqlparse.RepoObject_SqlModules_20_statement_children << V >> {
  - **RepoObject_guid** : (uniqueidentifier)
  - **json_key** : (nvarchar(4000))
  child0_children : (nvarchar(max))
  child0_class : (nvarchar(500))
  child0_is_group : (bit)
  child0_is_keyword : (bit)
  child0_is_whitespace : (bit)
  child0_normalized : (nvarchar(max))
  child1_children : (nvarchar(max))
  child1_class : (nvarchar(500))
  child1_is_group : (bit)
  child1_is_keyword : (bit)
  child1_is_whitespace : (bit)
  child1_normalized : (nvarchar(max))
  child2_children : (nvarchar(max))
  child2_class : (nvarchar(500))
  child2_is_group : (bit)
  child2_is_keyword : (bit)
  child2_is_whitespace : (bit)
  child2_normalized : (nvarchar(max))
  child3_children : (nvarchar(max))
  child3_class : (nvarchar(500))
  child3_is_group : (bit)
  child3_is_keyword : (bit)
  child3_is_whitespace : (bit)
  child3_normalized : (nvarchar(max))
  child4_children : (nvarchar(max))
  child4_class : (nvarchar(500))
  child4_is_group : (bit)
  child4_is_keyword : (bit)
  child4_is_whitespace : (bit)
  child4_normalized : (nvarchar(max))
  children : (nvarchar(max))
  class : (nvarchar(500))
  is_group : (bit)
  is_keyword : (bit)
  is_whitespace : (bit)
  normalized : (nvarchar(max))
  RowNumber_per_Object : (bigint)
  SysObject_fullname : (nvarchar(261))
  --
}

entity "puml-link:dhw:sqldb:sqlparse.repoobject_sqlmodules_21_statement_children_helper.adoc[]" as sqlparse.RepoObject_SqlModules_21_statement_children_helper << V >> {
  children : (nvarchar(max))
  class : (nvarchar(500))
  - is_1_create : (int)
  - is_2_view : (int)
  - is_3_Identifier : (int)
  - is_4_as : (int)
  - is_5_select : (int)
  - is_6_Identifier : (int)
  - is_6_IdentifierList : (int)
  - is_7_from : (int)
  - is_7_IdentifierList : (int)
  - is_8_IdentifierList : (int)
  is_group : (bit)
  is_keyword : (bit)
  is_whitespace : (bit)
  - json_key : (nvarchar(4000))
  normalized : (nvarchar(max))
  - RepoObject_guid : (uniqueidentifier)
  RowNumber_per_Object : (bigint)
  SysObject_fullname : (nvarchar(261))
  --
}

entity "puml-link:dhw:sqldb:sqlparse.repoobject_sqlmodules_22_identifier_alias_as.adoc[]" as sqlparse.RepoObject_SqlModules_22_identifier_alias_AS << V >> {
  - **RepoObject_guid** : (uniqueidentifier)
  - **json_key** : (nvarchar(4000))
  **RowNumber** : (bigint)
  identifier_alias : (nvarchar(max))
  identifier_name : (nvarchar(max))
  SysObject_fullname : (nvarchar(261))
  --
}

entity "puml-link:dhw:sqldb:sqlparse.repoobject_sqlmodules_23_normalized_wo_nolock.adoc[]" as sqlparse.RepoObject_SqlModules_23_normalized_wo_nolock << V >> {
  - json_key : (nvarchar(4000))
  normalized : (nvarchar(max))
  normalized_wo_nolock : (nvarchar(4000))
  - RepoObject_guid : (uniqueidentifier)
  SysObject_fullname : (nvarchar(261))
  --
}

entity "puml-link:dhw:sqldb:sqlparse.repoobject_sqlmodules_24_identifierlist_children.adoc[]" as sqlparse.RepoObject_SqlModules_24_IdentifierList_children << V >> {
  - **RepoObject_guid** : (uniqueidentifier)
  - **json_key** : (nvarchar(4000))
  - **T2_json_key** : (nvarchar(4000))
  child0_children : (nvarchar(max))
  child0_class : (nvarchar(500))
  child0_is_group : (bit)
  child0_is_keyword : (bit)
  child0_is_whitespace : (bit)
  child0_normalized : (nvarchar(max))
  child1_children : (nvarchar(max))
  child1_class : (nvarchar(500))
  child1_is_group : (bit)
  child1_is_keyword : (bit)
  child1_is_whitespace : (bit)
  child1_normalized : (nvarchar(max))
  child2_children : (nvarchar(max))
  child2_class : (nvarchar(500))
  child2_is_group : (bit)
  child2_is_keyword : (bit)
  child2_is_whitespace : (bit)
  child2_normalized : (nvarchar(max))
  child3_children : (nvarchar(max))
  child3_class : (nvarchar(500))
  child3_is_group : (bit)
  child3_is_keyword : (bit)
  child3_is_whitespace : (bit)
  child3_normalized : (nvarchar(max))
  child4_children : (nvarchar(max))
  child4_class : (nvarchar(500))
  child4_is_group : (bit)
  child4_is_keyword : (bit)
  child4_is_whitespace : (bit)
  child4_normalized : (nvarchar(max))
  children : (nvarchar(max))
  class : (nvarchar(500))
  Identifier_alias : (nvarchar(max))
  Identifier_source : (nvarchar(max))
  Identifier_source_children : (nvarchar(max))
  Identifier_source_class : (nvarchar(500))
  is_group : (bit)
  is_keyword : (bit)
  is_whitespace : (bit)
  normalized : (nvarchar(max))
  RowNumber_per_Object : (bigint)
  SysObject_fullname : (nvarchar(261))
  T2_class : (nvarchar(500))
  --
}

entity "puml-link:dhw:sqldb:sqlparse.repoobject_sqlmodules_29_1_object_is_union.adoc[]" as sqlparse.RepoObject_SqlModules_29_1_object_is_union << V >> {
  - is_union : (int)
  - RepoObject_guid : (uniqueidentifier)
  --
}

entity "puml-link:dhw:sqldb:sqlparse.repoobject_sqlmodules_29_2_object_is_groupby.adoc[]" as sqlparse.RepoObject_SqlModules_29_2_object_is_GroupBy << V >> {
  - has_GroupBy : (int)
  - RepoObject_guid : (uniqueidentifier)
  --
}

entity "puml-link:dhw:sqldb:sqlparse.repoobject_sqlmodules_32_objectclass.adoc[]" as sqlparse.RepoObject_SqlModules_32_ObjectClass << V >> {
  - **RepoObject_guid** : (uniqueidentifier)
  **class** : (nvarchar(500))
  Min_RowNumber_per_class : (bigint)
  SysObject_fullname : (nvarchar(261))
  --
}

entity "puml-link:dhw:sqldb:sqlparse.repoobject_sqlmodules_33_objectnormalized.adoc[]" as sqlparse.RepoObject_SqlModules_33_ObjectNormalized << V >> {
  - **RepoObject_guid** : (uniqueidentifier)
  **normalized** : (nvarchar(max))
  Min_RowNumber_per_normalized : (bigint)
  SysObject_fullname : (nvarchar(261))
  --
}

entity "puml-link:dhw:sqldb:sqlparse.repoobject_sqlmodules_41_from.adoc[]" as sqlparse.RepoObject_SqlModules_41_from << V >> {
  children : (nvarchar(max))
  class : (nvarchar(500))
  identifier_alias : (nvarchar(max))
  identifier_name : (nvarchar(max))
  - is_from : (int)
  is_group : (bit)
  - is_join : (int)
  is_keyword : (bit)
  is_whitespace : (bit)
  join_type : (varchar(16))
  - json_key : (nvarchar(4000))
  Min_RowNumber_From : (bigint)
  Min_RowNumber_GroupBy : (bigint)
  Min_RowNumber_Where : (bigint)
  normalized : (nvarchar(max))
  normalized_PatIndex_Select : (bigint)
  normalized_wo_nolock : (nvarchar(max))
  patindex_nolock : (bigint)
  - RepoObject_guid : (uniqueidentifier)
  RowNumber_per_Object : (bigint)
  SysObject_fullname : (nvarchar(261))
  --
}

entity "puml-link:dhw:sqldb:sqlparse.repoobject_sqlmodules_51_identitfier.adoc[]" as sqlparse.RepoObject_SqlModules_51_Identitfier << V >> {
  child0_class : (nvarchar(500))
  children : (nvarchar(max))
  class : (nvarchar(500))
  is_group : (bit)
  is_keyword : (bit)
  is_whitespace : (bit)
  - json_key : (nvarchar(4000))
  normalized : (nvarchar(max))
  - RepoObject_guid : (uniqueidentifier)
  RowNumber_per_Object : (bigint)
  source_column : (nvarchar(max))
  source_table : (nvarchar(max))
  SysObject_fullname : (nvarchar(261))
  --
}

entity "puml-link:dhw:sqldb:sqlparse.repoobject_sqlmodules_identitfier.adoc[]" as sqlparse.RepoObject_SqlModules_Identitfier << V >> {
  children : (nvarchar(max))
  class : (nvarchar(500))
  is_group : (bit)
  is_keyword : (bit)
  is_whitespace : (bit)
  - json_key : (nvarchar(4000))
  normalized : (nvarchar(max))
  - RepoObject_guid : (uniqueidentifier)
  RowNumber_per_Object : (bigint)
  source_column : (nvarchar(max))
  source_table : (nvarchar(max))
  SysObject_fullname : (nvarchar(261))
  --
}

sqlparse.ftv_sqlparse_with_some_children <.. sqlparse.RepoObject_SqlModules_20_statement_children
sqlparse.RepoObject_SqlModules_10_statement <.. sqlparse.RepoObject_SqlModules_20_statement_children
sqlparse.RepoObject_SqlModules_20_statement_children <.. sqlparse.RepoObject_SqlModules_21_statement_children_helper
sqlparse.RepoObject_SqlModules_20_statement_children <.. sqlparse.RepoObject_SqlModules_29_1_object_is_union
sqlparse.RepoObject_SqlModules_20_statement_children <.. sqlparse.RepoObject_SqlModules_29_2_object_is_GroupBy
sqlparse.RepoObject_SqlModules_20_statement_children <.. sqlparse.RepoObject_SqlModules_32_ObjectClass
sqlparse.RepoObject_SqlModules_20_statement_children <.. sqlparse.RepoObject_SqlModules_33_ObjectNormalized
sqlparse.RepoObject_SqlModules_20_statement_children <.. sqlparse.RepoObject_SqlModules_22_identifier_alias_AS
sqlparse.RepoObject_SqlModules_20_statement_children <.. sqlparse.RepoObject_SqlModules_23_normalized_wo_nolock
sqlparse.RepoObject_SqlModules_20_statement_children <.. sqlparse.RepoObject_SqlModules_24_IdentifierList_children
sqlparse.RepoObject_SqlModules_20_statement_children <.. sqlparse.RepoObject_SqlModules_41_from
sqlparse.RepoObject_SqlModules_20_statement_children <.. sqlparse.RepoObject_SqlModules_51_Identitfier
sqlparse.RepoObject_SqlModules_20_statement_children <.. sqlparse.RepoObject_SqlModules_Identitfier
"sqlparse.RepoObject_SqlModules_10_statement::RepoObject_guid" <-- "sqlparse.RepoObject_SqlModules_20_statement_children::RepoObject_guid"
"sqlparse.RepoObject_SqlModules_10_statement::SysObject_fullname" <-- "sqlparse.RepoObject_SqlModules_20_statement_children::SysObject_fullname"
"sqlparse.RepoObject_SqlModules_20_statement_children::child0_class" <-- "sqlparse.RepoObject_SqlModules_51_Identitfier::child0_class"
"sqlparse.RepoObject_SqlModules_20_statement_children::children" <-- "sqlparse.RepoObject_SqlModules_Identitfier::children"
"sqlparse.RepoObject_SqlModules_20_statement_children::children" <-- "sqlparse.RepoObject_SqlModules_51_Identitfier::children"
"sqlparse.RepoObject_SqlModules_20_statement_children::children" <-- "sqlparse.RepoObject_SqlModules_21_statement_children_helper::children"
"sqlparse.RepoObject_SqlModules_20_statement_children::children" <-- "sqlparse.RepoObject_SqlModules_41_from::children"
"sqlparse.RepoObject_SqlModules_20_statement_children::class" <-- "sqlparse.RepoObject_SqlModules_41_from::class"
"sqlparse.RepoObject_SqlModules_20_statement_children::class" <-- "sqlparse.RepoObject_SqlModules_24_IdentifierList_children::class"
"sqlparse.RepoObject_SqlModules_20_statement_children::class" <-- "sqlparse.RepoObject_SqlModules_21_statement_children_helper::class"
"sqlparse.RepoObject_SqlModules_20_statement_children::class" <-- "sqlparse.RepoObject_SqlModules_32_ObjectClass::class"
"sqlparse.RepoObject_SqlModules_20_statement_children::class" <-- "sqlparse.RepoObject_SqlModules_Identitfier::class"
"sqlparse.RepoObject_SqlModules_20_statement_children::class" <-- "sqlparse.RepoObject_SqlModules_51_Identitfier::class"
"sqlparse.RepoObject_SqlModules_20_statement_children::is_group" <-- "sqlparse.RepoObject_SqlModules_51_Identitfier::is_group"
"sqlparse.RepoObject_SqlModules_20_statement_children::is_group" <-- "sqlparse.RepoObject_SqlModules_Identitfier::is_group"
"sqlparse.RepoObject_SqlModules_20_statement_children::is_group" <-- "sqlparse.RepoObject_SqlModules_21_statement_children_helper::is_group"
"sqlparse.RepoObject_SqlModules_20_statement_children::is_group" <-- "sqlparse.RepoObject_SqlModules_41_from::is_group"
"sqlparse.RepoObject_SqlModules_20_statement_children::is_keyword" <-- "sqlparse.RepoObject_SqlModules_41_from::is_keyword"
"sqlparse.RepoObject_SqlModules_20_statement_children::is_keyword" <-- "sqlparse.RepoObject_SqlModules_21_statement_children_helper::is_keyword"
"sqlparse.RepoObject_SqlModules_20_statement_children::is_keyword" <-- "sqlparse.RepoObject_SqlModules_Identitfier::is_keyword"
"sqlparse.RepoObject_SqlModules_20_statement_children::is_keyword" <-- "sqlparse.RepoObject_SqlModules_51_Identitfier::is_keyword"
"sqlparse.RepoObject_SqlModules_20_statement_children::is_whitespace" <-- "sqlparse.RepoObject_SqlModules_51_Identitfier::is_whitespace"
"sqlparse.RepoObject_SqlModules_20_statement_children::is_whitespace" <-- "sqlparse.RepoObject_SqlModules_Identitfier::is_whitespace"
"sqlparse.RepoObject_SqlModules_20_statement_children::is_whitespace" <-- "sqlparse.RepoObject_SqlModules_21_statement_children_helper::is_whitespace"
"sqlparse.RepoObject_SqlModules_20_statement_children::is_whitespace" <-- "sqlparse.RepoObject_SqlModules_41_from::is_whitespace"
"sqlparse.RepoObject_SqlModules_20_statement_children::json_key" <-- "sqlparse.RepoObject_SqlModules_21_statement_children_helper::json_key"
"sqlparse.RepoObject_SqlModules_20_statement_children::json_key" <-- "sqlparse.RepoObject_SqlModules_22_identifier_alias_AS::json_key"
"sqlparse.RepoObject_SqlModules_20_statement_children::json_key" <-- "sqlparse.RepoObject_SqlModules_23_normalized_wo_nolock::json_key"
"sqlparse.RepoObject_SqlModules_20_statement_children::json_key" <-- "sqlparse.RepoObject_SqlModules_24_IdentifierList_children::json_key"
"sqlparse.RepoObject_SqlModules_20_statement_children::json_key" <-- "sqlparse.RepoObject_SqlModules_41_from::json_key"
"sqlparse.RepoObject_SqlModules_20_statement_children::json_key" <-- "sqlparse.RepoObject_SqlModules_51_Identitfier::json_key"
"sqlparse.RepoObject_SqlModules_20_statement_children::json_key" <-- "sqlparse.RepoObject_SqlModules_Identitfier::json_key"
"sqlparse.RepoObject_SqlModules_20_statement_children::normalized" <-- "sqlparse.RepoObject_SqlModules_Identitfier::normalized"
"sqlparse.RepoObject_SqlModules_20_statement_children::normalized" <-- "sqlparse.RepoObject_SqlModules_51_Identitfier::normalized"
"sqlparse.RepoObject_SqlModules_20_statement_children::normalized" <-- "sqlparse.RepoObject_SqlModules_41_from::normalized"
"sqlparse.RepoObject_SqlModules_20_statement_children::normalized" <-- "sqlparse.RepoObject_SqlModules_24_IdentifierList_children::normalized"
"sqlparse.RepoObject_SqlModules_20_statement_children::normalized" <-- "sqlparse.RepoObject_SqlModules_23_normalized_wo_nolock::normalized"
"sqlparse.RepoObject_SqlModules_20_statement_children::normalized" <-- "sqlparse.RepoObject_SqlModules_22_identifier_alias_AS::identifier_name"
"sqlparse.RepoObject_SqlModules_20_statement_children::normalized" <-- "sqlparse.RepoObject_SqlModules_21_statement_children_helper::normalized"
"sqlparse.RepoObject_SqlModules_20_statement_children::normalized" <-- "sqlparse.RepoObject_SqlModules_33_ObjectNormalized::normalized"
"sqlparse.RepoObject_SqlModules_20_statement_children::RepoObject_guid" <-- "sqlparse.RepoObject_SqlModules_32_ObjectClass::RepoObject_guid"
"sqlparse.RepoObject_SqlModules_20_statement_children::RepoObject_guid" <-- "sqlparse.RepoObject_SqlModules_29_1_object_is_union::RepoObject_guid"
"sqlparse.RepoObject_SqlModules_20_statement_children::RepoObject_guid" <-- "sqlparse.RepoObject_SqlModules_29_2_object_is_GroupBy::RepoObject_guid"
"sqlparse.RepoObject_SqlModules_20_statement_children::RepoObject_guid" <-- "sqlparse.RepoObject_SqlModules_33_ObjectNormalized::RepoObject_guid"
"sqlparse.RepoObject_SqlModules_20_statement_children::RepoObject_guid" <-- "sqlparse.RepoObject_SqlModules_21_statement_children_helper::RepoObject_guid"
"sqlparse.RepoObject_SqlModules_20_statement_children::RepoObject_guid" <-- "sqlparse.RepoObject_SqlModules_22_identifier_alias_AS::RepoObject_guid"
"sqlparse.RepoObject_SqlModules_20_statement_children::RepoObject_guid" <-- "sqlparse.RepoObject_SqlModules_23_normalized_wo_nolock::RepoObject_guid"
"sqlparse.RepoObject_SqlModules_20_statement_children::RepoObject_guid" <-- "sqlparse.RepoObject_SqlModules_24_IdentifierList_children::RepoObject_guid"
"sqlparse.RepoObject_SqlModules_20_statement_children::RepoObject_guid" <-- "sqlparse.RepoObject_SqlModules_41_from::RepoObject_guid"
"sqlparse.RepoObject_SqlModules_20_statement_children::RepoObject_guid" <-- "sqlparse.RepoObject_SqlModules_51_Identitfier::RepoObject_guid"
"sqlparse.RepoObject_SqlModules_20_statement_children::RepoObject_guid" <-- "sqlparse.RepoObject_SqlModules_Identitfier::RepoObject_guid"
"sqlparse.RepoObject_SqlModules_20_statement_children::RowNumber_per_Object" <-- "sqlparse.RepoObject_SqlModules_Identitfier::RowNumber_per_Object"
"sqlparse.RepoObject_SqlModules_20_statement_children::RowNumber_per_Object" <-- "sqlparse.RepoObject_SqlModules_51_Identitfier::RowNumber_per_Object"
"sqlparse.RepoObject_SqlModules_20_statement_children::RowNumber_per_Object" <-- "sqlparse.RepoObject_SqlModules_41_from::RowNumber_per_Object"
"sqlparse.RepoObject_SqlModules_20_statement_children::RowNumber_per_Object" <-- "sqlparse.RepoObject_SqlModules_24_IdentifierList_children::RowNumber_per_Object"
"sqlparse.RepoObject_SqlModules_20_statement_children::RowNumber_per_Object" <-- "sqlparse.RepoObject_SqlModules_21_statement_children_helper::RowNumber_per_Object"
"sqlparse.RepoObject_SqlModules_20_statement_children::SysObject_fullname" <-- "sqlparse.RepoObject_SqlModules_21_statement_children_helper::SysObject_fullname"
"sqlparse.RepoObject_SqlModules_20_statement_children::SysObject_fullname" <-- "sqlparse.RepoObject_SqlModules_32_ObjectClass::SysObject_fullname"
"sqlparse.RepoObject_SqlModules_20_statement_children::SysObject_fullname" <-- "sqlparse.RepoObject_SqlModules_33_ObjectNormalized::SysObject_fullname"
"sqlparse.RepoObject_SqlModules_20_statement_children::SysObject_fullname" <-- "sqlparse.RepoObject_SqlModules_24_IdentifierList_children::SysObject_fullname"
"sqlparse.RepoObject_SqlModules_20_statement_children::SysObject_fullname" <-- "sqlparse.RepoObject_SqlModules_23_normalized_wo_nolock::SysObject_fullname"
"sqlparse.RepoObject_SqlModules_20_statement_children::SysObject_fullname" <-- "sqlparse.RepoObject_SqlModules_22_identifier_alias_AS::SysObject_fullname"
"sqlparse.RepoObject_SqlModules_20_statement_children::SysObject_fullname" <-- "sqlparse.RepoObject_SqlModules_41_from::SysObject_fullname"
"sqlparse.RepoObject_SqlModules_20_statement_children::SysObject_fullname" <-- "sqlparse.RepoObject_SqlModules_51_Identitfier::SysObject_fullname"
"sqlparse.RepoObject_SqlModules_20_statement_children::SysObject_fullname" <-- "sqlparse.RepoObject_SqlModules_Identitfier::SysObject_fullname"footer The diagram is interactive and contains links.
@enduml

