@startuml
left to right direction
'top to bottom direction
hide circle
'avoide "." issues:
set namespaceSeparator none


skinparam class {
  BackgroundColor White
  BackgroundColor<<FN>> Yellow
  BackgroundColor<<FS>> Yellow
  BackgroundColor<<FT>> LightGray
  BackgroundColor<<IF>> Yellow
  BackgroundColor<<IS>> Yellow
  BackgroundColor<<P>> Aqua
  BackgroundColor<<PC>> Aqua
  BackgroundColor<<SN>> Yellow
  BackgroundColor<<SO>> SlateBlue
  BackgroundColor<<TF>> LightGray
  BackgroundColor<<TR>> Tomato
  BackgroundColor<<U>> White
  BackgroundColor<<V>> WhiteSmoke
  BackgroundColor<<X>> Aqua
  BackgroundColor<<external>> AliceBlue
}


entity "puml-link:dhw:sqldb:repo.repoobject.adoc[]" as repo.RepoObject << U >> {
  - **RepoObject_guid** : (uniqueidentifier)
  external_AntoraComponent : (nvarchar(128))
  external_AntoraModule : (nvarchar(128))
  has_execution_plan_issue : (bit)
  has_get_referenced_issue : (bit)
  Inheritance_Source_fullname : (nvarchar(261))
  Inheritance_StringAggSeparatorSql : (nvarchar(4000))
  InheritanceDefinition : (nvarchar(4000))
  InheritanceType : (tinyint)
  - is_DocsExclude : (bit)
  - is_external : (bit)
  is_repo_managed : (bit)
  is_required_ObjectMerge : (bit)
  - is_ssas : (bit)
  is_SysObject_missing : (bit)
  - modify_dt : (datetime)
  pk_index_guid : (uniqueidentifier)
  pk_IndexPatternColumnName_new : (nvarchar(4000))
  Repo_history_table_guid : (uniqueidentifier)
  Repo_temporal_type : (tinyint)
  - RepoObject_name : (nvarchar(128))
  RepoObject_Referencing_Count : (int)
  - RepoObject_schema_name : (nvarchar(128))
  - RepoObject_type : (char(2))
  SysObject_id : (int)
  SysObject_modify_date : (datetime)
  - SysObject_name : (nvarchar(128))
  - SysObject_parent_object_id : (int)
  - SysObject_schema_name : (nvarchar(128))
  SysObject_type : (char(2))
  ~ has_different_sys_names : (bit)
  # is_RepoObject_name_uniqueidentifier : (int)
  # is_SysObject_name_uniqueidentifier : (int)
  ~ node_id : (bigint)
  # RepoObject_fullname : (nvarchar(261))
  # RepoObject_fullname2 : (nvarchar(257))
  # SysObject_fullname : (nvarchar(261))
  # SysObject_fullname2 : (nvarchar(257))
  ~ SysObject_query_sql : (nvarchar(406))
  # usp_persistence_fullname2 : (nvarchar(269))
  # usp_persistence_name : (nvarchar(140))
  --
}

entity "puml-link:dhw:sqldb:sqlparse.repoobject_sqlmodules.adoc[]" as sqlparse.RepoObject_SqlModules << U >> {
  - **RepoObject_guid** : (uniqueidentifier)
  - sql_modules_dt : (datetime)
  sql_modules_formatted : (nvarchar(max))
  sql_modules_formatted2 : (nvarchar(max))
  sql_modules_json : (nvarchar(max))
  # is_json_sql_modules_json : (int)
  --
}

entity "puml-link:dhw:sqldb:sqlparse.repoobject_sqlmodules_29_1_object_is_union.adoc[]" as sqlparse.RepoObject_SqlModules_29_1_object_is_union << V >> {
  - is_union : (int)
  - RepoObject_guid : (uniqueidentifier)
  --
}

entity "puml-link:dhw:sqldb:sqlparse.repoobject_sqlmodules_29_2_object_is_groupby.adoc[]" as sqlparse.RepoObject_SqlModules_29_2_object_is_GroupBy << V >> {
  - has_GroupBy : (int)
  - RepoObject_guid : (uniqueidentifier)
  --
}

entity "puml-link:dhw:sqldb:sqlparse.repoobject_sqlmodules_31_object.adoc[]" as sqlparse.RepoObject_SqlModules_31_object << V >> {
  is_1_create : (int)
  is_2_view : (int)
  is_3_Identifier : (int)
  is_4_as : (int)
  is_5_select : (int)
  is_6_Identifier : (int)
  is_6_IdentifierList : (int)
  is_7_from : (int)
  is_7_IdentifierList : (int)
  is_8_IdentifierList : (int)
  - RepoObject_guid : (uniqueidentifier)
  SysObject_fullname : (nvarchar(261))
  --
}

entity "puml-link:dhw:sqldb:sqlparse.repoobject_sqlmodules_32_objectclass.adoc[]" as sqlparse.RepoObject_SqlModules_32_ObjectClass << V >> {
  - **RepoObject_guid** : (uniqueidentifier)
  **class** : (nvarchar(500))
  Min_RowNumber_per_class : (bigint)
  SysObject_fullname : (nvarchar(261))
  --
}

entity "puml-link:dhw:sqldb:sqlparse.repoobject_sqlmodules_33_objectnormalized.adoc[]" as sqlparse.RepoObject_SqlModules_33_ObjectNormalized << V >> {
  - **RepoObject_guid** : (uniqueidentifier)
  **normalized** : (nvarchar(max))
  Min_RowNumber_per_normalized : (bigint)
  SysObject_fullname : (nvarchar(261))
  --
}

entity "puml-link:dhw:sqldb:sqlparse.repoobject_sqlmodules_39_object.adoc[]" as sqlparse.RepoObject_SqlModules_39_object << V >> {
  has_GroupBy : (int)
  is_1_create : (int)
  is_2_view : (int)
  is_3_Identifier : (int)
  is_4_as : (int)
  is_5_select : (int)
  is_6_Identifier : (int)
  is_6_IdentifierList : (int)
  is_7_from : (int)
  is_7_IdentifierList : (int)
  is_8_IdentifierList : (int)
  is_create_view_Identifier_as_select : (int)
  is_select_IdentifierList_from : (int)
  is_union : (int)
  Min_RowNumber_From : (bigint)
  Min_RowNumber_GroupBy : (bigint)
  Min_RowNumber_IdentifierList : (bigint)
  Min_RowNumber_Where : (bigint)
  - RepoObject_guid : (uniqueidentifier)
  SysObject_fullname : (nvarchar(261))
  --
}

entity "puml-link:dhw:sqldb:sqlparse.repoobject_sqlmodules_41_from.adoc[]" as sqlparse.RepoObject_SqlModules_41_from << V >> {
  children : (nvarchar(max))
  class : (nvarchar(500))
  identifier_alias : (nvarchar(max))
  identifier_name : (nvarchar(max))
  - is_from : (int)
  is_group : (bit)
  - is_join : (int)
  is_keyword : (bit)
  is_whitespace : (bit)
  join_type : (varchar(16))
  - json_key : (nvarchar(4000))
  Min_RowNumber_From : (bigint)
  Min_RowNumber_GroupBy : (bigint)
  Min_RowNumber_Where : (bigint)
  normalized : (nvarchar(max))
  normalized_PatIndex_Select : (bigint)
  normalized_wo_nolock : (nvarchar(max))
  patindex_nolock : (bigint)
  - RepoObject_guid : (uniqueidentifier)
  RowNumber_per_Object : (bigint)
  SysObject_fullname : (nvarchar(261))
  --
}

entity "puml-link:dhw:sqldb:sqlparse.repoobject_sqlmodules_61_selectidentifier_union.adoc[]" as sqlparse.RepoObject_SqlModules_61_SelectIdentifier_Union << V >> {
  alias_QuoteName : (nvarchar(max))
  class : (nvarchar(500))
  normalized : (nvarchar(max))
  - RepoObject_guid : (uniqueidentifier)
  RowNumber_per_Object : (bigint)
  source_column_QuoteName : (nvarchar(max))
  source_table_QuoteName : (nvarchar(max))
  SysObject_fullname : (nvarchar(261))
  --
}

repo.RepoObject <.. sqlparse.RepoObject_SqlModules_39_object
sqlparse.RepoObject_SqlModules <.. sqlparse.RepoObject_SqlModules_39_object
sqlparse.RepoObject_SqlModules_29_1_object_is_union <.. sqlparse.RepoObject_SqlModules_39_object
sqlparse.RepoObject_SqlModules_29_2_object_is_GroupBy <.. sqlparse.RepoObject_SqlModules_39_object
sqlparse.RepoObject_SqlModules_31_object <.. sqlparse.RepoObject_SqlModules_39_object
sqlparse.RepoObject_SqlModules_32_ObjectClass <.. sqlparse.RepoObject_SqlModules_39_object
sqlparse.RepoObject_SqlModules_33_ObjectNormalized <.. sqlparse.RepoObject_SqlModules_39_object
sqlparse.RepoObject_SqlModules_39_object <.. sqlparse.RepoObject_SqlModules_41_from
sqlparse.RepoObject_SqlModules_39_object <.. sqlparse.RepoObject_SqlModules_61_SelectIdentifier_Union
"repo.RepoObject::SysObject_fullname" <-- "sqlparse.RepoObject_SqlModules_39_object::SysObject_fullname"
"sqlparse.RepoObject_SqlModules::RepoObject_guid" <-- "sqlparse.RepoObject_SqlModules_39_object::RepoObject_guid"
"sqlparse.RepoObject_SqlModules_29_1_object_is_union::is_union" <-- "sqlparse.RepoObject_SqlModules_39_object::is_union"
"sqlparse.RepoObject_SqlModules_29_2_object_is_GroupBy::has_GroupBy" <-- "sqlparse.RepoObject_SqlModules_39_object::has_GroupBy"
"sqlparse.RepoObject_SqlModules_31_object::is_1_create" <-- "sqlparse.RepoObject_SqlModules_39_object::is_1_create"
"sqlparse.RepoObject_SqlModules_31_object::is_2_view" <-- "sqlparse.RepoObject_SqlModules_39_object::is_2_view"
"sqlparse.RepoObject_SqlModules_31_object::is_3_Identifier" <-- "sqlparse.RepoObject_SqlModules_39_object::is_3_Identifier"
"sqlparse.RepoObject_SqlModules_31_object::is_4_as" <-- "sqlparse.RepoObject_SqlModules_39_object::is_4_as"
"sqlparse.RepoObject_SqlModules_31_object::is_5_select" <-- "sqlparse.RepoObject_SqlModules_39_object::is_5_select"
"sqlparse.RepoObject_SqlModules_31_object::is_6_Identifier" <-- "sqlparse.RepoObject_SqlModules_39_object::is_6_Identifier"
"sqlparse.RepoObject_SqlModules_31_object::is_6_IdentifierList" <-- "sqlparse.RepoObject_SqlModules_39_object::is_6_IdentifierList"
"sqlparse.RepoObject_SqlModules_31_object::is_7_from" <-- "sqlparse.RepoObject_SqlModules_39_object::is_7_from"
"sqlparse.RepoObject_SqlModules_31_object::is_7_IdentifierList" <-- "sqlparse.RepoObject_SqlModules_39_object::is_7_IdentifierList"
"sqlparse.RepoObject_SqlModules_31_object::is_8_IdentifierList" <-- "sqlparse.RepoObject_SqlModules_39_object::is_8_IdentifierList"
"sqlparse.RepoObject_SqlModules_32_ObjectClass::Min_RowNumber_per_class" <-- "sqlparse.RepoObject_SqlModules_39_object::Min_RowNumber_Where"
"sqlparse.RepoObject_SqlModules_32_ObjectClass::Min_RowNumber_per_class" <-- "sqlparse.RepoObject_SqlModules_39_object::Min_RowNumber_IdentifierList"
"sqlparse.RepoObject_SqlModules_33_ObjectNormalized::Min_RowNumber_per_normalized" <-- "sqlparse.RepoObject_SqlModules_39_object::Min_RowNumber_From"
"sqlparse.RepoObject_SqlModules_33_ObjectNormalized::Min_RowNumber_per_normalized" <-- "sqlparse.RepoObject_SqlModules_39_object::Min_RowNumber_GroupBy"
"sqlparse.RepoObject_SqlModules_39_object::Min_RowNumber_From" <-- "sqlparse.RepoObject_SqlModules_41_from::Min_RowNumber_From"
"sqlparse.RepoObject_SqlModules_39_object::Min_RowNumber_GroupBy" <-- "sqlparse.RepoObject_SqlModules_41_from::Min_RowNumber_GroupBy"
"sqlparse.RepoObject_SqlModules_39_object::Min_RowNumber_Where" <-- "sqlparse.RepoObject_SqlModules_41_from::Min_RowNumber_Where"footer The diagram is interactive and contains links.
@enduml

