@startuml
left to right direction
'top to bottom direction
hide circle
'avoide "." issues:
set namespaceSeparator none


skinparam class {
  BackgroundColor White
  BackgroundColor<<FN>> Yellow
  BackgroundColor<<FS>> Yellow
  BackgroundColor<<FT>> LightGray
  BackgroundColor<<IF>> Yellow
  BackgroundColor<<IS>> Yellow
  BackgroundColor<<P>> Aqua
  BackgroundColor<<PC>> Aqua
  BackgroundColor<<SN>> Yellow
  BackgroundColor<<SO>> SlateBlue
  BackgroundColor<<TF>> LightGray
  BackgroundColor<<TR>> Tomato
  BackgroundColor<<U>> White
  BackgroundColor<<V>> WhiteSmoke
  BackgroundColor<<X>> Aqua
  BackgroundColor<<external>> AliceBlue
}


entity "puml-link:dhw:sqldb:ssas.indexcolumn_from_relationship.adoc[]" as ssas.IndexColumn_from_Relationship << V >> {
  - databasename : (nvarchar(128))
  - index_column_id : (int)
  - index_name : (nvarchar(264))
  - is_descending_key : (int)
  - is_index_primary_key : (bit)
  - is_index_unique : (bit)
  - RepoObject_guid : (uniqueidentifier)
  - RepoObjectColumn_guid : (uniqueidentifier)
  - TableName : (nvarchar(128))
  - tables_columns_name : (nvarchar(128))
  tables_columns_type : (nvarchar(500))
  --
}

entity "puml-link:dhw:sqldb:ssas.indexcolumn_union.adoc[]" as ssas.IndexColumn_union << V >> {
  - ColumnName : (nvarchar(128))
  - databasename : (nvarchar(128))
  - index_column_id : (int)
  index_name : (nvarchar(450))
  - is_descending_key : (int)
  - is_index_primary_key : (bit)
  - is_index_unique : (bit)
  - RepoObject_guid : (uniqueidentifier)
  - RepoObjectColumn_guid : (uniqueidentifier)
  - TableName : (nvarchar(128))
  tables_columns_type : (nvarchar(500))
  --
}

entity "puml-link:dhw:sqldb:ssas.model_json_311_tables_columns_t.adoc[]" as ssas.model_json_311_tables_columns_T << U >> {
  - **databasename** : (nvarchar(128))
  - **tables_name** : (nvarchar(128))
  **tables_columns_name** : (nvarchar(128))
  - RepoObject_guid : (uniqueidentifier)
  - RepoObjectColumn_guid : (uniqueidentifier)
  tables_columns_dataType : (nvarchar(500))
  tables_columns_description : (nvarchar(max))
  tables_columns_description_ja : (nvarchar(max))
  tables_columns_displayFolder : (nvarchar(500))
  tables_columns_expression : (nvarchar(max))
  tables_columns_expression_ja : (nvarchar(max))
  tables_columns_formatString : (nvarchar(500))
  tables_columns_isDataTypeInferred : (bit)
  tables_columns_isHidden : (bit)
  tables_columns_isKey : (bit)
  tables_columns_isNameInferred : (bit)
  tables_columns_isNullable : (bit)
  tables_columns_isUnique : (bit)
  tables_columns_keepUniqueRows : (bit)
  tables_columns_sortByColumn : (nvarchar(500))
  tables_columns_sourceColumn : (nvarchar(500))
  tables_columns_sourceProviderType : (nvarchar(500))
  tables_columns_summarizeBy : (nvarchar(500))
  tables_columns_type : (nvarchar(500))
  --
}

entity "puml-link:dhw:sqldb:ssas.model_json_32_relationships_t.adoc[]" as ssas.model_json_32_relationships_T << U >> {
  - **ForeignKey_guid** : (uniqueidentifier)
  - databasename : (nvarchar(128))
  relationships_crossFilteringBehavior : (nvarchar(500))
  relationships_fromCardinality : (nvarchar(500))
  relationships_fromColumn : (nvarchar(500))
  relationships_fromTable : (nvarchar(500))
  relationships_isActive : (bit)
  relationships_name : (nvarchar(500))
  relationships_toCardinality : (nvarchar(500))
  relationships_toColumn : (nvarchar(500))
  relationships_toTable : (nvarchar(500))
  --
}

ssas.IndexColumn_from_Relationship <.. ssas.IndexColumn_union
ssas.model_json_311_tables_columns_T <.. ssas.IndexColumn_from_Relationship
ssas.model_json_32_relationships_T <.. ssas.IndexColumn_from_Relationship
"ssas.model_json_311_tables_columns_T::databasename" <-- "ssas.IndexColumn_from_Relationship::databasename"
"ssas.model_json_311_tables_columns_T::RepoObject_guid" <-- "ssas.IndexColumn_from_Relationship::RepoObject_guid"
"ssas.model_json_311_tables_columns_T::RepoObjectColumn_guid" <-- "ssas.IndexColumn_from_Relationship::RepoObjectColumn_guid"
"ssas.model_json_311_tables_columns_T::tables_columns_name" <-- "ssas.IndexColumn_from_Relationship::tables_columns_name"
"ssas.model_json_311_tables_columns_T::tables_columns_type" <-- "ssas.IndexColumn_from_Relationship::tables_columns_type"
"ssas.model_json_311_tables_columns_T::tables_name" <-- "ssas.IndexColumn_from_Relationship::TableName"footer The diagram is interactive and contains links.
@enduml

