@startuml
left to right direction
'top to bottom direction
hide circle
'avoide "." issues:
set namespaceSeparator none


skinparam class {
  BackgroundColor White
  BackgroundColor<<FN>> Yellow
  BackgroundColor<<FS>> Yellow
  BackgroundColor<<FT>> LightGray
  BackgroundColor<<IF>> Yellow
  BackgroundColor<<IS>> Yellow
  BackgroundColor<<P>> Aqua
  BackgroundColor<<PC>> Aqua
  BackgroundColor<<SN>> Yellow
  BackgroundColor<<SO>> SlateBlue
  BackgroundColor<<TF>> LightGray
  BackgroundColor<<TR>> Tomato
  BackgroundColor<<U>> White
  BackgroundColor<<V>> WhiteSmoke
  BackgroundColor<<X>> Aqua
  BackgroundColor<<external>> AliceBlue
}


entity "puml-link:dhw:sqldb:ssas.model_json_31_tables_t.adoc[]" as ssas.model_json_31_tables_T << U >> {
  - **databasename** : (nvarchar(128))
  **tables_name** : (nvarchar(128))
  - RepoObject_guid : (uniqueidentifier)
  tables_annotations_ja : (nvarchar(max))
  tables_columns_ja : (nvarchar(max))
  tables_dataCategory : (nvarchar(500))
  tables_description : (nvarchar(max))
  tables_description_ja : (nvarchar(max))
  tables_hierarchies_ja : (nvarchar(max))
  tables_isHidden : (bit)
  tables_measures_ja : (nvarchar(max))
  tables_partitions_ja : (nvarchar(max))
  --
}

entity "puml-link:dhw:sqldb:ssas.model_json_311_tables_columns.adoc[]" as ssas.model_json_311_tables_columns << V >> {
  - **databasename** : (nvarchar(128))
  - **tables_name** : (nvarchar(128))
  **tables_columns_name** : (nvarchar(128))
  - RepoObject_guid : (uniqueidentifier)
  tables_columns_dataType : (nvarchar(500))
  tables_columns_description : (nvarchar(max))
  tables_columns_description_ja : (nvarchar(max))
  tables_columns_displayFolder : (nvarchar(500))
  tables_columns_expression : (nvarchar(max))
  tables_columns_expression_ja : (nvarchar(max))
  tables_columns_formatString : (nvarchar(500))
  tables_columns_isDataTypeInferred : (bit)
  tables_columns_isHidden : (bit)
  tables_columns_isKey : (bit)
  tables_columns_isNameInferred : (bit)
  tables_columns_isNullable : (bit)
  tables_columns_isUnique : (bit)
  tables_columns_keepUniqueRows : (bit)
  tables_columns_sortByColumn : (nvarchar(500))
  tables_columns_sourceColumn : (nvarchar(500))
  tables_columns_sourceProviderType : (nvarchar(500))
  tables_columns_summarizeBy : (nvarchar(500))
  tables_columns_type : (nvarchar(500))
  --
}

entity "puml-link:dhw:sqldb:ssas.model_json_311_tables_columns_t.adoc[]" as ssas.model_json_311_tables_columns_T << U >> {
  - **databasename** : (nvarchar(128))
  - **tables_name** : (nvarchar(128))
  **tables_columns_name** : (nvarchar(128))
  - RepoObject_guid : (uniqueidentifier)
  - RepoObjectColumn_guid : (uniqueidentifier)
  tables_columns_dataType : (nvarchar(500))
  tables_columns_description : (nvarchar(max))
  tables_columns_description_ja : (nvarchar(max))
  tables_columns_displayFolder : (nvarchar(500))
  tables_columns_expression : (nvarchar(max))
  tables_columns_expression_ja : (nvarchar(max))
  tables_columns_formatString : (nvarchar(500))
  tables_columns_isDataTypeInferred : (bit)
  tables_columns_isHidden : (bit)
  tables_columns_isKey : (bit)
  tables_columns_isNameInferred : (bit)
  tables_columns_isNullable : (bit)
  tables_columns_isUnique : (bit)
  tables_columns_keepUniqueRows : (bit)
  tables_columns_sortByColumn : (nvarchar(500))
  tables_columns_sourceColumn : (nvarchar(500))
  tables_columns_sourceProviderType : (nvarchar(500))
  tables_columns_summarizeBy : (nvarchar(500))
  tables_columns_type : (nvarchar(500))
  --
}

entity "puml-link:dhw:sqldb:ssas.usp_persist_model_json_311_tables_columns_t.adoc[]" as ssas.usp_PERSIST_model_json_311_tables_columns_T << P >> {
  --
}

ssas.model_json_31_tables_T <.. ssas.model_json_311_tables_columns
ssas.model_json_311_tables_columns <.. ssas.model_json_311_tables_columns_T
ssas.model_json_311_tables_columns <.. ssas.usp_PERSIST_model_json_311_tables_columns_T
"ssas.model_json_31_tables_T::databasename" <-- "ssas.model_json_311_tables_columns::databasename"
"ssas.model_json_31_tables_T::RepoObject_guid" <-- "ssas.model_json_311_tables_columns::RepoObject_guid"
"ssas.model_json_31_tables_T::tables_name" <-- "ssas.model_json_311_tables_columns::tables_name"
"ssas.model_json_311_tables_columns::databasename" <-- "ssas.model_json_311_tables_columns_T::databasename"
"ssas.model_json_311_tables_columns::RepoObject_guid" <-- "ssas.model_json_311_tables_columns_T::RepoObject_guid"
"ssas.model_json_311_tables_columns::tables_columns_dataType" <-- "ssas.model_json_311_tables_columns_T::tables_columns_dataType"
"ssas.model_json_311_tables_columns::tables_columns_description" <-- "ssas.model_json_311_tables_columns_T::tables_columns_description"
"ssas.model_json_311_tables_columns::tables_columns_description_ja" <-- "ssas.model_json_311_tables_columns_T::tables_columns_description_ja"
"ssas.model_json_311_tables_columns::tables_columns_displayFolder" <-- "ssas.model_json_311_tables_columns_T::tables_columns_displayFolder"
"ssas.model_json_311_tables_columns::tables_columns_expression" <-- "ssas.model_json_311_tables_columns_T::tables_columns_expression"
"ssas.model_json_311_tables_columns::tables_columns_expression_ja" <-- "ssas.model_json_311_tables_columns_T::tables_columns_expression_ja"
"ssas.model_json_311_tables_columns::tables_columns_formatString" <-- "ssas.model_json_311_tables_columns_T::tables_columns_formatString"
"ssas.model_json_311_tables_columns::tables_columns_isDataTypeInferred" <-- "ssas.model_json_311_tables_columns_T::tables_columns_isDataTypeInferred"
"ssas.model_json_311_tables_columns::tables_columns_isHidden" <-- "ssas.model_json_311_tables_columns_T::tables_columns_isHidden"
"ssas.model_json_311_tables_columns::tables_columns_isKey" <-- "ssas.model_json_311_tables_columns_T::tables_columns_isKey"
"ssas.model_json_311_tables_columns::tables_columns_isNameInferred" <-- "ssas.model_json_311_tables_columns_T::tables_columns_isNameInferred"
"ssas.model_json_311_tables_columns::tables_columns_isNullable" <-- "ssas.model_json_311_tables_columns_T::tables_columns_isNullable"
"ssas.model_json_311_tables_columns::tables_columns_isUnique" <-- "ssas.model_json_311_tables_columns_T::tables_columns_isUnique"
"ssas.model_json_311_tables_columns::tables_columns_keepUniqueRows" <-- "ssas.model_json_311_tables_columns_T::tables_columns_keepUniqueRows"
"ssas.model_json_311_tables_columns::tables_columns_name" <-- "ssas.model_json_311_tables_columns_T::tables_columns_name"
"ssas.model_json_311_tables_columns::tables_columns_sortByColumn" <-- "ssas.model_json_311_tables_columns_T::tables_columns_sortByColumn"
"ssas.model_json_311_tables_columns::tables_columns_sourceColumn" <-- "ssas.model_json_311_tables_columns_T::tables_columns_sourceColumn"
"ssas.model_json_311_tables_columns::tables_columns_sourceProviderType" <-- "ssas.model_json_311_tables_columns_T::tables_columns_sourceProviderType"
"ssas.model_json_311_tables_columns::tables_columns_summarizeBy" <-- "ssas.model_json_311_tables_columns_T::tables_columns_summarizeBy"
"ssas.model_json_311_tables_columns::tables_columns_type" <-- "ssas.model_json_311_tables_columns_T::tables_columns_type"
"ssas.model_json_311_tables_columns::tables_name" <-- "ssas.model_json_311_tables_columns_T::tables_name"footer The diagram is interactive and contains links.
@enduml

