@startuml
left to right direction
'top to bottom direction
hide circle
'avoide "." issues:
set namespaceSeparator none


skinparam class {
  BackgroundColor White
  BackgroundColor<<FN>> Yellow
  BackgroundColor<<FS>> Yellow
  BackgroundColor<<FT>> LightGray
  BackgroundColor<<IF>> Yellow
  BackgroundColor<<IS>> Yellow
  BackgroundColor<<P>> Aqua
  BackgroundColor<<PC>> Aqua
  BackgroundColor<<SN>> Yellow
  BackgroundColor<<SO>> SlateBlue
  BackgroundColor<<TF>> LightGray
  BackgroundColor<<TR>> Tomato
  BackgroundColor<<U>> White
  BackgroundColor<<V>> WhiteSmoke
  BackgroundColor<<X>> Aqua
  BackgroundColor<<external>> AliceBlue
}


entity "puml-link:dhw:sqldb:repo.measures.adoc[]" as repo.Measures << V >> {
  Description : (nvarchar(max))
  Expression : (nvarchar(max))
  is_ssas : (bit)
  - Measure_guid : (uniqueidentifier)
  measures_description : (nvarchar(max))
  measures_description_ja : (nvarchar(max))
  measures_displayFolder : (nvarchar(500))
  measures_expression : (nvarchar(max))
  measures_expression_ja : (nvarchar(max))
  measures_formatString : (nvarchar(500))
  measures_fullname : (nvarchar(517))
  - measures_fullname2 : (nvarchar(638))
  measures_isHidden : (bit)
  - measures_name : (nvarchar(500))
  MeasuresRepoObjekt_guid : (uniqueidentifier)
  MeasuresRepoObjekt_name : (varchar(9))
  - RepoObject_fullname2 : (nvarchar(257))
  - RepoObject_guid : (uniqueidentifier)
  - RepoObject_name : (nvarchar(128))
  - RepoSchema_name : (nvarchar(128))
  --
}

entity "puml-link:dhw:sqldb:ssas.model_json_3122_tables_measures_expressions_multiline.adoc[]" as ssas.model_json_3122_tables_measures_expressions_multiline << V >> {
  - databasename : (nvarchar(128))
  - Key : (nvarchar(4000))
  - Measure_guid : (uniqueidentifier)
  - RepoObject_guid : (uniqueidentifier)
  - tables_measures_name : (nvarchar(500))
  - tables_name : (nvarchar(128))
  - Type : (tinyint)
  Value : (nvarchar(max))
  --
}

entity "puml-link:dhw:sqldb:ssas.model_json_31221_tables_measures_expressions_stragg.adoc[]" as ssas.model_json_31221_tables_measures_expressions_StrAgg << V >> {
  - databasename : (nvarchar(128))
  expressions_StrAgg : (nvarchar(max))
  - Measure_guid : (uniqueidentifier)
  - RepoObject_guid : (uniqueidentifier)
  - tables_measures_name : (nvarchar(500))
  - tables_name : (nvarchar(128))
  --
}

ssas.model_json_3122_tables_measures_expressions_multiline <.. ssas.model_json_31221_tables_measures_expressions_StrAgg
ssas.model_json_31221_tables_measures_expressions_StrAgg <.. repo.Measures
"ssas.model_json_3122_tables_measures_expressions_multiline::databasename" <-- "ssas.model_json_31221_tables_measures_expressions_StrAgg::databasename"
"ssas.model_json_3122_tables_measures_expressions_multiline::Measure_guid" <-- "ssas.model_json_31221_tables_measures_expressions_StrAgg::Measure_guid"
"ssas.model_json_3122_tables_measures_expressions_multiline::RepoObject_guid" <-- "ssas.model_json_31221_tables_measures_expressions_StrAgg::RepoObject_guid"
"ssas.model_json_3122_tables_measures_expressions_multiline::tables_measures_name" <-- "ssas.model_json_31221_tables_measures_expressions_StrAgg::tables_measures_name"
"ssas.model_json_3122_tables_measures_expressions_multiline::tables_name" <-- "ssas.model_json_31221_tables_measures_expressions_StrAgg::tables_name"footer The diagram is interactive and contains links.
@enduml

