@startuml
left to right direction
'top to bottom direction
hide circle
'avoide "." issues:
set namespaceSeparator none


skinparam class {
  BackgroundColor White
  BackgroundColor<<FN>> Yellow
  BackgroundColor<<FS>> Yellow
  BackgroundColor<<FT>> LightGray
  BackgroundColor<<IF>> Yellow
  BackgroundColor<<IS>> Yellow
  BackgroundColor<<P>> Aqua
  BackgroundColor<<PC>> Aqua
  BackgroundColor<<SN>> Yellow
  BackgroundColor<<SO>> SlateBlue
  BackgroundColor<<TF>> LightGray
  BackgroundColor<<TR>> Tomato
  BackgroundColor<<U>> White
  BackgroundColor<<V>> WhiteSmoke
  BackgroundColor<<X>> Aqua
  BackgroundColor<<external>> AliceBlue
}


entity "puml-link:dhw:sqldb:repo.foreignkey_ssas_indexpattern.adoc[]" as repo.ForeignKey_ssas_IndexPattern << V >> {
  - databasename : (nvarchar(128))
  delete_referential_action : (tinyint)
  ForeignKey_fullname : (nvarchar(517))
  - ForeignKey_guid : (uniqueidentifier)
  ForeignKey_name : (nvarchar(263))
  referenced_ColumnName : (nvarchar(128))
  referenced_IndexPatternColumnDatatype : (nvarchar(500))
  referenced_IndexPatternColumnGuid : (varchar(36))
  referenced_IndexPatternColumnName : (nvarchar(128))
  - referenced_IsKey : (bit)
  - referenced_IsNullable : (bit)
  referenced_ObjectName : (nvarchar(128))
  referenced_RepoObject_fullname : (nvarchar(517))
  referenced_RepoObject_fullname2 : (nvarchar(257))
  referenced_RepoObject_guid : (uniqueidentifier)
  referencing_ColumnName : (nvarchar(128))
  referencing_IndexPatternColumnDatatype : (nvarchar(500))
  referencing_IndexPatternColumnGuid : (varchar(36))
  referencing_IndexPatternColumnName : (nvarchar(128))
  - referencing_IsKey : (bit)
  - referencing_IsNullable : (bit)
  referencing_ObjectName : (nvarchar(128))
  referencing_RepoObject_fullname : (nvarchar(517))
  referencing_RepoObject_fullname2 : (nvarchar(257))
  referencing_RepoObject_guid : (uniqueidentifier)
  relationships_crossFilteringBehavior : (nvarchar(500))
  relationships_fromCardinality : (nvarchar(500))
  - relationships_isActive : (bit)
  relationships_name : (nvarchar(500))
  relationships_toCardinality : (nvarchar(500))
  update_referential_action : (tinyint)
  --
}

entity "puml-link:dhw:sqldb:ssas.indexcolumn_from_relationship.adoc[]" as ssas.IndexColumn_from_Relationship << V >> {
  - databasename : (nvarchar(128))
  - index_column_id : (int)
  - index_name : (nvarchar(264))
  - is_descending_key : (int)
  - is_index_primary_key : (bit)
  - is_index_unique : (bit)
  - RepoObject_guid : (uniqueidentifier)
  - RepoObjectColumn_guid : (uniqueidentifier)
  - TableName : (nvarchar(128))
  - tables_columns_name : (nvarchar(128))
  tables_columns_type : (nvarchar(500))
  --
}

entity "puml-link:dhw:sqldb:ssas.model_json_32_relationships.adoc[]" as ssas.model_json_32_relationships << V >> {
  - **databasename** : (nvarchar(128))
  **relationships_name** : (nvarchar(500))
  relationships_crossFilteringBehavior : (nvarchar(500))
  relationships_fromCardinality : (nvarchar(500))
  relationships_fromColumn : (nvarchar(500))
  relationships_fromTable : (nvarchar(500))
  relationships_isActive : (bit)
  relationships_toCardinality : (nvarchar(500))
  relationships_toColumn : (nvarchar(500))
  relationships_toTable : (nvarchar(500))
  --
}

entity "puml-link:dhw:sqldb:ssas.model_json_32_relationships_t.adoc[]" as ssas.model_json_32_relationships_T << U >> {
  - **ForeignKey_guid** : (uniqueidentifier)
  - databasename : (nvarchar(128))
  relationships_crossFilteringBehavior : (nvarchar(500))
  relationships_fromCardinality : (nvarchar(500))
  relationships_fromColumn : (nvarchar(500))
  relationships_fromTable : (nvarchar(500))
  relationships_isActive : (bit)
  relationships_name : (nvarchar(500))
  relationships_toCardinality : (nvarchar(500))
  relationships_toColumn : (nvarchar(500))
  relationships_toTable : (nvarchar(500))
  --
}

entity "puml-link:dhw:sqldb:ssas.usp_persist_model_json_32_relationships_t.adoc[]" as ssas.usp_PERSIST_model_json_32_relationships_T << P >> {
  --
}

ssas.model_json_32_relationships <.. ssas.model_json_32_relationships_T
ssas.model_json_32_relationships_T <.. ssas.IndexColumn_from_Relationship
ssas.model_json_32_relationships_T <.. repo.ForeignKey_ssas_IndexPattern
ssas.model_json_32_relationships_T <.. ssas.usp_PERSIST_model_json_32_relationships_T
"ssas.model_json_32_relationships::databasename" <-- "ssas.model_json_32_relationships_T::databasename"
"ssas.model_json_32_relationships::relationships_crossFilteringBehavior" <-- "ssas.model_json_32_relationships_T::relationships_crossFilteringBehavior"
"ssas.model_json_32_relationships::relationships_fromCardinality" <-- "ssas.model_json_32_relationships_T::relationships_fromCardinality"
"ssas.model_json_32_relationships::relationships_fromColumn" <-- "ssas.model_json_32_relationships_T::relationships_fromColumn"
"ssas.model_json_32_relationships::relationships_fromTable" <-- "ssas.model_json_32_relationships_T::relationships_fromTable"
"ssas.model_json_32_relationships::relationships_isActive" <-- "ssas.model_json_32_relationships_T::relationships_isActive"
"ssas.model_json_32_relationships::relationships_name" <-- "ssas.model_json_32_relationships_T::relationships_name"
"ssas.model_json_32_relationships::relationships_toCardinality" <-- "ssas.model_json_32_relationships_T::relationships_toCardinality"
"ssas.model_json_32_relationships::relationships_toColumn" <-- "ssas.model_json_32_relationships_T::relationships_toColumn"
"ssas.model_json_32_relationships::relationships_toTable" <-- "ssas.model_json_32_relationships_T::relationships_toTable"
"ssas.model_json_32_relationships_T::databasename" <-- "repo.ForeignKey_ssas_IndexPattern::databasename"
"ssas.model_json_32_relationships_T::ForeignKey_guid" <-- "repo.ForeignKey_ssas_IndexPattern::ForeignKey_guid"
"ssas.model_json_32_relationships_T::relationships_crossFilteringBehavior" <-- "repo.ForeignKey_ssas_IndexPattern::relationships_crossFilteringBehavior"
"ssas.model_json_32_relationships_T::relationships_fromCardinality" <-- "repo.ForeignKey_ssas_IndexPattern::relationships_fromCardinality"
"ssas.model_json_32_relationships_T::relationships_isActive" <-- "repo.ForeignKey_ssas_IndexPattern::relationships_isActive"
"ssas.model_json_32_relationships_T::relationships_name" <-- "repo.ForeignKey_ssas_IndexPattern::relationships_name"
"ssas.model_json_32_relationships_T::relationships_toCardinality" <-- "repo.ForeignKey_ssas_IndexPattern::relationships_toCardinality"footer The diagram is interactive and contains links.
@enduml

