@startuml
left to right direction
'top to bottom direction
hide circle
'avoide "." issues:
set namespaceSeparator none


skinparam class {
  BackgroundColor White
  BackgroundColor<<FN>> Yellow
  BackgroundColor<<FS>> Yellow
  BackgroundColor<<FT>> LightGray
  BackgroundColor<<IF>> Yellow
  BackgroundColor<<IS>> Yellow
  BackgroundColor<<P>> Aqua
  BackgroundColor<<PC>> Aqua
  BackgroundColor<<SN>> Yellow
  BackgroundColor<<SO>> SlateBlue
  BackgroundColor<<TF>> LightGray
  BackgroundColor<<TR>> Tomato
  BackgroundColor<<U>> White
  BackgroundColor<<V>> WhiteSmoke
  BackgroundColor<<X>> Aqua
  BackgroundColor<<external>> AliceBlue
}


entity "puml-link:dhw:sqldb:ssas.model_json_34111_cultures_translations_model_tables.adoc[]" as ssas.model_json_34111_cultures_translations_model_tables << V >> {
  - cultures_name : (nvarchar(10))
  - cultures_translations_model_name : (nvarchar(500))
  cultures_translations_model_tables_columns_ja : (nvarchar(max))
  cultures_translations_model_tables_hierarchies_ja : (nvarchar(max))
  cultures_translations_model_tables_measures_ja : (nvarchar(max))
  cultures_translations_model_tables_name : (nvarchar(128))
  cultures_translations_model_tables_translatedCaption : (nvarchar(128))
  - databasename : (nvarchar(128))
  --
}

entity "puml-link:dhw:sqldb:ssas.model_json_341111_cultures_translations_model_tables_columns.adoc[]" as ssas.model_json_341111_cultures_translations_model_tables_columns << V >> {
  - cultures_name : (nvarchar(10))
  - cultures_translations_model_name : (nvarchar(500))
  cultures_translations_model_tables_columns_name : (nvarchar(128))
  cultures_translations_model_tables_columns_translatedCaption : (nvarchar(128))
  cultures_translations_model_tables_columns_translatedDescription : (nvarchar(max))
  cultures_translations_model_tables_columns_translatedDisplayFolder : (nvarchar(512))
  cultures_translations_model_tables_name : (nvarchar(128))
  - databasename : (nvarchar(128))
  --
}

entity "puml-link:dhw:sqldb:ssas.repoobjectcolumn_translation.adoc[]" as ssas.RepoObjectColumn_translation << V >> {
  - **RepoObjectColumn_guid** : (uniqueidentifier)
  - **cultures_name** : (nvarchar(10))
  - Column_name : (nvarchar(128))
  cultures_translations_model_name : (nvarchar(500))
  cultures_translations_model_tables_columns_name : (nvarchar(128))
  cultures_translations_model_tables_name : (nvarchar(128))
  databasename : (nvarchar(128))
  displayfolder_DisplayName : (nvarchar(512))
  displayfolder_translation : (nvarchar(512))
  pk_index_guid : (uniqueidentifier)
  - RepoObject_name : (nvarchar(128))
  - RepoObject_schema_name : (nvarchar(128))
  RepoObjectColumn_DisplayName : (nvarchar(128))
  RepoObjectColumn_translation : (nvarchar(128))
  - tabcol_IsHidden : (bit)
  tables_columns_displayFolder : (nvarchar(500))
  tables_columns_name : (nvarchar(128))
  tables_name : (nvarchar(128))
  --
}

ssas.model_json_34111_cultures_translations_model_tables <.. ssas.model_json_341111_cultures_translations_model_tables_columns
ssas.model_json_341111_cultures_translations_model_tables_columns <.. ssas.RepoObjectColumn_translation
"ssas.model_json_34111_cultures_translations_model_tables::cultures_name" <-- "ssas.model_json_341111_cultures_translations_model_tables_columns::cultures_name"
"ssas.model_json_34111_cultures_translations_model_tables::cultures_translations_model_name" <-- "ssas.model_json_341111_cultures_translations_model_tables_columns::cultures_translations_model_name"
"ssas.model_json_34111_cultures_translations_model_tables::cultures_translations_model_tables_name" <-- "ssas.model_json_341111_cultures_translations_model_tables_columns::cultures_translations_model_tables_name"
"ssas.model_json_34111_cultures_translations_model_tables::databasename" <-- "ssas.model_json_341111_cultures_translations_model_tables_columns::databasename"
"ssas.model_json_341111_cultures_translations_model_tables_columns::cultures_translations_model_name" <-- "ssas.RepoObjectColumn_translation::cultures_translations_model_name"
"ssas.model_json_341111_cultures_translations_model_tables_columns::cultures_translations_model_tables_columns_name" <-- "ssas.RepoObjectColumn_translation::cultures_translations_model_tables_columns_name"
"ssas.model_json_341111_cultures_translations_model_tables_columns::cultures_translations_model_tables_columns_translatedCaption" <-- "ssas.RepoObjectColumn_translation::RepoObjectColumn_translation"
"ssas.model_json_341111_cultures_translations_model_tables_columns::cultures_translations_model_tables_columns_translatedDisplayFolder" <-- "ssas.RepoObjectColumn_translation::displayfolder_translation"
"ssas.model_json_341111_cultures_translations_model_tables_columns::cultures_translations_model_tables_name" <-- "ssas.RepoObjectColumn_translation::cultures_translations_model_tables_name"footer The diagram is interactive and contains links.
@enduml

