@startuml
left to right direction
'top to bottom direction
hide circle
'avoide "." issues:
set namespaceSeparator none


skinparam class {
  BackgroundColor White
  BackgroundColor<<FN>> Yellow
  BackgroundColor<<FS>> Yellow
  BackgroundColor<<FT>> LightGray
  BackgroundColor<<IF>> Yellow
  BackgroundColor<<IS>> Yellow
  BackgroundColor<<P>> Aqua
  BackgroundColor<<PC>> Aqua
  BackgroundColor<<SN>> Yellow
  BackgroundColor<<SO>> SlateBlue
  BackgroundColor<<TF>> LightGray
  BackgroundColor<<TR>> Tomato
  BackgroundColor<<U>> White
  BackgroundColor<<V>> WhiteSmoke
  BackgroundColor<<X>> Aqua
  BackgroundColor<<external>> AliceBlue
}


entity "puml-link:dhw:sqldb:ssas.model_json.adoc[]" as ssas.model_json << U >> {
  - **databasename** : (nvarchar(128))
  - model_filename : (nvarchar(4000))
  model_utf8 : (varchar(max))
  # isModelJson : (int)
  --
}

entity "puml-link:dhw:sqldb:ssas.model_json_10.adoc[]" as ssas.model_json_10 << V >> {
  - databasename : (nvarchar(128))
  l1_compatibilityLevel : (int)
  l1_id : (nvarchar(500))
  l1_model_j : (nvarchar(max))
  l1_name : (nvarchar(500))
  --
}

entity "puml-link:dhw:sqldb:ssas.model_json_20.adoc[]" as ssas.model_json_20 << V >> {
  - databasename : (nvarchar(128))
  l1_compatibilityLevel : (int)
  l1_id : (nvarchar(500))
  l1_name : (nvarchar(500))
  l2_annotations_ja : (nvarchar(max))
  l2_culture : (nvarchar(500))
  l2_cultures_ja : (nvarchar(max))
  l2_dataSources_ja : (nvarchar(max))
  l2_description : (nvarchar(max))
  l2_description_ja : (nvarchar(max))
  l2_name : (nvarchar(500))
  l2_perspectives_ja : (nvarchar(max))
  l2_relationships_ja : (nvarchar(max))
  l2_roles_ja : (nvarchar(max))
  l2_tables_ja : (nvarchar(max))
  --
}

ssas.model_json <.. ssas.model_json_10
ssas.model_json_10 <.. ssas.model_json_20
"ssas.model_json::databasename" <-- "ssas.model_json_10::databasename"
"ssas.model_json_10::databasename" <-- "ssas.model_json_20::databasename"
"ssas.model_json_10::l1_compatibilityLevel" <-- "ssas.model_json_20::l1_compatibilityLevel"
"ssas.model_json_10::l1_id" <-- "ssas.model_json_20::l1_id"
"ssas.model_json_10::l1_name" <-- "ssas.model_json_20::l1_name"footer The diagram is interactive and contains links.
@enduml

