@startuml
left to right direction
'top to bottom direction
hide circle
'avoide "." issues:
set namespaceSeparator none


skinparam class {
  BackgroundColor White
  BackgroundColor<<FN>> Yellow
  BackgroundColor<<FS>> Yellow
  BackgroundColor<<FT>> LightGray
  BackgroundColor<<IF>> Yellow
  BackgroundColor<<IS>> Yellow
  BackgroundColor<<P>> Aqua
  BackgroundColor<<PC>> Aqua
  BackgroundColor<<SN>> Yellow
  BackgroundColor<<SO>> SlateBlue
  BackgroundColor<<TF>> LightGray
  BackgroundColor<<TR>> Tomato
  BackgroundColor<<U>> White
  BackgroundColor<<V>> WhiteSmoke
  BackgroundColor<<X>> Aqua
  BackgroundColor<<external>> AliceBlue
}


entity "puml-link:dhw:sqldb:repo.reposchema_ssas_src.adoc[]" as repo.RepoSchema_ssas_src << V >> {
  --
  - is_ssas : (int)
  - is_SysSchema_missing : (int)
  RepoSchema_ms_description : (nvarchar(max))
  - RepoSchema_name : (nvarchar(128))
  - SysSchema_name : (nvarchar(128))
  --
  --
}

entity "puml-link:dhw:sqldb:ssas.model_json_201_descriptions_multiline.adoc[]" as ssas.model_json_201_descriptions_multiline << V >> {
  --
  - databasename : (nvarchar(128))
  - Key : (nvarchar(4000))
  - Type : (tinyint)
  Value : (nvarchar(max))
  --
  --
}

entity "puml-link:dhw:sqldb:ssas.model_json_2011_descriptions_stragg.adoc[]" as ssas.model_json_2011_descriptions_StrAgg << V >> {
  --
  - databasename : (nvarchar(128))
  descriptions_StrAgg : (nvarchar(max))
  --
  --
}

ssas.model_json_201_descriptions_multiline <.. ssas.model_json_2011_descriptions_StrAgg
ssas.model_json_2011_descriptions_StrAgg <.. repo.RepoSchema_ssas_src
"ssas.model_json_201_descriptions_multiline::databasename" <-- "ssas.model_json_2011_descriptions_StrAgg::databasename"
@enduml

