@startuml
left to right direction
'top to bottom direction
hide circle
'avoide "." issues:
set namespaceSeparator none


skinparam class {
  BackgroundColor White
  BackgroundColor<<FN>> Yellow
  BackgroundColor<<FS>> Yellow
  BackgroundColor<<FT>> LightGray
  BackgroundColor<<IF>> Yellow
  BackgroundColor<<IS>> Yellow
  BackgroundColor<<P>> Aqua
  BackgroundColor<<PC>> Aqua
  BackgroundColor<<SN>> Yellow
  BackgroundColor<<SO>> SlateBlue
  BackgroundColor<<TF>> LightGray
  BackgroundColor<<TR>> Tomato
  BackgroundColor<<U>> White
  BackgroundColor<<V>> WhiteSmoke
  BackgroundColor<<X>> Aqua
  BackgroundColor<<external>> AliceBlue
}


entity "puml-link:dhw:sqldb:ssas.model_json_31_tables_t.adoc[]" as ssas.model_json_31_tables_T << U >> {
  - **databasename** : (nvarchar(128))
  **tables_name** : (nvarchar(128))
  - RepoObject_guid : (uniqueidentifier)
  tables_annotations_ja : (nvarchar(max))
  tables_columns_ja : (nvarchar(max))
  tables_dataCategory : (nvarchar(500))
  tables_description : (nvarchar(max))
  tables_description_ja : (nvarchar(max))
  tables_hierarchies_ja : (nvarchar(max))
  tables_isHidden : (bit)
  tables_measures_ja : (nvarchar(max))
  tables_partitions_ja : (nvarchar(max))
  --
}

entity "puml-link:dhw:sqldb:ssas.model_json_316_tables_descriptions_multiline.adoc[]" as ssas.model_json_316_tables_descriptions_multiline << V >> {
  - databasename : (nvarchar(128))
  - Key : (nvarchar(4000))
  - RepoObject_guid : (uniqueidentifier)
  - tables_name : (nvarchar(128))
  - Type : (tinyint)
  Value : (nvarchar(max))
  --
}

entity "puml-link:dhw:sqldb:ssas.model_json_3161_tables_descriptions_stragg.adoc[]" as ssas.model_json_3161_tables_descriptions_StrAgg << V >> {
  - databasename : (nvarchar(128))
  descriptions_StrAgg : (nvarchar(max))
  - RepoObject_guid : (uniqueidentifier)
  - tables_name : (nvarchar(128))
  --
}

ssas.model_json_31_tables_T <.. ssas.model_json_316_tables_descriptions_multiline
ssas.model_json_316_tables_descriptions_multiline <.. ssas.model_json_3161_tables_descriptions_StrAgg
"ssas.model_json_31_tables_T::databasename" <-- "ssas.model_json_316_tables_descriptions_multiline::databasename"
"ssas.model_json_31_tables_T::RepoObject_guid" <-- "ssas.model_json_316_tables_descriptions_multiline::RepoObject_guid"
"ssas.model_json_31_tables_T::tables_name" <-- "ssas.model_json_316_tables_descriptions_multiline::tables_name"
"ssas.model_json_316_tables_descriptions_multiline::databasename" <-- "ssas.model_json_3161_tables_descriptions_StrAgg::databasename"
"ssas.model_json_316_tables_descriptions_multiline::RepoObject_guid" <-- "ssas.model_json_3161_tables_descriptions_StrAgg::RepoObject_guid"
"ssas.model_json_316_tables_descriptions_multiline::tables_name" <-- "ssas.model_json_3161_tables_descriptions_StrAgg::tables_name"footer The diagram is interactive and contains links.
@enduml

