@startuml
left to right direction
'top to bottom direction
hide circle
'avoide "." issues:
set namespaceSeparator none


skinparam class {
  BackgroundColor White
  BackgroundColor<<FN>> Yellow
  BackgroundColor<<FS>> Yellow
  BackgroundColor<<FT>> LightGray
  BackgroundColor<<IF>> Yellow
  BackgroundColor<<IS>> Yellow
  BackgroundColor<<P>> Aqua
  BackgroundColor<<PC>> Aqua
  BackgroundColor<<SN>> Yellow
  BackgroundColor<<SO>> SlateBlue
  BackgroundColor<<TF>> LightGray
  BackgroundColor<<TR>> Tomato
  BackgroundColor<<U>> White
  BackgroundColor<<V>> WhiteSmoke
  BackgroundColor<<X>> Aqua
  BackgroundColor<<external>> AliceBlue
}


entity "puml-link:dhw:sqldb:docs.culture.adoc[]" as docs.Culture << V >> {
  - cultures_name : (nvarchar(10))
  --
}

entity "puml-link:dhw:sqldb:docs.repoobject_outputfilter.adoc[]" as docs.RepoObject_OutputFilter << V >> {
  - **RepoObject_guid** : (uniqueidentifier)
  - **cultures_name** : (nvarchar(10))
  AntoraComponent : (nvarchar(max))
  AntoraModule : (nvarchar(max))
  external_AntoraComponent : (nvarchar(128))
  external_AntoraModule : (nvarchar(128))
  external_DatabaseName : (nvarchar(128))
  is_DocsOutput : (int)
  - is_external : (bit)
  - is_ssas : (bit)
  - PumlEntityTopDefault : (nvarchar(max))
  - PumlEntityTopWorkaround : (nvarchar(max))
  RepoObject_DisplayName : (nvarchar(128))
  RepoObject_FullDisplayName2 : (nvarchar(257))
  - RepoObject_fullname : (nvarchar(261))
  - RepoObject_fullname2 : (nvarchar(257))
  - RepoObject_name : (nvarchar(128))
  - RepoObject_schema_name : (nvarchar(128))
  RepoObject_translation : (nvarchar(128))
  SysObject_type : (char(2))
  SysObject_type_name : (nvarchar(128))
  tables_isHidden : (bit)
  --
}

entity "puml-link:dhw:sqldb:ssas.model_json_3411_cultures_translations_model.adoc[]" as ssas.model_json_3411_cultures_translations_model << V >> {
  - **databasename** : (nvarchar(128))
  **cultures_name** : (nvarchar(500))
  **cultures_translations_model_name** : (nvarchar(500))
  cultures_translations_model_perspectives_ja : (nvarchar(max))
  cultures_translations_model_tables_ja : (nvarchar(max))
  cultures_translations_model_translatedDescription : (nvarchar(max))
  --
}

entity "puml-link:dhw:sqldb:ssas.model_json_3411_cultures_translations_model_t.adoc[]" as ssas.model_json_3411_cultures_translations_model_T << U >> {
  - **databasename** : (nvarchar(128))
  **cultures_name** : (nvarchar(500))
  cultures_translations_model_name : (nvarchar(500))
  cultures_translations_model_perspectives_ja : (nvarchar(max))
  cultures_translations_model_tables_ja : (nvarchar(max))
  cultures_translations_model_translatedDescription : (nvarchar(max))
  - is_CultureDocsOutput : (bit)
  --
}

entity "puml-link:dhw:sqldb:ssas.model_json_34111_cultures_translations_model_tables.adoc[]" as ssas.model_json_34111_cultures_translations_model_tables << V >> {
  - cultures_name : (nvarchar(10))
  - cultures_translations_model_name : (nvarchar(500))
  cultures_translations_model_tables_columns_ja : (nvarchar(max))
  cultures_translations_model_tables_hierarchies_ja : (nvarchar(max))
  cultures_translations_model_tables_measures_ja : (nvarchar(max))
  cultures_translations_model_tables_name : (nvarchar(128))
  cultures_translations_model_tables_translatedCaption : (nvarchar(128))
  - databasename : (nvarchar(128))
  --
}

entity "puml-link:dhw:sqldb:ssas.usp_persist_model_json_3411_cultures_translations_model_t.adoc[]" as ssas.usp_PERSIST_model_json_3411_cultures_translations_model_T << P >> {
  --
}

ssas.model_json_3411_cultures_translations_model <.. ssas.model_json_3411_cultures_translations_model_T
ssas.model_json_3411_cultures_translations_model_T <.. docs.Culture
ssas.model_json_3411_cultures_translations_model_T <.. ssas.model_json_34111_cultures_translations_model_tables
ssas.model_json_3411_cultures_translations_model_T <.. docs.RepoObject_OutputFilter
ssas.model_json_3411_cultures_translations_model_T <.. ssas.usp_PERSIST_model_json_3411_cultures_translations_model_T
"ssas.model_json_3411_cultures_translations_model::cultures_name" <-- "ssas.model_json_3411_cultures_translations_model_T::cultures_name"
"ssas.model_json_3411_cultures_translations_model::cultures_translations_model_name" <-- "ssas.model_json_3411_cultures_translations_model_T::cultures_translations_model_name"
"ssas.model_json_3411_cultures_translations_model::cultures_translations_model_perspectives_ja" <-- "ssas.model_json_3411_cultures_translations_model_T::cultures_translations_model_perspectives_ja"
"ssas.model_json_3411_cultures_translations_model::cultures_translations_model_tables_ja" <-- "ssas.model_json_3411_cultures_translations_model_T::cultures_translations_model_tables_ja"
"ssas.model_json_3411_cultures_translations_model::cultures_translations_model_translatedDescription" <-- "ssas.model_json_3411_cultures_translations_model_T::cultures_translations_model_translatedDescription"
"ssas.model_json_3411_cultures_translations_model::databasename" <-- "ssas.model_json_3411_cultures_translations_model_T::databasename"
"ssas.model_json_3411_cultures_translations_model_T::cultures_name" <-- "ssas.model_json_34111_cultures_translations_model_tables::cultures_name"
"ssas.model_json_3411_cultures_translations_model_T::cultures_translations_model_name" <-- "ssas.model_json_34111_cultures_translations_model_tables::cultures_translations_model_name"
"ssas.model_json_3411_cultures_translations_model_T::databasename" <-- "ssas.model_json_34111_cultures_translations_model_tables::databasename"footer The diagram is interactive and contains links.
@enduml

