@startuml
left to right direction
'top to bottom direction
hide circle
'avoide "." issues:
set namespaceSeparator none


skinparam class {
  BackgroundColor White
  BackgroundColor<<FN>> Yellow
  BackgroundColor<<FS>> Yellow
  BackgroundColor<<FT>> LightGray
  BackgroundColor<<IF>> Yellow
  BackgroundColor<<IS>> Yellow
  BackgroundColor<<P>> Aqua
  BackgroundColor<<PC>> Aqua
  BackgroundColor<<SN>> Yellow
  BackgroundColor<<SO>> SlateBlue
  BackgroundColor<<TF>> LightGray
  BackgroundColor<<TR>> Tomato
  BackgroundColor<<U>> White
  BackgroundColor<<V>> WhiteSmoke
  BackgroundColor<<X>> Aqua
  BackgroundColor<<external>> AliceBlue
}


entity "puml-link:dhw:sqldb:repo.measures.adoc[]" as repo.Measures << V >> {
  --
  Description : (nvarchar(max))
  Expression : (nvarchar(max))
  is_ssas : (bit)
  - Measure_guid : (uniqueidentifier)
  measures_description : (nvarchar(max))
  measures_description_ja : (nvarchar(max))
  measures_displayFolder : (nvarchar(500))
  measures_expression : (nvarchar(max))
  measures_expression_ja : (nvarchar(max))
  measures_formatString : (nvarchar(500))
  measures_fullname : (nvarchar(517))
  - measures_fullname2 : (nvarchar(638))
  measures_isHidden : (bit)
  - measures_name : (nvarchar(500))
  MeasuresRepoObjekt_guid : (uniqueidentifier)
  MeasuresRepoObjekt_name : (varchar(9))
  - RepoObject_fullname2 : (nvarchar(257))
  - RepoObject_guid : (uniqueidentifier)
  - RepoObject_name : (nvarchar(128))
  - RepoSchema_name : (nvarchar(128))
  --
  --
}

entity "puml-link:dhw:sqldb:ssas.model_json_312_tables_measures.adoc[]" as ssas.model_json_312_tables_measures << V >> {
  - **databasename** : (nvarchar(128))
  - **tables_name** : (nvarchar(128))
  **tables_measures_name** : (nvarchar(500))
  --
  - RepoObject_guid : (uniqueidentifier)
  tables_measures_description : (nvarchar(max))
  tables_measures_description_ja : (nvarchar(max))
  tables_measures_displayFolder : (nvarchar(500))
  tables_measures_expression : (nvarchar(max))
  tables_measures_expression_ja : (nvarchar(max))
  tables_measures_formatString : (nvarchar(500))
  tables_measures_isHidden : (bit)
  --
  --
}

entity "puml-link:dhw:sqldb:ssas.model_json_312_tables_measures_t.adoc[]" as ssas.model_json_312_tables_measures_T << U >> {
  - **Measure_guid** : (uniqueidentifier)
  --
  - databasename : (nvarchar(128))
  - RepoObject_guid : (uniqueidentifier)
  tables_measures_description : (nvarchar(max))
  tables_measures_description_ja : (nvarchar(max))
  tables_measures_displayFolder : (nvarchar(500))
  tables_measures_expression : (nvarchar(max))
  tables_measures_expression_ja : (nvarchar(max))
  tables_measures_formatString : (nvarchar(500))
  tables_measures_isHidden : (bit)
  tables_measures_name : (nvarchar(500))
  - tables_name : (nvarchar(128))
  --
  --
}

entity "puml-link:dhw:sqldb:ssas.model_json_3121_tables_columns_descriptions_multiline.adoc[]" as ssas.model_json_3121_tables_columns_descriptions_multiline << V >> {
  --
  - databasename : (nvarchar(128))
  - Key : (nvarchar(4000))
  - Measure_guid : (uniqueidentifier)
  - RepoObject_guid : (uniqueidentifier)
  - tables_measures_name : (nvarchar(500))
  - tables_name : (nvarchar(128))
  - Type : (tinyint)
  Value : (nvarchar(max))
  --
  --
}

entity "puml-link:dhw:sqldb:ssas.model_json_3122_tables_measures_expressions_multiline.adoc[]" as ssas.model_json_3122_tables_measures_expressions_multiline << V >> {
  --
  - databasename : (nvarchar(128))
  - Key : (nvarchar(4000))
  - Measure_guid : (uniqueidentifier)
  - RepoObject_guid : (uniqueidentifier)
  - tables_measures_name : (nvarchar(500))
  - tables_name : (nvarchar(128))
  - Type : (tinyint)
  Value : (nvarchar(max))
  --
  --
}

entity "puml-link:dhw:sqldb:ssas.usp_persist_model_json_312_tables_measures_t.adoc[]" as ssas.usp_PERSIST_model_json_312_tables_measures_T << P >> {
  --
  --
  --
}

ssas.model_json_312_tables_measures <.. ssas.model_json_312_tables_measures_T
ssas.model_json_312_tables_measures_T <.. repo.Measures
ssas.model_json_312_tables_measures_T <.. ssas.model_json_3121_tables_columns_descriptions_multiline
ssas.model_json_312_tables_measures_T <.. ssas.model_json_3122_tables_measures_expressions_multiline
ssas.model_json_312_tables_measures_T <.. ssas.usp_PERSIST_model_json_312_tables_measures_T
"ssas.model_json_312_tables_measures::databasename" <-- "ssas.model_json_312_tables_measures_T::databasename"
"ssas.model_json_312_tables_measures::RepoObject_guid" <-- "ssas.model_json_312_tables_measures_T::RepoObject_guid"
"ssas.model_json_312_tables_measures::tables_measures_description" <-- "ssas.model_json_312_tables_measures_T::tables_measures_description"
"ssas.model_json_312_tables_measures::tables_measures_description_ja" <-- "ssas.model_json_312_tables_measures_T::tables_measures_description_ja"
"ssas.model_json_312_tables_measures::tables_measures_displayFolder" <-- "ssas.model_json_312_tables_measures_T::tables_measures_displayFolder"
"ssas.model_json_312_tables_measures::tables_measures_expression" <-- "ssas.model_json_312_tables_measures_T::tables_measures_expression"
"ssas.model_json_312_tables_measures::tables_measures_expression_ja" <-- "ssas.model_json_312_tables_measures_T::tables_measures_expression_ja"
"ssas.model_json_312_tables_measures::tables_measures_formatString" <-- "ssas.model_json_312_tables_measures_T::tables_measures_formatString"
"ssas.model_json_312_tables_measures::tables_measures_isHidden" <-- "ssas.model_json_312_tables_measures_T::tables_measures_isHidden"
"ssas.model_json_312_tables_measures::tables_measures_name" <-- "ssas.model_json_312_tables_measures_T::tables_measures_name"
"ssas.model_json_312_tables_measures::tables_name" <-- "ssas.model_json_312_tables_measures_T::tables_name"
"ssas.model_json_312_tables_measures_T::databasename" <-- "ssas.model_json_3121_tables_columns_descriptions_multiline::databasename"
"ssas.model_json_312_tables_measures_T::databasename" <-- "repo.Measures::RepoSchema_name"
"ssas.model_json_312_tables_measures_T::databasename" <-- "ssas.model_json_3122_tables_measures_expressions_multiline::databasename"
"ssas.model_json_312_tables_measures_T::Measure_guid" <-- "ssas.model_json_3121_tables_columns_descriptions_multiline::Measure_guid"
"ssas.model_json_312_tables_measures_T::Measure_guid" <-- "repo.Measures::Measure_guid"
"ssas.model_json_312_tables_measures_T::Measure_guid" <-- "ssas.model_json_3122_tables_measures_expressions_multiline::Measure_guid"
"ssas.model_json_312_tables_measures_T::RepoObject_guid" <-- "ssas.model_json_3121_tables_columns_descriptions_multiline::RepoObject_guid"
"ssas.model_json_312_tables_measures_T::RepoObject_guid" <-- "repo.Measures::RepoObject_guid"
"ssas.model_json_312_tables_measures_T::RepoObject_guid" <-- "ssas.model_json_3122_tables_measures_expressions_multiline::RepoObject_guid"
"ssas.model_json_312_tables_measures_T::tables_measures_description" <-- "repo.Measures::measures_description"
"ssas.model_json_312_tables_measures_T::tables_measures_description_ja" <-- "repo.Measures::measures_description_ja"
"ssas.model_json_312_tables_measures_T::tables_measures_displayFolder" <-- "repo.Measures::measures_displayFolder"
"ssas.model_json_312_tables_measures_T::tables_measures_expression" <-- "repo.Measures::measures_expression"
"ssas.model_json_312_tables_measures_T::tables_measures_expression_ja" <-- "repo.Measures::measures_expression_ja"
"ssas.model_json_312_tables_measures_T::tables_measures_formatString" <-- "repo.Measures::measures_formatString"
"ssas.model_json_312_tables_measures_T::tables_measures_isHidden" <-- "repo.Measures::measures_isHidden"
"ssas.model_json_312_tables_measures_T::tables_measures_name" <-- "ssas.model_json_3121_tables_columns_descriptions_multiline::tables_measures_name"
"ssas.model_json_312_tables_measures_T::tables_measures_name" <-- "repo.Measures::measures_name"
"ssas.model_json_312_tables_measures_T::tables_measures_name" <-- "ssas.model_json_3122_tables_measures_expressions_multiline::tables_measures_name"
"ssas.model_json_312_tables_measures_T::tables_name" <-- "ssas.model_json_3121_tables_columns_descriptions_multiline::tables_name"
"ssas.model_json_312_tables_measures_T::tables_name" <-- "repo.Measures::RepoObject_name"
"ssas.model_json_312_tables_measures_T::tables_name" <-- "ssas.model_json_3122_tables_measures_expressions_multiline::tables_name"
@enduml

