@startuml
left to right direction
'top to bottom direction
hide circle
'avoide "." issues:
set namespaceSeparator none


skinparam class {
  BackgroundColor White
  BackgroundColor<<FN>> Yellow
  BackgroundColor<<FS>> Yellow
  BackgroundColor<<FT>> LightGray
  BackgroundColor<<IF>> Yellow
  BackgroundColor<<IS>> Yellow
  BackgroundColor<<P>> Aqua
  BackgroundColor<<PC>> Aqua
  BackgroundColor<<SN>> Yellow
  BackgroundColor<<SO>> SlateBlue
  BackgroundColor<<TF>> LightGray
  BackgroundColor<<TR>> Tomato
  BackgroundColor<<U>> White
  BackgroundColor<<V>> WhiteSmoke
  BackgroundColor<<X>> Aqua
  BackgroundColor<<external>> AliceBlue
}


entity "puml-link:dhw:sqldb:ssis.packagevariable_src.adoc[]" as ssis.PackageVariable_src << V >> {
  - **AntoraModule** : (varchar(50))
  **PackageName** : (varchar(200))
  **VariableName** : (varchar(500))
  ExpressionValue : (varchar(5000))
  VariableDataType : (varchar(max))
  VariableHexValue : (varchar(1000))
  VariableValue : (varchar(max))
  --
}

entity "puml-link:dhw:sqldb:ssis_t.tblvariable.adoc[]" as ssis_t.TblVariable << U >> {
  Category : (varchar(1000))
  ExpressionValue : (varchar(5000))
  PackageCreatorName : (varchar(1000))
  PackageName : (varchar(max))
  PackagePath : (varchar(5000))
  RowID : (int)
  VariableDataType : (varchar(max))
  VariableHexValue : (varchar(1000))
  VariableName : (varchar(500))
  - VariableRowID : (int)
  VariableValue : (varchar(max))
  --
}

entity "puml-link:dhw:sqldb:ssis_t.usp_getpackagedetails.adoc[]" as ssis_t.usp_GetPackageDetails << P >> {
  --
}

entity "puml-link:dhw:sqldb:ssis_t.usp_packageanalysis.adoc[]" as ssis_t.usp_PackageAnalysis << P >> {
  --
}

ssis_t.TblVariable <.. ssis.PackageVariable_src
ssis_t.TblVariable <.. ssis_t.usp_PackageAnalysis
ssis_t.TblVariable <.. ssis_t.usp_GetPackageDetails
"ssis_t.TblVariable::ExpressionValue" <-- "ssis.PackageVariable_src::ExpressionValue"
"ssis_t.TblVariable::VariableDataType" <-- "ssis.PackageVariable_src::VariableDataType"
"ssis_t.TblVariable::VariableHexValue" <-- "ssis.PackageVariable_src::VariableHexValue"
"ssis_t.TblVariable::VariableName" <-- "ssis.PackageVariable_src::VariableName"
"ssis_t.TblVariable::VariableValue" <-- "ssis.PackageVariable_src::VariableValue"footer The diagram is interactive and contains links.
@enduml

