@startuml
left to right direction
'top to bottom direction
hide circle
'avoide "." issues:
set namespaceSeparator none


skinparam class {
  BackgroundColor White
  BackgroundColor<<FN>> Yellow
  BackgroundColor<<FS>> Yellow
  BackgroundColor<<FT>> LightGray
  BackgroundColor<<IF>> Yellow
  BackgroundColor<<IS>> Yellow
  BackgroundColor<<P>> Aqua
  BackgroundColor<<PC>> Aqua
  BackgroundColor<<SN>> Yellow
  BackgroundColor<<SO>> SlateBlue
  BackgroundColor<<TF>> LightGray
  BackgroundColor<<TR>> Tomato
  BackgroundColor<<U>> White
  BackgroundColor<<V>> WhiteSmoke
  BackgroundColor<<X>> Aqua
  BackgroundColor<<external>> AliceBlue
}


entity "puml-link:dhw:sqldb:logs.usp_executionlog_insert.adoc[]" as logs.usp_ExecutionLog_insert << P >> {
  --
}

entity "puml-link:dhw:sqldb:ssis.packageparameter_src.adoc[]" as ssis.PackageParameter_src << V >> {
  - **AntoraModule** : (varchar(50))
  **PackageName** : (varchar(200))
  **ParameterName** : (varchar(500))
  ExpressionValue : (varchar(5000))
  ParameterDataType : (varchar(max))
  ParameterHexValue : (varchar(1000))
  ParameterValue : (varchar(max))
  --
}

entity "puml-link:dhw:sqldb:ssis.packageparameter_tgt.adoc[]" as ssis.PackageParameter_tgt << V >> {
  - **AntoraModule** : (varchar(50))
  **PackageName** : (varchar(200))
  **ParameterName** : (varchar(500))
  ExpressionValue : (varchar(5000))
  ParameterDataType : (varchar(max))
  ParameterHexValue : (varchar(1000))
  ParameterValue : (varchar(max))
  --
}

entity "puml-link:dhw:sqldb:ssis.usp_import.adoc[]" as ssis.usp_import << P >> {
  --
}

entity "puml-link:dhw:sqldb:ssis.usp_persist_packageparameter_tgt.adoc[]" as ssis.usp_PERSIST_PackageParameter_tgt << P >> {
  --
}

logs.usp_ExecutionLog_insert <.. ssis.usp_PERSIST_PackageParameter_tgt
ssis.PackageParameter_src <.. ssis.usp_PERSIST_PackageParameter_tgt
ssis.PackageParameter_tgt <.. ssis.usp_PERSIST_PackageParameter_tgt
ssis.usp_PERSIST_PackageParameter_tgt <.. ssis.usp_import
footer The diagram is interactive and contains links.
@enduml

