@startuml
left to right direction
'top to bottom direction
hide circle
'avoide "." issues:
set namespaceSeparator none


skinparam class {
  BackgroundColor White
  BackgroundColor<<FN>> Yellow
  BackgroundColor<<FS>> Yellow
  BackgroundColor<<FT>> LightGray
  BackgroundColor<<IF>> Yellow
  BackgroundColor<<IS>> Yellow
  BackgroundColor<<P>> Aqua
  BackgroundColor<<PC>> Aqua
  BackgroundColor<<SN>> Yellow
  BackgroundColor<<SO>> SlateBlue
  BackgroundColor<<TF>> LightGray
  BackgroundColor<<TR>> Tomato
  BackgroundColor<<U>> White
  BackgroundColor<<V>> WhiteSmoke
  BackgroundColor<<X>> Aqua
  BackgroundColor<<external>> AliceBlue
}


entity "puml-link:dhw:sqldb:ssis_t.projectconnection.adoc[]" as ssis_t.ProjectConnection << U >> {
  - **RowID** : (int)
  - ConnectionPath : (varchar(8000))
  - ConnectionXML : (xml)
  - ProjectPath : (varchar(8000))
  --
}

entity "puml-link:dhw:sqldb:ssis_t.tblprojectconnection.adoc[]" as ssis_t.TblProjectConnection << U >> {
  ConnectionManagerID : (uniqueidentifier)
  ConnectionManagerName : (varchar(max))
  ConnectionManagerType : (varchar(max))
  - ConnectionPath : (varchar(8000))
  ConnectionString : (nvarchar(max))
  ExpressionValue : (nvarchar(max))
  - RowID : (int)
  --
}

entity "puml-link:dhw:sqldb:ssis_t.tblprojectconnection_src.adoc[]" as ssis_t.TblProjectConnection_src << V >> {
  ConnectionManagerID : (uniqueidentifier)
  ConnectionManagerName : (varchar(max))
  ConnectionManagerType : (varchar(max))
  - ConnectionPath : (varchar(8000))
  ConnectionString : (nvarchar(max))
  ExpressionValue : (nvarchar(max))
  - RowID : (int)
  --
}

entity "puml-link:dhw:sqldb:ssis_t.usp_getprojectconnection.adoc[]" as ssis_t.usp_GetProjectConnection << P >> {
  --
}

ssis_t.ProjectConnection <.. ssis_t.usp_GetProjectConnection
ssis_t.TblProjectConnection <.. ssis_t.usp_GetProjectConnection
ssis_t.TblProjectConnection_src <.. ssis_t.usp_GetProjectConnection
footer The diagram is interactive and contains links.
@enduml

