@startuml
left to right direction
'top to bottom direction
hide circle
'avoide "." issues:
set namespaceSeparator none


skinparam class {
  BackgroundColor White
  BackgroundColor<<FN>> Yellow
  BackgroundColor<<FS>> Yellow
  BackgroundColor<<FT>> LightGray
  BackgroundColor<<IF>> Yellow
  BackgroundColor<<IS>> Yellow
  BackgroundColor<<P>> Aqua
  BackgroundColor<<PC>> Aqua
  BackgroundColor<<SN>> Yellow
  BackgroundColor<<SO>> SlateBlue
  BackgroundColor<<TF>> LightGray
  BackgroundColor<<TR>> Tomato
  BackgroundColor<<U>> White
  BackgroundColor<<V>> WhiteSmoke
  BackgroundColor<<X>> Aqua
  BackgroundColor<<external>> AliceBlue
}


entity "puml-link:dhw:sqldb:logs.usp_executionlog_insert.adoc[]" as logs.usp_ExecutionLog_insert << P >> {
  --
}

entity "puml-link:dhw:sqldb:ssis.packageflow_src.adoc[]" as ssis.PackageFlow_src << V >> {
  - **AntoraModule** : (varchar(50))
  **PackageName** : (varchar(200))
  **TaskFrom** : (varchar(2000))
  **Taskto** : (varchar(2000))
  CreationName : (nvarchar(max))
  DTSID : (uniqueidentifier)
  EvalOp : (int)
  Expression : (nvarchar(max))
  FlowType : (varchar(1000))
  LogicalAnd : (bit)
  ObjectName : (nvarchar(max))
  --
}

entity "puml-link:dhw:sqldb:ssis.packageflow_tgt.adoc[]" as ssis.PackageFlow_tgt << V >> {
  - **AntoraModule** : (varchar(50))
  **PackageName** : (varchar(200))
  **TaskFrom** : (varchar(2000))
  **Taskto** : (varchar(2000))
  CreationName : (nvarchar(max))
  DTSID : (uniqueidentifier)
  EvalOp : (int)
  Expression : (nvarchar(max))
  FlowType : (varchar(1000))
  LogicalAnd : (bit)
  ObjectName : (nvarchar(max))
  --
}

entity "puml-link:dhw:sqldb:ssis.usp_import.adoc[]" as ssis.usp_import << P >> {
  --
}

entity "puml-link:dhw:sqldb:ssis.usp_persist_packageflow_tgt.adoc[]" as ssis.usp_PERSIST_PackageFlow_tgt << P >> {
  --
}

logs.usp_ExecutionLog_insert <.. ssis.usp_PERSIST_PackageFlow_tgt
ssis.PackageFlow_src <.. ssis.usp_PERSIST_PackageFlow_tgt
ssis.PackageFlow_tgt <.. ssis.usp_PERSIST_PackageFlow_tgt
ssis.usp_PERSIST_PackageFlow_tgt <.. ssis.usp_import
footer The diagram is interactive and contains links.
@enduml

