@startuml
left to right direction
'top to bottom direction
hide circle
'avoide "." issues:
set namespaceSeparator none


skinparam class {
  BackgroundColor White
  BackgroundColor<<FN>> Yellow
  BackgroundColor<<FS>> Yellow
  BackgroundColor<<FT>> LightGray
  BackgroundColor<<IF>> Yellow
  BackgroundColor<<IS>> Yellow
  BackgroundColor<<P>> Aqua
  BackgroundColor<<PC>> Aqua
  BackgroundColor<<SN>> Yellow
  BackgroundColor<<SO>> SlateBlue
  BackgroundColor<<TF>> LightGray
  BackgroundColor<<TR>> Tomato
  BackgroundColor<<U>> White
  BackgroundColor<<V>> WhiteSmoke
  BackgroundColor<<X>> Aqua
  BackgroundColor<<external>> AliceBlue
}


entity "puml-link:dhw:sqldb:ssis.packagetask_dft_srcdest_src.adoc[]" as ssis.PackageTask_Dft_SrcDest_src << V >> {
  - **AntoraModule** : (varchar(50))
  **PackageName** : (varchar(200))
  **DFTTasksPath** : (varchar(max))
  **SourceColumn** : (varchar(8000))
  **DestinationColumn** : (varchar(8000))
  DataSource : (varchar(50))
  MultihashcolumnSortPosition : (varchar(max))
  SortKeyPosition : (varchar(10))
  --
}

entity "puml-link:dhw:sqldb:ssis_t.tbltask_dft_srcdest.adoc[]" as ssis_t.TblTask_Dft_SrcDest << U >> {
  DataFlowDetailsRowID : (int)
  DataSource : (varchar(50))
  DestinationColumn : (varchar(8000))
  RowID : (int)
  SortKeyPosition : (varchar(10))
  SourceColumn : (varchar(8000))
  --
}

entity "puml-link:dhw:sqldb:ssis_t.usp_getpackagedetails.adoc[]" as ssis_t.usp_GetPackageDetails << P >> {
  --
}

entity "puml-link:dhw:sqldb:ssis_t.usp_packageanalysis.adoc[]" as ssis_t.usp_PackageAnalysis << P >> {
  --
}

ssis_t.TblTask_Dft_SrcDest <.. ssis.PackageTask_Dft_SrcDest_src
ssis_t.TblTask_Dft_SrcDest <.. ssis_t.usp_PackageAnalysis
ssis_t.TblTask_Dft_SrcDest <.. ssis_t.usp_GetPackageDetails
"ssis_t.TblTask_Dft_SrcDest::DataSource" <-- "ssis.PackageTask_Dft_SrcDest_src::DataSource"
"ssis_t.TblTask_Dft_SrcDest::DestinationColumn" <-- "ssis.PackageTask_Dft_SrcDest_src::DestinationColumn"
"ssis_t.TblTask_Dft_SrcDest::SortKeyPosition" <-- "ssis.PackageTask_Dft_SrcDest_src::SortKeyPosition"
"ssis_t.TblTask_Dft_SrcDest::SourceColumn" <-- "ssis.PackageTask_Dft_SrcDest_src::SourceColumn"footer The diagram is interactive and contains links.
@enduml

