@startuml
left to right direction
'top to bottom direction
hide circle
'avoide "." issues:
set namespaceSeparator none


skinparam class {
  BackgroundColor White
  BackgroundColor<<FN>> Yellow
  BackgroundColor<<FS>> Yellow
  BackgroundColor<<FT>> LightGray
  BackgroundColor<<IF>> Yellow
  BackgroundColor<<IS>> Yellow
  BackgroundColor<<P>> Aqua
  BackgroundColor<<PC>> Aqua
  BackgroundColor<<SN>> Yellow
  BackgroundColor<<SO>> SlateBlue
  BackgroundColor<<TF>> LightGray
  BackgroundColor<<TR>> Tomato
  BackgroundColor<<U>> White
  BackgroundColor<<V>> WhiteSmoke
  BackgroundColor<<X>> Aqua
  BackgroundColor<<external>> AliceBlue
}


entity "puml-link:dhw:sqldb:ssis_t.tbltask_lookup.adoc[]" as ssis_t.TblTask_Lookup << U >> {
  DataFlowDetailsRowID : (int)
  DestinationColumn : (varchar(8000))
  LookupJoins : (varchar(8000))
  RowID : (int)
  SourceColumn : (varchar(8000))
  --
}

entity "puml-link:dhw:sqldb:ssis_t.usp_getpackagedetails.adoc[]" as ssis_t.usp_GetPackageDetails << P >> {
  --
}

entity "puml-link:dhw:sqldb:ssis_t.usp_packageanalysis.adoc[]" as ssis_t.usp_PackageAnalysis << P >> {
  --
}

ssis_t.TblTask_Lookup <.. ssis_t.usp_GetPackageDetails
ssis_t.TblTask_Lookup <.. ssis_t.usp_PackageAnalysis
footer The diagram is interactive and contains links.
@enduml

