@startuml
left to right direction
'top to bottom direction
hide circle
'avoide "." issues:
set namespaceSeparator none


skinparam class {
  BackgroundColor White
  BackgroundColor<<FN>> Yellow
  BackgroundColor<<FS>> Yellow
  BackgroundColor<<FT>> LightGray
  BackgroundColor<<IF>> Yellow
  BackgroundColor<<IS>> Yellow
  BackgroundColor<<P>> Aqua
  BackgroundColor<<PC>> Aqua
  BackgroundColor<<SN>> Yellow
  BackgroundColor<<SO>> SlateBlue
  BackgroundColor<<TF>> LightGray
  BackgroundColor<<TR>> Tomato
  BackgroundColor<<U>> White
  BackgroundColor<<V>> WhiteSmoke
  BackgroundColor<<X>> Aqua
  BackgroundColor<<external>> AliceBlue
}


entity "puml-link:dhw:sqldb:docs.ssis_connectionlist.adoc[]" as docs.ssis_ConnectionList << V >> {
  - AntoraModule : (varchar(50))
  ConnectionList : (nvarchar(max))
  - PackageName : (varchar(200))
  --
}

entity "puml-link:dhw:sqldb:docs.ssis_task.adoc[]" as docs.ssis_Task << V >> {
  AdocFilename : (nvarchar(4000))
  - AntoraModule : (varchar(50))
  - PackageName : (varchar(200))
  - TaskContent : (nvarchar(max))
  - TaskPath : (varchar(8000))
  --
}

entity "puml-link:dhw:sqldb:docs.ssis_tasklist.adoc[]" as docs.ssis_TaskList << V >> {
  - AntoraModule : (varchar(50))
  - PackageName : (varchar(200))
  TaskList : (nvarchar(max))
  --
}

entity "puml-link:dhw:sqldb:ssis.packageconnection.adoc[]" as ssis.PackageConnection << U >> {
  - **AntoraModule** : (varchar(50))
  - **PackageName** : (varchar(200))
  - **ConnectionManagerID** : (uniqueidentifier)
  ConnectionManagerName : (varchar(max))
  ConnectionManagerType : (varchar(max))
  ConnectionString : (varchar(max))
  ExpressionValue : (varchar(max))
  RetainSameConnectionProperty : (nvarchar(max))
  --
}

entity "puml-link:dhw:sqldb:ssis.packageconnection_tgt.adoc[]" as ssis.PackageConnection_tgt << V >> {
  - **AntoraModule** : (varchar(50))
  **PackageName** : (varchar(200))
  **ConnectionManagerID** : (uniqueidentifier)
  ConnectionManagerName : (varchar(max))
  ConnectionManagerType : (varchar(max))
  ConnectionString : (varchar(max))
  ExpressionValue : (varchar(max))
  RetainSameConnectionProperty : (nvarchar(max))
  --
}

ssis.PackageConnection <.. ssis.PackageConnection_tgt
ssis.PackageConnection <.. docs.ssis_ConnectionList
ssis.PackageConnection <.. docs.ssis_TaskList
ssis.PackageConnection <.. docs.ssis_Task
ssis.PackageConnection_tgt <.. ssis.PackageConnection
"ssis.PackageConnection::AntoraModule" <-- "docs.ssis_ConnectionList::AntoraModule"
"ssis.PackageConnection::AntoraModule" <-- "ssis.PackageConnection_tgt::AntoraModule"
"ssis.PackageConnection::ConnectionManagerID" <-- "ssis.PackageConnection_tgt::ConnectionManagerID"
"ssis.PackageConnection::ConnectionManagerName" <-- "ssis.PackageConnection_tgt::ConnectionManagerName"
"ssis.PackageConnection::ConnectionManagerType" <-- "ssis.PackageConnection_tgt::ConnectionManagerType"
"ssis.PackageConnection::ConnectionString" <-- "ssis.PackageConnection_tgt::ConnectionString"
"ssis.PackageConnection::ExpressionValue" <-- "ssis.PackageConnection_tgt::ExpressionValue"
"ssis.PackageConnection::PackageName" <-- "docs.ssis_ConnectionList::PackageName"
"ssis.PackageConnection::PackageName" <-- "ssis.PackageConnection_tgt::PackageName"
"ssis.PackageConnection::RetainSameConnectionProperty" <-- "ssis.PackageConnection_tgt::RetainSameConnectionProperty"footer The diagram is interactive and contains links.
@enduml

