@startuml
left to right direction
'top to bottom direction
hide circle
'avoide "." issues:
set namespaceSeparator none


skinparam class {
  BackgroundColor White
  BackgroundColor<<FN>> Yellow
  BackgroundColor<<FS>> Yellow
  BackgroundColor<<FT>> LightGray
  BackgroundColor<<IF>> Yellow
  BackgroundColor<<IS>> Yellow
  BackgroundColor<<P>> Aqua
  BackgroundColor<<PC>> Aqua
  BackgroundColor<<SN>> Yellow
  BackgroundColor<<SO>> SlateBlue
  BackgroundColor<<TF>> LightGray
  BackgroundColor<<TR>> Tomato
  BackgroundColor<<U>> White
  BackgroundColor<<V>> WhiteSmoke
  BackgroundColor<<X>> Aqua
  BackgroundColor<<external>> AliceBlue
}


entity "puml-link:dhw:sqldb:docs.ssis_pumlpartialcontrolflows.adoc[]" as docs.ssis_PumlPartialControlFlows << V >> {
  - AntoraModule : (varchar(50))
  - PackageName : (varchar(200))
  PumlPartialControlFlows : (nvarchar(max))
  --
}

entity "puml-link:dhw:sqldb:docs.ssis_pumlpartialdataflow.adoc[]" as docs.ssis_PumlPartialDataFlow << V >> {
  - AntoraModule : (varchar(50))
  - PackageName : (varchar(200))
  PumlPartialDataFlow : (nvarchar(max))
  TaskFromParent : (varchar(2000))
  --
}

entity "puml-link:dhw:sqldb:ssis.packageflow.adoc[]" as ssis.PackageFlow << U >> {
  - AntoraModule : (varchar(50))
  CreationName : (nvarchar(max))
  DTSID : (uniqueidentifier)
  EvalOp : (int)
  Expression : (nvarchar(max))
  FlowType : (varchar(1000))
  LogicalAnd : (bit)
  ObjectName : (nvarchar(max))
  - PackageName : (varchar(200))
  - TaskFrom : (varchar(2000))
  - Taskto : (varchar(2000))
  # TaskFromLevel : (int)
  # TaskFromParent : (varchar(2000))
  # TaskToLevel : (int)
  # TaskToParent : (varchar(2000))
  --
}

entity "puml-link:dhw:sqldb:ssis.packageflow_tgt.adoc[]" as ssis.PackageFlow_tgt << V >> {
  - **AntoraModule** : (varchar(50))
  **PackageName** : (varchar(200))
  **TaskFrom** : (varchar(2000))
  **Taskto** : (varchar(2000))
  CreationName : (nvarchar(max))
  DTSID : (uniqueidentifier)
  EvalOp : (int)
  Expression : (nvarchar(max))
  FlowType : (varchar(1000))
  LogicalAnd : (bit)
  ObjectName : (nvarchar(max))
  --
}

ssis.PackageFlow <.. ssis.PackageFlow_tgt
ssis.PackageFlow <.. docs.ssis_PumlPartialControlFlows
ssis.PackageFlow <.. docs.ssis_PumlPartialDataFlow
ssis.PackageFlow_tgt <.. ssis.PackageFlow
"ssis.PackageFlow::AntoraModule" <-- "ssis.PackageFlow_tgt::AntoraModule"
"ssis.PackageFlow::AntoraModule" <-- "docs.ssis_PumlPartialControlFlows::AntoraModule"
"ssis.PackageFlow::AntoraModule" <-- "docs.ssis_PumlPartialDataFlow::AntoraModule"
"ssis.PackageFlow::CreationName" <-- "ssis.PackageFlow_tgt::CreationName"
"ssis.PackageFlow::DTSID" <-- "ssis.PackageFlow_tgt::DTSID"
"ssis.PackageFlow::EvalOp" <-- "ssis.PackageFlow_tgt::EvalOp"
"ssis.PackageFlow::Expression" <-- "ssis.PackageFlow_tgt::Expression"
"ssis.PackageFlow::FlowType" <-- "ssis.PackageFlow_tgt::FlowType"
"ssis.PackageFlow::LogicalAnd" <-- "ssis.PackageFlow_tgt::LogicalAnd"
"ssis.PackageFlow::ObjectName" <-- "ssis.PackageFlow_tgt::ObjectName"
"ssis.PackageFlow::PackageName" <-- "ssis.PackageFlow_tgt::PackageName"
"ssis.PackageFlow::PackageName" <-- "docs.ssis_PumlPartialDataFlow::PackageName"
"ssis.PackageFlow::PackageName" <-- "docs.ssis_PumlPartialControlFlows::PackageName"
"ssis.PackageFlow::TaskFrom" <-- "ssis.PackageFlow::TaskFromLevel"
"ssis.PackageFlow::TaskFrom" <-- "ssis.PackageFlow::TaskFromParent"
"ssis.PackageFlow::TaskFrom" <-- "ssis.PackageFlow_tgt::TaskFrom"
"ssis.PackageFlow::TaskFromParent" <-- "docs.ssis_PumlPartialDataFlow::TaskFromParent"
"ssis.PackageFlow::Taskto" <-- "ssis.PackageFlow::TaskToLevel"
"ssis.PackageFlow::Taskto" <-- "ssis.PackageFlow::TaskToParent"
"ssis.PackageFlow::Taskto" <-- "ssis.PackageFlow_tgt::Taskto"footer The diagram is interactive and contains links.
@enduml

