@startuml
left to right direction
'top to bottom direction
hide circle
'avoide "." issues:
set namespaceSeparator none


skinparam class {
  BackgroundColor White
  BackgroundColor<<FN>> Yellow
  BackgroundColor<<FS>> Yellow
  BackgroundColor<<FT>> LightGray
  BackgroundColor<<IF>> Yellow
  BackgroundColor<<IS>> Yellow
  BackgroundColor<<P>> Aqua
  BackgroundColor<<PC>> Aqua
  BackgroundColor<<SN>> Yellow
  BackgroundColor<<SO>> SlateBlue
  BackgroundColor<<TF>> LightGray
  BackgroundColor<<TR>> Tomato
  BackgroundColor<<U>> White
  BackgroundColor<<V>> WhiteSmoke
  BackgroundColor<<X>> Aqua
  BackgroundColor<<external>> AliceBlue
}


entity "puml-link:dhw:sqldb:ssis.packagetask_dft_component_src.adoc[]" as ssis.PackageTask_Dft_Component_src << V >> {
  - **AntoraModule** : (varchar(50))
  **PackageName** : (varchar(200))
  **Component_refId** : (varchar(max))
  Component_AccessMode : (varchar(max))
  Component_AlwaysUseDefaultCodePage : (varchar(max))
  Component_CommandTimeout : (int)
  Component_componentClassID : (varchar(max))
  Component_Connection_description : (varchar(max))
  Component_Connection_name : (varchar(max))
  Component_Connection_refId : (varchar(max))
  Component_connectionManagerID : (varchar(max))
  Component_connectionManagerRefId : (varchar(max))
  Component_ContactInfo : (varchar(max))
  Component_DefaultCodePage : (int)
  Component_description : (varchar(max))
  Component_FastLoadKeepIdentity : (bit)
  Component_FastLoadKeepNulls : (bit)
  Component_FastLoadMaxInsertCommitSize : (int)
  Component_FastLoadOptions : (varchar(max))
  Component_IsSortedProperty : (varchar(10))
  Component_name : (varchar(max))
  Component_OpenRowset : (varchar(max))
  Component_OpenRowsetVariable : (varchar(max))
  Component_ParameterMapping : (varchar(max))
  Component_SqlCommand : (varchar(max))
  Component_SqlCommandVariable : (varchar(max))
  Component_VariableName : (varchar(max))
  - ControlFlowDetailsRowID : (int)
  TaskPath : (varchar(8000))
  --
}

entity "puml-link:dhw:sqldb:ssis_t.tbltask_dft_component.adoc[]" as ssis_t.TblTask_Dft_Component << U >> {
  - **DftComponentId** : (int)
  AccessMode : (varchar(max))
  AlwaysUseDefaultCodePage : (varchar(max))
  CommandTimeout : (int)
  componentClassID : (varchar(max))
  Connection_description : (varchar(max))
  Connection_name : (varchar(max))
  Connection_refId : (varchar(max))
  connectionManagerID : (varchar(max))
  connectionManagerRefId : (varchar(max))
  ContactInfo : (varchar(max))
  - ControlFlowDetailsRowID : (int)
  DefaultCodePage : (int)
  description : (varchar(max))
  FastLoadKeepIdentity : (bit)
  FastLoadKeepNulls : (bit)
  FastLoadMaxInsertCommitSize : (int)
  FastLoadOptions : (varchar(max))
  inputsQry : (xml)
  IsSortedProperty : (varchar(10))
  name : (varchar(max))
  OpenRowset : (varchar(max))
  OpenRowsetVariable : (varchar(max))
  outputsQry : (xml)
  ParameterMapping : (varchar(max))
  refId : (varchar(max))
  RowID : (int)
  SqlCommand : (varchar(max))
  SqlCommandVariable : (varchar(max))
  VariableName : (varchar(max))
  --
}

entity "puml-link:dhw:sqldb:ssis_t.tbltask_dft_component_inputs_externalmetadatacolumn_src.adoc[]" as ssis_t.TblTask_Dft_Component_inputs_externalMetadataColumn_src << V >> {
  Column_dataType : (varchar(100))
  Column_length : (int)
  Column_name : (varchar(max))
  Column_precision : (int)
  Column_refId : (varchar(max))
  Column_scale : (int)
  columnscontent : (xml)
  - ControlFlowDetailsRowID : (int)
  - DftComponentId : (int)
  externalMetadataColumns_isused : (bit)
  input_errorOrTruncationOperation : (varchar(100))
  input_errorRowDisposition : (varchar(100))
  input_hasSideEffects : (bit)
  input_name : (varchar(500))
  input_refId : (varchar(max))
  nodescontent : (xml)
  refId : (varchar(max))
  RowID : (int)
  --
}

entity "puml-link:dhw:sqldb:ssis_t.tbltask_dft_component_inputs_inputcolumn_src.adoc[]" as ssis_t.TblTask_Dft_Component_inputs_inputColumn_src << V >> {
  Column_cachedDataType : (varchar(100))
  Column_cachedName : (varchar(max))
  Column_externalMetadataColumnId : (varchar(max))
  Column_lineageId : (varchar(max))
  Column_refId : (varchar(max))
  columnscontent : (xml)
  - ControlFlowDetailsRowID : (int)
  - DftComponentId : (int)
  input_errorOrTruncationOperation : (varchar(100))
  input_errorRowDisposition : (varchar(100))
  input_hasSideEffects : (bit)
  input_name : (varchar(500))
  input_refId : (varchar(max))
  nodescontent : (xml)
  refId : (varchar(max))
  RowID : (int)
  --
}

entity "puml-link:dhw:sqldb:ssis_t.tbltask_dft_component_inputs_src.adoc[]" as ssis_t.TblTask_Dft_Component_inputs_src << V >> {
  - ControlFlowDetailsRowID : (int)
  - DftComponentId : (int)
  input_errorOrTruncationOperation : (varchar(100))
  input_errorRowDisposition : (varchar(100))
  input_hasSideEffects : (bit)
  input_name : (varchar(500))
  input_refId : (varchar(max))
  nodescontent : (xml)
  refId : (varchar(max))
  RowID : (int)
  --
}

entity "puml-link:dhw:sqldb:ssis_t.tbltask_dft_component_outputs_externalmetadatacolumn_src.adoc[]" as ssis_t.TblTask_Dft_Component_outputs_externalMetadataColumn_src << V >> {
  Column_dataType : (varchar(100))
  Column_length : (int)
  Column_name : (varchar(max))
  Column_precision : (int)
  Column_refId : (varchar(max))
  Column_scale : (int)
  columnscontent : (xml)
  - ControlFlowDetailsRowID : (int)
  - DftComponentId : (int)
  externalMetadataColumns_isused : (bit)
  nodescontent : (xml)
  output_name : (varchar(500))
  output_refId : (varchar(max))
  refId : (varchar(max))
  RowID : (int)
  --
}

entity "puml-link:dhw:sqldb:ssis_t.tbltask_dft_component_outputs_outputcolumn_src.adoc[]" as ssis_t.TblTask_Dft_Component_outputs_outputColumn_src << V >> {
  Column_dataType : (varchar(100))
  Column_errorOrTruncationOperation : (varchar(100))
  Column_errorRowDisposition : (varchar(100))
  Column_externalMetadataColumnId : (varchar(max))
  Column_length : (int)
  Column_lineageId : (varchar(max))
  Column_name : (varchar(max))
  Column_precision : (int)
  Column_refId : (varchar(max))
  Column_scale : (int)
  Column_truncationRowDisposition : (varchar(max))
  columnscontent : (xml)
  - ControlFlowDetailsRowID : (int)
  - DftComponentId : (int)
  nodescontent : (xml)
  output_isErrorOut : (bit)
  output_name : (varchar(500))
  output_refId : (varchar(max))
  refId : (varchar(max))
  RowID : (int)
  --
}

entity "puml-link:dhw:sqldb:ssis_t.tbltask_dft_component_outputs_src.adoc[]" as ssis_t.TblTask_Dft_Component_outputs_src << V >> {
  - ControlFlowDetailsRowID : (int)
  - DftComponentId : (int)
  nodescontent : (xml)
  output_isErrorOut : (bit)
  output_name : (varchar(500))
  output_refId : (varchar(max))
  refId : (varchar(max))
  RowID : (int)
  --
}

entity "puml-link:dhw:sqldb:ssis_t.usp_getpackagedetails.adoc[]" as ssis_t.usp_GetPackageDetails << P >> {
  --
}

ssis_t.TblTask_Dft_Component <.. ssis_t.usp_GetPackageDetails
ssis_t.TblTask_Dft_Component <.. ssis_t.TblTask_Dft_Component_outputs_outputColumn_src
ssis_t.TblTask_Dft_Component <.. ssis_t.TblTask_Dft_Component_outputs_externalMetadataColumn_src
ssis_t.TblTask_Dft_Component <.. ssis_t.TblTask_Dft_Component_inputs_inputColumn_src
ssis_t.TblTask_Dft_Component <.. ssis_t.TblTask_Dft_Component_inputs_externalMetadataColumn_src
ssis_t.TblTask_Dft_Component <.. ssis.PackageTask_Dft_Component_src
ssis_t.TblTask_Dft_Component <.. ssis_t.TblTask_Dft_Component_outputs_src
ssis_t.TblTask_Dft_Component <.. ssis_t.TblTask_Dft_Component_inputs_src
"ssis_t.TblTask_Dft_Component::AccessMode" <-- "ssis.PackageTask_Dft_Component_src::Component_AccessMode"
"ssis_t.TblTask_Dft_Component::AlwaysUseDefaultCodePage" <-- "ssis.PackageTask_Dft_Component_src::Component_AlwaysUseDefaultCodePage"
"ssis_t.TblTask_Dft_Component::CommandTimeout" <-- "ssis.PackageTask_Dft_Component_src::Component_CommandTimeout"
"ssis_t.TblTask_Dft_Component::componentClassID" <-- "ssis.PackageTask_Dft_Component_src::Component_componentClassID"
"ssis_t.TblTask_Dft_Component::Connection_description" <-- "ssis.PackageTask_Dft_Component_src::Component_Connection_description"
"ssis_t.TblTask_Dft_Component::Connection_name" <-- "ssis.PackageTask_Dft_Component_src::Component_Connection_name"
"ssis_t.TblTask_Dft_Component::Connection_refId" <-- "ssis.PackageTask_Dft_Component_src::Component_Connection_refId"
"ssis_t.TblTask_Dft_Component::connectionManagerID" <-- "ssis.PackageTask_Dft_Component_src::Component_connectionManagerID"
"ssis_t.TblTask_Dft_Component::connectionManagerRefId" <-- "ssis.PackageTask_Dft_Component_src::Component_connectionManagerRefId"
"ssis_t.TblTask_Dft_Component::ContactInfo" <-- "ssis.PackageTask_Dft_Component_src::Component_ContactInfo"
"ssis_t.TblTask_Dft_Component::ControlFlowDetailsRowID" <-- "ssis_t.TblTask_Dft_Component_outputs_outputColumn_src::ControlFlowDetailsRowID"
"ssis_t.TblTask_Dft_Component::ControlFlowDetailsRowID" <-- "ssis_t.TblTask_Dft_Component_outputs_externalMetadataColumn_src::ControlFlowDetailsRowID"
"ssis_t.TblTask_Dft_Component::ControlFlowDetailsRowID" <-- "ssis_t.TblTask_Dft_Component_inputs_externalMetadataColumn_src::ControlFlowDetailsRowID"
"ssis_t.TblTask_Dft_Component::ControlFlowDetailsRowID" <-- "ssis_t.TblTask_Dft_Component_inputs_inputColumn_src::ControlFlowDetailsRowID"
"ssis_t.TblTask_Dft_Component::ControlFlowDetailsRowID" <-- "ssis_t.TblTask_Dft_Component_inputs_src::ControlFlowDetailsRowID"
"ssis_t.TblTask_Dft_Component::ControlFlowDetailsRowID" <-- "ssis_t.TblTask_Dft_Component_outputs_src::ControlFlowDetailsRowID"
"ssis_t.TblTask_Dft_Component::DefaultCodePage" <-- "ssis.PackageTask_Dft_Component_src::Component_DefaultCodePage"
"ssis_t.TblTask_Dft_Component::description" <-- "ssis.PackageTask_Dft_Component_src::Component_description"
"ssis_t.TblTask_Dft_Component::DftComponentId" <-- "ssis_t.TblTask_Dft_Component_inputs_inputColumn_src::DftComponentId"
"ssis_t.TblTask_Dft_Component::DftComponentId" <-- "ssis_t.TblTask_Dft_Component_inputs_externalMetadataColumn_src::DftComponentId"
"ssis_t.TblTask_Dft_Component::DftComponentId" <-- "ssis_t.TblTask_Dft_Component_outputs_externalMetadataColumn_src::DftComponentId"
"ssis_t.TblTask_Dft_Component::DftComponentId" <-- "ssis_t.TblTask_Dft_Component_outputs_outputColumn_src::DftComponentId"
"ssis_t.TblTask_Dft_Component::DftComponentId" <-- "ssis_t.TblTask_Dft_Component_outputs_src::DftComponentId"
"ssis_t.TblTask_Dft_Component::DftComponentId" <-- "ssis_t.TblTask_Dft_Component_inputs_src::DftComponentId"
"ssis_t.TblTask_Dft_Component::FastLoadKeepIdentity" <-- "ssis.PackageTask_Dft_Component_src::Component_FastLoadKeepIdentity"
"ssis_t.TblTask_Dft_Component::FastLoadKeepNulls" <-- "ssis.PackageTask_Dft_Component_src::Component_FastLoadKeepNulls"
"ssis_t.TblTask_Dft_Component::FastLoadMaxInsertCommitSize" <-- "ssis.PackageTask_Dft_Component_src::Component_FastLoadMaxInsertCommitSize"
"ssis_t.TblTask_Dft_Component::FastLoadOptions" <-- "ssis.PackageTask_Dft_Component_src::Component_FastLoadOptions"
"ssis_t.TblTask_Dft_Component::IsSortedProperty" <-- "ssis.PackageTask_Dft_Component_src::Component_IsSortedProperty"
"ssis_t.TblTask_Dft_Component::name" <-- "ssis.PackageTask_Dft_Component_src::Component_name"
"ssis_t.TblTask_Dft_Component::OpenRowset" <-- "ssis.PackageTask_Dft_Component_src::Component_OpenRowset"
"ssis_t.TblTask_Dft_Component::OpenRowsetVariable" <-- "ssis.PackageTask_Dft_Component_src::Component_OpenRowsetVariable"
"ssis_t.TblTask_Dft_Component::ParameterMapping" <-- "ssis.PackageTask_Dft_Component_src::Component_ParameterMapping"
"ssis_t.TblTask_Dft_Component::refId" <-- "ssis_t.TblTask_Dft_Component_inputs_externalMetadataColumn_src::refId"
"ssis_t.TblTask_Dft_Component::refId" <-- "ssis.PackageTask_Dft_Component_src::Component_refId"
"ssis_t.TblTask_Dft_Component::refId" <-- "ssis_t.TblTask_Dft_Component_outputs_outputColumn_src::refId"
"ssis_t.TblTask_Dft_Component::refId" <-- "ssis_t.TblTask_Dft_Component_inputs_inputColumn_src::refId"
"ssis_t.TblTask_Dft_Component::refId" <-- "ssis_t.TblTask_Dft_Component_outputs_externalMetadataColumn_src::refId"
"ssis_t.TblTask_Dft_Component::refId" <-- "ssis_t.TblTask_Dft_Component_inputs_src::refId"
"ssis_t.TblTask_Dft_Component::refId" <-- "ssis_t.TblTask_Dft_Component_outputs_src::refId"
"ssis_t.TblTask_Dft_Component::RowID" <-- "ssis_t.TblTask_Dft_Component_inputs_src::RowID"
"ssis_t.TblTask_Dft_Component::RowID" <-- "ssis_t.TblTask_Dft_Component_outputs_src::RowID"
"ssis_t.TblTask_Dft_Component::RowID" <-- "ssis_t.TblTask_Dft_Component_inputs_inputColumn_src::RowID"
"ssis_t.TblTask_Dft_Component::RowID" <-- "ssis_t.TblTask_Dft_Component_outputs_externalMetadataColumn_src::RowID"
"ssis_t.TblTask_Dft_Component::RowID" <-- "ssis_t.TblTask_Dft_Component_outputs_outputColumn_src::RowID"
"ssis_t.TblTask_Dft_Component::RowID" <-- "ssis_t.TblTask_Dft_Component_inputs_externalMetadataColumn_src::RowID"
"ssis_t.TblTask_Dft_Component::SqlCommand" <-- "ssis.PackageTask_Dft_Component_src::Component_SqlCommand"
"ssis_t.TblTask_Dft_Component::SqlCommandVariable" <-- "ssis.PackageTask_Dft_Component_src::Component_SqlCommandVariable"
"ssis_t.TblTask_Dft_Component::VariableName" <-- "ssis.PackageTask_Dft_Component_src::Component_VariableName"footer The diagram is interactive and contains links.
@enduml

