@startuml
left to right direction
'top to bottom direction
hide circle
'avoide "." issues:
set namespaceSeparator none


skinparam class {
  BackgroundColor White
  BackgroundColor<<FN>> Yellow
  BackgroundColor<<FS>> Yellow
  BackgroundColor<<FT>> LightGray
  BackgroundColor<<IF>> Yellow
  BackgroundColor<<IS>> Yellow
  BackgroundColor<<P>> Aqua
  BackgroundColor<<PC>> Aqua
  BackgroundColor<<SN>> Yellow
  BackgroundColor<<SO>> SlateBlue
  BackgroundColor<<TF>> LightGray
  BackgroundColor<<TR>> Tomato
  BackgroundColor<<U>> White
  BackgroundColor<<V>> WhiteSmoke
  BackgroundColor<<X>> Aqua
  BackgroundColor<<external>> AliceBlue
}


entity "puml-link:dhw:sqldb:ssis.packagetask_dft_component_output_outputcolumn_src.adoc[]" as ssis.PackageTask_Dft_Component_output_outputcolumn_src << V >> {
  - **AntoraModule** : (varchar(50))
  **PackageName** : (varchar(200))
  **Column_refId** : (varchar(max))
  Column_dataType : (varchar(100))
  Column_errorOrTruncationOperation : (varchar(100))
  Column_errorRowDisposition : (varchar(100))
  Column_externalMetadataColumnId : (varchar(max))
  Column_length : (int)
  Column_lineageId : (varchar(max))
  Column_name : (varchar(max))
  Column_precision : (int)
  Column_scale : (int)
  Column_truncationRowDisposition : (varchar(max))
  Component_refId : (varchar(max))
  - ControlFlowDetailsRowID : (int)
  output_isErrorOut : (bit)
  output_name : (varchar(500))
  output_refId : (varchar(max))
  TaskPath : (varchar(8000))
  --
}

entity "puml-link:dhw:sqldb:ssis_t.tbltask_dft_component.adoc[]" as ssis_t.TblTask_Dft_Component << U >> {
  - **DftComponentId** : (int)
  AccessMode : (varchar(max))
  AlwaysUseDefaultCodePage : (varchar(max))
  CommandTimeout : (int)
  componentClassID : (varchar(max))
  Connection_description : (varchar(max))
  Connection_name : (varchar(max))
  Connection_refId : (varchar(max))
  connectionManagerID : (varchar(max))
  connectionManagerRefId : (varchar(max))
  ContactInfo : (varchar(max))
  - ControlFlowDetailsRowID : (int)
  DefaultCodePage : (int)
  description : (varchar(max))
  FastLoadKeepIdentity : (bit)
  FastLoadKeepNulls : (bit)
  FastLoadMaxInsertCommitSize : (int)
  FastLoadOptions : (varchar(max))
  inputsQry : (xml)
  IsSortedProperty : (varchar(10))
  name : (varchar(max))
  OpenRowset : (varchar(max))
  OpenRowsetVariable : (varchar(max))
  outputsQry : (xml)
  ParameterMapping : (varchar(max))
  refId : (varchar(max))
  RowID : (int)
  SqlCommand : (varchar(max))
  SqlCommandVariable : (varchar(max))
  VariableName : (varchar(max))
  --
}

entity "puml-link:dhw:sqldb:ssis_t.tbltask_dft_component_outputs_outputcolumn_src.adoc[]" as ssis_t.TblTask_Dft_Component_outputs_outputColumn_src << V >> {
  Column_dataType : (varchar(100))
  Column_errorOrTruncationOperation : (varchar(100))
  Column_errorRowDisposition : (varchar(100))
  Column_externalMetadataColumnId : (varchar(max))
  Column_length : (int)
  Column_lineageId : (varchar(max))
  Column_name : (varchar(max))
  Column_precision : (int)
  Column_refId : (varchar(max))
  Column_scale : (int)
  Column_truncationRowDisposition : (varchar(max))
  columnscontent : (xml)
  - ControlFlowDetailsRowID : (int)
  - DftComponentId : (int)
  nodescontent : (xml)
  output_isErrorOut : (bit)
  output_name : (varchar(500))
  output_refId : (varchar(max))
  refId : (varchar(max))
  RowID : (int)
  --
}

ssis_t.TblTask_Dft_Component <.. ssis_t.TblTask_Dft_Component_outputs_outputColumn_src
ssis_t.TblTask_Dft_Component_outputs_outputColumn_src <.. ssis.PackageTask_Dft_Component_output_outputcolumn_src
"ssis_t.TblTask_Dft_Component::ControlFlowDetailsRowID" <-- "ssis_t.TblTask_Dft_Component_outputs_outputColumn_src::ControlFlowDetailsRowID"
"ssis_t.TblTask_Dft_Component::DftComponentId" <-- "ssis_t.TblTask_Dft_Component_outputs_outputColumn_src::DftComponentId"
"ssis_t.TblTask_Dft_Component::refId" <-- "ssis_t.TblTask_Dft_Component_outputs_outputColumn_src::refId"
"ssis_t.TblTask_Dft_Component::RowID" <-- "ssis_t.TblTask_Dft_Component_outputs_outputColumn_src::RowID"
"ssis_t.TblTask_Dft_Component_outputs_outputColumn_src::Column_dataType" <-- "ssis.PackageTask_Dft_Component_output_outputcolumn_src::Column_dataType"
"ssis_t.TblTask_Dft_Component_outputs_outputColumn_src::Column_errorOrTruncationOperation" <-- "ssis.PackageTask_Dft_Component_output_outputcolumn_src::Column_errorOrTruncationOperation"
"ssis_t.TblTask_Dft_Component_outputs_outputColumn_src::Column_errorRowDisposition" <-- "ssis.PackageTask_Dft_Component_output_outputcolumn_src::Column_errorRowDisposition"
"ssis_t.TblTask_Dft_Component_outputs_outputColumn_src::Column_externalMetadataColumnId" <-- "ssis.PackageTask_Dft_Component_output_outputcolumn_src::Column_externalMetadataColumnId"
"ssis_t.TblTask_Dft_Component_outputs_outputColumn_src::Column_length" <-- "ssis.PackageTask_Dft_Component_output_outputcolumn_src::Column_length"
"ssis_t.TblTask_Dft_Component_outputs_outputColumn_src::Column_lineageId" <-- "ssis.PackageTask_Dft_Component_output_outputcolumn_src::Column_lineageId"
"ssis_t.TblTask_Dft_Component_outputs_outputColumn_src::Column_name" <-- "ssis.PackageTask_Dft_Component_output_outputcolumn_src::Column_name"
"ssis_t.TblTask_Dft_Component_outputs_outputColumn_src::Column_precision" <-- "ssis.PackageTask_Dft_Component_output_outputcolumn_src::Column_precision"
"ssis_t.TblTask_Dft_Component_outputs_outputColumn_src::Column_refId" <-- "ssis.PackageTask_Dft_Component_output_outputcolumn_src::Column_refId"
"ssis_t.TblTask_Dft_Component_outputs_outputColumn_src::Column_scale" <-- "ssis.PackageTask_Dft_Component_output_outputcolumn_src::Column_scale"
"ssis_t.TblTask_Dft_Component_outputs_outputColumn_src::Column_truncationRowDisposition" <-- "ssis.PackageTask_Dft_Component_output_outputcolumn_src::Column_truncationRowDisposition"
"ssis_t.TblTask_Dft_Component_outputs_outputColumn_src::ControlFlowDetailsRowID" <-- "ssis.PackageTask_Dft_Component_output_outputcolumn_src::ControlFlowDetailsRowID"
"ssis_t.TblTask_Dft_Component_outputs_outputColumn_src::output_isErrorOut" <-- "ssis.PackageTask_Dft_Component_output_outputcolumn_src::output_isErrorOut"
"ssis_t.TblTask_Dft_Component_outputs_outputColumn_src::output_name" <-- "ssis.PackageTask_Dft_Component_output_outputcolumn_src::output_name"
"ssis_t.TblTask_Dft_Component_outputs_outputColumn_src::output_refId" <-- "ssis.PackageTask_Dft_Component_output_outputcolumn_src::output_refId"
"ssis_t.TblTask_Dft_Component_outputs_outputColumn_src::refId" <-- "ssis.PackageTask_Dft_Component_output_outputcolumn_src::Component_refId"footer The diagram is interactive and contains links.
@enduml

