@startuml
left to right direction
'top to bottom direction
hide circle
'avoide "." issues:
set namespaceSeparator none


skinparam class {
  BackgroundColor White
  BackgroundColor<<FN>> Yellow
  BackgroundColor<<FS>> Yellow
  BackgroundColor<<FT>> LightGray
  BackgroundColor<<IF>> Yellow
  BackgroundColor<<IS>> Yellow
  BackgroundColor<<P>> Aqua
  BackgroundColor<<PC>> Aqua
  BackgroundColor<<SN>> Yellow
  BackgroundColor<<SO>> SlateBlue
  BackgroundColor<<TF>> LightGray
  BackgroundColor<<TR>> Tomato
  BackgroundColor<<U>> White
  BackgroundColor<<V>> WhiteSmoke
  BackgroundColor<<X>> Aqua
  BackgroundColor<<external>> AliceBlue
}


entity "puml-link:dhw:sqldb:ssis_t.connection.adoc[]" as ssis_t.Connection << U >> {
  ConnectionManager : (varchar(5000))
  ConnectionManagerID : (uniqueidentifier)
  --
}

entity "puml-link:dhw:sqldb:ssis_t.packageanalysis.adoc[]" as ssis_t.PackageAnalysis << U >> {
  Category : (varchar(1000))
  ConnectionManager : (varchar(5000))
  ConnectionManagerID : (varchar(100))
  DelayValidationPropertyValue : (varchar(10))
  DerivedValue : (varchar(5000))
  DestinationColumn : (varchar(5000))
  ExecutedPackageName : (varchar(8000))
  ExecutePackageConnection : (varchar(8000))
  ExecutePackageExpression : (varchar(8000))
  ExpressionValue : (varchar(5000))
  IsDisabled : (varchar(10))
  IsSortedProperty : (varchar(10))
  LookupJoins : (varchar(8000))
  MultihashcolumnSortPosition : (varchar(max))
  ObjectName : (varchar(500))
  ObjectType : (varchar(max))
  ObjectTypeDescription : (varchar(max))
  ObjectValue : (varchar(max))
  PackageCreatorName : (varchar(1000))
  PackageName : (varchar(max))
  PackagePath : (varchar(5000))
  PackageProtectionLevel : (varchar(100))
  PackageSequenceNo : (int)
  ParameterBindingParameterName : (varchar(1000))
  ParameterBindingSequence : (varchar(1000))
  ResultSetParameterName : (varchar(1000))
  RetainSameConnectionProperty : (varchar(100))
  RowID : (int)
  Script : (varchar(max))
  SequenceNo : (int)
  SortKeyPosition : (varchar(10))
  SourceColumn : (varchar(5000))
  - TableRowID : (int)
  TaskPath : (varchar(max))
  Variable : (varchar(1000))
  --
}

entity "puml-link:dhw:sqldb:ssis_t.pkgstats.adoc[]" as ssis_t.pkgStats << U >> {
  - **RowID** : (int)
  PackageCreationDate : (datetime)
  PackageCreatorComputerName : (nvarchar(500))
  PackageCreatorName : (varchar(1000))
  PackageDescription : (nvarchar(max))
  PackageDTSID : (uniqueidentifier)
  PackageLastModifiedProductVersion : (nvarchar(500))
  PackageLocaleID : (int)
  PackageObjectName : (nvarchar(500))
  - PackagePath : (varchar(8000))
  PackageProtectionLevel : (varchar(100))
  PackageVersionGUID : (uniqueidentifier)
  - PackageXML : (xml)
  - ProjectPath : (varchar(8000))
  # PackageName : (varchar(200))
  ~ PackageProtectionLevelName : (varchar(28))
  --
}

entity "puml-link:dhw:sqldb:ssis_t.tblconnection.adoc[]" as ssis_t.TblConnection << U >> {
  - Category : (varchar(10))
  ConnectionManagerID : (uniqueidentifier)
  ConnectionManagerName : (varchar(max))
  ConnectionManagerType : (varchar(max))
  ConnectionString : (varchar(max))
  - DelayValidationPropertyValue : (varchar(2))
  ExpressionValue : (varchar(max))
  PackageCreatorName : (varchar(1000))
  PackageName : (varchar(8000))
  - PackagePath : (varchar(8000))
  RetainSameConnectionProperty : (nvarchar(max))
  - RowID : (int)
  --
}

entity "puml-link:dhw:sqldb:ssis_t.tblcontrolflow.adoc[]" as ssis_t.TblControlFlow << U >> {
  - **ControlFlowDetailsRowID** : (int)
  DelayValidationPropertyValue : (varchar(100))
  DFTQuery : (xml)
  ExecPkgTaskQry : (xml)
  ExpressionValue : (varchar(5000))
  IsDisabled : (varchar(10))
  RowID : (int)
  ScriptTaskQry : (xml)
  SqlTaskQry : (xml)
  TaskDescription : (varchar(max))
  TaskName : (varchar(2000))
  TaskPath : (varchar(8000))
  TaskType : (varchar(5000))
  --
}

entity "puml-link:dhw:sqldb:ssis_t.tblparameter.adoc[]" as ssis_t.TblParameter << U >> {
  Category : (varchar(1000))
  ExpressionValue : (varchar(5000))
  PackageCreatorName : (varchar(1000))
  PackageName : (varchar(max))
  PackagePath : (varchar(5000))
  ParameterDataType : (varchar(max))
  ParameterHexValue : (varchar(1000))
  ParameterName : (varchar(500))
  - ParameterRowID : (int)
  ParameterValue : (varchar(max))
  RowID : (int)
  --
}

entity "puml-link:dhw:sqldb:ssis_t.tbltask_dft_derived.adoc[]" as ssis_t.TblTask_Dft_Derived << U >> {
  DataFlowDetailsRowID : (int)
  DerivedValue : (varchar(8000))
  DestinationColumn : (varchar(8000))
  RowID : (int)
  SourceColumn : (varchar(8000))
  --
}

entity "puml-link:dhw:sqldb:ssis_t.tbltask_dft_details.adoc[]" as ssis_t.TblTask_Dft_Details << U >> {
  ControlFlowDetailsRowID : (int)
  - DataFlowDetailsRowID : (int)
  DFTConnectionManager : (varchar(max))
  DFTRowSet : (varchar(max))
  DFTSQLCommand : (varchar(max))
  DFTTaskName : (varchar(max))
  DFTTasksPath : (varchar(max))
  DFTTaskType : (varchar(max))
  DFTTaskType1 : (varchar(max))
  InputQry : (xml)
  IsSortedProperty : (varchar(10))
  MultihashcolumnSortPosition : (varchar(max))
  OutputQry : (xml)
  ParameterBindingParameterName : (varchar(2000))
  RowID : (int)
  Variable : (varchar(max))
  --
}

entity "puml-link:dhw:sqldb:ssis_t.tbltask_dft_srcdest.adoc[]" as ssis_t.TblTask_Dft_SrcDest << U >> {
  DataFlowDetailsRowID : (int)
  DataSource : (varchar(50))
  DestinationColumn : (varchar(8000))
  RowID : (int)
  SortKeyPosition : (varchar(10))
  SourceColumn : (varchar(8000))
  --
}

entity "puml-link:dhw:sqldb:ssis_t.tbltask_executepackage.adoc[]" as ssis_t.TblTask_ExecutePackage << U >> {
  - **ControlFlowDetailsRowID** : (int)
  ExecutedPackageName : (varchar(1000))
  ExecutePackageConnection : (varchar(1000))
  ExecutePackageExpression : (varchar(1000))
  RowID : (int)
  --
}

entity "puml-link:dhw:sqldb:ssis_t.tbltask_lookup.adoc[]" as ssis_t.TblTask_Lookup << U >> {
  DataFlowDetailsRowID : (int)
  DestinationColumn : (varchar(8000))
  LookupJoins : (varchar(8000))
  RowID : (int)
  SourceColumn : (varchar(8000))
  --
}

entity "puml-link:dhw:sqldb:ssis_t.tbltask_script.adoc[]" as ssis_t.TblTask_Script << U >> {
  - **ControlFlowDetailsRowID** : (int)
  RowID : (int)
  Script : (varchar(max))
  --
}

entity "puml-link:dhw:sqldb:ssis_t.tbltask_sql_parameter.adoc[]" as ssis_t.TblTask_Sql_Parameter << U >> {
  ControlFlowDetailsRowID : (int)
  ParameterBindingParameterName : (varchar(1000))
  ParameterBindingSequence : (varchar(1000))
  ResultSetParameterName : (varchar(1000))
  RowID : (int)
  --
}

entity "puml-link:dhw:sqldb:ssis_t.tblvariable.adoc[]" as ssis_t.TblVariable << U >> {
  Category : (varchar(1000))
  ExpressionValue : (varchar(5000))
  PackageCreatorName : (varchar(1000))
  PackageName : (varchar(max))
  PackagePath : (varchar(5000))
  RowID : (int)
  VariableDataType : (varchar(max))
  VariableHexValue : (varchar(1000))
  VariableName : (varchar(500))
  - VariableRowID : (int)
  VariableValue : (varchar(max))
  --
}

entity "puml-link:dhw:sqldb:ssis_t.tempprecedence6.adoc[]" as ssis_t.tempprecedence6 << U >> {
  ROWID : (int)
  sequenceno : (bigint)
  task : (varchar(2000))
  --
}

entity "puml-link:dhw:sqldb:ssis_t.usp_packageanalysis.adoc[]" as ssis_t.usp_PackageAnalysis << P >> {
  --
}

ssis_t.Connection <.. ssis_t.usp_PackageAnalysis
ssis_t.PackageAnalysis <.. ssis_t.usp_PackageAnalysis
ssis_t.pkgStats <.. ssis_t.usp_PackageAnalysis
ssis_t.TblConnection <.. ssis_t.usp_PackageAnalysis
ssis_t.TblControlFlow <.. ssis_t.usp_PackageAnalysis
ssis_t.TblParameter <.. ssis_t.usp_PackageAnalysis
ssis_t.TblTask_Dft_Derived <.. ssis_t.usp_PackageAnalysis
ssis_t.TblTask_Dft_Details <.. ssis_t.usp_PackageAnalysis
ssis_t.TblTask_Dft_SrcDest <.. ssis_t.usp_PackageAnalysis
ssis_t.TblTask_ExecutePackage <.. ssis_t.usp_PackageAnalysis
ssis_t.TblTask_Lookup <.. ssis_t.usp_PackageAnalysis
ssis_t.TblTask_Script <.. ssis_t.usp_PackageAnalysis
ssis_t.TblTask_Sql_Parameter <.. ssis_t.usp_PackageAnalysis
ssis_t.TblVariable <.. ssis_t.usp_PackageAnalysis
ssis_t.tempprecedence6 <.. ssis_t.usp_PackageAnalysis
footer The diagram is interactive and contains links.
@enduml

