@startuml
left to right direction
'top to bottom direction
hide circle
'avoide "." issues:
set namespaceSeparator none


skinparam class {
  BackgroundColor White
  BackgroundColor<<FN>> Yellow
  BackgroundColor<<FS>> Yellow
  BackgroundColor<<FT>> LightGray
  BackgroundColor<<IF>> Yellow
  BackgroundColor<<IS>> Yellow
  BackgroundColor<<P>> Aqua
  BackgroundColor<<PC>> Aqua
  BackgroundColor<<SN>> Yellow
  BackgroundColor<<SO>> SlateBlue
  BackgroundColor<<TF>> LightGray
  BackgroundColor<<TR>> Tomato
  BackgroundColor<<U>> White
  BackgroundColor<<V>> WhiteSmoke
  BackgroundColor<<X>> Aqua
  BackgroundColor<<external>> AliceBlue
}


entity "puml-link:dhw:sqldb:ssis.antoramodule_tgt_filter.adoc[]" as ssis.AntoraModule_tgt_filter << V >> {
  - AntoraModule : (varchar(50))
  --
}

entity "puml-link:dhw:sqldb:ssis.packageparameter.adoc[]" as ssis.PackageParameter << U >> {
  - **AntoraModule** : (varchar(50))
  - **PackageName** : (varchar(200))
  - **ParameterName** : (varchar(500))
  ExpressionValue : (varchar(5000))
  ParameterDataType : (varchar(max))
  ParameterHexValue : (varchar(1000))
  ParameterValue : (varchar(max))
  --
}

entity "puml-link:dhw:sqldb:ssis.packageparameter_src.adoc[]" as ssis.PackageParameter_src << V >> {
  - **AntoraModule** : (varchar(50))
  **PackageName** : (varchar(200))
  **ParameterName** : (varchar(500))
  ExpressionValue : (varchar(5000))
  ParameterDataType : (varchar(max))
  ParameterHexValue : (varchar(1000))
  ParameterValue : (varchar(max))
  --
}

entity "puml-link:dhw:sqldb:ssis.packageparameter_tgt.adoc[]" as ssis.PackageParameter_tgt << V >> {
  - **AntoraModule** : (varchar(50))
  **PackageName** : (varchar(200))
  **ParameterName** : (varchar(500))
  ExpressionValue : (varchar(5000))
  ParameterDataType : (varchar(max))
  ParameterHexValue : (varchar(1000))
  ParameterValue : (varchar(max))
  --
}

entity "puml-link:dhw:sqldb:ssis.usp_persist_packageparameter_tgt.adoc[]" as ssis.usp_PERSIST_PackageParameter_tgt << P >> {
  --
}

ssis.AntoraModule_tgt_filter <.. ssis.PackageParameter_tgt
ssis.PackageParameter <.. ssis.PackageParameter_tgt
ssis.PackageParameter_src <.. ssis.PackageParameter_tgt
ssis.PackageParameter_tgt <.. ssis.AntoraModule_tgt_filter
ssis.PackageParameter_tgt <.. ssis.PackageParameter
ssis.PackageParameter_tgt <.. ssis.usp_PERSIST_PackageParameter_tgt
"ssis.PackageParameter::AntoraModule" <-- "ssis.PackageParameter_tgt::AntoraModule"
"ssis.PackageParameter::ExpressionValue" <-- "ssis.PackageParameter_tgt::ExpressionValue"
"ssis.PackageParameter::PackageName" <-- "ssis.PackageParameter_tgt::PackageName"
"ssis.PackageParameter::ParameterDataType" <-- "ssis.PackageParameter_tgt::ParameterDataType"
"ssis.PackageParameter::ParameterHexValue" <-- "ssis.PackageParameter_tgt::ParameterHexValue"
"ssis.PackageParameter::ParameterName" <-- "ssis.PackageParameter_tgt::ParameterName"
"ssis.PackageParameter::ParameterValue" <-- "ssis.PackageParameter_tgt::ParameterValue"
"ssis.PackageParameter_src::AntoraModule" <-- "ssis.PackageParameter_tgt::AntoraModule"
"ssis.PackageParameter_src::ExpressionValue" <-- "ssis.PackageParameter_tgt::ExpressionValue"
"ssis.PackageParameter_src::PackageName" <-- "ssis.PackageParameter_tgt::PackageName"
"ssis.PackageParameter_src::ParameterDataType" <-- "ssis.PackageParameter_tgt::ParameterDataType"
"ssis.PackageParameter_src::ParameterHexValue" <-- "ssis.PackageParameter_tgt::ParameterHexValue"
"ssis.PackageParameter_src::ParameterName" <-- "ssis.PackageParameter_tgt::ParameterName"
"ssis.PackageParameter_src::ParameterValue" <-- "ssis.PackageParameter_tgt::ParameterValue"footer The diagram is interactive and contains links.
@enduml

