@startuml
left to right direction
'top to bottom direction
hide circle
'avoide "." issues:
set namespaceSeparator none


skinparam class {
  BackgroundColor White
  BackgroundColor<<FN>> Yellow
  BackgroundColor<<FS>> Yellow
  BackgroundColor<<FT>> LightGray
  BackgroundColor<<IF>> Yellow
  BackgroundColor<<IS>> Yellow
  BackgroundColor<<P>> Aqua
  BackgroundColor<<PC>> Aqua
  BackgroundColor<<SN>> Yellow
  BackgroundColor<<SO>> SlateBlue
  BackgroundColor<<TF>> LightGray
  BackgroundColor<<TR>> Tomato
  BackgroundColor<<U>> White
  BackgroundColor<<V>> WhiteSmoke
  BackgroundColor<<X>> Aqua
  BackgroundColor<<external>> AliceBlue
}


entity "puml-link:dhw:sqldb:logs.usp_executionlog_insert.adoc[]" as logs.usp_ExecutionLog_insert << P >> {
  --
}

entity "puml-link:dhw:sqldb:ssis.packagetask_dft_component_output_externalmetadatacolumn_src.adoc[]" as ssis.PackageTask_Dft_Component_output_externalMetadataColumn_src << V >> {
  - **AntoraModule** : (varchar(50))
  **PackageName** : (varchar(200))
  **Column_refId** : (varchar(max))
  Column_dataType : (varchar(100))
  Column_length : (int)
  Column_name : (varchar(max))
  Column_precision : (int)
  Column_scale : (int)
  Component_refId : (varchar(max))
  - ControlFlowDetailsRowID : (int)
  externalMetadataColumns_isused : (bit)
  output_name : (varchar(500))
  output_refId : (varchar(max))
  TaskPath : (varchar(8000))
  --
}

entity "puml-link:dhw:sqldb:ssis.packagetask_dft_component_output_externalmetadatacolumn_tgt.adoc[]" as ssis.PackageTask_Dft_Component_output_externalMetadataColumn_tgt << V >> {
  - **AntoraModule** : (varchar(50))
  **PackageName** : (varchar(200))
  **Column_refId** : (varchar(max))
  Column_dataType : (varchar(100))
  Column_length : (int)
  Column_name : (varchar(max))
  Column_precision : (int)
  Column_scale : (int)
  Component_refId : (varchar(max))
  - ControlFlowDetailsRowID : (int)
  externalMetadataColumns_isused : (bit)
  output_name : (varchar(500))
  output_refId : (varchar(max))
  TaskPath : (varchar(8000))
  --
}

entity "puml-link:dhw:sqldb:ssis.usp_import.adoc[]" as ssis.usp_import << P >> {
  --
}

entity "puml-link:dhw:sqldb:ssis.usp_persist_packagetask_dft_component_output_externalmetadatacolumn_tgt.adoc[]" as ssis.usp_PERSIST_PackageTask_Dft_Component_output_externalMetadataColumn_tgt << P >> {
  --
}

logs.usp_ExecutionLog_insert <.. ssis.usp_PERSIST_PackageTask_Dft_Component_output_externalMetadataColumn_tgt
ssis.PackageTask_Dft_Component_output_externalMetadataColumn_src <.. ssis.usp_PERSIST_PackageTask_Dft_Component_output_externalMetadataColumn_tgt
ssis.PackageTask_Dft_Component_output_externalMetadataColumn_tgt <.. ssis.usp_PERSIST_PackageTask_Dft_Component_output_externalMetadataColumn_tgt
ssis.usp_PERSIST_PackageTask_Dft_Component_output_externalMetadataColumn_tgt <.. ssis.usp_import
footer The diagram is interactive and contains links.
@enduml

