@startuml
left to right direction
'top to bottom direction
hide circle
'avoide "." issues:
set namespaceSeparator none


skinparam class {
  BackgroundColor White
  BackgroundColor<<FN>> Yellow
  BackgroundColor<<FS>> Yellow
  BackgroundColor<<FT>> LightGray
  BackgroundColor<<IF>> Yellow
  BackgroundColor<<IS>> Yellow
  BackgroundColor<<P>> Aqua
  BackgroundColor<<PC>> Aqua
  BackgroundColor<<SN>> Yellow
  BackgroundColor<<SO>> SlateBlue
  BackgroundColor<<TF>> LightGray
  BackgroundColor<<TR>> Tomato
  BackgroundColor<<U>> White
  BackgroundColor<<V>> WhiteSmoke
  BackgroundColor<<X>> Aqua
  BackgroundColor<<external>> AliceBlue
}


entity "puml-link:dhw:sqldb:ssis.packageconnection_src.adoc[]" as ssis.PackageConnection_src << V >> {
  - **AntoraModule** : (varchar(50))
  **PackageName** : (varchar(200))
  **ConnectionManagerID** : (uniqueidentifier)
  ConnectionManagerName : (varchar(max))
  ConnectionManagerType : (varchar(max))
  ConnectionString : (varchar(max))
  ExpressionValue : (varchar(max))
  RetainSameConnectionProperty : (nvarchar(max))
  --
}

entity "puml-link:dhw:sqldb:ssis_t.tblconnection.adoc[]" as ssis_t.TblConnection << U >> {
  - Category : (varchar(10))
  ConnectionManagerID : (uniqueidentifier)
  ConnectionManagerName : (varchar(max))
  ConnectionManagerType : (varchar(max))
  ConnectionString : (varchar(max))
  - DelayValidationPropertyValue : (varchar(2))
  ExpressionValue : (varchar(max))
  PackageCreatorName : (varchar(1000))
  PackageName : (varchar(8000))
  - PackagePath : (varchar(8000))
  RetainSameConnectionProperty : (nvarchar(max))
  - RowID : (int)
  --
}

entity "puml-link:dhw:sqldb:ssis_t.usp_getpackagedetails.adoc[]" as ssis_t.usp_GetPackageDetails << P >> {
  --
}

entity "puml-link:dhw:sqldb:ssis_t.usp_packageanalysis.adoc[]" as ssis_t.usp_PackageAnalysis << P >> {
  --
}

ssis_t.TblConnection <.. ssis_t.usp_GetPackageDetails
ssis_t.TblConnection <.. ssis.PackageConnection_src
ssis_t.TblConnection <.. ssis_t.usp_PackageAnalysis
"ssis_t.TblConnection::ConnectionManagerID" <-- "ssis.PackageConnection_src::ConnectionManagerID"
"ssis_t.TblConnection::ConnectionManagerName" <-- "ssis.PackageConnection_src::ConnectionManagerName"
"ssis_t.TblConnection::ConnectionManagerType" <-- "ssis.PackageConnection_src::ConnectionManagerType"
"ssis_t.TblConnection::ConnectionString" <-- "ssis.PackageConnection_src::ConnectionString"
"ssis_t.TblConnection::ExpressionValue" <-- "ssis.PackageConnection_src::ExpressionValue"
"ssis_t.TblConnection::RetainSameConnectionProperty" <-- "ssis.PackageConnection_src::RetainSameConnectionProperty"footer The diagram is interactive and contains links.
@enduml

