@startuml
left to right direction
'top to bottom direction
hide circle
'avoide "." issues:
set namespaceSeparator none


skinparam class {
  BackgroundColor White
  BackgroundColor<<FN>> Yellow
  BackgroundColor<<FS>> Yellow
  BackgroundColor<<FT>> LightGray
  BackgroundColor<<IF>> Yellow
  BackgroundColor<<IS>> Yellow
  BackgroundColor<<P>> Aqua
  BackgroundColor<<PC>> Aqua
  BackgroundColor<<SN>> Yellow
  BackgroundColor<<SO>> SlateBlue
  BackgroundColor<<TF>> LightGray
  BackgroundColor<<TR>> Tomato
  BackgroundColor<<U>> White
  BackgroundColor<<V>> WhiteSmoke
  BackgroundColor<<X>> Aqua
  BackgroundColor<<external>> AliceBlue
}


entity "puml-link:dhw:sqldb:repo_sys.extendedproperties.adoc[]" as repo_sys.ExtendedProperties << V >> {
  - class : (tinyint)
  class_desc : (nvarchar(60))
  entity_column_name : (nvarchar(128))
  entity_index_name : (nvarchar(128))
  entity_parameter_name : (nvarchar(128))
  level2type : (varchar(9))
  - major_id : (int)
  - minor_id : (int)
  minor_name : (nvarchar(128))
  parent_name : (sysname)
  parent_object_id : (int)
  parent_type : (char(2))
  property_basetype : (sql_variant)
  - property_name : (sysname)
  property_nvarchar : (nvarchar(4000))
  property_value : (sql_variant)
  SysObject_name : (nvarchar(128))
  SysObject_schema_name : (nvarchar(128))
  --
}

entity "puml-link:dhw:sqldb:repo_sys.parameters.adoc[]" as repo_sys.parameters << V >> {
  column_encryption_key_database_name : (sysname)
  column_encryption_key_id : (int)
  default_value : (sql_variant)
  encryption_algorithm_name : (sysname)
  encryption_type : (int)
  encryption_type_desc : (nvarchar(64))
  - has_default_value : (bit)
  - is_cursor_ref : (bit)
  is_nullable : (bit)
  - is_output : (bit)
  - is_readonly : (bit)
  - is_xml_document : (bit)
  - max_length : (smallint)
  name : (sysname)
  - object_id : (int)
  - parameter_id : (int)
  - precision : (tinyint)
  - scale : (tinyint)
  SysObject_fullname : (nvarchar(517))
  SysObject_fullname2 : (nvarchar(257))
  SysObject_name : (sysname)
  SysObject_RepoObject_guid : (uniqueidentifier)
  SysObject_schema_name : (sysname)
  SysObject_type : (char(2))
  - system_type_id : (tinyint)
  user_type_fullname : (nvarchar(182))
  - user_type_id : (int)
  user_type_name : (sysname)
  - xml_collection_id : (int)
  --
}

entity "puml-link:dhw:sqldb:sys_dwh.parameters.adoc[]" as sys_dwh.parameters << SN >> {
  --
}

sys_dwh.parameters <.. repo_sys.ExtendedProperties
sys_dwh.parameters <.. repo_sys.parameters
footer The diagram is interactive and contains links.
@enduml

