@startuml
left to right direction
'top to bottom direction
hide circle
'avoide "." issues:
set namespaceSeparator none


skinparam class {
  BackgroundColor White
  BackgroundColor<<FN>> Yellow
  BackgroundColor<<FS>> Yellow
  BackgroundColor<<FT>> LightGray
  BackgroundColor<<IF>> Yellow
  BackgroundColor<<IS>> Yellow
  BackgroundColor<<P>> Aqua
  BackgroundColor<<PC>> Aqua
  BackgroundColor<<SN>> Yellow
  BackgroundColor<<SO>> SlateBlue
  BackgroundColor<<TF>> LightGray
  BackgroundColor<<TR>> Tomato
  BackgroundColor<<U>> White
  BackgroundColor<<V>> WhiteSmoke
  BackgroundColor<<X>> Aqua
  BackgroundColor<<external>> AliceBlue
}


entity "puml-link:dhw:sqldb:uspgenerator.ftv_generatoruspstep_sql.adoc[]" as uspgenerator.ftv_GeneratorUspStep_sql << IF >> {
  --
  - Number : (int)
  - SqlStep : (nvarchar(max))
  Statement : (nvarchar(max))
  --
  --
}

entity "puml-link:dhw:sqldb:uspgenerator.ftv_generatoruspstep_tree.adoc[]" as uspgenerator.ftv_GeneratorUspStep_tree << IF >> {
  --
  Asc_PerParentChild : (bigint)
  child_PerParent : (bigint)
  Depth : (int)
  Desc_PerParentChild : (bigint)
  is_condition : (tinyint)
  - is_required_ELSE : (int)
  Number : (int)
  Parent_Number : (int)
  Parent_Sort : (int)
  Root_Sort : (int)
  RowNumber_PerUsp : (bigint)
  Sort : (int)
  usp_id : (int)
  --
  --
}

entity "puml-link:dhw:sqldb:uspgenerator.generatorusp.adoc[]" as uspgenerator.GeneratorUsp << U >> {
  - **id** : (int)
  --
  - has_logging : (tinyint)
  usp_Description : (nvarchar(4000))
  usp_Examples : (nvarchar(4000))
  - usp_name : (nvarchar(128))
  - usp_schema : (nvarchar(128))
  # usp_fullname : (nvarchar(261))
  --
  --
}

entity "puml-link:dhw:sqldb:uspgenerator.generatorusp_steplist.adoc[]" as uspgenerator.GeneratorUsp_StepList << V >> {
  --
  AdocStepList : (nvarchar(max))
  StepList : (nvarchar(max))
  - usp_id : (int)
  --
  --
}

entity "puml-link:dhw:sqldb:uspgenerator.generatoruspstep.adoc[]" as uspgenerator.GeneratorUspStep << U >> {
  - **id** : (int)
  --
  Description : (nvarchar(4000))
  - has_logging : (tinyint)
  info_01 : (nvarchar(max))
  info_02 : (nvarchar(max))
  info_03 : (nvarchar(max))
  info_04 : (nvarchar(max))
  info_05 : (nvarchar(max))
  info_06 : (nvarchar(max))
  info_07 : (nvarchar(max))
  info_08 : (nvarchar(max))
  info_09 : (nvarchar(max))
  - is_condition : (tinyint)
  - is_inactive : (tinyint)
  - is_SubProcedure : (tinyint)
  log_flag_InsertUpdateDelete : (char(1))
  log_source_object : (nvarchar(261))
  log_target_object : (nvarchar(261))
  Name : (nvarchar(1000))
  - Number : (int)
  Parent_Number : (int)
  Statement : (nvarchar(max))
  - usp_id : (int)
  --
  --
}

entity "puml-link:dhw:sqldb:uspgenerator.generatoruspstep_sql.adoc[]" as uspgenerator.GeneratorUspStep_Sql << V >> {
  - **usp_id** : (int)
  **Number** : (int)
  --
  - AdocStep : (nvarchar(max))
  - has_logging : (tinyint)
  is_required_ELSE : (int)
  required_Begin_count : (int)
  required_End_count : (int)
  RowNumber_PerUsp : (bigint)
  - SqlStep : (nvarchar(max))
  - usp_fullname : (nvarchar(261))
  --
  --
}

uspgenerator.ftv_GeneratorUspStep_sql <.. uspgenerator.GeneratorUspStep_Sql
uspgenerator.ftv_GeneratorUspStep_tree <.. uspgenerator.GeneratorUspStep_Sql
uspgenerator.GeneratorUsp <.. uspgenerator.GeneratorUspStep_Sql
uspgenerator.GeneratorUspStep <.. uspgenerator.GeneratorUspStep_Sql
uspgenerator.GeneratorUspStep_Sql <.. uspgenerator.GeneratorUsp_StepList
"uspgenerator.GeneratorUsp::has_logging" <-- "uspgenerator.GeneratorUspStep_Sql::has_logging"
"uspgenerator.GeneratorUsp::id" <-- "uspgenerator.GeneratorUspStep_Sql::usp_id"
"uspgenerator.GeneratorUsp::usp_fullname" <-- "uspgenerator.GeneratorUspStep_Sql::usp_fullname"
"uspgenerator.GeneratorUspStep_Sql::usp_id" <-- "uspgenerator.GeneratorUsp_StepList::usp_id"
@enduml

