@startuml
left to right direction
'top to bottom direction
hide circle
'avoide "." issues:
set namespaceSeparator none


skinparam class {
  BackgroundColor White
  BackgroundColor<<FN>> Yellow
  BackgroundColor<<FS>> Yellow
  BackgroundColor<<FT>> LightGray
  BackgroundColor<<IF>> Yellow
  BackgroundColor<<IS>> Yellow
  BackgroundColor<<P>> Aqua
  BackgroundColor<<PC>> Aqua
  BackgroundColor<<SN>> Yellow
  BackgroundColor<<SO>> SlateBlue
  BackgroundColor<<TF>> LightGray
  BackgroundColor<<TR>> Tomato
  BackgroundColor<<U>> White
  BackgroundColor<<V>> WhiteSmoke
  BackgroundColor<<X>> Aqua
  BackgroundColor<<external>> AliceBlue
}


entity "puml-link:dhw:sqldb:repo.repoobject.adoc[]" as repo.RepoObject << U >> {
  - **RepoObject_guid** : (uniqueidentifier)
  external_AntoraComponent : (nvarchar(128))
  external_AntoraModule : (nvarchar(128))
  has_execution_plan_issue : (bit)
  has_get_referenced_issue : (bit)
  Inheritance_Source_fullname : (nvarchar(261))
  Inheritance_StringAggSeparatorSql : (nvarchar(4000))
  InheritanceDefinition : (nvarchar(4000))
  InheritanceType : (tinyint)
  - is_DocsExclude : (bit)
  - is_external : (bit)
  is_repo_managed : (bit)
  is_required_ObjectMerge : (bit)
  - is_ssas : (bit)
  is_SysObject_missing : (bit)
  - modify_dt : (datetime)
  pk_index_guid : (uniqueidentifier)
  pk_IndexPatternColumnName_new : (nvarchar(4000))
  Repo_history_table_guid : (uniqueidentifier)
  Repo_temporal_type : (tinyint)
  - RepoObject_name : (nvarchar(128))
  RepoObject_Referencing_Count : (int)
  - RepoObject_schema_name : (nvarchar(128))
  - RepoObject_type : (char(2))
  SysObject_id : (int)
  SysObject_modify_date : (datetime)
  - SysObject_name : (nvarchar(128))
  - SysObject_parent_object_id : (int)
  - SysObject_schema_name : (nvarchar(128))
  SysObject_type : (char(2))
  ~ has_different_sys_names : (bit)
  # is_RepoObject_name_uniqueidentifier : (int)
  # is_SysObject_name_uniqueidentifier : (int)
  ~ node_id : (bigint)
  # RepoObject_fullname : (nvarchar(261))
  # RepoObject_fullname2 : (nvarchar(257))
  # SysObject_fullname : (nvarchar(261))
  # SysObject_fullname2 : (nvarchar(257))
  ~ SysObject_query_sql : (nvarchar(406))
  # usp_persistence_fullname2 : (nvarchar(269))
  # usp_persistence_name : (nvarchar(140))
  --
}

entity "puml-link:dhw:sqldb:workflow.biml_package.adoc[]" as workflow.Biml_Package << V >> {
  - id : (int)
  Package_Biml : (nvarchar(max))
  Package_Description : (nvarchar(4000))
  Package_Name : (nvarchar(500))
  --
}

entity "puml-link:dhw:sqldb:workflow.biml_precedenceconstraints.adoc[]" as workflow.Biml_PrecedenceConstraints << V >> {
  PrecedenceConstraints : (nvarchar(4000))
  - referencing_Procedure_RepoObject_guid : (uniqueidentifier)
  referencing_TaskName : (nvarchar(4000))
  - Workflow_id : (int)
  --
}

entity "puml-link:dhw:sqldb:workflow.biml_task.adoc[]" as workflow.Biml_Task << V >> {
  - Procedure_RepoObject_guid : (uniqueidentifier)
  - RepoObject_fullname2 : (nvarchar(257))
  - TaskBiml : (nvarchar(max))
  TaskName : (nvarchar(4000))
  - Workflow_id : (int)
  - Workflow_Name : (nvarchar(500))
  --
}

entity "puml-link:dhw:sqldb:workflow.workflowstep_active.adoc[]" as workflow.WorkflowStep_active << V >> {
  - is_PossibleReferenced : (bit)
  - Procedure_RepoObject_guid : (uniqueidentifier)
  - Workflow_id : (int)
  - Workflow_Name : (nvarchar(500))
  --
}

repo.RepoObject <.. workflow.Biml_Task
workflow.Biml_PrecedenceConstraints <.. workflow.Biml_Task
workflow.Biml_Task <.. workflow.Biml_Package
workflow.WorkflowStep_active <.. workflow.Biml_Task
"repo.RepoObject::RepoObject_fullname2" <-- "workflow.Biml_Task::RepoObject_fullname2"
"workflow.WorkflowStep_active::Procedure_RepoObject_guid" <-- "workflow.Biml_Task::Procedure_RepoObject_guid"
"workflow.WorkflowStep_active::Workflow_id" <-- "workflow.Biml_Task::Workflow_id"
"workflow.WorkflowStep_active::Workflow_Name" <-- "workflow.Biml_Task::Workflow_Name"footer The diagram is interactive and contains links.
@enduml

