@startuml
left to right direction
'top to bottom direction
hide circle
'avoide "." issues:
set namespaceSeparator none


skinparam class {
  BackgroundColor White
  BackgroundColor<<FN>> Yellow
  BackgroundColor<<FS>> Yellow
  BackgroundColor<<FT>> LightGray
  BackgroundColor<<IF>> Yellow
  BackgroundColor<<IS>> Yellow
  BackgroundColor<<P>> Aqua
  BackgroundColor<<PC>> Aqua
  BackgroundColor<<SN>> Yellow
  BackgroundColor<<SO>> SlateBlue
  BackgroundColor<<TF>> LightGray
  BackgroundColor<<TR>> Tomato
  BackgroundColor<<U>> White
  BackgroundColor<<V>> WhiteSmoke
  BackgroundColor<<X>> Aqua
  BackgroundColor<<external>> AliceBlue
}


entity "puml-link:dhw:sqldb:config.ftv_dwh_database.adoc[]" as config.ftv_dwh_database << IF >> {
  dwh_database_id : (smallint)
  dwh_database_name : (nvarchar(128))
  --
}

entity "puml-link:dhw:sqldb:workflow.workflow_sqlusp.adoc[]" as workflow.Workflow_SqlUsp << V >> {
  - SqlUsp : (nvarchar(max))
  UspList : (nvarchar(max))
  - Workflow_id : (int)
  Workflow_Name : (nvarchar(500))
  --
}

entity "puml-link:dhw:sqldb:workflow.workflow_usplist.adoc[]" as workflow.Workflow_UspList << V >> {
  UspList : (nvarchar(max))
  - Workflow_id : (int)
  Workflow_Name : (nvarchar(500))
  --
}

config.ftv_dwh_database <.. workflow.Workflow_SqlUsp
workflow.Workflow_UspList <.. workflow.Workflow_SqlUsp
"workflow.Workflow_UspList::UspList" <-- "workflow.Workflow_SqlUsp::UspList"
"workflow.Workflow_UspList::Workflow_id" <-- "workflow.Workflow_SqlUsp::Workflow_id"
"workflow.Workflow_UspList::Workflow_Name" <-- "workflow.Workflow_SqlUsp::Workflow_Name"footer The diagram is interactive and contains links.
@enduml

