@startuml
left to right direction
'top to bottom direction
hide circle
'avoide "." issues:
set namespaceSeparator none


skinparam class {
  BackgroundColor White
  BackgroundColor<<FN>> Yellow
  BackgroundColor<<FS>> Yellow
  BackgroundColor<<FT>> LightGray
  BackgroundColor<<IF>> Yellow
  BackgroundColor<<IS>> Yellow
  BackgroundColor<<P>> Aqua
  BackgroundColor<<PC>> Aqua
  BackgroundColor<<SN>> Yellow
  BackgroundColor<<SO>> SlateBlue
  BackgroundColor<<TF>> LightGray
  BackgroundColor<<TR>> Tomato
  BackgroundColor<<U>> White
  BackgroundColor<<V>> WhiteSmoke
  BackgroundColor<<X>> Aqua
  BackgroundColor<<external>> AliceBlue
}


entity "puml-link:dhw:sqldb:workflow.biml_package.adoc[]" as workflow.Biml_Package << V >> {
  --
  - id : (int)
  Package_Biml : (nvarchar(max))
  Package_Description : (nvarchar(4000))
  Package_Name : (nvarchar(500))
  --
  --
}

entity "puml-link:dhw:sqldb:workflow.workflow.adoc[]" as workflow.Workflow << U >> {
  - **id** : (int)
  --
  Description : (nvarchar(4000))
  - is_active : (bit)
  - Name : (nvarchar(500))
  Package_Biml : (nvarchar(max))
  --
  --
}

entity "puml-link:dhw:sqldb:workflow.workflow_proceduredependency.adoc[]" as workflow.Workflow_ProcedureDependency << V >> {
  --
  - referenced_Procedure_RepoObject_guid : (uniqueidentifier)
  - referencing_Procedure_RepoObject_guid : (uniqueidentifier)
  - Workflow_id : (int)
  --
  --
}

entity "puml-link:dhw:sqldb:workflow.workflow_proceduredependency_all.adoc[]" as workflow.Workflow_ProcedureDependency_all << V >> {
  --
  - referenced_Procedure_RepoObject_guid : (uniqueidentifier)
  - referencing_Procedure_RepoObject_guid : (uniqueidentifier)
  - Workflow_id : (int)
  --
  --
}

entity "puml-link:dhw:sqldb:workflow.workflow_usplist.adoc[]" as workflow.Workflow_UspList << V >> {
  --
  UspList : (nvarchar(max))
  - Workflow_id : (int)
  Workflow_Name : (nvarchar(500))
  --
  --
}

entity "puml-link:dhw:sqldb:workflow.workflowstep_active.adoc[]" as workflow.WorkflowStep_active << V >> {
  --
  - is_PossibleReferenced : (bit)
  - Procedure_RepoObject_guid : (uniqueidentifier)
  - Workflow_id : (int)
  - Workflow_Name : (nvarchar(500))
  --
  --
}

entity "puml-link:dhw:sqldb:workflow.workflowstep_forupdate.adoc[]" as workflow.WorkflowStep_ForUpdate << V >> {
  --
  - id : (int)
  - is_active : (bit)
  - is_PossibleReferenced : (bit)
  - Procedure_RepoObject_guid : (uniqueidentifier)
  - RepoObject_fullname : (nvarchar(261))
  - Workflow_id : (int)
  - Workflow_Name : (nvarchar(500))
  --
  --
}

entity "puml-link:dhw:sqldb:workflow.workflowstep_s.adoc[]" as workflow.WorkflowStep_S << V >> {
  - **Workflow_id** : (int)
  **Procedure_RepoObject_guid** : (uniqueidentifier)
  --
  --
  --
}

workflow.Workflow <.. workflow.WorkflowStep_active
workflow.Workflow <.. workflow.WorkflowStep_S
workflow.Workflow <.. workflow.Workflow_ProcedureDependency_all
workflow.Workflow <.. workflow.WorkflowStep_ForUpdate
workflow.Workflow <.. workflow.Biml_Package
workflow.Workflow <.. workflow.Workflow_ProcedureDependency
workflow.Workflow <.. workflow.Workflow_UspList
"workflow.Workflow::id" <-- "workflow.Workflow_ProcedureDependency::Workflow_id"
"workflow.Workflow::id" <-- "workflow.Biml_Package::id"
"workflow.Workflow::id" <-- "workflow.Workflow_ProcedureDependency_all::Workflow_id"
"workflow.Workflow::Name" <-- "workflow.WorkflowStep_active::Workflow_Name"
"workflow.Workflow::Name" <-- "workflow.WorkflowStep_ForUpdate::Workflow_Name"
@enduml

