@startuml
left to right direction
'top to bottom direction
hide circle
'avoide "." issues:
set namespaceSeparator none


skinparam class {
  BackgroundColor White
  BackgroundColor<<FN>> Yellow
  BackgroundColor<<FS>> Yellow
  BackgroundColor<<FT>> LightGray
  BackgroundColor<<IF>> Yellow
  BackgroundColor<<IS>> Yellow
  BackgroundColor<<P>> Aqua
  BackgroundColor<<PC>> Aqua
  BackgroundColor<<SN>> Yellow
  BackgroundColor<<SO>> SlateBlue
  BackgroundColor<<TF>> LightGray
  BackgroundColor<<TR>> Tomato
  BackgroundColor<<U>> White
  BackgroundColor<<V>> WhiteSmoke
  BackgroundColor<<X>> Aqua
  BackgroundColor<<external>> AliceBlue
}


entity "puml-link:dhw:sqldb:workflow.proceduredependency.adoc[]" as workflow.ProcedureDependency << U >> {
  - **id** : (int)
  --
  Description : (nvarchar(4000))
  - is_active : (bit)
  - is_PersistenceDependency : (bit)
  - referenced_Procedure_RepoObject_guid : (uniqueidentifier)
  referenced_RepoObject_guid : (uniqueidentifier)
  - referencing_Procedure_RepoObject_guid : (uniqueidentifier)
  referencing_RepoObject_guid : (uniqueidentifier)
  --
  --
}

entity "puml-link:dhw:sqldb:workflow.workflow.adoc[]" as workflow.Workflow << U >> {
  - **id** : (int)
  --
  Description : (nvarchar(4000))
  - is_active : (bit)
  - Name : (nvarchar(500))
  Package_Biml : (nvarchar(max))
  --
  --
}

entity "puml-link:dhw:sqldb:workflow.workflow_proceduredependency_all.adoc[]" as workflow.Workflow_ProcedureDependency_all << V >> {
  --
  - referenced_Procedure_RepoObject_guid : (uniqueidentifier)
  - referencing_Procedure_RepoObject_guid : (uniqueidentifier)
  - Workflow_id : (int)
  --
  --
}

entity "puml-link:dhw:sqldb:workflow.workflow_proceduredependency_wo_redundant.adoc[]" as workflow.Workflow_ProcedureDependency_wo_redundant << V >> {
  --
  - referenced_Procedure_RepoObject_guid : (uniqueidentifier)
  - referencing_Procedure_RepoObject_guid : (uniqueidentifier)
  - Workflow_id : (int)
  --
  --
}

entity "puml-link:dhw:sqldb:workflow.workflowstep_active.adoc[]" as workflow.WorkflowStep_active << V >> {
  --
  - is_PossibleReferenced : (bit)
  - Procedure_RepoObject_guid : (uniqueidentifier)
  - Workflow_id : (int)
  - Workflow_Name : (nvarchar(500))
  --
  --
}

workflow.ProcedureDependency <.. workflow.Workflow_ProcedureDependency_all
workflow.Workflow <.. workflow.Workflow_ProcedureDependency_all
workflow.Workflow_ProcedureDependency_all <.. workflow.Workflow_ProcedureDependency_wo_redundant
workflow.WorkflowStep_active <.. workflow.Workflow_ProcedureDependency_all
"workflow.ProcedureDependency::referenced_Procedure_RepoObject_guid" <-- "workflow.Workflow_ProcedureDependency_all::referenced_Procedure_RepoObject_guid"
"workflow.ProcedureDependency::referencing_Procedure_RepoObject_guid" <-- "workflow.Workflow_ProcedureDependency_all::referencing_Procedure_RepoObject_guid"
"workflow.Workflow::id" <-- "workflow.Workflow_ProcedureDependency_all::Workflow_id"
"workflow.Workflow_ProcedureDependency_all::referenced_Procedure_RepoObject_guid" <-- "workflow.Workflow_ProcedureDependency_wo_redundant::referenced_Procedure_RepoObject_guid"
"workflow.Workflow_ProcedureDependency_all::referencing_Procedure_RepoObject_guid" <-- "workflow.Workflow_ProcedureDependency_wo_redundant::referencing_Procedure_RepoObject_guid"
"workflow.Workflow_ProcedureDependency_all::Workflow_id" <-- "workflow.Workflow_ProcedureDependency_wo_redundant::Workflow_id"
@enduml

