@startuml
left to right direction
'top to bottom direction
hide circle
'avoide "." issues:
set namespaceSeparator none


skinparam class {
  BackgroundColor White
  BackgroundColor<<FN>> Yellow
  BackgroundColor<<FS>> Yellow
  BackgroundColor<<FT>> LightGray
  BackgroundColor<<IF>> Yellow
  BackgroundColor<<IS>> Yellow
  BackgroundColor<<P>> Aqua
  BackgroundColor<<PC>> Aqua
  BackgroundColor<<SN>> Yellow
  BackgroundColor<<SO>> SlateBlue
  BackgroundColor<<TF>> LightGray
  BackgroundColor<<TR>> Tomato
  BackgroundColor<<U>> White
  BackgroundColor<<V>> WhiteSmoke
  BackgroundColor<<X>> Aqua
  BackgroundColor<<external>> AliceBlue
}


entity "puml-link:dhw:sqldb:workflow.usp_workflow.adoc[]" as workflow.usp_workflow << P >> {
  --
  --
  --
}

entity "puml-link:dhw:sqldb:workflow.workflow_proceduredependency_t_active.adoc[]" as workflow.Workflow_ProcedureDependency_T_active << V >> {
  --
  - is_redundant : (bit)
  - referenced_Procedure_RepoObject_guid : (uniqueidentifier)
  - referencing_Procedure_RepoObject_guid : (uniqueidentifier)
  - Workflow_id : (int)
  --
  --
}

entity "puml-link:dhw:sqldb:workflow.workflow_proceduredependency_t_notinsortorder.adoc[]" as workflow.Workflow_ProcedureDependency_T_NotInSortorder << V >> {
  --
  - referenced_Procedure_RepoObject_guid : (uniqueidentifier)
  - referencing_Procedure_RepoObject_guid : (uniqueidentifier)
  - Workflow_id : (int)
  --
  --
}

entity "puml-link:dhw:sqldb:workflow.workflow_proceduredependency_t_notinsortorder_check.adoc[]" as workflow.Workflow_ProcedureDependency_T_NotInSortorder_check << V >> {
  --
  - referenced_Procedure_RepoObject_guid : (uniqueidentifier)
  - referencing_Procedure_RepoObject_guid : (uniqueidentifier)
  - RepoObject_fullname_1 : (nvarchar(261))
  - RepoObject_fullname_2 : (nvarchar(261))
  - Workflow_id : (int)
  --
  --
}

entity "puml-link:dhw:sqldb:workflow.workflowstep_sortorder.adoc[]" as workflow.WorkflowStep_Sortorder << U >> {
  - **Workflow_id** : (int)
  - **Procedure_RepoObject_guid** : (uniqueidentifier)
  --
  - Sortorder : (int)
  --
  --
}

workflow.Workflow_ProcedureDependency_T_active <.. workflow.Workflow_ProcedureDependency_T_NotInSortorder
workflow.Workflow_ProcedureDependency_T_NotInSortorder <.. workflow.usp_workflow
workflow.Workflow_ProcedureDependency_T_NotInSortorder <.. workflow.Workflow_ProcedureDependency_T_NotInSortorder_check
workflow.WorkflowStep_Sortorder <.. workflow.Workflow_ProcedureDependency_T_NotInSortorder
"workflow.Workflow_ProcedureDependency_T_active::referenced_Procedure_RepoObject_guid" <-- "workflow.Workflow_ProcedureDependency_T_NotInSortorder::referenced_Procedure_RepoObject_guid"
"workflow.Workflow_ProcedureDependency_T_active::referencing_Procedure_RepoObject_guid" <-- "workflow.Workflow_ProcedureDependency_T_NotInSortorder::referencing_Procedure_RepoObject_guid"
"workflow.Workflow_ProcedureDependency_T_active::Workflow_id" <-- "workflow.Workflow_ProcedureDependency_T_NotInSortorder::Workflow_id"
"workflow.Workflow_ProcedureDependency_T_NotInSortorder::referenced_Procedure_RepoObject_guid" <-- "workflow.Workflow_ProcedureDependency_T_NotInSortorder_check::referenced_Procedure_RepoObject_guid"
"workflow.Workflow_ProcedureDependency_T_NotInSortorder::referencing_Procedure_RepoObject_guid" <-- "workflow.Workflow_ProcedureDependency_T_NotInSortorder_check::referencing_Procedure_RepoObject_guid"
"workflow.Workflow_ProcedureDependency_T_NotInSortorder::Workflow_id" <-- "workflow.Workflow_ProcedureDependency_T_NotInSortorder_check::Workflow_id"
@enduml

