@startuml
left to right direction
'top to bottom direction
hide circle
'avoide "." issues:
set namespaceSeparator none


skinparam class {
  BackgroundColor White
  BackgroundColor<<FN>> Yellow
  BackgroundColor<<FS>> Yellow
  BackgroundColor<<FT>> LightGray
  BackgroundColor<<IF>> Yellow
  BackgroundColor<<IS>> Yellow
  BackgroundColor<<P>> Aqua
  BackgroundColor<<PC>> Aqua
  BackgroundColor<<SN>> Yellow
  BackgroundColor<<SO>> SlateBlue
  BackgroundColor<<TF>> LightGray
  BackgroundColor<<TR>> Tomato
  BackgroundColor<<U>> White
  BackgroundColor<<V>> WhiteSmoke
  BackgroundColor<<X>> Aqua
  BackgroundColor<<external>> AliceBlue
}


entity "puml-link:dhw:sqldb:workflow.biml_package.adoc[]" as workflow.Biml_Package << V >> {
  --
  - id : (int)
  Package_Biml : (nvarchar(max))
  Package_Description : (nvarchar(4000))
  Package_Name : (nvarchar(500))
  --
  --
}

entity "puml-link:dhw:sqldb:workflow.biml_project.adoc[]" as workflow.Biml_Project << V >> {
  --
  - Project_Biml : (nvarchar(max))
  --
  --
}

entity "puml-link:dhw:sqldb:workflow.biml_task.adoc[]" as workflow.Biml_Task << V >> {
  --
  - Procedure_RepoObject_guid : (uniqueidentifier)
  - RepoObject_fullname2 : (nvarchar(257))
  - TaskBiml : (nvarchar(max))
  TaskName : (nvarchar(4000))
  - Workflow_id : (int)
  - Workflow_Name : (nvarchar(500))
  --
  --
}

entity "puml-link:dhw:sqldb:workflow.workflow.adoc[]" as workflow.Workflow << U >> {
  - **id** : (int)
  --
  Description : (nvarchar(4000))
  - is_active : (bit)
  - Name : (nvarchar(500))
  Package_Biml : (nvarchar(max))
  --
  --
}

workflow.Biml_Package <.. workflow.Biml_Project
workflow.Biml_Task <.. workflow.Biml_Package
workflow.Workflow <.. workflow.Biml_Package
"workflow.Workflow::id" <-- "workflow.Biml_Package::id"
@enduml

