@startuml
left to right direction
'top to bottom direction
hide circle
'avoide "." issues:
set namespaceSeparator none


skinparam class {
  BackgroundColor White
  BackgroundColor<<FN>> Yellow
  BackgroundColor<<FS>> Yellow
  BackgroundColor<<FT>> LightGray
  BackgroundColor<<IF>> Yellow
  BackgroundColor<<IS>> Yellow
  BackgroundColor<<P>> Aqua
  BackgroundColor<<PC>> Aqua
  BackgroundColor<<SN>> Yellow
  BackgroundColor<<SO>> SlateBlue
  BackgroundColor<<TF>> LightGray
  BackgroundColor<<TR>> Tomato
  BackgroundColor<<U>> White
  BackgroundColor<<V>> WhiteSmoke
  BackgroundColor<<X>> Aqua
  BackgroundColor<<external>> AliceBlue
}


entity "puml-link:dhw:sqldb:repo.repoobject.adoc[]" as repo.RepoObject << U >> {
  - **RepoObject_guid** : (uniqueidentifier)
  external_AntoraComponent : (nvarchar(128))
  external_AntoraModule : (nvarchar(128))
  has_execution_plan_issue : (bit)
  has_get_referenced_issue : (bit)
  Inheritance_Source_fullname : (nvarchar(261))
  Inheritance_StringAggSeparatorSql : (nvarchar(4000))
  InheritanceDefinition : (nvarchar(4000))
  InheritanceType : (tinyint)
  - is_DocsExclude : (bit)
  - is_external : (bit)
  is_repo_managed : (bit)
  is_required_ObjectMerge : (bit)
  - is_ssas : (bit)
  is_SysObject_missing : (bit)
  - modify_dt : (datetime)
  pk_index_guid : (uniqueidentifier)
  pk_IndexPatternColumnName_new : (nvarchar(4000))
  Repo_history_table_guid : (uniqueidentifier)
  Repo_temporal_type : (tinyint)
  - RepoObject_name : (nvarchar(128))
  RepoObject_Referencing_Count : (int)
  - RepoObject_schema_name : (nvarchar(128))
  - RepoObject_type : (char(2))
  SysObject_id : (int)
  SysObject_modify_date : (datetime)
  - SysObject_name : (nvarchar(128))
  - SysObject_parent_object_id : (int)
  - SysObject_schema_name : (nvarchar(128))
  SysObject_type : (char(2))
  ~ has_different_sys_names : (bit)
  # is_RepoObject_name_uniqueidentifier : (int)
  # is_SysObject_name_uniqueidentifier : (int)
  ~ node_id : (bigint)
  # RepoObject_fullname : (nvarchar(261))
  # RepoObject_fullname2 : (nvarchar(257))
  # SysObject_fullname : (nvarchar(261))
  # SysObject_fullname2 : (nvarchar(257))
  ~ SysObject_query_sql : (nvarchar(406))
  # usp_persistence_fullname2 : (nvarchar(269))
  # usp_persistence_name : (nvarchar(140))
  --
}

entity "puml-link:dhw:sqldb:workflow.workflow.adoc[]" as workflow.Workflow << U >> {
  - **id** : (int)
  Description : (nvarchar(4000))
  - is_active : (bit)
  - Name : (nvarchar(500))
  Package_Biml : (nvarchar(max))
  --
}

entity "puml-link:dhw:sqldb:workflow.workflow_sqlusp.adoc[]" as workflow.Workflow_SqlUsp << V >> {
  - SqlUsp : (nvarchar(max))
  UspList : (nvarchar(max))
  - Workflow_id : (int)
  Workflow_Name : (nvarchar(500))
  --
}

entity "puml-link:dhw:sqldb:workflow.workflow_usplist.adoc[]" as workflow.Workflow_UspList << V >> {
  UspList : (nvarchar(max))
  - Workflow_id : (int)
  Workflow_Name : (nvarchar(500))
  --
}

entity "puml-link:dhw:sqldb:workflow.workflowstep_sortorder.adoc[]" as workflow.WorkflowStep_Sortorder << U >> {
  - **Workflow_id** : (int)
  - **Procedure_RepoObject_guid** : (uniqueidentifier)
  - Sortorder : (int)
  --
}

repo.RepoObject <.. workflow.Workflow_UspList
workflow.Workflow <.. workflow.Workflow_UspList
workflow.Workflow_UspList <.. workflow.Workflow_SqlUsp
workflow.WorkflowStep_Sortorder <.. workflow.Workflow_UspList
"workflow.Workflow_UspList::UspList" <-- "workflow.Workflow_SqlUsp::UspList"
"workflow.Workflow_UspList::Workflow_id" <-- "workflow.Workflow_SqlUsp::Workflow_id"
"workflow.Workflow_UspList::Workflow_Name" <-- "workflow.Workflow_SqlUsp::Workflow_Name"
"workflow.WorkflowStep_Sortorder::Workflow_id" <-- "workflow.Workflow_UspList::Workflow_id"footer The diagram is interactive and contains links.
@enduml

