@startuml
left to right direction
'top to bottom direction
hide circle
'avoide "." issues:
set namespaceSeparator none


skinparam class {
  BackgroundColor White
  BackgroundColor<<FN>> Yellow
  BackgroundColor<<FS>> Yellow
  BackgroundColor<<FT>> LightGray
  BackgroundColor<<IF>> Yellow
  BackgroundColor<<IS>> Yellow
  BackgroundColor<<P>> Aqua
  BackgroundColor<<PC>> Aqua
  BackgroundColor<<SN>> Yellow
  BackgroundColor<<SO>> SlateBlue
  BackgroundColor<<TF>> LightGray
  BackgroundColor<<TR>> Tomato
  BackgroundColor<<U>> White
  BackgroundColor<<V>> WhiteSmoke
  BackgroundColor<<X>> Aqua
  BackgroundColor<<external>> AliceBlue
}


entity "puml-link:dhw:sqldb:logs.usp_executionlog_insert.adoc[]" as logs.usp_ExecutionLog_insert << P >> {
  --
}

entity "puml-link:dhw:sqldb:workflow.usp_persist_workflowstep.adoc[]" as workflow.usp_PERSIST_WorkflowStep << P >> {
  --
}

entity "puml-link:dhw:sqldb:workflow.usp_workflow.adoc[]" as workflow.usp_workflow << P >> {
  --
}

entity "puml-link:dhw:sqldb:workflow.workflowstep.adoc[]" as workflow.WorkflowStep << U >> {
  - **id** : (int)
  - is_active : (bit)
  - is_PossibleReferenced : (bit)
  Procedure_RepoObject_guid : (uniqueidentifier)
  - Workflow_id : (int)
  --
}

entity "puml-link:dhw:sqldb:workflow.workflowstep_s.adoc[]" as workflow.WorkflowStep_S << V >> {
  - **Workflow_id** : (int)
  **Procedure_RepoObject_guid** : (uniqueidentifier)
  --
}

logs.usp_ExecutionLog_insert <.. workflow.usp_PERSIST_WorkflowStep
workflow.usp_PERSIST_WorkflowStep <.. workflow.usp_workflow
workflow.WorkflowStep <.. workflow.usp_PERSIST_WorkflowStep
workflow.WorkflowStep_S <.. workflow.usp_PERSIST_WorkflowStep
footer The diagram is interactive and contains links.
@enduml

